<svg width="53" height="52" viewBox="0 0 53 52" fill="none" xmlns="http://www.w3.org/2000/svg">
<path d="M44.4495 8.37316C39.3794 3.39262 33.3123 0.902344 26.2376 0.902344C19.1629 0.902344 13.0159 3.39262 7.75916 8.37316C2.68372 13.3485 0.145996 19.3073 0.145996 26.2445C0.145996 33.1817 2.68372 39.2243 7.75916 44.3827C13.0159 49.358 19.1789 51.8535 26.2429 51.8535C33.307 51.8535 39.3794 49.3633 44.4548 44.3827C49.7115 39.2243 52.3399 33.1765 52.3399 26.2445C52.3399 19.3126 49.7115 13.3537 44.4548 8.37316H44.4495ZM24.2544 35.3267C24.2544 36.5457 23.7905 37.6077 22.8682 38.518C21.9779 39.3917 20.9063 39.8312 19.6641 39.8312C18.4219 39.8312 17.3396 39.3917 16.4119 38.518C15.5216 37.6129 15.0738 36.5457 15.0738 35.3267V17.3769C15.0738 16.1579 15.5216 15.1115 16.4119 14.2326C17.3343 13.3589 18.4219 12.9195 19.6641 12.9195C20.9063 12.9195 21.9725 13.3589 22.8682 14.2326C23.7905 15.1063 24.2544 16.1579 24.2544 17.3769V35.3267ZM37.4015 35.3267C37.4015 36.5457 36.9376 37.6077 36.0153 38.518C35.125 39.3917 34.0534 39.8312 32.8112 39.8312C31.569 39.8312 30.4867 39.3917 29.559 38.518C28.6687 37.6129 28.2209 36.5457 28.2209 35.3267V28.5831C28.2315 27.385 28.674 26.3492 29.5537 25.4859C30.476 24.6123 31.5636 24.1728 32.8058 24.1728C34.048 24.1728 35.1143 24.6123 36.01 25.4859C36.9216 26.3492 37.3801 27.385 37.3908 28.5831V35.3267H37.4015ZM36.0153 20.5682C35.125 21.4419 34.0534 21.8813 32.8112 21.8813C31.569 21.8813 30.4867 21.4419 29.559 20.5682C28.6687 19.6631 28.2209 18.5958 28.2209 17.3769C28.2209 16.1579 28.6687 15.1115 29.559 14.2326C30.4814 13.3589 31.569 12.9195 32.8112 12.9195C34.0534 12.9195 35.1196 13.3589 36.0153 14.2326C36.9376 15.1063 37.4015 16.1579 37.4015 17.3769C37.4015 18.5958 36.9376 19.6579 36.0153 20.5682Z" fill="#6420FF"/>
</svg>
