<svg width="253" height="252" viewBox="0 0 253 252" fill="none" xmlns="http://www.w3.org/2000/svg">
<path d="M77.9276 18.4632C77.4936 18.4238 77.0991 18.2795 76.7441 18.0302C76.389 17.7808 76.126 17.4528 75.9551 17.0459C75.771 16.626 75.7052 16.2061 75.771 15.7862C75.8236 15.3662 75.9945 14.9726 76.2575 14.6314C76.5205 14.2902 76.8624 14.0277 77.2701 13.844C77.6909 13.6603 78.1117 13.5947 78.5456 13.634C78.9796 13.6865 79.3609 13.8309 79.716 14.0802C80.0579 14.3295 80.3209 14.6576 80.505 15.0775C80.6891 15.4843 80.7417 15.9043 80.6891 16.3373C80.6365 16.7704 80.4787 17.1509 80.2157 17.4921C79.9527 17.8333 79.6108 18.0958 79.2031 18.2664C78.7955 18.4501 78.3747 18.5157 77.9407 18.4632H77.9276Z" fill="#6420FF"/>
<path d="M88.9095 14.9218L86.6871 7.678C86.4899 7.02186 86.8186 6.24762 87.5551 6.02454C88.2783 5.80145 88.9753 6.18201 89.1988 6.90376L91.1187 13.1633L94.1038 12.2578C94.7613 12.061 95.3925 12.3891 95.5898 13.0452C95.787 13.7013 95.4582 14.3181 94.8007 14.515L90.5664 15.801C89.8432 16.0241 89.1331 15.6435 88.9095 14.9218V14.9218Z" fill="#6420FF"/>
<path d="M97.6424 12.6107L95.8408 5.06514C95.6567 4.33027 96.0644 3.64789 96.8139 3.47729C97.5503 3.3067 98.221 3.72662 98.3919 4.4615L100.194 12.0071C100.364 12.742 99.9699 13.4243 99.2204 13.5949C98.484 13.7786 97.8133 13.3587 97.6424 12.6107Z" fill="#6420FF"/>
<path d="M110.5 2.23017L111.749 9.89385C111.868 10.6287 111.42 11.2849 110.697 11.403C109.987 11.5211 109.632 11.1536 109.224 10.7993L104.885 6.92811L105.542 10.9174C105.661 11.6654 105.2 12.3216 104.464 12.4397C103.728 12.5578 103.083 12.0985 102.952 11.3374L101.703 3.67367C101.584 2.93879 102.031 2.28266 102.755 2.16455C103.465 2.04645 103.82 2.41388 104.227 2.7682L108.567 6.62629L107.923 2.66322C107.804 1.91522 108.264 1.27221 109.001 1.14098C109.737 1.00975 110.382 1.48217 110.513 2.23017H110.5Z" fill="#6420FF"/>
<path d="M116.656 1.66646L117.155 9.40888C117.208 10.17 116.682 10.7605 115.932 10.813C115.183 10.8655 114.591 10.3275 114.539 9.57947L114.039 1.83705C113.986 1.07593 114.499 0.48541 115.262 0.432919C116.011 0.380428 116.603 0.905338 116.656 1.66646V1.66646ZM123.415 9.09393C123.454 9.75007 122.915 10.38 122.245 10.4193C121.85 10.4456 121.456 10.275 121.179 9.96003L117.734 6.08882C117.51 5.83949 117.379 5.56391 117.353 5.24897C117.34 4.98651 117.418 4.69781 117.616 4.43536L120.548 0.498533C120.772 0.209832 121.061 0.0654822 121.456 0.0392367C122.1 -0.000131569 122.678 0.511656 122.718 1.18092C122.731 1.48274 122.652 1.74519 122.442 2.03389L120.167 5.09149L123.086 8.37218C123.297 8.62151 123.402 8.85772 123.428 9.09393H123.415Z" fill="#6420FF"/>
<path d="M125.953 9.06782L126.018 1.31227C126.018 0.551155 126.584 0 127.333 0C128.096 0 128.635 0.577401 128.635 1.33852L128.569 9.09407C128.569 9.85518 128.004 10.4063 127.241 10.4063C126.479 10.4063 125.939 9.82894 125.939 9.06782H125.953Z" fill="#6420FF"/>
<path d="M136.631 9.30378L137.499 1.77132C137.578 1.08894 138.196 0.511538 138.958 0.603397C139.721 0.695256 140.195 1.31203 140.116 2.07314L139.366 8.5689L142.469 8.92322C143.153 9.00196 143.587 9.55311 143.522 10.2355C143.443 10.9179 142.89 11.3378 142.206 11.2591L137.814 10.7604C137.052 10.6685 136.565 10.0518 136.644 9.29066L136.631 9.30378Z" fill="#6420FF"/>
<path d="M146.231 10.7738L147.414 4.3305L145.481 3.97619C144.811 3.84496 144.39 3.26756 144.508 2.58518C144.627 1.92904 145.231 1.52223 145.902 1.65346L152.359 2.83451C153.043 2.96574 153.45 3.54314 153.332 4.19928C153.2 4.86854 152.609 5.27534 151.938 5.14411L150.005 4.7898L148.821 11.2331C148.69 11.9811 148.032 12.4272 147.296 12.296C146.56 12.1648 146.112 11.5086 146.244 10.7606L146.231 10.7738Z" fill="#6420FF"/>
<path d="M163.403 10.8779C162.601 13.7255 159.839 15.1296 156.749 14.2635L154.645 13.673C153.908 13.4631 153.514 12.7807 153.724 12.0458L155.723 4.92014C155.934 4.18527 156.63 3.79159 157.354 4.00155L159.458 4.59207C162.587 5.4713 164.192 8.03023 163.403 10.8779V10.8779ZM157.972 6.63922L156.538 11.7571L157.38 11.9933C159.011 12.4526 160.391 11.7177 160.825 10.1561C161.259 8.59451 160.51 7.34785 158.813 6.87543L157.972 6.63922Z" fill="#6420FF"/>
<path d="M170.689 16.8227C170.426 16.4815 170.255 16.1009 170.189 15.6679C170.124 15.248 170.189 14.828 170.347 14.4212C170.518 14.0013 170.781 13.6601 171.136 13.4108C171.478 13.1614 171.873 13.0171 172.307 12.9646C172.74 12.9121 173.161 12.9646 173.582 13.1483C174.003 13.3189 174.345 13.5814 174.608 13.9226C174.871 14.2638 175.029 14.6443 175.094 15.0642C175.147 15.4842 175.094 15.9041 174.923 16.324C174.752 16.7308 174.489 17.072 174.148 17.3214C173.806 17.5838 173.411 17.7282 172.977 17.7675C172.543 17.8069 172.122 17.7413 171.715 17.5707C171.307 17.4001 170.965 17.1376 170.689 16.7964V16.8227Z" fill="#6420FF"/>
<path d="M186.627 26.2057C186.416 26.5731 185.969 26.6912 185.588 26.4682L180.657 23.6993C180.275 23.4762 180.131 22.9906 180.341 22.6101C180.472 22.387 180.67 22.2558 180.946 22.2033L185.154 21.324C186.692 20.996 187.455 20.576 187.889 19.7887C188.415 18.857 188.178 17.9121 187.324 17.4266C186.482 16.9542 185.535 17.2166 185.009 18.0565C184.917 18.1877 184.851 18.3189 184.799 18.3977C184.536 18.7651 184.115 18.8701 183.734 18.647C183.405 18.4633 183.247 18.0827 183.392 17.6628C183.431 17.4791 183.523 17.2691 183.694 17.046C184.628 15.6288 186.495 15.2482 188.1 16.1537C189.756 17.0854 190.309 18.9357 189.388 20.5498C188.757 21.6784 187.639 22.3214 185.575 22.7544L182.997 23.2925L186.337 25.169C186.719 25.3921 186.85 25.8251 186.64 26.2057H186.627Z" fill="#6420FF"/>
<path d="M206.21 29.5389L200.805 36.4152C200.516 36.7826 200.016 36.8482 199.661 36.5595C199.306 36.284 199.24 35.7853 199.529 35.4179L203.303 30.6018L199.174 32.0584C198.74 32.2028 198.477 32.1897 198.214 31.9797C197.951 31.7697 197.859 31.5073 197.912 31.0611L198.346 26.7175L194.559 31.5335C194.269 31.901 193.77 31.9666 193.415 31.6779C193.06 31.4023 192.994 30.9036 193.283 30.5362L198.675 23.6599C198.964 23.2924 199.45 23.2268 199.792 23.4893C200.069 23.6992 200.147 23.9617 200.082 24.5522L199.516 30.3L204.973 28.3841C205.526 28.1741 205.802 28.2003 206.078 28.4103C206.42 28.6859 206.473 29.1583 206.183 29.5389H206.21Z" fill="#6420FF"/>
<path d="M213.584 42.2167C211.572 44.3163 208.311 44.3688 206.168 42.3348C204.024 40.3008 203.919 37.0463 205.931 34.9467C207.943 32.8471 211.191 32.7814 213.334 34.8155C215.478 36.8495 215.583 40.1171 213.584 42.2167ZM207.154 36.0884C205.655 37.65 205.681 39.8415 207.193 41.2719C208.692 42.7022 210.902 42.6104 212.388 41.0619C213.847 39.5265 213.821 37.3219 212.322 35.9047C210.81 34.4743 208.627 34.553 207.154 36.1015V36.0884Z" fill="#6420FF"/>
<path d="M212.744 46.7307C212.771 46.5076 212.863 46.3108 213.007 46.1796C213.323 45.904 213.796 45.9696 214.046 46.2583C214.164 46.4026 214.23 46.5601 214.204 46.7701C214.072 47.6099 214.204 48.5548 214.848 49.3028C215.545 50.1033 216.413 50.2476 217.044 49.6965C217.544 49.2634 217.557 48.7647 217.215 47.5968L216.873 46.4158C216.387 44.7229 216.531 43.6075 217.439 42.8201C218.635 41.7834 220.384 42.059 221.581 43.4238C222.449 44.408 222.633 45.4578 222.528 46.3108C222.502 46.5732 222.383 46.757 222.252 46.8751C221.962 47.1244 221.476 47.0719 221.226 46.7832C221.121 46.652 221.068 46.4814 221.068 46.2714C221.121 45.589 220.976 44.9198 220.503 44.3686C219.898 43.6731 219.148 43.5288 218.583 44.0143C218.109 44.4211 218.096 44.841 218.425 46.009L218.78 47.2031C219.293 48.9747 219.161 50.0508 218.202 50.8906C216.873 52.0454 215.072 51.7305 213.796 50.2607C212.981 49.3159 212.56 47.938 212.771 46.7307H212.744Z" fill="#6420FF"/>
<path d="M221.592 51.4158C223.972 49.7098 227.168 50.2478 228.904 52.6624C229.811 53.9222 230.127 55.4707 229.772 56.8617C229.68 57.1504 229.574 57.321 229.403 57.4522C229.075 57.6884 228.614 57.6097 228.365 57.2816C228.22 57.0848 228.181 56.8486 228.246 56.573C228.536 55.4576 228.351 54.4471 227.694 53.5548C226.471 51.8619 224.288 51.547 222.552 52.7936C220.816 54.0403 220.435 56.2187 221.658 57.8984C222.302 58.7907 223.223 59.2763 224.354 59.355C224.63 59.3813 224.84 59.4862 224.998 59.6962C225.235 60.0243 225.169 60.4967 224.84 60.7329C224.683 60.851 224.485 60.8904 224.157 60.8904C222.75 60.8116 221.369 60.0243 220.448 58.7514C218.712 56.3499 219.186 53.148 221.566 51.4289L221.592 51.4158Z" fill="#6420FF"/>
<path d="M225.117 64.0388L232.692 59.6558C233.099 59.4196 233.573 59.5377 233.809 59.9445C234.046 60.3513 233.915 60.8237 233.507 61.0468L230.601 62.7265L233.139 67.0964L236.045 65.4167C236.452 65.1805 236.926 65.2986 237.163 65.7054C237.399 66.1122 237.268 66.5846 236.86 66.8208L229.286 71.2038C228.878 71.44 228.391 71.3088 228.168 70.9151C227.931 70.5214 228.063 70.0359 228.47 69.7997L231.889 67.8182L229.351 63.4483L225.932 65.4298C225.525 65.666 225.038 65.5348 224.815 65.1411C224.591 64.7474 224.709 64.2619 225.117 64.0257V64.0388Z" fill="#6420FF"/>
<path d="M234.19 81.7156C233.809 81.8862 233.336 81.7156 233.151 81.322C232.994 80.9939 233.073 80.6921 233.349 80.3902L234.374 79.2354L232.402 74.9312L230.863 74.9837C230.469 75.0099 230.18 74.8524 230.035 74.5244C229.851 74.1176 230.035 73.6583 230.416 73.4877C230.521 73.4352 230.679 73.3958 230.89 73.4089L240.239 73.1465C240.634 73.1465 240.91 73.2908 241.055 73.6058C241.212 73.9338 241.147 74.2488 240.884 74.5375L234.558 81.4138C234.427 81.5582 234.309 81.6631 234.19 81.7156V81.7156ZM233.888 74.8787L235.387 78.1462L238.898 74.59L233.888 74.8787V74.8787Z" fill="#6420FF"/>
<path d="M235.532 85.2719L243.015 82.5555L242.081 80.0097C241.936 79.616 242.107 79.2092 242.502 79.0648C242.896 78.9205 243.304 79.1173 243.449 79.511L245.868 86.138C246.013 86.5448 245.829 86.9516 245.434 87.0828C245.053 87.2272 244.645 87.0304 244.501 86.6236L243.567 84.0646L236.085 86.781C235.637 86.9385 235.19 86.7285 235.033 86.3086C234.875 85.8755 235.085 85.4294 235.532 85.2719V85.2719Z" fill="#6420FF"/>
<path d="M244.633 100.376C241.819 101.111 239.018 99.4441 238.255 96.5834C237.506 93.7226 239.123 90.9143 241.937 90.1663C244.751 89.4315 247.552 91.0849 248.302 93.9457C249.051 96.8064 247.421 99.641 244.62 100.376H244.633ZM242.384 91.7936C240.294 92.3447 239.163 94.2082 239.689 96.2291C240.215 98.2368 242.148 99.3129 244.225 98.7749C246.277 98.2368 247.421 96.3472 246.895 94.3394C246.369 92.3185 244.462 91.2555 242.398 91.7936H242.384Z" fill="#6420FF"/>
<path d="M244.237 103.5L249.511 102.686C249.984 102.608 250.378 102.909 250.444 103.356C250.523 103.828 250.221 104.209 249.76 104.274L244.382 105.114C242.765 105.363 241.91 106.479 242.146 108.014C242.383 109.536 243.54 110.324 245.158 110.074L250.536 109.235C251.01 109.156 251.404 109.445 251.47 109.904C251.536 110.35 251.246 110.757 250.786 110.822L245.513 111.636C242.975 112.03 241.068 110.665 240.687 108.224C240.305 105.744 241.713 103.88 244.237 103.487V103.5Z" fill="#6420FF"/>
<path d="M243.502 120.216C243.673 120.059 243.857 119.967 244.067 119.967C244.488 119.967 244.803 120.295 244.817 120.702C244.817 120.885 244.764 121.056 244.619 121.187C243.975 121.751 243.475 122.552 243.502 123.536C243.528 124.599 244.106 125.255 244.935 125.242C245.592 125.229 245.921 124.862 246.408 123.733L246.907 122.618C247.618 121.003 248.446 120.242 249.643 120.216C251.234 120.177 252.404 121.515 252.444 123.313C252.483 124.625 251.944 125.544 251.313 126.134C251.115 126.318 250.918 126.384 250.734 126.397C250.353 126.397 250.011 126.043 249.998 125.662C249.998 125.491 250.063 125.321 250.195 125.163C250.668 124.665 250.997 124.074 250.984 123.339C250.958 122.421 250.484 121.83 249.735 121.843C249.117 121.856 248.827 122.171 248.341 123.274L247.841 124.415C247.105 126.108 246.303 126.856 245.027 126.882C243.278 126.922 242.081 125.531 242.042 123.589C242.016 122.342 242.581 121.017 243.502 120.229V120.216Z" fill="#6420FF"/>
<path d="M242.726 132.161L250.682 132.633L250.84 129.93C250.866 129.497 251.195 129.208 251.603 129.221C252.01 129.247 252.313 129.589 252.286 130.008L251.866 137.042C251.839 137.462 251.497 137.764 251.09 137.738C250.682 137.712 250.393 137.383 250.419 136.95L250.577 134.234L242.621 133.762C242.148 133.735 241.819 133.368 241.845 132.909C241.872 132.449 242.24 132.121 242.713 132.148L242.726 132.161Z" fill="#6420FF"/>
<path d="M240.951 147.121C240.543 147.068 240.28 146.688 240.333 146.281C240.372 146.005 240.543 145.782 240.846 145.638L244.83 143.565L245.119 141.544L241.924 141.071C241.451 141.006 241.161 140.612 241.227 140.153C241.293 139.693 241.687 139.405 242.161 139.47L250.656 140.704C251.129 140.769 251.418 141.163 251.353 141.635L250.945 144.431C250.656 146.452 249.222 147.633 247.408 147.357C246.145 147.173 245.238 146.36 244.909 145.205L241.582 146.95C241.345 147.081 241.135 147.134 240.938 147.108L240.951 147.121ZM246.553 141.74L246.264 143.735C246.106 144.837 246.632 145.585 247.631 145.73C248.631 145.874 249.38 145.297 249.538 144.208L249.827 142.213L246.553 141.74V141.74Z" fill="#6420FF"/>
<path d="M240.622 149.731L248.893 151.674C249.327 151.779 249.577 152.172 249.472 152.605L248.288 157.618C248.196 158.038 247.802 158.274 247.407 158.183C247.013 158.091 246.776 157.71 246.881 157.29L247.867 153.091L245.356 152.5L244.646 155.532C244.553 155.925 244.185 156.162 243.804 156.07C243.423 155.978 243.186 155.61 243.291 155.217L244.001 152.185L240.898 151.464L239.859 155.847C239.767 156.267 239.386 156.503 238.991 156.411C238.597 156.319 238.347 155.939 238.452 155.519L239.675 150.322C239.78 149.889 240.175 149.64 240.608 149.745L240.622 149.731Z" fill="#6420FF"/>
<path d="M238.319 158.891L246.42 161.502C246.841 161.634 247.051 162.054 246.92 162.473L245.328 167.381C245.197 167.788 244.789 167.998 244.408 167.867C244.013 167.736 243.829 167.342 243.961 166.935L245.289 162.828L242.843 162.04L241.883 165.006C241.752 165.4 241.37 165.597 241.002 165.465C240.621 165.347 240.423 164.967 240.555 164.573L241.515 161.607L238.477 160.636L237.097 164.927C236.965 165.334 236.584 165.544 236.189 165.413C235.795 165.282 235.597 164.888 235.716 164.481L237.36 159.403C237.491 158.983 237.912 158.773 238.333 158.904L238.319 158.891Z" fill="#6420FF"/>
<path d="M234.243 170.006L241.594 173.077L242.646 170.57C242.804 170.177 243.212 170.006 243.593 170.164C243.974 170.321 244.145 170.741 243.974 171.135L241.252 177.644C241.095 178.037 240.674 178.208 240.292 178.05C239.911 177.893 239.753 177.473 239.924 177.079L240.976 174.56L233.625 171.489C233.191 171.305 232.994 170.846 233.178 170.426C233.349 170.006 233.809 169.822 234.243 169.993V170.006Z" fill="#6420FF"/>
<path d="M229.456 173.904C229.811 174.075 230.574 174.77 231.981 175.439C232.533 175.702 232.731 176.2 232.494 176.699C232.257 177.211 231.771 177.355 231.218 177.08C230.627 176.804 229.246 175.807 228.72 175.269C228.352 174.888 228.299 174.626 228.457 174.285C228.654 173.891 229.062 173.72 229.456 173.904V173.904Z" fill="#6420FF"/>
<path d="M223.197 190.78C222.828 190.557 222.723 190.071 222.947 189.704C223.144 189.389 223.433 189.297 223.828 189.35L225.366 189.56L227.852 185.531L226.958 184.284C226.721 183.969 226.681 183.654 226.879 183.339C227.115 182.959 227.589 182.854 227.957 183.077C228.062 183.142 228.181 183.247 228.286 183.418L233.704 191.016C233.94 191.331 233.953 191.646 233.769 191.948C233.572 192.263 233.283 192.381 232.888 192.315L223.644 190.898C223.447 190.872 223.289 190.832 223.197 190.767V190.78ZM228.72 186.738L226.826 189.796L231.744 190.727L228.707 186.738H228.72Z" fill="#6420FF"/>
<path d="M225.775 194.741C228.155 196.473 228.602 199.675 226.827 202.077C225.946 203.271 224.565 204.071 223.263 204.15C222.895 204.203 222.632 204.15 222.435 204.019C222.132 203.796 222.04 203.323 222.29 202.982C222.448 202.772 222.632 202.68 223.013 202.641C224.197 202.51 224.999 202.077 225.643 201.198C226.892 199.505 226.524 197.366 224.788 196.106C223.013 194.807 220.843 195.122 219.555 196.867C218.818 197.877 218.582 199.085 218.95 200.135L219.883 200.817L221.304 198.888C221.58 198.52 222.027 198.442 222.356 198.678C222.671 198.914 222.737 199.373 222.461 199.741L220.58 202.3C220.304 202.68 219.805 202.759 219.423 202.47L218.24 201.604C217.937 201.381 217.727 201.132 217.608 200.791C217.082 199.255 217.411 197.353 218.45 195.935C220.212 193.534 223.408 192.996 225.788 194.728L225.775 194.741Z" fill="#6420FF"/>
<path d="M214.387 202.234L220.962 207.995C221.317 208.31 221.357 208.783 221.041 209.137C220.725 209.491 220.239 209.518 219.884 209.203L213.309 203.442C212.954 203.127 212.914 202.654 213.217 202.287C213.532 201.933 214.019 201.906 214.374 202.221L214.387 202.234Z" fill="#6420FF"/>
<path d="M207.063 216.067C205.024 213.994 205.09 210.726 207.194 208.666C209.311 206.592 212.559 206.605 214.598 208.679C216.636 210.752 216.583 214.007 214.466 216.067C212.349 218.14 209.075 218.127 207.05 216.067H207.063ZM213.427 209.86C211.915 208.311 209.719 208.259 208.233 209.729C206.747 211.172 206.76 213.39 208.273 214.912C209.758 216.421 211.968 216.474 213.454 215.03C214.94 213.574 214.94 211.382 213.44 209.86H213.427Z" fill="#6420FF"/>
<path d="M202.565 215.042C202.789 215.082 202.986 215.174 203.105 215.331C203.368 215.659 203.289 216.118 202.986 216.368C202.842 216.486 202.671 216.538 202.473 216.512C201.632 216.355 200.698 216.446 199.922 217.063C199.094 217.732 198.923 218.599 199.449 219.242C199.857 219.753 200.356 219.78 201.553 219.478L202.75 219.176C204.459 218.743 205.577 218.927 206.326 219.872C207.326 221.105 206.984 222.837 205.577 223.979C204.564 224.819 203.499 224.95 202.644 224.819C202.381 224.779 202.21 224.661 202.092 224.517C201.855 224.228 201.921 223.73 202.224 223.493C202.355 223.388 202.526 223.336 202.736 223.349C203.42 223.415 204.091 223.31 204.669 222.85C205.38 222.273 205.564 221.525 205.09 220.948C204.696 220.462 204.275 220.423 203.091 220.711L201.882 221.013C200.093 221.459 199.015 221.289 198.2 220.305C197.095 218.94 197.463 217.155 198.989 215.935C199.962 215.147 201.356 214.793 202.552 215.029L202.565 215.042Z" fill="#6420FF"/>
<path d="M193.19 226.761C194.715 229.281 193.9 232.404 191.336 233.939C190.073 234.7 188.482 234.91 187.246 234.477C186.878 234.372 186.654 234.241 186.536 234.031C186.339 233.703 186.431 233.244 186.799 233.021C187.023 232.889 187.22 232.876 187.601 232.981C188.745 233.309 189.653 233.218 190.586 232.653C192.388 231.564 192.874 229.464 191.77 227.627C190.639 225.751 188.509 225.2 186.654 226.315C185.589 226.958 184.905 227.995 184.827 229.097L185.418 230.081L187.47 228.848C187.864 228.611 188.311 228.716 188.522 229.045C188.732 229.386 188.601 229.832 188.219 230.068L185.497 231.708C185.09 231.958 184.616 231.827 184.353 231.42L183.604 230.173C183.406 229.845 183.314 229.543 183.327 229.189C183.433 227.562 184.458 225.948 185.984 225.029C188.535 223.494 191.691 224.215 193.216 226.735L193.19 226.761Z" fill="#6420FF"/>
<path d="M179.934 229.543L183.642 237.181C183.839 237.574 183.681 238.02 183.274 238.217L178.619 240.461C178.237 240.645 177.803 240.501 177.632 240.133C177.461 239.766 177.606 239.346 177.987 239.162L181.88 237.286L180.762 234.976L177.948 236.341C177.58 236.524 177.172 236.38 177.001 236.026C176.83 235.671 176.975 235.265 177.343 235.081L180.157 233.716L178.763 230.855L174.7 232.824C174.318 233.008 173.898 232.876 173.714 232.509C173.529 232.141 173.687 231.708 174.069 231.525L178.882 229.202C179.276 229.005 179.723 229.163 179.92 229.556L179.934 229.543Z" fill="#6420FF"/>
<path d="M163.759 240.947C162.733 238.23 164.127 235.277 166.888 234.241C169.663 233.204 172.635 234.529 173.648 237.259C174.673 239.975 173.306 242.928 170.531 243.965C167.756 245.001 164.771 243.663 163.759 240.96V240.947ZM172.083 237.85C171.32 235.829 169.348 234.897 167.388 235.619C165.442 236.34 164.561 238.361 165.31 240.369C166.047 242.351 168.046 243.295 169.992 242.561C171.951 241.826 172.819 239.831 172.083 237.836V237.85Z" fill="#6420FF"/>
<path d="M152.068 239.49C151.963 239.096 152.199 238.702 152.607 238.597C152.87 238.532 153.146 238.597 153.409 238.807L156.894 241.655L158.866 241.13L158.038 238.007C157.92 237.548 158.17 237.128 158.617 237.01C159.064 236.892 159.485 237.141 159.603 237.6L161.799 245.881C161.917 246.34 161.667 246.76 161.207 246.878L158.459 247.6C156.486 248.125 154.843 247.285 154.369 245.5C154.04 244.267 154.435 243.125 155.369 242.377L152.449 240.015C152.226 239.857 152.107 239.674 152.055 239.49H152.068ZM159.222 242.508L157.275 243.02C156.197 243.309 155.71 244.096 155.973 245.067C156.236 246.038 157.065 246.497 158.13 246.222L160.076 245.71L159.235 242.521L159.222 242.508Z" fill="#6420FF"/>
<path d="M151.082 244.307C151.569 247.207 149.649 249.805 146.703 250.29C145.244 250.527 143.692 250.146 142.706 249.293C142.403 249.07 142.245 248.86 142.206 248.624C142.14 248.243 142.403 247.85 142.824 247.784C143.074 247.745 143.271 247.797 143.574 248.046C144.507 248.768 145.388 249.031 146.48 248.847C148.558 248.506 149.794 246.721 149.439 244.608C149.084 242.443 147.308 241.157 145.165 241.511C143.929 241.721 142.916 242.417 142.443 243.427L142.627 244.569L144.981 244.175C145.428 244.097 145.809 244.359 145.875 244.753C145.941 245.146 145.664 245.514 145.204 245.593L142.061 246.117C141.601 246.196 141.193 245.907 141.115 245.422L140.878 243.978C140.812 243.598 140.838 243.296 140.983 242.955C141.68 241.485 143.245 240.357 144.981 240.068C147.926 239.582 150.583 241.419 151.069 244.32L151.082 244.307Z" fill="#6420FF"/>
<path d="M137.709 241.839L138.511 250.54C138.55 251.012 138.248 251.393 137.775 251.432C137.301 251.471 136.933 251.156 136.893 250.684L136.091 241.984C136.052 241.511 136.354 241.131 136.815 241.091C137.288 241.052 137.656 241.367 137.696 241.839H137.709Z" fill="#6420FF"/>
<path d="M122.876 246.852C122.823 243.952 125.125 241.63 128.083 241.577C131.042 241.525 133.396 243.769 133.449 246.682C133.501 249.582 131.213 251.905 128.254 251.957C125.295 252.01 122.928 249.753 122.876 246.852V246.852ZM131.765 246.721C131.726 244.556 130.174 243.021 128.096 243.047C126.019 243.086 124.506 244.687 124.546 246.839C124.585 248.952 126.15 250.514 128.215 250.474C130.306 250.435 131.805 248.847 131.765 246.721V246.721Z" fill="#6420FF"/>
<path d="M120.311 243.034C120.456 243.204 120.522 243.414 120.509 243.611C120.469 244.031 120.101 244.307 119.707 244.28C119.522 244.28 119.365 244.189 119.233 244.031C118.733 243.336 117.984 242.758 116.998 242.679C115.932 242.601 115.222 243.113 115.157 243.939C115.104 244.595 115.446 244.95 116.511 245.553L117.576 246.157C119.115 247.023 119.799 247.915 119.707 249.11C119.588 250.684 118.142 251.721 116.34 251.577C115.038 251.498 114.17 250.855 113.631 250.173C113.46 249.963 113.421 249.766 113.434 249.582C113.46 249.202 113.855 248.9 114.236 248.926C114.407 248.926 114.565 249.031 114.71 249.175C115.157 249.7 115.722 250.081 116.458 250.133C117.366 250.199 118.01 249.779 118.076 249.044C118.129 248.427 117.839 248.112 116.787 247.509L115.696 246.905C114.078 246 113.421 245.147 113.513 243.874C113.644 242.128 115.157 241.092 117.103 241.236C118.352 241.328 119.615 242.023 120.311 243.021V243.034Z" fill="#6420FF"/>
<path d="M105.742 240.698L103.914 249.227C103.809 249.687 103.415 249.962 102.954 249.857C102.494 249.766 102.244 249.346 102.336 248.886L103.033 245.619L98.0888 244.556L97.3918 247.823C97.2866 248.283 96.8922 248.558 96.4319 248.453C95.9716 248.361 95.7218 247.941 95.8138 247.482L97.6417 238.939C97.7469 238.48 98.1546 238.204 98.6017 238.309C99.0488 238.401 99.3118 238.821 99.2197 239.28L98.3913 243.139L103.336 244.201L104.164 240.343C104.269 239.884 104.677 239.609 105.124 239.714C105.571 239.805 105.834 240.225 105.742 240.685V240.698Z" fill="#6420FF"/>
<path d="M86.5146 235.54C86.6461 235.133 87.0801 234.91 87.5009 235.042C87.8559 235.147 88.0269 235.409 88.0532 235.803L88.2241 237.338L92.7478 238.768L93.7472 237.6C93.9839 237.299 94.2995 237.181 94.6414 237.299C95.0622 237.43 95.2857 237.876 95.1674 238.283C95.1279 238.401 95.049 238.532 94.9175 238.677L88.8291 245.763C88.5792 246.065 88.2768 246.156 87.9348 246.052C87.5798 245.947 87.3957 245.684 87.3562 245.29L86.4883 235.999C86.4752 235.803 86.4752 235.645 86.5146 235.527V235.54ZM91.7878 239.91L88.3557 238.821L88.6318 243.808L91.7747 239.91H91.7878Z" fill="#6420FF"/>
<path d="M74.1813 240.016C74.2339 239.885 74.3391 239.767 74.4706 239.635L81.1246 233.074C81.4007 232.798 81.7163 232.72 82.0582 232.864C82.387 232.995 82.5448 233.258 82.5579 233.664L82.6368 242.995C82.6631 243.178 82.6368 243.336 82.5711 243.467C82.4133 243.861 81.953 244.058 81.5454 243.887C81.2035 243.743 81.0457 243.467 81.0588 243.073L81.0851 235.2L75.5489 240.803C75.2728 241.079 74.9703 241.171 74.6284 241.026C74.2208 240.856 74.0235 240.396 74.1945 240.003L74.1813 240.016Z" fill="#6420FF"/>
<path d="M64.6456 230.107C66.0132 227.549 69.1561 226.63 71.7598 228.021C74.3635 229.412 75.3366 232.509 73.9559 235.081C72.5883 237.64 69.4586 238.559 66.8548 237.168C64.2511 235.777 63.278 232.653 64.6456 230.107ZM72.4699 234.307C73.4956 232.404 72.8907 230.304 71.0497 229.32C69.2219 228.349 67.1178 229.018 66.1053 230.908C65.1059 232.771 65.7108 234.897 67.5386 235.868C69.3797 236.853 71.4574 236.183 72.4699 234.307V234.307Z" fill="#6420FF"/>
<path d="M62.6084 227.705L59.6234 232.127C59.3604 232.521 58.8738 232.613 58.4925 232.351C58.0979 232.088 58.019 231.616 58.282 231.222L61.3329 226.721C62.2402 225.369 62.0035 223.978 60.7148 223.112C59.4393 222.246 58.0716 222.561 57.1511 223.913L54.1003 228.414C53.8373 228.807 53.3639 228.912 52.9694 228.65C52.5881 228.387 52.496 227.902 52.759 227.521L55.7441 223.099C57.1774 220.973 59.4787 220.514 61.5301 221.892C63.621 223.296 64.0286 225.592 62.5953 227.718L62.6084 227.705Z" fill="#6420FF"/>
<path d="M49.4065 213.81C49.6695 213.495 50.1166 213.442 50.4453 213.718L55.6265 217.917C55.9552 218.193 56.021 218.639 55.758 218.967C55.6659 219.085 55.5081 219.151 55.232 219.229L46.2373 221.382L49.7615 224.242C50.0903 224.518 50.1429 224.951 49.893 225.266C49.63 225.581 49.1829 225.633 48.8542 225.358L44.1859 221.578C43.8703 221.316 43.8045 220.857 44.0676 220.542C44.1596 220.424 44.3306 220.345 44.5673 220.279L53.5751 218.114L49.538 214.846C49.2092 214.584 49.1566 214.138 49.4065 213.823V213.81Z" fill="#6420FF"/>
<path d="M41.6723 206.29C41.9747 205.988 42.4613 205.975 42.7769 206.29C43.0399 206.539 43.0793 206.854 42.9347 207.222L42.3955 208.665L45.8014 211.959L47.2216 211.355C47.5767 211.185 47.9054 211.224 48.1684 211.487C48.484 211.788 48.4972 212.287 48.1947 212.589C48.1158 212.681 47.9843 212.759 47.7871 212.838L39.1738 216.473C38.8056 216.631 38.49 216.578 38.2401 216.342C37.9771 216.093 37.9245 215.778 38.0692 215.41L41.4487 206.71C41.5276 206.526 41.5934 206.382 41.6854 206.303L41.6723 206.29ZM44.4469 212.549L41.8695 210.056L39.897 214.649L44.4601 212.563L44.4469 212.549Z" fill="#6420FF"/>
<path d="M39.6086 205.134C39.5823 205.357 39.4903 205.554 39.3456 205.685C39.0169 205.96 38.5566 205.895 38.3068 205.606C38.1884 205.462 38.1227 205.304 38.149 205.094C38.2805 204.254 38.149 203.31 37.5046 202.562C36.8077 201.761 35.9398 201.617 35.3086 202.168C34.8088 202.601 34.7957 203.1 35.1376 204.268L35.4795 205.449C35.9661 207.142 35.8214 208.257 34.914 209.044C33.7174 210.081 31.9684 209.805 30.7718 208.441C29.9039 207.456 29.7329 206.407 29.825 205.541C29.8513 205.278 29.9696 205.094 30.1011 204.976C30.3904 204.727 30.877 204.779 31.1268 205.068C31.232 205.199 31.2846 205.37 31.2846 205.58C31.232 206.262 31.3767 206.932 31.8501 207.483C32.455 208.165 33.2045 208.323 33.77 207.837C34.2434 207.43 34.2565 207.01 33.9278 205.842L33.5859 204.648C33.073 202.877 33.2045 201.787 34.1645 200.961C35.4927 199.806 37.2942 200.121 38.5698 201.591C39.3851 202.535 39.8059 203.913 39.5955 205.121L39.6086 205.134Z" fill="#6420FF"/>
<path d="M36.4256 195.844C36.11 196.08 35.1369 196.447 33.9008 197.379C33.4142 197.747 32.8751 197.694 32.5463 197.261C32.2044 196.815 32.2965 196.329 32.783 195.949C33.309 195.555 34.8213 194.781 35.5314 194.558C36.0311 194.413 36.2941 194.479 36.5176 194.781C36.7938 195.135 36.7412 195.581 36.4124 195.844H36.4256Z" fill="#6420FF"/>
<path d="M27.9583 189.191L20.6469 193.653C20.2524 193.889 19.7658 193.797 19.516 193.39C19.2661 192.984 19.3976 192.524 19.7921 192.275L26.5907 188.128L24.5261 184.769C24.3026 184.401 24.4078 183.981 24.7497 183.771C25.1047 183.561 25.5387 183.653 25.7622 184.008L28.2345 188.036C28.4843 188.456 28.3791 188.929 27.9583 189.191V189.191Z" fill="#6420FF"/>
<path d="M23.6971 181.606L15.978 185.714C15.5572 185.937 15.0969 185.806 14.8734 185.386C14.6498 184.966 14.8076 184.506 15.2153 184.283L22.9344 180.176C23.3552 179.953 23.8154 180.084 24.039 180.504C24.2625 180.924 24.1179 181.383 23.6971 181.606V181.606Z" fill="#6420FF"/>
<path d="M9.48155 172.039L17.5031 168.523C17.9371 168.339 18.3973 168.523 18.5814 168.929C18.7655 169.349 18.5814 169.809 18.1475 169.992L12.5324 172.446L16.8587 173.115C17.3058 173.181 17.5425 173.339 17.6741 173.64C17.8056 173.942 17.7661 174.231 17.5162 174.598L15.0835 178.22L20.6986 175.766C21.1325 175.583 21.5928 175.766 21.7769 176.173C21.961 176.593 21.7769 177.052 21.3429 177.236L13.3214 180.753C12.8874 180.937 12.4272 180.779 12.2562 180.372C12.1116 180.057 12.1642 179.782 12.5061 179.296L15.7278 174.493L10.0076 173.614C9.42895 173.535 9.19225 173.391 9.04759 173.063C8.87664 172.656 9.04759 172.21 9.4947 172.026L9.48155 172.039Z" fill="#6420FF"/>
<path d="M13.8629 157.514C14.2705 157.383 14.7176 157.606 14.8491 158.026C14.9675 158.38 14.8491 158.669 14.5467 158.918L13.3895 159.942L14.8491 164.443L16.3746 164.574C16.7691 164.587 17.0321 164.784 17.1504 165.125C17.2819 165.545 17.0584 165.978 16.6507 166.109C16.5324 166.149 16.3746 166.162 16.1773 166.136L6.86704 165.322C6.47254 165.283 6.22268 165.099 6.10433 164.771C5.99913 164.43 6.09118 164.115 6.39364 163.865L13.4684 157.763C13.613 157.632 13.7445 157.54 13.8629 157.501V157.514ZM13.3632 164.338L12.2586 160.926L8.353 164.049L13.3632 164.338Z" fill="#6420FF"/>
<path d="M12.5857 155.518C12.4542 155.701 12.2833 155.833 12.086 155.885C11.6652 155.977 11.297 155.701 11.205 155.321C11.1655 155.137 11.1787 154.966 11.3102 154.796C11.823 154.114 12.1518 153.234 11.9282 152.263C11.6915 151.227 10.9946 150.702 10.1661 150.885C9.52177 151.03 9.28507 151.463 9.02206 152.657L8.77221 153.851C8.40401 155.57 7.74651 156.489 6.57615 156.751C5.03759 157.105 3.61738 156.043 3.20973 154.284C2.90727 153.011 3.24918 152.001 3.73573 151.292C3.88038 151.069 4.06448 150.964 4.24858 150.925C4.61678 150.833 5.02444 151.122 5.11649 151.489C5.15594 151.646 5.11649 151.83 5.02444 152.014C4.65623 152.591 4.45898 153.247 4.62993 153.956C4.84034 154.848 5.43209 155.334 6.15534 155.163C6.76025 155.019 6.9838 154.665 7.23365 153.484L7.4835 152.276C7.86486 150.465 8.48291 149.586 9.73217 149.297C11.4417 148.904 12.8882 150.019 13.3221 151.922C13.5983 153.142 13.3221 154.547 12.5726 155.518H12.5857Z" fill="#6420FF"/>
<path d="M10.5999 146.423C10.4553 146.594 10.2712 146.712 10.0739 146.751C9.65314 146.817 9.29809 146.515 9.24549 146.122C9.21919 145.938 9.24549 145.767 9.39014 145.61C9.95559 144.967 10.3501 144.114 10.2054 143.143C10.0476 142.093 9.39014 141.515 8.56169 141.634C7.91733 141.725 7.64118 142.145 7.28613 143.313L6.93107 144.481C6.43137 146.174 5.70812 147.027 4.51146 147.211C2.9466 147.447 1.61844 146.279 1.34229 144.481C1.13189 143.195 1.55269 142.198 2.10499 141.542C2.27594 141.332 2.46005 141.24 2.64415 141.214C3.0255 141.161 3.40685 141.463 3.45945 141.844C3.48575 142.014 3.43315 142.185 3.3148 142.355C2.90715 142.906 2.6573 143.549 2.7625 144.271C2.894 145.177 3.45945 145.702 4.19586 145.597C4.81391 145.505 5.05061 145.164 5.40566 144.009L5.74757 142.815C6.27357 141.043 6.95738 140.203 8.21978 140.019C9.95559 139.757 11.3101 140.991 11.5994 142.92C11.7835 144.153 11.389 145.531 10.5736 146.436L10.5999 146.423Z" fill="#6420FF"/>
<path d="M5.07713 127.186C7.9833 127.028 10.3898 129.233 10.5476 132.172C10.7054 135.125 8.54875 137.553 5.64258 137.71C2.73642 137.868 0.329951 135.676 0.17215 132.737C0.0143489 129.784 2.18411 127.343 5.07713 127.186V127.186ZM5.53738 136.044C7.694 135.925 9.17996 134.324 9.07476 132.238C8.95641 130.165 7.2995 128.721 5.15603 128.839C3.03887 128.957 1.53976 130.571 1.64496 132.645C1.76331 134.731 3.40707 136.162 5.53738 136.044V136.044Z" fill="#6420FF"/>
<path d="M9.35108 124.234L0.790377 123.919C0.330124 123.906 -0.0249283 123.552 0.00137189 123.079C0.014522 122.607 0.382724 122.292 0.856127 122.305L8.81193 122.607L8.95658 118.67C8.96973 118.237 9.28533 117.948 9.69299 117.961C10.1006 117.974 10.4162 118.289 10.4031 118.722L10.2321 123.434C10.219 123.919 9.85079 124.26 9.36423 124.234H9.35108Z" fill="#6420FF"/>
<path d="M12.8231 115.913C12.4286 115.874 11.4686 115.48 9.93007 115.323C9.32516 115.27 8.97011 114.864 9.02271 114.312C9.07531 113.748 9.46981 113.459 10.101 113.512C10.7585 113.578 12.3891 114.037 13.0598 114.365C13.52 114.588 13.6778 114.824 13.6384 115.205C13.5989 115.638 13.257 115.953 12.8362 115.9L12.8231 115.913Z" fill="#6420FF"/>
<path d="M6.90395 104.969C4.05038 104.352 2.31457 101.609 2.94578 98.7092C3.27453 97.187 4.22133 95.9272 5.49689 95.2579C5.77304 95.1267 5.9703 95.1005 6.1807 95.1398C6.56205 95.2186 6.82505 95.6254 6.733 96.019C6.6804 96.2553 6.53575 96.439 6.2859 96.5702C5.27334 97.0951 4.64214 97.9087 4.40544 98.9979C3.95833 101.032 5.18129 102.869 7.27216 103.328C9.36302 103.775 11.2303 102.62 11.6774 100.573C11.9141 99.4966 11.6643 98.4992 10.9673 97.6069C10.7964 97.3838 10.7438 97.1476 10.7964 96.8983C10.8884 96.4915 11.2829 96.2421 11.6643 96.3209C11.8615 96.3602 12.0193 96.4783 12.2297 96.7277C13.1108 97.8169 13.4527 99.3785 13.1108 100.901C12.4796 103.801 9.77067 105.572 6.90395 104.956V104.969Z" fill="#6420FF"/>
<path d="M8.27329 84.7327L12.1394 89.1944L15.1902 90.1655C15.6373 90.3098 15.874 90.7429 15.7294 91.1891C15.5847 91.6221 15.1508 91.8583 14.7037 91.714L11.6266 90.7429L5.93257 92.1733C5.66957 92.2389 5.48547 92.2258 5.32767 92.1733C4.90687 92.042 4.70962 91.609 4.84112 91.1891C4.94632 90.8348 5.14357 90.6773 5.52492 90.5854L10.3247 89.4831L7.03718 85.8087C6.78733 85.52 6.72158 85.2576 6.82678 84.9295C6.97143 84.4965 7.39223 84.2734 7.81304 84.4046C7.98399 84.4571 8.12864 84.549 8.29959 84.7458L8.27329 84.7327Z" fill="#6420FF"/>
<path d="M17.1347 84.4971L9.21834 81.2296C8.77124 81.0458 8.57398 80.5865 8.75809 80.1404L9.83639 77.5421C10.6122 75.6524 12.2823 74.865 13.9918 75.5736C15.6882 76.2692 16.3194 78.0276 15.5435 79.9042L14.7677 81.7938L17.7527 83.0274C18.1867 83.2111 18.3839 83.6704 18.1998 84.0903C18.0289 84.5102 17.5686 84.7071 17.1347 84.5234V84.4971ZM14.2154 79.353C14.6362 78.3425 14.3074 77.4896 13.3738 77.0959C12.427 76.7022 11.5854 77.0828 11.1646 78.0932L10.3887 79.9566L13.4527 81.2164L14.2285 79.3399L14.2154 79.353Z" fill="#6420FF"/>
<path d="M24.606 68.7899C24.9742 68.9737 25.1057 69.4198 24.9085 69.7873C24.777 70.0366 24.5534 70.181 24.2115 70.2334L19.7668 70.9027L18.82 72.7136L21.6867 74.1965C22.1075 74.4196 22.2522 74.892 22.0418 75.2857C21.8314 75.6925 21.358 75.8369 20.9371 75.6269L13.3101 71.6901C12.8893 71.467 12.7446 70.9946 12.955 70.5878L14.2569 68.0682C15.1906 66.2573 16.9264 65.6142 18.557 66.4541C19.701 67.0446 20.2796 68.0944 20.2139 69.3017L23.9222 68.7375C24.1852 68.685 24.3956 68.7112 24.5797 68.8031L24.606 68.7899ZM17.5576 72.0444L18.4781 70.2597C18.9909 69.2755 18.7279 68.3831 17.8337 67.9238C16.9395 67.4645 16.0453 67.7664 15.5325 68.7375L14.612 70.5221L17.5444 72.0444H17.5576Z" fill="#6420FF"/>
<path d="M22.7781 64.9843L18.2808 62.1104C17.8863 61.861 17.7811 61.3755 18.0178 60.9818C18.2676 60.5881 18.7542 60.4963 19.1487 60.7456L23.7249 63.672C25.0925 64.5512 26.4864 64.2756 27.328 62.9765C28.1565 61.6773 27.8146 60.3257 26.447 59.4465L21.8707 56.5201C21.4762 56.2708 21.3579 55.7983 21.6077 55.4047C21.8576 55.0241 22.3441 54.9191 22.7386 55.1684L27.236 58.0423C29.3926 59.4202 29.9186 61.7036 28.5773 63.777C27.2228 65.8897 24.9347 66.3621 22.7781 64.9843Z" fill="#6420FF"/>
<path d="M31.2074 57.0835C30.9839 57.0966 30.7735 57.0441 30.6156 56.926C30.2737 56.6636 30.2606 56.2043 30.4973 55.8893C30.6156 55.745 30.7603 55.6531 30.9707 55.64C31.8255 55.6138 32.7197 55.3119 33.3377 54.5246C33.9952 53.6847 33.9689 52.8055 33.3114 52.2937C32.7986 51.8869 32.2989 51.9656 31.2074 52.5299L30.1159 53.0811C28.5379 53.8816 27.4202 53.9472 26.4734 53.2123C25.2241 52.2412 25.1584 50.4696 26.2761 49.0393C27.0783 48.0026 28.0777 47.622 28.9456 47.5695C29.2217 47.5433 29.4058 47.622 29.5505 47.7401C29.8529 47.9763 29.8924 48.4619 29.6557 48.7637C29.5505 48.8949 29.3927 48.9736 29.1823 49.013C28.4985 49.0917 27.8673 49.3542 27.4202 49.9316C26.8547 50.6534 26.8547 51.4145 27.4333 51.8869C27.933 52.2675 28.3407 52.215 29.4321 51.6638L30.5367 51.0995C32.1805 50.2597 33.272 50.1809 34.2845 50.9683C35.6653 52.0444 35.7047 53.8684 34.4949 55.4038C33.7191 56.388 32.4435 57.0441 31.2206 57.0835H31.2074Z" fill="#6420FF"/>
<path d="M39.7016 52.163C39.3991 51.9006 38.86 51.0214 37.6765 50.0109C37.2162 49.6172 37.1505 49.0792 37.5187 48.6593C37.8869 48.2393 38.3866 48.2262 38.86 48.633C39.3597 49.0661 40.4248 50.3915 40.7799 51.0476C41.0297 51.5069 41.0166 51.7693 40.7667 52.058C40.4774 52.3861 40.0303 52.4386 39.7016 52.163Z" fill="#6420FF"/>
<path d="M47.5131 36.5087C48.8412 37.9391 48.6834 40.065 47.1449 41.4954C46.1981 42.3746 44.9488 42.742 43.6601 42.4927C43.4892 42.4664 43.3577 42.3615 43.2525 42.2565C42.9763 41.9546 43.0026 41.4954 43.2919 41.2198C43.4629 41.0623 43.6601 41.0098 43.8837 41.0229C44.8042 41.1673 45.5143 40.9836 46.106 40.4324C47.0002 39.6057 47.0791 38.464 46.3164 37.6373C45.5537 36.8105 44.5017 36.9024 43.4103 37.926L43.1604 38.1491C42.8317 38.4509 42.3582 38.4378 42.0558 38.1097C41.898 37.9391 41.8322 37.7291 41.8585 37.4142L42.0163 34.291L39.5178 36.6137C39.2022 36.9024 38.7551 36.8893 38.4658 36.5743C38.1897 36.2725 38.2028 35.8263 38.5184 35.5376L42.0952 32.2044C42.424 31.9026 42.9369 31.9289 43.2393 32.2438C43.3971 32.4144 43.4629 32.6244 43.4497 32.8868L43.3051 36.1675C44.6464 35.1702 46.3953 35.2883 47.5262 36.4825L47.5131 36.5087Z" fill="#6420FF"/>
<path d="M54.4033 28.5299C56.4416 31.1151 56.5205 33.5821 54.6663 35.0388C52.799 36.5085 50.4188 35.8392 48.3806 33.2541C46.3949 30.7345 46.3554 28.3593 48.2491 26.8764C50.1295 25.4067 52.4176 25.9972 54.4165 28.5167L54.4033 28.5299ZM49.7087 32.2436C51.2341 34.1858 52.6412 34.7632 53.7589 33.884C54.8767 33.0047 54.64 31.535 53.1014 29.5797C51.6023 27.6769 50.2873 27.1651 49.1564 28.0443C48.0124 28.9367 48.2096 30.3408 49.7087 32.2436V32.2436Z" fill="#6420FF"/>
<path d="M59.9273 19.8415C60.0062 19.9727 60.0588 20.0908 60.072 20.2483L60.8347 30.0379C60.8478 30.3397 60.7163 30.6021 60.4796 30.7727C60.1114 31.0221 59.5985 30.9171 59.3618 30.5496C59.2829 30.4315 59.2303 30.3003 59.2303 30.156L58.5597 21.5212L55.167 23.7652C54.8119 24.0014 54.378 23.9227 54.1544 23.5815C53.9309 23.2403 54.0229 22.7941 54.378 22.5579L58.8227 19.6184C59.1909 19.3822 59.7038 19.474 59.9405 19.8415H59.9273Z" fill="#6420FF"/>
<path d="M65.1859 16.6L69.5386 24.1981C69.7884 24.6311 69.6701 25.0773 69.2493 25.3135C68.8153 25.5628 68.3945 25.4316 68.1446 24.9986L64.3574 18.3978L63.5158 19.4739C63.4106 19.6051 63.3054 19.7363 63.1608 19.8151C62.832 19.9988 62.3981 19.8938 62.1745 19.5001C62.0299 19.2508 62.0167 18.949 62.2797 18.5815L63.7657 16.6262C63.8709 16.4819 63.9892 16.3638 64.1602 16.2588C64.5152 16.0488 64.9755 16.2194 65.199 16.6H65.1859Z" fill="#6420FF"/>
</svg>
