<svg width="92" height="39" viewBox="0 0 92 39" fill="none" xmlns="http://www.w3.org/2000/svg">
<path d="M4.35846 38.4448C1.95026 38.4448 0 36.4946 0 34.0864V4.4654C0 2.05719 1.95026 0.106934 4.35846 0.106934C6.76667 0.106934 8.71693 2.05719 8.71693 4.4654V34.0864C8.71693 36.4946 6.76667 38.4448 4.35846 38.4448Z" fill="black"/>
<path d="M72.9501 25.3142L77.7586 32.1835C79.6023 34.8207 77.7191 38.4409 74.5016 38.4409C73.1712 38.4409 71.9315 37.7776 71.1933 36.6683L64.9162 27.2526V34.0824C64.9162 36.4906 62.9659 38.4409 60.5577 38.4409C58.1495 38.4409 56.1992 36.4906 56.1992 34.0824V4.4654C56.1992 2.05719 58.1495 0.106934 60.5577 0.106934C62.9659 0.106934 64.9162 2.05719 64.9162 4.4654V23.1626L70.4787 14.1535C71.2328 12.9297 72.5671 12.1875 74.0042 12.1875C77.3204 12.1875 79.2904 15.8866 77.4428 18.6383L72.954 25.3181L72.9501 25.3142Z" fill="black"/>
<path d="M20.9555 8.55901C19.9765 9.53808 18.8039 10.0316 17.438 10.0316C16.072 10.0316 14.8837 9.54203 13.8651 8.55901C12.8861 7.5444 12.3926 6.35214 12.3926 4.98618C12.3926 3.62021 12.8821 2.44769 13.8651 1.46861C14.8797 0.489537 16.072 0 17.434 0C18.796 0 19.9725 0.489537 20.9516 1.47256C21.9662 2.45164 22.4755 3.62416 22.4755 4.99012C22.4755 6.35609 21.9662 7.5444 20.9516 8.56296L20.9555 8.55901Z" fill="black"/>
<path d="M21.7911 16.5416C21.7911 14.1345 19.8398 12.1831 17.4327 12.1831C15.0256 12.1831 13.0742 14.1345 13.0742 16.5416V34.086C13.0742 36.4931 15.0256 38.4444 17.4327 38.4444C19.8398 38.4444 21.7911 36.4931 21.7911 34.086V16.5416Z" fill="black"/>
<path d="M49.1862 14.418C47.4176 12.4401 45.0804 11.4492 42.1748 11.4492C38.8822 11.4492 34.8751 12.7994 34.8751 16.8183V16.5459C34.8751 14.1377 32.9249 12.1875 30.5167 12.1875C28.1085 12.1875 26.1582 14.1377 26.1582 16.5459V34.0864C26.1582 36.4946 28.1085 38.4448 30.5167 38.4448C32.9249 38.4448 34.8751 36.4946 34.8751 34.0864V24.4733C34.8751 22.9336 35.2502 21.7532 36.0042 20.9281C36.7583 20.1069 37.8163 19.6924 39.1823 19.6924C40.4061 19.6924 41.3694 20.0517 42.0721 20.7702C42.7709 21.4887 43.1223 22.5112 43.1223 23.8416V34.0824C43.1223 36.4906 45.0725 38.4409 47.4807 38.4409C49.8889 38.4409 51.8392 36.4906 51.8392 34.0824V22.7362C51.8392 19.1634 50.9549 16.392 49.1862 14.4141V14.418Z" fill="black"/>
<path d="M90.3344 8.55901C89.3554 9.53808 88.1828 10.0316 86.8169 10.0316C85.4509 10.0316 84.2626 9.54203 83.244 8.55901C82.265 7.5444 81.7715 6.35214 81.7715 4.98618C81.7715 3.62021 82.261 2.44769 83.244 1.46861C84.2626 0.489537 85.4509 0 86.8169 0C88.1828 0 89.3554 0.489537 90.3344 1.47256C91.349 2.45164 91.8583 3.62416 91.8583 4.99012C91.8583 6.35609 91.349 7.5444 90.3344 8.56296V8.55901Z" fill="black"/>
<path d="M91.1779 16.5416C91.1779 14.1345 89.2265 12.1831 86.8194 12.1831C84.4123 12.1831 82.4609 14.1345 82.4609 16.5416V34.086C82.4609 36.4931 84.4123 38.4444 86.8194 38.4444C89.2265 38.4444 91.1779 36.4931 91.1779 34.086V16.5416Z" fill="black"/>
</svg>
