<svg width="23" height="22" viewBox="0 0 23 22" fill="none" xmlns="http://www.w3.org/2000/svg">
<path d="M12.0105 17.9338L17.1329 21.1791C17.7876 21.5939 18.6006 20.9769 18.4063 20.2126L16.9263 14.3908C16.8846 14.2287 16.8896 14.0581 16.9405 13.8986C16.9915 13.7391 17.0865 13.5973 17.2145 13.4894L21.8079 9.66622C22.4114 9.16387 22.0999 8.1622 21.3245 8.11188L15.3258 7.72256C15.1642 7.71102 15.0093 7.65381 14.8789 7.55761C14.7486 7.4614 14.6483 7.33015 14.5897 7.17914L12.3524 1.54516C12.2916 1.38488 12.1835 1.24689 12.0424 1.14952C11.9013 1.05215 11.7339 1 11.5625 1C11.3911 1 11.2237 1.05215 11.0826 1.14952C10.9415 1.24689 10.8334 1.38488 10.7726 1.54516L8.53531 7.17914C8.4767 7.33015 8.37639 7.4614 8.24606 7.55761C8.11574 7.65381 7.96077 7.71102 7.7992 7.72256L1.80052 8.11188C1.02508 8.1622 0.713563 9.16387 1.31712 9.66622L5.91051 13.4894C6.03852 13.5973 6.13348 13.7391 6.18446 13.8986C6.23544 14.0581 6.24038 14.2287 6.1987 14.3908L4.82621 19.7899C4.59306 20.7071 5.56858 21.4475 6.3543 20.9497L11.1145 17.9338C11.2484 17.8486 11.4038 17.8033 11.5625 17.8033C11.7212 17.8033 11.8766 17.8486 12.0105 17.9338Z" fill="#FFB803" stroke="#FFB803" stroke-linecap="round" stroke-linejoin="round"/>
</svg>
