<svg width="17" height="16" viewBox="0 0 17 16" fill="none" xmlns="http://www.w3.org/2000/svg">
  <path fill-rule="evenodd" clip-rule="evenodd" d="M8.59998 1C4.73398 1 1.59998 4.13401 1.59998 8C1.59998 11.866 4.73398 15 8.59998 15C12.466 15 15.6 11.866 15.6 8C15.6 4.13401 12.466 1 8.59998 1ZM0.599976 8C0.599976 3.58172 4.1817 0 8.59998 0C13.0183 0 16.6 3.58172 16.6 8C16.6 12.4183 13.0183 16 8.59998 16C4.1817 16 0.599976 12.4183 0.599976 8Z" />
  <path fill-rule="evenodd" clip-rule="evenodd" d="M8.59998 3.125C8.87612 3.125 9.09998 3.34886 9.09998 3.625V7.5H12.975C13.2511 7.5 13.475 7.72386 13.475 8C13.475 8.27614 13.2511 8.5 12.975 8.5H8.59998C8.32383 8.5 8.09998 8.27614 8.09998 8V3.625C8.09998 3.34886 8.32383 3.125 8.59998 3.125Z"/>
</svg>
