<svg width="32" height="32" viewBox="0 0 32 32" fill="none" xmlns="http://www.w3.org/2000/svg">
<path fill-rule="evenodd" clip-rule="evenodd" d="M4 19.5C4.27614 19.5 4.5 19.7239 4.5 20V25.3333C4.5 25.908 4.72827 26.4591 5.1346 26.8654C5.54093 27.2717 6.09203 27.5 6.66667 27.5H25.3333C25.908 27.5 26.4591 27.2717 26.8654 26.8654C27.2717 26.4591 27.5 25.908 27.5 25.3333V20C27.5 19.7239 27.7239 19.5 28 19.5C28.2761 19.5 28.5 19.7239 28.5 20V25.3333C28.5 26.1732 28.1664 26.9786 27.5725 27.5725C26.9786 28.1664 26.1732 28.5 25.3333 28.5H6.66667C5.82681 28.5 5.02136 28.1664 4.4275 27.5725C3.83363 26.9786 3.5 26.1732 3.5 25.3333V20C3.5 19.7239 3.72386 19.5 4 19.5Z" />
<path fill-rule="evenodd" clip-rule="evenodd" d="M8.97994 12.9785C9.1752 12.7832 9.49179 12.7832 9.68705 12.9785L16.0002 19.2916L22.3133 12.9785C22.5085 12.7832 22.8251 12.7832 23.0204 12.9785C23.2156 13.1737 23.2156 13.4903 23.0204 13.6856L16.3537 20.3523C16.2599 20.446 16.1328 20.4987 16.0002 20.4987C15.8676 20.4987 15.7404 20.446 15.6466 20.3523L8.97994 13.6856C8.78468 13.4903 8.78468 13.1737 8.97994 12.9785Z" />
<path fill-rule="evenodd" clip-rule="evenodd" d="M16 3.5C16.2761 3.5 16.5 3.72386 16.5 4V20C16.5 20.2761 16.2761 20.5 16 20.5C15.7239 20.5 15.5 20.2761 15.5 20V4C15.5 3.72386 15.7239 3.5 16 3.5Z" />
</svg>
