<svg width="25" height="29" viewBox="0 0 25 29" fill="none" xmlns="http://www.w3.org/2000/svg">
<path fill-rule="evenodd" clip-rule="evenodd" d="M2.125 1.5C1.95924 1.5 1.80027 1.56585 1.68306 1.68306C1.56585 1.80027 1.5 1.95924 1.5 2.125V26.875C1.5 27.0408 1.56585 27.1997 1.68306 27.3169C1.80027 27.4342 1.95924 27.5 2.125 27.5H22.3761C22.4582 27.5 22.5394 27.4838 22.6153 27.4524C22.6911 27.421 22.76 27.375 22.818 27.3169C22.8761 27.2589 22.9221 27.19 22.9535 27.1142C22.9849 27.0384 23.0011 26.9571 23.0011 26.875V9.08211L15.419 1.5H2.125ZM0.975951 0.975952C1.2807 0.671205 1.69402 0.5 2.125 0.5H15.6261C15.7587 0.5 15.8859 0.552678 15.9797 0.646447L23.8547 8.52145C23.9484 8.61521 24.0011 8.74239 24.0011 8.875V26.875C24.0011 27.0884 23.9591 27.2997 23.8774 27.4969C23.7957 27.694 23.676 27.8732 23.5252 28.0241C23.3743 28.1749 23.1951 28.2946 22.998 28.3763C22.8008 28.458 22.5895 28.5 22.3761 28.5H2.125C1.69402 28.5 1.2807 28.3288 0.975951 28.0241C0.671204 27.7193 0.5 27.306 0.5 26.875V2.125C0.5 1.69402 0.671204 1.2807 0.975951 0.975952Z" />
<path fill-rule="evenodd" clip-rule="evenodd" d="M15.625 0.5C15.9011 0.5 16.125 0.723858 16.125 1V8.375H23.5011C23.7773 8.375 24.0011 8.59886 24.0011 8.875C24.0011 9.15114 23.7773 9.375 23.5011 9.375H15.625C15.3489 9.375 15.125 9.15114 15.125 8.875V1C15.125 0.723858 15.3489 0.5 15.625 0.5Z" />
<path fill-rule="evenodd" clip-rule="evenodd" d="M7.25 15.625C7.25 15.3489 7.47386 15.125 7.75 15.125H16.75C17.0261 15.125 17.25 15.3489 17.25 15.625C17.25 15.9011 17.0261 16.125 16.75 16.125H7.75C7.47386 16.125 7.25 15.9011 7.25 15.625Z" />
<path fill-rule="evenodd" clip-rule="evenodd" d="M7.25 20.125C7.25 19.8489 7.47386 19.625 7.75 19.625H16.75C17.0261 19.625 17.25 19.8489 17.25 20.125C17.25 20.4011 17.0261 20.625 16.75 20.625H7.75C7.47386 20.625 7.25 20.4011 7.25 20.125Z" />
</svg>
