<svg width="16" height="16" viewBox="0 0 16 16" fill="none" xmlns="http://www.w3.org/2000/svg">
<path fill-rule="evenodd" clip-rule="evenodd" d="M12.1237 0.146447C12.319 -0.0488155 12.6356 -0.0488155 12.8308 0.146447L15.3308 2.64645C15.5261 2.84171 15.5261 3.15829 15.3308 3.35355L7.83085 10.8536C7.73708 10.9473 7.6099 11 7.47729 11H4.97729C4.70115 11 4.47729 10.7761 4.47729 10.5V8C4.47729 7.86739 4.52997 7.74021 4.62374 7.64645L12.1237 0.146447ZM5.47729 8.20711V10H7.27019L14.2702 3L12.4773 1.20711L5.47729 8.20711Z" />
<path fill-rule="evenodd" clip-rule="evenodd" d="M10.2487 2.02145C10.444 1.82618 10.7606 1.82618 10.9558 2.02145L13.4558 4.52145C13.6511 4.71671 13.6511 5.03329 13.4558 5.22855C13.2606 5.42382 12.944 5.42382 12.7487 5.22855L10.2487 2.72855C10.0535 2.53329 10.0535 2.21671 10.2487 2.02145Z" />
<path fill-rule="evenodd" clip-rule="evenodd" d="M1.22729 1.625C1.19414 1.625 1.16235 1.63817 1.13891 1.66161L1.13891 1.66161C1.11546 1.68505 1.10229 1.71685 1.10229 1.75V14.25C1.10229 14.2832 1.11546 14.3149 1.13891 14.3384C1.16235 14.3618 1.19414 14.375 1.22729 14.375H13.7273C13.7604 14.375 13.7922 14.3618 13.8157 14.3384C13.8391 14.3149 13.8523 14.2832 13.8523 14.25V7.375C13.8523 7.09886 14.0762 6.875 14.3523 6.875C14.6284 6.875 14.8523 7.09886 14.8523 7.375V14.25C14.8523 14.5484 14.7338 14.8345 14.5228 15.0455C14.3118 15.2565 14.0257 15.375 13.7273 15.375H1.22729C0.928927 15.375 0.642779 15.2565 0.4318 15.0455C0.220822 14.8345 0.102295 14.5484 0.102295 14.25V1.75C0.102295 1.45163 0.220822 1.16548 0.431799 0.954506C0.642778 0.743526 0.928927 0.625 1.22729 0.625H8.1023C8.37844 0.625 8.6023 0.848858 8.6023 1.125C8.6023 1.40114 8.37844 1.625 8.1023 1.625H1.22729Z" />
</svg>
