<svg width="18" height="22" viewBox="0 0 18 22" fill="none" xmlns="http://www.w3.org/2000/svg">
<path fill-rule="evenodd" clip-rule="evenodd" d="M4 8.5C2.61929 8.5 1.5 9.61929 1.5 11C1.5 12.3807 2.61929 13.5 4 13.5C5.38071 13.5 6.5 12.3807 6.5 11C6.5 9.61929 5.38071 8.5 4 8.5ZM0.5 11C0.5 9.067 2.067 7.5 4 7.5C5.933 7.5 7.5 9.067 7.5 11C7.5 12.933 5.933 14.5 4 14.5C2.067 14.5 0.5 12.933 0.5 11Z" fill="#A0A0A0"/>
<path fill-rule="evenodd" clip-rule="evenodd" d="M14.5 15.25C13.1193 15.25 12 16.3693 12 17.75C12 19.1307 13.1193 20.25 14.5 20.25C15.8807 20.25 17 19.1307 17 17.75C17 16.3693 15.8807 15.25 14.5 15.25ZM11 17.75C11 15.817 12.567 14.25 14.5 14.25C16.433 14.25 18 15.817 18 17.75C18 19.683 16.433 21.25 14.5 21.25C12.567 21.25 11 19.683 11 17.75Z" fill="#A0A0A0"/>
<path fill-rule="evenodd" clip-rule="evenodd" d="M14.5 1.75C13.1193 1.75 12 2.86929 12 4.25C12 5.63071 13.1193 6.75 14.5 6.75C15.8807 6.75 17 5.63071 17 4.25C17 2.86929 15.8807 1.75 14.5 1.75ZM11 4.25C11 2.317 12.567 0.75 14.5 0.75C16.433 0.75 18 2.317 18 4.25C18 6.183 16.433 7.75 14.5 7.75C12.567 7.75 11 6.183 11 4.25Z" fill="#A0A0A0"/>
<path fill-rule="evenodd" clip-rule="evenodd" d="M12.3976 5.60273C12.547 5.83501 12.4797 6.14437 12.2474 6.2937L6.79388 9.79955C6.56159 9.94887 6.25224 9.88162 6.10291 9.64934C5.95358 9.41705 6.02083 9.10769 6.25312 8.95837L11.7067 5.45252C11.9389 5.30319 12.2483 5.37044 12.3976 5.60273Z" fill="#A0A0A0"/>
<path fill-rule="evenodd" clip-rule="evenodd" d="M6.10291 12.3508C6.25224 12.1185 6.56159 12.0512 6.79388 12.2006L12.2474 15.7064C12.4797 15.8557 12.547 16.1651 12.3976 16.3974C12.2483 16.6297 11.9389 16.6969 11.7067 16.5476L6.25312 13.0417C6.02083 12.8924 5.95358 12.5831 6.10291 12.3508Z" fill="#A0A0A0"/>
</svg>
