<svg width="16" height="15" viewBox="0 0 16 15" fill="none" xmlns="http://www.w3.org/2000/svg">
<path fill-rule="evenodd" clip-rule="evenodd" d="M6.34249 3.7402C6.53775 3.54493 6.85434 3.54493 7.0496 3.7402L10.3308 7.02145C10.5261 7.21671 10.5261 7.53329 10.3308 7.72855L7.0496 11.0098C6.85434 11.2051 6.53775 11.2051 6.34249 11.0098C6.14723 10.8145 6.14723 10.498 6.34249 10.3027L9.27019 7.375L6.34249 4.4473C6.14723 4.25204 6.14723 3.93546 6.34249 3.7402Z" />
<path fill-rule="evenodd" clip-rule="evenodd" d="M0.725098 7.375C0.725098 7.09886 0.948955 6.875 1.2251 6.875H9.9751C10.2512 6.875 10.4751 7.09886 10.4751 7.375C10.4751 7.65114 10.2512 7.875 9.9751 7.875H1.2251C0.948955 7.875 0.725098 7.65114 0.725098 7.375Z" />
<path fill-rule="evenodd" clip-rule="evenodd" d="M8.22729 0.5C8.22729 0.223858 8.45115 0 8.72729 0H14.3523C14.6507 0 14.9368 0.118526 15.1478 0.329505C15.3588 0.540484 15.4773 0.826632 15.4773 1.125V13.625C15.4773 13.9234 15.3588 14.2095 15.1478 14.4205C14.9368 14.6315 14.6507 14.75 14.3523 14.75H8.72729C8.45115 14.75 8.22729 14.5261 8.22729 14.25C8.22729 13.9739 8.45115 13.75 8.72729 13.75H14.3523C14.3854 13.75 14.4172 13.7368 14.4407 13.7134C14.4641 13.6899 14.4773 13.6582 14.4773 13.625V1.125C14.4773 1.09185 14.4641 1.06005 14.4407 1.03661C14.4172 1.01317 14.3854 1 14.3523 1H8.72729C8.45115 1 8.22729 0.776142 8.22729 0.5Z" />
</svg>
