<svg width="16" height="17" viewBox="0 0 16 17" fill="none" xmlns="http://www.w3.org/2000/svg">
<path fill-rule="evenodd" clip-rule="evenodd" d="M1 3.00001L14.75 3C15.0261 3 15.25 3.22386 15.25 3.5C15.25 3.77614 15.0261 4 14.75 4L1 4.00001C0.723858 4.00001 0.5 3.77615 0.5 3.50001C0.5 3.22386 0.723857 3.00001 1 3.00001Z" />
<path fill-rule="evenodd" clip-rule="evenodd" d="M6.00049 6.75C6.27663 6.75 6.50049 6.97386 6.50049 7.25V12.25C6.50049 12.5261 6.27663 12.75 6.00049 12.75C5.72435 12.75 5.50049 12.5261 5.50049 12.25V7.25C5.50049 6.97386 5.72435 6.75 6.00049 6.75Z" />
<path fill-rule="evenodd" clip-rule="evenodd" d="M9.75049 6.75C10.0266 6.75 10.2505 6.97386 10.2505 7.25V12.25C10.2505 12.5261 10.0266 12.75 9.75049 12.75C9.47435 12.75 9.25049 12.5261 9.25049 12.25V7.25C9.25049 6.97386 9.47435 6.75 9.75049 6.75Z" />
<path fill-rule="evenodd" clip-rule="evenodd" d="M2.25 3C2.52614 3 2.75 3.22386 2.75 3.5V15.375C2.75 15.4082 2.76317 15.4399 2.78661 15.4634C2.81005 15.4868 2.84185 15.5 2.875 15.5H12.875C12.9082 15.5 12.9399 15.4868 12.9634 15.4634C12.9868 15.4399 13 15.4082 13 15.375V3.5C13 3.22386 13.2239 3 13.5 3C13.7761 3 14 3.22386 14 3.5V15.375C14 15.6734 13.8815 15.9595 13.6705 16.1705C13.4595 16.3815 13.1734 16.5 12.875 16.5H2.875C2.57663 16.5 2.29048 16.3815 2.0795 16.1705C1.86853 15.9595 1.75 15.6734 1.75 15.375V3.5C1.75 3.22386 1.97386 3 2.25 3Z" />
<path fill-rule="evenodd" clip-rule="evenodd" d="M4.76305 1.01256C5.09124 0.684374 5.53636 0.5 6.00049 0.5H9.75049C10.2146 0.5 10.6597 0.684374 10.9879 1.01256C11.3161 1.34075 11.5005 1.78587 11.5005 2.25V3.5C11.5005 3.77614 11.2766 4 11.0005 4C10.7243 4 10.5005 3.77614 10.5005 3.5V2.25C10.5005 2.05109 10.4215 1.86032 10.2808 1.71967C10.1402 1.57902 9.9494 1.5 9.75049 1.5H6.00049C5.80158 1.5 5.61081 1.57902 5.47016 1.71967C5.32951 1.86032 5.25049 2.05109 5.25049 2.25V3.5C5.25049 3.77614 5.02663 4 4.75049 4C4.47435 4 4.25049 3.77614 4.25049 3.5V2.25C4.25049 1.78587 4.43486 1.34075 4.76305 1.01256Z" />
</svg>
