<svg width="50" height="50" viewBox="0 0 50 50" fill="none" xmlns="http://www.w3.org/2000/svg">
<path d="M31.9421 0C21.973 0 13.8894 8.08333 13.8894 18.0573C13.8894 28.026 21.973 36.1093 31.9421 36.1093C41.9164 36.1093 50 28.026 50 18.0573C50 8.08333 41.9164 0 31.9421 0Z" fill="#D28147"/>
<path d="M18.0579 13.8907C8.08361 13.8907 0 21.974 0 31.9427C0 41.9167 8.08361 50 18.0579 50C28.027 50 36.1106 41.9167 36.1106 31.9427C36.1106 21.974 28.027 13.8907 18.0579 13.8907Z" fill="#F6B059"/>
<path d="M15.9754 27.7755C14.0534 27.7755 12.5013 29.3328 12.5013 31.2494C12.5013 33.1661 14.0534 34.7234 15.9754 34.7234C17.8921 34.7234 19.4442 33.1661 19.4442 31.2494C19.4442 29.3328 17.8921 27.7755 15.9754 27.7755ZM18.7515 19.4421C17.6004 19.4421 16.6681 20.3744 16.6681 21.5255C16.6681 22.6765 17.6004 23.6088 18.7515 23.6088C19.9026 23.6088 20.8349 22.6765 20.8349 21.5255C20.8349 20.3744 19.9026 19.4421 18.7515 19.4421ZM23.6111 36.1088C22.0798 36.1088 20.8349 37.3536 20.8349 38.89C20.8349 40.4213 22.0798 41.6661 23.6111 41.6661C25.1476 41.6661 26.3924 40.4213 26.3924 38.89C26.3924 37.3536 25.1476 36.1088 23.6111 36.1088ZM7.64176 31.9421C6.49067 31.9421 5.55835 32.8744 5.55835 34.0255C5.55835 35.1765 6.49067 36.1088 7.64176 36.1088C8.79284 36.1088 9.72516 35.1765 9.72516 34.0255C9.72516 32.8744 8.79284 31.9421 7.64176 31.9421ZM27.0851 27.7755C25.9341 27.7755 25.0017 28.7078 25.0017 29.8588C25.0017 31.0098 25.9341 31.9421 27.0851 31.9421C28.2362 31.9421 29.1685 31.0098 29.1685 29.8588C29.1685 28.7078 28.2362 27.7755 27.0851 27.7755ZM13.892 40.2755C13.1211 40.2755 12.5013 40.9005 12.5013 41.6661C12.5013 42.4317 13.1211 43.0567 13.892 43.0567C14.6576 43.0567 15.2774 42.4317 15.2774 41.6661C15.2774 40.9005 14.6576 40.2755 13.892 40.2755Z" fill="#6D420D"/>
<path d="M27.7774 5.55807C26.2461 5.55807 25.0012 6.79766 25.0012 8.33411C25.0012 9.87057 26.2461 11.1102 27.7774 11.1102C29.3139 11.1102 30.5587 9.87057 30.5587 8.33411C30.5587 6.79766 29.3139 5.55807 27.7774 5.55807ZM35.4183 12.5008C34.2672 12.5008 33.3348 13.4331 33.3348 14.5841C33.3348 15.7351 34.2672 16.6674 35.4183 16.6674C36.5693 16.6674 37.5017 15.7351 37.5017 14.5841C37.5017 13.4331 36.5693 12.5008 35.4183 12.5008ZM36.8037 4.16745C35.6526 4.16745 34.7203 5.09974 34.7203 6.25078C34.7203 7.40182 35.6526 8.33411 36.8037 8.33411C37.9548 8.33411 38.8871 7.40182 38.8871 6.25078C38.8871 5.09974 37.9548 4.16745 36.8037 4.16745ZM41.6685 19.4435C40.9028 19.4435 40.2778 20.0685 40.2778 20.8341C40.2778 21.5997 40.9028 22.2247 41.6685 22.2247C42.4341 22.2247 43.0591 21.5997 43.0591 20.8341C43.0591 20.0685 42.4341 19.4435 41.6685 19.4435Z" fill="#7A441D"/>
</svg>
