<svg width="208" height="432" viewBox="0 0 208 432" fill="none" xmlns="http://www.w3.org/2000/svg">
<g clip-path="url(#clip0_203_4427)">
<rect width="208" height="432" rx="32" fill="url(#paint0_linear_203_4427)"/>
<g filter="url(#filter0_f_203_4427)">
<mask id="path-3-inside-1_203_4427" fill="white">
<path d="M0.885254 49.3849C0.885254 32.4108 0.885254 23.9237 4.18865 17.4404C7.0944 11.7376 11.731 7.10099 17.4338 4.19524C23.9171 0.891846 32.4042 0.891846 49.3784 0.891846H158.622C175.596 0.891846 184.083 0.891846 190.566 4.19524C196.269 7.10099 200.906 11.7376 203.812 17.4404C207.115 23.9237 207.115 32.4108 207.115 49.3849V382.615C207.115 399.59 207.115 408.077 203.812 414.56C200.906 420.263 196.269 424.899 190.566 427.805C184.083 431.109 175.596 431.109 158.622 431.109H49.3783C32.4042 431.109 23.9171 431.109 17.4338 427.805C11.731 424.899 7.0944 420.263 4.18865 414.56C0.885254 408.077 0.885254 399.59 0.885254 382.615V49.3849Z"/>
</mask>
<path d="M0.0433599 31.2C0.0433599 14.2288 13.8013 0.470899 30.7725 0.470899H177.228C194.199 0.470899 207.957 14.2288 207.957 31.2L206.273 31.2C206.273 14.6938 193.081 1.31279 176.807 1.31279H31.1934C14.9197 1.31279 1.72715 14.6938 1.72715 31.2L0.0433599 31.2ZM207.957 400.8C207.957 418.004 194.011 431.95 176.807 431.95H31.1934C13.9897 431.95 0.0433599 418.004 0.0433599 400.8L1.72715 400.8C1.72715 417.074 14.9197 430.267 31.1934 430.267H176.807C193.081 430.267 206.273 417.074 206.273 400.8L207.957 400.8ZM31.1934 431.95C13.9897 431.95 0.0433599 418.004 0.0433599 400.8V31.2C0.0433599 14.2288 13.8013 0.470899 30.7725 0.470899L31.1934 1.31279C14.9197 1.31279 1.72715 14.6938 1.72715 31.2V400.8C1.72715 417.074 14.9197 430.267 31.1934 430.267L31.1934 431.95ZM177.228 0.470899C194.199 0.470899 207.957 14.2288 207.957 31.2V400.8C207.957 418.004 194.011 431.95 176.807 431.95L176.807 430.267C193.081 430.267 206.273 417.074 206.273 400.8V31.2C206.273 14.6938 193.081 1.31279 176.807 1.31279L177.228 0.470899Z" fill="white" mask="url(#path-3-inside-1_203_4427)"/>
</g>
<rect x="163.302" y="0.446045" width="2.65532" height="2.67492" fill="#C5C6C8"/>
<rect x="42.0425" y="428.879" width="2.65532" height="2.67492" fill="#C5C6C8"/>
<rect x="0.442383" y="43.6909" width="2.65532" height="2.67492" fill="#C5C6C8"/>
<rect x="204.902" y="43.6909" width="2.65532" height="2.67492" fill="#C5C6C8"/>
<rect x="0.442383" y="386.081" width="2.65532" height="2.67492" fill="#C5C6C8"/>
<rect x="204.902" y="386.081" width="2.65532" height="2.67492" fill="#C5C6C8"/>
<rect x="3" y="3" width="201" height="425" rx="32" fill="black"/>
<rect x="9.17139" y="9.22998" width="188.658" height="412.094" rx="23.1521" fill="white"/>
<mask id="path-13-inside-2_203_4427" fill="white">
<path d="M88.0684 3.12036H119.932V5.47383C119.932 6.63624 118.99 7.57856 117.827 7.57856H90.1731C89.0107 7.57856 88.0684 6.63624 88.0684 5.47383V3.12036Z"/>
</mask>
<path d="M88.0684 3.12036H119.932V5.47383C119.932 6.63624 118.99 7.57856 117.827 7.57856H90.1731C89.0107 7.57856 88.0684 6.63624 88.0684 5.47383V3.12036Z" fill="#060606"/>
<path d="M88.0684 3.12036H119.932H88.0684ZM120.143 5.47383C120.143 6.75248 119.106 7.78904 117.827 7.78904H90.1731C88.8944 7.78904 87.8579 6.75248 87.8579 5.47383L88.2788 5.47383C88.2788 6.52 89.1269 7.36809 90.1731 7.36809H117.827C118.874 7.36809 119.722 6.52 119.722 5.47383L120.143 5.47383ZM90.1731 7.78904C88.8944 7.78904 87.8579 6.75248 87.8579 5.47383V3.12036H88.2788V5.47383C88.2788 6.52 89.1269 7.36809 90.1731 7.36809L90.1731 7.78904ZM120.143 3.12036V5.47383C120.143 6.75248 119.106 7.78904 117.827 7.78904L117.827 7.36809C118.874 7.36809 119.722 6.52 119.722 5.47383V3.12036H120.143Z" fill="#272422" mask="url(#path-13-inside-2_203_4427)"/>
<g clip-path="url(#clip1_203_4427)">
<rect x="88.9531" y="4.01221" width="30.0936" height="2.2291" rx="1.11455" fill="#191816"/>
<rect x="88.9531" y="4.01221" width="0.421921" height="0.421921" fill="#312F2E"/>
<rect x="89.7949" y="4.01221" width="0.421921" height="0.421921" fill="#312F2E"/>
<rect x="90.6372" y="4.01221" width="0.421921" height="0.421921" fill="#312F2E"/>
<rect x="91.4785" y="4.01221" width="0.421921" height="0.421921" fill="#312F2E"/>
<rect x="92.3208" y="4.01221" width="0.421921" height="0.421921" fill="#312F2E"/>
<rect x="93.1626" y="4.01221" width="0.421921" height="0.421921" fill="#312F2E"/>
<rect x="94.0044" y="4.01221" width="0.421921" height="0.421921" fill="#312F2E"/>
<rect x="94.8462" y="4.01221" width="0.421921" height="0.421921" fill="#312F2E"/>
<rect x="95.6885" y="4.01221" width="0.421921" height="0.421921" fill="#312F2E"/>
<rect x="96.5303" y="4.01221" width="0.421921" height="0.421921" fill="#312F2E"/>
<rect x="97.3721" y="4.01221" width="0.421921" height="0.421921" fill="#312F2E"/>
<rect x="98.2144" y="4.01221" width="0.421921" height="0.421921" fill="#312F2E"/>
<rect x="99.0557" y="4.01221" width="0.421921" height="0.421921" fill="#312F2E"/>
<rect x="99.8979" y="4.01221" width="0.421921" height="0.421921" fill="#312F2E"/>
<rect x="100.74" y="4.01221" width="0.421921" height="0.421921" fill="#312F2E"/>
<rect x="101.582" y="4.01221" width="0.421921" height="0.421921" fill="#312F2E"/>
<rect x="102.423" y="4.01221" width="0.421921" height="0.421921" fill="#312F2E"/>
<rect x="103.266" y="4.01221" width="0.421921" height="0.421921" fill="#312F2E"/>
<rect x="104.107" y="4.01221" width="0.421921" height="0.421921" fill="#312F2E"/>
<rect x="104.949" y="4.01221" width="0.421921" height="0.421921" fill="#312F2E"/>
<rect x="105.791" y="4.01221" width="0.421921" height="0.421921" fill="#312F2E"/>
<rect x="106.633" y="4.01221" width="0.421921" height="0.421921" fill="#312F2E"/>
<rect x="107.475" y="4.01221" width="0.421921" height="0.421921" fill="#312F2E"/>
<rect x="108.317" y="4.01221" width="0.421921" height="0.421921" fill="#312F2E"/>
<rect x="109.159" y="4.01221" width="0.421921" height="0.421921" fill="#312F2E"/>
<rect x="110" y="4.01221" width="0.421921" height="0.421921" fill="#312F2E"/>
<rect x="110.842" y="4.01221" width="0.421921" height="0.421921" fill="#312F2E"/>
<rect x="111.684" y="4.01221" width="0.421921" height="0.421921" fill="#312F2E"/>
<rect x="112.526" y="4.01221" width="0.421921" height="0.421921" fill="#312F2E"/>
<rect x="113.368" y="4.01221" width="0.421921" height="0.421921" fill="#312F2E"/>
<rect x="114.21" y="4.01221" width="0.421921" height="0.421921" fill="#312F2E"/>
<rect x="115.052" y="4.01221" width="0.421921" height="0.421921" fill="#312F2E"/>
<rect x="115.894" y="4.01221" width="0.421921" height="0.421921" fill="#312F2E"/>
<rect x="116.736" y="4.01221" width="0.421921" height="0.421921" fill="#312F2E"/>
<rect x="88.9531" y="4.854" width="0.421921" height="0.421921" fill="#312F2E"/>
<rect x="89.7949" y="4.854" width="0.421921" height="0.421921" fill="#312F2E"/>
<rect x="90.6372" y="4.854" width="0.421921" height="0.421921" fill="#312F2E"/>
<rect x="91.4785" y="4.854" width="0.421921" height="0.421921" fill="#312F2E"/>
<rect x="92.3208" y="4.854" width="0.421921" height="0.421921" fill="#312F2E"/>
<rect x="93.1626" y="4.854" width="0.421921" height="0.421921" fill="#312F2E"/>
<rect x="94.0044" y="4.854" width="0.421921" height="0.421921" fill="#312F2E"/>
<rect x="94.8462" y="4.854" width="0.421921" height="0.421921" fill="#312F2E"/>
<rect x="95.6885" y="4.854" width="0.421921" height="0.421921" fill="#312F2E"/>
<rect x="96.5303" y="4.854" width="0.421921" height="0.421921" fill="#312F2E"/>
<rect x="97.3721" y="4.854" width="0.421921" height="0.421921" fill="#312F2E"/>
<rect x="98.2144" y="4.854" width="0.421921" height="0.421921" fill="#312F2E"/>
<rect x="99.0557" y="4.854" width="0.421921" height="0.421921" fill="#312F2E"/>
<rect x="99.8979" y="4.854" width="0.421921" height="0.421921" fill="#312F2E"/>
<rect x="100.74" y="4.854" width="0.421921" height="0.421921" fill="#312F2E"/>
<rect x="101.582" y="4.854" width="0.421921" height="0.421921" fill="#312F2E"/>
<rect x="102.423" y="4.854" width="0.421921" height="0.421921" fill="#312F2E"/>
<rect x="103.266" y="4.854" width="0.421921" height="0.421921" fill="#312F2E"/>
<rect x="104.107" y="4.854" width="0.421921" height="0.421921" fill="#312F2E"/>
<rect x="104.949" y="4.854" width="0.421921" height="0.421921" fill="#312F2E"/>
<rect x="105.791" y="4.854" width="0.421921" height="0.421921" fill="#312F2E"/>
<rect x="106.633" y="4.854" width="0.421921" height="0.421921" fill="#312F2E"/>
<rect x="107.475" y="4.854" width="0.421921" height="0.421921" fill="#312F2E"/>
<rect x="108.317" y="4.854" width="0.421921" height="0.421921" fill="#312F2E"/>
<rect x="109.159" y="4.854" width="0.421921" height="0.421921" fill="#312F2E"/>
<rect x="110" y="4.854" width="0.421921" height="0.421921" fill="#312F2E"/>
<rect x="110.842" y="4.854" width="0.421921" height="0.421921" fill="#312F2E"/>
<rect x="111.684" y="4.854" width="0.421921" height="0.421921" fill="#312F2E"/>
<rect x="112.526" y="4.854" width="0.421921" height="0.421921" fill="#312F2E"/>
<rect x="113.368" y="4.854" width="0.421921" height="0.421921" fill="#312F2E"/>
<rect x="114.21" y="4.854" width="0.421921" height="0.421921" fill="#312F2E"/>
<rect x="115.052" y="4.854" width="0.421921" height="0.421921" fill="#312F2E"/>
<rect x="115.894" y="4.854" width="0.421921" height="0.421921" fill="#312F2E"/>
<rect x="116.736" y="4.854" width="0.421921" height="0.421921" fill="#312F2E"/>
<rect x="88.9531" y="5.6958" width="0.421921" height="0.421921" fill="#312F2E"/>
<rect x="89.7949" y="5.6958" width="0.421921" height="0.421921" fill="#312F2E"/>
<rect x="90.6372" y="5.6958" width="0.421921" height="0.421921" fill="#312F2E"/>
<rect x="91.4785" y="5.6958" width="0.421921" height="0.421921" fill="#312F2E"/>
<rect x="92.3208" y="5.6958" width="0.421921" height="0.421921" fill="#312F2E"/>
<rect x="93.1626" y="5.6958" width="0.421921" height="0.421921" fill="#312F2E"/>
<rect x="94.0044" y="5.6958" width="0.421921" height="0.421921" fill="#312F2E"/>
<rect x="94.8462" y="5.6958" width="0.421921" height="0.421921" fill="#312F2E"/>
<rect x="95.6885" y="5.6958" width="0.421921" height="0.421921" fill="#312F2E"/>
<rect x="96.5303" y="5.6958" width="0.421921" height="0.421921" fill="#312F2E"/>
<rect x="97.3721" y="5.6958" width="0.421921" height="0.421921" fill="#312F2E"/>
<rect x="98.2144" y="5.6958" width="0.421921" height="0.421921" fill="#312F2E"/>
<rect x="99.0557" y="5.6958" width="0.421921" height="0.421921" fill="#312F2E"/>
<rect x="99.8979" y="5.6958" width="0.421921" height="0.421921" fill="#312F2E"/>
<rect x="100.74" y="5.6958" width="0.421921" height="0.421921" fill="#312F2E"/>
<rect x="101.582" y="5.6958" width="0.421921" height="0.421921" fill="#312F2E"/>
<rect x="102.423" y="5.6958" width="0.421921" height="0.421921" fill="#312F2E"/>
<rect x="103.266" y="5.6958" width="0.421921" height="0.421921" fill="#312F2E"/>
<rect x="104.107" y="5.6958" width="0.421921" height="0.421921" fill="#312F2E"/>
<rect x="104.949" y="5.6958" width="0.421921" height="0.421921" fill="#312F2E"/>
<rect x="105.791" y="5.6958" width="0.421921" height="0.421921" fill="#312F2E"/>
<rect x="106.633" y="5.6958" width="0.421921" height="0.421921" fill="#312F2E"/>
<rect x="107.475" y="5.6958" width="0.421921" height="0.421921" fill="#312F2E"/>
<rect x="108.317" y="5.6958" width="0.421921" height="0.421921" fill="#312F2E"/>
<rect x="109.159" y="5.6958" width="0.421921" height="0.421921" fill="#312F2E"/>
<rect x="110" y="5.6958" width="0.421921" height="0.421921" fill="#312F2E"/>
<rect x="110.842" y="5.6958" width="0.421921" height="0.421921" fill="#312F2E"/>
<rect x="111.684" y="5.6958" width="0.421921" height="0.421921" fill="#312F2E"/>
<rect x="112.526" y="5.6958" width="0.421921" height="0.421921" fill="#312F2E"/>
<rect x="113.368" y="5.6958" width="0.421921" height="0.421921" fill="#312F2E"/>
<rect x="114.21" y="5.6958" width="0.421921" height="0.421921" fill="#312F2E"/>
<rect x="115.052" y="5.6958" width="0.421921" height="0.421921" fill="#312F2E"/>
<rect x="115.894" y="5.6958" width="0.421921" height="0.421921" fill="#312F2E"/>
<rect x="116.736" y="5.6958" width="0.421921" height="0.421921" fill="#312F2E"/>
<rect x="89.374" y="4.43311" width="0.421921" height="0.421921" fill="#312F2E"/>
<rect x="90.2158" y="4.43311" width="0.421921" height="0.421921" fill="#312F2E"/>
<rect x="91.0581" y="4.43311" width="0.421921" height="0.421921" fill="#312F2E"/>
<rect x="91.8999" y="4.43311" width="0.421921" height="0.421921" fill="#312F2E"/>
<rect x="92.7417" y="4.43311" width="0.421921" height="0.421921" fill="#312F2E"/>
<rect x="93.5835" y="4.43311" width="0.421921" height="0.421921" fill="#312F2E"/>
<rect x="94.4258" y="4.43311" width="0.421921" height="0.421921" fill="#312F2E"/>
<rect x="95.2676" y="4.43311" width="0.421921" height="0.421921" fill="#312F2E"/>
<rect x="96.1094" y="4.43311" width="0.421921" height="0.421921" fill="#312F2E"/>
<rect x="96.9512" y="4.43311" width="0.421921" height="0.421921" fill="#312F2E"/>
<rect x="97.793" y="4.43311" width="0.421921" height="0.421921" fill="#312F2E"/>
<rect x="98.6348" y="4.43311" width="0.421921" height="0.421921" fill="#312F2E"/>
<rect x="99.4771" y="4.43311" width="0.421921" height="0.421921" fill="#312F2E"/>
<rect x="100.319" y="4.43311" width="0.421921" height="0.421921" fill="#312F2E"/>
<rect x="101.161" y="4.43311" width="0.421921" height="0.421921" fill="#312F2E"/>
<rect x="102.002" y="4.43311" width="0.421921" height="0.421921" fill="#312F2E"/>
<rect x="102.844" y="4.43311" width="0.421921" height="0.421921" fill="#312F2E"/>
<rect x="103.687" y="4.43311" width="0.421921" height="0.421921" fill="#312F2E"/>
<rect x="104.528" y="4.43311" width="0.421921" height="0.421921" fill="#312F2E"/>
<rect x="105.37" y="4.43311" width="0.421921" height="0.421921" fill="#312F2E"/>
<rect x="106.212" y="4.43311" width="0.421921" height="0.421921" fill="#312F2E"/>
<rect x="107.054" y="4.43311" width="0.421921" height="0.421921" fill="#312F2E"/>
<rect x="107.896" y="4.43311" width="0.421921" height="0.421921" fill="#312F2E"/>
<rect x="108.738" y="4.43311" width="0.421921" height="0.421921" fill="#312F2E"/>
<rect x="109.58" y="4.43311" width="0.421921" height="0.421921" fill="#312F2E"/>
<rect x="110.421" y="4.43311" width="0.421921" height="0.421921" fill="#312F2E"/>
<rect x="111.263" y="4.43311" width="0.421921" height="0.421921" fill="#312F2E"/>
<rect x="112.105" y="4.43311" width="0.421921" height="0.421921" fill="#312F2E"/>
<rect x="112.947" y="4.43311" width="0.421921" height="0.421921" fill="#312F2E"/>
<rect x="113.789" y="4.43311" width="0.421921" height="0.421921" fill="#312F2E"/>
<rect x="114.631" y="4.43311" width="0.421921" height="0.421921" fill="#312F2E"/>
<rect x="115.473" y="4.43311" width="0.421921" height="0.421921" fill="#312F2E"/>
<rect x="116.315" y="4.43311" width="0.421921" height="0.421921" fill="#312F2E"/>
<rect x="117.157" y="4.43311" width="0.421921" height="0.421921" fill="#312F2E"/>
<rect x="89.374" y="5.2749" width="0.421921" height="0.421921" fill="#312F2E"/>
<rect x="90.2158" y="5.2749" width="0.421921" height="0.421921" fill="#312F2E"/>
<rect x="91.0581" y="5.2749" width="0.421921" height="0.421921" fill="#312F2E"/>
<rect x="91.8999" y="5.2749" width="0.421921" height="0.421921" fill="#312F2E"/>
<rect x="92.7417" y="5.2749" width="0.421921" height="0.421921" fill="#312F2E"/>
<rect x="93.5835" y="5.2749" width="0.421921" height="0.421921" fill="#312F2E"/>
<rect x="94.4258" y="5.2749" width="0.421921" height="0.421921" fill="#312F2E"/>
<rect x="95.2676" y="5.2749" width="0.421921" height="0.421921" fill="#312F2E"/>
<rect x="96.1094" y="5.2749" width="0.421921" height="0.421921" fill="#312F2E"/>
<rect x="96.9512" y="5.2749" width="0.421921" height="0.421921" fill="#312F2E"/>
<rect x="97.793" y="5.2749" width="0.421921" height="0.421921" fill="#312F2E"/>
<rect x="98.6348" y="5.2749" width="0.421921" height="0.421921" fill="#312F2E"/>
<rect x="99.4771" y="5.2749" width="0.421921" height="0.421921" fill="#312F2E"/>
<rect x="100.319" y="5.2749" width="0.421921" height="0.421921" fill="#312F2E"/>
<rect x="101.161" y="5.2749" width="0.421921" height="0.421921" fill="#312F2E"/>
<rect x="102.002" y="5.2749" width="0.421921" height="0.421921" fill="#312F2E"/>
<rect x="102.844" y="5.2749" width="0.421921" height="0.421921" fill="#312F2E"/>
<rect x="103.687" y="5.2749" width="0.421921" height="0.421921" fill="#312F2E"/>
<rect x="104.528" y="5.2749" width="0.421921" height="0.421921" fill="#312F2E"/>
<rect x="105.37" y="5.2749" width="0.421921" height="0.421921" fill="#312F2E"/>
<rect x="106.212" y="5.2749" width="0.421921" height="0.421921" fill="#312F2E"/>
<rect x="107.054" y="5.2749" width="0.421921" height="0.421921" fill="#312F2E"/>
<rect x="107.896" y="5.2749" width="0.421921" height="0.421921" fill="#312F2E"/>
<rect x="108.738" y="5.2749" width="0.421921" height="0.421921" fill="#312F2E"/>
<rect x="109.58" y="5.2749" width="0.421921" height="0.421921" fill="#312F2E"/>
<rect x="110.421" y="5.2749" width="0.421921" height="0.421921" fill="#312F2E"/>
<rect x="111.263" y="5.2749" width="0.421921" height="0.421921" fill="#312F2E"/>
<rect x="112.105" y="5.2749" width="0.421921" height="0.421921" fill="#312F2E"/>
<rect x="112.947" y="5.2749" width="0.421921" height="0.421921" fill="#312F2E"/>
<rect x="113.789" y="5.2749" width="0.421921" height="0.421921" fill="#312F2E"/>
<rect x="114.631" y="5.2749" width="0.421921" height="0.421921" fill="#312F2E"/>
<rect x="115.473" y="5.2749" width="0.421921" height="0.421921" fill="#312F2E"/>
<rect x="116.315" y="5.2749" width="0.421921" height="0.421921" fill="#312F2E"/>
<rect x="117.157" y="5.2749" width="0.421921" height="0.421921" fill="#312F2E"/>
</g>
</g>
<rect x="0.210473" y="0.210473" width="207.579" height="431.579" rx="31.7895" stroke="#1C1C1E" stroke-width="0.420947"/>
<defs>
<filter id="filter0_f_203_4427" x="0.464307" y="0.470899" width="207.072" height="431.058" filterUnits="userSpaceOnUse" color-interpolation-filters="sRGB">
<feFlood flood-opacity="0" result="BackgroundImageFix"/>
<feBlend mode="normal" in="SourceGraphic" in2="BackgroundImageFix" result="shape"/>
<feGaussianBlur stdDeviation="0.210473" result="effect1_foregroundBlur_203_4427"/>
</filter>
<linearGradient id="paint0_linear_203_4427" x1="0" y1="0" x2="210.488" y2="430.784" gradientUnits="userSpaceOnUse">
<stop stop-color="#95928F"/>
<stop offset="1" stop-color="#6B6B67"/>
</linearGradient>
<clipPath id="clip0_203_4427">
<rect width="208" height="432" rx="32" fill="white"/>
</clipPath>
<clipPath id="clip1_203_4427">
<rect x="88.9531" y="4.01221" width="30.0936" height="2.2291" rx="1.11455" fill="white"/>
</clipPath>
</defs>
</svg>
