<svg width="711" height="1448" viewBox="0 0 711 1448" fill="none" xmlns="http://www.w3.org/2000/svg">
<g clip-path="url(#clip0_13519_463759)">
<path fill-rule="evenodd" clip-rule="evenodd" d="M122.4 3.8623H588.6C654.069 3.8623 707.143 57.0029 707.143 122.555V1325.45C707.143 1391 654.069 1444.14 588.6 1444.14H122.4C56.9306 1444.14 3.85718 1391 3.85718 1325.45V122.555C3.85718 57.0029 56.9306 3.8623 122.4 3.8623ZM126 40C77.9512 40 39 78.9512 39 127V1323C39 1371.05 77.9512 1410 126 1410H584C632.049 1410 671 1371.05 671 1323V127C671 78.9512 632.049 40 584 40H126Z" fill="black"/>
<path d="M588.343 7.72404C651.857 7.72404 703.029 59.2176 703.029 122.555V1325.45C703.029 1389.04 651.6 1440.28 588.343 1440.28H122.4C58.8857 1440.28 7.71429 1388.78 7.71429 1325.45V122.555C7.71429 59.2176 59.1429 7.72404 122.4 7.72404H588.343ZM588.343 0H122.4C55.0286 0 0 55.0982 0 122.555V1325.45C0 1393.16 55.0286 1448 122.4 1448H588.343C655.971 1448 710.743 1392.9 710.743 1325.45V122.555C710.743 54.8407 655.714 0 588.343 0V0Z" fill="#DADADA"/>
<path fill-rule="evenodd" clip-rule="evenodd" d="M122.4 11.3282C61.049 11.3282 11.3143 61.1259 11.3143 122.554V1325.44C11.3143 1386.87 61.049 1436.67 122.4 1436.67H588.6C649.951 1436.67 699.686 1386.87 699.686 1325.44V122.554C699.686 61.1259 649.951 11.3282 588.6 11.3282H122.4ZM4.11426 122.554C4.11426 57.1444 57.0726 4.11914 122.4 4.11914H588.6C653.927 4.11914 706.886 57.1444 706.886 122.554V1325.44C706.886 1390.85 653.927 1443.88 588.6 1443.88H122.4C57.0726 1443.88 4.11426 1390.85 4.11426 1325.44V122.554Z" fill="white"/>
</g>
<defs>
<clipPath id="clip0_13519_463759">
<rect width="711" height="1448" fill="white"/>
</clipPath>
</defs>
</svg>
