<svg width="20" height="20" viewBox="0 0 20 20" fill="none" xmlns="http://www.w3.org/2000/svg">
<path fill-rule="evenodd" clip-rule="evenodd" d="M3.33341 6.33398C2.68908 6.33398 2.16675 6.85632 2.16675 7.50065V15.834C2.16675 16.4783 2.68908 17.0007 3.33341 17.0007H16.6667C17.3111 17.0007 17.8334 16.4783 17.8334 15.834V7.50065C17.8334 6.85632 17.3111 6.33398 16.6667 6.33398H3.33341ZM1.16675 7.50065C1.16675 6.30403 2.1368 5.33398 3.33341 5.33398H16.6667C17.8634 5.33398 18.8334 6.30403 18.8334 7.50065V15.834C18.8334 17.0306 17.8634 18.0007 16.6667 18.0007H3.33341C2.1368 18.0007 1.16675 17.0306 1.16675 15.834V7.50065Z" />
<path fill-rule="evenodd" clip-rule="evenodd" d="M6.80135 2.6346C7.20768 2.22827 7.75878 2 8.33341 2H11.6667C12.2414 2 12.7925 2.22827 13.1988 2.6346C13.6051 3.04093 13.8334 3.59203 13.8334 4.16667V5.83333C13.8334 6.10948 13.6096 6.33333 13.3334 6.33333C13.0573 6.33333 12.8334 6.10948 12.8334 5.83333V4.16667C12.8334 3.85725 12.7105 3.5605 12.4917 3.34171C12.2729 3.12292 11.9762 3 11.6667 3H8.33341C8.024 3 7.72725 3.12292 7.50846 3.34171C7.28966 3.5605 7.16675 3.85725 7.16675 4.16667V5.83333C7.16675 6.10948 6.94289 6.33333 6.66675 6.33333C6.39061 6.33333 6.16675 6.10948 6.16675 5.83333V4.16667C6.16675 3.59203 6.39502 3.04093 6.80135 2.6346Z" />
</svg>
