<svg width="16" height="16" viewBox="0 0 16 16" fill="none" xmlns="http://www.w3.org/2000/svg">
<path fill-rule="evenodd" clip-rule="evenodd" d="M1.125 1.625C1.09185 1.625 1.06005 1.63817 1.03661 1.66161C1.01317 1.68505 1 1.71685 1 1.75V10.7028L3.27807 8.86117C3.36705 8.78924 3.478 8.75 3.59241 8.75H11.125C11.1582 8.75 11.1899 8.73683 11.2134 8.71339C11.2368 8.68995 11.25 8.65815 11.25 8.625V1.75C11.25 1.71685 11.2368 1.68505 11.2134 1.66161C11.1899 1.63817 11.1582 1.625 11.125 1.625H1.125ZM0.329505 0.954505C0.540483 0.743527 0.826631 0.625 1.125 0.625H11.125C11.4234 0.625 11.7095 0.743526 11.9205 0.954505C12.1315 1.16548 12.25 1.45163 12.25 1.75V8.625C12.25 8.92337 12.1315 9.20952 11.9205 9.4205C11.7095 9.63148 11.4234 9.75 11.125 9.75H3.76924L0.814342 12.1388C0.664514 12.26 0.458422 12.2842 0.28456 12.2012C0.110697 12.1182 0 11.9427 0 11.75V1.75C0 1.45163 0.118527 1.16548 0.329505 0.954505Z" />
<path fill-rule="evenodd" clip-rule="evenodd" d="M11.25 4.875C11.25 4.59886 11.4739 4.375 11.75 4.375H14.875C15.1734 4.375 15.4595 4.49353 15.6705 4.7045C15.8815 4.91548 16 5.20163 16 5.5V15.5C16 15.6927 15.8893 15.8682 15.7154 15.9512C15.5416 16.0342 15.3355 16.01 15.1857 15.8888L12.2308 13.5H4.875C4.57663 13.5 4.29048 13.3815 4.0795 13.1705C3.86853 12.9595 3.75 12.6734 3.75 12.375V9.25C3.75 8.97386 3.97386 8.75 4.25 8.75C4.52614 8.75 4.75 8.97386 4.75 9.25V12.375C4.75 12.4082 4.76317 12.4399 4.78661 12.4634C4.81005 12.4868 4.84185 12.5 4.875 12.5H12.4076C12.522 12.5 12.633 12.5392 12.7219 12.6112L15 14.4528V5.5C15 5.46685 14.9868 5.43505 14.9634 5.41161C14.9399 5.38817 14.9082 5.375 14.875 5.375H11.75C11.4739 5.375 11.25 5.15114 11.25 4.875Z" />
</svg>
