<svg width="20" height="16" viewBox="0 0 20 16" fill="none" xmlns="http://www.w3.org/2000/svg">
<path fill-rule="evenodd" clip-rule="evenodd" d="M5.38411 4.55492C5.56089 4.76706 5.53223 5.08234 5.32009 5.25912L2.03102 8.00001L5.32009 10.7409C5.53223 10.9177 5.56089 11.233 5.38411 11.4451C5.20733 11.6572 4.89205 11.6859 4.67991 11.5091L0.929908 8.38412C0.815912 8.28913 0.75 8.1484 0.75 8.00001C0.75 7.85162 0.815912 7.7109 0.929908 7.6159L4.67991 4.4909C4.89205 4.31412 5.20733 4.34278 5.38411 4.55492Z" />
<path fill-rule="evenodd" clip-rule="evenodd" d="M14.6159 4.55492C14.7927 4.34278 15.108 4.31412 15.3201 4.4909L19.0701 7.6159C19.1841 7.7109 19.25 7.85162 19.25 8.00001C19.25 8.1484 19.1841 8.28913 19.0701 8.38412L15.3201 11.5091C15.108 11.6859 14.7927 11.6572 14.6159 11.4451C14.4391 11.233 14.4678 10.9177 14.6799 10.7409L17.969 8.00001L14.6799 5.25912C14.4678 5.08234 14.4391 4.76706 14.6159 4.55492Z" />
<path fill-rule="evenodd" clip-rule="evenodd" d="M12.6708 0.655239C12.9303 0.749609 13.0642 1.03649 12.9698 1.29601L7.96979 15.046C7.87542 15.3055 7.58854 15.4394 7.32902 15.345C7.0695 15.2507 6.93563 14.9638 7.03 14.7043L12.03 0.954265C12.1244 0.694748 12.4112 0.56087 12.6708 0.655239Z" />
</svg>
