<svg width="20" height="20" viewBox="0 0 20 20" fill="none" xmlns="http://www.w3.org/2000/svg">
<path fill-rule="evenodd" clip-rule="evenodd" d="M3.48329 2.16602C2.75612 2.16602 2.16663 2.75551 2.16663 3.48268V16.516C2.16663 17.2432 2.75612 17.8327 3.48329 17.8327H16.5166C17.2438 17.8327 17.8333 17.2432 17.8333 16.516V3.48268C17.8333 2.75551 17.2438 2.16602 16.5166 2.16602H3.48329ZM1.16663 3.48268C1.16663 2.20322 2.20383 1.16602 3.48329 1.16602H16.5166C17.7961 1.16602 18.8333 2.20322 18.8333 3.48268V16.516C18.8333 17.7955 17.7961 18.8327 16.5166 18.8327H3.48329C2.20383 18.8327 1.16663 17.7955 1.16663 16.516V3.48268Z" />
<path fill-rule="evenodd" clip-rule="evenodd" d="M5.83337 1.16602C6.10952 1.16602 6.33337 1.38987 6.33337 1.66602V18.3327C6.33337 18.6088 6.10952 18.8327 5.83337 18.8327C5.55723 18.8327 5.33337 18.6088 5.33337 18.3327V1.66602C5.33337 1.38987 5.55723 1.16602 5.83337 1.16602Z" />
<path fill-rule="evenodd" clip-rule="evenodd" d="M14.1666 1.16602C14.4428 1.16602 14.6666 1.38987 14.6666 1.66602V18.3327C14.6666 18.6088 14.4428 18.8327 14.1666 18.8327C13.8905 18.8327 13.6666 18.6088 13.6666 18.3327V1.66602C13.6666 1.38987 13.8905 1.16602 14.1666 1.16602Z" />
<path fill-rule="evenodd" clip-rule="evenodd" d="M1.16663 10C1.16663 9.72386 1.39048 9.5 1.66663 9.5H18.3333C18.6094 9.5 18.8333 9.72386 18.8333 10C18.8333 10.2761 18.6094 10.5 18.3333 10.5H1.66663C1.39048 10.5 1.16663 10.2761 1.16663 10Z" />
<path fill-rule="evenodd" clip-rule="evenodd" d="M1.16663 5.83398C1.16663 5.55784 1.39048 5.33398 1.66663 5.33398H5.83329C6.10944 5.33398 6.33329 5.55784 6.33329 5.83398C6.33329 6.11013 6.10944 6.33398 5.83329 6.33398H1.66663C1.39048 6.33398 1.16663 6.11013 1.16663 5.83398Z" />
<path fill-rule="evenodd" clip-rule="evenodd" d="M1.16663 14.166C1.16663 13.8899 1.39048 13.666 1.66663 13.666H5.83329C6.10944 13.666 6.33329 13.8899 6.33329 14.166C6.33329 14.4422 6.10944 14.666 5.83329 14.666H1.66663C1.39048 14.666 1.16663 14.4422 1.16663 14.166Z" />
<path fill-rule="evenodd" clip-rule="evenodd" d="M13.6666 14.166C13.6666 13.8899 13.8905 13.666 14.1666 13.666H18.3333C18.6094 13.666 18.8333 13.8899 18.8333 14.166C18.8333 14.4422 18.6094 14.666 18.3333 14.666H14.1666C13.8905 14.666 13.6666 14.4422 13.6666 14.166Z" />
<path fill-rule="evenodd" clip-rule="evenodd" d="M13.6666 5.83398C13.6666 5.55784 13.8905 5.33398 14.1666 5.33398H18.3333C18.6094 5.33398 18.8333 5.55784 18.8333 5.83398C18.8333 6.11013 18.6094 6.33398 18.3333 6.33398H14.1666C13.8905 6.33398 13.6666 6.11013 13.6666 5.83398Z" />
</svg>
