<svg width="16" height="16" viewBox="0 0 16 16" fill="none" xmlns="http://www.w3.org/2000/svg">
<path fill-rule="evenodd" clip-rule="evenodd" d="M8 11C7.06802 11 6.3125 11.7555 6.3125 12.6875C6.3125 13.6195 7.06802 14.375 8 14.375C8.93198 14.375 9.6875 13.6195 9.6875 12.6875C9.6875 11.7555 8.93198 11 8 11ZM5.3125 12.6875C5.3125 11.2032 6.51573 10 8 10C9.48427 10 10.6875 11.2032 10.6875 12.6875C10.6875 14.1718 9.48427 15.375 8 15.375C6.51573 15.375 5.3125 14.1718 5.3125 12.6875Z" />
<path fill-rule="evenodd" clip-rule="evenodd" d="M12.6875 1.625C11.7555 1.625 11 2.38052 11 3.3125C11 4.24448 11.7555 5 12.6875 5C13.6195 5 14.375 4.24448 14.375 3.3125C14.375 2.38052 13.6195 1.625 12.6875 1.625ZM10 3.3125C10 1.82823 11.2032 0.625 12.6875 0.625C14.1718 0.625 15.375 1.82823 15.375 3.3125C15.375 4.79677 14.1718 6 12.6875 6C11.2032 6 10 4.79677 10 3.3125Z" />
<path fill-rule="evenodd" clip-rule="evenodd" d="M3.3125 1.625C2.38052 1.625 1.625 2.38052 1.625 3.3125C1.625 4.24448 2.38052 5 3.3125 5C4.24448 5 5 4.24448 5 3.3125C5 2.38052 4.24448 1.625 3.3125 1.625ZM0.625 3.3125C0.625 1.82823 1.82823 0.625 3.3125 0.625C4.79677 0.625 6 1.82823 6 3.3125C6 4.79677 4.79677 6 3.3125 6C1.82823 6 0.625 4.79677 0.625 3.3125Z" />
<path fill-rule="evenodd" clip-rule="evenodd" d="M3.3125 5C3.58864 5 3.8125 5.22386 3.8125 5.5V6.12516C3.8125 6.30573 3.84807 6.48453 3.91717 6.65135C3.98627 6.81818 4.08755 6.96976 4.21524 7.09744C4.34292 7.22512 4.4945 7.3264 4.66133 7.3955C4.82816 7.4646 5.00696 7.50016 5.18753 7.50016L10.8125 7.50004C11.1772 7.50003 11.5269 7.35517 11.7848 7.0973C12.0426 6.83944 12.1875 6.48971 12.1875 6.12504V5.5C12.1875 5.22386 12.4114 5 12.6875 5C12.9636 5 13.1875 5.22386 13.1875 5.5V6.12504C13.1875 6.75492 12.9373 7.35901 12.4919 7.8044C12.0465 8.2498 11.4424 8.50003 10.8125 8.50004L5.18755 8.50016C4.87565 8.50016 4.56681 8.43874 4.27866 8.31938C3.99051 8.20003 3.72868 8.02509 3.50814 7.80455C3.28759 7.58401 3.11265 7.32219 2.99329 7.03404C2.87393 6.74589 2.8125 6.43705 2.8125 6.12516V5.5C2.8125 5.22386 3.03636 5 3.3125 5Z" />
<path fill-rule="evenodd" clip-rule="evenodd" d="M8.00027 7.5C8.27642 7.50003 8.50025 7.7239 8.50023 8.00005L8.5 10.5C8.49997 10.7762 8.2761 11 7.99995 11C7.72381 11 7.49997 10.7761 7.5 10.5L7.50023 7.99995C7.50025 7.72381 7.72413 7.49997 8.00027 7.5Z" />
</svg>
