<svg width="20" height="20" viewBox="0 0 20 20" fill="none" xmlns="http://www.w3.org/2000/svg">
<path fill-rule="evenodd" clip-rule="evenodd" d="M4.16667 3C3.52233 3 3 3.52233 3 4.16667V15.8333C3 16.4777 3.52233 17 4.16667 17H15.8333C16.4777 17 17 16.4777 17 15.8333V4.16667C17 3.52233 16.4777 3 15.8333 3H4.16667ZM2 4.16667C2 2.97005 2.97005 2 4.16667 2H15.8333C17.03 2 18 2.97005 18 4.16667V15.8333C18 17.03 17.03 18 15.8333 18H4.16667C2.97005 18 2 17.03 2 15.8333V4.16667Z" />
<path fill-rule="evenodd" clip-rule="evenodd" d="M7.5 7C7.77614 7 8 7.22386 8 7.5V17.5C8 17.7761 7.77614 18 7.5 18C7.22386 18 7 17.7761 7 17.5V7.5C7 7.22386 7.22386 7 7.5 7Z" />
<path fill-rule="evenodd" clip-rule="evenodd" d="M2 7.5C2 7.22386 2.22386 7 2.5 7H17.5C17.7761 7 18 7.22386 18 7.5C18 7.77614 17.7761 8 17.5 8H2.5C2.22386 8 2 7.77614 2 7.5Z" />
</svg>
