<svg width="16" height="17" viewBox="0 0 16 17" fill="none" xmlns="http://www.w3.org/2000/svg">
<path fill-rule="evenodd" clip-rule="evenodd" d="M13.0625 9.75C12.1305 9.75 11.375 10.5055 11.375 11.4375C11.375 12.3695 12.1305 13.125 13.0625 13.125C13.9945 13.125 14.75 12.3695 14.75 11.4375C14.75 10.5055 13.9945 9.75 13.0625 9.75ZM10.375 11.4375C10.375 9.95323 11.5782 8.75 13.0625 8.75C14.5468 8.75 15.75 9.95323 15.75 11.4375C15.75 12.9218 14.5468 14.125 13.0625 14.125C11.5782 14.125 10.375 12.9218 10.375 11.4375Z" />
<path fill-rule="evenodd" clip-rule="evenodd" d="M3.0625 12.25C2.13052 12.25 1.375 13.0055 1.375 13.9375C1.375 14.8695 2.13052 15.625 3.0625 15.625C3.99448 15.625 4.75 14.8695 4.75 13.9375C4.75 13.0055 3.99448 12.25 3.0625 12.25ZM0.375 13.9375C0.375 12.4532 1.57823 11.25 3.0625 11.25C4.54677 11.25 5.75 12.4532 5.75 13.9375C5.75 15.4218 4.54677 16.625 3.0625 16.625C1.57823 16.625 0.375 15.4218 0.375 13.9375Z" />
<path fill-rule="evenodd" clip-rule="evenodd" d="M15.7351 4.12885C15.802 4.39675 15.6392 4.66822 15.3713 4.73519L5.37126 7.23519C5.10337 7.30216 4.8319 7.13928 4.76492 6.87139C4.69795 6.60349 4.86083 6.33202 5.12873 6.26505L15.1287 3.76505C15.3966 3.69807 15.6681 3.86095 15.7351 4.12885Z" />
<path fill-rule="evenodd" clip-rule="evenodd" d="M15.5577 0.105902C15.6791 0.200655 15.75 0.346037 15.75 0.500005V11.4375C15.75 11.7136 15.5261 11.9375 15.25 11.9375C14.9739 11.9375 14.75 11.7136 14.75 11.4375V1.14039L5.75 3.39039V13.9375C5.75 14.2136 5.52614 14.4375 5.25 14.4375C4.97386 14.4375 4.75 14.2136 4.75 13.9375V3C4.75 2.77057 4.90615 2.57058 5.12873 2.51493L15.1287 0.0149333C15.2781 -0.0224094 15.4363 0.0111482 15.5577 0.105902Z" />
</svg>
