<svg width="16" height="16" viewBox="0 0 16 16" fill="none" xmlns="http://www.w3.org/2000/svg">
<path fill-rule="evenodd" clip-rule="evenodd" d="M11.125 1.25977C11.0918 1.25977 11.0601 1.27294 11.0366 1.29638L1.66161 10.6714C1.65001 10.683 1.6408 10.6968 1.63451 10.7119C1.62823 10.7271 1.625 10.7434 1.625 10.7598V14.2509C1.625 14.284 1.63817 14.3158 1.66161 14.3393C1.68505 14.3627 1.71685 14.3759 1.75 14.3759H5.29289L14.7045 4.96427C14.7279 4.94083 14.7411 4.90904 14.7411 4.87588C14.7411 4.84273 14.7279 4.81094 14.7045 4.78749L11.2134 1.29638C11.1899 1.27294 11.1582 1.25977 11.125 1.25977ZM10.3295 0.58927C10.5405 0.378292 10.8266 0.259766 11.125 0.259766C11.4234 0.259766 11.7095 0.378292 11.9205 0.58927L15.4116 4.08039C15.6226 4.29137 15.7411 4.57751 15.7411 4.87588C15.7411 5.17425 15.6226 5.4604 15.4116 5.67138L5.85355 15.2294C5.75979 15.3232 5.63261 15.3759 5.5 15.3759H1.75C1.45163 15.3759 1.16548 15.2574 0.954505 15.0464C0.743526 14.8354 0.625 14.5493 0.625 14.2509V10.7598C0.625 10.612 0.654099 10.4657 0.710636 10.3292C0.767172 10.1928 0.850039 10.0687 0.954505 9.96427L10.3295 0.58927Z" />
<path fill-rule="evenodd" clip-rule="evenodd" d="M8.27145 2.64645C8.46671 2.45118 8.78329 2.45118 8.97855 2.64645L13.3536 7.02145C13.5488 7.21671 13.5488 7.53329 13.3536 7.72855C13.1583 7.92382 12.8417 7.92382 12.6464 7.72855L8.27145 3.35355C8.07618 3.15829 8.07618 2.84171 8.27145 2.64645Z" />
</svg>
