<svg width="16" height="16" viewBox="0 0 16 16" fill="none" xmlns="http://www.w3.org/2000/svg">
<path fill-rule="evenodd" clip-rule="evenodd" d="M4.05495 10.4924C4.14227 10.7544 4.00069 11.0375 3.73872 11.1249C2.62554 11.4959 2.04223 12.4274 1.73475 13.3498C1.58805 13.7899 1.51116 14.2097 1.4712 14.5277C1.7892 14.4877 2.20897 14.4109 2.64909 14.2641C3.57154 13.9567 4.50297 13.3734 4.87403 12.2602C4.96135 11.9982 5.24451 11.8566 5.50649 11.944C5.76846 12.0313 5.91004 12.3144 5.82271 12.5764C5.30989 14.1149 4.03161 14.8574 2.96532 15.2128C2.42769 15.392 1.92338 15.4807 1.55477 15.525C1.36973 15.5472 1.21697 15.5584 1.10888 15.5641C1.05478 15.5669 1.01174 15.5684 0.981269 15.5691L0.945148 15.5698L0.934491 15.5699L0.931074 15.5699L0.929851 15.5699L0.929362 15.5699C0.929152 15.5699 0.928955 15.5699 0.928955 15.0699C0.428955 15.0699 0.428955 15.0697 0.428955 15.0695L0.428956 15.069L0.428959 15.0678L0.428974 15.0644L0.429072 15.0538L0.429756 15.0176C0.430511 14.9872 0.431978 14.9441 0.434825 14.89C0.440514 14.7819 0.451744 14.6292 0.473949 14.4441C0.518183 14.0755 0.606859 13.5712 0.78607 13.0336C1.1415 11.9673 1.88402 10.689 3.42249 10.1762C3.68446 10.0889 3.96762 10.2304 4.05495 10.4924ZM0.928955 15.0699H0.428955C0.428955 15.3461 0.652813 15.5699 0.928955 15.5699V15.0699Z" />
<path fill-rule="evenodd" clip-rule="evenodd" d="M14.5666 1.32982C13.8223 1.21877 11.9888 1.18199 10.1212 3.04961L5.17146 7.99936L7.99989 10.8278L12.9496 5.87804C14.8173 4.01042 14.7805 2.17696 14.6694 1.43269L14.6694 1.43262C14.6656 1.40674 14.6535 1.38278 14.635 1.36426C14.6165 1.34576 14.5925 1.33368 14.5666 1.32982L14.5666 1.32982ZM14.7141 0.340754C13.7455 0.196254 11.5627 0.193901 9.4141 2.34251L4.1108 7.64581C4.01703 7.73958 3.96436 7.86675 3.96436 7.99936C3.96436 8.13197 4.01703 8.25915 4.1108 8.35291L7.64634 11.8884C7.8416 12.0837 8.15818 12.0837 8.35344 11.8884L13.6567 6.58515C15.8053 4.43654 15.803 2.25377 15.6585 1.28519M14.7141 0.340763C14.9519 0.376227 15.1721 0.487139 15.3421 0.657158C15.5121 0.827174 15.623 1.04731 15.6585 1.28512" />
<path fill-rule="evenodd" clip-rule="evenodd" d="M12.4195 6.61523C12.6957 6.61523 12.9195 6.83909 12.9195 7.11523V12.1597C12.9195 12.3074 12.8904 12.4537 12.8339 12.5902C12.7773 12.7267 12.6945 12.8507 12.59 12.9551L10.0633 15.4818C9.91932 15.6258 9.73896 15.728 9.54145 15.7776C9.34394 15.8271 9.13669 15.8221 8.94181 15.7631C8.74692 15.7041 8.5717 15.5933 8.43484 15.4425C8.29797 15.2917 8.20459 15.1067 8.16466 14.907L7.50981 11.6327C7.45565 11.3619 7.63126 11.0985 7.90204 11.0444C8.17282 10.9902 8.43623 11.1658 8.49039 11.4366L9.14524 14.7109C9.14968 14.7331 9.16005 14.7536 9.17526 14.7704C9.19047 14.7871 9.20994 14.7994 9.23159 14.806C9.25325 14.8125 9.27627 14.8131 9.29822 14.8076C9.32016 14.8021 9.3402 14.7907 9.3562 14.7747L11.8829 12.248C11.8945 12.2364 11.9037 12.2227 11.91 12.2075C11.9163 12.1923 11.9195 12.1761 11.9195 12.1597V7.11523C11.9195 6.83909 12.1434 6.61523 12.4195 6.61523Z" />
<path fill-rule="evenodd" clip-rule="evenodd" d="M3.40893 3.16571C3.54542 3.10918 3.69171 3.08008 3.83945 3.08008H8.88386C9.16 3.08008 9.38386 3.30394 9.38386 3.58008C9.38386 3.85622 9.16 4.08008 8.88386 4.08008H3.83944C3.82303 4.08008 3.80678 4.08331 3.79161 4.08959C3.77644 4.09588 3.76266 4.10508 3.75106 4.11669L1.22436 6.64339C1.20836 6.65939 1.197 6.67943 1.1915 6.70137C1.186 6.72332 1.18655 6.74635 1.19311 6.768C1.19966 6.78966 1.21197 6.80912 1.22873 6.82433C1.24548 6.83954 1.26604 6.84991 1.28823 6.85435L4.5625 7.50921C4.83328 7.56336 5.00889 7.82677 4.95473 8.09755C4.90058 8.36833 4.63717 8.54394 4.36639 8.48979L1.09211 7.83493C0.892444 7.795 0.707356 7.70162 0.556587 7.56476C0.405818 7.42789 0.295023 7.25267 0.236016 7.05779C0.177009 6.8629 0.172002 6.65565 0.22153 6.45814C0.271059 6.26063 0.373265 6.08027 0.517249 5.93628L3.04395 3.40958L3.39453 3.76016L3.04395 3.40958C3.14842 3.30512 3.27244 3.22225 3.40893 3.16571Z" />
</svg>
