<svg width="20" height="20" viewBox="0 0 20 20" fill="none" xmlns="http://www.w3.org/2000/svg">
<path fill-rule="evenodd" clip-rule="evenodd" d="M9.99996 2.16602C5.67373 2.16602 2.16663 5.67312 2.16663 9.99935C2.16663 14.3256 5.67373 17.8327 9.99996 17.8327C14.3262 17.8327 17.8333 14.3256 17.8333 9.99935C17.8333 5.67312 14.3262 2.16602 9.99996 2.16602ZM1.16663 9.99935C1.16663 5.12083 5.12144 1.16602 9.99996 1.16602C14.8785 1.16602 18.8333 5.12083 18.8333 9.99935C18.8333 14.8779 14.8785 18.8327 9.99996 18.8327C5.12144 18.8327 1.16663 14.8779 1.16663 9.99935Z" />
<path fill-rule="evenodd" clip-rule="evenodd" d="M6.36666 11.266C6.58757 11.1004 6.90097 11.1451 7.06666 11.366L6.66666 11.666C7.06666 11.366 7.06654 11.3659 7.06643 11.3658L7.06624 11.3655L7.06594 11.3651L7.06567 11.3647C7.06563 11.3647 7.06589 11.365 7.06644 11.3657L7.07323 11.3744C7.08007 11.3831 7.0915 11.3973 7.10742 11.4162C7.1393 11.4542 7.18895 11.511 7.25551 11.5805C7.38906 11.7199 7.58827 11.9075 7.84616 12.095C8.36386 12.4715 9.09609 12.8327 9.99999 12.8327C10.9039 12.8327 11.6361 12.4715 12.1538 12.095C12.4117 11.9075 12.6109 11.7199 12.7445 11.5805C12.811 11.511 12.8607 11.4542 12.8926 11.4162C12.9085 11.3973 12.9199 11.3831 12.9268 11.3744L12.9335 11.3658C13.0993 11.1451 13.4125 11.1004 13.6333 11.266C13.8542 11.4317 13.899 11.7451 13.7333 11.966L13.3333 11.666C13.7333 11.966 13.7332 11.9662 13.7331 11.9664L13.7328 11.9667L13.7321 11.9676L13.7305 11.9698L13.7258 11.9759L13.7108 11.9951C13.6983 12.0109 13.6809 12.0325 13.6585 12.0591C13.6139 12.1123 13.5496 12.1856 13.4665 12.2724C13.3005 12.4456 13.057 12.6746 12.742 12.9037C12.1139 13.3606 11.1794 13.8327 9.99999 13.8327C8.82056 13.8327 7.88612 13.3606 7.25799 12.9037C6.94296 12.6746 6.69946 12.4456 6.53353 12.2724C6.45035 12.1856 6.38607 12.1123 6.34145 12.0591C6.31912 12.0325 6.30167 12.0109 6.28918 11.9951L6.27417 11.9759L6.26947 11.9698L6.26783 11.9676L6.26718 11.9667L6.2669 11.9664C6.26678 11.9662 6.26666 11.966 6.66666 11.666L6.26666 11.966C6.10097 11.7451 6.14574 11.4317 6.36666 11.266ZM12.9343 11.3647L12.934 11.3651L12.9337 11.3655L12.9335 11.3657C12.934 11.3652 12.9342 11.3648 12.9343 11.3647Z" />
<path fill-rule="evenodd" clip-rule="evenodd" d="M11.5 7.5C11.5 6.94772 11.9477 6.5 12.5 6.5H12.5083C13.0606 6.5 13.5083 6.94772 13.5083 7.5C13.5083 8.05228 13.0606 8.5 12.5083 8.5H12.5C11.9477 8.5 11.5 8.05228 11.5 7.5Z" />
<path fill-rule="evenodd" clip-rule="evenodd" d="M6.5 7.5C6.5 6.94772 6.94772 6.5 7.5 6.5H7.50833C8.06062 6.5 8.50833 6.94772 8.50833 7.5C8.50833 8.05228 8.06062 8.5 7.50833 8.5H7.5C6.94772 8.5 6.5 8.05228 6.5 7.5Z" />
</svg>
