<svg width="20" height="20" viewBox="0 0 20 20" fill="none" xmlns="http://www.w3.org/2000/svg">
<path fill-rule="evenodd" clip-rule="evenodd" d="M19.5201 4.64645C19.7154 4.84171 19.7154 5.15829 19.5201 5.35355L11.6035 13.2702C11.4082 13.4655 11.0916 13.4655 10.8964 13.2702L7.08325 9.45711L1.18681 15.3536C0.991543 15.5488 0.674961 15.5488 0.479699 15.3536C0.284436 15.1583 0.284436 14.8417 0.479699 14.6464L6.7297 8.39645C6.92496 8.20118 7.24154 8.20118 7.43681 8.39645L11.2499 12.2096L18.813 4.64645C19.0083 4.45118 19.3249 4.45118 19.5201 4.64645Z" />
<path fill-rule="evenodd" clip-rule="evenodd" d="M13.6667 5C13.6667 4.72386 13.8906 4.5 14.1667 4.5H19.1667C19.4429 4.5 19.6667 4.72386 19.6667 5V10C19.6667 10.2761 19.4429 10.5 19.1667 10.5C18.8906 10.5 18.6667 10.2761 18.6667 10V5.5H14.1667C13.8906 5.5 13.6667 5.27614 13.6667 5Z" />
</svg>
