<svg width="21" height="20" viewBox="0 0 21 20" fill="none" xmlns="http://www.w3.org/2000/svg">
<path d="M17.1666 5.83325H3.83329C2.91282 5.83325 2.16663 6.57944 2.16663 7.49992V15.8333C2.16663 16.7537 2.91282 17.4999 3.83329 17.4999H17.1666C18.0871 17.4999 18.8333 16.7537 18.8333 15.8333V7.49992C18.8333 6.57944 18.0871 5.83325 17.1666 5.83325Z" stroke="#A0A0A0" stroke-linecap="round" stroke-linejoin="round"/>
<path d="M13.8333 5.83333V4.16667C13.8333 3.72464 13.6577 3.30072 13.3451 2.98816C13.0326 2.67559 12.6087 2.5 12.1666 2.5H8.83329C8.39127 2.5 7.96734 2.67559 7.65478 2.98816C7.34222 3.30072 7.16663 3.72464 7.16663 4.16667V5.83333" stroke="#A0A0A0" stroke-linecap="round" stroke-linejoin="round"/>
</svg>
