<svg width="21" height="20" viewBox="0 0 21 20" fill="none" xmlns="http://www.w3.org/2000/svg">
<path d="M10.5 16.875C11.7081 16.875 12.6875 15.8956 12.6875 14.6875C12.6875 13.4794 11.7081 12.5 10.5 12.5C9.29188 12.5 8.3125 13.4794 8.3125 14.6875C8.3125 15.8956 9.29188 16.875 10.5 16.875Z" stroke="#A0A0A0" stroke-linecap="round" stroke-linejoin="round"/>
<path d="M15.1875 7.49976C16.3956 7.49976 17.375 6.52038 17.375 5.31226C17.375 4.10413 16.3956 3.12476 15.1875 3.12476C13.9794 3.12476 13 4.10413 13 5.31226C13 6.52038 13.9794 7.49976 15.1875 7.49976Z" stroke="#A0A0A0" stroke-linecap="round" stroke-linejoin="round"/>
<path d="M5.8125 7.49976C7.02062 7.49976 8 6.52038 8 5.31226C8 4.10413 7.02062 3.12476 5.8125 3.12476C4.60438 3.12476 3.625 4.10413 3.625 5.31226C3.625 6.52038 4.60438 7.49976 5.8125 7.49976Z" stroke="#A0A0A0" stroke-linecap="round" stroke-linejoin="round"/>
<path d="M5.8125 7.49976V8.12491C5.8125 8.37114 5.861 8.61496 5.95523 8.84245C6.04946 9.06994 6.18757 9.27664 6.36169 9.45075C6.5358 9.62486 6.74251 9.76297 6.97 9.8572C7.19749 9.95142 7.44131 9.99992 7.68754 9.99991L13.3125 9.9998C13.8098 9.99979 14.2867 9.80224 14.6383 9.45061C14.99 9.09898 15.1875 8.62207 15.1875 8.1248V7.49976" stroke="#A0A0A0" stroke-linecap="round" stroke-linejoin="round"/>
<path d="M10.5002 10L10.5 12.5" stroke="#A0A0A0" stroke-linecap="round" stroke-linejoin="round"/>
</svg>
