<svg width="16" height="16" viewBox="0 0 16 16" fill="none" xmlns="http://www.w3.org/2000/svg">
<path d="M5 14.8749H1.25C1.08424 14.8749 0.925269 14.8091 0.808058 14.6918C0.690848 14.5746 0.625 14.4157 0.625 14.2499V10.7588C0.625 10.6767 0.641166 10.5954 0.672575 10.5196C0.703984 10.4438 0.750022 10.3749 0.808059 10.3168L10.1831 0.941847C10.3003 0.824637 10.4592 0.758789 10.625 0.758789C10.7908 0.758789 10.9497 0.824637 11.0669 0.941847L14.5581 4.43296C14.6753 4.55017 14.7411 4.70915 14.7411 4.87491C14.7411 5.04067 14.6753 5.19964 14.5581 5.31685L5 14.8749Z" stroke="#A0A0A0" stroke-linecap="round" stroke-linejoin="round"/>
<path d="M8.125 3L12.5 7.375" stroke="#A0A0A0" stroke-linecap="round" stroke-linejoin="round"/>
</svg>
