<svg width="16" height="16" viewBox="0 0 16 16" fill="none" xmlns="http://www.w3.org/2000/svg">
<path d="M5.34837 12.4182C4.46449 15.0698 0.928955 15.0698 0.928955 15.0698C0.928955 15.0698 0.928955 11.5343 3.58061 10.6504" stroke="white" stroke-linecap="round" stroke-linejoin="round"/>
<path d="M13.3032 6.23183L7.99989 11.5351L4.46436 7.9996L9.76766 2.6963C11.7758 0.688161 13.7839 0.707749 14.6403 0.835527C14.7722 0.855183 14.8943 0.916678 14.9885 1.01095C15.0828 1.10522 15.1443 1.22728 15.164 1.35914C15.2917 2.21556 15.3113 4.22369 13.3032 6.23183Z" stroke="white" stroke-linecap="round" stroke-linejoin="round"/>
<path d="M12.4194 7.11523V12.1597C12.4194 12.2417 12.4033 12.323 12.3718 12.3988C12.3404 12.4747 12.2944 12.5436 12.2364 12.6016L9.70966 15.1283C9.62967 15.2083 9.52947 15.2651 9.41974 15.2926C9.31001 15.3201 9.19487 15.3173 9.0866 15.2845C8.97833 15.2518 8.88099 15.1902 8.80495 15.1064C8.72892 15.0227 8.67704 14.9199 8.65485 14.8089L8 11.5347" stroke="white" stroke-linecap="round" stroke-linejoin="round"/>
<path d="M8.88386 3.58008H3.83944C3.75737 3.58008 3.6761 3.59624 3.60027 3.62765C3.52444 3.65906 3.45554 3.7051 3.3975 3.76314L0.870803 6.28984C0.790811 6.36983 0.73403 6.47003 0.706514 6.57976C0.678999 6.68948 0.68178 6.80462 0.714562 6.91289C0.747344 7.02116 0.808897 7.11851 0.892657 7.19454C0.976417 7.27058 1.07924 7.32246 1.19017 7.34464L4.46444 7.9995" stroke="white" stroke-linecap="round" stroke-linejoin="round"/>
</svg>
