<svg width="14" height="14" viewBox="0 0 14 14" fill="none" xmlns="http://www.w3.org/2000/svg">
<path d="M8.74968 4.37476L4.19378 9.0063C4.02969 9.1704 3.9375 9.39296 3.9375 9.62502C3.9375 9.85709 4.02969 10.0796 4.19378 10.2437C4.35788 10.4078 4.58044 10.5 4.8125 10.5C5.04456 10.5 5.26712 10.4078 5.43122 10.2437L10.8621 4.73719C11.0246 4.57469 11.1535 4.38177 11.2415 4.16945C11.3294 3.95713 11.3747 3.72957 11.3747 3.49976C11.3747 3.26994 11.3294 3.04238 11.2415 2.83006C11.1535 2.61774 11.0246 2.42482 10.8621 2.26232C10.6996 2.09982 10.5067 1.97091 10.2944 1.88297C10.0821 1.79502 9.85449 1.74976 9.62468 1.74976C9.39487 1.74976 9.1673 1.79502 8.95498 1.88297C8.74266 1.97091 8.54975 2.09982 8.38724 2.26232L2.95634 7.76887C2.46406 8.26115 2.1875 8.92883 2.1875 9.62502C2.1875 10.3212 2.46406 10.9889 2.95634 11.4812C3.44863 11.9735 4.11631 12.25 4.8125 12.25C5.50869 12.25 6.17637 11.9735 6.66866 11.4812L11.1559 6.99976"  stroke-linecap="round" stroke-linejoin="round"/>
</svg>
