<svg width="14" height="14" viewBox="0 0 14 14" fill="none" xmlns="http://www.w3.org/2000/svg">
<path d="M6.64654 3.46445L7.88398 2.22702C8.1393 1.97146 8.44246 1.76871 8.77616 1.63035C9.10986 1.492 9.46754 1.42074 9.82879 1.42065C10.19 1.42057 10.5478 1.49166 10.8815 1.62986C11.2153 1.76807 11.5185 1.97067 11.774 2.22611C12.0294 2.48155 12.232 2.78481 12.3702 3.11857C12.5084 3.45233 12.5795 3.81005 12.5794 4.17129C12.5793 4.53254 12.5081 4.89022 12.3697 5.22392C12.2314 5.55762 12.0286 5.86078 11.7731 6.1161L10.0053 7.88387C9.74994 8.13923 9.44678 8.3418 9.11313 8.48C8.77949 8.6182 8.42189 8.68933 8.06075 8.68933C7.69962 8.68933 7.34202 8.6182 7.00837 8.48C6.67473 8.3418 6.37157 8.13923 6.11621 7.88387" stroke="#101010" stroke-linecap="round" stroke-linejoin="round"/>
<path d="M7.35354 10.5354L6.1161 11.7729C5.86079 12.0284 5.55762 12.2312 5.22392 12.3695C4.89022 12.5079 4.53254 12.5791 4.17129 12.5792C3.81005 12.5793 3.45233 12.5082 3.11857 12.37C2.78481 12.2318 2.48155 12.0292 2.22611 11.7738C1.97067 11.5183 1.76807 11.2151 1.62986 10.8813C1.49166 10.5475 1.42057 10.1898 1.42065 9.82858C1.42074 9.46734 1.492 9.10965 1.63035 8.77595C1.76871 8.44226 1.97146 8.13909 2.22702 7.88377L3.99478 6.116C4.25014 5.86064 4.5533 5.65808 4.88695 5.51988C5.22059 5.38168 5.57819 5.31055 5.93933 5.31055C6.30046 5.31055 6.65806 5.38168 6.99171 5.51988C7.32535 5.65808 7.62851 5.86064 7.88387 6.116" stroke="#101010" stroke-linecap="round" stroke-linejoin="round"/>
</svg>
