<svg width="14" height="14" viewBox="0 0 14 14" fill="none" xmlns="http://www.w3.org/2000/svg">
<path d="M6 4V11.7324C6 11.8147 5.97968 11.8958 5.94084 11.9683C5.902 12.0409 5.84584 12.1028 5.77735 12.1484L5.09034 12.6064C5.02367 12.6509 4.9473 12.6787 4.86766 12.6874C4.78801 12.6962 4.70743 12.6857 4.63269 12.6568C4.55796 12.6279 4.49126 12.5815 4.43822 12.5214C4.38518 12.4613 4.34735 12.3894 4.32792 12.3117L3.5 9" stroke="#101010" stroke-linecap="round" stroke-linejoin="round"/>
<path d="M3.5 9.00003C2.83696 9.00003 2.20107 8.73664 1.73223 8.2678C1.26339 7.79896 1 7.16307 1 6.50003C1 5.83699 1.26339 5.2011 1.73223 4.73226C2.20107 4.26342 2.83696 4.00003 3.5 4.00003H6C6 4.00003 9.40323 4.00003 12.6782 1.2533C12.751 1.192 12.8399 1.15277 12.9342 1.14022C13.0286 1.12768 13.1246 1.14234 13.2109 1.18249C13.2972 1.22263 13.3703 1.28659 13.4215 1.36685C13.4727 1.4471 13.5 1.5403 13.5 1.63551V11.3646C13.5 11.4598 13.4727 11.553 13.4215 11.6332C13.3703 11.7135 13.2972 11.7774 13.2109 11.8176C13.1246 11.8577 13.0286 11.8724 12.9342 11.8598C12.8399 11.8473 12.751 11.8081 12.6782 11.7468C9.40323 9.00003 6 9.00003 6 9.00003H3.5Z" stroke="#101010" stroke-linecap="round" stroke-linejoin="round"/>
</svg>
