<svg width="48" height="49" viewBox="0 0 48 49" fill="none" xmlns="http://www.w3.org/2000/svg">
<rect y="0.0292969" width="48" height="48" rx="8" fill="#35394C"/>
<path d="M37.8751 15.7671C36.4394 13.3108 34.3885 11.3856 31.9958 10.0579C29.6714 8.73024 26.9368 8 23.9972 8C21.0575 8 18.3913 8.73024 15.9986 10.0579C13.6742 11.3856 11.6233 13.3108 10.1193 15.7671C8.68364 18.2233 8 20.8787 8 23.5341C8 26.1896 8.68364 28.845 10.1193 31.3012C11.5549 33.7575 13.6059 35.6826 15.9986 37.0104C18.323 38.3381 21.0575 39.0683 23.9972 39.0683C26.9368 39.0683 29.603 38.3381 31.9958 37.0104C34.3202 35.6826 36.3711 33.7575 37.8751 31.3012C39.3107 28.845 39.9944 26.1896 39.9944 23.5341C40.0627 20.8787 39.3791 18.1569 37.8751 15.7671ZM31.3121 11.3193C32.7478 12.1159 34.0467 13.178 35.1405 14.4394C34.3201 13.9747 33.4998 13.7755 32.6111 13.4436C31.859 13.178 31.107 12.9125 30.5601 12.5806C29.9449 12.2487 29.3979 11.784 28.7827 11.2529C28.099 10.6554 27.5521 10.0579 26.6634 9.65963C28.3041 9.99156 29.8765 10.5226 31.3121 11.3193ZM16.819 11.3193C18.2546 10.5226 19.827 9.92517 21.4677 9.65963C20.6473 10.1243 20.1004 10.7218 19.3484 11.2529C18.7332 11.784 18.1179 12.2487 17.571 12.5806C16.9557 12.9125 16.272 13.178 15.52 13.4436C14.6313 13.7755 13.8793 13.9083 12.9906 14.373C14.0844 13.178 15.3833 12.1159 16.819 11.3193ZM11.1447 23.5341C11.1447 24.198 11.008 24.9282 10.8713 25.7249C10.7346 26.5879 10.4611 27.3845 10.4611 28.3139C9.91419 26.787 9.57237 25.1938 9.64074 23.5341C9.64074 21.9409 9.91419 20.2813 10.4611 18.7544C10.4611 19.6838 10.6662 20.414 10.8713 21.3434C11.008 22.0737 11.1447 22.8039 11.1447 23.5341C11.1447 23.5341 11.1447 23.4678 11.1447 23.5341ZM16.819 35.6826C15.3833 34.886 14.0844 33.8239 12.9906 32.5625C13.8109 33.0272 14.6313 33.2264 15.52 33.5583C16.272 33.8239 17.0241 34.0894 17.571 34.4213C18.1862 34.7533 18.7332 35.218 19.3484 35.749C20.0321 36.3465 20.579 36.944 21.4677 37.3423C19.827 37.0104 18.2546 36.4793 16.819 35.6826ZM31.3121 35.6826C29.8765 36.4793 28.3041 37.0767 26.6634 37.3423C27.4837 36.8776 28.0307 36.2801 28.7827 35.749C29.3979 35.218 30.0132 34.7533 30.5601 34.4213C31.1754 34.0894 31.859 33.8239 32.6111 33.5583C33.4998 33.2264 34.2518 33.0936 35.1405 32.6289C34.0467 33.8239 32.7478 34.8196 31.3121 35.6826ZM36.3027 30.3718C35.1405 32.297 32.1325 32.6289 30.1499 33.7575C28.2358 34.8196 26.4583 37.2759 24.0655 37.2759C21.6728 37.2759 19.8953 34.886 17.9811 33.7575C15.9986 32.6289 12.9906 32.297 11.8284 30.3718C10.7346 28.513 11.8968 25.8576 11.8968 23.4678C11.8968 21.1443 10.6662 18.4889 11.8284 16.5637C12.9906 14.6385 15.9986 14.3066 17.9811 13.178C19.8953 12.1159 21.6728 9.65963 24.0655 9.65963C26.4583 9.65963 28.2358 12.0495 30.1499 13.178C32.1325 14.3066 35.1405 14.6385 36.3027 16.5637C37.3965 18.4225 36.2343 21.0779 36.2343 23.4678C36.2343 25.8576 37.4649 28.513 36.3027 30.3718ZM37.2598 25.6585C37.1231 24.8619 36.9863 24.1316 36.9863 23.4678C36.9863 22.8039 37.1231 22.0737 37.2598 21.277C37.3965 20.414 37.67 19.6174 37.67 18.688C38.2169 20.2149 38.5587 21.8081 38.4904 23.4678C38.4904 25.061 38.2169 26.7206 37.67 28.2475C37.67 27.3181 37.4649 26.5879 37.2598 25.6585Z" fill="white"/>
<path d="M31.2432 26.9192C30.9697 27.4503 30.6279 27.9814 30.1494 28.3797C29.6708 28.778 29.1239 29.1099 28.5086 29.3091C27.8934 29.5082 27.073 29.5746 26.4577 29.5746C24.9537 29.5746 23.3813 29.1763 22.2875 27.8486C21.1937 26.5209 18.7326 23.6663 18.7326 23.6663V27.7822C18.7326 27.9814 18.7326 28.1805 18.8009 28.3133C18.8009 28.4461 18.8693 28.5788 19.006 28.6452C19.0744 28.7116 19.2795 28.778 19.4846 28.778C19.6897 28.778 20.0315 28.8444 20.3049 28.8444V29.3754C19.9631 29.3754 16.75 29.3754 16.4766 29.3754V28.8444C16.8184 28.8444 17.0235 28.778 17.2286 28.7116C17.4337 28.6452 17.5704 28.5788 17.7071 28.4461C17.8438 28.3133 17.9122 28.1805 17.9122 27.9814C17.9806 27.7822 17.9806 27.5167 17.9806 27.1184V23.5335C17.9806 23.2016 17.9806 22.8697 17.9122 22.6705C17.8438 22.4714 17.8438 22.2722 17.7071 22.1395C17.3653 21.7411 16.6133 21.8075 16.4766 21.8075V21.2764C16.75 21.2764 17.7755 21.2764 18.1857 21.2764C18.8693 21.2764 19.1428 21.8075 19.8264 22.6042C19.8264 22.6042 23.2446 26.6537 23.9966 27.583C24.7486 28.4461 25.8424 28.9771 26.9363 28.9771C27.4148 28.9771 27.8934 28.9108 28.2352 28.7116C28.577 28.5124 28.9188 28.2469 29.1239 27.915C29.329 27.583 29.5341 27.2511 29.6708 26.8528C29.8075 26.4545 29.8759 26.0562 29.8759 25.5915C29.8759 25.1268 29.8075 24.7285 29.6708 24.3302C29.5341 23.9319 29.329 23.5999 29.0555 23.268C28.7821 22.9361 28.4403 22.7369 28.0984 22.5378C27.6883 22.3386 27.2781 22.2722 26.7995 22.2722C26.5261 22.2722 26.1843 22.2722 25.9108 22.3386C24.817 22.6705 24.2017 23.3344 23.6548 23.9319C23.5864 23.8655 23.5181 23.7327 23.3813 23.6663V17.758C23.3813 17.4925 23.3813 17.2933 23.313 17.0942C23.313 16.9614 23.2446 16.8286 23.1079 16.6959C22.9711 16.6295 22.8344 16.5631 22.6293 16.4967C22.4242 16.4303 22.1508 16.4303 21.809 16.3639V15.9656C22.014 15.8992 22.2875 15.8992 22.561 15.8329C22.8344 15.7665 23.1079 15.7001 23.4497 15.6337C23.7231 15.5673 24.4068 15.3018 24.7486 15.169L24.8853 15.3018C24.8853 15.5673 24.8853 22.0067 24.8853 22.0067C25.3639 21.6748 25.8424 21.4756 26.321 21.3428C26.7995 21.2101 27.2781 21.1437 27.7566 21.1437C28.3719 21.1437 28.9188 21.2764 29.3974 21.4756C29.8759 21.6748 30.2861 22.0067 30.6279 22.3386C30.9697 22.7369 31.2432 23.1352 31.4483 23.5999C31.6534 24.0646 31.7217 24.5957 31.7217 25.1268C31.6534 25.7243 31.5166 26.3217 31.2432 26.9192Z" fill="white"/>
</svg>
