<svg width="48" height="48" viewBox="0 0 48 48" fill="none" xmlns="http://www.w3.org/2000/svg">
<rect width="48" height="48" rx="8" fill="#E2764D"/>
<path d="M18 34V15H25.28C26.5867 15 27.7406 15.2295 28.7418 15.6886C29.76 16.1477 30.5576 16.8277 31.1345 17.7289C31.7115 18.63 32 19.7436 32 21.0698C32 22.362 31.703 23.4586 31.1091 24.3597C30.5321 25.2609 29.7345 25.9494 28.7164 26.4255C27.7152 26.8846 26.5697 27.1141 25.28 27.1141H21.9455V34H18ZM21.9455 23.6711H25.3055C25.8655 23.6711 26.3491 23.5606 26.7564 23.3396C27.1636 23.1186 27.4776 22.8125 27.6982 22.4215C27.9358 22.0304 28.0545 21.5799 28.0545 21.0698C28.0545 20.5427 27.9358 20.0837 27.6982 19.6926C27.4776 19.3016 27.1636 18.9955 26.7564 18.7745C26.3491 18.5535 25.8655 18.443 25.3055 18.443H21.9455V23.6711Z" fill="white"/>
</svg>
