<svg width="48" height="48" viewBox="0 0 48 48" fill="none" xmlns="http://www.w3.org/2000/svg">
<rect width="48" height="48" rx="8" fill="#240C7E"/>
<path d="M34.1159 16.1288C34.3211 16.3311 34.4418 16.6023 34.4542 16.8885C34.4664 17.1747 34.3693 17.455 34.1821 17.6738C34.1517 17.7102 34.1192 17.7467 34.0878 17.7809C33.9047 17.9887 33.7464 18.1676 33.7464 18.3423C33.7464 18.5759 34.0336 18.7505 34.4151 18.7505H37.6566C37.7518 18.7508 37.8431 18.7884 37.9104 18.8551C37.9776 18.9218 38.0153 19.012 38.0153 19.1062V22.3107C38.0153 22.6643 38.1725 22.9353 38.386 22.9675C38.4005 22.9686 38.415 22.9686 38.4293 22.9675C38.5005 22.965 38.5698 22.9447 38.631 22.9086C38.7623 22.8287 38.8851 22.7358 38.9973 22.631C39.033 22.6 39.0698 22.5678 39.1056 22.5378C39.1414 22.5078 39.1565 22.4972 39.1825 22.4778L39.1988 22.4682C39.2205 22.4532 39.2433 22.4393 39.266 22.4254L39.2844 22.4157C39.3068 22.4028 39.3295 22.391 39.3527 22.3804L39.3711 22.3718L39.4275 22.3482C39.7104 22.2631 40.0129 22.2653 40.2945 22.3546L40.3086 22.3611C40.3346 22.3718 40.3606 22.3836 40.3855 22.3964L40.4148 22.4125L40.4809 22.4521L40.5014 22.465C40.562 22.5059 40.6185 22.5522 40.6706 22.6032C40.6976 22.6299 40.7226 22.6578 40.7475 22.6867C40.7937 22.7424 40.8343 22.8023 40.8689 22.8656L40.8797 22.886C40.8916 22.9096 40.9025 22.9321 40.9133 22.9567C40.9242 22.9814 40.9209 22.9739 40.9252 22.9835C40.9377 23.0137 40.9486 23.0444 40.9577 23.0757V23.0939C40.9653 23.1196 40.9718 23.1464 40.9772 23.1721C40.9827 23.1978 40.9827 23.1957 40.9848 23.2075L40.9946 23.2761V23.3092C40.9946 23.3435 41 23.3767 41 23.4163C41.0002 23.6342 40.9373 23.8475 40.8189 24.0311C40.7005 24.2148 40.5314 24.3611 40.3315 24.4529C40.1317 24.5447 39.9096 24.5781 39.6912 24.5491C39.4728 24.5202 39.2673 24.4301 39.0991 24.2896L38.9907 24.1974C38.9387 24.1513 38.8878 24.1085 38.8379 24.0677C38.6905 23.9477 38.5551 23.8599 38.4229 23.8599C38.3805 23.8606 38.3388 23.8697 38.3 23.8866C38.2613 23.9035 38.2264 23.928 38.1974 23.9585C38.065 24.1153 37.9977 24.3159 38.0089 24.5199V27.7244C38.0066 27.8178 37.9682 27.907 37.9014 27.9732C37.8346 28.0393 37.7446 28.0777 37.6501 28.0801H34.4151C34.209 28.0689 34.0061 28.1351 33.8472 28.2655C33.816 28.2939 33.791 28.3284 33.7737 28.3666C33.7563 28.4049 33.7471 28.4464 33.7464 28.4883C33.7464 28.6629 33.9047 28.8419 34.0878 29.0496L34.1821 29.1569C34.3583 29.363 34.4549 29.6241 34.4552 29.8939C34.4544 30.1872 34.3394 30.4691 34.1343 30.681C33.9291 30.8929 33.6495 31.0187 33.3531 31.0325C33.0567 31.0463 32.7663 30.9469 32.5419 30.7549C32.3176 30.5629 32.1766 30.2931 32.1479 30.001C32.1459 29.9654 32.1459 29.9297 32.1479 29.8939C32.1478 29.6242 32.2441 29.3631 32.4199 29.1569L32.5153 29.0496C32.6974 28.8419 32.8556 28.6629 32.8556 28.4883C32.8572 28.4733 32.8572 28.4582 32.8556 28.4433C32.8561 28.4383 32.8561 28.4333 32.8556 28.4283C32.8536 28.4189 32.851 28.4096 32.848 28.4004C32.848 28.393 32.848 28.3865 32.8404 28.3801C32.8328 28.3737 32.835 28.3662 32.8318 28.3597C32.8285 28.3533 32.822 28.3425 32.8165 28.3341L32.8101 28.3233C32.8028 28.3125 32.7948 28.3021 32.7862 28.2922C32.7424 28.2433 32.6895 28.2033 32.6302 28.1744L32.6074 28.1658C32.5901 28.1572 32.5705 28.1498 32.551 28.1423L32.5272 28.1326C32.499 28.124 32.4686 28.1154 32.4383 28.109H32.4221C32.3896 28.1026 32.356 28.0972 32.3213 28.093H32.3072C32.2715 28.093 32.2357 28.093 32.1988 28.093H28.9411C28.8456 28.093 28.7541 28.0555 28.6867 27.9887C28.6191 27.922 28.5813 27.8316 28.5813 27.7373V24.5189C28.5731 24.3959 28.6074 24.2738 28.6788 24.1727C28.6842 24.1674 28.6885 24.1653 28.6885 24.1632C28.7557 24.1717 28.9411 24.3303 29.0516 24.4256L29.16 24.5221C29.3733 24.7004 29.6338 24.8147 29.9107 24.8514C30.1875 24.8882 30.4693 24.846 30.7228 24.7297C30.9762 24.6135 31.1906 24.428 31.3409 24.1952C31.4913 23.9624 31.5711 23.6921 31.5711 23.4158C31.5711 23.1397 31.4913 22.8692 31.3409 22.6364C31.1906 22.4036 30.9762 22.2181 30.7228 22.1019C30.4693 21.9856 30.1875 21.9434 29.9107 21.9802C29.6338 22.0171 29.3733 22.1313 29.16 22.3096L29.0516 22.405C28.9433 22.5025 28.7514 22.6643 28.6918 22.6686C28.6603 22.6557 28.5834 22.5314 28.5834 22.3118V19.1073C28.5856 19.0136 28.6242 18.9244 28.6913 18.8582C28.7582 18.7919 28.8485 18.7538 28.9433 18.7516H32.1847C32.3909 18.7628 32.5938 18.6967 32.7526 18.5662C32.7834 18.5375 32.8082 18.5031 32.8253 18.4647C32.8425 18.4265 32.8516 18.3852 32.8523 18.3433C32.8523 18.1687 32.6941 17.9898 32.5109 17.782L32.4166 17.6749C32.2258 17.4494 32.1301 17.1597 32.1496 16.8663C32.1691 16.5729 32.3022 16.2982 32.5213 16.0993C32.7404 15.9004 33.0285 15.7925 33.326 15.7982C33.6233 15.804 33.907 15.9227 34.1182 16.1299L34.1159 16.1288Z" fill="#F732A2"/>
<path d="M26.7129 12.815H21.4089C21.0189 12.815 20.672 12.7014 20.4791 12.5107C20.4285 12.464 20.3879 12.4077 20.3597 12.3451C20.3316 12.2825 20.3166 12.215 20.3155 12.1465C20.3155 11.8615 20.5745 11.5679 20.8736 11.2283L21.0286 11.0505C21.2615 10.7779 21.4108 10.4452 21.4588 10.0915C21.5068 9.73786 21.4516 9.37801 21.2996 9.05436C21.1476 8.73072 20.9052 8.45676 20.601 8.2648C20.2967 8.07282 19.9433 7.97083 19.5824 7.97083C19.2214 7.97083 18.8679 8.07282 18.5637 8.2648C18.2594 8.45676 18.017 8.73072 17.8651 9.05436C17.7131 9.37801 17.6578 9.73786 17.7058 10.0915C17.7538 10.4452 17.9031 10.7779 18.1361 11.0505L18.291 11.2283C18.5902 11.5679 18.8481 11.8615 18.8481 12.1465C18.8481 12.3543 18.7083 12.5429 18.4634 12.665C18.2416 12.7676 17.9993 12.8189 17.7545 12.815H12.4507C12.2946 12.815 12.1449 12.8763 12.0346 12.9854C11.9242 13.0945 11.8622 13.2425 11.8622 13.3968V18.6466C11.8659 18.886 11.8167 19.1233 11.7181 19.3419C11.5555 19.6772 11.3257 19.7265 11.2044 19.7265C10.9291 19.7265 10.6451 19.4801 10.3157 19.1909L10.1152 19.0184C9.83947 18.788 9.50291 18.6405 9.14518 18.593C8.78743 18.5456 8.42343 18.6002 8.09605 18.7504C7.76867 18.9007 7.49155 19.1404 7.29737 19.441C7.10317 19.7418 7 20.0913 7 20.4481C7 20.805 7.10317 21.1543 7.29737 21.4551C7.49155 21.7559 7.76867 21.9954 8.09605 22.1458C8.42343 22.296 8.78743 22.3507 9.14518 22.3031C9.50291 22.2557 9.83947 22.1082 10.1152 21.8778L10.3157 21.7053C10.6408 21.4203 10.9291 21.1696 11.2044 21.1696C11.2705 21.1715 11.3357 21.1864 11.396 21.2134C11.4563 21.2404 11.5105 21.2792 11.5555 21.3272C11.7452 21.5147 11.8589 21.8629 11.8589 22.2528V27.4972C11.8625 27.6506 11.9258 27.7967 12.0357 27.905C12.1455 28.0134 12.2934 28.0757 12.4485 28.079H17.7545C18.1177 28.079 18.3236 27.9504 18.3453 27.899C18.3387 27.8048 18.0699 27.4994 17.9117 27.3183C17.8586 27.2573 17.8034 27.1962 17.7524 27.1351C17.5933 26.9485 17.4639 26.739 17.3688 26.5138C17.1661 26.0316 17.1661 25.1852 17.3688 24.702C17.5118 24.3603 17.7338 24.0563 18.017 23.8145C18.3001 23.5728 18.6366 23.3999 18.9994 23.3097C19.3623 23.2195 19.7415 23.2146 20.1067 23.2953C20.4717 23.3759 20.8128 23.54 21.1023 23.7742C21.163 23.8235 21.2226 23.8814 21.2789 23.9328C21.7042 24.352 21.9544 24.914 21.9801 25.5071C22.0058 26.1003 21.8051 26.6815 21.4177 27.1351C21.3657 27.1962 21.3093 27.2573 21.2583 27.3183C21.1001 27.4972 20.8368 27.7962 20.8249 27.9054C20.8249 27.9054 20.8314 27.9119 20.84 27.9215C20.917 27.9976 21.1294 28.079 21.4134 28.079H26.7237C26.801 28.079 26.8775 28.0639 26.949 28.0347C27.0203 28.0054 27.0852 27.9626 27.1399 27.9086C27.1945 27.8546 27.2378 27.7905 27.2675 27.7199C27.297 27.6493 27.3122 27.5737 27.3122 27.4972V13.3968C27.3086 13.2418 27.2439 13.0943 27.1319 12.9857C27.0201 12.877 26.8697 12.8158 26.7129 12.815Z" fill="#FFD81A"/>
<path d="M29.0191 31.8506C29.2888 31.8505 29.5498 31.9447 29.756 32.1163L29.8438 32.1913C29.9316 32.2673 30.0779 32.3938 30.1289 32.3959C30.1909 32.3172 30.22 32.2178 30.2101 32.1185V29.6155C30.2085 29.5426 30.1786 29.4731 30.1266 29.4214C30.0744 29.3697 30.0043 29.3399 29.9306 29.3379H23.1344C23.0601 29.3379 22.9888 29.367 22.9363 29.4189C22.8836 29.4707 22.8539 29.541 22.8536 29.6144V32.1045C22.8468 32.2005 22.8737 32.2958 22.9295 32.3745C22.9323 32.3777 22.9356 32.3802 22.9393 32.3821C23.0427 32.3281 23.1373 32.2591 23.2199 32.1774L23.3077 32.1024C23.474 31.9633 23.6769 31.8743 23.8927 31.8456C24.1085 31.817 24.328 31.8499 24.5255 31.9406C24.7229 32.0312 24.89 32.1759 25.007 32.3574C25.124 32.5389 25.1861 32.7497 25.1859 32.9649V32.9735C25.1858 33.1886 25.1237 33.3993 25.0066 33.5807C24.8896 33.7621 24.7227 33.9067 24.5253 33.9973C24.328 34.0881 24.1086 34.1212 23.8929 34.0928C23.6772 34.0644 23.4742 33.9757 23.3077 33.8371L23.2199 33.7621C23.1321 33.686 22.9858 33.5596 22.9349 33.5574C22.8724 33.636 22.8432 33.7355 22.8536 33.835V36.3337C22.8553 36.4068 22.8854 36.4764 22.9377 36.5281C22.9899 36.5798 23.0604 36.6096 23.1344 36.6112H25.6616C25.8226 36.6025 25.9808 36.6541 26.1049 36.7558C26.129 36.7782 26.1483 36.8051 26.1617 36.8348C26.1751 36.8647 26.1823 36.8968 26.183 36.9295C26.183 37.0654 26.0594 37.2048 25.9164 37.3677L25.8427 37.4512C25.697 37.6221 25.6214 37.8407 25.6311 38.064C25.6407 38.2872 25.7348 38.4988 25.8947 38.6566C26.0208 38.7812 26.1815 38.8661 26.3565 38.9003C26.5314 38.9347 26.7126 38.9169 26.8774 38.8494C27.0421 38.7818 27.1829 38.6675 27.2819 38.5208C27.3809 38.3743 27.4337 38.2018 27.4336 38.0255C27.432 37.8149 27.3553 37.6115 27.2169 37.4512L27.1432 37.3677C27.0001 37.2048 26.8776 37.0654 26.8776 36.9295C26.8814 36.8752 26.9006 36.8232 26.933 36.7795C26.9654 36.7357 27.0097 36.7018 27.0608 36.682C27.1662 36.6332 27.2816 36.6091 27.3978 36.6112H29.9262C30.0005 36.6109 30.0717 36.5815 30.124 36.5295C30.1764 36.4775 30.2058 36.4071 30.2058 36.3337V33.8404C30.2128 33.7443 30.186 33.649 30.13 33.5703L30.1202 33.5617C30.0166 33.6157 29.922 33.6851 29.8395 33.7675L29.7517 33.8425C29.6114 33.9598 29.4444 34.0418 29.265 34.0818C29.0857 34.1216 28.8992 34.1181 28.7216 34.0715C28.5439 34.025 28.3803 33.9367 28.2445 33.8142C28.1086 33.6917 28.0048 33.5385 27.9417 33.3679C27.8785 33.1972 27.8579 33.014 27.8817 32.8338C27.9055 32.6535 27.9729 32.4817 28.0783 32.3327C28.1836 32.1838 28.3238 32.0622 28.4868 31.9782C28.6498 31.8943 28.831 31.8505 29.0148 31.8506H29.0191Z" fill="#8572B3"/>
</svg>
