<svg width="16" height="16" viewBox="0 0 16 16" fill="none" xmlns="http://www.w3.org/2000/svg">
<path d="M11.5844 0H4.4153C1.9807 0 0 1.9808 0 4.41539V11.5845C0 14.0192 1.9807 15.9999 4.4153 15.9999H11.5844C14.0192 15.9999 15.9999 14.0191 15.9999 11.5845V4.41539C16 1.9808 14.0192 0 11.5844 0ZM14.5804 11.5845C14.5804 13.2364 13.2364 14.5803 11.5845 14.5803H4.4153C2.76346 14.5804 1.41959 13.2364 1.41959 11.5845V4.41539C1.41959 2.76356 2.76346 1.41959 4.4153 1.41959H11.5844C13.2363 1.41959 14.5803 2.76356 14.5803 4.41539V11.5845H14.5804Z" fill="#101010"/>
<path d="M7.99997 3.87732C5.72664 3.87732 3.8772 5.72676 3.8772 8.00009C3.8772 10.2733 5.72664 12.1227 7.99997 12.1227C10.2733 12.1227 12.1227 10.2733 12.1227 8.00009C12.1227 5.72676 10.2733 3.87732 7.99997 3.87732ZM7.99997 10.703C6.50949 10.703 5.29679 9.49046 5.29679 7.99999C5.29679 6.50942 6.5094 5.29681 7.99997 5.29681C9.49053 5.29681 10.7031 6.50942 10.7031 7.99999C10.7031 9.49046 9.49044 10.703 7.99997 10.703Z" fill="#101010"/>
<path d="M12.2955 2.67371C12.022 2.67371 11.7534 2.78443 11.5602 2.97844C11.3661 3.17151 11.2545 3.44028 11.2545 3.71474C11.2545 3.98834 11.3662 4.25702 11.5602 4.45103C11.7533 4.64409 12.022 4.75577 12.2955 4.75577C12.57 4.75577 12.8378 4.64409 13.0318 4.45103C13.2259 4.25702 13.3366 3.98824 13.3366 3.71474C13.3366 3.44028 13.2259 3.17151 13.0318 2.97844C12.8388 2.78443 12.57 2.67371 12.2955 2.67371Z" fill="#101010"/>
</svg>
