<svg width="33" height="32" viewBox="0 0 33 32" fill="none" xmlns="http://www.w3.org/2000/svg">
<path d="M23.1734 1.77783H10.4283C6.10011 1.77783 2.57886 5.29925 2.57886 9.62742V22.3725C2.57886 26.7008 6.10011 30.2221 10.4283 30.2221H23.1734C27.5019 30.2221 31.0231 26.7007 31.0231 22.3725V9.62742C31.0233 5.29925 27.5019 1.77783 23.1734 1.77783ZM28.4996 22.3725C28.4996 25.3093 26.1103 27.6984 23.1735 27.6984H10.4283C7.49168 27.6985 5.10257 25.3093 5.10257 22.3725V9.62742C5.10257 6.69083 7.49168 4.30154 10.4283 4.30154H23.1734C26.1101 4.30154 28.4994 6.69083 28.4994 9.62742V22.3725H28.4996Z"/>
<path d="M16.802 8.6709C12.7605 8.6709 9.47266 11.9588 9.47266 16.0003C9.47266 20.0416 12.7605 23.3293 16.802 23.3293C20.8435 23.3293 24.1314 20.0416 24.1314 16.0003C24.1314 11.9588 20.8435 8.6709 16.802 8.6709ZM16.802 20.8054C14.1523 20.8054 11.9964 18.6498 11.9964 16.0001C11.9964 13.3502 14.1521 11.1944 16.802 11.1944C19.4519 11.1944 21.6077 13.3502 21.6077 16.0001C21.6077 18.6498 19.4518 20.8054 16.802 20.8054Z"/>
<path d="M24.4389 6.53076C23.9526 6.53076 23.475 6.72761 23.1316 7.07252C22.7865 7.41574 22.5881 7.89357 22.5881 8.38148C22.5881 8.86789 22.7867 9.34554 23.1316 9.69045C23.4748 10.0337 23.9526 10.2322 24.4389 10.2322C24.9268 10.2322 25.4029 10.0337 25.7478 9.69045C26.0927 9.34554 26.2896 8.86772 26.2896 8.38148C26.2896 7.89357 26.0927 7.41574 25.7478 7.07252C25.4046 6.72761 24.9268 6.53076 24.4389 6.53076Z"/>
</svg>
