<svg width="18" height="16" viewBox="0 0 18 16" fill="none" xmlns="http://www.w3.org/2000/svg">
<path d="M4.71493 5.14111H1.49582C1.35295 5.14111 1.23718 5.25693 1.23718 5.39975V15.7414C1.23718 15.8842 1.35295 16 1.49582 16H4.71493C4.8578 16 4.97356 15.8842 4.97356 15.7414V5.39975C4.97356 5.25693 4.8578 5.14111 4.71493 5.14111Z" fill="#101010"/>
<path d="M3.10651 0C1.93521 0 0.9823 0.951876 0.9823 2.12188C0.9823 3.29241 1.93521 4.24464 3.10651 4.24464C4.27688 4.24464 5.22901 3.29236 5.22901 2.12188C5.22906 0.951876 4.27688 0 3.10651 0Z" fill="#101010"/>
<path d="M12.9029 4.88403C11.61 4.88403 10.6542 5.43984 10.0745 6.07137V5.3997C10.0745 5.25688 9.95873 5.14106 9.81586 5.14106H6.733C6.59013 5.14106 6.47437 5.25688 6.47437 5.3997V15.7413C6.47437 15.8842 6.59013 16 6.733 16H9.94507C10.0879 16 10.2037 15.8842 10.2037 15.7413V10.6246C10.2037 8.90041 10.672 8.22868 11.874 8.22868C13.183 8.22868 13.287 9.30553 13.287 10.7133V15.7414C13.287 15.8842 13.4027 16 13.5456 16H16.7589C16.9018 16 17.0175 15.8842 17.0175 15.7414V10.0688C17.0175 7.50498 16.5286 4.88403 12.9029 4.88403Z" fill="#101010"/>
</svg>
