<svg width="18" height="12" viewBox="0 0 18 12" fill="none" xmlns="http://www.w3.org/2000/svg">
<path d="M5.07663 0.867188C7.88038 0.867188 10.1531 3.15576 10.1531 5.97865C10.1531 8.80155 7.88021 11.0899 5.07663 11.0899C2.27305 11.0899 0 8.80155 0 5.97865C0 3.15576 2.27287 0.867188 5.07663 0.867188ZM13.1836 1.1666C14.5855 1.1666 15.722 3.32082 15.722 5.97865H15.7221C15.7221 8.6358 14.5857 10.7907 13.1838 10.7907C11.7819 10.7907 10.6455 8.6358 10.6455 5.97865C10.6455 3.32151 11.7818 1.1666 13.1836 1.1666ZM17.1073 1.66782C17.6002 1.66782 18 3.59781 18 5.97865C18 8.35881 17.6004 10.2895 17.1073 10.2895C16.6142 10.2895 16.2147 8.35933 16.2147 5.97865C16.2147 3.59798 16.6143 1.66782 17.1073 1.66782Z" fill="#101010"/>
</svg>
