<svg width="18" height="18" viewBox="0 0 18 18" fill="none" xmlns="http://www.w3.org/2000/svg">
<path fill-rule="evenodd" clip-rule="evenodd" d="M18 9C18 13.9706 13.9706 18 9 18C4.02944 18 0 13.9706 0 9C0 4.02944 4.02944 0 9 0C13.9706 0 18 4.02944 18 9ZM13.9213 7.76896C14.6821 7.76896 15.3 8.36317 15.3 9.0947C15.3 9.63683 14.9627 10.1008 14.4802 10.3068C14.4999 10.437 14.5122 10.5696 14.5122 10.7045C14.5122 12.7452 12.0478 14.4 9 14.4C5.95217 14.4 3.48288 12.7452 3.48288 10.7045C3.48288 10.5696 3.49273 10.437 3.51489 10.3044C3.03482 10.0961 2.7 9.63446 2.7 9.0947C2.7 8.36317 3.31794 7.76896 4.07866 7.76896C4.44795 7.76896 4.78277 7.90864 5.03142 8.13827C5.98664 7.47541 7.30621 7.05401 8.77351 7.01377L9.47515 3.84147C9.48746 3.77992 9.52685 3.72547 9.58101 3.69233C9.63517 3.65682 9.70164 3.64498 9.76565 3.65918L12.0577 4.12793C12.2177 3.81543 12.5501 3.6 12.9366 3.6C13.4807 3.6 13.9213 4.02376 13.9213 4.54695C13.9213 5.07014 13.4807 5.49391 12.9366 5.49391C12.4097 5.49391 11.9814 5.09382 11.9567 4.59193L9.90352 4.17291L9.27573 7.01613C10.7209 7.06348 12.0208 7.48724 12.9637 8.14064C13.2123 7.911 13.5496 7.76896 13.9213 7.76896ZM6.8286 9.0947C6.28699 9.0947 5.84384 9.51846 5.84384 10.0416C5.84384 10.5648 6.28452 10.9886 6.8286 10.9886C7.37268 10.9886 7.81336 10.5648 7.81336 10.0416C7.81336 9.52082 7.37268 9.0947 6.8286 9.0947ZM8.99754 13.2423C9.37421 13.2423 10.6642 13.1926 11.3363 12.5463C11.4373 12.4493 11.4373 12.2954 11.3388 12.1983C11.2379 12.1036 11.0778 12.1036 10.9769 12.1983C10.551 12.6055 9.64502 12.7499 8.99754 12.7499C8.35006 12.7499 7.44408 12.6055 7.02063 12.1983C6.9197 12.1036 6.75721 12.1036 6.65873 12.1983C6.56026 12.2954 6.56026 12.4516 6.65873 12.5463C7.33083 13.1926 8.61841 13.2423 8.99754 13.2423ZM10.1792 10.0416C10.1792 10.5625 10.6199 10.9886 11.164 10.9886C11.7056 10.9886 12.1488 10.5648 12.1488 10.0416C12.1488 9.52082 11.7081 9.0947 11.164 9.0947C10.6224 9.0947 10.1792 9.51846 10.1792 10.0416Z" fill="#101010"/>
</svg>
