<svg width="33" height="32" viewBox="0 0 33 32" fill="none" xmlns="http://www.w3.org/2000/svg">
<path d="M28.0128 4.8725C28.0128 4.8725 30.603 3.8625 30.3871 6.31536C30.3152 7.32537 29.6676 10.8604 29.164 14.684L27.4372 26.0104C27.4372 26.0104 27.2933 27.6697 25.9982 27.9583C24.703 28.2468 22.7604 26.9483 22.4006 26.6597C22.1128 26.4433 17.0044 23.1968 15.2056 21.6097C14.702 21.1768 14.1264 20.3111 15.2776 19.3011L22.8324 12.0868C23.6958 11.2211 24.5592 9.2011 20.9616 11.654L10.8886 18.5076C10.8886 18.5076 9.73744 19.229 7.57897 18.5797L2.90218 17.1368C2.90218 17.1368 1.17538 16.0547 4.12534 14.9725C11.3204 11.5818 20.1702 8.1189 28.0128 4.8725Z"/>
</svg>
