<svg width="32" height="32" viewBox="0 0 32 32" fill="none" xmlns="http://www.w3.org/2000/svg">
<circle cx="16" cy="16" r="16" fill="#29A9EA"/>
<path fill-rule="evenodd" clip-rule="evenodd" d="M6.23741 15.0269C11.0692 13.0512 14.2912 11.7487 15.9033 11.1194C20.5063 9.32254 21.4627 9.01042 22.0861 9.00011C22.2232 8.99784 22.5298 9.02973 22.7284 9.18096C22.8961 9.30866 22.9422 9.48116 22.9643 9.60223C22.9864 9.7233 23.0139 9.9991 22.992 10.2146C22.7426 12.6743 21.6633 18.6433 21.1142 21.3983C20.8818 22.564 20.4244 22.9548 19.9815 22.9931C19.0189 23.0762 18.288 22.3961 17.3558 21.8225C15.897 20.9251 15.0729 20.3664 13.6569 19.4907C12.0205 18.4786 13.0813 17.9223 14.0139 17.0132C14.258 16.7753 18.4988 13.1551 18.5809 12.8267C18.5912 12.7856 18.6007 12.6325 18.5038 12.5517C18.4069 12.4708 18.2639 12.4985 18.1606 12.5204C18.0143 12.5516 15.6839 13.9972 11.1694 16.8573C10.5079 17.2836 9.90875 17.4913 9.37193 17.4804C8.78013 17.4684 7.64175 17.1664 6.79548 16.9082C5.75749 16.5915 4.93252 16.4241 5.00436 15.8863C5.04178 15.6062 5.45279 15.3197 6.23741 15.0269Z" fill="white"/>
</svg>
