<svg width="32" height="32" viewBox="0 0 32 32" fill="none" xmlns="http://www.w3.org/2000/svg">
<circle cx="16" cy="16" r="16" fill="#1D9BF0"/>
<path d="M12.6475 23C19.4444 23 23.1609 17.6126 23.1609 12.9435C23.1609 12.7895 23.1609 12.6356 23.1533 12.489C23.8736 11.9906 24.5019 11.3675 25 10.6565C24.341 10.9351 23.6284 11.1257 22.8774 11.2136C23.6437 10.7738 24.2261 10.0848 24.5019 9.25654C23.7893 9.65969 23 9.95288 22.1571 10.1141C21.4828 9.42513 20.5249 9 19.4598 9C17.4215 9 15.7663 10.5832 15.7663 12.533C15.7663 12.8115 15.7969 13.0827 15.8659 13.3393C12.7931 13.1927 10.0728 11.7853 8.24904 9.64503C7.93487 10.1654 7.75096 10.7738 7.75096 11.4188C7.75096 12.6429 8.4023 13.7277 9.39847 14.3581C8.7931 14.3435 8.22605 14.1822 7.72797 13.9183C7.72797 13.933 7.72797 13.9476 7.72797 13.9623C7.72797 15.6775 9 17.0995 10.6935 17.4293C10.387 17.5099 10.0575 17.5539 9.72031 17.5539C9.48276 17.5539 9.25287 17.5319 9.02299 17.488C9.49042 18.8953 10.8544 19.9141 12.4713 19.9435C11.2069 20.889 9.61303 21.4534 7.88123 21.4534C7.58238 21.4534 7.29119 21.4387 7 21.4021C8.61686 22.4136 10.5632 23 12.6475 23Z" fill="white"/>
</svg>
