<svg width="18" height="16" viewBox="0 0 18 16" fill="none" xmlns="http://www.w3.org/2000/svg">
<path d="M18.0001 2.25921C17.338 2.56129 16.6264 2.76537 15.8796 2.85718C16.6419 2.3872 17.2274 1.643 17.503 0.756172C16.7895 1.19144 15.9994 1.50741 15.1584 1.6777C14.4849 0.939607 13.5254 0.478516 12.4634 0.478516C10.4245 0.478516 8.77126 2.17878 8.77126 4.27599C8.77126 4.57364 8.80392 4.86351 8.86691 5.14145C5.79839 4.98309 3.07792 3.47117 1.25689 1.17358C0.939077 1.73444 0.756956 2.38674 0.756956 3.08273C0.756956 4.40029 1.40878 5.56265 2.39946 6.24364C1.79425 6.22393 1.22494 6.05308 0.727172 5.76867C0.726752 5.78449 0.726752 5.80041 0.726752 5.81642C0.726752 7.65635 1.99944 9.19113 3.68847 9.54023C3.37866 9.62704 3.05248 9.67341 2.71577 9.67341C2.47786 9.67341 2.24662 9.64953 2.02113 9.6053C2.491 11.114 3.85448 12.2119 5.47017 12.2425C4.20657 13.2611 2.61464 13.8682 0.884759 13.8682C0.586743 13.8682 0.292866 13.8502 0.00402832 13.8151C1.63799 14.8927 3.57869 15.5214 5.66372 15.5214C12.4548 15.5214 16.1686 9.73477 16.1686 4.71626C16.1686 4.55161 16.165 4.38789 16.1579 4.22491C16.8792 3.68959 17.5051 3.02081 18.0001 2.25921H18.0001Z" fill="#101010"/>
</svg>
