<svg width="32" height="32" viewBox="0 0 32 32" fill="none" xmlns="http://www.w3.org/2000/svg">
<circle cx="16" cy="16" r="16" fill="url(#paint0_linear_3839_162399)"/>
<path d="M7 25L8.27221 20.3802C7.48567 19.0242 7.07307 17.4886 7.07736 15.9187C7.07736 10.9995 11.1003 7 16.0387 7C18.437 7 20.6891 7.92823 22.3782 9.61359C24.0716 11.299 25.0043 13.5404 25 15.923C25 20.8422 20.9771 24.8417 16.0344 24.8417H16.0301C14.5301 24.8417 13.0559 24.4653 11.745 23.7552L7 25ZM11.9728 22.1426L12.2435 22.3051C13.3868 22.981 14.6977 23.336 16.0344 23.3403H16.0387C20.1433 23.3403 23.4871 20.0166 23.4871 15.9273C23.4871 13.9468 22.7135 12.086 21.308 10.683C19.9026 9.27994 18.0286 8.50998 16.0387 8.50998C11.9341 8.5057 8.59026 11.8294 8.59026 15.9187C8.59026 17.3175 8.98137 18.682 9.72922 19.8626L9.90544 20.145L9.15329 22.8783L11.9728 22.1426Z" fill="white"/>
<path d="M7.31378 24.6877L8.54301 20.2262C7.78226 18.9216 7.38255 17.4373 7.38255 15.923C7.38685 11.1749 11.2679 7.31226 16.0387 7.31226C18.3553 7.31226 20.5258 8.21055 22.159 9.83602C23.7923 11.4615 24.6906 13.6259 24.6906 15.9273C24.6906 20.6754 20.8052 24.538 16.0387 24.538H16.0344C14.586 24.538 13.1633 24.1744 11.8997 23.49L7.31378 24.6877Z" fill="url(#paint1_linear_3839_162399)"/>
<path d="M7 25L8.27221 20.3802C7.48567 19.0242 7.07307 17.4886 7.07736 15.9187C7.07736 10.9995 11.1003 7 16.0387 7C18.437 7 20.6891 7.92823 22.3782 9.61359C24.0716 11.299 25.0043 13.5404 25 15.923C25 20.8422 20.9771 24.8417 16.0344 24.8417H16.0301C14.5301 24.8417 13.0559 24.4653 11.745 23.7552L7 25ZM11.9728 22.1426L12.2435 22.3051C13.3868 22.981 14.6977 23.336 16.0344 23.3403H16.0387C20.1433 23.3403 23.4871 20.0166 23.4871 15.9273C23.4871 13.9468 22.7135 12.086 21.308 10.683C19.9026 9.27994 18.0286 8.50998 16.0387 8.50998C11.9341 8.5057 8.59026 11.8294 8.59026 15.9187C8.59026 17.3175 8.98137 18.682 9.72922 19.8626L9.90544 20.145L9.15329 22.8783L11.9728 22.1426Z" fill="url(#paint2_linear_3839_162399)"/>
<path fill-rule="evenodd" clip-rule="evenodd" d="M13.7994 12.1886C13.6318 11.8164 13.4555 11.8079 13.2965 11.8036C13.1676 11.7993 13.0171 11.7993 12.8667 11.7993C12.7163 11.7993 12.4756 11.8549 12.2693 12.0774C12.063 12.2998 11.4871 12.8388 11.4871 13.9381C11.4871 15.0332 12.2908 16.094 12.4025 16.2437C12.5143 16.3934 13.9541 18.7161 16.2277 19.6102C18.1189 20.3544 18.5057 20.2047 18.914 20.1662C19.3223 20.1277 20.2378 19.6273 20.4269 19.1054C20.6117 18.5835 20.6117 18.1387 20.5558 18.0446C20.4999 17.9505 20.3495 17.8948 20.126 17.7836C19.9025 17.6724 18.8022 17.1334 18.5959 17.0564C18.3896 16.9837 18.2392 16.9452 18.0931 17.1677C17.9426 17.3901 17.5128 17.8906 17.3839 18.0403C17.255 18.19 17.1217 18.2071 16.8982 18.0959C16.6747 17.9847 15.9527 17.7494 15.0974 16.988C14.4312 16.3977 13.9799 15.6662 13.851 15.4438C13.722 15.2214 13.8381 15.1016 13.9498 14.9904C14.0487 14.892 14.1733 14.7294 14.2851 14.6011C14.3968 14.4728 14.4355 14.3787 14.5085 14.229C14.5816 14.0793 14.5472 13.9509 14.4914 13.8397C14.4355 13.7328 13.9971 12.6292 13.7994 12.1886Z" fill="white"/>
<defs>
<linearGradient id="paint0_linear_3839_162399" x1="15.9992" y1="31.9984" x2="15.9992" y2="-0.0011196" gradientUnits="userSpaceOnUse">
<stop stop-color="#20B038"/>
<stop offset="1" stop-color="#60D66A"/>
</linearGradient>
<linearGradient id="paint1_linear_3839_162399" x1="16.0017" y1="24.6869" x2="16.0017" y2="7.31165" gradientUnits="userSpaceOnUse">
<stop stop-color="#20B038"/>
<stop offset="1" stop-color="#60D66A"/>
</linearGradient>
<linearGradient id="paint2_linear_3839_162399" x1="16.0018" y1="24.9983" x2="16.0018" y2="7" gradientUnits="userSpaceOnUse">
<stop stop-color="#F9F9F9"/>
<stop offset="1" stop-color="white"/>
</linearGradient>
</defs>
</svg>
