<svg width="45" height="45" viewBox="0 0 45 45" fill="none" xmlns="http://www.w3.org/2000/svg">
<circle cx="22.5" cy="22.5" r="22.5" fill="#F4D150"/>
<mask id="mask0_183_3672" style="mask-type:alpha" maskUnits="userSpaceOnUse" x="0" y="0" width="45" height="45">
<circle cx="22.5" cy="22.5" r="22.5" fill="#FFF9ED"/>
</mask>
<g mask="url(#mask0_183_3672)">
<path d="M28.5534 44.1259C26.8481 41.7575 25.5139 35.9943 25.356 33.7049L17.2441 30.2114L13.8691 44.1259H28.5534Z" fill="#FC909F" stroke="black" stroke-width="0.473684"/>
<mask id="mask1_183_3672" style="mask-type:alpha" maskUnits="userSpaceOnUse" x="13" y="30" width="16" height="15">
<path d="M28.5534 44.1259C26.8481 41.7575 25.5139 35.9943 25.356 33.7049L17.2441 30.2114L13.8691 44.1259H28.5534Z" fill="#FFEDEF"/>
</mask>
<g mask="url(#mask1_183_3672)">
<ellipse cx="25.3423" cy="29.9614" rx="6.98684" ry="6.39474" fill="black"/>
</g>
<g clip-path="url(#clip0_183_3672)">
<path d="M28.8971 44.1126C27.1918 41.7441 25.8576 35.981 25.6997 33.6915L17.5879 30.198L14.2129 44.1126H28.8971Z" fill="#77311D" stroke="black" stroke-width="0.473684"/>
<mask id="mask2_183_3672" style="mask-type:alpha" maskUnits="userSpaceOnUse" x="14" y="30" width="15" height="15">
<path d="M28.8971 44.1126C27.1918 41.7441 25.8576 35.981 25.6997 33.6915L17.5879 30.198L14.2129 44.1126H28.8971Z" fill="#AC6651"/>
</mask>
<g mask="url(#mask2_183_3672)">
<ellipse cx="25.3443" cy="29.9612" rx="6.98684" ry="6.39474" fill="black"/>
</g>
<mask id="path-9-inside-1_183_3672" fill="white">
<path fillRule="evenodd" clipRule="evenodd" d="M32.4364 22.9647C32.4331 22.9509 32.4299 22.9372 32.4266 22.9234C32.4233 22.9097 32.42 22.8959 32.4166 22.8822L30.4749 14.7779C30.473 14.7699 30.4711 14.7619 30.4692 14.7539C30.4672 14.7459 30.4653 14.7379 30.4634 14.7299L30.4547 14.6939L30.4546 14.6939C29.2445 9.78596 24.2973 6.76817 19.3741 7.94774C14.4508 9.12731 11.4083 14.0594 12.5537 18.9828L12.5535 18.9828L14.7124 27.9935L14.7461 27.9855C16.2386 32.4682 20.9403 35.1398 25.6204 34.0185C30.3006 32.8972 33.2811 28.3849 32.5801 23.7126L32.6136 23.7045L32.4364 22.9647Z"/>
</mask>
<path fillRule="evenodd" clipRule="evenodd" d="M32.4364 22.9647C32.4331 22.9509 32.4299 22.9372 32.4266 22.9234C32.4233 22.9097 32.42 22.8959 32.4166 22.8822L30.4749 14.7779C30.473 14.7699 30.4711 14.7619 30.4692 14.7539C30.4672 14.7459 30.4653 14.7379 30.4634 14.7299L30.4547 14.6939L30.4546 14.6939C29.2445 9.78596 24.2973 6.76817 19.3741 7.94774C14.4508 9.12731 11.4083 14.0594 12.5537 18.9828L12.5535 18.9828L14.7124 27.9935L14.7461 27.9855C16.2386 32.4682 20.9403 35.1398 25.6204 34.0185C30.3006 32.8972 33.2811 28.3849 32.5801 23.7126L32.6136 23.7045L32.4364 22.9647Z" fill="#77311D"/>
<path d="M32.4364 22.9647L31.9752 23.073L31.9757 23.0751L32.4364 22.9647ZM32.4266 22.9234L31.9659 23.0338V23.0338L32.4266 22.9234ZM32.4166 22.8822L31.9559 22.9926L31.9565 22.9946L32.4166 22.8822ZM30.4749 14.7779L30.014 14.8871L30.0142 14.8883L30.4749 14.7779ZM30.4692 14.7539L30.9298 14.6435L30.9298 14.6435L30.4692 14.7539ZM30.4634 14.7299L30.0027 14.8402L30.003 14.8414L30.4634 14.7299ZM30.4547 14.6939L30.9154 14.5835L30.8051 14.1233L30.3449 14.2331L30.4547 14.6939ZM30.4546 14.6939L29.9947 14.8073L30.1072 15.2637L30.5645 15.1547L30.4546 14.6939ZM19.3741 7.94774L19.2637 7.4871L19.3741 7.94774ZM12.5537 18.9828L12.6648 19.4433L13.1216 19.3331L13.0151 18.8754L12.5537 18.9828ZM12.5535 18.9828L12.4424 18.5224L11.9827 18.6333L12.0929 19.0932L12.5535 18.9828ZM14.7124 27.9935L14.2517 28.1039L14.3621 28.5645L14.8228 28.4542L14.7124 27.9935ZM14.7461 27.9855L15.1955 27.8358L15.0583 27.4236L14.6357 27.5248L14.7461 27.9855ZM25.6204 34.0185L25.5101 33.5579L25.6204 34.0185ZM32.5801 23.7126L32.4698 23.2519L32.0472 23.3532L32.1117 23.7829L32.5801 23.7126ZM32.6136 23.7045L32.724 24.1652L33.1846 24.0548L33.0743 23.5942L32.6136 23.7045ZM32.8975 22.8564C32.8941 22.842 32.8907 22.8275 32.8872 22.8131L31.9659 23.0338C31.9691 23.0468 31.9722 23.0599 31.9752 23.073L32.8975 22.8564ZM32.8872 22.8131C32.8838 22.7986 32.8803 22.7842 32.8767 22.7698L31.9565 22.9946C31.9596 23.0077 31.9628 23.0207 31.9659 23.0338L32.8872 22.8131ZM30.0142 14.8883L31.956 22.9926L32.8772 22.7718L30.9355 14.6675L30.0142 14.8883ZM30.9358 14.6687C30.9338 14.6603 30.9318 14.652 30.9298 14.6435L30.0085 14.8642C30.0103 14.8718 30.0121 14.8794 30.014 14.8871L30.9358 14.6687ZM30.9298 14.6435C30.9278 14.6351 30.9258 14.6267 30.9237 14.6183L30.003 14.8414C30.0049 14.849 30.0067 14.8566 30.0085 14.8642L30.9298 14.6435ZM29.9941 14.8042L30.0027 14.8402L30.924 14.6195L30.9154 14.5835L29.9941 14.8042ZM30.5645 15.1547L30.5646 15.1546L30.3449 14.2331L30.3447 14.2331L30.5645 15.1547ZM30.9145 14.5805C29.6422 9.41992 24.4403 6.24681 19.2637 7.4871L19.4844 8.40839C24.1543 7.28953 28.8469 10.152 29.9947 14.8073L30.9145 14.5805ZM19.2637 7.4871C14.087 8.72738 10.8879 13.9133 12.0924 19.0901L13.0151 18.8754C11.9286 14.2055 14.8145 9.52725 19.4844 8.40839L19.2637 7.4871ZM12.6646 19.4433L12.6648 19.4433L12.4427 18.5223L12.4424 18.5224L12.6646 19.4433ZM15.173 27.8832L13.0142 18.8725L12.0929 19.0932L14.2517 28.1039L15.173 27.8832ZM14.6357 27.5248L14.602 27.5329L14.8228 28.4542L14.8565 28.4461L14.6357 27.5248ZM14.2967 28.1351C15.8661 32.849 20.8096 35.6583 25.7308 34.4792L25.5101 33.5579C21.0711 34.6214 16.611 32.0874 15.1955 27.8358L14.2967 28.1351ZM25.7308 34.4792C30.652 33.3001 33.7857 28.5556 33.0486 23.6423L32.1117 23.7829C32.7765 28.2142 29.9491 32.4943 25.5101 33.5579L25.7308 34.4792ZM32.5033 23.2439L32.4698 23.2519L32.6905 24.1732L32.724 24.1652L32.5033 23.2439ZM31.9757 23.0751L32.153 23.8149L33.0743 23.5942L32.897 22.8543L31.9757 23.0751Z" fill="black" mask="url(#path-9-inside-1_183_3672)"/>
</g>
<path d="M22.5001 26.8998C23.0852 27.6632 23.9718 28.509 25.3394 28.3161C26.707 28.1232 27.3155 27.1798 27.1361 26.4158" stroke="black" stroke-width="0.473684"/>
<path d="M25.9346 15.6578C26.6056 15.342 28.1846 15.0539 29.1319 16.4276" stroke="black" stroke-width="0.473684" stroke-linecap="round"/>
<path d="M17.0034 18.6547C17.2486 17.9547 18.15 16.6267 19.7937 16.914" stroke="black" stroke-width="0.473684" stroke-linecap="round"/>
<path d="M33.3637 15.6067C33.3637 7.78035 29.0462 2.4867 23.7873 2.48669C17.0499 2.48669 10.1855 5.01396 10.1855 16.9642C10.1855 19.9209 11.4478 22.1241 13.2129 23.748C13.036 23.5266 12.8934 23.3284 12.7987 23.1652C12.4564 19.9701 16.2526 17.5178 19.9673 15.118C21.9393 13.8441 23.8883 12.585 25.1831 11.2375C26.3193 11.8813 29.6587 14.5786 30.295 15.6693C30.6362 16.2543 31.1842 18.259 31.5586 20.5992C32.7829 19.1287 33.3637 17.6573 33.3637 15.6067Z" fill="white" stroke="black" stroke-width="0.473684"/>
<path d="M25.2559 11.1605C26.8159 9.74606 29.1498 6.51774 29.0001 4.42099" stroke="black" stroke-width="0.473684"/>
<ellipse cx="20.2244" cy="20.0435" rx="1.06579" ry="1.18421" transform="rotate(-6.77646 20.2244 20.0435)" fill="black"/>
<ellipse cx="27.807" cy="18.8588" rx="1.06579" ry="1.18421" transform="rotate(-6.27568 27.807 18.8588)" fill="black"/>
<circle cx="27.7699" cy="18.8284" r="3.07895" stroke="#F4D150" stroke-width="0.473684"/>
<circle cx="19.8353" cy="19.8942" r="3.07895" stroke="#F4D150" stroke-width="0.473684"/>
<path d="M24.8088 19.6573C24.8088 19.4061 24.709 19.1651 24.5313 18.9874C24.3537 18.8098 24.1127 18.71 23.8614 18.71C23.6102 18.71 23.3692 18.8098 23.1915 18.9874C23.0139 19.1651 22.9141 19.4061 22.9141 19.6573" stroke="#F4D150" stroke-width="0.473684"/>
<path d="M16.8153 20.131L13.2627 20.7823" stroke="#F4D150" stroke-width="0.473684"/>
<path d="M24.1753 20.1139C24.1994 20.5689 24.3764 21.5445 24.8916 21.807C25.5356 22.135 25.0308 23.2224 23.8251 23.1527" stroke="black" stroke-width="0.473684"/>
<path d="M14.7443 21.3358C14.4684 21.245 14.1706 21.1966 13.8657 21.1966C12.623 21.1966 11.6157 21.9663 11.7341 23.3874C11.8574 24.8676 12.7414 25.4005 13.9841 25.4005C14.1224 25.4005 14.2577 25.3884 14.3891 25.3651C14.5324 25.3398 14.6711 25.3012 14.8036 25.2507" stroke="black" stroke-width="0.947368"/>
<path d="M14.8628 25.2272C14.5928 25.3388 14.2959 25.4005 13.9841 25.4005C12.7414 25.4005 11.8574 24.8676 11.7341 23.3874C11.6157 21.9663 12.623 21.1966 13.8657 21.1966C14.2372 21.1966 14.5983 21.2684 14.922 21.4014L14.8628 25.2272Z" fill="#77311D"/>
<path d="M14.3899 22.2032C13.9162 21.9861 12.8741 21.8716 12.4951 23.1506" stroke="black" stroke-width="0.473684"/>
<path d="M13.1455 22.2624C13.4021 22.4795 13.8916 23.1505 13.7968 24.0979" stroke="black" stroke-width="0.473684"/>
<path d="M27.1843 39.1323L27.2009 39.1361L27.2179 39.1375C32.6801 39.588 35.9555 42.0142 38.3326 45.3554H5.96589C7.89612 41.8807 10.6416 39.6691 15.0926 38.6542C16.9889 38.2218 19.1981 38.0062 21.79 38.0062C22.9097 38.0062 23.7811 38.177 24.6079 38.4024C24.9142 38.4859 25.2221 38.5795 25.5371 38.6752C26.0584 38.8336 26.5992 38.9979 27.1843 39.1323Z" fill="#9287FF" stroke="black" stroke-width="0.473684"/>
<path d="M13.7288 38.9111L14.8127 36.5904C14.8386 36.535 14.903 36.5086 14.9606 36.529C19.4519 38.1188 23.5378 38.0069 27.3242 36.9529C27.3719 36.9396 27.4228 36.9571 27.452 36.9971L29.1019 39.2533C29.1472 39.3153 29.1241 39.4028 29.0526 39.4308C25.0728 40.9936 17.605 40.7279 13.7862 39.0678C13.7256 39.0414 13.7009 38.9709 13.7288 38.9111Z" fill="#E0DDFF" stroke="black" stroke-width="0.473684"/>
</g>
<defs>
<clipPath id="clip0_183_3672">
<rect width="23.6842" height="39.0789" fill="white" transform="translate(10.6602 5.09277)"/>
</clipPath>
</defs>
</svg>
