<svg width="45" height="45" viewBox="0 0 45 45" fill="none" xmlns="http://www.w3.org/2000/svg">
<circle cx="22.5" cy="22.5" r="22.5" fill="#AD00FF"/>
<mask id="mask0_183_3659" style="mask-type:alpha" maskUnits="userSpaceOnUse" x="0" y="0" width="45" height="45">
<circle cx="22.5" cy="22.5" r="22.5" fill="#FFEDEF"/>
</mask>
<g mask="url(#mask0_183_3659)">
<path d="M28.5514 44.1262C26.8461 41.7578 25.5119 35.9946 25.354 33.7051L17.2422 30.2117L13.8672 44.1262H28.5514Z" fill="#FC909F" stroke="black" stroke-width="0.473684"/>
<mask id="mask1_183_3659" style="mask-type:alpha" maskUnits="userSpaceOnUse" x="13" y="30" width="16" height="15">
<path d="M28.5514 44.1262C26.8461 41.7578 25.5119 35.9946 25.354 33.7051L17.2422 30.2117L13.8672 44.1262H28.5514Z" fill="#FFEDEF"/>
</mask>
<g mask="url(#mask1_183_3659)">
<ellipse cx="25.3404" cy="29.9617" rx="6.98684" ry="6.39474" fill="black"/>
</g>
<g clip-path="url(#clip0_183_3659)">
<path d="M28.8951 42.9286C27.1899 40.5602 25.8557 35.9813 25.6978 33.6918L17.5859 30.1983L14.2109 42.9286H28.8951Z" fill="#F9C9B6" stroke="black" stroke-width="0.473684"/>
<mask id="mask2_183_3659" style="mask-type:alpha" maskUnits="userSpaceOnUse" x="14" y="30" width="15" height="15">
<path d="M28.8951 44.1128C27.1899 41.7444 25.8557 35.9813 25.6978 33.6918L17.5859 30.1983L14.2109 44.1128H28.8951Z" fill="#F9C9B6"/>
</mask>
<g mask="url(#mask2_183_3659)">
<g style="mix-blend-mode:multiply">
<ellipse cx="25.3423" cy="29.9615" rx="6.98684" ry="6.39474" fill="black"/>
</g>
</g>
<mask id="path-9-inside-1_183_3659" fill="white">
<path fillRule="evenodd" clipRule="evenodd" d="M32.4344 22.965C32.4312 22.9512 32.4279 22.9374 32.4246 22.9237C32.4213 22.9099 32.418 22.8962 32.4147 22.8825L30.4729 14.7782C30.471 14.7702 30.4691 14.7622 30.4672 14.7541C30.4653 14.7461 30.4634 14.7381 30.4614 14.7301L30.4528 14.6941L30.4526 14.6942C29.2426 9.78624 24.2954 6.76845 19.3721 7.94802C14.4488 9.12759 11.4063 14.0597 12.5518 18.9831L12.5516 18.9831L14.5637 27.3813L14.5653 27.3809C15.8209 32.2248 20.7315 35.1897 25.6185 34.0188C30.5055 32.8479 33.5393 27.9797 32.4635 23.0926L32.4649 23.0923L32.4344 22.965Z"/>
</mask>
<path fillRule="evenodd" clipRule="evenodd" d="M32.4344 22.965C32.4312 22.9512 32.4279 22.9374 32.4246 22.9237C32.4213 22.9099 32.418 22.8962 32.4147 22.8825L30.4729 14.7782C30.471 14.7702 30.4691 14.7622 30.4672 14.7541C30.4653 14.7461 30.4634 14.7381 30.4614 14.7301L30.4528 14.6941L30.4526 14.6942C29.2426 9.78624 24.2954 6.76845 19.3721 7.94802C14.4488 9.12759 11.4063 14.0597 12.5518 18.9831L12.5516 18.9831L14.5637 27.3813L14.5653 27.3809C15.8209 32.2248 20.7315 35.1897 25.6185 34.0188C30.5055 32.8479 33.5393 27.9797 32.4635 23.0926L32.4649 23.0923L32.4344 22.965Z" fill="#F9C9B6"/>
<path d="M32.4344 22.965L31.9733 23.0732L31.9738 23.0753L32.4344 22.965ZM32.4246 22.9237L32.8853 22.8134L32.8853 22.8133L32.4246 22.9237ZM32.4147 22.8825L31.954 22.9929L31.9545 22.9949L32.4147 22.8825ZM30.4729 14.7782L30.012 14.8874L30.0123 14.8885L30.4729 14.7782ZM30.4672 14.7541L30.9279 14.6438L30.9279 14.6438L30.4672 14.7541ZM30.4614 14.7301L30.0008 14.8405L30.0011 14.8417L30.4614 14.7301ZM30.4528 14.6941L30.9134 14.5838L30.8032 14.1236L30.3429 14.2334L30.4528 14.6941ZM30.4526 14.6942L29.9927 14.8076L30.1052 15.264L30.5625 15.1549L30.4526 14.6942ZM19.3721 7.94802L19.2617 7.48737L19.3721 7.94802ZM12.5518 18.9831L12.6629 19.4435L13.1196 19.3333L13.0131 18.8757L12.5518 18.9831ZM12.5516 18.9831L12.4405 18.5226L11.9807 18.6335L12.0909 19.0935L12.5516 18.9831ZM14.5637 27.3813L14.103 27.4916L14.2134 27.9522L14.674 27.8419L14.5637 27.3813ZM14.5653 27.3809L15.0239 27.262L14.9072 26.812L14.455 26.9202L14.5653 27.3809ZM25.6185 34.0188L25.5081 33.5582L25.6185 34.0188ZM32.4635 23.0926L32.3532 22.632L31.9008 22.7402L32.0009 23.1945L32.4635 23.0926ZM32.4649 23.0923L32.5751 23.553L33.036 23.4427L32.9256 22.9819L32.4649 23.0923ZM32.8956 22.8567C32.8922 22.8422 32.8887 22.8278 32.8853 22.8134L31.964 23.034C31.9671 23.0471 31.9702 23.0602 31.9733 23.0732L32.8956 22.8567ZM32.8853 22.8133C32.8818 22.7989 32.8783 22.7845 32.8748 22.7701L31.9545 22.9949C31.9577 23.0079 31.9608 23.021 31.964 23.0341L32.8853 22.8133ZM30.0123 14.8885L31.954 22.9928L32.8753 22.7721L30.9336 14.6678L30.0123 14.8885ZM30.9339 14.669C30.9319 14.6606 30.9299 14.6522 30.9279 14.6438L30.0066 14.8645C30.0084 14.8721 30.0102 14.8797 30.012 14.8874L30.9339 14.669ZM30.9279 14.6438C30.9258 14.6354 30.9238 14.627 30.9218 14.6186L30.0011 14.8417C30.0029 14.8493 30.0047 14.8569 30.0066 14.8645L30.9279 14.6438ZM29.9922 14.8045L30.0008 14.8405L30.9221 14.6198L30.9134 14.5838L29.9922 14.8045ZM30.5625 15.1549L30.5627 15.1549L30.3429 14.2334L30.3427 14.2334L30.5625 15.1549ZM30.9125 14.5808C29.6402 9.42019 24.4384 6.24709 19.2617 7.48737L19.4825 8.40867C24.1523 7.2898 28.845 10.1523 29.9927 14.8076L30.9125 14.5808ZM19.2617 7.48737C14.0851 8.72765 10.886 13.9135 12.0904 19.0904L13.0131 18.8757C11.9266 14.2058 14.8126 9.52753 19.4825 8.40867L19.2617 7.48737ZM12.6626 19.4436L12.6629 19.4435L12.4407 18.5226L12.4405 18.5226L12.6626 19.4436ZM15.0243 27.2709L13.0122 18.8727L12.0909 19.0935L14.103 27.4916L15.0243 27.2709ZM14.455 26.9202L14.4534 26.9206L14.674 27.8419L14.6756 27.8415L14.455 26.9202ZM14.1068 27.4997C15.4271 32.5932 20.5903 35.7106 25.7289 34.4795L25.5081 33.5582C20.8727 34.6688 16.2148 31.8565 15.0239 27.262L14.1068 27.4997ZM25.7289 34.4795C30.8674 33.2483 34.0573 28.1295 32.9261 22.9908L32.0009 23.1945C33.0213 27.8298 30.1435 32.4476 25.5081 33.5582L25.7289 34.4795ZM32.3547 22.6316L32.3532 22.632L32.5737 23.5533L32.5751 23.553L32.3547 22.6316ZM31.9738 23.0753L32.0043 23.2027L32.9256 22.9819L32.8951 22.8546L31.9738 23.0753Z" fill="black" mask="url(#path-9-inside-1_183_3659)"/>
</g>
<path d="M21.2568 26.1107C21.5529 28.1239 24.9279 29.0713 28.0068 26.762" stroke="black" stroke-width="0.473684"/>
<path d="M25.9326 15.6581C26.6037 15.3423 28.1826 15.0541 29.13 16.4278" stroke="black" stroke-width="0.473684" stroke-linecap="round"/>
<path d="M17.0015 18.6549C17.2467 17.955 18.148 16.627 19.7918 16.9143" stroke="black" stroke-width="0.473684" stroke-linecap="round"/>
<path d="M21.6457 5.7422L21.6548 5.74316L21.6638 5.74343C24.822 5.83632 27.2771 7.09316 29.0145 8.627C30.6791 10.0965 31.673 11.8094 31.9972 12.9769C31.5164 13.2513 30.6928 13.4875 29.6424 13.6811C28.4966 13.8924 27.1208 14.0466 25.7171 14.1566C22.9098 14.3765 20.0104 14.4178 18.6562 14.3883L17.937 14.3727L18.5062 14.8125C18.802 15.0411 19.1957 15.2001 19.6121 15.312C20.0315 15.4247 20.4907 15.4938 20.9303 15.5331C21.3831 15.5735 21.8247 15.583 22.1904 15.5737C20.9367 16.5402 19.341 17.2834 17.7675 17.8343C15.9502 18.4706 14.1829 18.8433 13.0509 19.0092L12.7964 19.0465L12.8545 19.2971C13.251 21.0057 13.9797 23.9927 14.4684 25.996C14.6852 26.8847 14.8548 27.5798 14.9272 27.8839C15.0556 28.4232 15.4599 29.1919 15.9213 29.9004C16.3468 30.5537 16.8432 31.1899 17.2621 31.5814L16.3339 35.3488H12.8333C13.8206 33.8433 14.029 32.1038 13.8277 30.2588C13.6098 28.2617 12.9086 26.1135 12.1695 23.9626C12.0967 23.7509 12.0236 23.5391 11.9505 23.3274C11.2774 21.3783 10.6061 19.4346 10.2425 17.5717C9.83969 15.5083 9.82175 13.5772 10.5779 11.8794C11.8023 9.13036 13.9727 7.53404 16.1436 6.65432C18.3197 5.77254 20.4802 5.618 21.6457 5.7422Z" fill="white" stroke="black" stroke-width="0.473684"/>
<ellipse cx="20.2244" cy="20.0438" rx="1.06579" ry="1.18421" transform="rotate(-6.77646 20.2244 20.0438)" fill="black"/>
<ellipse cx="27.807" cy="18.8591" rx="1.06579" ry="1.18421" transform="rotate(-6.27568 27.807 18.8591)" fill="black"/>
<path d="M24.1079 19.645C24.3387 21.2868 25.3409 22.4613 25.3409 22.4613C25.3409 22.4613 25.0293 23.2226 23.8237 23.1529" stroke="black" stroke-width="0.473684"/>
<path d="M15.4489 25.71L15.5121 25.6419V25.5489V21.5817V21.4491L15.3992 21.3798C14.957 21.1085 14.4193 20.96 13.8637 20.96C13.1958 20.96 12.5704 21.167 12.125 21.5871C11.6746 22.0119 11.4316 22.633 11.4961 23.4073C11.559 24.1619 11.8123 24.7172 12.2324 25.0862C12.1979 25.2045 12.1877 25.3321 12.2037 25.4663C12.2498 25.8534 12.4455 26.1323 12.7479 26.3041C13.0361 26.4679 13.405 26.5258 13.7979 26.5258C14.4467 26.5258 15.0157 26.1768 15.4489 25.71Z" stroke="black" stroke-width="0.473684"/>
<path fillRule="evenodd" clipRule="evenodd" d="M16.2203 23.445C16.2288 23.3678 16.2331 23.2894 16.2331 23.21C16.2331 22.0001 15.1073 21.1969 13.8647 21.1969C12.622 21.1969 11.6147 21.9666 11.7331 23.3877C11.799 24.1784 12.082 24.6988 12.5207 25.012C12.451 25.1333 12.4205 25.2757 12.4399 25.4383C12.5144 26.0638 13.0483 26.289 13.7989 26.289C15.1139 26.289 16.1545 24.6256 16.2203 23.445Z" fill="#F9C9B6"/>
<path d="M14.3879 22.2035C13.9142 21.9864 12.8721 21.8719 12.4932 23.1509" stroke="black" stroke-width="0.473684"/>
<path d="M13.1436 22.2627C13.4001 22.4798 13.8896 23.1508 13.7949 24.0982" stroke="black" stroke-width="0.473684"/>
<path d="M27.1843 39.1324L27.2009 39.1362L27.2179 39.1376C32.6801 39.5881 35.9555 42.0143 38.3326 45.3556H5.96589C7.89612 41.8809 10.6416 39.6692 15.0926 38.6544C16.9889 38.222 19.1981 38.0063 21.79 38.0063C22.9097 38.0063 23.7811 38.1771 24.6079 38.4025C24.9142 38.486 25.2221 38.5796 25.5371 38.6753C26.0584 38.8337 26.5992 38.9981 27.1843 39.1324Z" fill="#77311D" stroke="black" stroke-width="0.473684"/>
<path d="M13.7288 38.9112L14.8127 36.5906C14.8386 36.5351 14.903 36.5088 14.9606 36.5292C19.4519 38.119 23.5378 38.007 27.3242 36.953C27.3719 36.9397 27.4228 36.9573 27.452 36.9972L29.1019 39.2534C29.1472 39.3155 29.1241 39.4029 29.0526 39.431C25.0728 40.9937 17.605 40.7281 13.7862 39.0679C13.7256 39.0416 13.7009 38.9711 13.7288 38.9112Z" fill="white" stroke="black" stroke-width="0.473684"/>
</g>
<defs>
<clipPath id="clip0_183_3659">
<rect width="23.6842" height="37.8947" fill="white" transform="translate(10.6582 5.09305)"/>
</clipPath>
</defs>
</svg>
