<svg width="45" height="45" viewBox="0 0 45 45" fill="none" xmlns="http://www.w3.org/2000/svg">
<circle cx="22.5" cy="22.5" r="22.5" fill="#E0DDFF"/>
<mask id="mask0_183_3647" style="mask-type:alpha" maskUnits="userSpaceOnUse" x="0" y="0" width="45" height="45">
<circle cx="22.5" cy="22.5" r="22.5" fill="#FFEDEF"/>
</mask>
<g mask="url(#mask0_183_3647)">
<g clip-path="url(#clip0_183_3647)">
<path d="M28.8971 42.9283C27.1918 40.5599 25.8576 35.981 25.6997 33.6915L17.5879 30.198L14.2129 42.9283H28.8971Z" fill="#F9C9B6" stroke="black" stroke-width="0.473684"/>
<mask id="mask1_183_3647" style="mask-type:alpha" maskUnits="userSpaceOnUse" x="14" y="30" width="15" height="15">
<path d="M28.8971 44.1125C27.1918 41.7441 25.8576 35.981 25.6997 33.6915L17.5879 30.198L14.2129 44.1125H28.8971Z" fill="#F9C9B6"/>
</mask>
<g mask="url(#mask1_183_3647)">
<g style="mix-blend-mode:multiply">
<ellipse cx="25.3443" cy="29.9612" rx="6.98684" ry="6.39474" fill="black"/>
</g>
</g>
<mask id="path-6-inside-1_183_3647" fill="white">
<path fillRule="evenodd" clipRule="evenodd" d="M32.4363 22.9647C32.433 22.951 32.4298 22.9372 32.4265 22.9234C32.4232 22.9097 32.4198 22.8959 32.4165 22.8822L30.4748 14.7779C30.4729 14.7699 30.471 14.7619 30.469 14.7539C30.4671 14.7459 30.4652 14.7378 30.4632 14.7298L30.4546 14.6939L30.4545 14.6939C29.2444 9.78598 24.2972 6.76818 19.3739 7.94776C14.4507 9.12733 11.4082 14.0594 12.5536 18.9828L12.5534 18.9828L14.5655 27.381L14.5672 27.3806C15.8228 32.2246 20.7334 35.1894 25.6203 34.0185C30.5073 32.8477 33.5412 27.9794 32.4653 23.0924L32.4668 23.092L32.4363 22.9647Z"/>
</mask>
<path fillRule="evenodd" clipRule="evenodd" d="M32.4363 22.9647C32.433 22.951 32.4298 22.9372 32.4265 22.9234C32.4232 22.9097 32.4198 22.8959 32.4165 22.8822L30.4748 14.7779C30.4729 14.7699 30.471 14.7619 30.469 14.7539C30.4671 14.7459 30.4652 14.7378 30.4632 14.7298L30.4546 14.6939L30.4545 14.6939C29.2444 9.78598 24.2972 6.76818 19.3739 7.94776C14.4507 9.12733 11.4082 14.0594 12.5536 18.9828L12.5534 18.9828L14.5655 27.381L14.5672 27.3806C15.8228 32.2246 20.7334 35.1894 25.6203 34.0185C30.5073 32.8477 33.5412 27.9794 32.4653 23.0924L32.4668 23.092L32.4363 22.9647Z" fill="#F9C9B6"/>
<path d="M32.4364 22.9647L31.9752 23.073L31.9757 23.0751L32.4364 22.9647ZM32.4266 22.9234L32.8872 22.8131L32.8872 22.8131L32.4266 22.9234ZM32.4166 22.8822L31.9559 22.9925L31.9565 22.9946L32.4166 22.8822ZM30.4749 14.7779L30.014 14.8871L30.0142 14.8883L30.4749 14.7779ZM30.4692 14.7539L30.9298 14.6435L30.9298 14.6435L30.4692 14.7539ZM30.4634 14.7298L30.0027 14.8402L30.003 14.8414L30.4634 14.7298ZM30.4547 14.6939L30.9154 14.5835L30.8052 14.1233L30.3449 14.2331L30.4547 14.6939ZM30.4546 14.6939L29.9947 14.8073L30.1072 15.2637L30.5645 15.1547L30.4546 14.6939ZM19.3741 7.94774L19.4844 8.40839L19.3741 7.94774ZM12.5537 18.9828L12.6648 19.4433L13.1216 19.3331L13.0151 18.8754L12.5537 18.9828ZM12.5535 18.9828L12.4425 18.5223L11.9827 18.6332L12.0929 19.0932L12.5535 18.9828ZM14.5656 27.381L14.105 27.4914L14.2153 27.952L14.676 27.8417L14.5656 27.381ZM14.5673 27.3806L15.0258 27.2618L14.9091 26.8116L14.4569 26.92L14.5673 27.3806ZM25.6204 34.0185L25.7308 34.4792L25.6204 34.0185ZM32.4654 23.0924L32.3552 22.6317L31.9028 22.7399L32.0028 23.1942L32.4654 23.0924ZM32.4669 23.092L32.5771 23.5527L33.0379 23.4425L32.9275 22.9817L32.4669 23.092ZM32.8975 22.8564C32.8941 22.8419 32.8907 22.8275 32.8872 22.8131L31.9659 23.0338C31.9691 23.0469 31.9722 23.06 31.9752 23.073L32.8975 22.8564ZM32.8872 22.8131C32.8838 22.7986 32.8803 22.7841 32.8767 22.7697L31.9565 22.9946C31.9596 23.0077 31.9628 23.0207 31.9659 23.0338L32.8872 22.8131ZM30.0142 14.8883L31.9559 22.9925L32.8772 22.7718L30.9355 14.6676L30.0142 14.8883ZM30.9358 14.6688C30.9338 14.6603 30.9318 14.6519 30.9298 14.6435L30.0085 14.8642C30.0103 14.8719 30.0122 14.8795 30.014 14.8871L30.9358 14.6688ZM30.9298 14.6435C30.9278 14.6351 30.9258 14.6267 30.9237 14.6182L30.003 14.8414C30.0049 14.849 30.0067 14.8566 30.0085 14.8643L30.9298 14.6435ZM29.9941 14.8042L30.0027 14.8402L30.924 14.6195L30.9154 14.5835L29.9941 14.8042ZM30.5645 15.1547L30.5646 15.1546L30.3449 14.2331L30.3447 14.2331L30.5645 15.1547ZM30.9145 14.5805C29.6422 9.41992 24.4403 6.24681 19.2637 7.4871L19.4844 8.40839C24.1543 7.28953 28.8469 10.152 29.9947 14.8073L30.9145 14.5805ZM19.2637 7.4871C14.087 8.72738 10.8879 13.9133 12.0924 19.0901L13.0151 18.8754C11.9286 14.2055 14.8145 9.52725 19.4844 8.40839L19.2637 7.4871ZM12.6645 19.4433L12.6648 19.4433L12.4427 18.5223L12.4425 18.5223L12.6645 19.4433ZM15.0263 27.2706L13.0142 18.8725L12.0929 19.0932L14.105 27.4914L15.0263 27.2706ZM14.4569 26.92L14.4553 26.9203L14.676 27.8417L14.6776 27.8413L14.4569 26.92ZM14.1088 27.4995C15.429 32.5929 20.5923 35.7103 25.7308 34.4792L25.5101 33.5579C20.8747 34.6685 16.2167 31.8562 15.0258 27.2618L14.1088 27.4995ZM25.7308 34.4792C30.8693 33.248 34.0593 28.1293 32.928 22.9905L32.0028 23.1942C33.0233 27.8296 30.1455 32.4473 25.5101 33.5579L25.7308 34.4792ZM32.3567 22.6313L32.3552 22.6317L32.5756 23.5531L32.5771 23.5527L32.3567 22.6313ZM31.9757 23.0751L32.0062 23.2024L32.9275 22.9817L32.897 22.8544L31.9757 23.0751Z" fill="black" mask="url(#path-6-inside-1_183_3647)"/>
</g>
<path d="M25.7966 30.749C27.0799 30.5167 27.8318 29.0986 27.5703 27.6537C27.3088 26.2089 26.1076 25.1442 24.8243 25.3764C23.5409 25.6087 22.7891 27.0268 23.0506 28.4717C23.3121 29.9165 24.5132 30.9812 25.7966 30.749Z" fill="black" stroke="black" stroke-width="0.425268"/>
<mask id="mask2_183_3647" style="mask-type:alpha" maskUnits="userSpaceOnUse" x="23" y="25" width="5" height="6">
<ellipse cx="25.3104" cy="28.0627" rx="2.08392" ry="2.51728" transform="rotate(-10.2582 25.3104 28.0627)" fill="#171921"/>
</mask>
<g mask="url(#mask2_183_3647)">
<ellipse cx="25.6965" cy="30.1957" rx="2.39265" ry="2.16766" transform="rotate(-10.2582 25.6965 30.1957)" fill="#FC909F"/>
</g>
<circle cx="20.1216" cy="19.0147" r="1.42105" transform="rotate(-6.27568 20.1216 19.0147)" fill="#D2EFF3"/>
<ellipse cx="20.2743" cy="20.0998" rx="1.06579" ry="1.59868" transform="rotate(-6.77646 20.2743 20.0998)" fill="black"/>
<circle cx="27.6743" cy="17.993" r="1.42105" transform="rotate(-6.27568 27.6743 17.993)" fill="#D2EFF3"/>
<ellipse cx="27.8533" cy="18.9156" rx="1.06579" ry="1.59868" transform="rotate(-6.27568 27.8533 18.9156)" fill="black"/>
<path d="M25.9355 15.6578C26.6066 15.342 28.1855 15.0539 29.1329 16.4276" stroke="black" stroke-width="0.473684" stroke-linecap="round"/>
<path d="M17.0044 18.6547C17.2496 17.9547 18.1509 16.6267 19.7947 16.914" stroke="black" stroke-width="0.473684" stroke-linecap="round"/>
<path d="M17.2994 17.9367L16.5713 17.294" stroke="black" stroke-width="0.473684" stroke-linecap="round"/>
<path d="M28.7729 15.7694L29.501 15.1268" stroke="black" stroke-width="0.473684" stroke-linecap="round"/>
<path d="M18.0632 17.2683L17.584 16.4237" stroke="black" stroke-width="0.473684" stroke-linecap="round"/>
<path d="M27.8909 15.338L28.3701 14.4933" stroke="black" stroke-width="0.473684" stroke-linecap="round"/>
<path d="M19.0194 16.8404L18.7588 15.9049" stroke="black" stroke-width="0.473684" stroke-linecap="round"/>
<path d="M26.8155 15.2653L27.0762 14.3298" stroke="black" stroke-width="0.473684" stroke-linecap="round"/>
<path d="M19.3109 14.3469C19.5344 14.3822 19.5344 14.3823 19.5344 14.3825L19.5343 14.3829L19.5342 14.3838L19.5338 14.386L19.5328 14.3919L19.5291 14.4104C19.526 14.4256 19.5212 14.4465 19.5144 14.473C19.5007 14.5259 19.4784 14.601 19.4432 14.6972C19.3728 14.8897 19.2507 15.166 19.0414 15.517C18.6661 16.1467 18.011 17.016 16.8725 18.0736C20.4216 18.1621 23.3861 17.0188 25.4961 15.8197C26.6045 15.1898 27.4751 14.5457 28.0678 14.0597C28.364 13.8168 28.5906 13.6136 28.7425 13.4717C28.8185 13.4008 28.8758 13.3453 28.9137 13.3078C28.9327 13.289 28.9469 13.2748 28.9561 13.2654L28.9663 13.255L28.9686 13.2526L28.969 13.2522L28.9691 13.2521L29.2393 12.971L29.3493 13.3451L29.1322 13.409L29.3493 13.3452L29.3494 13.3455L29.3497 13.3465L29.3509 13.3505L29.3555 13.3662L29.3735 13.4278L29.4423 13.6639C29.5018 13.8685 29.5874 14.164 29.6915 14.5275C29.8998 15.2544 30.1827 16.2534 30.481 17.3419C31.0763 19.5145 31.7367 22.0566 31.9841 23.4962C32.3977 25.9022 31.7582 27.7291 31.3799 28.8097C31.3063 29.0197 31.2427 29.2016 31.1985 29.354C31.2049 29.3593 31.2132 29.3658 31.224 29.3735C31.2947 29.4236 31.4201 29.4814 31.6013 29.539C31.9584 29.6525 32.468 29.7456 33.0131 29.7981C33.5571 29.8504 34.1235 29.8611 34.5925 29.8153C34.8272 29.7924 35.0313 29.7559 35.1935 29.7064C35.3493 29.6588 35.4469 29.6049 35.4996 29.5563C35.5012 29.5461 35.5033 29.5217 35.4974 29.4748C35.4858 29.3829 35.4494 29.2536 35.3864 29.0824C35.2925 28.827 35.1532 28.5143 34.9905 28.1486C34.9353 28.0246 34.8774 27.8946 34.8176 27.7586C34.3523 26.7 33.7925 25.3233 33.6705 23.9208C33.535 22.3623 33.843 21.0294 34.1198 19.8314L34.133 19.7743C34.4158 18.5498 34.651 17.4865 34.4094 16.4089C34.0428 14.7735 33.5428 13.4119 32.7747 12.4335C32.0149 11.4656 30.9842 10.8614 29.5187 10.7503L29.3673 10.7389L29.3205 10.5945C28.6461 8.51377 27.7357 7.15418 26.5748 6.3111C25.4143 5.46832 23.9748 5.12089 22.2004 5.12089C18.9216 5.12088 15.3909 6.36658 12.7413 8.52172C10.0944 10.6746 8.34268 13.7199 8.57187 17.3244C8.82482 21.3023 8.53653 24.3185 7.88642 26.5272C7.2936 28.5411 6.39513 29.8981 5.31816 30.6896C5.45947 30.7618 5.64784 30.8534 5.88315 30.9583C6.47844 31.2236 7.37415 31.5739 8.56818 31.9089C10.8578 32.5513 14.2459 33.1381 18.7182 32.9613C17.7324 32.1145 16.7378 31.087 15.9502 30.0008C15.0463 28.7542 14.3947 27.4023 14.3757 26.1432C14.353 24.6479 14.4543 20.7352 14.4856 19.9253C14.5584 18.0428 15.7671 16.5918 16.9177 15.6266C17.4964 15.1412 18.0697 14.7707 18.4979 14.5216C18.7123 14.3969 18.8909 14.3023 19.0166 14.2385C19.0794 14.2067 19.129 14.1825 19.1633 14.1662L19.2029 14.1475L19.2135 14.1426L19.2165 14.1412L19.2174 14.1408L19.2177 14.1407C19.2178 14.1407 19.2178 14.1406 19.3109 14.3469ZM19.3109 14.3469L19.5344 14.3822L19.5997 13.9684L19.2178 14.1406L19.3109 14.3469ZM31.1803 29.3353C31.1806 29.3353 31.182 29.3369 31.1837 29.34C31.1809 29.3369 31.1801 29.3353 31.1803 29.3353Z" fill="#D2EFF3" stroke="black" stroke-width="0.452586"/>
<path d="M29.6063 10.5393C29.6656 11.0722 29.5708 12.138 29.4287 12.8485" stroke="black" stroke-width="0.473684"/>
<path d="M24.1734 20.1138C24.1975 20.5688 24.3744 21.5445 24.8897 21.8069C25.5337 22.1349 25.0288 23.2224 23.8232 23.1526" stroke="black" stroke-width="0.473684"/>
<path d="M15.5141 21.5814V21.4489L15.4011 21.3795C14.9589 21.1082 14.4213 20.9598 13.8657 20.9598C13.1977 20.9598 12.5724 21.1667 12.127 21.5868C11.6766 22.0116 11.4335 22.6327 11.4981 23.4071C11.5609 24.1616 11.8142 24.7169 12.2344 25.0859C12.1999 25.2043 12.1897 25.3318 12.2057 25.4661C12.2518 25.8531 12.4474 26.132 12.7498 26.3038C13.038 26.4676 13.4069 26.5255 13.7998 26.5255C14.4487 26.5255 15.0176 26.1765 15.4508 25.7098L15.5141 25.6416V25.5486V21.5814Z" stroke="black" stroke-width="0.473684"/>
<path fillRule="evenodd" clipRule="evenodd" d="M16.2223 23.4447C16.2307 23.3675 16.2351 23.2891 16.2351 23.2098C16.2351 21.9998 15.1093 21.1966 13.8666 21.1966C12.624 21.1966 11.6166 21.9663 11.7351 23.3874C11.801 24.1781 12.0839 24.6985 12.5226 25.0118C12.453 25.133 12.4225 25.2754 12.4418 25.438C12.5163 26.0635 13.0503 26.2887 13.8008 26.2887C15.1159 26.2887 16.1564 24.6253 16.2223 23.4447Z" fill="#F9C9B6"/>
<path d="M14.3899 22.2032C13.9162 21.9861 12.8741 21.8716 12.4951 23.1506" stroke="black" stroke-width="0.473684"/>
<path d="M13.1455 22.2624C13.4021 22.4795 13.8916 23.1505 13.7968 24.0979" stroke="black" stroke-width="0.473684"/>
<circle cx="13.6192" cy="25.5782" r="0.473684" fill="white"/>
<circle cx="13.7385" cy="25.4598" r="0.118421" fill="#FFEDEF"/>
<path d="M22.4734 42.5817L22.6189 42.3948L22.4734 42.5817L22.6773 42.7405L22.8177 42.5236L22.8177 42.5235L22.8179 42.5232L22.8191 42.5215L22.8239 42.5141L22.8439 42.484C22.8617 42.4573 22.8884 42.4179 22.9232 42.3675C22.9929 42.2668 23.0953 42.1226 23.225 41.9503C23.4848 41.6051 23.8524 41.1493 24.2853 40.7036C24.7193 40.2567 25.2121 39.8272 25.7213 39.5283C26.2324 39.2282 26.7372 39.073 27.2057 39.1362C32.2313 39.8138 35.9296 42.0398 38.3303 45.3554H5.96589C7.89612 41.8807 10.6416 39.6691 15.0926 38.6542C15.2823 38.611 15.5402 38.6241 15.8626 38.6991C16.1818 38.7733 16.5456 38.9037 16.938 39.0762C17.7228 39.4211 18.5988 39.9241 19.422 40.4452C20.244 40.9655 21.0072 41.4999 21.5654 41.9045C21.8443 42.1068 22.0717 42.2763 22.2292 42.3952C22.3079 42.4547 22.3692 42.5015 22.4107 42.5333L22.4577 42.5695L22.4696 42.5787L22.4725 42.581L22.4732 42.5815L22.4734 42.5817Z" fill="#9287FF" stroke="black" stroke-width="0.473684"/>
<path d="M13.7894 38.6053L13.8668 38.3169C14.076 37.5382 15.1144 37.2953 15.8109 37.7018C16.335 38.0077 16.8592 38.1932 17.3406 38.3022C18.1708 38.4901 18.8725 39.5217 18.4755 40.2746L18.1014 40.9841C17.8997 41.3666 17.4748 41.5746 17.0623 41.4453C16.2278 41.1836 14.8325 40.5901 13.9193 39.3749C13.7546 39.1558 13.7183 38.87 13.7894 38.6053Z" fill="#E0DDFF" stroke="black" stroke-width="0.473684"/>
<path d="M28.8832 38.5018L28.563 37.963C28.1698 37.3015 27.1346 37.2875 26.4992 37.7215C26.4485 37.7561 26.398 37.7891 26.348 37.8206C25.7904 38.1716 25.4955 38.9269 25.8311 39.494L26.5508 40.71C26.7522 41.0504 27.14 41.2186 27.469 40.999C27.8199 40.7647 28.3055 40.33 28.8624 39.526C29.0735 39.2212 29.0727 38.8204 28.8832 38.5018Z" fill="#E0DDFF" stroke="black" stroke-width="0.473684"/>
<path d="M20.4279 41.0331L19.3622 38.487L18.5332 40.2633L20.4279 41.0331Z" fill="black" stroke="black" stroke-width="0.473684" stroke-linejoin="round"/>
<path d="M24.158 40.9146L25.2238 38.3686L26.0527 40.1449L24.158 40.9146Z" fill="black" stroke="black" stroke-width="0.473684" stroke-linejoin="round"/>
<path d="M15.8097 36.237L14.3887 36.5923L15.5729 37.362L15.8097 36.237Z" fill="black" stroke="black" stroke-width="0.473684" stroke-linejoin="round"/>
<path d="M26.4083 36.237L27.7109 36.5923L26.882 37.362L26.4083 36.237Z" fill="black" stroke="black" stroke-width="0.473684" stroke-linejoin="round"/>
</g>
<defs>
<clipPath id="clip0_183_3647">
<rect width="23.6842" height="37.8947" fill="white" transform="translate(10.6602 5.09277)"/>
</clipPath>
</defs>
</svg>
