<svg width="16" height="12" viewBox="0 0 16 12" fill="none" xmlns="http://www.w3.org/2000/svg">
<path d="M8.94531 5.99934L10.3489 7.62416L12.2364 8.84568L12.5655 6.00934L12.2364 3.23633L10.3127 4.30954L8.94531 5.99934Z" fill="#00832D"/>
<path d="M0.799988 8.58197V10.9984C0.799988 11.5508 1.24181 11.9982 1.7873 11.9982H4.17331L4.66697 10.1718L4.17331 8.58197L2.53602 8.08203L0.799988 8.58197Z" fill="#0066DA"/>
<path d="M4.17331 0L0.799988 3.41627L2.53602 3.91621L4.17331 3.41627L4.65874 1.84812L4.17331 0Z" fill="#E94235"/>
<path d="M4.17331 3.41602H0.799988V8.58209H4.17331V3.41602Z" fill="#2684FC"/>
<path d="M14.392 1.44635L12.2364 3.23614V8.8455L14.4019 10.6436C14.7261 10.9003 15.2 10.6661 15.2 10.2487V1.83297C15.2 1.41052 14.7154 1.17888 14.392 1.44635ZM8.94536 5.99916V8.58219H4.17334V11.9985H11.2491C11.7946 11.9985 12.2364 11.551 12.2364 10.9986V8.8455L8.94536 5.99916Z" fill="#00AC47"/>
<path d="M11.2491 0H4.17334V3.41627H8.94536V5.99931L12.2364 3.23796V0.999885C12.2364 0.447448 11.7946 0 11.2491 0Z" fill="#FFBA00"/>
</svg>
