<svg width="28" height="28" viewBox="0 0 28 28" fill="none" xmlns="http://www.w3.org/2000/svg">
<rect x="0.5" y="0.5" width="27" height="27" rx="13.5"/>
<path d="M14 16C16.2091 16 18 14.2091 18 12C18 9.79086 16.2091 8 14 8C11.7909 8 10 9.79086 10 12C10 14.2091 11.7909 16 14 16Z" stroke="#101010" stroke-miterlimit="10"/>
<path d="M7.93701 19.4994C8.55174 18.4354 9.43564 17.5519 10.4999 16.9376C11.5642 16.3234 12.7714 16 14.0003 16C15.2291 16 16.4363 16.3234 17.5006 16.9377C18.5649 17.552 19.4488 18.4355 20.0635 19.4995" stroke="#101010" stroke-linecap="round" stroke-linejoin="round"/>
<rect x="0.5" y="0.5" width="27" height="27" rx="13.5" stroke="#101010"/>
</svg>
