<svg width="30" height="30" viewBox="0 0 30 30" fill="none" xmlns="http://www.w3.org/2000/svg">
<path fill-rule="evenodd" clip-rule="evenodd" d="M15.0001 29.3996C22.9528 29.3996 29.3998 22.9526 29.3998 14.9998C29.3998 7.04708 22.9528 0.600098 15.0001 0.600098C7.04732 0.600098 0.600342 7.04708 0.600342 14.9998C0.600342 22.0971 5.73495 27.9952 12.4921 29.1819V19.4041H8.82876V15.3398H12.4921V12.2422C12.4921 8.71886 14.6451 6.77187 17.942 6.77187C19.5201 6.77187 21.1714 7.04649 21.1714 7.04649V10.5066H19.351C17.5588 10.5066 17.0008 11.5914 17.0008 12.7035V15.3398H21.0023L20.3626 19.4041H17.0008V29.2298C16.3151 29.3348 15.6146 29.392 14.9017 29.3992C14.9344 29.3995 14.9672 29.3996 15.0001 29.3996Z" />
</svg>
