<svg width="33" height="32" viewBox="0 0 33 32" fill="none" xmlns="http://www.w3.org/2000/svg">
<path d="M8.78324 10.9175H3.06038C2.80639 10.9175 2.60059 11.1234 2.60059 11.3773V29.7624C2.60059 30.0164 2.80639 30.2222 3.06038 30.2222H8.78324C9.03723 30.2222 9.24304 30.0164 9.24304 29.7624V11.3773C9.24304 11.1234 9.03723 10.9175 8.78324 10.9175Z" />
<path d="M5.92383 1.77783C3.84152 1.77783 2.14746 3.47006 2.14746 5.55007C2.14746 7.631 3.84152 9.32387 5.92383 9.32387C8.00449 9.32387 9.69717 7.63091 9.69717 5.55007C9.69727 3.47006 8.00449 1.77783 5.92383 1.77783Z" />
<path d="M23.3383 10.4604C21.0398 10.4604 19.3407 11.4485 18.3101 12.5713V11.3772C18.3101 11.1233 18.1043 10.9174 17.8503 10.9174H12.3697C12.1157 10.9174 11.9099 11.1233 11.9099 11.3772V29.7623C11.9099 30.0163 12.1157 30.2221 12.3697 30.2221H18.0801C18.3341 30.2221 18.5399 30.0163 18.5399 29.7623V20.6659C18.5399 17.6007 19.3724 16.4065 21.5092 16.4065C23.8363 16.4065 24.0212 18.3209 24.0212 20.8236V29.7624C24.0212 30.0164 24.227 30.2222 24.481 30.2222H30.1935C30.4475 30.2222 30.6533 30.0164 30.6533 29.7624V19.6778C30.6533 15.1199 29.7842 10.4604 23.3383 10.4604Z" />
</svg>
