<svg width="33" height="32" viewBox="0 0 33 32" fill="none" xmlns="http://www.w3.org/2000/svg">
<g clip-path="url(#clip0_15092_412370)">
<path d="M9.22507 6.875C14.2095 6.875 18.2499 10.9436 18.2499 15.9621C18.2499 20.9805 14.2092 25.0488 9.22507 25.0488C4.24092 25.0488 0.199951 20.9805 0.199951 15.9621C0.199951 10.9436 4.24062 6.875 9.22507 6.875ZM23.6375 7.4073C26.1298 7.4073 28.1501 11.237 28.1501 15.9621H28.1504C28.1504 20.6859 26.1301 24.5168 23.6378 24.5168C21.1456 24.5168 19.1253 20.6859 19.1253 15.9621C19.1253 11.2382 21.1453 7.4073 23.6375 7.4073ZM30.6129 8.29834C31.4892 8.29834 32.2 11.7294 32.2 15.9621C32.2 20.1934 31.4895 23.6258 30.6129 23.6258C29.7362 23.6258 29.0261 20.1944 29.0261 15.9621C29.0261 11.7297 29.7365 8.29834 30.6129 8.29834Z" />
</g>
<defs>
<clipPath id="clip0_15092_412370">
<rect width="32" height="32" transform="translate(0.199951)"/>
</clipPath>
</defs>
</svg>
