<svg width="32" height="32" viewBox="0 0 32 32" fill="none" xmlns="http://www.w3.org/2000/svg">
<g clip-path="url(#clip0_15092_412373)">
<path fill-rule="evenodd" clip-rule="evenodd" d="M32 16C32 24.8366 24.8366 32 16 32C7.16344 32 0 24.8366 0 16C0 7.16344 7.16344 0 16 0C24.8366 0 32 7.16344 32 16ZM24.749 13.8115C26.1014 13.8115 27.2 14.8679 27.2 16.1683C27.2 17.1321 26.6004 17.957 25.7426 18.3232C25.7776 18.5547 25.7995 18.7904 25.7995 19.0303C25.7995 22.6581 21.4184 25.6 16 25.6C10.5816 25.6 6.19179 22.6581 6.19179 19.0303C6.19179 18.7904 6.2093 18.5547 6.24869 18.319C5.39523 17.9486 4.8 17.1279 4.8 16.1683C4.8 14.8679 5.89855 13.8115 7.25096 13.8115C7.90746 13.8115 8.5027 14.0598 8.94474 14.468C10.6429 13.2896 12.9888 12.5405 15.5973 12.4689L16.8447 6.82929C16.8666 6.71986 16.9366 6.62306 17.0329 6.56414C17.1292 6.50101 17.2474 6.47997 17.3612 6.50522L21.4359 7.33854C21.7204 6.78299 22.3112 6.4 22.9984 6.4C23.9656 6.4 24.749 7.15335 24.749 8.08347C24.749 9.01359 23.9656 9.76694 22.9984 9.76694C22.0617 9.76694 21.3002 9.05568 21.2564 8.16344L17.6063 7.4185L16.4902 12.4731C19.0593 12.5573 21.3702 13.3107 23.0465 14.4722C23.4886 14.064 24.0882 13.8115 24.749 13.8115ZM12.1397 16.1683C11.1769 16.1683 10.3891 16.9217 10.3891 17.8518C10.3891 18.7819 11.1725 19.5353 12.1397 19.5353C13.107 19.5353 13.8904 18.7819 13.8904 17.8518C13.8904 16.9259 13.107 16.1683 12.1397 16.1683ZM15.9956 23.542C16.6653 23.542 18.9587 23.4536 20.1535 22.3046C20.3329 22.132 20.3329 21.8585 20.1579 21.6859C19.9784 21.5176 19.6939 21.5176 19.5145 21.6859C18.7573 22.4098 17.1467 22.6666 15.9956 22.6666C14.8445 22.6666 13.2339 22.4098 12.4811 21.6859C12.3017 21.5176 12.0128 21.5176 11.8377 21.6859C11.6627 21.8585 11.6627 22.1363 11.8377 22.3046C13.0326 23.4536 15.3216 23.542 15.9956 23.542ZM18.0964 17.8518C18.0964 18.7777 18.8799 19.5353 19.8471 19.5353C20.81 19.5353 21.5978 18.7819 21.5978 17.8518C21.5978 16.9259 20.8144 16.1683 19.8471 16.1683C18.8843 16.1683 18.0964 16.9217 18.0964 17.8518Z" fill="white"/>
</g>
<defs>
<clipPath id="clip0_15092_412373">
<rect width="32" height="32" fill="white"/>
</clipPath>
</defs>
</svg>
