<svg width="33" height="32" viewBox="0 0 33 32" fill="none" xmlns="http://www.w3.org/2000/svg">
<g clip-path="url(#clip0_15092_412360)">
<path d="M32.5997 5.79409C31.4227 6.33113 30.1575 6.69394 28.83 6.85716C30.1851 6.02164 31.226 4.69861 31.7159 3.12203C30.4476 3.89584 29.0429 4.45756 27.5477 4.76031C26.3505 3.44814 24.6447 2.62842 22.7567 2.62842C19.1319 2.62842 16.1929 5.65111 16.1929 9.37949C16.1929 9.90864 16.2509 10.424 16.3629 10.9181C10.9078 10.6366 6.07138 7.94869 2.834 3.86408C2.269 4.86117 1.94523 6.02082 1.94523 7.25813C1.94523 9.60047 3.10402 11.6669 4.86524 12.8775C3.78931 12.8425 2.77721 12.5387 1.89228 12.0331C1.89153 12.0613 1.89153 12.0896 1.89153 12.118C1.89153 15.389 4.15409 18.1175 7.1568 18.7381C6.60604 18.8925 6.02616 18.9749 5.42757 18.9749C5.00462 18.9749 4.59352 18.9325 4.19264 18.8538C5.02798 21.5359 7.45194 23.4878 10.3243 23.5421C8.07788 25.353 5.24777 26.4323 2.17243 26.4323C1.64263 26.4323 1.12018 26.4003 0.606689 26.3379C3.5115 28.2536 6.96164 29.3713 10.6684 29.3713C22.7414 29.3713 29.3437 19.084 29.3437 10.1622C29.3437 9.86948 29.3373 9.57841 29.3247 9.28867C30.6069 8.33699 31.7197 7.14805 32.5996 5.79409H32.5997Z"/>
</g>
<defs>
<clipPath id="clip0_15092_412360">
<rect width="32" height="32" transform="translate(0.600098)"/>
</clipPath>
</defs>
</svg>
