<svg width="33" height="32" viewBox="0 0 33 32" fill="none" xmlns="http://www.w3.org/2000/svg">
<g clip-path="url(#clip0_15092_412376)">
<path d="M26.1541 4.67822H7.44604C3.77556 4.67822 0.800049 7.65373 0.800049 11.3242V20.6762C0.800049 24.3467 3.77556 27.3222 7.44604 27.3222H26.1541C29.8245 27.3222 32.8 24.3467 32.8 20.6762V11.3242C32.8 7.65373 29.8245 4.67822 26.1541 4.67822ZM21.6594 16.4552L12.9091 20.6286C12.6759 20.7398 12.4066 20.5698 12.4066 20.3115V11.7039C12.4066 11.4419 12.683 11.2722 12.9166 11.3906L21.667 15.8248C21.9272 15.9566 21.9226 16.3297 21.6594 16.4552Z"/>
</g>
<defs>
<clipPath id="clip0_15092_412376">
<rect width="32" height="32" transform="translate(0.800049)"/>
</clipPath>
</defs>
</svg>
