<?xml version="1.0" standalone="no"?>
<!DOCTYPE svg PUBLIC "-//W3C//DTD SVG 20010904//EN"
 "http://www.w3.org/TR/2001/REC-SVG-20010904/DTD/svg10.dtd">
<svg version="1.0" xmlns="http://www.w3.org/2000/svg"
 width="127.000000pt" height="127.000000pt" viewBox="0 0 127.000000 127.000000"
 preserveAspectRatio="xMidYMid meet">
<metadata>
Created by potrace 1.14, written by Peter Selinger 2001-2017
</metadata>
<g transform="translate(0.000000,127.000000) scale(0.100000,-0.100000)"
fill="#000000" stroke="none">
<path d="M489 1254 c-176 -41 -341 -169 -432 -335 -82 -151 -73 -417 20 -579
125 -217 328 -332 573 -325 123 3 203 26 298 82 155 92 285 278 308 440 35
248 -44 441 -246 604 -134 108 -347 154 -521 113z m60 -314 c17 -17 32 -40 32
-53 1 -12 2 -127 3 -256 1 -248 -1 -264 -46 -301 -28 -24 -95 -26 -126 -4 -46
32 -49 52 -48 327 l1 259 33 29 c46 41 107 41 151 -1z m294 19 c38 -17 62 -67
58 -121 -2 -29 -51 -77 -86 -84 -48 -9 -104 20 -122 64 -40 96 54 185 150 141z
m10 -284 c41 -27 51 -59 51 -168 1 -116 -11 -155 -53 -180 -59 -34 -126 -16
-156 43 -19 36 -21 230 -3 263 31 60 105 79 161 42z"/>
</g>
</svg>
