<svg width="66" height="15" viewBox="0 0 66 15" fill="none" xmlns="http://www.w3.org/2000/svg">
<path opacity="0.3" d="M8.64509 5.57102H12.614V12.596H0V5.57102H3.96895V9.0691H8.63066L8.64509 5.57102ZM22.0674 9.16987C22.0674 10.3647 21.288 11.0557 20.2056 11.0557C19.152 11.0557 18.3582 10.3503 18.3582 9.16987V3.51248H16.5974V9.14108C16.5974 11.358 18.185 12.7687 20.22 12.7687C22.255 12.7687 23.8426 11.358 23.8426 9.14108V3.51248H22.0818L22.0674 9.16987ZM28.3744 6.11804C27.696 6.11804 26.9456 6.40595 26.5559 7.06814V6.29079H24.9106V12.5672H26.6136V8.95393C26.6136 8.23417 27.0466 7.65835 27.7971 7.65835C28.6197 7.65835 28.9661 8.20537 28.9661 8.91075V12.5672H30.6691V8.60845C30.6547 7.22649 29.9331 6.11804 28.3744 6.11804ZM34.6237 8.7668L33.6855 8.57965C33.3247 8.50768 33.1082 8.32054 33.1082 8.01823C33.1082 7.65835 33.4258 7.39923 33.8732 7.39923C34.5082 7.39923 34.7536 7.71593 34.8113 8.10461H36.2834C36.269 7.24088 35.5906 6.11804 33.902 6.11804C32.5454 6.11804 31.5495 7.05374 31.5495 8.17658C31.5495 9.0547 32.098 9.78887 33.3103 10.048L34.1907 10.2351C34.6814 10.3359 34.869 10.5662 34.869 10.8541C34.869 11.1852 34.5659 11.4731 34.0031 11.4731C33.3247 11.4731 32.9495 11.0845 32.8629 10.6382H31.3475C31.4341 11.5739 32.1124 12.7687 34.0175 12.7687C35.6628 12.7687 36.4999 11.7179 36.4999 10.6958C36.4999 9.77447 35.8649 9.02591 34.6237 8.7668ZM43.745 9.41459C43.745 11.3148 42.5471 12.7255 40.7719 12.7255C39.906 12.7255 39.2565 12.38 38.9534 11.9626V15H37.2504V6.29079H38.9101V7.06814C39.1988 6.57869 39.8915 6.14683 40.8441 6.14683C42.677 6.14683 43.745 7.54319 43.745 9.41459ZM42.0564 9.42898C42.0564 8.32054 41.3637 7.67274 40.4977 7.67274C39.6318 7.67274 38.9246 8.32054 38.9246 9.42898C38.9246 10.5374 39.6318 11.1996 40.4977 11.1996C41.3637 11.1996 42.0709 10.5518 42.0564 9.42898ZM51.8705 6.29079H53.5303V12.5672H51.8272V11.8042C51.5386 12.3081 50.8747 12.7255 50.0087 12.7255C48.2335 12.7255 47.0356 11.3148 47.0356 9.41459C47.0356 7.54319 48.1037 6.14683 49.9366 6.14683C50.8891 6.14683 51.5675 6.57869 51.8705 7.06814V6.29079ZM51.8561 9.42898C51.8561 8.32054 51.1489 7.67274 50.283 7.67274C49.417 7.67274 48.7243 8.32054 48.7243 9.42898C48.7243 10.5374 49.417 11.1996 50.283 11.1996C51.1489 11.1996 51.8561 10.5374 51.8561 9.42898ZM44.5388 12.5672H46.2419V3.51248H44.5388V12.5672ZM63.6475 6.11804C63.0413 6.11804 62.3486 6.31958 61.9445 6.80902V3.51248H60.2414V12.5672H61.9445V8.88196C61.9878 8.19098 62.4063 7.65835 63.1279 7.65835C63.9506 7.65835 64.297 8.20537 64.297 8.91075V12.5816H66V8.60845C65.9856 7.22649 65.2495 6.11804 63.6475 6.11804ZM57.5858 8.7668L56.6621 8.57965C56.3013 8.50768 56.0848 8.32054 56.0848 8.01823C56.0848 7.65835 56.4024 7.39923 56.8498 7.39923C57.4848 7.39923 57.7302 7.71593 57.7879 8.10461H59.26C59.2456 7.24088 58.5672 6.11804 56.8786 6.11804C55.522 6.11804 54.5261 7.05374 54.5261 8.17658C54.5261 9.0547 55.0746 9.78887 56.2869 10.048L57.1529 10.2351C57.6436 10.3359 57.8312 10.5662 57.8312 10.8541C57.8312 11.1852 57.5281 11.4731 56.9652 11.4731C56.2869 11.4731 55.9117 11.0845 55.8251 10.6382H54.3096C54.3962 11.5739 55.0746 12.7687 56.9797 12.7687C58.6394 12.7687 59.4621 11.7179 59.4621 10.6958C59.4621 9.77447 58.827 9.02591 57.5858 8.7668ZM8.64509 0H3.96895V3.51248H8.63066L8.64509 0Z" fill="white"/>
</svg>
