<svg width="1440" height="788" viewBox="0 0 1440 788" fill="none" xmlns="http://www.w3.org/2000/svg">
<path fill-rule="evenodd" clip-rule="evenodd" d="M697.512 508.921C694.007 508.921 690.486 509.04 686.965 509.159C679.273 509.42 671.579 509.68 664.047 508.697C630.924 504.358 613.514 487.066 607.413 454.127C600.404 416.283 614.04 387.644 647.873 369.195C667.413 358.544 670.149 352.127 666.743 329.813L666.669 329.326C664.956 318.118 663.193 306.587 664.166 295.44C665.375 281.62 673.541 270.574 686.743 265.433C707.637 257.294 721.563 242.711 730.807 222.763C735.988 211.573 744.89 205.367 757.408 204.104C761.169 203.723 765.455 202.447 768.217 200.081C770.833 197.832 773.411 193.374 772.964 190.35C772.503 187.299 768.743 183.368 765.626 182.421C761.3 181.119 756.119 181.606 751.504 182.421C738.499 184.722 729.965 177.332 733.252 164.459C735.041 157.463 739.288 150.073 744.6 145.208C759.262 131.756 772.07 116.858 783.076 100.474C810.098 60.2629 867.745 57.3569 901.341 88.6788C902.3 89.5726 903.257 90.4689 904.214 91.3654C908.693 95.5597 913.177 99.7589 917.857 103.735C920.829 106.26 924.195 108.442 927.666 110.231C931.822 112.387 935.03 111.375 937.134 106.68C941.763 96.4107 947.259 95.3324 955.227 103.722C959.869 108.613 964.866 109.337 970.691 107.798C974.491 106.799 978.397 105.72 981.816 103.866C1004.37 91.5717 1029.09 87.1009 1054.03 83.3007C1057.06 82.8405 1060.05 82.1567 1062.99 81.3151C1068.25 79.803 1071.18 76.5156 1070.55 70.6904C1069.86 64.3656 1071.21 58.8823 1077.36 55.6212C1083.58 52.3339 1089.21 54.0827 1094.6 57.6725C1095.69 58.3957 1096.78 59.1452 1097.86 59.8948C1106.03 65.58 1106.13 65.5091 1113.64 60.273C1113.91 60.0835 1114.19 59.8873 1114.48 59.6844C1118.12 57.1465 1122.66 55.0689 1127.01 54.5167C1147.05 52.0051 1164.66 43.4186 1181.94 33.7932L1183.2 33.0899C1203.25 21.9215 1223.29 10.7584 1245.88 5.259C1261.29 1.51142 1276.84 -1.18421 1292.69 0.525211C1298.85 1.19583 1305.26 2.9447 1310.73 5.78497C1319.36 10.2821 1319.9 18.0139 1313.79 25.3381C1312.09 27.3693 1310.95 29.8569 1309.81 32.344L1309.81 32.3472C1309.3 33.4656 1308.79 34.5839 1308.22 35.6604C1309.42 36.172 1310.62 36.8014 1311.81 37.4307C1314.42 38.8074 1317.04 40.1841 1319.72 40.3285C1327.5 40.7664 1335.34 40.4928 1343.17 40.2197C1344.98 40.1565 1346.79 40.0935 1348.59 40.0392C1368.95 39.4474 1387.75 44.5757 1404.44 56.1472C1417.15 64.9704 1429.83 66.7062 1443.9 59.8027C1469 47.4686 1494.46 48.389 1520.36 57.6988C1541.13 65.1677 1562.03 72.4393 1583.28 78.2908C1592.5 80.8286 1602.91 80.8681 1612.51 79.7635C1641.99 76.371 1667.91 85.26 1691.92 101.118C1701.57 107.482 1704.44 115.306 1701.34 121.986C1698.26 128.627 1689.81 130.967 1678.59 128.245C1677.41 127.958 1676.23 127.659 1675.05 127.359C1673.26 126.904 1671.47 126.449 1669.67 126.036C1661.71 124.208 1658.56 125.708 1656.5 133.61C1650.4 156.951 1632.82 166.221 1611.4 169.824C1595.58 172.48 1593.71 173.585 1592.11 189.732C1591.2 198.871 1588.08 206.879 1579.07 211.034C1573.49 213.611 1567.95 213.664 1563.43 208.707C1559.27 204.144 1558.64 196.898 1562.34 191.652C1563.56 189.91 1565.05 188.345 1566.54 186.782C1568.24 184.996 1569.94 183.213 1571.24 181.172C1574.81 175.557 1577.9 169.574 1580.67 163.512C1582.77 158.91 1579.88 156.135 1575.87 154.307C1568.2 150.823 1558.51 153.44 1552.96 160.593C1551.76 162.145 1550.53 163.801 1549.87 165.603C1545.43 177.766 1535.71 181.224 1523.98 181.961C1506.5 183.065 1489.04 184.301 1471.6 185.892C1467.58 186.261 1463.45 187.746 1459.84 189.6C1451.45 193.913 1450.96 203.263 1458.81 208.601C1461.71 210.57 1465.15 211.848 1468.47 213.086L1468.9 213.243C1480.95 217.74 1488.58 226.511 1491.39 238.674C1492.46 243.263 1490.92 248.931 1489.05 253.48C1488.2 255.571 1483.69 257.096 1480.86 257.057C1479.82 257.039 1478.8 255.228 1477.77 253.407L1477.77 253.406C1477.3 252.568 1476.83 251.728 1476.35 251.061C1475.69 250.141 1475.09 249.082 1474.49 248.023C1473.15 245.647 1471.8 243.271 1469.82 242.461C1464.94 240.489 1461.62 244.841 1459.73 248.825L1458.98 250.403C1454.71 259.349 1450.43 268.335 1447.19 277.662C1443.18 289.207 1436.01 295.992 1423.82 297.702C1420.66 298.149 1417.4 299.451 1414.71 301.173C1406.04 306.722 1404.53 314.914 1410.03 324.579C1410.41 325.256 1410.83 325.94 1411.25 326.63C1414.01 331.127 1416.91 335.869 1411.93 340.464C1407.22 344.808 1402.9 341.818 1398.85 339.017C1397.95 338.392 1397.06 337.777 1396.18 337.255C1393.42 335.609 1390.87 333.628 1388.31 331.645C1387.05 330.666 1385.79 329.687 1384.5 328.747C1376.67 323.001 1368.29 322.423 1361.25 327.13C1354.97 331.338 1353.06 337.886 1355.55 347.669C1356.27 350.502 1357.09 353.312 1357.91 356.121L1357.91 356.122C1359.18 360.46 1360.45 364.795 1361.33 369.208C1366.2 393.443 1349.03 415.704 1324.44 417.427C1324.01 417.456 1323.59 417.485 1323.17 417.513C1315.28 418.038 1307.58 418.552 1302.67 426.776C1298.73 433.39 1297.34 439.965 1301.14 446.619C1305.01 453.43 1309.6 459.873 1314.3 466.172C1321.7 476.126 1328 486.54 1330 499.006C1331.52 508.539 1329.37 516.929 1321.28 522.964C1313.36 528.868 1304.46 530.052 1295.95 525.305C1288.99 521.426 1282.27 516.547 1276.65 510.893C1265.43 499.624 1257.06 486.212 1251.51 471.234C1242.58 447.132 1223.76 435.06 1199.94 430.59C1176.15 426.132 1160.52 437.085 1152.98 460.031C1149.81 469.67 1145.88 479.479 1140.21 487.803C1130.02 502.793 1115.57 501.715 1107.5 485.396C1103.33 476.981 1101 467.303 1099.69 457.927C1097.91 445.238 1093.76 434.022 1084.41 425.343C1062.22 404.764 1036.95 389.432 1007.22 382.476C997.753 380.267 988.009 380.07 979.199 385.553C972.256 389.879 971.125 393.087 974.965 400.214C976.685 403.402 978.649 406.464 980.612 409.524C983.029 413.292 985.445 417.058 987.404 421.056C990.718 427.828 993.979 435.06 995.057 442.398C996.596 453.009 990.981 459.86 980.487 462.411C977.077 463.236 973.606 463.811 970.134 464.385C966.913 464.918 963.69 465.451 960.514 466.185L960.082 466.284C955.325 467.374 949.871 468.624 949.718 474.877C949.56 481.267 954.202 484.489 959.804 486.29C961.437 486.813 963.095 487.265 964.753 487.717C966.686 488.243 968.617 488.77 970.507 489.407C978.029 491.945 980.777 496.56 977.108 503.49C973.282 510.735 968.377 517.691 962.775 523.661C954.097 532.905 944.866 541.755 935.07 549.802C918.449 563.438 912.163 580.072 917.186 601.098C918.281 605.69 918.622 610.487 918.959 615.235V615.236L918.968 615.361C919.001 615.819 919.033 616.276 919.067 616.732C919.619 624.307 917.397 631.171 911.966 636.496C899.763 648.449 893.452 663.045 890.046 679.626C886.417 697.338 879.434 713.946 868.205 728.358C856.975 742.783 842.577 749.87 823.918 746.149C811.557 743.69 803.418 735.682 797.211 725.478C786.192 707.358 780.774 687.187 778.618 666.437C776.553 646.463 775.817 626.279 775.778 606.187C775.751 590.96 772.254 577.652 761.655 566.528C756.132 560.729 755.791 553.642 756.435 546.239C756.509 545.371 756.597 544.499 756.686 543.625C757.017 540.342 757.351 537.035 756.987 533.826C755.278 518.585 745.915 510.669 727.756 509.578C720.84 509.162 713.898 509.269 706.954 509.376C703.811 509.424 700.668 509.473 697.526 509.473V508.894L697.512 508.921ZM875.524 369.418C884.385 369.22 896.19 367.404 905.799 359.767C909.047 357.176 911.834 351.811 911.756 347.775C911.65 342.212 907.337 337.899 901.275 336.65C898.948 336.164 896.476 335.743 894.135 335.993C885.22 336.94 878.119 333.955 871.637 327.735C864.313 320.7 862.038 320.897 853.254 326.223C843.826 331.93 832.701 329.747 826.916 320.411C824.458 316.44 822.336 312.262 820.212 308.081L820.211 308.08C818.664 305.034 817.115 301.987 815.436 299.017C812.977 294.664 810.361 290.259 807.034 286.59C805.522 284.921 801.603 283.763 799.723 284.565C798.04 285.289 797.264 288.97 796.856 291.469C796.661 292.639 797.018 293.891 797.378 295.151L797.378 295.152C797.576 295.846 797.774 296.542 797.882 297.228C799.118 305.289 796.83 307.367 788.901 305.092C786.045 304.271 783.214 303.35 780.383 302.428C776.137 301.046 771.891 299.664 767.559 298.622C753.976 295.348 742.286 298.438 732.332 308.944C728.488 312.994 724.226 316.639 719.96 320.286L719.96 320.287L719.96 320.287C716.58 323.177 713.197 326.07 710.017 329.168C707.335 331.772 704.061 335.901 704.376 338.978C704.916 344.237 710.425 345.526 715.198 345.263C715.615 345.24 716.031 345.217 716.448 345.195L717.162 345.156C724.374 344.767 731.652 344.374 738.644 342.844C758.381 338.504 775.87 340.976 790.623 356.203C797.369 363.173 806.495 366.736 816.041 367.315C829.261 368.121 842.506 368.483 856.856 368.875L856.858 368.876L856.877 368.876C862.873 369.04 869.063 369.209 875.524 369.418ZM115.047 405.198C113.396 404.093 111.695 403.045 109.993 401.997L109.992 401.997C106.244 399.689 102.495 397.38 99.2936 394.468C85.117 381.584 75.5203 365.345 65.9119 349.087L65.9097 349.083C64.4765 346.658 63.0432 344.232 61.5942 341.818C51.0616 324.237 46.9064 304.96 44.6184 285.038C42.83 269.522 38.0963 255.137 28.8128 242.448C12.2971 219.896 -5.91479 198.936 -29.084 182.881C-34.2781 179.278 -39.8665 176.109 -45.6128 173.479C-69.6894 162.447 -92.0039 164.84 -111.899 183.052C-114.644 185.567 -117.318 188.161 -119.993 190.755L-119.993 190.755C-122.982 193.655 -125.971 196.554 -129.059 199.344C-136.686 206.234 -142.3 207.352 -148.52 203.67C-155.621 199.475 -158.119 192.874 -155.108 183.065C-153.004 176.201 -150.177 169.442 -146.771 163.13C-140.538 151.546 -140.578 140.264 -146.153 128.521C-149.243 122.012 -152.123 115.319 -154.161 108.429C-159.736 89.5726 -148.888 73.0569 -129.506 69.8222C-117.093 67.7534 -105.342 70.6547 -93.5867 73.5572C-92.1917 73.9016 -90.7966 74.2461 -89.4003 74.5823C-83.6672 75.9629 -77.9867 77.6198 -72.3324 79.3292C-55.488 84.4443 -38.2492 85.8644 -20.9972 82.919C4.68362 78.5271 29.9831 79.6974 55.3088 85.2727C60.345 86.3773 65.8021 86.351 70.9698 85.8644C77.7023 85.2333 82.7648 79.5659 82.344 74.3587C81.9232 69.2304 76.7292 65.2067 69.8258 64.9306C68.2679 64.8703 66.6988 65.0354 65.1258 65.2009L65.1257 65.201C64.2955 65.2883 63.4643 65.3758 62.633 65.4303C61.8005 65.4883 60.9635 65.5761 60.1255 65.6639L60.1249 65.664C58.1175 65.8744 56.1051 66.0853 54.1385 65.8905C45.4862 65.0489 38.4907 58.4348 38.1226 51.1237C37.7544 43.8258 43.356 36.4884 52.4686 36.0677C60.5837 35.6915 68.8471 37.1628 77.0018 38.6148L77.0026 38.6149C78.2556 38.8381 79.506 39.0607 80.7529 39.2761C84.7504 39.9599 88.6426 41.9849 92.2455 44.0099C103.567 50.3611 115.691 53.2408 128.564 54.2927C145.724 55.6997 153.009 62.2876 157.256 78.8821C159.307 86.8638 163.121 90.4404 169.998 90.8218C177.072 91.2162 187.053 85.6277 189.025 79.9998C190.645 75.3859 188.133 72.4619 185.574 69.4844L185.574 69.4841C184.997 68.8128 184.418 68.1388 183.884 67.4421C183.747 67.2644 183.61 67.0862 183.473 66.9075C183.374 66.7799 183.276 66.6521 183.177 66.524C180.651 63.2498 178.001 59.8139 176.822 56.0153C174.469 48.4807 178.019 41.7482 185.554 39.2235C206.317 32.2412 216.521 35.3444 228.381 48.3623C238.164 59.1054 243.148 59.4604 254.772 51.1895C262.872 45.4169 271.617 46.1401 279.519 50.9396C286.068 54.9107 292.642 56.2651 300.059 56.0416C312.603 55.6603 323.096 61.5906 332.38 68.928C343.843 77.9757 354.94 87.4837 366.036 96.9906L366.046 96.9986C370.412 100.739 374.778 104.48 379.165 108.192C379.268 108.279 379.376 108.367 379.485 108.455C380.087 108.947 380.738 109.477 380.927 110.112C381.221 111.088 381.606 112.095 381.994 113.108C383.01 115.765 384.04 118.461 383.478 120.737C382.334 125.378 377.495 125.681 373.051 125.194C365.004 124.326 363.557 126.312 364.688 134.32C365.069 136.976 364.057 140.553 362.334 142.486C361.295 143.656 357.324 143.209 355.207 142.262C350.026 139.948 345.043 137.134 340.217 134.123C332.34 129.205 324.017 127.837 315.036 129.928C314.891 129.961 314.744 129.997 314.596 130.033C314.484 130.061 314.371 130.089 314.258 130.118C312.986 130.436 311.646 130.772 310.512 130.467C310.191 130.38 309.854 130.292 309.509 130.203C307.153 129.593 304.402 128.881 303.53 127.298C302.491 125.392 303.083 121.683 304.345 119.579C310.828 108.692 308.54 103.577 295.64 102.459C290.946 102.051 285.844 102.327 281.4 103.761C262.267 109.941 245.646 120.355 232.813 135.99C220.097 151.48 224.331 166.904 243.608 172.401C253.234 175.136 263.885 175.188 274.023 174.873C282.241 174.623 289.21 169.547 292.997 162.249C302.215 144.458 327.238 145.089 338.718 162.368C342.189 167.601 346.279 172.65 350.921 176.845C356.667 182.052 359.652 181.329 364.583 175.412C372.052 166.444 376.312 166.931 382.058 177.489C382.109 177.584 382.161 177.678 382.212 177.772L382.285 177.907C383.15 179.497 384.036 181.125 384.544 182.841C387.581 193.045 394.116 200.185 403.124 205.669C408.305 208.824 413.275 212.677 417.457 217.056C424.491 224.42 422.545 233.979 413.065 237.74C408.878 239.407 404.257 240.026 399.659 240.641C398.163 240.842 396.67 241.042 395.195 241.277C392.122 241.763 389.033 242.169 385.945 242.576C380.588 243.281 375.232 243.986 369.961 245.104C367.515 245.617 364.096 248.562 363.873 250.679C363.662 252.743 366.503 256.005 368.817 257.28C371.868 258.962 375.159 260.21 378.454 261.459L378.456 261.459C380.286 262.153 382.119 262.848 383.912 263.618C384.051 263.677 384.19 263.736 384.329 263.796L384.629 263.923L384.629 263.923C387.206 265.018 389.839 266.137 392.065 267.773C397.325 271.613 397.009 277.109 390.961 279.397C384.899 281.685 378.35 283.553 371.933 283.894C349.934 285.091 334.957 297.031 323.057 314.164C321.338 316.64 319.714 319.188 318.092 321.734L318.091 321.735C315.232 326.221 312.377 330.701 309.013 334.769C302.504 342.633 295.417 350.102 287.895 356.992C281.084 363.225 279.874 365.973 283.635 374.467C286.922 381.897 285.844 388.235 280.716 391.575C275.325 395.086 269.723 393.863 263.871 387.696C262.07 385.802 260.453 383.698 258.954 381.555C246.606 363.961 224.831 359.556 206.751 371.18C199.203 376.032 193.956 382.449 194.088 392.061C194.219 402.068 200.636 409.05 210.59 409.616C225.12 410.444 236.113 415.954 241.596 430.537C244.41 438.005 250.288 442.161 258.848 442.41C267.225 442.66 271.485 446.513 273.471 454.823C274.378 458.637 274.891 462.582 275.167 466.5C276.179 480.938 294.115 489.525 305.805 483.502C307.204 482.782 308.621 482.093 310.037 481.404L310.038 481.404C312.759 480.08 315.479 478.756 318.073 477.217C330.618 469.748 343.504 469.827 356.47 475.56C361.848 477.927 367.252 480.675 371.854 484.265C386.634 495.784 403.15 502.227 421.783 503.963C435.182 505.212 446.648 511.484 455.577 521.254C466.385 533.089 479.627 539.848 494.828 543.713C500.955 545.278 506.964 547.395 512.869 549.683C522.244 553.312 527.622 560.61 529.358 570.262C533.303 592.09 528.582 611.67 512.829 627.83C508.109 632.669 503.125 637.508 497.484 641.164C482.441 650.907 471.224 663.925 461.297 678.679C454.643 688.567 446.556 697.654 438.141 706.135C434.603 709.712 428.752 711.618 423.624 712.815C417.904 714.156 413.63 716.562 412.157 722.164C409.08 733.867 401.349 739.995 390.014 742.94C380.52 745.399 374.366 751.869 370.382 760.863C366.463 769.706 362.305 778.445 358.147 787.184L358.147 787.185C356.221 791.232 354.295 795.28 352.393 799.338C347.686 809.358 346.673 820.193 357.824 828.727C357.911 828.794 358 828.862 358.092 828.932L358.095 828.934C359.26 829.823 360.714 830.934 360.848 832.067C361.226 835.399 361.304 838.768 361.382 842.135V842.136C361.41 843.338 361.438 844.541 361.479 845.742C360.264 845.767 358.989 845.92 357.714 846.074C354.934 846.408 352.155 846.743 350 845.742C336.351 839.378 327.002 828.898 321.808 814.46C312.84 789.542 313.852 764.426 320.19 739.416C323.099 727.956 326.487 716.617 329.876 705.278L329.877 705.275C332.814 695.446 335.751 685.616 338.376 675.707C340.822 666.476 342.202 656.825 342.86 647.291C343.728 634.812 338.218 624.78 328.159 617.403C325.456 615.422 322.668 613.556 319.88 611.689L319.879 611.688L319.877 611.686C317.389 610.021 314.901 608.355 312.472 606.607C305.147 601.334 299.783 594.457 297.245 585.765C294.47 576.245 289.276 568.382 282.452 561.32C273.26 551.827 273.392 545.541 282.557 535.968C292.195 525.896 289.684 515.416 275.93 513.259C259.203 510.643 247.816 501.267 239.479 487.907C226.935 467.802 209.078 455.086 187.381 446.829C164.567 438.15 148.933 420.674 133.929 402.515C132.986 401.372 132.083 400.192 131.179 399.012L131.178 399.01C129.411 396.702 127.646 394.395 125.592 392.377C124.439 391.251 122.783 390.639 121.124 390.026C120.381 389.751 119.638 389.477 118.939 389.155C118.7 389.844 118.431 390.529 118.162 391.214L118.162 391.215C117.527 392.833 116.891 394.453 116.651 396.125C116.421 397.725 116.596 399.391 116.772 401.057L116.772 401.058V401.058C116.848 401.773 116.923 402.488 116.966 403.199L114.994 405.132L115.047 405.198ZM1506.57 765.978C1529.44 755.353 1538.94 736.536 1540.22 711.71V711.697C1540.11 710.667 1540.01 709.575 1539.91 708.444C1539.68 705.75 1539.42 702.829 1538.86 699.968C1535.89 684.701 1527.57 672.499 1516.13 662.452C1505.24 652.893 1497.85 641.413 1494.23 627.383C1493.31 623.806 1491.88 620.295 1490.16 617.034C1485.9 608.961 1477.01 606.804 1469.55 612.064C1467.08 613.8 1464.94 616.114 1463.03 618.481C1455.46 627.948 1448.08 627.755 1440.9 617.902C1430.76 603.977 1414.76 600.769 1400.55 610.473C1394.44 614.641 1388.84 619.691 1383.62 624.95C1373.63 635.023 1362.6 643.241 1349.41 648.803C1341.82 652.012 1334.27 655.996 1327.76 661.006C1297.9 683.952 1303.31 728.042 1337.78 743.308C1342.12 745.215 1347.95 746.201 1352.38 745.004C1364.57 741.73 1376.68 737.759 1388.28 732.789C1411.25 722.966 1431.17 725.675 1448.62 744.307C1454.43 750.514 1461.03 756.076 1467.77 761.296C1479.63 770.501 1492.56 772.487 1506.57 765.978Z" fill="#F6F6F6"/>
</svg>
