<svg width="72" height="28" viewBox="0 0 72 28" fill="none" xmlns="http://www.w3.org/2000/svg">
<path d="M13.4755 9.75746H17.4278V5.40133C17.4278 4.18245 16.8513 3.57301 15.6705 3.57301H15.2259C14.059 3.57301 13.4685 4.18937 13.4685 5.40133V9.75746H13.4824H13.4755ZM13.4755 12.5415L13.4894 17.327C13.4894 18.5459 14.0798 19.1484 15.2467 19.1484H15.7608C16.9277 19.1484 17.5181 18.5459 17.5181 17.327V14.9723H20.2063V17.2093C20.2063 20.2842 18.7129 21.8563 15.7469 21.8563H15.1564C12.1904 21.8563 10.697 20.298 10.697 17.5763V5.87226C10.697 2.4303 12.1904 0.87207 15.1564 0.87207H15.7469C18.7129 0.87207 20.2063 2.4303 20.2063 5.50521L20.1924 12.5276H13.4755V12.5415Z" fill="#101010"/>
<path d="M24.7841 18.0539C25.5482 18.7326 26.4234 19.1135 27.3403 19.1135C28.3613 19.1135 28.9518 18.6149 28.9518 17.4375V5.26948C28.9518 4.09215 28.3613 3.59351 27.3403 3.59351C26.4234 3.59351 25.5412 3.97442 24.7841 4.65311V18.047V18.0539ZM22.0056 1.11419H24.7841V2.45081C25.437 1.73056 26.5692 0.892578 28.1807 0.892578C30.5563 0.892578 31.7233 2.52699 31.7233 4.95783V17.8046C31.7233 20.2354 30.5563 21.8698 28.1807 21.8698C26.5692 21.8698 25.437 21.0734 24.7841 20.3947V27.0155H22.0056V1.11419Z" fill="#101010"/>
<path d="M40.0587 18.1722V11.406L37.5372 12.4033C36.5161 12.8188 36.1827 13.359 36.1827 14.5363V17.6528C36.1827 18.6501 36.6551 19.1279 37.5372 19.1279C38.4194 19.1279 39.1487 18.8301 40.0587 18.1722ZM33.4043 14.4809C33.4043 11.9324 34.2031 10.9074 36.3286 10.1525L40.0517 8.8159V5.40164C40.0517 4.18276 39.4613 3.54561 38.2944 3.54561H37.8498C36.6829 3.54561 36.0924 4.18968 36.0924 5.40164V8.30342H33.3904V5.51937C33.3904 2.44446 34.8838 0.88623 37.8498 0.88623H38.3777C41.3437 0.88623 42.8371 2.44446 42.8371 5.51937V21.635H40.0587V20.3399C39.2946 21.1017 38.2596 21.8566 36.662 21.8566C34.4323 21.8566 33.4112 20.52 33.4112 18.2484V14.4809H33.4043Z" fill="#101010"/>
<path d="M54.0683 21.6341H51.2898V5.10296C51.2898 4.08491 50.8175 3.62783 49.977 3.62783C49.2129 3.62783 48.4002 3.92563 47.4208 4.64588V21.641H44.6423V1.11388H47.4208V2.4505C48.2335 1.65407 49.2824 0.878418 50.8175 0.878418C52.2484 0.878418 53.193 1.49479 53.7071 2.55438C54.7073 1.67485 55.8743 0.878418 57.4719 0.878418C59.6252 0.878418 60.7227 2.24966 60.7227 4.48659V21.6202H57.9442V5.10296C57.9442 4.08491 57.4719 3.62783 56.6314 3.62783C55.8673 3.62783 55.0546 3.92563 54.0752 4.64588V21.641L54.0683 21.6341Z" fill="#101010"/>
<path d="M0 10.0622V12.8323L7.14064 19.8063V15.9488L2.46589 11.4057L7.14064 6.77948V2.99817L0 10.0622Z" fill="#101010"/>
<path d="M64.25 6.77936L68.9178 11.4056L64.25 15.9625V19.8062L71.3907 12.8322V10.062L64.25 2.99805V6.77936Z" fill="#101010"/>
</svg>
