<svg width="114" height="28" viewBox="0 0 114 28" fill="none" xmlns="http://www.w3.org/2000/svg">
<path d="M49.7855 13.218H43.121C42.954 13.218 42.8108 13.3528 42.8108 13.5272V16.7703C42.8108 16.9447 42.946 17.0795 43.121 17.0795H45.7216V21.1155C45.7216 21.1155 45.141 21.3137 43.5265 21.3137C41.6258 21.3137 38.9616 20.616 38.9616 14.7959C38.9616 8.97583 41.7292 8.19876 44.3298 8.19876C46.5805 8.19876 47.5507 8.59522 48.1631 8.78552C48.354 8.84896 48.529 8.65073 48.529 8.47628L49.2686 5.3363C49.2686 5.25701 49.2447 5.16186 49.1493 5.09049C48.8948 4.91605 47.3678 4.05969 43.5107 4.05969C39.065 4.05969 34.5 5.94685 34.5 15.0179C34.5 24.089 39.725 25.437 44.123 25.437C47.7655 25.437 49.9764 23.8828 49.9764 23.8828C50.0639 23.8352 50.0798 23.7084 50.0798 23.6529V13.5272C50.0798 13.3528 49.9366 13.218 49.7696 13.218H49.7855ZM83.4741 4.84469H79.7283C79.5533 4.84469 79.4181 4.98741 79.4181 5.15393V12.3775H73.5727V5.15393C73.5727 4.97948 73.4295 4.84469 73.2625 4.84469H69.5088C69.3418 4.84469 69.1986 4.98741 69.1986 5.15393V24.7233C69.1986 24.8978 69.3338 25.0326 69.5088 25.0326H73.2625C73.4295 25.0326 73.5727 24.8898 73.5727 24.7233V16.358H79.4181L79.4022 24.7233C79.4022 24.8978 79.5374 25.0326 79.7123 25.0326H83.4661C83.6411 25.0326 83.7763 24.8898 83.7763 24.7233L83.7922 5.15393C83.7922 4.97948 83.657 4.84469 83.4821 4.84469H83.4741ZM54.263 5.28873C52.9269 5.28873 51.8453 6.37503 51.8453 7.72301C51.8453 9.07098 52.9269 10.1573 54.263 10.1573C55.5991 10.1573 56.6807 9.07098 56.6807 7.72301C56.6807 6.37503 55.5991 5.28873 54.263 5.28873ZM56.4182 11.5687C56.4182 11.4022 56.283 11.2595 56.1081 11.2595H52.3702C52.1952 11.2595 52.0441 11.4339 52.0441 11.6083V24.5489C52.0441 24.9295 52.2827 25.0405 52.5929 25.0405H55.9649C56.3308 25.0405 56.4262 24.8581 56.4262 24.5409C56.4262 23.8511 56.4262 21.1314 56.4262 20.608C56.4262 20.1085 56.4262 11.5766 56.4262 11.5766L56.4182 11.5687ZM97.9961 11.2832H94.2741C94.1071 11.2832 93.964 11.426 93.964 11.5925V21.1869C93.964 21.1869 93.0176 21.8767 91.6736 21.8767C90.3295 21.8767 89.9716 21.2741 89.9716 19.9578V11.5925C89.9716 11.418 89.8285 11.2832 89.6614 11.2832H85.8838C85.7088 11.2832 85.5736 11.426 85.5736 11.5925V20.5922C85.5736 24.4854 87.7448 25.437 90.743 25.437C93.2005 25.437 95.1808 24.0811 95.1808 24.0811C95.1808 24.0811 95.2762 24.7947 95.316 24.874C95.3557 24.9612 95.4671 25.0405 95.5864 25.0405H97.9802C98.1472 25.0405 98.2904 24.8978 98.2904 24.7312V11.5846C98.2904 11.418 98.1552 11.2753 97.9802 11.2753L97.9961 11.2832ZM108.192 10.8392C106.076 10.8392 104.637 11.7828 104.637 11.7828V5.15393C104.637 4.97948 104.494 4.84469 104.327 4.84469H100.565C100.398 4.84469 100.255 4.98741 100.255 5.15393V24.7233C100.247 24.8978 100.382 25.0326 100.557 25.0326H103.181C103.301 25.0326 103.388 24.9691 103.452 24.866C103.515 24.763 103.611 23.9621 103.611 23.9621C103.611 23.9621 105.146 25.4132 108.057 25.4132C111.476 25.4132 113.433 23.6846 113.433 17.6504C113.433 11.6163 110.299 10.8313 108.184 10.8313L108.192 10.8392ZM106.728 21.8688C105.44 21.8291 104.565 21.2424 104.565 21.2424V15.0417C104.565 15.0417 105.432 14.5104 106.49 14.4153C107.834 14.2964 109.13 14.7007 109.13 17.8883C109.13 21.2503 108.542 21.9084 106.736 21.8609L106.728 21.8688ZM67.266 21.7974C67.099 21.7974 66.6775 21.8609 66.248 21.8609C64.8722 21.8609 64.395 21.2186 64.395 20.3939V14.891H67.2104C67.3853 14.891 67.5205 14.7563 67.5205 14.5818V11.5687C67.5205 11.3942 67.3853 11.2595 67.2104 11.2595H64.395V7.55649C64.395 7.41377 64.3155 7.3424 64.1564 7.3424H60.3231C60.172 7.3424 60.0925 7.40584 60.0925 7.54856V11.3784C60.0925 11.3784 58.1679 11.8383 58.0406 11.8779C57.9134 11.9176 57.818 12.0365 57.818 12.1792V14.5897C57.818 14.7642 57.9611 14.899 58.1281 14.899H60.0925V20.6873C60.0925 24.985 63.1226 25.4132 65.1585 25.4132C66.089 25.4132 67.2024 25.1119 67.3933 25.0484C67.5046 25.0088 67.5683 24.8898 67.5683 24.7709V22.1225C67.5683 21.9481 67.4251 21.8133 67.266 21.8133V21.7974Z" fill="#101010"/>
<path fill-rule="evenodd" clip-rule="evenodd" d="M13.8858 0.88C6.21125 0.88 0 7.07274 0 14.7245C0 20.8538 3.97646 26.0237 9.49579 27.8632C10.1877 27.9822 10.4501 27.5699 10.4501 27.2051C10.4501 26.88 10.4342 25.7858 10.4342 24.6281C6.9429 25.2704 6.04422 23.7797 5.76587 23.0026C5.60681 22.6061 4.9308 21.3771 4.34229 21.0441C3.85716 20.7824 3.16526 20.1402 4.32639 20.1243C5.42389 20.1084 6.20327 21.1313 6.45777 21.5436C7.70638 23.6369 9.70256 23.0502 10.5058 22.6854C10.6251 21.7815 10.9909 21.1789 11.3886 20.83C8.2949 20.4811 5.06601 19.2917 5.06601 13.995C5.06601 12.4884 5.60681 11.2435 6.48959 10.2762C6.35439 9.92728 5.86132 8.50794 6.6248 6.60492C6.6248 6.60492 7.78591 6.24017 10.4422 8.02426C11.5556 7.71501 12.7326 7.55643 13.9176 7.55643C15.1026 7.55643 16.2796 7.71501 17.393 8.02426C20.0493 6.22432 21.2104 6.60492 21.2104 6.60492C21.9739 8.50794 21.4888 9.92728 21.3457 10.2762C22.2284 11.2435 22.7692 12.4726 22.7692 13.995C22.7692 19.3076 19.5244 20.489 16.4308 20.83C16.9318 21.2661 17.3692 22.0907 17.3692 23.3911C17.3692 25.2466 17.3533 26.7294 17.3533 27.1972C17.3533 27.5619 17.6157 27.9901 18.3076 27.8553C21.0673 26.9276 23.4611 25.1594 25.1551 22.8044C26.8491 20.4494 27.7637 17.6186 27.7637 14.7165C27.7637 7.06482 21.5524 0.87207 13.8779 0.87207L13.8858 0.88Z" fill="#101010"/>
</svg>
