<svg width="109" height="37" viewBox="0 0 109 37" fill="none" xmlns="http://www.w3.org/2000/svg">
<path d="M46.637 19.7065C46.637 24.8498 42.5987 28.6426 37.6408 28.6426C32.6828 28.6426 28.6445 24.8498 28.6445 19.7065C28.6445 14.5632 32.6828 10.7704 37.6408 10.7704C42.5987 10.7704 46.637 14.5299 46.637 19.7065ZM42.6991 19.7065C42.6991 16.4888 40.358 14.2881 37.6408 14.2881C34.9235 14.2881 32.5825 16.4888 32.5825 19.7065C32.5825 22.9242 34.9235 25.1249 37.6408 25.1249C40.358 25.1249 42.6991 22.8908 42.6991 19.7065Z" fill="#101010"/>
<path d="M66.0433 19.7065C66.0433 24.8498 62.005 28.6426 57.047 28.6426C52.0891 28.6426 48.0508 24.8498 48.0508 19.7065C48.0508 14.5632 52.0891 10.7704 57.047 10.7704C62.005 10.7704 66.0433 14.5299 66.0433 19.7065ZM62.1053 19.7065C62.1053 16.4888 59.7643 14.2881 57.047 14.2881C54.3298 14.2881 51.9887 16.4888 51.9887 19.7065C51.9887 22.9242 54.3298 25.1249 57.047 25.1249C59.7643 25.1249 62.1053 22.8908 62.1053 19.7065Z" fill="#101010"/>
<path d="M84.6352 11.3122V27.3589C84.6352 33.961 80.7307 36.6535 76.1155 36.6535C71.7679 36.6535 69.1509 33.7526 68.1643 31.3852L71.5923 29.9597C72.2026 31.4185 73.6992 33.1357 76.1071 33.1357C79.0585 33.1357 80.8895 31.3185 80.8895 27.8924V26.6087H80.7557C79.8778 27.6923 78.1806 28.6426 76.0319 28.6426C71.5505 28.6426 67.4453 24.7497 67.4453 19.7399C67.4453 14.73 71.5505 10.7704 76.0319 10.7704C78.1722 10.7704 79.8695 11.7207 80.7557 12.771H80.8895V11.3122H84.6268H84.6352ZM81.1738 19.7399C81.1738 16.5889 79.0668 14.2881 76.3914 14.2881C73.7159 14.2881 71.4 16.5889 71.4 19.7399C71.4 22.8908 73.6741 25.1249 76.3914 25.1249C79.1087 25.1249 81.1738 22.8575 81.1738 19.7399Z" fill="#101010"/>
<path d="M90.7986 1.90137V28.1012H86.9609V1.90137H90.7986Z" fill="#101010"/>
<path d="M105.765 22.6491L108.825 24.6831C107.838 26.1419 105.464 28.6426 101.359 28.6426C96.2671 28.6426 92.4629 24.7164 92.4629 19.7065C92.4629 14.3882 96.3005 10.7704 100.916 10.7704C105.531 10.7704 107.847 14.4632 108.591 16.4555L109.001 17.4725L97.0112 22.424C97.9309 24.2163 99.3522 25.1332 101.359 25.1332C103.365 25.1332 104.753 24.1496 105.773 22.6574L105.765 22.6491ZM96.359 19.4314L104.369 16.1137C103.926 14.9967 102.605 14.2215 101.041 14.2215C99.0429 14.2215 96.2587 15.9803 96.359 19.4314Z" fill="#101010"/>
<path d="M14.1131 17.3807V13.5879H26.9302C27.0556 14.2464 27.1225 15.03 27.1225 15.8803C27.1225 18.7228 26.3449 22.2406 23.8283 24.7497C21.3786 27.2921 18.26 28.6426 14.1214 28.6426C6.44619 28.6426 0 22.4156 0 14.7632C0 7.11085 6.44619 0.883911 14.1131 0.883911C18.3604 0.883911 21.3786 2.54276 23.6528 4.7101L20.9689 7.38594C19.3386 5.86046 17.1313 4.67676 14.1131 4.67676C8.51131 4.67676 4.13024 9.17817 4.13024 14.7632C4.13024 20.3483 8.51131 24.8497 14.1131 24.8497C17.75 24.8497 19.8151 23.3909 21.1445 22.0739C22.2231 20.9985 22.9254 19.473 23.2096 17.3807H14.1214H14.1131Z" fill="#101010"/>
</svg>
