<svg width="124" height="27" viewBox="0 0 124 27" fill="none" xmlns="http://www.w3.org/2000/svg">
<path d="M124 12.0958V9.9218H121.29V6.5444L121.196 6.57545L118.657 7.35187L118.611 7.3674V9.92956H114.6V8.50096C114.6 7.83325 114.748 7.32858 115.044 6.98695C115.332 6.6531 115.753 6.48229 116.282 6.48229C116.664 6.48229 117.061 6.57545 117.458 6.74627L117.559 6.79285V4.50243L117.513 4.4869C117.139 4.35491 116.633 4.28503 116.01 4.28503C115.223 4.28503 114.499 4.45585 113.876 4.79747C113.253 5.13909 112.755 5.62047 112.412 6.2416C112.069 6.85496 111.89 7.56926 111.89 8.36121V9.92956H110.006V12.1035H111.89V21.2574H114.592V12.1035H118.603V17.9189C118.603 20.318 119.74 21.5292 121.975 21.5292C122.341 21.5292 122.73 21.4826 123.127 21.405C123.532 21.3196 123.805 21.2341 123.961 21.141L124 21.1177V18.9204L123.89 18.9903C123.743 19.0912 123.563 19.1689 123.345 19.2232C123.127 19.2853 122.948 19.3164 122.808 19.3164C122.286 19.3164 121.897 19.1767 121.656 18.8971C121.414 18.6176 121.29 18.1285 121.29 17.4452V12.0958H124ZM103.963 19.3164C102.982 19.3164 102.203 18.9903 101.658 18.3537C101.105 17.7092 100.832 16.7931 100.832 15.6284C100.832 14.4638 101.113 13.4855 101.658 12.8334C102.203 12.1812 102.974 11.8551 103.939 11.8551C104.905 11.8551 105.621 12.1734 106.159 12.7945C106.696 13.4157 106.969 14.3551 106.969 15.5663C106.969 16.7775 106.712 17.7403 106.205 18.3769C105.699 19.0058 104.944 19.3242 103.963 19.3242M104.08 9.65782C102.203 9.65782 100.715 10.2091 99.6563 11.2883C98.5973 12.3675 98.06 13.866 98.06 15.7294C98.06 17.5928 98.5817 18.9282 99.6174 19.9686C100.653 21.009 102.063 21.5369 103.807 21.5369C105.551 21.5369 107.085 20.9857 108.145 19.891C109.204 18.7962 109.741 17.321 109.741 15.4964C109.741 13.6719 109.235 12.2588 108.246 11.2262C107.249 10.1935 105.847 9.67335 104.087 9.67335M93.7069 9.67335C92.4297 9.67335 91.3784 9.99944 90.5763 10.6361C89.7665 11.2805 89.3537 12.1268 89.3537 13.1517C89.3537 13.6874 89.4394 14.1533 89.6185 14.557C89.7976 14.9607 90.0624 15.3101 90.4284 15.6129C90.7866 15.9079 91.3395 16.2185 92.0715 16.5291C92.6867 16.7853 93.1462 16.9949 93.4421 17.1657C93.7302 17.3288 93.9327 17.4996 94.0417 17.6549C94.1507 17.8102 94.213 18.0276 94.213 18.2993C94.213 19.0602 93.6446 19.4329 92.4687 19.4329C92.0326 19.4329 91.5342 19.3397 90.9891 19.1611C90.444 18.9825 89.9378 18.7263 89.4706 18.3925L89.3615 18.3148V20.9158L89.4005 20.9313C89.782 21.1099 90.2649 21.2574 90.8333 21.3739C91.4018 21.4904 91.9158 21.5525 92.3674 21.5525C93.7536 21.5525 94.8672 21.2264 95.677 20.582C96.4947 19.9298 96.9074 19.068 96.9074 18.012C96.9074 17.2511 96.6816 16.5912 96.2455 16.0632C95.8094 15.543 95.0541 15.0617 93.995 14.6346C93.1539 14.3008 92.6166 14.0213 92.3908 13.8039C92.1728 13.5942 92.0637 13.2992 92.0637 12.9343C92.0637 12.6082 92.1961 12.3442 92.4764 12.1268C92.7568 11.9094 93.1384 11.8007 93.629 11.8007C94.0806 11.8007 94.5401 11.8706 94.9995 12.0104C95.459 12.1501 95.8639 12.3364 96.1988 12.5616L96.3078 12.6392V10.178L96.2689 10.1625C95.9574 10.0305 95.5524 9.91403 95.054 9.82086C94.5634 9.72769 94.1118 9.68111 93.7224 9.68111M82.314 19.3475C81.3328 19.3475 80.5541 19.0214 80.009 18.3847C79.4561 17.7403 79.1835 16.8241 79.1835 15.6595C79.1835 14.4949 79.4639 13.5166 80.009 12.8644C80.5541 12.2122 81.325 11.8861 82.2906 11.8861C83.2563 11.8861 83.9727 12.2045 84.51 12.8256C85.0474 13.4467 85.3199 14.3862 85.3199 15.5974C85.3199 16.8086 85.0629 17.7713 84.5568 18.408C84.0506 19.0369 83.2952 19.3552 82.314 19.3552M82.4308 9.68887C80.5541 9.68887 79.0667 10.2401 78.0076 11.3193C76.9486 12.3986 76.4112 13.897 76.4112 15.7604C76.4112 17.6238 76.933 18.9593 77.9687 19.9996C79.0044 21.04 80.4139 21.568 82.1583 21.568C83.9026 21.568 85.4367 21.0168 86.4958 19.922C87.5549 18.8273 88.0922 17.3521 88.0922 15.5275C88.0922 13.7029 87.586 12.2899 86.5892 11.2572C85.5925 10.2246 84.1907 9.7044 82.4308 9.7044M72.2995 11.9405V9.97615H69.6285V21.304H72.2995V15.512C72.2995 14.5259 72.5254 13.7185 72.9692 13.1051C73.4053 12.4995 73.9894 12.1967 74.698 12.1967C74.9394 12.1967 75.212 12.2355 75.5001 12.3132C75.7882 12.3908 75.9985 12.4762 76.1231 12.5616L76.2321 12.6392V9.95285L76.1854 9.93733C75.9362 9.82863 75.5858 9.78204 75.1419 9.78204C74.4722 9.78204 73.8726 9.99944 73.3508 10.4187C72.8991 10.7914 72.5721 11.3038 72.3229 11.9405H72.2917H72.2995ZM64.8393 9.7044C63.6167 9.7044 62.5186 9.96838 61.592 10.4808C60.6575 11.001 59.941 11.7386 59.4504 12.6781C58.9598 13.6175 58.7107 14.7123 58.7107 15.9312C58.7107 17.0027 58.9521 17.981 59.4271 18.8506C59.9021 19.7201 60.5718 20.3956 61.4284 20.8692C62.2772 21.3428 63.2584 21.5758 64.3487 21.5758C65.618 21.5758 66.7005 21.3196 67.5726 20.8226L67.6116 20.7994V18.3614L67.5025 18.4468C67.1054 18.7341 66.6693 18.9593 66.1943 19.1223C65.7192 19.2853 65.2909 19.3708 64.9172 19.3708C63.8659 19.3708 63.0248 19.0447 62.4174 18.4002C61.8022 17.7558 61.4907 16.8474 61.4907 15.7061C61.4907 14.5648 61.8178 13.6253 62.4564 12.942C63.0949 12.2588 63.9359 11.9094 64.9639 11.9094C65.8438 11.9094 66.7004 12.2045 67.5103 12.7945L67.6194 12.8722V10.3022L67.5804 10.2789C67.2767 10.1081 66.8562 9.96838 66.3422 9.85969C65.8283 9.75099 65.3221 9.69664 64.8471 9.69664M56.8728 9.96838H54.2018V21.2963H56.8728V9.96838ZM55.5646 5.13909C55.1285 5.13909 54.7391 5.28661 54.4276 5.58165C54.1084 5.87668 53.9526 6.24936 53.9526 6.69192C53.9526 7.13447 54.1084 7.49162 54.4276 7.7789C54.7391 8.06617 55.1207 8.21369 55.5724 8.21369C56.024 8.21369 56.4056 8.06617 56.7249 7.7789C57.0442 7.49162 57.1999 7.12671 57.1999 6.69192C57.1999 6.25712 57.0442 5.89997 56.7327 5.58941C56.4212 5.28661 56.0318 5.13133 55.5724 5.13133M48.9064 9.12209V21.2885H51.632V5.44965H47.8551L43.0582 17.189L38.4013 5.44965H34.4688V21.2574H37.0308V9.09104H37.1164L42.0302 21.2574H43.9615L48.8052 9.09104H48.8908L48.9064 9.12209Z" fill="#101010"/>
<path d="M12.6234 12.7012H0.046875V0.162109H12.6234V12.7012Z" fill="#101010"/>
<path d="M26.5062 12.7012H13.9297V0.162109H26.5062V12.7012Z" fill="#101010"/>
<path d="M12.6234 26.5451H0.046875V14.006H12.6234V26.5451Z" fill="#101010"/>
<path d="M26.5062 26.5451H13.9297V14.006H26.5062V26.5451Z" fill="#101010"/>
</svg>
