<svg width="117" height="16" viewBox="0 0 117 16" fill="none" xmlns="http://www.w3.org/2000/svg">
<path d="M50.5119 10.5791H58.2404L54.1536 4.11567L46.6476 15.8029H43.2352L52.3597 1.76232C52.7576 1.19221 53.4185 0.854126 54.1536 0.854126C54.8887 0.854126 55.5226 1.18558 55.907 1.74243L65.0719 15.8095H61.6596L60.0478 13.1976H52.2181L50.5119 10.5857V10.5791ZM85.978 13.191V0.993338H83.0782V14.3842C83.0782 14.7488 83.2198 15.1068 83.4963 15.3786C83.7728 15.6504 84.1437 15.8029 84.5551 15.8029H97.7664L99.4726 13.191H85.9713H85.978ZM38.0424 11.0034C40.8546 11.0034 43.1408 8.76933 43.1408 6.00497C43.1408 3.24062 40.8546 0.993338 38.0424 0.993338H25.3638V15.8029H28.257V3.60522H37.8468C39.1956 3.60522 40.2747 4.67914 40.2747 6.00497C40.2747 7.3308 39.1956 8.40473 37.8468 8.40473L29.6799 8.39147L38.3324 15.8029H42.5406L36.7206 11.0034H38.0424ZM7.53297 15.8029C3.37198 15.8029 0 12.4949 0 8.40473C0 4.31454 3.37198 0.993338 7.53297 0.993338H16.2865C20.4475 0.993338 23.8195 4.31454 23.8195 8.40473C23.8195 12.4949 20.4475 15.8029 16.2865 15.8029H7.53297ZM16.0977 13.191C18.7953 13.191 20.9736 11.0498 20.9736 8.40473C20.9736 5.7597 18.7885 3.60522 16.0977 3.60522H7.72857C5.03775 3.60522 2.85266 5.75307 2.85266 8.40473C2.85266 11.0564 5.03775 13.191 7.72857 13.191H16.0977ZM71.1213 15.8029C66.9603 15.8029 63.5816 12.4949 63.5816 8.40473C63.5816 4.31454 66.9603 0.993338 71.1213 0.993338H81.5203L79.8276 3.60522H71.3168C68.626 3.60522 66.4342 5.75307 66.4342 8.40473C66.4342 11.0564 68.6192 13.191 71.3168 13.191H81.7631L80.057 15.8029H71.1213ZM106.554 13.191C104.328 13.191 102.44 11.7259 101.867 9.70404H114.249L115.955 7.09215H101.867C102.447 5.08352 104.328 3.60522 106.554 3.60522H115.051L116.771 0.993338H106.358C102.197 0.993338 98.8185 4.31454 98.8185 8.40473C98.8185 12.4949 102.197 15.8029 106.358 15.8029H115.294L117 13.191H106.554Z" fill="#101010"/>
</svg>
