<svg width="133" height="33" viewBox="0 0 133 33" fill="none" xmlns="http://www.w3.org/2000/svg">
<path fill-rule="evenodd" clip-rule="evenodd" d="M88.5688 15.6719C87.0927 15.6719 85.7667 16.2779 84.8274 17.2459C83.9118 16.2779 82.6094 15.664 81.1649 15.664C80.3519 15.664 79.531 15.9631 78.8917 16.3881V16.2779C78.8917 16.0733 78.718 15.9159 78.5207 15.9159H76.4684C76.2711 15.9159 76.0975 16.0733 76.0975 16.2779V26.5164C76.0975 26.721 76.2711 26.8784 76.4684 26.8784H78.5286C78.7259 26.8784 78.8996 26.721 78.8996 26.5164V20.6535C78.8996 19.41 79.9178 18.3948 81.1649 18.3948C82.412 18.3948 83.4303 19.4022 83.4303 20.6535V26.5164C83.4303 26.721 83.6039 26.8784 83.8012 26.8784H85.8692C86.0666 26.8784 86.2403 26.721 86.2403 26.5164V20.6535C86.2403 19.41 87.2743 18.4027 88.5688 18.4027C89.8633 18.4027 90.8973 19.4179 90.8973 20.6535V26.5164C90.8973 26.721 91.0709 26.8784 91.2682 26.8784H93.3363C93.5336 26.8784 93.7073 26.721 93.7073 26.5164V20.6535C93.7073 17.8991 91.4024 15.6719 88.5767 15.6719H88.5688ZM103.968 21.1414C103.187 20.6692 102.177 20.441 101.301 20.2442H101.285C100.645 20.0947 100.085 19.9688 99.6824 19.7799C99.2798 19.591 99.0983 19.3786 99.0983 19.0874C99.0983 18.8355 99.193 18.6073 99.4219 18.4342C99.6587 18.2532 100.038 18.1115 100.637 18.0801C101.656 18.0801 102.437 18.1037 102.974 18.1273C103.242 18.1351 103.447 18.1509 103.582 18.1588C103.653 18.1588 103.7 18.1588 103.732 18.1666C103.747 18.1666 103.763 18.1666 103.771 18.1666H103.779H103.787H103.795C103.953 18.1666 104.095 18.1351 104.197 18.0328C104.284 17.9463 104.3 17.8282 104.308 17.7731C104.308 17.7731 104.308 17.7731 104.308 17.7653C104.308 17.7417 104.308 17.7259 104.316 17.7102V17.6866V16.4274C104.316 16.2779 104.308 16.1362 104.245 16.0261C104.174 15.8923 104.047 15.8529 103.953 15.8293H103.945H103.937H103.921C103.921 15.8293 103.897 15.8293 103.882 15.8293C103.85 15.8293 103.795 15.8214 103.732 15.8136C103.597 15.7978 103.392 15.7821 103.124 15.7664C102.579 15.7349 101.75 15.7034 100.622 15.7034C99.1772 15.7585 98.0722 16.1598 97.3381 16.7894C96.5962 17.4269 96.2331 18.2768 96.2331 19.2054C96.2331 19.8114 96.3752 20.3151 96.6199 20.7243C96.8645 21.1335 97.2197 21.4483 97.6144 21.6923C98.3958 22.1723 99.4061 22.4005 100.282 22.6052H100.298C100.937 22.7547 101.498 22.8885 101.9 23.0773C102.295 23.2662 102.485 23.4787 102.485 23.7856C102.485 24.0374 102.366 24.2578 102.082 24.4309C101.79 24.6119 101.308 24.73 100.606 24.73C99.8087 24.73 98.9325 24.6434 98.2616 24.5568C97.9222 24.5175 97.6381 24.4703 97.4328 24.4388C97.3302 24.4231 97.2513 24.4073 97.196 24.3995C97.1803 24.3995 97.1645 24.3995 97.1566 24.3995C97.1487 24.3995 97.1408 24.3995 97.1329 24.3995H97.1171H97.1013H97.0855C96.9435 24.3995 96.8093 24.4231 96.7067 24.5254C96.6198 24.6119 96.604 24.7221 96.5962 24.7693C96.5962 24.7693 96.5962 24.7693 96.5962 24.7772C96.5962 24.8087 96.5882 24.8244 96.5804 24.8402V24.8638L96.4935 26.2803C96.4935 26.3748 96.5093 26.4849 96.5567 26.5872C96.612 26.6895 96.6988 26.784 96.8408 26.8233V26.7918V26.8233C96.8408 26.8233 96.8409 26.8233 96.8566 26.8233C96.8645 26.8233 96.8882 26.8233 96.9119 26.8312C96.9593 26.8391 97.0224 26.8548 97.1092 26.8627C97.2829 26.8942 97.5354 26.9256 97.867 26.965C98.5221 27.0358 99.4614 27.1145 100.622 27.1145H100.63C100.772 27.1145 101.932 27.1224 103.061 26.7053C103.629 26.4928 104.197 26.1701 104.631 25.6743C105.066 25.1707 105.35 24.5018 105.35 23.6203C105.35 23.0144 105.208 22.5186 104.955 22.1094C104.703 21.7001 104.355 21.3932 103.953 21.1493L103.968 21.1414ZM127.182 15.6955C126.03 15.6955 124.956 16.1048 124.057 16.695V12.0833C124.057 11.8787 123.883 11.7213 123.686 11.7213H121.626C121.428 11.7213 121.255 11.8787 121.255 12.0833V26.5085C121.255 26.7131 121.428 26.8705 121.626 26.8705H123.686C123.883 26.8705 124.057 26.7131 124.057 26.5085V26.0757C124.878 26.6502 126.038 27.083 127.182 27.083C130.505 27.083 133 24.4703 133 21.4798C133 18.143 130.427 15.6877 127.182 15.6877V15.6955ZM127.182 24.2814C125.691 24.2814 124.38 22.9593 124.38 21.4798C124.38 19.6855 125.785 18.4972 127.182 18.4972C128.856 18.4972 130.198 19.6225 130.198 21.4798C130.198 22.8334 129.108 24.2814 127.182 24.2814ZM118.089 15.9159H116.021C115.824 15.9159 115.65 16.0733 115.65 16.2779V22.1644C115.65 23.3843 114.616 24.3916 113.322 24.3916H113.29C111.996 24.3916 110.962 23.3921 110.962 22.1644V16.2779C110.962 16.0733 110.788 15.9159 110.591 15.9159H108.523C108.325 15.9159 108.152 16.0733 108.152 16.2779V22.1644C108.152 24.8874 110.457 27.0909 113.282 27.0909H113.314C116.14 27.0909 118.445 24.8952 118.445 22.1644V16.2779C118.445 16.0733 118.271 15.9159 118.074 15.9159H118.089ZM58.835 21.1414C58.0535 20.6692 57.0432 20.441 56.1671 20.2442H56.1513C55.5119 20.0947 54.9515 19.9688 54.5489 19.7799C54.1464 19.591 53.9649 19.3786 53.9649 19.0874C53.9649 18.8355 54.0596 18.6073 54.2885 18.4342C54.5253 18.2532 54.9042 18.1115 55.504 18.0801C56.5223 18.0801 57.3037 18.1037 57.8405 18.1273C58.1088 18.1351 58.314 18.1509 58.4482 18.1588C58.5192 18.1588 58.5666 18.1588 58.5982 18.1666C58.614 18.1666 58.6297 18.1666 58.6376 18.1666H58.6455H58.6534H58.6613C58.8192 18.1666 58.9613 18.1351 59.0639 18.0328C59.1507 17.9463 59.1665 17.8282 59.1744 17.7731C59.1744 17.7731 59.1744 17.7731 59.1744 17.7653C59.1744 17.7417 59.1744 17.7259 59.1823 17.7102V17.6866V16.4274C59.1823 16.2779 59.1744 16.1362 59.1112 16.0261C59.0402 15.8923 58.9139 15.8529 58.8192 15.8293H58.8113H58.8034H58.7876C58.7876 15.8293 58.7639 15.8293 58.7481 15.8293C58.7166 15.8293 58.6613 15.8214 58.5982 15.8136C58.464 15.7978 58.2588 15.7821 57.9904 15.7664C57.4458 15.7349 56.617 15.7034 55.4882 15.7034C54.0438 15.7585 52.9387 16.1598 52.2047 16.7894C51.4627 17.4269 51.0996 18.2768 51.0996 19.2054C51.0996 19.8114 51.2417 20.3151 51.4864 20.7243C51.7311 21.1335 52.0863 21.4483 52.4809 21.6923C53.2624 22.1723 54.2727 22.4005 55.1488 22.6052H55.1646C55.804 22.7547 56.3644 22.8885 56.7669 23.0773C57.1616 23.2662 57.3511 23.4787 57.3511 23.7856C57.3511 24.0374 57.2327 24.2578 56.9485 24.4309C56.6565 24.6119 56.175 24.73 55.4725 24.73C54.6753 24.73 53.7991 24.6434 53.1282 24.5568C52.7888 24.5175 52.5046 24.4703 52.2994 24.4388C52.1968 24.4231 52.1179 24.4073 52.0626 24.3995C52.0468 24.3995 52.031 24.3995 52.0232 24.3995C52.0153 24.3995 52.0073 24.3995 51.9994 24.3995H51.9836H51.9679H51.9521C51.81 24.3995 51.6758 24.4231 51.5732 24.5254C51.4864 24.6119 51.4706 24.7221 51.4627 24.7693C51.4627 24.7693 51.4627 24.7693 51.4627 24.7772C51.4627 24.8087 51.4548 24.8244 51.4469 24.8402V24.8638L51.3601 26.2803C51.3601 26.3748 51.3759 26.4849 51.4233 26.5872C51.4785 26.6895 51.5653 26.784 51.7074 26.8233V26.7918V26.8233C51.7074 26.8233 51.7074 26.8233 51.7232 26.8233C51.7311 26.8233 51.7548 26.8233 51.7785 26.8312C51.8258 26.8391 51.889 26.8548 51.9758 26.8627C52.1494 26.8942 52.402 26.9256 52.7335 26.965C53.3886 27.0358 54.3279 27.1145 55.4882 27.1145H55.4961C55.6382 27.1145 56.7985 27.1224 57.9273 26.7053C58.4956 26.4928 59.0639 26.1701 59.498 25.6743C59.9321 25.1707 60.2163 24.5018 60.2163 23.6203C60.2163 23.0144 60.0742 22.5186 59.8216 22.1094C59.569 21.7001 59.2218 21.3932 58.8271 21.1571L58.835 21.1414ZM72.948 15.9159H70.88C70.6827 15.9159 70.5091 16.0733 70.5091 16.2779V22.1644C70.5091 23.3843 69.475 24.3916 68.1806 24.3916H68.149C66.8545 24.3916 65.8205 23.3921 65.8205 22.1644V16.2779C65.8205 16.0733 65.6468 15.9159 65.4495 15.9159H63.3815C63.1841 15.9159 63.0105 16.0733 63.0105 16.2779V22.1644C63.0105 24.8874 65.3153 27.0909 68.1411 27.0909H68.1727C70.9984 27.0909 73.3032 24.8952 73.3032 22.1644V16.2779C73.3032 16.0733 73.1296 15.9159 72.9323 15.9159H72.948Z" fill="#101010"/>
<path fill-rule="evenodd" clip-rule="evenodd" d="M6.25065 21.0707C6.25065 21.3304 6.4638 21.5429 6.72428 21.5429H11.3812C11.6417 21.5429 11.8549 21.3304 11.8549 21.0707V18.7491H14.1834C14.4439 18.7491 14.657 18.576 14.657 18.3163V16.4276C14.657 16.1679 14.4439 15.9554 14.1834 15.9554H6.72428C6.4638 15.9554 6.25065 16.1679 6.25065 16.4276V21.0707ZM6.25065 10.8479C6.25065 10.5882 6.03756 10.3757 5.77708 10.3757H1.12006C0.859582 10.3757 0.646484 10.5882 0.646484 10.8479V15.4911C0.646484 15.7508 0.859582 15.9632 1.12006 15.9632H2.97499C3.23547 15.9632 3.44857 15.7508 3.44857 15.4911V13.1695H5.77708C6.03756 13.1695 6.25065 12.9964 6.25065 12.7367V10.8558V10.8479ZM9.05278 27.5947C9.05278 27.335 8.83964 27.1225 8.57916 27.1225H6.72428C6.4638 27.1225 6.25065 27.335 6.25065 27.5947V29.4362C6.25065 29.6959 6.4638 29.9163 6.72428 29.9163H8.57916C8.83964 29.9163 9.05278 29.6959 9.05278 29.4362V27.5947ZM42.1964 10.3757H37.5394C37.2789 10.3757 37.0658 10.5882 37.0658 10.8479V12.6973C37.0658 12.957 37.2789 13.1695 37.5394 13.1695H39.8679V15.4911C39.8679 15.7508 40.081 15.9632 40.3415 15.9632H42.1964C42.4569 15.9632 42.67 15.7508 42.67 15.4911V10.8479C42.67 10.5882 42.4569 10.3757 42.1964 10.3757ZM36.5922 15.9554H29.1331C28.8727 15.9554 28.6595 16.1679 28.6595 16.4276V18.2769C28.6595 18.5366 28.8727 18.7491 29.1331 18.7491H31.4616V21.0707C31.4616 21.3304 31.6195 21.5429 31.88 21.5429H36.5922C36.8527 21.5429 37.0658 21.3304 37.0658 21.0707V16.4276C37.0658 16.1679 36.8527 15.9554 36.5922 15.9554ZM33.7901 29.9084H31.4616V27.6026C31.4616 27.3429 31.2011 27.1146 30.9328 27.1146H28.6595V22.0072C28.6595 21.7475 28.3991 21.535 28.1386 21.535H25.8574V16.4669C25.8574 16.2072 25.6048 15.9554 25.3444 15.9554H17.9011C17.6406 15.9554 17.459 16.2072 17.459 16.4669V21.535H15.1069C14.8464 21.535 14.657 21.779 14.657 22.0387V27.1225H12.3127C12.0522 27.1225 11.8549 27.3507 11.8549 27.6104V29.9163H9.51056C9.25008 29.9163 9.05278 30.1366 9.05278 30.3963V32.2378C9.05278 32.4975 9.25008 32.7022 9.51056 32.7022H14.1597C14.4202 32.7022 14.657 32.4975 14.657 32.2378V29.9163H16.9855C17.2459 29.9163 17.459 29.7117 17.459 29.452V24.3288H25.8653V29.4362C25.8653 29.6959 26.0311 29.9084 26.2995 29.9084H28.6674V32.23C28.6674 32.4897 28.8332 32.7022 29.0936 32.7022H33.798C34.0585 32.7022 34.2716 32.4897 34.2716 32.23V30.3885C34.2716 30.1288 34.0585 29.9084 33.798 29.9084H33.7901ZM36.5843 27.1146H34.7373C34.4768 27.1146 34.2637 27.3271 34.2637 27.5868V29.4362C34.2637 29.6959 34.4768 29.9084 34.7373 29.9084H36.5843C36.8448 29.9084 37.0658 29.6959 37.0658 29.4362V27.5868C37.0658 27.3271 36.8527 27.1146 36.5843 27.1146Z" fill="#101010"/>
<path d="M25.9284 0.262817C26.2283 0.262817 26.473 0.506779 26.473 0.805829V3.54449H29.1646C29.4645 3.54449 29.7092 3.78846 29.7092 4.08751V7.14883H31.8167C32.1166 7.14883 32.3613 7.39279 32.3613 7.69184V9.87963C32.3613 10.1787 32.1166 10.3754 31.8167 10.3754H11.5153C11.2154 10.3754 10.9707 10.1865 10.9707 9.87963V7.69184C10.9707 7.39279 11.2154 7.14883 11.5153 7.14883H13.5281V4.08751C13.5281 3.78846 13.7728 3.54449 14.0727 3.54449H16.7643V0.805829C16.7643 0.506779 17.009 0.262817 17.3089 0.262817H25.9284Z" fill="#101010"/>
</svg>
