<svg width="12" height="12" viewBox="0 0 12 12" fill="none" xmlns="http://www.w3.org/2000/svg">
    <path
    fill-rule="evenodd"
    clip-rule="evenodd"
    d="M1.05279 0.276393C1.13748 0.107001 1.31061 0 1.5 0H10.5C10.6894 0 10.8625 0.107001 10.9472 0.276393L11.9472 2.27639C11.9819 2.34582 12 2.42238 12 2.5V11C12 11.2652 11.8946 11.5196 11.7071 11.7071C11.5196 11.8946 11.2652 12 11 12H1C0.734784 12 0.48043 11.8946 0.292893 11.7071C0.105357 11.5196 0 11.2652 0 11V2.5C0 2.42238 0.0180725 2.34582 0.0527864 2.27639L1.05279 0.276393ZM1.80902 1L1 2.61803V11H11V2.61803L10.191 1H1.80902Z"
    />
    <path
    fill-rule="evenodd"
    clip-rule="evenodd"
    d="M3.52486 7.02511C3.72013 6.82985 4.03671 6.82985 4.23197 7.02511L5.99973 8.79287L7.76749 7.02511C7.96275 6.82985 8.27933 6.82985 8.4746 7.02511C8.66986 7.22037 8.66986 7.53695 8.4746 7.73222L6.35328 9.85353C6.15802 10.0488 5.84144 10.0488 5.64618 9.85353L3.52486 7.73222C3.3296 7.53695 3.3296 7.22037 3.52486 7.02511Z"
    />
    <path
    fill-rule="evenodd"
    clip-rule="evenodd"
    d="M6 4C6.27614 4 6.5 4.22386 6.5 4.5V9.5C6.5 9.77614 6.27614 10 6 10C5.72386 10 5.5 9.77614 5.5 9.5V4.5C5.5 4.22386 5.72386 4 6 4Z"
    />
    <path
    fill-rule="evenodd"
    clip-rule="evenodd"
    d="M0 2.5C0 2.22386 0.223858 2 0.5 2H11.5C11.7761 2 12 2.22386 12 2.5C12 2.77614 11.7761 3 11.5 3H0.5C0.223858 3 0 2.77614 0 2.5Z"
    />
</svg>