<svg width="16" height="16" viewBox="0 0 16 16" fill="none" xmlns="http://www.w3.org/2000/svg">
<path fill-rule="evenodd" clip-rule="evenodd" d="M1.92779 0.901393C2.01248 0.732001 2.18561 0.625 2.375 0.625H13.625C13.8144 0.625 13.9875 0.732001 14.0722 0.901393L15.3222 3.40139C15.3569 3.47082 15.375 3.54738 15.375 3.625V14.25C15.375 14.5484 15.2565 14.8345 15.0455 15.0455C14.8345 15.2565 14.5484 15.375 14.25 15.375H1.75C1.45163 15.375 1.16548 15.2565 0.954505 15.0455C0.743526 14.8345 0.625 14.5484 0.625 14.25V3.625C0.625 3.54738 0.643073 3.47082 0.677786 3.40139L1.92779 0.901393ZM2.68402 1.625L1.625 3.74303V14.25C1.625 14.2832 1.63817 14.3149 1.66161 14.3384C1.68505 14.3618 1.71685 14.375 1.75 14.375H14.25C14.2832 14.375 14.3149 14.3618 14.3384 14.3384C14.3618 14.3149 14.375 14.2832 14.375 14.25V3.74303L13.316 1.625H2.68402Z" />
<path fill-rule="evenodd" clip-rule="evenodd" d="M4.99484 9.36984C5.1901 9.17457 5.50668 9.17457 5.70194 9.36984L8.00003 11.6679L10.2981 9.36984C10.4934 9.17457 10.81 9.17457 11.0052 9.36984C11.2005 9.5651 11.2005 9.88168 11.0052 10.0769L8.35358 12.7286C8.15832 12.9238 7.84174 12.9238 7.64648 12.7286L4.99484 10.0769C4.79957 9.88168 4.79957 9.5651 4.99484 9.36984Z" />
<path fill-rule="evenodd" clip-rule="evenodd" d="M8 5.625C8.27614 5.625 8.5 5.84886 8.5 6.125V12.375C8.5 12.6511 8.27614 12.875 8 12.875C7.72386 12.875 7.5 12.6511 7.5 12.375V6.125C7.5 5.84886 7.72386 5.625 8 5.625Z" />
<path fill-rule="evenodd" clip-rule="evenodd" d="M0.625 3.625C0.625 3.34886 0.848858 3.125 1.125 3.125H14.875C15.1511 3.125 15.375 3.34886 15.375 3.625C15.375 3.90114 15.1511 4.125 14.875 4.125H1.125C0.848858 4.125 0.625 3.90114 0.625 3.625Z" />
</svg>
