<svg width="16" height="14" viewBox="0 0 16 14" fill="none" xmlns="http://www.w3.org/2000/svg">
<path fill-rule="evenodd" clip-rule="evenodd" d="M0.625 7C0.625 6.72386 0.848858 6.5 1.125 6.5H14.875C15.1511 6.5 15.375 6.72386 15.375 7C15.375 7.27614 15.1511 7.5 14.875 7.5H1.125C0.848858 7.5 0.625 7.27614 0.625 7Z"/>
<path fill-rule="evenodd" clip-rule="evenodd" d="M7.10355 1.02145C7.29882 1.21671 7.29882 1.53329 7.10355 1.72855L1.83211 7L7.10355 12.2714C7.29882 12.4667 7.29882 12.7833 7.10355 12.9786C6.90829 13.1738 6.59171 13.1738 6.39645 12.9786L0.771447 7.35355C0.576184 7.15829 0.576184 6.84171 0.771447 6.64645L6.39645 1.02145C6.59171 0.826184 6.90829 0.826184 7.10355 1.02145Z"/>
</svg>
