<svg viewBox="0 0 9 11" fill="blue" xmlns="http://www.w3.org/2000/svg">
<path d="M0.1724 5.42727L0.175593 5.42248L0.187306 5.40491L0.189504 5.40162L0.208262 5.38286L0.219977 5.37114L0.219993 5.37113L4.65167 0.936469C4.65178 0.93636 4.65189 0.936251 4.65201 0.936142C4.84611 0.747561 5.15785 0.749041 5.34175 0.935514L5.3424 0.936148C5.53847 1.12965 5.53801 1.43777 5.34271 1.62792L5.34204 1.62859L1.85176 5.12483L1.73819 5.2386H1.89894H8.42316C8.69623 5.2386 8.91234 5.45718 8.91234 5.72779C8.91234 5.99885 8.69578 6.2199 8.42316 6.2199H1.89894H1.738L1.8518 6.3337L5.34208 9.8241L5.3424 9.82441C5.53866 10.0181 5.53772 10.3289 5.34304 10.5159L5.343 10.5158L5.34113 10.5178C5.15724 10.7093 4.84624 10.7107 4.65231 10.5168L0.208263 6.07271L0.189503 6.05395L0.187305 6.05066L0.187514 6.05052L0.183895 6.04599L0.172305 6.03151L0.172181 6.03135L0.160663 6.01686L0.160698 6.01683L0.159098 6.01497C0.15485 6.01001 0.150902 6.00384 0.146051 5.99476C0.14509 5.99296 0.143548 5.98994 0.141703 5.98633C0.137713 5.97853 0.13231 5.96795 0.128293 5.96092L0.128242 5.96083L0.116529 5.94041L0.11666 5.94033L0.114166 5.93659L0.105795 5.92403C0.0980921 5.90558 0.093751 5.88849 0.0883017 5.86669L0.0855007 5.85548L0.0819645 5.85018L0.0780621 5.819L0.0783558 5.81897L0.0769901 5.81282L0.066864 5.76725V5.74243V5.71607V5.71314V5.68874L0.0768061 5.64648L0.0772285 5.64658L0.0781202 5.63901L0.0812693 5.61228L0.0844936 5.60906L0.0887051 5.59011C0.0948524 5.56244 0.0987616 5.54715 0.103998 5.53716L0.114166 5.52191L0.114292 5.52199L0.116529 5.51809L0.128242 5.49767L0.128337 5.49772L0.130038 5.49432C0.132108 5.49018 0.133969 5.48641 0.135675 5.48296C0.145212 5.46368 0.149916 5.45417 0.159098 5.44346L0.159127 5.44349L0.160563 5.44169L0.172206 5.42712L0.1724 5.42727Z" />
</svg>
