<svg width="16" height="15" viewBox="0 0 16 15" fill="none" xmlns="http://www.w3.org/2000/svg">
<path fill-rule="evenodd" clip-rule="evenodd" d="M5.08352 0.84765C5.17625 0.708551 5.33237 0.625 5.49954 0.625H10.4995C10.6667 0.625 10.8228 0.708551 10.9156 0.84765L12.0171 2.5H14.25C14.7141 2.5 15.1592 2.68437 15.4874 3.01256C15.8156 3.34075 16 3.78587 16 4.25V13C16 13.4641 15.8156 13.9092 15.4874 14.2374C15.1592 14.5656 14.7141 14.75 14.25 14.75H1.75C1.28587 14.75 0.840752 14.5656 0.512563 14.2374C0.184374 13.9092 0 13.4641 0 13V4.25C0 3.78587 0.184374 3.34075 0.512563 3.01256C0.840752 2.68437 1.28587 2.5 1.75 2.5H3.98195L5.08352 0.84765ZM5.76713 1.625L4.66557 3.27735C4.57283 3.41645 4.41672 3.5 4.24954 3.5H1.75C1.55109 3.5 1.36032 3.57902 1.21967 3.71967C1.07902 3.86032 1 4.05109 1 4.25V13C1 13.1989 1.07902 13.3897 1.21967 13.5303C1.36032 13.671 1.55109 13.75 1.75 13.75H14.25C14.4489 13.75 14.6397 13.671 14.7803 13.5303C14.921 13.3897 15 13.1989 15 13V4.25C15 4.05109 14.921 3.86032 14.7803 3.71967C14.6397 3.57902 14.4489 3.5 14.25 3.5H11.7495C11.5824 3.5 11.4262 3.41645 11.3335 3.27735L10.232 1.625H5.76713Z" fill="#6420FF"/>
<path fill-rule="evenodd" clip-rule="evenodd" d="M8 6C6.72284 6 5.6875 7.03534 5.6875 8.3125C5.6875 9.58966 6.72284 10.625 8 10.625C9.27716 10.625 10.3125 9.58966 10.3125 8.3125C10.3125 7.03534 9.27716 6 8 6ZM4.6875 8.3125C4.6875 6.48306 6.17056 5 8 5C9.82944 5 11.3125 6.48306 11.3125 8.3125C11.3125 10.1419 9.82944 11.625 8 11.625C6.17056 11.625 4.6875 10.1419 4.6875 8.3125Z" fill="#6420FF"/>
</svg>
