<svg width="16" height="16" viewBox="0 0 16 16" fill="none" xmlns="http://www.w3.org/2000/svg">
<path fill-rule="evenodd" clip-rule="evenodd" d="M1.125 1.875C1.09185 1.875 1.06005 1.88817 1.03661 1.91161C1.01317 1.93505 1 1.96685 1 2V14.4081C1 14.4319 1.0068 14.4552 1.01959 14.4753C1.03239 14.4954 1.05065 14.5114 1.07222 14.5214C1.0938 14.5315 1.1178 14.5351 1.1414 14.532C1.165 14.5289 1.18722 14.5191 1.20544 14.5038L3.77081 12.3472C3.81551 12.3097 3.86645 12.2802 3.92132 12.2602L4.20932 12.1552C4.26419 12.1352 4.32214 12.125 4.38054 12.125H14.875C14.9082 12.125 14.9399 12.1118 14.9634 12.0884C14.9868 12.0649 15 12.0332 15 12V2C15 1.96685 14.9868 1.93505 14.9634 1.91161C14.9399 1.88817 14.9082 1.875 14.875 1.875H1.125ZM0.329505 1.2045C0.540483 0.993527 0.826631 0.875 1.125 0.875H14.875C15.1734 0.875 15.4595 0.993526 15.6705 1.2045C15.8815 1.41548 16 1.70163 16 2V12C16 12.2984 15.8815 12.5845 15.6705 12.7955C15.4595 13.0065 15.1734 13.125 14.875 13.125H4.46882L4.34671 13.1695L1.84891 15.2693C1.68492 15.4071 1.48498 15.4953 1.2726 15.5234C1.06021 15.5515 0.844219 15.5184 0.650014 15.4279C0.45581 15.3375 0.29147 15.1934 0.176321 15.0128C0.0611714 14.8321 -2.38418e-07 14.6223 0 14.4081V2C0 1.70163 0.118527 1.41548 0.329505 1.2045Z"/>
<path fill-rule="evenodd" clip-rule="evenodd" d="M5 5.75C5 5.47386 5.22386 5.25 5.5 5.25H10.5C10.7761 5.25 11 5.47386 11 5.75C11 6.02614 10.7761 6.25 10.5 6.25H5.5C5.22386 6.25 5 6.02614 5 5.75Z"/>
<path fill-rule="evenodd" clip-rule="evenodd" d="M5 8.25C5 7.97386 5.22386 7.75 5.5 7.75H10.5C10.7761 7.75 11 7.97386 11 8.25C11 8.52614 10.7761 8.75 10.5 8.75H5.5C5.22386 8.75 5 8.52614 5 8.25Z"/>
</svg>
