<svg width="16" height="14" viewBox="0 0 16 14" fill="none" xmlns="http://www.w3.org/2000/svg">
<path fill-rule="evenodd" clip-rule="evenodd" d="M1.81256 1.53748C1.79599 1.53748 1.78009 1.54406 1.76837 1.55578C1.75665 1.5675 1.75006 1.5834 1.75006 1.59998V12.7673C1.75006 12.7792 1.75346 12.7908 1.75986 12.8009C1.76625 12.8109 1.77538 12.8189 1.78617 12.8239C1.79696 12.8289 1.80896 12.8308 1.82076 12.8292C1.83256 12.8277 1.84367 12.8228 1.85278 12.8151L4.16161 10.8742C4.20632 10.8366 4.25726 10.8072 4.31213 10.7872L4.57133 10.6927C4.6262 10.6727 4.68415 10.6625 4.74255 10.6625H14.1876C14.2041 10.6625 14.22 10.6559 14.2318 10.6442C14.2435 10.6325 14.2501 10.6166 14.2501 10.6V1.59998C14.2501 1.5834 14.2435 1.5675 14.2318 1.55578C14.22 1.54406 14.2041 1.53748 14.1876 1.53748H1.81256ZM1.06126 0.848675C1.26052 0.649418 1.53077 0.537476 1.81256 0.537476H14.1876C14.4694 0.537476 14.7396 0.649417 14.9389 0.848675C15.1381 1.04793 15.2501 1.31818 15.2501 1.59998V10.6C15.2501 10.8818 15.1381 11.152 14.9389 11.3513C14.7396 11.5505 14.4694 11.6625 14.1876 11.6625H4.83083L4.73752 11.6965L2.49626 13.5806C2.34138 13.7108 2.15254 13.794 1.95196 13.8206C1.75137 13.8471 1.54738 13.8159 1.36396 13.7304C1.18055 13.645 1.02534 13.509 0.916586 13.3384C0.807834 13.1677 0.750061 12.9696 0.750061 12.7673V1.59998C0.750061 1.31818 0.862003 1.04793 1.06126 0.848675Z" />
<path fill-rule="evenodd" clip-rule="evenodd" d="M5.25006 4.97498C5.25006 4.69883 5.47392 4.47498 5.75006 4.47498H10.2501C10.5262 4.47498 10.7501 4.69883 10.7501 4.97498C10.7501 5.25112 10.5262 5.47498 10.2501 5.47498H5.75006C5.47392 5.47498 5.25006 5.25112 5.25006 4.97498Z" />
<path fill-rule="evenodd" clip-rule="evenodd" d="M5.25006 7.22498C5.25006 6.94883 5.47392 6.72498 5.75006 6.72498H10.2501C10.5262 6.72498 10.7501 6.94883 10.7501 7.22498C10.7501 7.50112 10.5262 7.72498 10.2501 7.72498H5.75006C5.47392 7.72498 5.25006 7.50112 5.25006 7.22498Z" />
</svg>
