<svg width="16" height="16" viewBox="0 0 16 16" fill="none" xmlns="http://www.w3.org/2000/svg">
<path fill-rule="evenodd" clip-rule="evenodd" d="M8 1C4.13401 1 1 4.13401 1 8C1 11.866 4.13401 15 8 15C11.866 15 15 11.866 15 8C15 4.13401 11.866 1 8 1ZM0 8C0 3.58172 3.58172 0 8 0C12.4183 0 16 3.58172 16 8C16 12.4183 12.4183 16 8 16C3.58172 16 0 12.4183 0 8Z"/>
<path fill-rule="evenodd" clip-rule="evenodd" d="M11.7992 5.77976C11.9898 5.97951 11.9825 6.29601 11.7827 6.48668L7.19938 10.8617C7.00617 11.0461 6.70211 11.0461 6.5089 10.8617L4.21726 8.67418C4.01751 8.48351 4.01015 8.16701 4.20083 7.96726C4.3915 7.76751 4.70799 7.76015 4.90774 7.95082L6.85414 9.80878L11.0923 5.76332C11.292 5.57265 11.6085 5.58001 11.7992 5.77976Z"/>
</svg>
