<svg width="16" height="16" viewBox="0 0 16 16" fill="none" xmlns="http://www.w3.org/2000/svg">
<path fill-rule="evenodd" clip-rule="evenodd" d="M8 1C4.13401 1 1 4.13401 1 8C1 11.866 4.13401 15 8 15C11.866 15 15 11.866 15 8C15 4.13401 11.866 1 8 1ZM0 8C0 3.58172 3.58172 0 8 0C12.4183 0 16 3.58172 16 8C16 12.4183 12.4183 16 8 16C3.58172 16 0 12.4183 0 8Z"/>
<path fill-rule="evenodd" clip-rule="evenodd" d="M8 3.125C8.27614 3.125 8.5 3.34886 8.5 3.625V7.5H12.375C12.6511 7.5 12.875 7.72386 12.875 8C12.875 8.27614 12.6511 8.5 12.375 8.5H8C7.72386 8.5 7.5 8.27614 7.5 8V3.625C7.5 3.34886 7.72386 3.125 8 3.125Z"/>
</svg>
