<svg width="14" height="14" viewBox="0 0 14 14" fill="none" xmlns="http://www.w3.org/2000/svg">
<path fill-rule="evenodd" clip-rule="evenodd" d="M12.9786 1.02145C13.1738 1.21671 13.1738 1.53329 12.9786 1.72855L1.72855 12.9786C1.53329 13.1738 1.21671 13.1738 1.02145 12.9786C0.826184 12.7833 0.826184 12.4667 1.02145 12.2714L12.2714 1.02145C12.4667 0.826184 12.7833 0.826184 12.9786 1.02145Z"/>
<path fill-rule="evenodd" clip-rule="evenodd" d="M1.02145 1.02145C1.21671 0.826184 1.53329 0.826184 1.72855 1.02145L12.9786 12.2714C13.1738 12.4667 13.1738 12.7833 12.9786 12.9786C12.7833 13.1738 12.4667 13.1738 12.2714 12.9786L1.02145 1.72855C0.826184 1.53329 0.826184 1.21671 1.02145 1.02145Z"/>
</svg>