<svg width="18" height="15" viewBox="0 0 18 15" fill="none" xmlns="http://www.w3.org/2000/svg">
<path d="M14.52 12.5125H3.08C2.838 12.5125 2.64 12.7136 2.64 12.9594V13.8531C2.64 14.0989 2.838 14.3 3.08 14.3H14.52C14.762 14.3 14.96 14.0989 14.96 13.8531V12.9594C14.96 12.7136 14.762 12.5125 14.52 12.5125ZM16.28 3.575C15.5513 3.575 14.96 4.17549 14.96 4.91563C14.96 5.11393 15.004 5.29826 15.081 5.46863L13.09 6.68078C12.6665 6.93773 12.1193 6.7925 11.8745 6.3568L9.63325 2.37402C9.9275 2.12824 10.12 1.75957 10.12 1.34063C10.12 0.600488 9.52875 0 8.8 0C8.07125 0 7.48 0.600488 7.48 1.34063C7.48 1.75957 7.6725 2.12824 7.96675 2.37402L5.7255 6.3568C5.48075 6.7925 4.93075 6.93773 4.51 6.68078L2.52175 5.46863C2.596 5.30106 2.64275 5.11393 2.64275 4.91563C2.64275 4.17549 2.0515 3.575 1.32275 3.575C0.594 3.575 0 4.17549 0 4.91563C0 5.65576 0.59125 6.25625 1.32 6.25625C1.3915 6.25625 1.463 6.24508 1.53175 6.23391L3.52 11.6188H14.08L16.0683 6.23391C16.137 6.24508 16.2085 6.25625 16.28 6.25625C17.0088 6.25625 17.6 5.65576 17.6 4.91563C17.6 4.17549 17.0088 3.575 16.28 3.575Z" />
</svg>
