<svg width="16" height="16" viewBox="0 0 16 16" fill="none" xmlns="http://www.w3.org/2000/svg">
<path fill-rule="evenodd" clip-rule="evenodd" d="M3.37807 2.0373C2.2017 2.67895 1.625 3.48321 1.625 4.25C1.625 5.01679 2.2017 5.82105 3.37807 6.4627C4.53553 7.09404 6.16869 7.5 8 7.5C9.83131 7.5 11.4645 7.09404 12.6219 6.4627C13.7983 5.82105 14.375 5.01679 14.375 4.25C14.375 3.48321 13.7983 2.67895 12.6219 2.0373C11.4645 1.40596 9.83131 1 8 1C6.16869 1 4.53553 1.40596 3.37807 2.0373ZM2.89921 1.1594C4.23002 0.43351 6.03435 0 8 0C9.96565 0 11.77 0.43351 13.1008 1.1594C14.4127 1.87498 15.375 2.94572 15.375 4.25C15.375 5.55428 14.4127 6.62502 13.1008 7.3406C11.77 8.06649 9.96565 8.5 8 8.5C6.03435 8.5 4.23002 8.06649 2.89921 7.3406C1.58732 6.62502 0.625 5.55428 0.625 4.25C0.625 2.94572 1.58732 1.87498 2.89921 1.1594Z"/>
<path fill-rule="evenodd" clip-rule="evenodd" d="M1.125 3.75C1.40114 3.75 1.625 3.97386 1.625 4.25V8C1.625 8.76679 2.2017 9.57105 3.37807 10.2127C4.53553 10.844 6.16869 11.25 8 11.25C9.83131 11.25 11.4645 10.844 12.6219 10.2127C13.7983 9.57105 14.375 8.76679 14.375 8V4.25C14.375 3.97386 14.5989 3.75 14.875 3.75C15.1511 3.75 15.375 3.97386 15.375 4.25V8C15.375 9.30428 14.4127 10.375 13.1008 11.0906C11.77 11.8165 9.96565 12.25 8 12.25C6.03435 12.25 4.23002 11.8165 2.89921 11.0906C1.58732 10.375 0.625 9.30428 0.625 8V4.25C0.625 3.97386 0.848858 3.75 1.125 3.75Z"/>
<path fill-rule="evenodd" clip-rule="evenodd" d="M1.125 7.5C1.40114 7.5 1.625 7.72386 1.625 8V11.75C1.625 12.5168 2.2017 13.321 3.37807 13.9627C4.53553 14.594 6.16869 15 8 15C9.83131 15 11.4645 14.594 12.6219 13.9627C13.7983 13.321 14.375 12.5168 14.375 11.75V8C14.375 7.72386 14.5989 7.5 14.875 7.5C15.1511 7.5 15.375 7.72386 15.375 8V11.75C15.375 13.0543 14.4127 14.125 13.1008 14.8406C11.77 15.5665 9.96565 16 8 16C6.03435 16 4.23002 15.5665 2.89921 14.8406C1.58732 14.125 0.625 13.0543 0.625 11.75V8C0.625 7.72386 0.848858 7.5 1.125 7.5Z"/>
</svg>
