<svg width="16" height="17" viewBox="0 0 16 17" fill="none" xmlns="http://www.w3.org/2000/svg">
<path fill-rule="evenodd" clip-rule="evenodd" d="M1.12469 2.87501L14.8747 2.875C15.1508 2.875 15.3747 3.09886 15.3747 3.375C15.3747 3.65114 15.1508 3.875 14.8747 3.875L1.12469 3.87501C0.848553 3.87501 0.624695 3.65115 0.624695 3.37501C0.624695 3.09886 0.848552 2.87501 1.12469 2.87501Z" />
<path fill-rule="evenodd" clip-rule="evenodd" d="M6.125 6.625C6.40114 6.625 6.625 6.84886 6.625 7.125V12.125C6.625 12.4011 6.40114 12.625 6.125 12.625C5.84886 12.625 5.625 12.4011 5.625 12.125V7.125C5.625 6.84886 5.84886 6.625 6.125 6.625Z" />
<path fill-rule="evenodd" clip-rule="evenodd" d="M9.875 6.625C10.1511 6.625 10.375 6.84886 10.375 7.125V12.125C10.375 12.4011 10.1511 12.625 9.875 12.625C9.59886 12.625 9.375 12.4011 9.375 12.125V7.125C9.375 6.84886 9.59886 6.625 9.875 6.625Z" />
<path fill-rule="evenodd" clip-rule="evenodd" d="M2.37469 2.875C2.65084 2.875 2.87469 3.09886 2.87469 3.375V15.25C2.87469 15.2832 2.88786 15.3149 2.91131 15.3384C2.93475 15.3618 2.96654 15.375 2.99969 15.375H12.9997C13.0328 15.375 13.0646 15.3618 13.0881 15.3384C13.1115 15.3149 13.1247 15.2832 13.1247 15.25V3.375C13.1247 3.09886 13.3486 2.875 13.6247 2.875C13.9008 2.875 14.1247 3.09886 14.1247 3.375V15.25C14.1247 15.5484 14.0062 15.8345 13.7952 16.0455C13.5842 16.2565 13.2981 16.375 12.9997 16.375H2.99969C2.70133 16.375 2.41518 16.2565 2.2042 16.0455C1.99322 15.8345 1.87469 15.5484 1.87469 15.25V3.375C1.87469 3.09886 2.09855 2.875 2.37469 2.875Z" />
<path fill-rule="evenodd" clip-rule="evenodd" d="M4.88756 0.887563C5.21575 0.559374 5.66087 0.375 6.125 0.375H9.875C10.3391 0.375 10.7842 0.559374 11.1124 0.887563C11.4406 1.21575 11.625 1.66087 11.625 2.125V3.375C11.625 3.65114 11.4011 3.875 11.125 3.875C10.8489 3.875 10.625 3.65114 10.625 3.375V2.125C10.625 1.92609 10.546 1.73532 10.4053 1.59467C10.2647 1.45402 10.0739 1.375 9.875 1.375H6.125C5.92609 1.375 5.73532 1.45402 5.59467 1.59467C5.45402 1.73532 5.375 1.92609 5.375 2.125V3.375C5.375 3.65114 5.15114 3.875 4.875 3.875C4.59886 3.875 4.375 3.65114 4.375 3.375V2.125C4.375 1.66087 4.55937 1.21575 4.88756 0.887563Z" />
</svg>
