<svg  viewBox="0 0 12 20" fill="none" xmlns="http://www.w3.org/2000/svg">
<path fill-rule="evenodd" clip-rule="evenodd" d="M5.24219 1V1.91572C2.64578 2.20761 0.778117 3.9361 0.778117 6.35999C0.778117 8.39999 2.09812 9.76799 4.61812 10.92L6.32212 11.688C7.78612 12.36 8.33812 12.744 8.33812 13.656C8.33812 14.736 7.49812 15.408 6.08212 15.408C4.47412 15.408 3.34612 14.448 2.69812 13.776C2.45812 13.56 2.14612 13.464 1.85812 13.464C1.09012 13.464 0.394117 14.04 0.370117 14.904C0.370117 15.36 0.586117 15.768 0.970117 16.152C1.97214 17.2563 3.61886 18.0295 5.24219 18.2341V19C5.24219 19.5523 5.6899 20 6.24219 20C6.79447 20 7.24219 19.5523 7.24219 19V18.202C9.81277 17.8093 11.6261 16.0939 11.6261 13.536C11.6261 11.376 10.3541 10.08 7.71412 8.90399L5.91412 8.11199C4.49812 7.46399 4.06612 7.08 4.06612 6.28799C4.06612 5.30399 4.88212 4.75199 6.03412 4.75199C7.16212 4.75199 7.88212 5.30399 8.53012 5.88C8.81812 6.11999 9.13012 6.21599 9.41812 6.21599C10.1621 6.21599 10.9061 5.59199 10.9061 4.776C10.9061 4.46399 10.8101 4.10399 10.4741 3.74399C9.92519 3.11665 8.89585 2.26511 7.24219 1.97424V1C7.24219 0.447715 6.79447 0 6.24219 0C5.6899 0 5.24219 0.447715 5.24219 1Z" />
</svg>
