<svg width="21" height="20" viewBox="0 0 21 20" fill="none" xmlns="http://www.w3.org/2000/svg">
<path fill-rule="evenodd" clip-rule="evenodd" d="M3 12C3.27614 12 3.5 12.2239 3.5 12.5V15.8333C3.5 16.1428 3.62292 16.4395 3.84167 16.6582L3.84174 16.6583C4.06052 16.8771 4.35726 17 4.66667 17H16.3333C16.6428 17 16.9395 16.8771 17.1582 16.6583L17.1583 16.6582C17.3771 16.4395 17.5 16.1428 17.5 15.8333V12.5C17.5 12.2239 17.7239 12 18 12C18.2761 12 18.5 12.2239 18.5 12.5V15.8333C18.5 16.4079 18.2718 16.959 17.8654 17.3653C17.4591 17.7717 16.908 18 16.3333 18H4.66667C4.09202 18 3.54092 17.7717 3.13458 17.3653C2.72824 16.959 2.5 16.408 2.5 15.8333V12.5C2.5 12.2239 2.72386 12 3 12Z" />
<path fill-rule="evenodd" clip-rule="evenodd" d="M5.9797 7.97848C6.17496 7.78322 6.49154 7.78322 6.6868 7.97848L10.4999 11.7916L14.3131 7.97847C14.5083 7.78321 14.8249 7.78322 15.0202 7.97848C15.2154 8.17374 15.2154 8.49033 15.0202 8.68559L10.8535 12.8522C10.6582 13.0475 10.3416 13.0475 10.1463 12.8522L5.9797 8.68559C5.78444 8.49032 5.78444 8.17374 5.9797 7.97848Z" />
<path fill-rule="evenodd" clip-rule="evenodd" d="M10.5 2C10.7761 2 11 2.22386 11 2.5V12.5C11 12.7761 10.7761 13 10.5 13C10.2239 13 10 12.7761 10 12.5V2.5C10 2.22386 10.2239 2 10.5 2Z" />
</svg>
