<svg width="20" height="14" viewBox="0 0 20 14" fill="none" xmlns="http://www.w3.org/2000/svg">
<path fill-rule="evenodd" clip-rule="evenodd" d="M2.72934 3.65328C4.24068 2.0858 6.61281 0.5 10 0.5C13.3872 0.5 15.7593 2.0858 17.2707 3.65328C18.0252 4.43585 18.5692 5.21727 18.9252 5.80358C19.1034 6.09716 19.2352 6.34305 19.3233 6.5174C19.3673 6.60462 19.4005 6.67405 19.4231 6.72272C19.4344 6.74707 19.443 6.76623 19.4491 6.77985L19.4563 6.79607L19.4584 6.80098L19.4591 6.80262L19.4594 6.80323C19.4595 6.80348 19.4596 6.80371 19 7.00065C19.4596 7.19763 19.4595 7.19786 19.4594 7.1981L19.4591 7.19872L19.4584 7.20036L19.4563 7.20526L19.4491 7.22149C19.443 7.2351 19.4343 7.25426 19.423 7.2786C19.4004 7.32727 19.3673 7.39669 19.3232 7.48388C19.2352 7.6582 19.1034 7.90404 18.9251 8.19756C18.5692 8.78375 18.0252 9.565 17.2706 10.3474C15.7593 11.9146 13.3872 13.5 10 13.5C6.61285 13.5 4.24073 11.9146 2.72938 10.3474C1.97483 9.565 1.43079 8.78375 1.07485 8.19756C0.896622 7.90404 0.764816 7.6582 0.676758 7.48388C0.63271 7.39669 0.599551 7.32727 0.576952 7.2786C0.565651 7.25426 0.556985 7.2351 0.550914 7.22149L0.543746 7.20526L0.541611 7.20036L0.540903 7.19872L0.540639 7.1981C0.540532 7.19786 0.540435 7.19763 1 7.00065C0.54042 6.80371 0.540517 6.80348 0.540624 6.80323L0.540888 6.80262L0.541595 6.80098L0.54373 6.79607L0.550898 6.77985C0.556969 6.76623 0.565634 6.74707 0.576935 6.72272C0.599533 6.67405 0.632691 6.60462 0.676738 6.5174C0.764795 6.34305 0.896599 6.09716 1.07483 5.80358C1.43076 5.21727 1.9748 4.43585 2.72934 3.65328ZM1 7.00065L0.54042 6.80371C0.486521 6.92949 0.486527 7.07186 0.540435 7.19763L1 7.00065ZM1.55309 7.00063C1.55828 7.01104 1.5637 7.02183 1.56934 7.03299C1.64701 7.18676 1.76632 7.40962 1.92961 7.67854C2.25671 8.21723 2.75731 8.93581 3.44919 9.65324C4.8307 11.0858 6.95858 12.5 10 12.5C13.0414 12.5 15.1693 11.0858 16.5508 9.65324C17.2427 8.93581 17.7433 8.21723 18.0704 7.67854C18.2337 7.40962 18.353 7.18676 18.4307 7.03299C18.4363 7.02183 18.4417 7.01104 18.4469 7.00062C18.4417 6.99019 18.4363 6.97939 18.4306 6.96822C18.353 6.81441 18.2337 6.5915 18.0704 6.32252C17.7433 5.78371 17.2427 5.06496 16.5508 4.34737C15.1693 2.91453 13.0414 1.5 10 1.5C6.95862 1.5 4.83075 2.91453 3.44923 4.34737C2.75734 5.06496 2.25674 5.78371 1.92964 6.32252C1.76635 6.5915 1.64704 6.81441 1.56936 6.96822C1.56371 6.97939 1.55829 6.9902 1.55309 7.00063ZM19 7.00065L19.4596 7.19763C19.5135 7.07186 19.5135 6.92949 19.4596 6.80371L19 7.00065Z" />
<path fill-rule="evenodd" clip-rule="evenodd" d="M10 4.375C8.55025 4.375 7.375 5.55025 7.375 7C7.375 8.44975 8.55025 9.625 10 9.625C11.4497 9.625 12.625 8.44975 12.625 7C12.625 5.55025 11.4497 4.375 10 4.375ZM6.375 7C6.375 4.99797 7.99797 3.375 10 3.375C12.002 3.375 13.625 4.99797 13.625 7C13.625 9.00203 12.002 10.625 10 10.625C7.99797 10.625 6.375 9.00203 6.375 7Z" />
</svg>
