<svg width="21" height="20" viewBox="0 0 21 20" fill="none" xmlns="http://www.w3.org/2000/svg">
<g clip-path="url(#clip0_1093_3972)">
<path d="M15.4442 14.4177L15.7255 14.8311C15.8527 14.7445 15.933 14.6041 15.9431 14.4505C15.9532 14.2969 15.892 14.1472 15.7772 14.0447L15.4442 14.4177ZM10.4951 15.9499V16.45L10.5024 16.4499L10.4951 15.9499ZM1.33008 9.9995L0.901536 9.74191C0.809088 9.89572 0.806151 10.0873 0.893841 10.2438L1.33008 9.9995ZM5.54598 5.58132L5.87896 5.20833C5.70762 5.05537 5.45412 5.03882 5.26434 5.16818L5.54598 5.58132ZM8.7454 4.2276L8.64312 3.73817C8.45844 3.77677 8.31121 3.91603 8.26241 4.09828C8.21361 4.28053 8.27156 4.47473 8.41225 4.60045L8.7454 4.2276ZM10.4951 4.04909L10.494 4.54909H10.4951V4.04909ZM19.6601 9.9995L20.0891 10.2564C20.1811 10.1027 20.1839 9.91147 20.0963 9.75517L19.6601 9.9995ZM17.8604 12.3722L17.5273 12.7451C17.7293 12.9256 18.0384 12.9124 18.2243 12.7152L17.8604 12.3722ZM12.6073 11.9374L12.9684 11.5915L12.2766 10.8694L11.9155 11.2153L12.6073 11.9374ZM9.04849 8.80703L9.43288 8.48728L8.79337 7.7185L8.40898 8.03825L9.04849 8.80703ZM15.1629 14.0043C13.8228 14.9162 12.1846 15.4252 10.4878 15.45L10.5024 16.4499C12.3867 16.4224 14.217 15.8575 15.7255 14.8311L15.1629 14.0043ZM10.4951 15.4499C7.75734 15.4499 5.58349 14.0536 4.07028 12.6126C3.31643 11.8948 2.73733 11.1757 2.34705 10.6362C2.15219 10.3668 2.00518 10.1433 1.9077 9.98864C1.85898 9.91131 1.82269 9.85127 1.79905 9.81138C1.78722 9.79143 1.77857 9.77654 1.7731 9.76705C1.77037 9.7623 1.76844 9.75891 1.7673 9.75692C1.76674 9.75592 1.76637 9.75527 1.76621 9.75498C1.76612 9.75483 1.76609 9.75478 1.76611 9.75481C1.76612 9.75482 1.76617 9.75492 1.76618 9.75492C1.76624 9.75504 1.76632 9.75517 1.33008 9.9995C0.893841 10.2438 0.893943 10.244 0.894057 10.2442C0.894112 10.2443 0.89424 10.2445 0.894351 10.2447C0.894572 10.2451 0.894845 10.2456 0.895169 10.2462C0.895817 10.2473 0.89667 10.2489 0.897728 10.2507C0.899844 10.2544 0.902779 10.2596 0.906531 10.2661C0.914033 10.2791 0.924803 10.2976 0.938815 10.3213C0.966836 10.3686 1.00784 10.4363 1.06164 10.5217C1.16921 10.6924 1.32812 10.9338 1.53684 11.2223C1.9537 11.7985 2.5723 12.567 3.38068 13.3368C4.99189 14.8711 7.40054 16.4499 10.4951 16.4499V15.4499ZM1.75862 10.2571C2.75605 8.59769 4.14223 7.14337 5.82761 5.99446L5.26434 5.16818C3.46559 6.39439 1.97688 7.95289 0.901536 9.74191L1.75862 10.2571ZM5.213 5.95432L15.1112 14.7907L15.7772 14.0447L5.87896 5.20833L5.213 5.95432ZM8.84767 4.71703C9.38701 4.60433 9.93955 4.54793 10.494 4.54909L10.4961 3.54909C9.87259 3.54778 9.25079 3.61119 8.64312 3.73817L8.84767 4.71703ZM10.4951 4.54909C13.2328 4.54909 15.4067 5.94545 16.9199 7.38639C17.6737 8.10423 18.2528 8.82334 18.6431 9.36282C18.838 9.63217 18.985 9.85566 19.0825 10.0104C19.1312 10.0877 19.1675 10.1477 19.1911 10.1876C19.2029 10.2076 19.2116 10.2225 19.2171 10.232C19.2198 10.2367 19.2217 10.2401 19.2229 10.2421C19.2234 10.2431 19.2238 10.2437 19.2239 10.244C19.224 10.2442 19.2241 10.2442 19.224 10.2442C19.224 10.2442 19.224 10.2441 19.224 10.2441C19.2239 10.244 19.2238 10.2438 19.6601 9.9995C20.0963 9.75517 20.0962 9.75499 20.0961 9.75479C20.096 9.75469 20.0959 9.75446 20.0958 9.75426C20.0956 9.75387 20.0953 9.75339 20.095 9.75281C20.0943 9.75166 20.0935 9.75015 20.0924 9.74829C20.0903 9.74456 20.0874 9.73942 20.0836 9.73291C20.0761 9.71988 20.0654 9.70136 20.0513 9.67772C20.0233 9.63045 19.9823 9.56266 19.9285 9.47727C19.8209 9.30657 19.662 9.06519 19.4533 8.77668C19.0365 8.20046 18.4179 7.43197 17.6095 6.6622C15.9983 5.12794 13.5896 3.54909 10.4951 3.54909V4.54909ZM19.2311 9.74264C18.7443 10.5556 18.1631 11.3221 17.4966 12.0293L18.2243 12.7152C18.9392 11.9567 19.5643 11.1327 20.0891 10.2564L19.2311 9.74264ZM18.1936 11.9994L9.07855 3.85476L8.41225 4.60045L17.5273 12.7451L18.1936 11.9994ZM11.9155 11.2153C11.7351 11.3881 11.5145 11.5297 11.2652 11.6288L11.6348 12.558C11.9988 12.4132 12.3301 12.203 12.6073 11.9374L11.9155 11.2153ZM11.2652 11.6288C11.0159 11.728 10.745 11.7819 10.4689 11.7863L10.4847 12.7862C10.8799 12.7799 11.2709 12.7028 11.6348 12.558L11.2652 11.6288ZM10.4689 11.7863C10.1929 11.7906 9.91972 11.7452 9.6662 11.6538L9.327 12.5945C9.69596 12.7276 10.0895 12.7924 10.4847 12.7862L10.4689 11.7863ZM9.6662 11.6538C9.41271 11.5624 9.18599 11.4276 8.99826 11.26L8.3323 12.006C8.61928 12.2622 8.95802 12.4615 9.327 12.5945L9.6662 11.6538ZM8.99826 11.26C8.81066 11.0925 8.66635 10.8963 8.57064 10.6848L7.65956 11.097C7.81528 11.4412 8.0452 11.7497 8.3323 12.006L8.99826 11.26ZM8.57064 10.6848C8.47504 10.4735 8.42905 10.2495 8.43347 10.0257L7.43367 10.0059C7.42625 10.3813 7.50373 10.7526 7.65956 11.097L8.57064 10.6848ZM8.43347 10.0257C8.4379 9.8018 8.49273 9.57907 8.59694 9.37028L7.7022 8.9237C7.53317 9.26235 7.44109 9.63058 7.43367 10.0059L8.43347 10.0257ZM8.59694 9.37028C8.70127 9.16126 8.85374 8.96903 9.04849 8.80703L8.40898 8.03825C8.11257 8.28482 7.8711 8.58529 7.7022 8.9237L8.59694 9.37028Z" fill="#6420FF"/>
<path d="M1.66306 1.44512L1.29006 1.11214L0.624104 1.85813L0.997098 2.19111L1.66306 1.44512ZM19.3271 18.5547L19.7001 18.8877L20.3661 18.1417L19.9931 17.8088L19.3271 18.5547ZM0.997098 2.19111L19.3271 18.5547L19.9931 17.8088L1.66306 1.44512L0.997098 2.19111Z" fill="#6420FF"/>
</g>
<defs>
<clipPath id="clip0_1093_3972">
<rect width="20" height="20" fill="white" transform="translate(0.5)"/>
</clipPath>
</defs>
</svg>
