<svg width="20" height="16" viewBox="0 0 20 16" fill="none" xmlns="http://www.w3.org/2000/svg">
<path fill-rule="evenodd" clip-rule="evenodd" d="M3.41367 0.755033C3.618 0.56928 3.93422 0.584338 4.11997 0.788667L16.62 14.5387C16.8057 14.743 16.7907 15.0592 16.5863 15.245C16.382 15.4307 16.0658 15.4157 15.88 15.2113L3.38003 1.46134C3.19428 1.25701 3.20934 0.940787 3.41367 0.755033Z" />
<path fill-rule="evenodd" clip-rule="evenodd" d="M8.26782 5.35113C8.4536 5.55545 8.43857 5.87167 8.23425 6.05744C7.71918 6.52578 7.41123 7.17953 7.37815 7.8749C7.34507 8.57027 7.58956 9.25031 8.05785 9.76543C8.52614 10.2805 9.17986 10.5885 9.87523 10.6217C10.5706 10.6548 11.2507 10.4104 11.7658 9.94216C11.9702 9.75643 12.2864 9.77151 12.4721 9.97586C12.6579 10.1802 12.6428 10.4964 12.4384 10.6822C11.727 11.3288 10.7879 11.6663 9.82762 11.6206C8.86735 11.5748 7.96459 11.1494 7.31791 10.4381C6.67123 9.72675 6.3336 8.78765 6.37928 7.82738C6.42497 6.86711 6.85023 5.96431 7.56152 5.31756C7.76583 5.13179 8.08205 5.14682 8.26782 5.35113Z" />
<path fill-rule="evenodd" clip-rule="evenodd" d="M5.9397 2.76208C6.07116 3.00492 5.98086 3.30835 5.73801 3.43981C4.23016 4.25602 3.15867 5.43603 2.46102 6.42328C2.11322 6.91546 1.86151 7.35525 1.69762 7.67005C1.63525 7.78984 1.58573 7.89128 1.54859 7.9703C1.55499 7.98359 1.56176 7.99752 1.56889 8.01207C1.64468 8.16671 1.76104 8.39075 1.92026 8.66103C2.23924 9.2025 2.72718 9.92438 3.40128 10.6449C4.74785 12.0841 6.81715 13.4998 9.7712 13.4998H9.77546C11.158 13.5116 12.5248 13.1713 13.7631 12.5051C14.0063 12.3743 14.3095 12.4654 14.4403 12.7086C14.5711 12.9518 14.4801 13.255 14.2369 13.3858C12.8533 14.1301 11.3216 14.5126 9.76908 14.4998C6.45911 14.4991 4.14349 12.9018 2.67105 11.3281C1.9355 10.5419 1.40535 9.75712 1.05865 9.16859C0.885035 8.87388 0.756665 8.62708 0.670931 8.45214C0.628045 8.36464 0.595771 8.295 0.573787 8.2462C0.562794 8.22179 0.554368 8.20259 0.548471 8.18896L0.541514 8.17273L0.539448 8.16783L0.538765 8.1662C0.538663 8.16596 0.538316 8.16513 0.999992 7.97315C0.536212 7.78631 0.536277 7.78615 0.536348 7.78597L0.536938 7.78451L0.538153 7.78153L0.542054 7.77207L0.555793 7.73953C0.567609 7.71192 0.584772 7.67268 0.607428 7.62297C0.652727 7.52359 0.720067 7.3822 0.810634 7.20825C0.99161 6.86065 1.26625 6.38122 1.64435 5.84618C2.3985 4.77897 3.577 3.47246 5.26197 2.56038C5.50482 2.42893 5.80825 2.51923 5.9397 2.76208ZM0.999992 7.97315L0.536348 7.78597C0.487336 7.90763 0.487956 8.04402 0.538316 8.16513L0.999992 7.97315Z" />
<path fill-rule="evenodd" clip-rule="evenodd" d="M7.92152 1.64022C8.51434 1.54598 9.11424 1.49909 9.71506 1.50001C13.1902 1.50013 15.6296 3.00564 17.1907 4.50414C17.9696 5.25176 18.5317 5.99884 18.8999 6.5602C19.0843 6.84123 19.2207 7.07676 19.312 7.244C19.3576 7.32765 19.392 7.39432 19.4155 7.44118C19.4273 7.46461 19.4363 7.4831 19.4427 7.49629L19.4502 7.51206L19.4525 7.51688L19.4532 7.51851L19.4535 7.51913C19.4536 7.51939 19.4537 7.51962 19 7.72971C19.4537 7.93983 19.4537 7.93995 19.4536 7.94008L19.4535 7.94037L19.4531 7.94107L19.4523 7.94294L19.4496 7.94854L19.4408 7.96705C19.4333 7.98259 19.4225 8.00443 19.4085 8.03211C19.3805 8.08748 19.3394 8.16628 19.2848 8.26479C19.1755 8.46173 19.0117 8.738 18.7898 9.0637C18.3467 9.71417 17.668 10.5673 16.7235 11.3792C16.5141 11.5592 16.1984 11.5353 16.0184 11.3259C15.8384 11.1165 15.8622 10.8009 16.0716 10.6208C16.9347 9.87892 17.5572 9.0969 17.9634 8.50067C18.1662 8.20301 18.3141 7.95305 18.4104 7.77958C18.42 7.76216 18.4292 7.74552 18.4378 7.72968C18.4366 7.72747 18.4354 7.72525 18.4342 7.72302C18.3544 7.57691 18.2318 7.36481 18.0638 7.10868C17.7273 6.59573 17.2117 5.91038 16.4982 5.22557C15.0749 3.85929 12.8717 2.50001 9.71467 2.50001L9.71388 2.50001C9.16598 2.49915 8.61897 2.54191 8.07851 2.62782C7.80579 2.67117 7.54957 2.48524 7.50621 2.21252C7.46286 1.9398 7.6488 1.68357 7.92152 1.64022ZM19 7.72971L19.4537 7.93983C19.5154 7.80656 19.5154 7.6529 19.4537 7.51962L19 7.72971ZM9.71506 1.50001C9.71519 1.50001 9.71532 1.50001 9.71545 1.50001L9.71467 2.00001V1.50001C9.7148 1.50001 9.71493 1.50001 9.71506 1.50001Z" />
<path fill-rule="evenodd" clip-rule="evenodd" d="M10.097 4.83549C10.1491 4.5643 10.4111 4.38668 10.6823 4.43875C11.4527 4.58669 12.1544 4.98042 12.6821 5.5609C13.2098 6.14137 13.535 6.8773 13.6091 7.65828C13.6351 7.93319 13.4334 8.17717 13.1585 8.20323C12.8836 8.22929 12.6396 8.02756 12.6135 7.75265C12.5599 7.187 12.3243 6.65399 11.9421 6.23356C11.56 5.81313 11.0517 5.52796 10.4938 5.42081C10.2226 5.36873 10.0449 5.10668 10.097 4.83549Z" />
</svg>
