<svg width="24" height="28" viewBox="0 0 24 28" fill="none" xmlns="http://www.w3.org/2000/svg">
<path fill-rule="evenodd" clip-rule="evenodd" d="M1.875 1C1.70924 1 1.55027 1.06585 1.43306 1.18306C1.31585 1.30027 1.25 1.45924 1.25 1.625V26.375C1.25 26.5408 1.31585 26.6997 1.43306 26.8169C1.55027 26.9342 1.70924 27 1.875 27H22.1261C22.2082 27 22.2894 26.9838 22.3653 26.9524C22.4411 26.921 22.51 26.875 22.568 26.8169C22.6261 26.7589 22.6721 26.69 22.7035 26.6142C22.7349 26.5384 22.7511 26.4571 22.7511 26.375V8.58211L15.169 1H1.875ZM0.725951 0.475952C1.0307 0.171205 1.44402 0 1.875 0H15.3761C15.5087 0 15.6359 0.0526784 15.7297 0.146447L23.6047 8.02145C23.6984 8.11521 23.7511 8.24239 23.7511 8.375V26.375C23.7511 26.5884 23.7091 26.7997 23.6274 26.9969C23.5457 27.194 23.426 27.3732 23.2752 27.5241C23.1243 27.6749 22.9451 27.7946 22.748 27.8763C22.5508 27.958 22.3395 28 22.1261 28H1.875C1.44402 28 1.0307 27.8288 0.725951 27.5241C0.421204 27.2193 0.25 26.806 0.25 26.375V1.625C0.25 1.19402 0.421204 0.780698 0.725951 0.475952Z" />
<path fill-rule="evenodd" clip-rule="evenodd" d="M15.375 0C15.6511 0 15.875 0.223858 15.875 0.5V7.875H23.2511C23.5273 7.875 23.7511 8.09886 23.7511 8.375C23.7511 8.65114 23.5273 8.875 23.2511 8.875H15.375C15.0989 8.875 14.875 8.65114 14.875 8.375V0.5C14.875 0.223858 15.0989 0 15.375 0Z" />
<path fill-rule="evenodd" clip-rule="evenodd" d="M7 15.125C7 14.8489 7.22386 14.625 7.5 14.625H16.5C16.7761 14.625 17 14.8489 17 15.125C17 15.4011 16.7761 15.625 16.5 15.625H7.5C7.22386 15.625 7 15.4011 7 15.125Z" />
<path fill-rule="evenodd" clip-rule="evenodd" d="M7 19.625C7 19.3489 7.22386 19.125 7.5 19.125H16.5C16.7761 19.125 17 19.3489 17 19.625C17 19.9011 16.7761 20.125 16.5 20.125H7.5C7.22386 20.125 7 19.9011 7 19.625Z" />
</svg>
