<svg width="20" height="20" viewBox="0 0 20 20" fill="none" xmlns="http://www.w3.org/2000/svg">
<path d="M10.0001 14.375C12.4164 14.375 14.3751 12.4162 14.3751 10C14.3751 7.58375 12.4164 5.625 10.0001 5.625C7.58388 5.625 5.62512 7.58375 5.62512 10C5.62512 12.4162 7.58388 14.375 10.0001 14.375Z" stroke="#101010" stroke-linecap="round" stroke-linejoin="round"/>
<path d="M16.8751 9.37508L17.6803 8.16724C17.7328 8.08943 17.7675 8.00102 17.782 7.90828C17.7964 7.81555 17.7903 7.72077 17.764 7.63067C17.6121 7.13045 17.4119 6.64618 17.1662 6.18472C17.1212 6.10257 17.0586 6.03137 16.9829 5.97621C16.9072 5.92104 16.8203 5.88327 16.7283 5.86559L15.3034 5.5806L14.4196 4.69673L14.1346 3.27184C14.1169 3.17985 14.0791 3.0929 14.0239 3.01719C13.9688 2.94149 13.8976 2.8789 13.8154 2.8339C13.3539 2.58825 12.8697 2.38807 12.3694 2.23618C12.2793 2.20988 12.1845 2.20375 12.0918 2.2182C11.9991 2.23266 11.9107 2.26735 11.8328 2.31982L10.6251 3.125H9.37509L8.16732 2.31982C8.08951 2.26735 8.0011 2.23266 7.90836 2.2182C7.81563 2.20375 7.72085 2.20988 7.63076 2.23618C7.13053 2.38807 6.64625 2.58825 6.18476 2.83389C6.10261 2.8789 6.0314 2.94149 5.97623 3.0172C5.92106 3.0929 5.88329 3.17986 5.86561 3.27185L5.58068 4.69665L4.69674 5.5806L3.27193 5.86552C3.17994 5.8832 3.09299 5.92097 3.01728 5.97613C2.94158 6.0313 2.87899 6.1025 2.83398 6.18465C2.5883 6.64614 2.38808 7.13043 2.23617 7.63068C2.20988 7.72077 2.20375 7.81555 2.2182 7.90828C2.23266 8.00101 2.26736 8.08942 2.31983 8.16723L3.12501 9.375V10.625L2.31983 11.8328C2.26736 11.9106 2.23267 11.999 2.21821 12.0917C2.20375 12.1845 2.20989 12.2792 2.23618 12.3693C2.38805 12.8696 2.58823 13.3539 2.83389 13.8154C2.8789 13.8975 2.94149 13.9687 3.01719 14.0239C3.0929 14.079 3.17985 14.1168 3.27183 14.1345L4.69674 14.4195L5.58061 15.3033L5.86553 16.7282C5.88321 16.8202 5.92098 16.9072 5.97615 16.9829C6.03131 17.0586 6.10251 17.1212 6.18466 17.1662C6.64612 17.4119 7.13039 17.6121 7.63063 17.7639C7.72072 17.7902 7.81549 17.7963 7.90822 17.7819C8.00094 17.7674 8.08934 17.7327 8.16715 17.6803L9.37501 16.8751H10.625L11.8328 17.6803C11.9107 17.7328 11.9991 17.7675 12.0918 17.7819C12.1845 17.7964 12.2793 17.7903 12.3694 17.764C12.8696 17.6121 13.3539 17.4119 13.8154 17.1663C13.8975 17.1213 13.9687 17.0587 14.0239 16.983C14.079 16.9073 14.1168 16.8203 14.1345 16.7283L14.4195 15.3034L15.3034 14.4195L16.7282 14.1346C16.8202 14.1169 16.9072 14.0791 16.9829 14.0239C17.0586 13.9688 17.1212 13.8976 17.1662 13.8154C17.4119 13.354 17.6121 12.8697 17.764 12.3695C17.7903 12.2794 17.7964 12.1846 17.782 12.0919C17.7675 11.9991 17.7328 11.9107 17.6803 11.8329L16.8751 10.6251V9.37508Z" stroke="#101010" stroke-linecap="round" stroke-linejoin="round"/>
</svg>
