<svg width="16" height="14" viewBox="0 0 14 12" fill="none" xmlns="http://www.w3.org/2000/svg"><path d="M7 11.5C7 11.5 0.75 8.00001 0.75 3.75001C0.750127 2.99884 1.01041 2.2709 1.48659 1.68995C1.96277 1.109 2.62546 0.710907 3.36199 0.563343C4.09852 0.41578 4.86343 0.527859 5.52666 0.880525C6.18989 1.23319 6.71051 1.80468 7 2.49782L6.99999 2.49782C7.28949 1.80468 7.81011 1.2332 8.47334 0.880528C9.13657 0.52786 9.90147 0.41578 10.638 0.563343C11.3745 0.710906 12.0372 1.109 12.5134 1.68995C12.9896 2.2709 13.2499 2.99884 13.25 3.75001C13.25 8.00001 7 11.5 7 11.5Z" stroke-linecap="round" stroke-linejoin="round" /></svg>