<svg width="21" height="20" viewBox="0 0 21 20" fill="none" xmlns="http://www.w3.org/2000/svg">
<path fill-rule="evenodd" clip-rule="evenodd" d="M7.50024 1.5C7.77639 1.5 8.00024 1.72386 8.00024 2V18C8.00024 18.2761 7.77639 18.5 7.50024 18.5C7.2241 18.5 7.00024 18.2761 7.00024 18V2C7.00024 1.72386 7.2241 1.5 7.50024 1.5Z" />
<path fill-rule="evenodd" clip-rule="evenodd" d="M11.25 1.5C11.5261 1.5 11.75 1.72386 11.75 2V4.66667C11.75 4.94281 11.5261 5.16667 11.25 5.16667C10.9739 5.16667 10.75 4.94281 10.75 4.66667V2C10.75 1.72386 10.9739 1.5 11.25 1.5Z" />
<path fill-rule="evenodd" clip-rule="evenodd" d="M11.25 14.832C11.5261 14.832 11.75 15.0559 11.75 15.332V17.9987C11.75 18.2749 11.5261 18.4987 11.25 18.4987C10.9739 18.4987 10.75 18.2749 10.75 17.9987V15.332C10.75 15.0559 10.9739 14.832 11.25 14.832Z" />
<path d="M4.5 14.832C4.22386 14.832 4 15.0558 4 15.332C4 15.6081 4.22386 15.832 4.5 15.832V14.832ZM4.5 15.832H13.5V14.832H4.5V15.832Z" />
<path d="M4.5 4.16797C4.22386 4.16797 4 4.39183 4 4.66797C4 4.94411 4.22386 5.16797 4.5 5.16797V4.16797ZM4.5 5.16797H13.5V4.16797H4.5V5.16797Z" />
<path fill-rule="evenodd" clip-rule="evenodd" d="M13.5002 10.5H7.50024V9.5H13.5002V10.5Z" />
<path fill-rule="evenodd" clip-rule="evenodd" d="M15.2891 5.82272C14.8236 5.4089 14.1808 5.16797 13.5 5.16797V4.16797C14.4104 4.16797 15.2938 4.48893 15.9535 5.07532C16.6151 5.66339 17 6.47449 17 7.33464C17 8.19478 16.6151 9.00589 15.9535 9.59396L15.9535 9.59396C15.2938 10.1803 14.4104 10.5013 13.5 10.5013V9.50128C14.1808 9.50128 14.8236 9.26036 15.2891 8.84655C15.7528 8.43443 16 7.88898 16 7.33464C16 6.78029 15.7527 6.23485 15.2891 5.82272Z" />
<path fill-rule="evenodd" clip-rule="evenodd" d="M15.2891 11.1547C14.8236 10.741 14.1807 10.5 13.5 10.5V9.5C14.4105 9.5 15.2938 9.82103 15.9534 10.4073L15.9535 10.4073C16.6151 10.9954 17 11.8065 17 12.6667C17 13.5268 16.6151 14.3379 15.9535 14.926C15.2938 15.5124 14.4104 15.8333 13.5 15.8333V14.8333C14.1808 14.8333 14.8236 14.5924 15.2891 14.1786C15.7527 13.7665 16 13.221 16 12.6667C16 12.1123 15.7528 11.5668 15.2892 11.1547" />
</svg>
