<svg width="21" height="20" viewBox="0 0 21 20" fill="none" xmlns="http://www.w3.org/2000/svg">
<path fill-rule="evenodd" clip-rule="evenodd" d="M4.19994 2.5C4.13927 2.5 4.08569 2.52319 4.04985 2.55731L3.70511 2.19536L4.04985 2.55731C4.01484 2.59066 4 2.63054 4 2.66667V17.3333C4 17.3695 4.01486 17.4093 4.04981 17.4426L4.04997 17.4428C4.08571 17.4768 4.1392 17.5 4.19994 17.5H16.7995C16.8292 17.5 16.8579 17.4944 16.8838 17.4842L17.0672 17.949L16.8833 17.4844C16.9098 17.4739 16.9321 17.4593 16.9496 17.4426C16.9669 17.4262 16.9794 17.4077 16.9876 17.389C16.9956 17.3706 16.9994 17.3518 16.9994 17.3333V6.88094L12.3998 2.5H4.19994ZM3.36017 1.83321C3.58685 1.6173 3.88933 1.5 4.19994 1.5H12.5998C12.7282 1.5 12.8517 1.54939 12.9446 1.63795L17.8442 6.30462C17.9433 6.39899 17.9994 6.52984 17.9994 6.66667V17.3333C17.9994 17.49 17.967 17.6446 17.9046 17.788L17.9045 17.7882C17.8423 17.931 17.7519 18.0595 17.6392 18.1668C17.5267 18.2739 17.3946 18.3575 17.2513 18.4142L17.2508 18.4144C17.1069 18.4712 16.9536 18.5 16.7995 18.5H4.19994C3.8894 18.5 3.58683 18.3828 3.36005 18.1666C3.13256 17.9499 3 17.6507 3 17.3333V2.66667C3 2.34918 3.13264 2.04992 3.36017 1.83321L3.36017 1.83321Z" />
<path fill-rule="evenodd" clip-rule="evenodd" d="M12.5996 1.5C12.8758 1.5 13.0996 1.72386 13.0996 2V6.16667H17.4998C17.776 6.16667 17.9998 6.39053 17.9998 6.66667C17.9998 6.94281 17.776 7.16667 17.4998 7.16667H12.5996C12.3235 7.16667 12.0996 6.94281 12.0996 6.66667V2C12.0996 1.72386 12.3235 1.5 12.5996 1.5Z" />
<path fill-rule="evenodd" clip-rule="evenodd" d="M7.90039 12C7.90039 11.7239 8.12425 11.5 8.40039 11.5H12.6C12.8761 11.5 13.1 11.7239 13.1 12C13.1 12.2761 12.8761 12.5 12.6 12.5H8.40039C8.12425 12.5 7.90039 12.2761 7.90039 12Z" />
<path fill-rule="evenodd" clip-rule="evenodd" d="M10.5 9.5C10.7761 9.5 11 9.72386 11 10V14C11 14.2761 10.7761 14.5 10.5 14.5C10.2239 14.5 10 14.2761 10 14V10C10 9.72386 10.2239 9.5 10.5 9.5Z" />
</svg>
