<svg width="21" height="20" viewBox="0 0 21 20" fill="none" xmlns="http://www.w3.org/2000/svg">
<path d="M10.5001 14.4932C12.8792 14.4932 14.8078 12.4818 14.8078 10.0005C14.8078 7.51926 12.8792 5.50781 10.5001 5.50781C8.12099 5.50781 6.19238 7.51926 6.19238 10.0005C6.19238 12.4818 8.12099 14.4932 10.5001 14.4932Z"  stroke-linecap="round" stroke-linejoin="round"/>
<path d="M4.9453 14.0858L4.85323 15.5752C4.84662 15.6706 4.86027 15.7664 4.89321 15.8557C4.92614 15.9451 4.97755 16.0257 5.04378 16.0919C5.92888 16.9675 6.99993 17.6125 8.16954 17.9741C8.25765 18.0008 8.35032 18.0069 8.44095 17.992C8.53158 17.9771 8.61795 17.9415 8.6939 17.8878L9.88457 17.06H11.1153L12.306 17.8879C12.382 17.9416 12.4684 17.9771 12.559 17.992C12.6496 18.007 12.7423 18.0008 12.8304 17.9741C14 17.6125 15.0711 16.9676 15.9561 16.092C16.0224 16.0257 16.0738 15.9451 16.1067 15.8558C16.1397 15.7665 16.1533 15.6707 16.1467 15.5752L16.0547 14.0859L16.67 12.9742L17.9528 12.3127C18.0354 12.2709 18.1081 12.2107 18.1658 12.1363C18.2235 12.0619 18.2647 11.9751 18.2866 11.8822C18.5711 10.645 18.5711 9.3551 18.2866 8.11787C18.2647 8.02494 18.2235 7.93818 18.1658 7.86377C18.1081 7.78936 18.0354 7.72914 17.9528 7.68738L16.6701 7.02585L16.0547 5.9142L16.1468 4.4248C16.1534 4.32936 16.1397 4.23356 16.1068 4.14425C16.0739 4.05493 16.0224 3.97429 15.9562 3.90805C15.0711 3.03246 14.0001 2.38754 12.8305 2.02591C12.7424 1.9992 12.6497 1.99308 12.5591 2.00799C12.4684 2.0229 12.3821 2.05847 12.3061 2.11216L11.1154 2.93998H9.88467L8.69396 2.11212C8.61801 2.05843 8.53165 2.02286 8.44101 2.00795C8.35038 1.99304 8.25771 1.99915 8.1696 2.02586C6.99999 2.3875 5.92894 3.03243 5.04385 3.90804C4.97762 3.97426 4.92621 4.05491 4.89327 4.14422C4.86033 4.23354 4.84668 4.32933 4.85329 4.42477L4.94535 5.91413L4.32996 7.02578L3.04719 7.68732C2.96463 7.72907 2.89192 7.7893 2.83422 7.8637C2.77652 7.93811 2.73526 8.02487 2.71338 8.1178C2.42887 9.35503 2.42887 10.6449 2.7134 11.8821C2.73527 11.9751 2.77653 12.0618 2.83422 12.1362C2.89192 12.2106 2.96463 12.2709 3.04719 12.3126L4.32992 12.9741L4.9453 14.0858Z"  stroke-miterlimit="10"/>
</svg>
