<svg width="21" height="20" viewBox="0 0 21 20" fill="none" xmlns="http://www.w3.org/2000/svg">
<path fill-rule="evenodd" clip-rule="evenodd" d="M12.4326 13.199C12.4326 11.6757 13.6883 10.457 15.2173 10.457C16.7462 10.457 18.002 11.6757 18.002 13.199C18.002 14.7224 16.7462 15.9411 15.2173 15.9411C13.6883 15.9411 12.4326 14.7224 12.4326 13.199ZM15.2173 11.4612C14.2249 11.4612 13.4368 12.2481 13.4368 13.199C13.4368 14.15 14.2249 14.9369 15.2173 14.9369C16.2096 14.9369 16.9978 14.15 16.9978 13.199C16.9978 12.2481 16.2096 11.4612 15.2173 11.4612Z" />
<path fill-rule="evenodd" clip-rule="evenodd" d="M1.9978 15.7615C1.9978 14.2382 3.25354 13.0195 4.78249 13.0195C6.31145 13.0195 7.56719 14.2382 7.56719 15.7615C7.56719 17.2848 6.31148 18.5036 4.78249 18.5036C3.25351 18.5036 1.9978 17.2848 1.9978 15.7615ZM4.78249 14.0237C3.79016 14.0237 3.00198 14.8106 3.00198 15.7615C3.00198 16.7125 3.79019 17.4994 4.78249 17.4994C5.77481 17.4994 6.56301 16.7125 6.56301 15.7615C6.56301 14.8106 5.77483 14.0237 4.78249 14.0237Z" />
<path fill-rule="evenodd" clip-rule="evenodd" d="M17.9876 5.71851C18.0537 5.98782 17.8889 6.2597 17.6196 6.32577L7.18483 8.88575C6.91552 8.95182 6.64364 8.78707 6.57757 8.51776C6.5115 8.24845 6.67625 7.97657 6.94556 7.9105L17.3804 5.35051C17.6497 5.28444 17.9215 5.4492 17.9876 5.71851Z" />
<path fill-rule="evenodd" clip-rule="evenodd" d="M17.81 1.60312C17.9313 1.6983 18.0022 1.84396 18.0022 1.99819V13.1981C18.0022 13.4754 17.7774 13.7002 17.5001 13.7002C17.2228 13.7002 16.998 13.4754 16.998 13.1981V2.63835L7.56741 4.95197V15.7581C7.56741 16.0354 7.34262 16.2602 7.06532 16.2602C6.78803 16.2602 6.56323 16.0354 6.56323 15.7581V4.55817C6.56323 4.32695 6.72113 4.12563 6.94569 4.07054L17.3805 1.51056C17.5303 1.47381 17.6886 1.50794 17.81 1.60312Z" />
</svg>
