<svg width="20" height="20" viewBox="0 0 20 20" fill="none" xmlns="http://www.w3.org/2000/svg">
<path fill-rule="evenodd" clip-rule="evenodd" d="M15.3639 1.64645C15.5592 1.45118 15.8758 1.45118 16.071 1.64645L18.8536 4.42906C19.0489 4.62432 19.0489 4.9409 18.8536 5.13616L10.5058 13.484C10.412 13.5777 10.2849 13.6304 10.1523 13.6304H7.36963C7.09349 13.6304 6.86963 13.4065 6.86963 13.1304V10.3478C6.86963 10.2152 6.92231 10.088 7.01608 9.99425L15.3639 1.64645ZM7.86963 10.5549V12.6304H9.94515L17.793 4.78261L15.7175 2.70711L7.86963 10.5549Z" />
<path fill-rule="evenodd" clip-rule="evenodd" d="M13.2768 3.73238C13.4721 3.53712 13.7887 3.53712 13.9839 3.73238L16.7665 6.51499C16.9618 6.71026 16.9618 7.02684 16.7665 7.2221C16.5713 7.41736 16.2547 7.41736 16.0594 7.2221L13.2768 4.43949C13.0816 4.24423 13.0816 3.92765 13.2768 3.73238Z" />
<path fill-rule="evenodd" clip-rule="evenodd" d="M3.19565 3.19531C3.14376 3.19531 3.09399 3.21593 3.0573 3.25262C3.02061 3.28931 3 3.33907 3 3.39096V17.304C3 17.3559 3.02058 17.4057 3.05736 17.4424C3.09407 17.4791 3.14382 17.4996 3.19565 17.4996H17.1087C17.1605 17.4996 17.2102 17.4791 17.247 17.4424C17.2837 17.4057 17.3043 17.356 17.3043 17.304V9.65183C17.3043 9.37569 17.5282 9.15183 17.8043 9.15183C18.0804 9.15183 18.3043 9.37569 18.3043 9.65183V17.304C18.3043 17.621 18.1785 17.9251 17.9542 18.1495L17.954 18.1496C17.7298 18.3736 17.4259 18.4996 17.1087 18.4996H3.19565C2.87854 18.4996 2.57447 18.3737 2.35028 18.1496L2.35014 18.1494C2.126 17.9252 2 17.6212 2 17.304V3.39096C2 3.07386 2.12597 2.76974 2.3502 2.54551C2.57443 2.32128 2.87854 2.19531 3.19565 2.19531H10.8478C11.1239 2.19531 11.3478 2.41917 11.3478 2.69531C11.3478 2.97145 11.1239 3.19531 10.8478 3.19531H3.19565Z" />
</svg>
