<svg width="21" height="20" viewBox="0 0 21 20" fill="none" xmlns="http://www.w3.org/2000/svg">
<path d="M7.24653 12.8259C9.53867 12.8259 11.3968 10.8503 11.3968 8.41342C11.3968 5.9765 9.53867 4.00098 7.24653 4.00098C4.9544 4.00098 3.09625 5.9765 3.09625 8.41342C3.09625 10.8503 4.9544 12.8259 7.24653 12.8259Z"  stroke-miterlimit="10"/>
<path d="M12.6272 4.16537C13.198 3.99438 13.7967 3.95543 14.3829 4.05114C14.9691 4.14685 15.5292 4.375 16.0255 4.72022C16.5217 5.06545 16.9427 5.51973 17.2599 6.05247C17.5771 6.58522 17.7833 7.18405 17.8645 7.80863C17.9457 8.43322 17.9001 9.06906 17.7307 9.67332C17.5613 10.2776 17.2721 10.8362 16.8826 11.3117C16.493 11.7871 16.0121 12.1682 15.4723 12.4294C14.9326 12.6906 14.3464 12.8258 13.7533 12.8259"  stroke-linecap="round" stroke-linejoin="round"/>
<path d="M1.5 15.9999C2.14819 15.0196 3.0087 14.2196 4.00889 13.6673C5.00907 13.115 6.11956 12.8266 7.24661 12.8266C8.37366 12.8265 9.48417 13.1148 10.4844 13.667C11.4846 14.2192 12.3452 15.0192 12.9935 15.9994"  stroke-linecap="round" stroke-linejoin="round"/>
<path d="M13.7532 12.8266C14.8803 12.8257 15.9911 13.1136 16.9914 13.6659C17.9917 14.2182 18.8521 15.0186 19.4997 15.9994"  stroke-linecap="round" stroke-linejoin="round"/>
</svg>
