<svg width="21" height="20" viewBox="0 0 21 20" fill="none" xmlns="http://www.w3.org/2000/svg">
<path fill-rule="evenodd" clip-rule="evenodd" d="M2 5.27273C2 3.18911 3.68911 1.5 5.77273 1.5C7.85634 1.5 9.54545 3.18911 9.54545 5.27273C9.54545 7.35634 7.85634 9.04545 5.77273 9.04545C3.68911 9.04545 2 7.35634 2 5.27273ZM5.77273 2.5C4.24139 2.5 3 3.74139 3 5.27273C3 6.80406 4.24139 8.04545 5.77273 8.04545C7.30406 8.04545 8.54545 6.80406 8.54545 5.27273C8.54545 3.74139 7.30406 2.5 5.77273 2.5Z" />
<path fill-rule="evenodd" clip-rule="evenodd" d="M11.4546 5.27273C11.4546 3.1891 13.1438 1.5 15.2274 1.5C17.3109 1.5 19.0001 3.18911 19.0001 5.27273C19.0001 7.35635 17.3109 9.04545 15.2274 9.04545C13.1438 9.04545 11.4546 7.35636 11.4546 5.27273ZM15.2274 2.5C13.696 2.5 12.4546 3.7414 12.4546 5.27273C12.4546 6.80404 13.696 8.04545 15.2274 8.04545C16.7586 8.04545 18.0001 6.80405 18.0001 5.27273C18.0001 3.74139 16.7586 2.5 15.2274 2.5Z" />
<path fill-rule="evenodd" clip-rule="evenodd" d="M2 14.7258C2 12.6422 3.68912 10.9531 5.77273 10.9531C7.85634 10.9531 9.54545 12.6422 9.54545 14.7258C9.54545 16.8095 7.85634 18.4985 5.77273 18.4985C3.68912 18.4985 2 16.8095 2 14.7258ZM5.77273 11.9531C4.24138 11.9531 3 13.1945 3 14.7258C3 16.2572 4.24138 17.4985 5.77273 17.4985C7.30406 17.4985 8.54545 16.2572 8.54545 14.7258C8.54545 13.1945 7.30406 11.9531 5.77273 11.9531Z" />
<path fill-rule="evenodd" clip-rule="evenodd" d="M15.2271 11.6836C15.5032 11.6836 15.7271 11.9075 15.7271 12.1836V17.2745C15.7271 17.5506 15.5032 17.7745 15.2271 17.7745C14.9509 17.7745 14.7271 17.5506 14.7271 17.2745V12.1836C14.7271 11.9075 14.9509 11.6836 15.2271 11.6836Z" />
<path fill-rule="evenodd" clip-rule="evenodd" d="M12.1819 14.7266C12.1819 14.4504 12.4057 14.2266 12.6819 14.2266H17.7728C18.0489 14.2266 18.2728 14.4504 18.2728 14.7266C18.2728 15.0027 18.0489 15.2266 17.7728 15.2266H12.6819C12.4057 15.2266 12.1819 15.0027 12.1819 14.7266Z" />
</svg>
