<svg width="16" height="16" viewBox="0 0 16 16" fill="none" xmlns="http://www.w3.org/2000/svg">
<path fill-rule="evenodd" clip-rule="evenodd" d="M8 1C4.13401 1 1 4.13401 1 8C1 11.866 4.13401 15 8 15C11.866 15 15 11.866 15 8C15 4.13401 11.866 1 8 1ZM0 8C0 3.58172 3.58172 0 8 0C12.4183 0 16 3.58172 16 8C16 12.4183 12.4183 16 8 16C3.58172 16 0 12.4183 0 8Z"/>
<path fill-rule="evenodd" clip-rule="evenodd" d="M6.875 7.375C6.875 7.09886 7.09886 6.875 7.375 6.875H8C8.27614 6.875 8.5 7.09886 8.5 7.375V11.25H8.625C8.90114 11.25 9.125 11.4739 9.125 11.75C9.125 12.0261 8.90114 12.25 8.625 12.25H8C7.72386 12.25 7.5 12.0261 7.5 11.75V7.875H7.375C7.09886 7.875 6.875 7.65114 6.875 7.375Z"/>
<path d="M8 5.5C8.51777 5.5 8.9375 5.08027 8.9375 4.5625C8.9375 4.04473 8.51777 3.625 8 3.625C7.48223 3.625 7.0625 4.04473 7.0625 4.5625C7.0625 5.08027 7.48223 5.5 8 5.5Z"/>
</svg>
