<svg width="11" height="17" viewBox="0 0 11 17" fill="none" xmlns="http://www.w3.org/2000/svg">
<path fill-rule="evenodd" clip-rule="evenodd" d="M4.32812 17.0001H9.37207C10.2361 17.0001 10.8601 16.3761 10.8601 15.5361C10.8601 14.7201 10.2361 14.0721 9.37207 14.0721H5.91212V9.00008H7.87207C8.42436 9.00008 8.87207 8.55236 8.87207 8.00008C8.87207 7.44779 8.42436 7.00008 7.87207 7.00008H5.91212V6.00008H7.87207C8.42436 6.00008 8.87207 5.55236 8.87207 5.00008C8.87207 4.44779 8.42436 4.00008 7.87207 4.00008H5.91212V2.52807C5.91212 1.59207 5.24012 0.87207 4.30412 0.87207C3.34412 0.87207 2.67212 1.66407 2.67212 2.52807V4.00008H1.87207C1.31979 4.00008 0.87207 4.44779 0.87207 5.00008C0.87207 5.55236 1.31979 6.00008 1.87207 6.00008H2.67212V7.00008H1.87207C1.31979 7.00008 0.87207 7.44779 0.87207 8.00008C0.87207 8.55236 1.31979 9.00008 1.87207 9.00008H2.67212V15.3441C2.67212 16.3041 3.36812 17.0001 4.32812 17.0001Z" />
</svg>
