<svg width="114" height="32" viewBox="0 0 114 32" fill="none" xmlns="http://www.w3.org/2000/svg">
<path d="M26.8621 5.04544C23.788 2.01515 20.1094 0.5 15.8199 0.5C11.5303 0.5 7.80327 2.01515 4.61602 5.04544C1.53867 8.07254 0 11.6981 0 15.9188C0 20.1396 1.53867 23.816 4.61602 26.9546C7.80327 29.9817 11.54 31.5 15.8231 31.5C20.1062 31.5 23.788 29.9849 26.8654 26.9546C30.0526 23.816 31.6462 20.1364 31.6462 15.9188C31.6462 11.7013 30.0526 8.07573 26.8654 5.04544H26.8621ZM14.6174 21.4447C14.6174 22.1863 14.3362 22.8325 13.7769 23.3863C13.2371 23.9179 12.5874 24.1853 11.8342 24.1853C11.081 24.1853 10.4248 23.9179 9.86238 23.3863C9.32255 22.8357 9.05102 22.1863 9.05102 21.4447V10.5235C9.05102 9.78186 9.32255 9.14524 9.86238 8.61048C10.4216 8.07891 11.081 7.81153 11.8342 7.81153C12.5874 7.81153 13.2339 8.07891 13.7769 8.61048C14.3362 9.14206 14.6174 9.78186 14.6174 10.5235V21.4447ZM22.5888 21.4447C22.5888 22.1863 22.3075 22.8325 21.7483 23.3863C21.2085 23.9179 20.5587 24.1853 19.8056 24.1853C19.0524 24.1853 18.3962 23.9179 17.8337 23.3863C17.2939 22.8357 17.0224 22.1863 17.0224 21.4447V17.3417C17.0288 16.6127 17.2971 15.9825 17.8305 15.4573C18.3897 14.9257 19.0492 14.6583 19.8023 14.6583C20.5555 14.6583 21.202 14.9257 21.7451 15.4573C22.2978 15.9825 22.5758 16.6127 22.5823 17.3417V21.4447H22.5888ZM21.7483 12.4652C21.2085 12.9968 20.5587 13.2641 19.8056 13.2641C19.0524 13.2641 18.3962 12.9968 17.8337 12.4652C17.2939 11.9145 17.0224 11.2652 17.0224 10.5235C17.0224 9.78186 17.2939 9.14524 17.8337 8.61048C18.393 8.07891 19.0524 7.81153 19.8056 7.81153C20.5587 7.81153 21.2052 8.07891 21.7483 8.61048C22.3075 9.14206 22.5888 9.78186 22.5888 10.5235C22.5888 11.2652 22.3075 11.9113 21.7483 12.4652Z" />
<path d="M42.3558 31.4968C40.384 31.4968 38.7871 29.9244 38.7871 27.9827V4.10006C38.7871 2.15838 40.384 0.585938 42.3558 0.585938C44.3276 0.585938 45.9245 2.15838 45.9245 4.10006V27.9827C45.9245 29.9244 44.3276 31.4968 42.3558 31.4968Z" />
<path d="M98.5168 20.9099L102.454 26.4484C103.964 28.5747 102.422 31.4936 99.7872 31.4936C98.6978 31.4936 97.6828 30.9589 97.0783 30.0644L91.9386 22.4728V27.9795C91.9386 29.9212 90.3418 31.4936 88.37 31.4936C86.3981 31.4936 84.8013 29.9212 84.8013 27.9795V4.10006C84.8013 2.15838 86.3981 0.585938 88.37 0.585938C90.3418 0.585938 91.9386 2.15838 91.9386 4.10006V19.1751L96.4932 11.9113C97.1107 10.9246 98.2032 10.3262 99.3799 10.3262C102.095 10.3262 103.708 13.3087 102.195 15.5273L98.52 20.9131L98.5168 20.9099Z" />
<path d="M55.9451 7.40091C55.1435 8.19032 54.1834 8.5882 53.065 8.5882C51.9465 8.5882 50.9735 8.1935 50.1396 7.40091C49.3379 6.58286 48.9338 5.62157 48.9338 4.52023C48.9338 3.41888 49.3347 2.47351 50.1396 1.68411C50.9703 0.894702 51.9465 0.5 53.0617 0.5C54.177 0.5 55.1402 0.894702 55.9419 1.68729C56.7727 2.47669 57.1897 3.42207 57.1897 4.52341C57.1897 5.62476 56.7727 6.58286 55.9419 7.4041L55.9451 7.40091Z" />
<path d="M56.6296 13.8364C56.6296 11.8956 55.0318 10.3223 53.0609 10.3223C51.0899 10.3223 49.4922 11.8956 49.4922 13.8364V27.982C49.4922 29.9228 51.0899 31.4961 53.0609 31.4961C55.0318 31.4961 56.6296 29.9228 56.6296 27.982V13.8364Z" />
<path d="M79.0603 12.1251C77.6121 10.5304 75.6985 9.73145 73.3194 9.73145C70.6234 9.73145 67.3425 10.8201 67.3425 14.0604V13.8408C67.3425 11.8991 65.7456 10.3267 63.7738 10.3267C61.8019 10.3267 60.2051 11.8991 60.2051 13.8408V27.9832C60.2051 29.9249 61.8019 31.4973 63.7738 31.4973C65.7456 31.4973 67.3425 29.9249 67.3425 27.9832V20.2324C67.3425 18.991 67.6495 18.0393 68.2669 17.374C68.8844 16.7119 69.7507 16.3777 70.8691 16.3777C71.8712 16.3777 72.6599 16.6674 73.2353 17.2467C73.8075 17.826 74.0952 18.6504 74.0952 19.7231V27.98C74.0952 29.9217 75.692 31.4942 77.6638 31.4942C79.6357 31.4942 81.2325 29.9217 81.2325 27.98V18.8319C81.2325 15.9512 80.5084 13.7167 79.0603 12.1219V12.1251Z" />
<path d="M112.752 7.40091C111.951 8.19032 110.991 8.5882 109.872 8.5882C108.754 8.5882 107.781 8.1935 106.947 7.40091C106.145 6.58286 105.741 5.62157 105.741 4.52023C105.741 3.41888 106.142 2.47351 106.947 1.68411C107.781 0.894702 108.754 0.5 109.872 0.5C110.991 0.5 111.951 0.894702 112.752 1.68729C113.583 2.47669 114 3.42207 114 4.52341C114 5.62476 113.583 6.58286 112.752 7.4041V7.40091Z" />
<path d="M113.443 13.8364C113.443 11.8956 111.845 10.3223 109.874 10.3223C107.903 10.3223 106.306 11.8956 106.306 13.8364V27.982C106.306 29.9228 107.903 31.4961 109.874 31.4961C111.845 31.4961 113.443 29.9228 113.443 27.982V13.8364Z" />
</svg>
