<svg width="20" height="20" viewBox="0 0 20 20" fill="none" xmlns="http://www.w3.org/2000/svg">
<path fill-rule="evenodd" clip-rule="evenodd" d="M3.74951 7.375C3.68048 7.375 3.62451 7.43096 3.62451 7.5V16.25C3.62451 16.319 3.68048 16.375 3.74951 16.375H16.2495C16.3185 16.375 16.3745 16.319 16.3745 16.25V7.5C16.3745 7.43096 16.3185 7.375 16.2495 7.375H3.74951ZM2.62451 7.5C2.62451 6.87868 3.12819 6.375 3.74951 6.375H16.2495C16.8708 6.375 17.3745 6.87868 17.3745 7.5V16.25C17.3745 16.8713 16.8708 17.375 16.2495 17.375H3.74951C3.12819 17.375 2.62451 16.8713 2.62451 16.25V7.5Z" fill="#101010"/>
<path fill-rule="evenodd" clip-rule="evenodd" d="M9.99951 1.75C9.3862 1.75 8.79801 1.99364 8.36433 2.42732C7.93065 2.86099 7.68701 3.44919 7.68701 4.0625V6.875C7.68701 7.15114 7.46315 7.375 7.18701 7.375C6.91087 7.375 6.68701 7.15114 6.68701 6.875V4.0625C6.68701 3.18397 7.03601 2.34142 7.65722 1.72021C8.27843 1.09899 9.12098 0.75 9.99951 0.75C10.878 0.75 11.7206 1.09899 12.3418 1.72021C12.963 2.34142 13.312 3.18397 13.312 4.0625V6.875C13.312 7.15114 13.0882 7.375 12.812 7.375C12.5359 7.375 12.312 7.15114 12.312 6.875V4.0625C12.312 3.44919 12.0684 2.86099 11.6347 2.42732C11.201 1.99364 10.6128 1.75 9.99951 1.75Z" fill="#101010"/>
</svg>
