<svg width="19" height="19" viewBox="0 0 19 19" fill="none" xmlns="http://www.w3.org/2000/svg">
<path fill-rule="evenodd" clip-rule="evenodd" d="M14.8964 0.646447C15.0917 0.451184 15.4083 0.451184 15.6036 0.646447L18.6036 3.64645C18.7988 3.84171 18.7988 4.15829 18.6036 4.35355L9.60355 13.3536C9.50979 13.4473 9.38261 13.5 9.25 13.5H6.25C5.97386 13.5 5.75 13.2761 5.75 13V10C5.75 9.86739 5.80268 9.74021 5.89645 9.64645L14.8964 0.646447ZM6.75 10.2071V12.5H9.04289L17.5429 4L15.25 1.70711L6.75 10.2071Z" />
<path fill-rule="evenodd" clip-rule="evenodd" d="M12.6464 2.89645C12.8417 2.70118 13.1583 2.70118 13.3536 2.89645L16.3536 5.89645C16.5488 6.09171 16.5488 6.40829 16.3536 6.60355C16.1583 6.79882 15.8417 6.79882 15.6464 6.60355L12.6464 3.60355C12.4512 3.40829 12.4512 3.09171 12.6464 2.89645Z" />
<path fill-rule="evenodd" clip-rule="evenodd" d="M1.75 2.25C1.6837 2.25 1.62011 2.27634 1.57322 2.32322L1.57322 2.32322C1.52634 2.37011 1.5 2.4337 1.5 2.5V17.5C1.5 17.5663 1.52634 17.6299 1.57322 17.6768C1.62011 17.7237 1.6837 17.75 1.75 17.75H16.75C16.8163 17.75 16.8799 17.7237 16.9268 17.6768C16.9737 17.6299 17 17.5663 17 17.5V9.25C17 8.97386 17.2239 8.75 17.5 8.75C17.7761 8.75 18 8.97386 18 9.25V17.5C18 17.8315 17.8683 18.1495 17.6339 18.3839C17.3995 18.6183 17.0815 18.75 16.75 18.75H1.75C1.41848 18.75 1.10054 18.6183 0.866117 18.3839C0.631696 18.1495 0.5 17.8315 0.5 17.5V2.5C0.5 2.16848 0.631696 1.85054 0.866116 1.61612M0.866117 1.61612C1.10054 1.38169 1.41848 1.25 1.75 1.25H10C10.2761 1.25 10.5 1.47386 10.5 1.75C10.5 2.02614 10.2761 2.25 10 2.25H1.75" />
</svg>
