<svg width="15" height="16" viewBox="0 0 15 16" fill="none" xmlns="http://www.w3.org/2000/svg">
<path fill-rule="evenodd" clip-rule="evenodd" d="M10.6015 0.22798C10.9655 0.0772158 11.3556 -0.00038141 11.7495 -0.00038147C12.1435 -0.000381529 12.5336 0.077216 12.8976 0.22798C13.2616 0.378744 13.5923 0.599722 13.8709 0.878298C14.1494 1.15687 14.3704 1.48759 14.5212 1.85157C14.6719 2.21555 14.7495 2.60565 14.7495 2.99962C14.7495 3.39358 14.6719 3.78369 14.5212 4.14767C14.3706 4.5111 14.1501 4.84137 13.8721 5.11968C13.8717 5.1201 13.8713 5.12052 13.8709 5.12094L6.11245 12.9874C5.78426 13.3156 5.33913 13.5 4.875 13.5C4.41087 13.5 3.96575 13.3156 3.63756 12.9874C3.30937 12.6592 3.125 12.2141 3.125 11.75C3.125 11.2866 3.30878 10.8422 3.63598 10.5142L10.1431 3.89899C10.3367 3.70213 10.6533 3.69952 10.8502 3.89317C11.047 4.08681 11.0496 4.40339 10.856 4.60025L4.34468 11.2197C4.20403 11.3603 4.125 11.5511 4.125 11.75C4.125 11.9489 4.20402 12.1397 4.34467 12.2803C4.48532 12.421 4.67609 12.5 4.875 12.5C5.0734 12.5 5.2637 12.4214 5.40425 12.2814C5.40461 12.281 5.40497 12.2807 5.40533 12.2803L13.1613 4.41629L13.1638 4.41383C13.3495 4.22812 13.4968 4.00764 13.5973 3.76499C13.6978 3.52233 13.7495 3.26226 13.7495 2.99962C13.7495 2.73697 13.6978 2.4769 13.5973 2.23425C13.4968 1.9916 13.3495 1.77112 13.1638 1.5854C12.978 1.39969 12.7576 1.25237 12.5149 1.15186C12.2723 1.05135 12.0122 0.999619 11.7495 0.999619C11.4869 0.999619 11.2268 1.05135 10.9842 1.15186C10.742 1.25216 10.5219 1.39909 10.3365 1.58427C10.3361 1.58465 10.3357 1.58503 10.3353 1.58541L2.57691 9.45191C1.96742 10.0614 1.625 10.888 1.625 11.75C1.625 12.612 1.96741 13.4386 2.5769 14.0481C3.1864 14.6576 4.01305 15 4.875 15C5.73695 15 6.5636 14.6576 7.1731 14.0481L13.5837 7.64584C13.7791 7.4507 14.0957 7.45091 14.2908 7.6463C14.486 7.84169 14.4858 8.15827 14.2904 8.3534L7.8802 14.7552C7.08317 15.5522 6.00217 16 4.875 16C3.74783 16 2.66683 15.5522 1.8698 14.7552C1.07277 13.9582 0.625 12.8772 0.625 11.75C0.625 10.6234 1.07229 9.54296 1.86854 8.74606C1.86896 8.74564 1.86938 8.74522 1.8698 8.7448L9.62578 0.880752L9.62822 0.878298C9.9068 0.599723 10.2375 0.378744 10.6015 0.22798Z"/>
</svg>
