<svg width="16" height="18" viewBox="0 0 16 18" fill="none" xmlns="http://www.w3.org/2000/svg">
<path fill-rule="evenodd" clip-rule="evenodd" d="M3.125 9C3.125 8.72386 3.34886 8.5 3.625 8.5H8.625C8.90114 8.5 9.125 8.72386 9.125 9C9.125 9.27614 8.90114 9.5 8.625 9.5H3.625C3.34886 9.5 3.125 9.27614 3.125 9Z"/>
<path fill-rule="evenodd" clip-rule="evenodd" d="M2.14169 1.31005C1.73656 1.07679 1.26143 1.47755 1.42304 1.91621L3.84181 8.48144C3.96512 8.81615 3.96512 9.18385 3.84181 9.51856L1.42304 16.0838C1.26143 16.5224 1.73656 16.9232 2.14169 16.69L14.7453 9.43331C15.0794 9.241 15.0794 8.75901 14.7453 8.56669L2.14169 1.31005ZM0.484693 2.26192C-0.000141799 0.945936 1.42526 -0.256345 2.64066 0.443426L15.2443 7.70007C16.2464 8.27702 16.2464 9.72298 15.2443 10.2999L2.64065 17.5566C1.42526 18.2563 -0.00014168 17.0541 0.484693 15.7381L2.90346 9.17285C2.94457 9.06128 2.94457 8.93872 2.90346 8.82715L0.484693 2.26192Z"/>
</svg>
