<svg width="27" height="12" viewBox="0 0 27 12" fill="none" xmlns="http://www.w3.org/2000/svg">
<g opacity="0.6">
<circle opacity="0.7" cx="13.5" cy="2.76" r="2.7"/>
<circle opacity="0.4" cx="21.06" cy="2.76" r="2.7"/>
<path opacity="1" fill-rule="evenodd" clip-rule="evenodd" d="M14.04 11.94H19.44V11.4C19.44 8.11945 16.7806 5.46002 13.5 5.46002C12.8815 5.46002 12.2851 5.55454 11.7245 5.72993C13.1568 7.19098 14.04 9.19236 14.04 11.4V11.94Z"/>
<path opacity="0.4" fill-rule="evenodd" clip-rule="evenodd" d="M21.6 11.94H27V11.4C27 8.11945 24.3406 5.46002 21.06 5.46002C20.4415 5.46002 19.8451 5.55454 19.2845 5.72993C20.7168 7.19098 21.6 9.19236 21.6 11.4V11.94Z"/>
<path d="M0 11.3999C0 8.11933 2.65943 5.4599 5.94001 5.4599L-nan -nanL-nan -nanL5.94001 5.4599C9.22059 5.4599 11.88 8.11933 11.88 11.3999V11.9399H0V11.3999Z"/>
<circle cx="5.93999" cy="2.76" r="2.7"/>
</g>
</svg>
