<svg width="18" height="18" viewBox="0 0 18 18" fill="none" xmlns="http://www.w3.org/2000/svg">
<path fill-rule="evenodd" clip-rule="evenodd" d="M10.8453 3.46329C11.1073 3.55062 11.2488 3.83378 11.1615 4.09575L7.78649 14.2208C7.69916 14.4828 7.416 14.6243 7.15403 14.537C6.89206 14.4497 6.75048 14.1665 6.83781 13.9046L10.2128 3.77952C10.3002 3.51755 10.5833 3.37597 10.8453 3.46329Z" />
<path fill-rule="evenodd" clip-rule="evenodd" d="M3.99951 14.0625C3.99951 13.7864 4.22337 13.5625 4.49951 13.5625H10.1245C10.4007 13.5625 10.6245 13.7864 10.6245 14.0625C10.6245 14.3386 10.4007 14.5625 10.1245 14.5625H4.49951C4.22337 14.5625 3.99951 14.3386 3.99951 14.0625Z" />
<path fill-rule="evenodd" clip-rule="evenodd" d="M7.37451 3.9375C7.37451 3.66136 7.59837 3.4375 7.87451 3.4375H13.4995C13.7757 3.4375 13.9995 3.66136 13.9995 3.9375C13.9995 4.21364 13.7757 4.4375 13.4995 4.4375H7.87451C7.59837 4.4375 7.37451 4.21364 7.37451 3.9375Z" />
</svg>
