<svg width="18" height="18" viewBox="0 0 18 18" fill="none" xmlns="http://www.w3.org/2000/svg">
<path fill-rule="evenodd" clip-rule="evenodd" d="M5.6875 4.5C5.6875 4.22386 5.91136 4 6.1875 4H15.1875C15.4636 4 15.6875 4.22386 15.6875 4.5C15.6875 4.77614 15.4636 5 15.1875 5H6.1875C5.91136 5 5.6875 4.77614 5.6875 4.5Z" />
<path fill-rule="evenodd" clip-rule="evenodd" d="M5.68799 9C5.68799 8.72386 5.91185 8.5 6.18799 8.5H15.1876C15.4637 8.5 15.6876 8.72386 15.6876 9C15.6876 9.27614 15.4637 9.5 15.1876 9.5H6.18799C5.91185 9.5 5.68799 9.27614 5.68799 9Z" />
<path fill-rule="evenodd" clip-rule="evenodd" d="M5.68799 13.5C5.68799 13.2239 5.91185 13 6.18799 13H15.1876C15.4637 13 15.6876 13.2239 15.6876 13.5C15.6876 13.7761 15.4637 14 15.1876 14H6.18799C5.91185 14 5.68799 13.7761 5.68799 13.5Z" />
<path d="M3.09375 5.34375C3.55974 5.34375 3.9375 4.96599 3.9375 4.5C3.9375 4.03401 3.55974 3.65625 3.09375 3.65625C2.62776 3.65625 2.25 4.03401 2.25 4.5C2.25 4.96599 2.62776 5.34375 3.09375 5.34375Z" />
<path d="M3.09375 9.84375C3.55974 9.84375 3.9375 9.46599 3.9375 9C3.9375 8.53401 3.55974 8.15625 3.09375 8.15625C2.62776 8.15625 2.25 8.53401 2.25 9C2.25 9.46599 2.62776 9.84375 3.09375 9.84375Z" />
<path d="M3.09375 14.3438C3.55974 14.3438 3.9375 13.966 3.9375 13.5C3.9375 13.034 3.55974 12.6562 3.09375 12.6562C2.62776 12.6562 2.25 13.034 2.25 13.5C2.25 13.966 2.62776 14.3438 3.09375 14.3438Z" />
</svg>
