<svg width="18" height="18" viewBox="0 0 18 18" fill="none" xmlns="http://www.w3.org/2000/svg">
<path fill-rule="evenodd" clip-rule="evenodd" d="M2.3125 15.1875C2.3125 14.9114 2.53636 14.6875 2.8125 14.6875H15.1875C15.4636 14.6875 15.6875 14.9114 15.6875 15.1875C15.6875 15.4636 15.4636 15.6875 15.1875 15.6875H2.8125C2.53636 15.6875 2.3125 15.4636 2.3125 15.1875Z" />
<path fill-rule="evenodd" clip-rule="evenodd" d="M4.5 3.4375C4.77614 3.4375 5 3.66136 5 3.9375V8.4375C5 9.49837 5.42143 10.5158 6.17157 11.2659C6.92171 12.0161 7.93914 12.4375 9 12.4375C10.0609 12.4375 11.0783 12.0161 11.8284 11.2659C12.5786 10.5158 13 9.49837 13 8.4375V3.9375C13 3.66136 13.2239 3.4375 13.5 3.4375C13.7761 3.4375 14 3.66136 14 3.9375V8.4375C14 9.76357 13.4732 11.0354 12.5356 11.9731C11.5979 12.9107 10.3261 13.4375 9 13.4375C7.67392 13.4375 6.40215 12.9107 5.46447 11.9731C4.52679 11.0354 4 9.76357 4 8.4375V3.9375C4 3.66136 4.22386 3.4375 4.5 3.4375Z" />
</svg>
