<svg width="20" height="20" viewBox="0 0 20 20" fill="none" xmlns="http://www.w3.org/2000/svg">
<path fill-rule="evenodd" clip-rule="evenodd" d="M6.05495 12.4935C6.14227 12.7555 6.00069 13.0386 5.73872 13.126C4.62554 13.497 4.04223 14.4285 3.73475 15.3509C3.58805 15.791 3.51116 16.2108 3.4712 16.5288C3.7892 16.4888 4.20897 16.412 4.64909 16.2652C5.57154 15.9578 6.50297 15.3745 6.87403 14.2613C6.96135 13.9993 7.24451 13.8577 7.50649 13.945C7.76846 14.0324 7.91004 14.3155 7.82271 14.5775C7.30989 16.116 6.03161 16.8585 4.96532 17.2139C4.42769 17.3931 3.92338 17.4818 3.55477 17.526C3.36973 17.5483 3.21697 17.5595 3.10888 17.5652C3.05478 17.568 3.01174 17.5695 2.98127 17.5702L2.94515 17.5709L2.93449 17.571L2.93107 17.571L2.92985 17.571L2.92936 17.571C2.92915 17.571 2.92896 17.571 2.92896 17.071C2.42896 17.071 2.42896 17.0708 2.42896 17.0706L2.42896 17.0701L2.42896 17.0689L2.42897 17.0655L2.42907 17.0548L2.42976 17.0187C2.43051 16.9883 2.43198 16.9452 2.43483 16.8911C2.44051 16.783 2.45174 16.6303 2.47395 16.4452C2.51818 16.0766 2.60686 15.5723 2.78607 15.0347C3.1415 13.9684 3.88402 12.6901 5.42249 12.1773C5.68446 12.09 5.96762 12.2315 6.05495 12.4935ZM2.92896 17.071H2.42896C2.42896 17.3472 2.65281 17.571 2.92896 17.571V17.071Z" fill="#FFFFF"/>
<path fill-rule="evenodd" clip-rule="evenodd" d="M16.5667 3.33043C15.8224 3.21938 13.989 3.1826 12.1213 5.05022L7.17158 9.99997L10 12.8284L14.9498 7.87865C16.8174 6.01103 16.7806 4.17758 16.6696 3.4333L16.6695 3.43323C16.6657 3.40735 16.6536 3.38339 16.6351 3.36488C16.6166 3.34637 16.5926 3.33429 16.5667 3.33044L16.5667 3.33043ZM16.7142 2.34136C15.7456 2.19686 13.5628 2.19451 11.4142 4.34312L6.11092 9.64642C6.01716 9.74019 5.96448 9.86736 5.96448 9.99997C5.96448 10.1326 6.01716 10.2598 6.11092 10.3535L9.64646 13.8891C9.84172 14.0843 10.1583 14.0843 10.3536 13.8891L15.6569 8.58576C17.8055 6.43715 17.8031 4.25438 17.6586 3.2858M16.7142 2.34137C16.9521 2.37684 17.1722 2.48775 17.3422 2.65777C17.5122 2.82778 17.6231 3.04792 17.6586 3.28573" fill="#FFFFF"/>
<path fill-rule="evenodd" clip-rule="evenodd" d="M14.4194 8.61609C14.6955 8.61609 14.9194 8.83995 14.9194 9.11609V14.1605C14.9194 14.3082 14.8903 14.4545 14.8338 14.591C14.7772 14.7275 14.6944 14.8515 14.5899 14.956L12.0632 17.4827C11.9192 17.6267 11.7388 17.7289 11.5413 17.7784C11.3438 17.8279 11.1366 17.8229 10.9417 17.7639C10.7468 17.7049 10.5716 17.5941 10.4347 17.4434C10.2979 17.2926 10.2045 17.1075 10.1645 16.9078L9.50968 13.6336C9.45553 13.3628 9.63114 13.0994 9.90192 13.0452C10.1727 12.9911 10.4361 13.1667 10.4903 13.4374L11.1451 16.7117C11.1496 16.7339 11.1599 16.7545 11.1751 16.7712C11.1903 16.788 11.2098 16.8003 11.2315 16.8068C11.2531 16.8134 11.2762 16.814 11.2981 16.8085C11.32 16.8029 11.3401 16.7916 11.3561 16.7756L13.8828 14.2489C13.8944 14.2373 13.9036 14.2235 13.9099 14.2083C13.9162 14.1932 13.9194 14.1769 13.9194 14.1605V9.11609C13.9194 8.83995 14.1432 8.61609 14.4194 8.61609Z" fill="#FFFFF"/>
<path fill-rule="evenodd" clip-rule="evenodd" d="M5.40893 5.1662C5.54542 5.10967 5.69171 5.08057 5.83945 5.08057H10.8839C11.16 5.08057 11.3839 5.30442 11.3839 5.58057C11.3839 5.85671 11.16 6.08057 10.8839 6.08057H5.83944C5.82303 6.08057 5.80678 6.0838 5.79161 6.09008C5.77644 6.09636 5.76266 6.10557 5.75106 6.11718L3.22436 8.64388C3.20836 8.65988 3.197 8.67992 3.1915 8.70186C3.186 8.72381 3.18655 8.74683 3.19311 8.76849C3.19966 8.79014 3.21197 8.80961 3.22873 8.82482C3.24548 8.84003 3.26604 8.8504 3.28823 8.85484L6.5625 9.50969C6.83328 9.56385 7.00889 9.82726 6.95473 10.098C6.90058 10.3688 6.63717 10.5444 6.36639 10.4903L3.09211 9.83542C2.89244 9.79549 2.70736 9.70211 2.55659 9.56524C2.40582 9.42838 2.29502 9.25316 2.23602 9.05827C2.17701 8.86339 2.172 8.65614 2.22153 8.45863C2.27106 8.26112 2.37327 8.08076 2.51725 7.93677L5.04395 5.41007L5.39453 5.76065L5.04395 5.41007C5.14842 5.3056 5.27244 5.22274 5.40893 5.1662Z" fill="#FFFFF"/>
</svg>
