<svg width="20" height="20" viewBox="0 0 20 20" fill="none" xmlns="http://www.w3.org/2000/svg">
<path fill-rule="evenodd" clip-rule="evenodd" d="M2 9.0625C2 5.16199 5.16199 2 9.0625 2C12.963 2 16.125 5.16199 16.125 9.0625C16.125 12.963 12.963 16.125 9.0625 16.125C5.16199 16.125 2 12.963 2 9.0625ZM9.0625 3C5.71427 3 3 5.71427 3 9.0625C3 12.4108 5.71427 15.125 9.0625 15.125C12.4108 15.125 15.125 12.4108 15.125 9.0625C15.125 5.71427 12.4108 3 9.0625 3Z" />
<path fill-rule="evenodd" clip-rule="evenodd" d="M13.3491 13.3496C13.5443 13.1543 13.8609 13.1543 14.0562 13.3496L17.8532 17.1465C18.0484 17.3417 18.0485 17.6583 17.8532 17.8536C17.6579 18.0488 17.3414 18.0488 17.1461 17.8536L13.3491 14.0567C13.1538 13.8614 13.1538 13.5448 13.3491 13.3496Z" />
</svg>
