<svg width="18" height="18" viewBox="0 0 18 18" fill="none" xmlns="http://www.w3.org/2000/svg">
<path d="M9 12C10.6569 12 12 10.6569 12 9C12 7.34315 10.6569 6 9 6C7.34315 6 6 7.34315 6 9C6 10.6569 7.34315 12 9 12Z" stroke-linecap="round" stroke-linejoin="round"/>
<path d="M15.8751 8.37508L16.6803 7.16724C16.7328 7.08943 16.7675 7.00102 16.782 6.90828C16.7964 6.81555 16.7903 6.72077 16.764 6.63067C16.6121 6.13045 16.4119 5.64618 16.1662 5.18472C16.1212 5.10257 16.0586 5.03137 15.9829 4.97621C15.9072 4.92104 15.8203 4.88327 15.7283 4.86559L14.0002 4.88387L13.1163 4L13.1346 2.27184C13.1169 2.17985 13.0791 2.0929 13.0239 2.01719C12.9688 1.94149 12.8976 1.8789 12.8154 1.8339C12.3539 1.58825 11.8697 1.38807 11.3694 1.23618C11.2793 1.20988 11.1845 1.20375 11.0918 1.2182C10.9991 1.23266 10.9107 1.26735 10.8328 1.31982L9.62509 2.125H8.37509L7.16732 1.31982C7.08951 1.26735 7.0011 1.23266 6.90836 1.2182C6.81563 1.20375 6.72085 1.20988 6.63076 1.23618C6.13053 1.38807 5.64625 1.58825 5.18476 1.83389C5.10261 1.8789 5.0314 1.94149 4.97623 2.0172C4.92106 2.0929 4.88329 2.17986 4.86561 2.27185L4.88394 3.99991L4 4.88386L2.27193 4.86552C2.17994 4.8832 2.09299 4.92097 2.01728 4.97613C1.94158 5.0313 1.87899 5.1025 1.83398 5.18465C1.5883 5.64614 1.38808 6.13043 1.23617 6.63068C1.20988 6.72077 1.20375 6.81555 1.2182 6.90828C1.23266 7.00101 1.26736 7.08942 1.31983 7.16723L2.12501 8.375V9.625L1.31983 10.8328C1.26736 10.9106 1.23267 10.999 1.21821 11.0917C1.20375 11.1845 1.20989 11.2792 1.23618 11.3693C1.38805 11.8696 1.58823 12.3539 1.83389 12.8154C1.8789 12.8975 1.94149 12.9687 2.01719 13.0239C2.0929 13.079 2.17985 13.1168 2.27183 13.1345L4 13.1162L4.88387 14.0001L4.86553 15.7282C4.88321 15.8202 4.92098 15.9072 4.97615 15.9829C5.03131 16.0586 5.10251 16.1212 5.18466 16.1662C5.64612 16.4119 6.13039 16.6121 6.63063 16.7639C6.72072 16.7902 6.81549 16.7963 6.90822 16.7819C7.00094 16.7674 7.08934 16.7327 7.16715 16.6803L8.37501 15.8751H9.62501L10.8328 16.6803C10.9107 16.7328 10.9991 16.7675 11.0918 16.7819C11.1845 16.7964 11.2793 16.7903 11.3694 16.764C11.8696 16.6121 12.3539 16.4119 12.8154 16.1663C12.8975 16.1213 12.9687 16.0587 13.0239 15.983C13.079 15.9073 13.1168 15.8203 13.1345 15.7283L13.1161 14.0001L14 13.1161L15.7282 13.1346C15.8202 13.1169 15.9072 13.0791 15.9829 13.0239C16.0586 12.9688 16.1212 12.8976 16.1662 12.8154C16.4119 12.354 16.6121 11.8697 16.764 11.3695C16.7903 11.2794 16.7964 11.1846 16.782 11.0919C16.7675 10.9991 16.7328 10.9107 16.6803 10.8329L15.8751 9.62508V8.37508Z" stroke-linecap="round" stroke-linejoin="round"/>
</svg>
