<svg width="16" height="16" viewBox="0 0 16 16" fill="none" xmlns="http://www.w3.org/2000/svg">
<path fill-rule="evenodd" clip-rule="evenodd" d="M11.2425 4.3652C11.4377 4.16993 11.7543 4.16993 11.9496 4.3652L15.2308 7.64645C15.4261 7.84171 15.4261 8.15829 15.2308 8.35355L11.9496 11.6348C11.7543 11.8301 11.4377 11.8301 11.2425 11.6348C11.0472 11.4395 11.0472 11.123 11.2425 10.9277L14.1702 8L11.2425 5.0723C11.0472 4.87704 11.0472 4.56046 11.2425 4.3652Z" />
<path fill-rule="evenodd" clip-rule="evenodd" d="M5.625 8C5.625 7.72386 5.84886 7.5 6.125 7.5H14.875C15.1511 7.5 15.375 7.72386 15.375 8C15.375 8.27614 15.1511 8.5 14.875 8.5H6.125C5.84886 8.5 5.625 8.27614 5.625 8Z" />
<path fill-rule="evenodd" clip-rule="evenodd" d="M1.75 1.625C1.71685 1.625 1.68505 1.63817 1.66161 1.66161C1.63817 1.68505 1.625 1.71685 1.625 1.75V14.25C1.625 14.2832 1.63817 14.3149 1.66161 14.3384C1.68505 14.3618 1.71685 14.375 1.75 14.375H7.375C7.65114 14.375 7.875 14.5989 7.875 14.875C7.875 15.1511 7.65114 15.375 7.375 15.375H1.75C1.45163 15.375 1.16548 15.2565 0.954505 15.0455C0.743526 14.8345 0.625 14.5484 0.625 14.25V1.75C0.625 1.45163 0.743527 1.16548 0.954505 0.954505C1.16548 0.743527 1.45163 0.625 1.75 0.625H7.375C7.65114 0.625 7.875 0.848858 7.875 1.125C7.875 1.40114 7.65114 1.625 7.375 1.625H1.75Z" />
</svg>
