<svg width="16" height="16" viewBox="0 0 16 16" fill="none" xmlns="http://www.w3.org/2000/svg">
<path fill-rule="evenodd" clip-rule="evenodd" d="M5.9902 4.3652C6.18546 4.16993 6.50204 4.16993 6.6973 4.3652L9.97855 7.64645C10.1738 7.84171 10.1738 8.15829 9.97855 8.35355L6.6973 11.6348C6.50204 11.8301 6.18546 11.8301 5.9902 11.6348C5.79493 11.4395 5.79493 11.123 5.9902 10.9277L8.91789 8L5.9902 5.0723C5.79493 4.87704 5.79493 4.56046 5.9902 4.3652Z"/>
<path fill-rule="evenodd" clip-rule="evenodd" d="M0.372681 8C0.372681 7.72386 0.596538 7.5 0.872681 7.5H9.62268C9.89882 7.5 10.1227 7.72386 10.1227 8C10.1227 8.27614 9.89882 8.5 9.62268 8.5H0.872681C0.596538 8.5 0.372681 8.27614 0.372681 8Z"/>
<path fill-rule="evenodd" clip-rule="evenodd" d="M7.875 1.125C7.875 0.848858 8.09886 0.625 8.375 0.625H14C14.2984 0.625 14.5845 0.743526 14.7955 0.954505C15.0065 1.16548 15.125 1.45163 15.125 1.75V14.25C15.125 14.5484 15.0065 14.8345 14.7955 15.0455C14.5845 15.2565 14.2984 15.375 14 15.375H8.375C8.09886 15.375 7.875 15.1511 7.875 14.875C7.875 14.5989 8.09886 14.375 8.375 14.375H14C14.0332 14.375 14.0649 14.3618 14.0884 14.3384C14.1118 14.3149 14.125 14.2832 14.125 14.25V1.75C14.125 1.71685 14.1118 1.68505 14.0884 1.66161C14.0649 1.63817 14.0332 1.625 14 1.625H8.375C8.09886 1.625 7.875 1.40114 7.875 1.125Z"/>
</svg>
