<svg width="18" height="18" viewBox="0 0 18 18" fill="none" xmlns="http://www.w3.org/2000/svg">
<path fill-rule="evenodd" clip-rule="evenodd" d="M8.34684 0.578503C8.53887 0.445976 8.76667 0.375 8.99999 0.375C9.23331 0.375 9.46111 0.445976 9.65314 0.578503C9.84398 0.710206 9.99051 0.896504 10.0736 1.11292L11.7947 5.44724C11.8055 5.47509 11.824 5.49931 11.8481 5.51705C11.8718 5.53458 11.9 5.54509 11.9294 5.54739C11.9298 5.54742 11.9301 5.54745 11.9305 5.54747L16.5416 5.84672C17.6125 5.91623 17.9943 7.26531 17.2009 7.92562L13.6699 10.8645C13.6697 10.8647 13.6694 10.865 13.6692 10.8652C13.643 10.8874 13.6237 10.9166 13.6132 10.9493C13.6026 10.9823 13.6016 11.0176 13.6102 11.0512L13.6106 11.0525L14.749 15.5308C15.0002 16.519 13.9359 17.4018 13.0173 16.8197L9.07701 14.3234L9.3446 13.901L9.07611 14.3228C9.05336 14.3083 9.02695 14.3006 8.99999 14.3006C8.97303 14.3006 8.94662 14.3083 8.92388 14.3228L8.92297 14.3234L5.26127 16.6433C4.24188 17.2891 3.05254 16.3114 3.33364 15.2056L4.3894 11.0525L4.38973 11.0512C4.39836 11.0176 4.39734 10.9823 4.38678 10.9493C4.37633 10.9166 4.35695 10.8874 4.33085 10.8652C4.33058 10.865 4.33032 10.8647 4.33005 10.8645L0.799063 7.92562C0.0057227 7.26531 0.387445 5.91623 1.45839 5.84672L6.07059 5.54739C6.1 5.54509 6.12818 5.53458 6.15192 5.51705C6.17596 5.49931 6.19446 5.4751 6.20527 5.44725L6.20667 5.44365L7.92643 1.11288C8.00949 0.896482 8.15601 0.710198 8.34684 0.578503ZM9.6131 13.4792C9.61327 13.4793 9.61294 13.4791 9.6131 13.4792L13.5525 15.975C13.5881 15.9976 13.6157 16.0012 13.6369 15.9997C13.6612 15.998 13.6899 15.9883 13.7173 15.9675C13.7708 15.9269 13.8012 15.8612 13.7798 15.7771L12.6417 11.3001C12.6417 11.2999 12.6418 11.3003 12.6417 11.3001C12.5864 11.0844 12.5929 10.8568 12.6607 10.6447C12.7286 10.4324 12.855 10.2436 13.0254 10.0999L13.0278 10.0979L16.5612 7.15702C16.6198 7.10823 16.6391 7.03772 16.6155 6.96159C16.592 6.88625 16.5414 6.84881 16.4768 6.84462L11.8592 6.54494C11.6404 6.52931 11.4306 6.45184 11.2541 6.32157C11.0783 6.19175 10.9428 6.0148 10.8633 5.8112L9.1401 1.47175C9.12931 1.44331 9.11018 1.41881 9.08514 1.40153C9.06011 1.38425 9.03041 1.375 8.99999 1.375C8.96957 1.375 8.93988 1.38425 8.91484 1.40153C8.88981 1.41881 8.87062 1.44329 8.85983 1.47173L8.8571 1.47891L7.13671 5.81113C7.05724 6.01476 6.92173 6.19173 6.74584 6.32157C6.56938 6.45184 6.35955 6.5293 6.14077 6.54493L6.13752 6.54516L1.52315 6.84462C1.45862 6.84881 1.40794 6.88625 1.38451 6.96159C1.36083 7.03772 1.38016 7.10823 1.43879 7.15702L4.97217 10.0979L4.97456 10.0999C5.14499 10.2436 5.27141 10.4324 5.33929 10.6447C5.4071 10.8569 5.41373 11.0838 5.35841 11.2995C5.35836 11.2997 5.35846 11.2993 5.35841 11.2995L4.30281 15.452C4.2665 15.5948 4.32066 15.7136 4.41432 15.7847C4.5065 15.8547 4.61835 15.8668 4.72609 15.7985L8.38688 13.4792C8.387 13.4791 8.38675 13.4793 8.38688 13.4792C8.57002 13.3627 8.78294 13.3006 8.99999 13.3006C9.21699 13.3006 9.42999 13.3628 9.6131 13.4792Z"/>
</svg>
