<svg width="20" height="20" viewBox="0 0 20 20" fill="none" xmlns="http://www.w3.org/2000/svg">
<path fillRule="evenodd" clipRule="evenodd" d="M10.0002 17.8949C14.3603 17.8949 17.8949 14.3603 17.8949 10.0002C17.8949 5.64006 14.3603 2.10547 10.0002 2.10547C5.64006 2.10547 2.10547 5.64006 2.10547 10.0002C2.10547 14.3603 5.64006 17.8949 10.0002 17.8949ZM8.42126 6.90468C8.42126 5.97626 9.12987 5.26337 9.99251 5.26337C10.8552 5.26337 11.5792 5.97626 11.5792 6.90468C11.5792 7.81652 10.8552 8.52942 9.99251 8.52942C9.12987 8.52942 8.42126 7.81652 8.42126 6.90468ZM11.3327 13.2947C11.3327 14.1236 10.7781 14.7371 10.0079 14.7371C9.2531 14.7371 8.68314 14.1236 8.68314 13.2947V11.0826C8.68314 10.2536 9.2377 9.64021 10.0079 9.64021C10.7627 9.64021 11.3327 10.2536 11.3327 11.0826V13.2947Z" />
</svg>
