<svg width="18" height="16" viewBox="0 0 18 16" fill="none" xmlns="http://www.w3.org/2000/svg">
<path fill-rule="evenodd" clip-rule="evenodd" d="M9 1C6.51472 1 4.5 3.01472 4.5 5.5C4.5 7.98528 6.51472 10 9 10C11.4853 10 13.5 7.98528 13.5 5.5C13.5 3.01472 11.4853 1 9 1ZM3.5 5.5C3.5 2.46243 5.96243 0 9 0C12.0376 0 14.5 2.46243 14.5 5.5C14.5 8.53757 12.0376 11 9 11C5.96243 11 3.5 8.53757 3.5 5.5Z"/>
<path fill-rule="evenodd" clip-rule="evenodd" d="M9.00008 11C7.55178 11 6.12898 11.3811 4.87461 12.1051C3.62023 12.829 2.57846 13.8703 1.85395 15.1244C1.71581 15.3635 1.40999 15.4454 1.17089 15.3072C0.931781 15.1691 0.849932 14.8633 0.988072 14.6241C1.80037 13.2181 2.96837 12.0506 4.37474 11.239C5.7811 10.4273 7.3763 9.99998 9.00009 10C10.6239 10 12.2191 10.4273 13.6254 11.2391C15.0318 12.0508 16.1997 13.2183 17.012 14.6243C17.1502 14.8634 17.0683 15.1692 16.8292 15.3074C16.5901 15.4455 16.2843 15.3637 16.1461 15.1245C15.4216 13.8705 14.3799 12.8291 13.1255 12.1051C11.8712 11.3812 10.4484 11 9.00008 11Z"/>
</svg>
