<svg width="20" height="20" viewBox="0 0 20 20" fill="none" xmlns="http://www.w3.org/2000/svg">
<path d="M7.49243 4.987L7.24243 4.55399C7.04654 4.66709 6.95097 4.89762 7.0094 5.11615C7.06782 5.33467 7.26569 5.48676 7.49189 5.487L7.49243 4.987ZM15.1653 4.99533L15.1648 5.49533C15.3435 5.49553 15.5088 5.40031 15.5982 5.24557C15.6877 5.09083 15.6877 4.90012 15.5984 4.74533L15.1653 4.99533ZM13.7435 2.53265L13.3105 2.78265L13.7435 2.53265ZM7.74243 5.42001L12.6275 2.59964L12.1275 1.73361L7.24243 4.55399L7.74243 5.42001ZM13.3105 2.78265L14.7323 5.24533L15.5984 4.74533L14.1765 2.28265L13.3105 2.78265ZM15.1659 4.49533L7.49297 4.487L7.49189 5.487L15.1648 5.49533L15.1659 4.49533ZM12.6275 2.59964C12.8666 2.46157 13.1724 2.5435 13.3105 2.78265L14.1765 2.28265C13.7623 1.56521 12.8449 1.3194 12.1275 1.73361L12.6275 2.59964Z"/>
<path d="M1.66675 5.83333C1.66675 5.37308 2.03984 5 2.50008 5H17.5001C17.9603 5 18.3334 5.37308 18.3334 5.83333V17.5C18.3334 17.9603 17.9603 18.3333 17.5001 18.3333H2.50008C2.03984 18.3333 1.66675 17.9603 1.66675 17.5V5.83333Z" stroke-linejoin="round"/>
<path d="M14.6875 13.75H18.3333V9.58337H14.6875C13.4794 9.58337 12.5 10.5161 12.5 11.6667C12.5 12.8173 13.4794 13.75 14.6875 13.75Z" stroke-linejoin="round"/>
<path d="M18.3333 6.875V16.875" stroke-linecap="round"/>
</svg>
