<svg width="16" height="16" viewBox="0 0 16 16" fill="none" xmlns="http://www.w3.org/2000/svg">
<path fill-rule="evenodd" clip-rule="evenodd" d="M8 3.75C8.27614 3.75 8.5 3.97386 8.5 4.25V8.625C8.5 8.90114 8.27614 9.125 8 9.125C7.72386 9.125 7.5 8.90114 7.5 8.625V4.25C7.5 3.97386 7.72386 3.75 8 3.75Z" />
<path fill-rule="evenodd" clip-rule="evenodd" d="M4.72176 0.0856355C4.85825 0.0290987 5.00455 0 5.15228 0H10.8477C10.9955 0 11.1417 0.0290985 11.2782 0.0856355C11.4147 0.142173 11.5387 0.225041 11.6432 0.329506L15.6705 4.35679C15.775 4.46125 15.8578 4.58527 15.9144 4.72176C15.9709 4.85825 16 5.00455 16 5.15228V10.8477C16 10.9955 15.9709 11.1417 15.9144 11.2782C15.8578 11.4147 15.775 11.5387 15.6705 11.6432L11.6432 15.6705C11.5387 15.775 11.4147 15.8578 11.2782 15.9144C11.1417 15.9709 10.9955 16 10.8477 16H5.15228C5.00455 16 4.85825 15.9709 4.72176 15.9144C4.58527 15.8578 4.46125 15.775 4.35679 15.6705L0.329506 11.6432C0.225041 11.5387 0.142173 11.4147 0.0856355 11.2782C0.0290985 11.1417 0 10.9955 0 10.8477V5.15228C0 5.00455 0.0290987 4.85825 0.0856355 4.72176C0.142172 4.58527 0.22504 4.46125 0.329505 4.35679L4.35679 0.329506C4.46125 0.22504 4.58527 0.142172 4.72176 0.0856355ZM5.15228 1C5.13587 1 5.11961 1.00323 5.10445 1.00951C5.08928 1.0158 5.0755 1.025 5.06389 1.03661L1.03661 5.06389C1.025 5.0755 1.0158 5.08928 1.00951 5.10445C1.00323 5.11961 1 5.13587 1 5.15228V10.8477C1 10.8641 1.00323 10.8804 1.00951 10.8956C1.0158 10.9107 1.025 10.9245 1.03661 10.9361L5.06389 14.9634C5.0755 14.975 5.08928 14.9842 5.10445 14.9905C5.11961 14.9968 5.13587 15 5.15228 15H10.8477C10.8641 15 10.8804 14.9968 10.8956 14.9905C10.9107 14.9842 10.9245 14.975 10.9361 14.9634L14.9634 10.9361C14.975 10.9245 14.9842 10.9107 14.9905 10.8956C14.9968 10.8804 15 10.8641 15 10.8477V5.15228C15 5.13587 14.9968 5.11961 14.9905 5.10445C14.9842 5.08928 14.975 5.0755 14.9634 5.06389L10.9361 1.03661C10.9245 1.025 10.9107 1.0158 10.8956 1.00951C10.8804 1.00323 10.8641 1 10.8477 1H5.15228Z" />
<path d="M8 12.375C8.51777 12.375 8.9375 11.9553 8.9375 11.4375C8.9375 10.9197 8.51777 10.5 8 10.5C7.48223 10.5 7.0625 10.9197 7.0625 11.4375C7.0625 11.9553 7.48223 12.375 8 12.375Z" />
</svg>
