<svg width="12" height="10" viewBox="0 0 12 10" fill="none" xmlns="http://www.w3.org/2000/svg">
<g clip-path="url(#clip0_868_9434)">
<path d="M11.7584 1.65179C12.1184 1.23292 12.0706 0.601558 11.6518 0.241598C11.2329 -0.118363 10.6015 -0.0706129 10.2416 0.34825L11.7584 1.65179ZM4.12502 9.00002L3.3666 9.65179C3.55657 9.87285 3.83354 10 4.12502 10C4.4165 10 4.69347 9.87285 4.88344 9.65179L4.12502 9.00002ZM1.75844 4.71189C1.39848 4.29303 0.767114 4.24528 0.34825 4.60524C-0.0706129 4.9652 -0.118363 5.59656 0.241598 6.01542L1.75844 4.71189ZM10.2416 0.34825L3.3666 8.34825L4.88344 9.65179L11.7584 1.65179L10.2416 0.34825ZM4.88344 8.34825L1.75844 4.71189L0.241598 6.01542L3.3666 9.65179L4.88344 8.34825Z" />
</g>
<defs>
<clipPath id="clip0_868_9434">
<rect width="12" height="10" fill="white"/>
</clipPath>
</defs>
</svg>
