<svg width="2415" height="1681" viewBox="0 0 2415 1681" fill="none" xmlns="http://www.w3.org/2000/svg">
<g opacity="0.05">
<path d="M1637.36 846.886L1884.39 848.295C1885.5 848.295 1886.39 849.205 1886.39 850.314C1886.39 851.424 1885.48 852.313 1884.37 852.313H1884.34L1637.37 846.886H1637.36Z" fill="#6420FF"/>
</g>
<g opacity="0.1">
<path d="M1640.52 878.857L1877.3 897.427C1878.41 897.517 1879.23 898.476 1879.15 899.585C1879.06 900.695 1878.1 901.514 1876.99 901.434H1876.96L1640.53 878.867L1640.52 878.857Z" fill="#6420FF"/>
</g>
<g opacity="0.15">
<path d="M1641.16 911.319L1866.76 945.839C1867.86 946.009 1868.61 947.028 1868.44 948.128C1868.27 949.227 1867.25 949.976 1866.15 949.807H1866.12L1641.16 911.319V911.319Z" fill="#6420FF"/>
</g>
<g opacity="0.2">
<path d="M1639.18 944.099L1852.8 993.241C1853.88 993.49 1854.56 994.57 1854.31 995.649C1854.06 996.729 1852.98 997.408 1851.9 997.158C1851.9 997.158 1851.87 997.158 1851.86 997.158L1639.17 944.109L1639.18 944.099Z" fill="#6420FF"/>
</g>
<g opacity="0.25">
<path d="M1634.5 977.009L1835.49 1039.36C1836.55 1039.69 1837.14 1040.82 1836.81 1041.88C1836.48 1042.94 1835.35 1043.53 1834.29 1043.2C1834.29 1043.2 1834.26 1043.2 1834.25 1043.19L1634.48 977.019L1634.5 977.009Z" fill="#6420FF"/>
</g>
<g opacity="0.3">
<path d="M1627.09 1009.83L1814.96 1083.94C1815.99 1084.35 1816.5 1085.51 1816.09 1086.55C1815.68 1087.58 1814.52 1088.09 1813.48 1087.68C1813.48 1087.68 1813.45 1087.67 1813.44 1087.66L1627.08 1009.83H1627.09Z" fill="#6420FF"/>
</g>
<g opacity="0.35">
<path d="M1616.91 1042.34L1791.34 1126.74C1792.34 1127.22 1792.76 1128.43 1792.27 1129.42C1791.79 1130.42 1790.58 1130.84 1789.59 1130.35C1789.59 1130.35 1789.56 1130.34 1789.55 1130.33L1616.91 1042.33V1042.34Z" fill="#6420FF"/>
</g>
<g opacity="0.4">
<path d="M1603.97 1074.29L1764.77 1167.56C1765.73 1168.12 1766.06 1169.35 1765.5 1170.31C1764.94 1171.27 1763.71 1171.6 1762.75 1171.04C1762.75 1171.04 1762.72 1171.02 1762.71 1171.02L1603.97 1074.29Z" fill="#6420FF"/>
</g>
<g opacity="0.45">
<path d="M1588.31 1105.45L1735.43 1206.21C1736.35 1206.84 1736.58 1208.09 1735.95 1208.99C1735.32 1209.91 1734.07 1210.14 1733.16 1209.51C1733.16 1209.51 1733.13 1209.49 1733.12 1209.48L1588.31 1105.44V1105.45Z" fill="#6420FF"/>
</g>
<g opacity="0.5">
<path d="M1569.98 1135.55L1703.5 1242.51C1704.37 1243.2 1704.51 1244.47 1703.81 1245.33C1703.12 1246.2 1701.85 1246.34 1700.98 1245.64C1700.98 1245.64 1700.95 1245.62 1700.94 1245.61L1569.97 1135.55H1569.98Z" fill="#6420FF"/>
</g>
<g opacity="0.55">
<path d="M1549.05 1164.36L1669.14 1276.31C1669.95 1277.07 1670 1278.34 1669.24 1279.15C1668.48 1279.95 1667.21 1280 1666.4 1279.25C1666.4 1279.25 1666.37 1279.23 1666.36 1279.22L1549.05 1164.36V1164.36Z" fill="#6420FF"/>
</g>
<g opacity="0.6">
<path d="M1525.61 1191.61L1632.52 1307.44C1633.27 1308.26 1633.22 1309.53 1632.41 1310.28C1631.59 1311.03 1630.32 1310.98 1629.57 1310.17C1629.57 1310.16 1629.54 1310.14 1629.54 1310.13L1525.62 1191.61H1525.61Z" fill="#6420FF"/>
</g>
<g opacity="0.65">
<path d="M1499.82 1217.07L1593.86 1335.77C1594.55 1336.64 1594.4 1337.9 1593.53 1338.59C1592.66 1339.28 1591.4 1339.13 1590.71 1338.26C1590.71 1338.25 1590.69 1338.23 1590.68 1338.22L1499.82 1217.06V1217.07Z" fill="#6420FF"/>
</g>
<g opacity="0.7">
<path d="M1471.82 1240.54L1553.36 1361.21C1553.98 1362.13 1553.74 1363.38 1552.82 1364C1551.9 1364.62 1550.65 1364.38 1550.03 1363.46C1550.03 1363.45 1550.01 1363.43 1550 1363.41L1471.82 1240.54Z" fill="#6420FF"/>
</g>
<g opacity="0.75">
<path d="M1441.77 1261.79L1511.21 1383.61C1511.76 1384.56 1511.42 1385.79 1510.46 1386.34C1509.5 1386.89 1508.27 1386.55 1507.72 1385.59C1507.72 1385.58 1507.7 1385.55 1507.69 1385.54L1441.77 1261.8V1261.79Z" fill="#6420FF"/>
</g>
<g opacity="0.8">
<path d="M1409.85 1280.6L1467.63 1402.84C1468.1 1403.84 1467.67 1405.04 1466.67 1405.52C1465.67 1405.99 1464.47 1405.56 1463.99 1404.56C1463.99 1404.54 1463.97 1404.52 1463.97 1404.51L1409.85 1280.61V1280.6Z" fill="#6420FF"/>
</g>
<g opacity="0.85">
<path d="M1376.25 1296.8L1422.81 1418.82C1423.21 1419.86 1422.69 1421.02 1421.65 1421.41C1420.61 1421.81 1419.45 1421.29 1419.06 1420.25C1419.06 1420.23 1419.04 1420.21 1419.04 1420.19L1376.25 1296.8V1296.8Z" fill="#6420FF"/>
</g>
<g opacity="0.9">
<path d="M1341.21 1310.2L1377.03 1431.44C1377.34 1432.5 1376.74 1433.62 1375.67 1433.94C1374.61 1434.25 1373.49 1433.65 1373.17 1432.58C1373.17 1432.56 1373.16 1432.54 1373.15 1432.52L1341.2 1310.2H1341.21Z" fill="#6420FF"/>
</g>
<g opacity="0.95">
<path d="M1304.95 1320.68L1330.52 1440.67C1330.75 1441.76 1330.06 1442.82 1328.97 1443.05C1327.88 1443.28 1326.82 1442.59 1326.59 1441.5C1326.59 1441.48 1326.59 1441.45 1326.58 1441.44L1304.96 1320.68H1304.95Z" fill="#6420FF"/>
</g>
<path d="M1267.72 1328.14L1283.52 1446.48C1283.67 1447.58 1282.89 1448.59 1281.79 1448.74C1280.69 1448.89 1279.68 1448.11 1279.53 1447.01C1279.53 1446.99 1279.53 1446.96 1279.53 1446.94L1267.72 1328.13V1328.14Z" fill="#6420FF"/>
<path d="M1229.78 1332.48L1236.32 1448.87C1236.38 1449.98 1235.53 1450.93 1234.43 1450.99C1233.32 1451.05 1232.37 1450.2 1232.31 1449.1C1232.31 1449.08 1232.31 1449.05 1232.31 1449.03L1229.79 1332.49L1229.78 1332.48Z" fill="#6420FF"/>
<path d="M1191.4 1333.68L1189.12 1447.87C1189.1 1448.98 1188.18 1449.86 1187.07 1449.84C1185.96 1449.82 1185.08 1448.9 1185.1 1447.79C1185.1 1447.77 1185.1 1447.74 1185.1 1447.72L1191.4 1333.68V1333.68Z" fill="#6420FF"/>
<path d="M1152.96 1331.69L1142.08 1443.51C1141.97 1444.61 1140.99 1445.42 1139.88 1445.32C1138.77 1445.22 1137.97 1444.23 1138.07 1443.12C1138.07 1443.1 1138.07 1443.07 1138.07 1443.05L1152.94 1331.69H1152.96Z" fill="#6420FF"/>
<path d="M1114.76 1326.48L1095.45 1435.75C1095.26 1436.84 1094.21 1437.57 1093.12 1437.38C1092.03 1437.19 1091.3 1436.14 1091.49 1435.05C1091.49 1435.03 1091.49 1435 1091.5 1434.98L1114.75 1326.48H1114.76Z" fill="#6420FF"/>
<path d="M1077.06 1318.02L1049.46 1424.62C1049.18 1425.69 1048.09 1426.34 1047.01 1426.06C1045.93 1425.78 1045.29 1424.69 1045.57 1423.61C1045.57 1423.59 1045.58 1423.56 1045.59 1423.54L1077.07 1318.02H1077.06Z" fill="#6420FF"/>
<path d="M1040.15 1306.37L1004.35 1410.14C1003.99 1411.19 1002.84 1411.75 1001.79 1411.39C1000.74 1411.03 1000.18 1409.88 1000.54 1408.83C1000.54 1408.81 1000.56 1408.78 1000.57 1408.76L1040.14 1306.37H1040.15Z" fill="#6420FF"/>
<path d="M1004.33 1291.55L960.391 1392.36C959.951 1393.38 958.761 1393.84 957.741 1393.4C956.721 1392.96 956.261 1391.77 956.701 1390.75C956.701 1390.73 956.721 1390.7 956.731 1390.68L1004.32 1291.55H1004.33Z" fill="#6420FF"/>
<path d="M969.881 1273.69L917.791 1371.38C917.271 1372.36 916.051 1372.73 915.071 1372.21C914.091 1371.69 913.721 1370.47 914.241 1369.49C914.251 1369.47 914.261 1369.44 914.281 1369.43L969.881 1273.7V1273.69Z" fill="#6420FF"/>
<path d="M937.051 1252.96L876.741 1347.35C876.141 1348.29 874.901 1348.56 873.961 1347.96C873.021 1347.36 872.751 1346.12 873.351 1345.18C873.361 1345.16 873.381 1345.14 873.391 1345.12L937.041 1252.95L937.051 1252.96Z" fill="#6420FF"/>
<path d="M906.111 1229.51L837.451 1320.37C836.781 1321.26 835.521 1321.43 834.631 1320.76C833.741 1320.09 833.571 1318.83 834.241 1317.94C834.251 1317.92 834.271 1317.9 834.281 1317.88L906.101 1229.5L906.111 1229.51Z" fill="#6420FF"/>
<path d="M877.341 1203.49L800.131 1290.51C799.391 1291.34 798.121 1291.42 797.291 1290.68C796.461 1289.94 796.381 1288.67 797.121 1287.84C797.131 1287.82 797.151 1287.8 797.171 1287.79L877.341 1203.49V1203.49Z" fill="#6420FF"/>
<path d="M850.951 1175.14L764.951 1257.93C764.151 1258.7 762.881 1258.68 762.111 1257.88C761.341 1257.08 761.361 1255.81 762.161 1255.04C762.171 1255.03 762.191 1255.01 762.211 1254.99L850.951 1175.14V1175.14Z" fill="#6420FF"/>
<path d="M827.131 1144.71L732.051 1222.8C731.191 1223.5 729.931 1223.38 729.221 1222.52C728.521 1221.66 728.641 1220.4 729.501 1219.69C729.511 1219.68 729.541 1219.66 729.551 1219.65L827.131 1144.71V1144.71Z" fill="#6420FF"/>
<path d="M806.101 1112.45L701.651 1185.23C700.741 1185.86 699.491 1185.64 698.851 1184.73C698.221 1183.82 698.441 1182.57 699.351 1181.93C699.371 1181.92 699.391 1181.9 699.401 1181.89L806.101 1112.45Z" fill="#6420FF"/>
<path d="M788.071 1078.59L673.941 1145.32C672.981 1145.88 671.751 1145.56 671.191 1144.6C670.631 1143.64 670.951 1142.41 671.911 1141.85C671.931 1141.85 671.951 1141.83 671.961 1141.82L788.071 1078.59Z" fill="#6420FF"/>
<path d="M773.121 1043.46L649.041 1103.3C648.041 1103.78 646.841 1103.36 646.361 1102.36C645.881 1101.36 646.301 1100.16 647.301 1099.68C647.311 1099.68 647.341 1099.66 647.351 1099.66L773.121 1043.46V1043.46Z" fill="#6420FF"/>
<path d="M761.391 1007.35L627.141 1059.32C626.101 1059.72 624.941 1059.21 624.541 1058.17C624.141 1057.13 624.651 1055.97 625.691 1055.57C625.701 1055.57 625.731 1055.57 625.741 1055.56L761.381 1007.35H761.391Z" fill="#6420FF"/>
<path d="M752.951 970.564L608.391 1013.57C607.331 1013.89 606.211 1013.28 605.891 1012.22C605.571 1011.16 606.181 1010.04 607.241 1009.72C607.251 1009.72 607.281 1009.71 607.291 1009.71L752.941 970.574L752.951 970.564Z" fill="#6420FF"/>
<path d="M747.901 933.396L592.981 966.257C591.891 966.487 590.831 965.797 590.601 964.708C590.371 963.618 591.061 962.559 592.151 962.329C592.161 962.329 592.191 962.329 592.201 962.329L747.901 933.406V933.396Z" fill="#6420FF"/>
<path d="M746.191 896.167L580.981 917.645C579.881 917.785 578.871 917.015 578.731 915.916C578.591 914.817 579.361 913.807 580.461 913.667C580.471 913.667 580.501 913.667 580.511 913.667L746.191 896.177V896.167Z" fill="#6420FF"/>
<path d="M747.781 859.158L572.461 867.974C571.351 868.034 570.411 867.174 570.351 866.065C570.291 864.955 571.151 864.016 572.261 863.956C572.271 863.956 572.291 863.956 572.311 863.956L747.781 859.148V859.158Z" fill="#6420FF"/>
<path d="M752.601 822.682L567.481 817.504C566.371 817.474 565.501 816.545 565.531 815.435C565.561 814.326 566.491 813.456 567.601 813.486C567.611 813.486 567.631 813.486 567.641 813.486L752.601 822.682Z" fill="#6420FF"/>
<path d="M760.571 787.182L566.121 766.304C565.021 766.184 564.221 765.194 564.341 764.095C564.461 762.996 565.451 762.196 566.551 762.316C566.561 762.316 566.581 762.316 566.591 762.316L760.571 787.182V787.182Z" fill="#6420FF"/>
<path d="M771.601 752.97L568.511 714.623C567.421 714.413 566.701 713.363 566.911 712.274C567.121 711.185 568.171 710.465 569.261 710.675C569.261 710.675 569.291 710.675 569.301 710.675L771.611 752.961L771.601 752.97Z" fill="#6420FF"/>
<path d="M785.541 720.309L574.711 662.722C573.641 662.432 573.011 661.323 573.301 660.254C573.591 659.184 574.701 658.555 575.771 658.844C575.771 658.844 575.801 658.844 575.811 658.854L785.541 720.309Z" fill="#6420FF"/>
<path d="M802.281 689.478L584.861 610.923C583.821 610.543 583.281 609.394 583.651 608.355C584.031 607.315 585.181 606.775 586.221 607.145C586.221 607.145 586.251 607.145 586.251 607.155L802.271 689.468L802.281 689.478Z" fill="#6420FF"/>
<path d="M821.571 660.694L598.911 559.502C597.901 559.043 597.451 557.853 597.911 556.844C598.371 555.834 599.561 555.385 600.571 555.844C600.571 555.844 600.591 555.854 600.601 555.854L821.571 660.694Z" fill="#6420FF"/>
<path d="M843.171 634.168L616.851 508.711C615.881 508.171 615.531 506.952 616.071 505.982C616.611 505.013 617.831 504.663 618.801 505.203C618.801 505.203 618.821 505.213 618.831 505.223L843.181 634.178L843.171 634.168Z" fill="#6420FF"/>
<path d="M866.831 610.112L638.661 458.86C637.741 458.25 637.481 457.001 638.101 456.071C638.711 455.142 639.961 454.892 640.891 455.512C640.891 455.512 640.911 455.522 640.911 455.532L866.841 610.122L866.831 610.112Z" fill="#6420FF"/>
<path d="M892.331 588.726L664.361 410.209C663.491 409.53 663.331 408.261 664.021 407.391C664.701 406.522 665.971 406.362 666.841 407.051C666.841 407.051 666.861 407.061 666.861 407.071L892.331 588.726Z" fill="#6420FF"/>
<path d="M919.311 570.146L693.841 363.016C693.021 362.267 692.971 360.997 693.721 360.178C694.471 359.358 695.741 359.308 696.561 360.058C696.561 360.058 696.581 360.068 696.581 360.078L919.311 570.146Z" fill="#6420FF"/>
<path d="M947.461 554.495L727.051 317.532C726.291 316.722 726.341 315.453 727.151 314.694C727.961 313.934 729.231 313.984 729.991 314.794C729.991 314.794 730.001 314.804 730.011 314.814L947.461 554.495Z" fill="#6420FF"/>
<path d="M976.451 541.883L763.941 274.019C763.251 273.149 763.401 271.89 764.271 271.2C765.141 270.511 766.401 270.66 767.091 271.53L767.101 271.55L976.441 541.893L976.451 541.883Z" fill="#6420FF"/>
<path d="M1005.98 532.417L804.481 232.791C803.861 231.871 804.111 230.622 805.031 230.002C805.951 229.383 807.201 229.633 807.821 230.552L807.831 230.572L1005.98 532.417V532.417Z" fill="#6420FF"/>
<path d="M1035.64 526.091L848.511 194.083C847.971 193.114 848.311 191.895 849.271 191.345C850.241 190.805 851.461 191.145 852.011 192.104V192.124L1035.64 526.081V526.091Z" fill="#6420FF"/>
<path d="M1065.12 522.893L895.961 158.195C895.491 157.185 895.931 155.996 896.941 155.526C897.951 155.056 899.141 155.496 899.611 156.506V156.526L1065.13 522.903L1065.12 522.893Z" fill="#6420FF"/>
<path d="M1094.07 522.774L943.831 126.434C942.851 123.836 944.151 120.937 946.751 119.958C949.351 118.979 952.251 120.278 953.231 122.876C953.241 122.906 953.261 122.956 953.271 122.986L1094.07 522.774V522.774Z" fill="#6420FF"/>
<path d="M1122.2 525.693L997.541 96.8615C996.771 94.2031 998.301 91.4147 1000.96 90.6351C1003.62 89.8656 1006.41 91.3947 1007.19 94.0531C1007.19 94.0831 1007.21 94.1331 1007.22 94.1631L1122.2 525.693Z" fill="#6420FF"/>
<path d="M1149.21 531.469L1054.09 70.9662C1053.53 68.2477 1055.28 65.5893 1057.99 65.0296C1060.71 64.4699 1063.37 66.2189 1063.93 68.9273C1063.93 68.9573 1063.95 69.0073 1063.95 69.0373L1149.21 531.469V531.469Z" fill="#6420FF"/>
<path d="M1174.88 539.923L1113.18 48.9777C1112.83 46.2293 1114.79 43.7108 1117.54 43.371C1120.29 43.0212 1122.81 44.9801 1123.15 47.7285C1123.15 47.7585 1123.15 47.8084 1123.16 47.8284L1174.88 539.923V539.923Z" fill="#6420FF"/>
<path d="M1199.03 550.877L1174.47 31.1283C1174.34 28.3599 1176.48 26.0013 1179.25 25.8713C1182.02 25.7414 1184.38 27.8802 1184.51 30.6486C1184.51 30.6686 1184.51 30.7185 1184.51 30.7485L1199.03 550.877Z" fill="#6420FF"/>
<path d="M1221.42 564.129L1237.64 17.5559C1237.72 14.7875 1240.04 12.5988 1242.81 12.6887C1245.58 12.7687 1247.77 15.0873 1247.68 17.8557C1247.68 17.8757 1247.68 17.9257 1247.68 17.9457L1221.42 564.129Z" fill="#6420FF"/>
<path d="M1241.41 579.431L1302.84 8.45203C1303.14 5.69363 1305.61 3.69479 1308.37 3.99462C1311.13 4.29444 1313.13 6.76301 1312.83 9.52141C1312.83 9.5414 1312.83 9.59137 1312.82 9.61136L1241.41 579.431V579.431Z" fill="#6420FF"/>
<g opacity="0.95">
<path d="M1258.78 596.511L1369.77 4.09439C1370.28 1.36597 1372.91 -0.422988 1375.63 0.086716C1378.36 0.59642 1380.15 3.2249 1379.64 5.94332C1379.64 5.96331 1379.63 6.00328 1379.62 6.02327L1258.77 596.511H1258.78Z" fill="#6420FF"/>
</g>
<g opacity="0.9">
<path d="M1273.42 615.071L1438.03 4.71475C1438.75 2.0363 1441.51 0.447223 1444.19 1.1768C1446.87 1.89638 1448.46 4.65478 1447.73 7.33323C1447.73 7.35322 1447.71 7.39319 1447.71 7.41318L1273.41 615.081L1273.42 615.071Z" fill="#6420FF"/>
</g>
<g opacity="0.85">
<path d="M1285.25 634.808L1507.21 10.4704C1508.14 7.8619 1511.01 6.4927 1513.63 7.42216C1516.24 8.35162 1517.61 11.22 1516.68 13.8384C1516.68 13.8584 1516.66 13.8984 1516.65 13.9084L1285.25 634.808Z" fill="#6420FF"/>
</g>
<g opacity="0.8">
<path d="M1294.2 655.437L1576.87 21.5051C1578 18.9766 1580.97 17.8372 1583.5 18.9666C1586.03 20.0959 1587.17 23.0642 1586.04 25.5927C1586.04 25.6027 1586.02 25.6427 1586.01 25.6627L1294.19 655.437H1294.2Z" fill="#6420FF"/>
</g>
<g opacity="0.75">
<path d="M1300.23 676.645L1646.59 37.8954C1647.91 35.4568 1650.96 34.5474 1653.4 35.8766C1655.84 37.1958 1656.75 40.2441 1655.42 42.6826C1655.42 42.6926 1655.39 42.7326 1655.39 42.7426L1300.23 676.645V676.645Z" fill="#6420FF"/>
</g>
<g opacity="0.7">
<path d="M1303.31 698.051L1715.98 59.6614C1717.49 57.3328 1720.6 56.6631 1722.93 58.1723C1725.26 59.6814 1725.93 62.7896 1724.42 65.1182C1724.42 65.1282 1724.39 65.1582 1724.38 65.1782L1303.3 698.071L1303.31 698.051Z" fill="#6420FF"/>
</g>
<g opacity="0.65">
<path d="M1303.43 719.35L1784.68 86.8272C1786.36 84.6185 1789.51 84.1887 1791.72 85.8677C1793.93 87.5468 1794.36 90.695 1792.68 92.9037C1792.68 92.9037 1792.65 92.9436 1792.64 92.9536L1303.43 719.35Z" fill="#6420FF"/>
</g>
<g opacity="0.6">
<path d="M1300.61 740.157L1852.29 119.407C1854.13 117.338 1857.31 117.148 1859.38 118.987C1861.45 120.826 1861.64 124.004 1859.8 126.073C1859.8 126.073 1859.77 126.113 1859.76 126.123L1300.6 740.157H1300.61Z" fill="#6420FF"/>
</g>
<g opacity="0.55">
<path d="M1294.87 760.125L1918.45 157.425C1920.44 155.496 1923.63 155.546 1925.55 157.545C1927.48 159.534 1927.43 162.722 1925.43 164.641C1925.43 164.641 1925.4 164.671 1925.39 164.681L1294.86 760.125H1294.87Z" fill="#6420FF"/>
</g>
<g opacity="0.5">
<path d="M1286.25 778.906L1982.76 200.901C1984.89 199.132 1988.06 199.422 1989.84 201.56C1991.61 203.689 1991.32 206.857 1989.18 208.636C1989.18 208.636 1989.14 208.666 1989.14 208.676L1286.25 778.926V778.906Z" fill="#6420FF"/>
</g>
<g opacity="0.45">
<path d="M1274.87 796.104L2044.82 249.791C2047.08 248.182 2050.22 248.722 2051.83 250.98C2053.44 253.239 2052.9 256.377 2050.64 257.986L2050.6 258.016L1274.87 796.104V796.104Z" fill="#6420FF"/>
</g>
<g opacity="0.4">
<path d="M1260.89 811.346L2104.24 304.07C2106.62 302.641 2109.71 303.411 2111.14 305.779C2112.57 308.158 2111.8 311.236 2109.43 312.675L2109.39 312.705L1260.9 811.356L1260.89 811.346Z" fill="#6420FF"/>
</g>
<g opacity="0.35">
<path d="M1244.52 824.299L2160.59 363.636C2163.07 362.387 2166.09 363.387 2167.34 365.865C2168.59 368.344 2167.59 371.362 2165.11 372.611L2165.07 372.631L1244.53 824.299H1244.52Z" fill="#6420FF"/>
</g>
<g opacity="0.3">
<path d="M1226 834.653L2213.4 428.369C2215.97 427.31 2218.9 428.539 2219.96 431.097C2221.02 433.666 2219.79 436.594 2217.23 437.654L2217.19 437.674L1226.01 834.653H1226Z" fill="#6420FF"/>
</g>
<g opacity="0.25">
<path d="M1214.52 839.33L2262.22 498.048C2264.86 497.189 2267.69 498.628 2268.55 501.266C2269.41 503.905 2267.97 506.733 2265.33 507.593H2265.29L1214.52 839.33V839.33Z" fill="#6420FF"/>
</g>
<g opacity="0.2">
<path d="M1213.95 839.48L2306.59 572.405C2309.29 571.745 2312 573.394 2312.66 576.093C2313.32 578.791 2311.67 581.5 2308.97 582.159H2308.93L1213.95 839.48V839.48Z" fill="#6420FF"/>
</g>
<g opacity="0.15">
<path d="M1211.63 839.929L2346.11 651.019C2348.85 650.559 2351.44 652.408 2351.89 655.146C2352.35 657.885 2350.5 660.473 2347.76 660.923H2347.72L1211.63 839.919V839.929Z" fill="#6420FF"/>
</g>
<g opacity="0.1">
<path d="M1207.04 840.479L2380.39 733.431C2383.15 733.182 2385.6 735.21 2385.85 737.979C2386.1 740.737 2384.07 743.186 2381.3 743.436H2381.26L1207.04 840.479V840.479Z" fill="#6420FF"/>
</g>
<g opacity="0.05">
<path d="M1199.78 840.83L2409.18 819.073C2411.95 819.023 2414.24 821.231 2414.29 824C2414.34 826.768 2412.13 829.057 2409.36 829.107H2409.32L1199.78 840.83V840.83Z" fill="#6420FF"/>
</g>
<g opacity="0.05">
<path d="M776.941 833.276L529.911 831.866C528.801 831.866 527.911 830.957 527.911 829.847C527.911 828.738 528.821 827.848 529.931 827.848H529.961L776.931 833.276H776.941Z" fill="#AD00FF"/>
</g>
<g opacity="0.1">
<path d="M773.781 801.303L537.001 782.733C535.891 782.643 535.071 781.684 535.151 780.575C535.241 779.465 536.201 778.646 537.311 778.726H537.341L773.771 801.293L773.781 801.303Z" fill="#AD00FF"/>
</g>
<g opacity="0.15">
<path d="M773.141 768.842L547.541 734.322C546.441 734.152 545.691 733.133 545.861 732.034C546.031 730.934 547.051 730.185 548.151 730.355H548.181L773.141 768.842V768.842Z" fill="#AD00FF"/>
</g>
<g opacity="0.2">
<path d="M775.121 736.061L561.501 686.919C560.421 686.669 559.741 685.59 559.991 684.511C560.241 683.431 561.321 682.752 562.401 683.001C562.401 683.001 562.431 683.001 562.441 683.001L775.131 736.051L775.121 736.061Z" fill="#AD00FF"/>
</g>
<g opacity="0.25">
<path d="M779.801 703.15L578.811 640.796C577.751 640.467 577.161 639.337 577.491 638.278C577.821 637.219 578.951 636.629 580.011 636.959C580.011 636.959 580.041 636.959 580.051 636.969L779.821 703.14L779.801 703.15Z" fill="#AD00FF"/>
</g>
<g opacity="0.3">
<path d="M787.211 670.329L599.341 596.222C598.311 595.812 597.801 594.653 598.211 593.613C598.621 592.584 599.781 592.074 600.821 592.484C600.821 592.484 600.851 592.494 600.861 592.504L787.221 670.329H787.211Z" fill="#AD00FF"/>
</g>
<g opacity="0.35">
<path d="M797.391 637.817L622.961 553.416C621.961 552.936 621.541 551.727 622.031 550.737C622.511 549.738 623.721 549.318 624.711 549.808C624.711 549.808 624.741 549.818 624.751 549.828L797.391 637.827V637.817Z" fill="#AD00FF"/>
</g>
<g opacity="0.4">
<path d="M810.331 605.866L649.531 512.6C648.571 512.041 648.241 510.811 648.801 509.852C649.361 508.893 650.591 508.563 651.551 509.122C651.551 509.122 651.581 509.142 651.591 509.142L810.331 605.866V605.866Z" fill="#AD00FF"/>
</g>
<g opacity="0.45">
<path d="M825.991 574.714L678.871 473.953C677.951 473.323 677.721 472.074 678.351 471.165C678.981 470.245 680.231 470.015 681.141 470.645C681.141 470.645 681.171 470.665 681.181 470.675L825.991 574.724V574.714Z" fill="#AD00FF"/>
</g>
<g opacity="0.5">
<path d="M844.321 544.612L710.801 437.655C709.931 436.965 709.791 435.696 710.491 434.826C711.181 433.957 712.451 433.817 713.321 434.516C713.321 434.516 713.351 434.536 713.361 434.546L844.331 544.612H844.321Z" fill="#AD00FF"/>
</g>
<g opacity="0.55">
<path d="M865.251 515.799L745.161 403.854C744.351 403.094 744.301 401.825 745.061 401.015C745.821 400.206 747.091 400.156 747.901 400.915C747.901 400.915 747.931 400.935 747.941 400.945L865.251 515.799Z" fill="#AD00FF"/>
</g>
<g opacity="0.6">
<path d="M888.691 488.564L781.781 372.731C781.031 371.912 781.081 370.643 781.891 369.893C782.711 369.143 783.981 369.193 784.731 370.003C784.731 370.013 784.761 370.033 784.761 370.043L888.681 488.564H888.691Z" fill="#AD00FF"/>
</g>
<g opacity="0.65">
<path d="M914.481 463.089L820.441 344.388C819.751 343.519 819.901 342.259 820.771 341.57C821.641 340.88 822.901 341.03 823.591 341.9C823.591 341.91 823.611 341.93 823.621 341.94L914.481 463.099V463.089Z" fill="#AD00FF"/>
</g>
<g opacity="0.7">
<path d="M942.481 439.623L860.941 318.953C860.321 318.034 860.561 316.784 861.481 316.165C862.401 315.545 863.651 315.785 864.271 316.704C864.271 316.714 864.291 316.734 864.301 316.754L942.481 439.623Z" fill="#AD00FF"/>
</g>
<g opacity="0.75">
<path d="M972.531 418.376L903.091 296.556C902.541 295.597 902.881 294.368 903.841 293.818C904.801 293.268 906.031 293.608 906.581 294.568C906.581 294.578 906.601 294.608 906.611 294.618L972.531 418.366V418.376Z" fill="#AD00FF"/>
</g>
<g opacity="0.8">
<path d="M1004.45 399.556L946.671 277.317C946.201 276.318 946.631 275.118 947.631 274.639C948.631 274.169 949.831 274.599 950.311 275.598C950.311 275.618 950.331 275.638 950.331 275.648L1004.45 399.546V399.556Z" fill="#AD00FF"/>
</g>
<g opacity="0.85">
<path d="M1038.05 383.366L991.491 261.347C991.091 260.307 991.611 259.148 992.651 258.758C993.691 258.359 994.851 258.878 995.241 259.918C995.241 259.938 995.261 259.958 995.261 259.978L1038.05 383.366V383.366Z" fill="#AD00FF"/>
</g>
<g opacity="0.9">
<path d="M1073.09 369.964L1037.27 248.725C1036.96 247.665 1037.56 246.546 1038.63 246.226C1039.69 245.916 1040.81 246.516 1041.13 247.585C1041.13 247.605 1041.14 247.625 1041.15 247.645L1073.1 369.964H1073.09Z" fill="#AD00FF"/>
</g>
<g opacity="0.95">
<path d="M1109.35 359.479L1083.78 239.489C1083.55 238.399 1084.24 237.34 1085.33 237.11C1086.42 236.88 1087.48 237.57 1087.71 238.659C1087.71 238.679 1087.71 238.709 1087.72 238.719L1109.34 359.479H1109.35Z" fill="#AD00FF"/>
</g>
<path d="M1146.58 352.024L1130.78 233.682C1130.63 232.583 1131.41 231.574 1132.51 231.424C1133.61 231.274 1134.62 232.053 1134.77 233.153C1134.77 233.173 1134.77 233.203 1134.77 233.223L1146.58 352.034V352.024Z" fill="#AD00FF"/>
<path d="M1184.52 347.676L1177.98 231.294C1177.92 230.184 1178.77 229.235 1179.87 229.175C1180.98 229.115 1181.93 229.964 1181.99 231.064C1181.99 231.084 1181.99 231.114 1181.99 231.134L1184.51 347.666L1184.52 347.676Z" fill="#AD00FF"/>
<path d="M1222.9 346.477L1225.18 232.293C1225.2 231.184 1226.12 230.304 1227.23 230.324C1228.34 230.344 1229.22 231.264 1229.2 232.373C1229.2 232.393 1229.2 232.423 1229.2 232.443L1222.9 346.477Z" fill="#AD00FF"/>
<path d="M1261.34 348.465L1272.22 236.65C1272.33 235.55 1273.31 234.741 1274.42 234.841C1275.53 234.941 1276.33 235.93 1276.23 237.04C1276.23 237.06 1276.23 237.09 1276.23 237.11L1261.36 348.465H1261.34Z" fill="#AD00FF"/>
<path d="M1299.54 353.682L1318.85 244.405C1319.04 243.316 1320.09 242.586 1321.18 242.776C1322.27 242.966 1323 244.015 1322.81 245.105C1322.81 245.125 1322.81 245.155 1322.8 245.175L1299.55 353.682H1299.54Z" fill="#AD00FF"/>
<path d="M1337.24 362.137L1364.84 255.538C1365.12 254.469 1366.21 253.819 1367.29 254.099C1368.37 254.379 1369.01 255.468 1368.73 256.548C1368.73 256.568 1368.72 256.598 1368.71 256.618L1337.23 362.137H1337.24Z" fill="#AD00FF"/>
<path d="M1374.15 373.791L1409.95 270.021C1410.31 268.972 1411.46 268.412 1412.51 268.772C1413.56 269.131 1414.12 270.281 1413.76 271.33C1413.76 271.35 1413.74 271.38 1413.73 271.4L1374.16 373.791H1374.15Z" fill="#AD00FF"/>
<path d="M1409.97 388.613L1453.91 287.802C1454.35 286.782 1455.54 286.323 1456.56 286.762C1457.58 287.202 1458.04 288.391 1457.6 289.411C1457.6 289.431 1457.58 289.461 1457.57 289.481L1409.98 388.613H1409.97Z" fill="#AD00FF"/>
<path d="M1444.42 406.472L1496.51 308.779C1497.03 307.8 1498.25 307.43 1499.23 307.95C1500.21 308.469 1500.58 309.689 1500.06 310.668C1500.05 310.688 1500.04 310.718 1500.02 310.728L1444.42 406.462V406.472Z" fill="#AD00FF"/>
<path d="M1477.25 427.2L1537.56 332.814C1538.16 331.875 1539.4 331.605 1540.34 332.205C1541.28 332.804 1541.55 334.044 1540.95 334.983C1540.94 335.003 1540.92 335.023 1540.91 335.043L1477.26 427.21L1477.25 427.2Z" fill="#AD00FF"/>
<path d="M1508.19 450.647L1576.85 359.79C1577.52 358.9 1578.78 358.73 1579.67 359.4C1580.56 360.069 1580.73 361.329 1580.06 362.218C1580.05 362.238 1580.03 362.258 1580.02 362.278L1508.2 450.657L1508.19 450.647Z" fill="#AD00FF"/>
<path d="M1536.96 476.67L1614.17 389.651C1614.91 388.821 1616.18 388.741 1617.01 389.481C1617.84 390.22 1617.92 391.49 1617.18 392.319C1617.17 392.339 1617.15 392.359 1617.13 392.369L1536.96 476.67V476.67Z" fill="#AD00FF"/>
<path d="M1563.35 505.025L1649.35 422.233C1650.15 421.464 1651.42 421.484 1652.19 422.283C1652.96 423.083 1652.94 424.352 1652.14 425.121C1652.13 425.131 1652.11 425.151 1652.09 425.171L1563.35 505.025V505.025Z" fill="#AD00FF"/>
<path d="M1587.17 535.446L1682.25 457.362C1683.11 456.662 1684.37 456.782 1685.08 457.641C1685.78 458.501 1685.66 459.76 1684.8 460.47C1684.79 460.48 1684.76 460.5 1684.75 460.51L1587.17 535.446Z" fill="#AD00FF"/>
<path d="M1608.2 567.709L1712.65 494.931C1713.56 494.302 1714.81 494.522 1715.45 495.431C1716.08 496.341 1715.86 497.59 1714.95 498.229C1714.94 498.239 1714.91 498.259 1714.9 498.269L1608.2 567.709Z" fill="#AD00FF"/>
<path d="M1626.23 601.57L1740.36 534.838C1741.32 534.279 1742.55 534.599 1743.11 535.558C1743.67 536.517 1743.35 537.747 1742.39 538.306C1742.37 538.306 1742.35 538.326 1742.34 538.336L1626.23 601.57V601.57Z" fill="#AD00FF"/>
<path d="M1641.18 636.699L1765.26 576.864C1766.26 576.384 1767.46 576.804 1767.94 577.803C1768.42 578.803 1768 580.002 1767 580.482C1766.99 580.482 1766.96 580.502 1766.95 580.502L1641.18 636.699Z" fill="#AD00FF"/>
<path d="M1652.91 672.807L1787.16 620.837C1788.2 620.437 1789.36 620.947 1789.76 621.986C1790.16 623.026 1789.65 624.185 1788.61 624.585C1788.6 624.585 1788.57 624.595 1788.56 624.605L1652.92 672.807H1652.91Z" fill="#AD00FF"/>
<path d="M1661.35 709.596L1805.91 666.591C1806.97 666.271 1808.09 666.881 1808.41 667.94C1808.73 669 1808.12 670.119 1807.06 670.439C1807.05 670.439 1807.02 670.449 1807.01 670.449L1661.36 709.586L1661.35 709.596Z" fill="#AD00FF"/>
<path d="M1666.4 746.764L1821.32 713.904C1822.41 713.674 1823.47 714.363 1823.7 715.453C1823.93 716.542 1823.24 717.601 1822.15 717.831C1822.14 717.831 1822.11 717.831 1822.1 717.831L1666.4 746.754V746.764Z" fill="#AD00FF"/>
<path d="M1668.11 783.993L1833.32 762.515C1834.42 762.376 1835.43 763.145 1835.57 764.244C1835.71 765.344 1834.94 766.353 1833.84 766.493C1833.83 766.493 1833.8 766.493 1833.79 766.493L1668.11 783.983V783.993Z" fill="#AD00FF"/>
<path d="M1666.52 821.002L1841.84 812.186C1842.95 812.126 1843.89 812.986 1843.95 814.095C1844.01 815.205 1843.15 816.144 1842.04 816.204C1842.03 816.204 1842.01 816.204 1841.99 816.204L1666.52 821.012V821.002Z" fill="#AD00FF"/>
<path d="M1661.7 857.481L1846.82 862.659C1847.93 862.689 1848.8 863.618 1848.77 864.728C1848.74 865.837 1847.81 866.707 1846.7 866.677C1846.69 866.677 1846.67 866.677 1846.66 866.677L1661.7 857.481V857.481Z" fill="#AD00FF"/>
<path d="M1653.73 892.98L1848.18 913.858C1849.28 913.978 1850.08 914.967 1849.96 916.067C1849.84 917.166 1848.85 917.965 1847.75 917.846C1847.74 917.846 1847.72 917.846 1847.71 917.846L1653.73 892.98Z" fill="#AD00FF"/>
<path d="M1642.7 927.191L1845.79 965.539C1846.88 965.749 1847.6 966.798 1847.39 967.887C1847.18 968.977 1846.13 969.696 1845.04 969.486C1845.04 969.486 1845.01 969.486 1845 969.486L1642.69 927.201L1642.7 927.191Z" fill="#AD00FF"/>
<path d="M1628.76 959.852L1839.59 1017.44C1840.66 1017.73 1841.29 1018.84 1841 1019.91C1840.71 1020.98 1839.6 1021.61 1838.53 1021.32C1838.53 1021.32 1838.5 1021.32 1838.49 1021.31L1628.76 959.852Z" fill="#AD00FF"/>
<path d="M1612.02 990.683L1829.44 1069.24C1830.48 1069.62 1831.02 1070.77 1830.65 1071.81C1830.27 1072.85 1829.12 1073.39 1828.08 1073.02C1828.08 1073.02 1828.05 1073.02 1828.05 1073.01L1612.03 990.693L1612.02 990.683Z" fill="#AD00FF"/>
<path d="M1592.73 1019.47L1815.39 1120.66C1816.4 1121.12 1816.85 1122.31 1816.39 1123.32C1815.93 1124.33 1814.74 1124.78 1813.73 1124.32C1813.73 1124.32 1813.71 1124.31 1813.7 1124.31L1592.73 1019.47V1019.47Z" fill="#AD00FF"/>
<path d="M1571.13 1045.99L1797.45 1171.45C1798.42 1171.99 1798.77 1173.21 1798.23 1174.18C1797.69 1175.15 1796.47 1175.5 1795.5 1174.96C1795.5 1174.96 1795.48 1174.95 1795.47 1174.94L1571.12 1045.98L1571.13 1045.99Z" fill="#AD00FF"/>
<path d="M1547.47 1070.05L1775.64 1221.3C1776.56 1221.91 1776.82 1223.16 1776.2 1224.09C1775.59 1225.01 1774.34 1225.27 1773.41 1224.65C1773.41 1224.65 1773.39 1224.64 1773.39 1224.63L1547.46 1070.04L1547.47 1070.05Z" fill="#AD00FF"/>
<path d="M1521.97 1091.43L1749.94 1269.95C1750.81 1270.63 1750.97 1271.9 1750.28 1272.77C1749.6 1273.64 1748.33 1273.8 1747.46 1273.11C1747.46 1273.11 1747.44 1273.1 1747.44 1273.09L1521.97 1091.43Z" fill="#AD00FF"/>
<path d="M1494.99 1110.01L1720.46 1317.14C1721.28 1317.89 1721.33 1319.16 1720.58 1319.98C1719.83 1320.8 1718.56 1320.85 1717.74 1320.1C1717.74 1320.1 1717.72 1320.09 1717.72 1320.08L1494.99 1110.01V1110.01Z" fill="#AD00FF"/>
<path d="M1466.84 1125.66L1687.25 1362.63C1688.01 1363.44 1687.96 1364.7 1687.15 1365.46C1686.34 1366.22 1685.07 1366.17 1684.31 1365.36C1684.31 1365.36 1684.3 1365.35 1684.29 1365.34L1466.84 1125.66V1125.66Z" fill="#AD00FF"/>
<path d="M1437.85 1138.28L1650.36 1406.14C1651.05 1407.01 1650.9 1408.27 1650.03 1408.96C1649.16 1409.65 1647.9 1409.5 1647.21 1408.63L1647.2 1408.61L1437.86 1138.27L1437.85 1138.28Z" fill="#AD00FF"/>
<path d="M1408.32 1147.74L1609.82 1447.37C1610.44 1448.29 1610.19 1449.54 1609.27 1450.16C1608.35 1450.78 1607.1 1450.53 1606.48 1449.61L1606.47 1449.59L1408.32 1147.74Z" fill="#AD00FF"/>
<path d="M1378.66 1154.07L1565.79 1486.08C1566.33 1487.05 1565.99 1488.27 1565.03 1488.81C1564.06 1489.35 1562.84 1489.01 1562.29 1488.06V1488.04L1378.66 1154.08V1154.07Z" fill="#AD00FF"/>
<path d="M1349.18 1157.27L1518.34 1521.97C1518.81 1522.97 1518.37 1524.16 1517.36 1524.63C1516.35 1525.1 1515.16 1524.66 1514.69 1523.65V1523.63L1349.17 1157.26L1349.18 1157.27Z" fill="#AD00FF"/>
<path d="M1320.23 1157.39L1470.47 1553.73C1471.45 1556.32 1470.15 1559.22 1467.55 1560.2C1464.95 1561.18 1462.05 1559.88 1461.07 1557.29C1461.06 1557.26 1461.04 1557.21 1461.03 1557.18L1320.23 1157.39Z" fill="#AD00FF"/>
<path d="M1292.1 1154.47L1416.76 1583.3C1417.53 1585.96 1416 1588.75 1413.34 1589.52C1410.68 1590.29 1407.89 1588.77 1407.11 1586.11C1407.11 1586.08 1407.09 1586.03 1407.08 1586L1292.1 1154.47Z" fill="#AD00FF"/>
<path d="M1265.09 1148.69L1360.21 1609.19C1360.77 1611.91 1359.02 1614.57 1356.31 1615.13C1353.59 1615.69 1350.93 1613.94 1350.37 1611.22C1350.37 1611.19 1350.35 1611.14 1350.35 1611.11L1265.09 1148.68V1148.69Z" fill="#AD00FF"/>
<path d="M1239.42 1140.24L1301.12 1631.18C1301.47 1633.93 1299.51 1636.45 1296.76 1636.79C1294.01 1637.14 1291.49 1635.18 1291.15 1632.43C1291.15 1632.4 1291.15 1632.35 1291.14 1632.33L1239.42 1140.24V1140.24Z" fill="#AD00FF"/>
<path d="M1215.27 1129.28L1239.83 1649.03C1239.96 1651.8 1237.82 1654.16 1235.05 1654.29C1232.28 1654.42 1229.92 1652.28 1229.79 1649.51C1229.79 1649.49 1229.79 1649.44 1229.79 1649.41L1215.27 1129.28Z" fill="#AD00FF"/>
<path d="M1192.88 1116.03L1176.66 1662.6C1176.58 1665.37 1174.26 1667.56 1171.49 1667.47C1168.72 1667.39 1166.53 1665.07 1166.62 1662.3C1166.62 1662.28 1166.62 1662.23 1166.62 1662.21L1192.88 1116.03Z" fill="#AD00FF"/>
<path d="M1172.89 1100.73L1111.47 1671.71C1111.17 1674.47 1108.7 1676.47 1105.94 1676.17C1103.18 1675.87 1101.18 1673.4 1101.48 1670.64C1101.48 1670.62 1101.48 1670.57 1101.49 1670.55L1172.9 1100.73H1172.89Z" fill="#AD00FF"/>
<g opacity="0.95">
<path d="M1155.52 1083.65L1044.53 1676.07C1044.02 1678.79 1041.39 1680.58 1038.67 1680.07C1035.94 1679.56 1034.15 1676.93 1034.66 1674.22C1034.66 1674.2 1034.67 1674.16 1034.68 1674.14L1155.53 1083.65H1155.52Z" fill="#AD00FF"/>
</g>
<g opacity="0.9">
<path d="M1140.88 1065.09L976.271 1675.45C975.551 1678.12 972.791 1679.71 970.111 1678.98C967.431 1678.26 965.841 1675.51 966.571 1672.83C966.571 1672.81 966.591 1672.77 966.591 1672.75L1140.89 1065.08L1140.88 1065.09Z" fill="#AD00FF"/>
</g>
<g opacity="0.85">
<path d="M1129.05 1045.35L907.091 1669.69C906.161 1672.3 903.291 1673.67 900.671 1672.74C898.061 1671.81 896.691 1668.94 897.621 1666.32C897.621 1666.3 897.641 1666.26 897.651 1666.25L1129.05 1045.35Z" fill="#AD00FF"/>
</g>
<g opacity="0.8">
<path d="M1120.1 1024.72L837.431 1658.65C836.301 1661.18 833.331 1662.32 830.801 1661.19C828.271 1660.06 827.131 1657.1 828.261 1654.57C828.261 1654.56 828.281 1654.52 828.291 1654.5L1120.11 1024.72H1120.1Z" fill="#AD00FF"/>
</g>
<g opacity="0.75">
<path d="M1114.07 1003.53L767.711 1642.27C766.391 1644.7 763.341 1645.61 760.901 1644.28C758.461 1642.96 757.551 1639.92 758.881 1637.48C758.881 1637.47 758.911 1637.43 758.911 1637.42L1114.07 1003.52V1003.53Z" fill="#AD00FF"/>
</g>
<g opacity="0.7">
<path d="M1110.99 982.109L698.311 1620.51C696.801 1622.84 693.691 1623.51 691.361 1622C689.031 1620.49 688.361 1617.38 689.871 1615.05C689.871 1615.04 689.901 1615.01 689.911 1614.99L1110.99 982.099V982.109Z" fill="#AD00FF"/>
</g>
<g opacity="0.65">
<path d="M1110.87 960.81L629.621 1593.33C627.941 1595.54 624.791 1595.97 622.581 1594.29C620.371 1592.61 619.941 1589.47 621.621 1587.26C621.621 1587.26 621.651 1587.22 621.661 1587.21L1110.87 960.81V960.81Z" fill="#AD00FF"/>
</g>
<g opacity="0.6">
<path d="M1113.69 940.002L562.001 1560.75C560.161 1562.82 556.981 1563.01 554.911 1561.17C552.841 1559.33 552.651 1556.15 554.491 1554.09C554.491 1554.09 554.521 1554.05 554.531 1554.04L1113.69 940.002V940.002Z" fill="#AD00FF"/>
</g>
<g opacity="0.55">
<path d="M1119.43 920.035L495.851 1522.74C493.861 1524.66 490.671 1524.61 488.751 1522.62C486.821 1520.63 486.871 1517.44 488.871 1515.52C488.871 1515.52 488.901 1515.49 488.911 1515.48L1119.44 920.035H1119.43Z" fill="#AD00FF"/>
</g>
<g opacity="0.5">
<path d="M1128.05 901.255L431.541 1479.26C429.411 1481.03 426.241 1480.74 424.461 1478.6C422.691 1476.47 422.981 1473.3 425.121 1471.52C425.121 1471.52 425.161 1471.49 425.161 1471.48L1128.05 901.235V901.255Z" fill="#AD00FF"/>
</g>
<g opacity="0.45">
<path d="M1139.43 884.056L369.481 1430.37C367.221 1431.98 364.081 1431.44 362.471 1429.18C360.861 1426.92 361.401 1423.78 363.661 1422.17L363.701 1422.14L1139.43 884.056Z" fill="#AD00FF"/>
</g>
<g opacity="0.4">
<path d="M1153.41 868.815L310.061 1376.09C307.681 1377.52 304.591 1376.75 303.161 1374.38C301.731 1372 302.501 1368.92 304.871 1367.49L304.911 1367.46L1153.4 868.805L1153.41 868.815Z" fill="#AD00FF"/>
</g>
<g opacity="0.35">
<path d="M1169.78 855.871L253.711 1316.52C251.231 1317.77 248.211 1316.77 246.961 1314.3C245.711 1311.82 246.711 1308.8 249.191 1307.55L249.231 1307.53L1169.77 855.861L1169.78 855.871Z" fill="#AD00FF"/>
</g>
<g opacity="0.3">
<path d="M1188.3 845.508L200.901 1251.79C198.331 1252.85 195.401 1251.62 194.341 1249.06C193.281 1246.5 194.511 1243.57 197.071 1242.51L197.111 1242.49L1188.29 845.508H1188.3Z" fill="#AD00FF"/>
</g>
<g opacity="0.25">
<path d="M1199.78 840.831L152.081 1182.11C149.441 1182.97 146.611 1181.53 145.751 1178.89C144.891 1176.26 146.331 1173.43 148.971 1172.57H149.011L1199.78 840.831V840.831Z" fill="#AD00FF"/>
</g>
<g opacity="0.2">
<path d="M1200.35 840.681L654.026 974.218L107.701 1107.76C105.001 1108.42 102.291 1106.77 101.631 1104.07C100.971 1101.37 102.621 1098.66 105.321 1098H105.361L652.851 969.341L1200.34 840.681H1200.35Z" fill="#AD00FF"/>
</g>
<g opacity="0.15">
<path d="M1202.67 840.229L68.191 1029.14C65.451 1029.6 62.861 1027.75 62.411 1025.01C61.951 1022.27 63.801 1019.69 66.541 1019.24H66.581L1202.67 840.239V840.229Z" fill="#AD00FF"/>
</g>
<g opacity="0.1">
<path d="M1207.26 839.681L33.9007 946.729C31.1407 946.979 28.6907 944.95 28.4407 942.182C28.1907 939.423 30.2207 936.975 32.9907 936.725H33.0307L1207.25 839.681H1207.26Z" fill="#AD00FF"/>
</g>
<g opacity="0.05">
<path d="M1214.52 839.332L5.11083 861.099C2.34083 861.149 0.050832 858.94 0.000831962 856.172C-0.049168 853.403 2.16083 851.115 4.93083 851.065H4.97083L1214.51 839.342L1214.52 839.332Z" fill="#AD00FF"/>
</g>
</svg>
