<svg width="187" height="26" viewBox="0 0 187 26" fill="none" xmlns="http://www.w3.org/2000/svg">
<path d="M7.04002 25V6.18401H12.992V25H7.04002ZM0.640015 6.82401V1.64001H19.392V6.82401H0.640015Z" fill="#212121"/>
<path d="M22.3993 25V1.64001H28.1593V25H22.3993ZM27.5193 25V20.136H37.3753V25H27.5193ZM27.5193 15.56V10.696H36.7033V15.56H27.5193ZM27.5193 6.50401V1.64001H37.1833V6.50401H27.5193Z" fill="#212121"/>
<path d="M51.9988 25.64C49.8868 25.64 48.0734 25.2773 46.5588 24.552C45.0441 23.8053 43.7961 22.8347 42.8148 21.64C41.8334 20.424 41.1081 19.112 40.6388 17.704C40.1694 16.296 39.9348 14.9307 39.9348 13.608V12.904C39.9348 11.432 40.1694 9.992 40.6388 8.58401C41.1294 7.15467 41.8654 5.864 42.8468 4.71201C43.8494 3.56001 45.0974 2.64267 46.5908 1.96C48.0841 1.27734 49.8334 0.936005 51.8388 0.936005C53.9721 0.936005 55.8601 1.34134 57.5028 2.152C59.1668 2.94134 60.5001 4.06134 61.5028 5.512C62.5054 6.94134 63.0921 8.60534 63.2628 10.504H57.3108C57.1614 9.69334 56.8414 8.98934 56.3508 8.392C55.8601 7.79467 55.2308 7.336 54.4628 7.016C53.6948 6.67467 52.8201 6.50401 51.8388 6.50401C50.9214 6.50401 50.0894 6.66401 49.3428 6.984C48.6174 7.304 47.9988 7.76267 47.4868 8.36C46.9961 8.936 46.6121 9.64001 46.3348 10.472C46.0788 11.304 45.9508 12.2427 45.9508 13.288C45.9508 14.3333 46.0788 15.272 46.3348 16.104C46.6121 16.936 47.0068 17.6507 47.5188 18.248C48.0521 18.8453 48.6921 19.304 49.4388 19.624C50.1854 19.9227 51.0388 20.072 51.9988 20.072C53.4921 20.072 54.7508 19.7093 55.7748 18.984C56.8201 18.2587 57.4494 17.288 57.6628 16.072H63.6148C63.4228 17.8213 62.8361 19.4213 61.8548 20.872C60.8734 22.3227 59.5508 23.4853 57.8868 24.36C56.2228 25.2133 54.2601 25.64 51.9988 25.64Z" fill="#212121"/>
<path d="M81.591 25V1.64001H87.543V25H81.591ZM66.743 25V1.64001H72.695V25H66.743ZM71.671 15.816V10.632H82.615V15.816H71.671Z" fill="#212121"/>
<path d="M115.321 25.64C113.081 25.64 111.182 25.224 109.625 24.392C108.089 23.56 106.915 22.3867 106.105 20.872C105.294 19.336 104.889 17.5227 104.889 15.432V1.64001H110.841V15.56C110.841 16.4773 111.011 17.2773 111.353 17.96C111.715 18.6427 112.227 19.1653 112.889 19.528C113.55 19.8907 114.361 20.072 115.321 20.072C116.281 20.072 117.091 19.8907 117.753 19.528C118.414 19.1653 118.915 18.6533 119.257 17.992C119.598 17.3093 119.769 16.4987 119.769 15.56V1.64001H125.721V15.432C125.721 17.5227 125.315 19.336 124.505 20.872C123.715 22.3867 122.542 23.56 120.985 24.392C119.449 25.224 117.561 25.64 115.321 25.64Z" fill="#212121"/>
<path d="M130.024 25V1.64001H139.784L147.56 20.264H148.68L148.04 20.84V1.64001H153.608V25H143.784L136.008 6.37601H134.888L135.528 5.8V25H130.024Z" fill="#212121"/>
<path d="M158.401 25V1.64001H164.353V25H158.401Z" fill="#212121"/>
<path d="M173.821 25V6.18401H179.773V25H173.821ZM167.421 6.82401V1.64001H186.173V6.82401H167.421Z" fill="#212121"/>
<circle cx="97" cy="21" r="4" fill="#FF4E35"/>
</svg>
