<svg width="18" height="16" viewBox="0 0 18 16" fill="none" xmlns="http://www.w3.org/2000/svg">
<path fill-rule="evenodd" clip-rule="evenodd" d="M8.99998 0.833984C9.16145 0.833984 9.31299 0.911967 9.40684 1.04337L13.3252 6.52903L17.1097 4.63677C17.2819 4.55069 17.4881 4.57107 17.6401 4.68917C17.7921 4.80727 17.8628 5.00212 17.8219 5.1902L15.7386 14.7735C15.6886 15.0034 15.4852 15.1673 15.25 15.1673H2.74998C2.51476 15.1673 2.31136 15.0034 2.26139 14.7735L0.178056 5.1902C0.137169 5.00212 0.207868 4.80727 0.359847 4.68917C0.511825 4.57107 0.7181 4.55069 0.890251 4.63677L4.67478 6.52903L8.59311 1.04337C8.68697 0.911967 8.8385 0.833984 8.99998 0.833984ZM8.99998 2.19422L5.24018 7.45794C5.09717 7.65814 4.82977 7.72456 4.6097 7.61453L1.37707 5.99821L3.15296 14.1673H14.847L16.6229 5.99821L13.3903 7.61453C13.1702 7.72456 12.9028 7.65814 12.7598 7.45794L8.99998 2.19422Z" />
</svg>
