<svg width="54" height="54" viewBox="0 0 54 54" fill="none" xmlns="http://www.w3.org/2000/svg">
<circle cx="27" cy="27" r="27" fill="#6420FF"/>
<mask id="mask0_84_2823" style="mask-type:alpha" maskUnits="userSpaceOnUse" x="0" y="0" width="54" height="54">
<circle cx="27" cy="27" r="27" fill="#FFEDEF"/>
</mask>
<g mask="url(#mask0_84_2823)">
<g clip-path="url(#clip0_84_2823)">
<path d="M34.6728 51.5137C32.6265 48.6716 31.0254 43.1768 30.836 40.4295L21.1018 36.2373L17.0518 51.5137H34.6728Z" fill="#F9C9B6" stroke="#101010" stroke-width="0.568421"/>
<mask id="mask1_84_2823" style="mask-type:alpha" maskUnits="userSpaceOnUse" x="17" y="36" width="18" height="17">
<path d="M34.6728 52.9347C32.6265 50.0926 31.0254 43.1768 30.836 40.4295L21.1018 36.2373L17.0518 52.9347H34.6728Z" fill="#F9C9B6"/>
</mask>
<g mask="url(#mask1_84_2823)">
<g style="mix-blend-mode:multiply">
<ellipse cx="30.4096" cy="35.953" rx="8.38421" ry="7.67368" fill="#101010"/>
</g>
</g>
<mask id="path-6-inside-1_84_2823" fill="white">
<path fillRule="evenodd" clipRule="evenodd" d="M38.9201 27.5566C38.9162 27.5402 38.9123 27.5237 38.9084 27.5073C38.9044 27.4909 38.9005 27.4744 38.8965 27.458L36.5664 17.7331C36.5641 17.7233 36.5618 17.7136 36.5595 17.7038C36.5571 17.6941 36.5548 17.6844 36.5524 17.6746L36.5422 17.6318L36.542 17.6319C35.0899 11.7424 29.1533 8.121 23.2453 9.53649C17.3374 10.952 13.6864 16.8704 15.061 22.7785L15.0607 22.7786L17.4752 32.8564L17.4772 32.8559C18.9839 38.6687 24.8767 42.2265 30.741 40.8214C36.6054 39.4164 40.246 33.5745 38.955 27.71L38.9567 27.7096L38.9201 27.5566Z"/>
</mask>
<path fillRule="evenodd" clipRule="evenodd" d="M38.9201 27.5566C38.9162 27.5402 38.9123 27.5237 38.9084 27.5073C38.9044 27.4909 38.9005 27.4744 38.8965 27.458L36.5664 17.7331C36.5641 17.7233 36.5618 17.7136 36.5595 17.7038C36.5571 17.6941 36.5548 17.6844 36.5524 17.6746L36.5422 17.6318L36.542 17.6319C35.0899 11.7424 29.1533 8.121 23.2453 9.53649C17.3374 10.952 13.6864 16.8704 15.061 22.7785L15.0607 22.7786L17.4752 32.8564L17.4772 32.8559C18.9839 38.6687 24.8767 42.2265 30.741 40.8214C36.6054 39.4164 40.246 33.5745 38.955 27.71L38.9567 27.7096L38.9201 27.5566Z" fill="#F9C9B6"/>
<path d="M38.9201 27.5566L38.3667 27.6866L38.3673 27.6891L38.9201 27.5566ZM38.9084 27.5073L38.3556 27.6397L38.3556 27.6398L38.9084 27.5073ZM38.8965 27.458L38.3437 27.5905L38.3443 27.593L38.8965 27.458ZM36.5664 17.7331L36.0133 17.864L36.0137 17.8655L36.5664 17.7331ZM36.5524 17.6746L35.9997 17.8071L36 17.8085L36.5524 17.6746ZM36.5422 17.6318L37.095 17.4994L36.9624 16.9462L36.4093 17.0791L36.5422 17.6318ZM36.542 17.6319L35.9901 17.7679L36.1254 18.3166L36.6748 18.1845L36.542 17.6319ZM23.2453 9.53649L23.3778 10.0893L23.2453 9.53649ZM15.061 22.7785L15.1931 23.3314L15.7426 23.2L15.6146 22.6497L15.061 22.7785ZM15.0607 22.7786L14.9285 22.2257L14.3754 22.358L14.5079 22.911L15.0607 22.7786ZM17.4752 32.8564L16.9225 32.9888L17.055 33.5418L17.6079 33.4091L17.4752 32.8564ZM17.4772 32.8559L18.0275 32.7133L17.8874 32.1729L17.3446 32.3032L17.4772 32.8559ZM30.741 40.8214L30.6086 40.2687L30.741 40.8214ZM38.955 27.71L38.8223 27.1573L38.2799 27.2875L38.3999 27.8323L38.955 27.71ZM38.9567 27.7096L39.0894 28.2624L39.6419 28.1298L39.5095 27.5772L38.9567 27.7096ZM39.4734 27.4267C39.4694 27.4094 39.4653 27.3922 39.4611 27.3748L38.3556 27.6398C38.3593 27.6553 38.363 27.6709 38.3667 27.6866L39.4734 27.4267ZM39.4612 27.3749C39.457 27.3576 39.4528 27.3403 39.4486 27.3231L38.3443 27.593C38.3481 27.6085 38.3519 27.6241 38.3556 27.6397L39.4612 27.3749ZM36.0137 17.8655L38.3437 27.5905L39.4492 27.3256L37.1192 17.6006L36.0137 17.8655ZM37.1196 17.6021C37.1172 17.5919 37.1147 17.5817 37.1122 17.5714L36.0067 17.8363C36.0089 17.8455 36.0111 17.8547 36.0133 17.864L37.1196 17.6021ZM37.1122 17.5714C37.1098 17.5612 37.1073 17.551 37.1049 17.5408L36 17.8085C36.0023 17.8178 36.0045 17.827 36.0067 17.8363L37.1122 17.5714ZM35.9894 17.7643L35.9997 17.8071L37.1052 17.5422L37.095 17.4994L35.9894 17.7643ZM36.6748 18.1845L36.675 18.1845L36.4093 17.0791L36.4091 17.0792L36.6748 18.1845ZM37.0939 17.4958C35.5671 11.3031 29.3249 7.49537 23.1129 8.98371L23.3778 10.0893C28.9816 8.74663 34.6128 12.1816 35.9901 17.7679L37.0939 17.4958ZM23.1129 8.98371C16.9009 10.472 13.062 16.6951 14.5073 22.9073L15.6146 22.6497C14.3108 17.0458 17.7739 11.4319 23.3778 10.0893L23.1129 8.98371ZM15.1928 23.3314L15.1931 23.3314L14.9288 22.2257L14.9285 22.2257L15.1928 23.3314ZM18.028 32.724L15.6135 22.6462L14.5079 22.911L16.9225 32.9888L18.028 32.724ZM17.3446 32.3032L17.3426 32.3037L17.6079 33.4091L17.6099 33.4086L17.3446 32.3032ZM16.927 32.9986C18.5113 39.1107 24.7072 42.8516 30.8735 41.3742L30.6086 40.2687C25.0461 41.6014 19.4566 38.2267 18.0275 32.7133L16.927 32.9986ZM30.8735 41.3742C37.0397 39.8968 40.8676 33.7543 39.5101 27.5878L38.3999 27.8323C39.6244 33.3947 36.1711 38.9359 30.6086 40.2687L30.8735 41.3742ZM38.8241 27.1569L38.8223 27.1573L39.0876 28.2628L39.0894 28.2624L38.8241 27.1569ZM38.3673 27.6891L38.404 27.8421L39.5095 27.5772L39.4729 27.4242L38.3673 27.6891Z" fill="#101010" mask="url(#path-6-inside-1_84_2823)"/>
</g>
<circle cx="23.944" cy="22.2181" r="1.70526" transform="rotate(-6.27568 23.944 22.2181)" fill="#D2EFF3"/>
<ellipse cx="24.1272" cy="23.5202" rx="1.27895" ry="1.91842" transform="rotate(-6.77646 24.1272 23.5202)" fill="#101010"/>
<ellipse cx="33.0074" cy="20.992" rx="1.70526" ry="1.70526" transform="rotate(-6.27568 33.0074 20.992)" fill="#D2EFF3"/>
<ellipse cx="33.2222" cy="22.0992" rx="1.27895" ry="1.91842" transform="rotate(-6.27568 33.2222 22.0992)" fill="#101010"/>
<path d="M31.1211 18.7888C31.9264 18.4098 33.8211 18.064 34.9579 19.7125" stroke="#101010" stroke-width="0.568421" stroke-linecap="round"/>
<path d="M20.4031 22.3851C20.6974 21.5452 21.779 19.9516 23.7515 20.2964" stroke="#101010" stroke-width="0.568421" stroke-linecap="round"/>
<path d="M20.7575 21.5236L19.8838 20.7524" stroke="#101010" stroke-width="0.568421" stroke-linecap="round"/>
<path d="M34.5257 18.923L35.3994 18.1519" stroke="#101010" stroke-width="0.568421" stroke-linecap="round"/>
<path d="M21.6737 20.7216L21.0986 19.708" stroke="#101010" stroke-width="0.568421" stroke-linecap="round"/>
<path d="M33.4669 18.4052L34.042 17.3916" stroke="#101010" stroke-width="0.568421" stroke-linecap="round"/>
<path d="M22.8216 20.208L22.5088 19.0854" stroke="#101010" stroke-width="0.568421" stroke-linecap="round"/>
<path d="M32.1775 18.3179L32.4902 17.1953" stroke="#101010" stroke-width="0.568421" stroke-linecap="round"/>
<path d="M23.3713 16.8164C23.2597 16.5689 23.2596 16.5689 23.2594 16.569L23.2591 16.5691L23.258 16.5696L23.2545 16.5712L23.2417 16.5771C23.2307 16.5822 23.2147 16.5897 23.1942 16.5995C23.1531 16.6191 23.0935 16.6481 23.0181 16.6864C22.8674 16.7628 22.653 16.8764 22.3958 17.026C21.8819 17.325 21.1939 17.7696 20.4995 18.3521C19.1187 19.5103 17.6684 21.2515 17.581 23.5105C17.5434 24.4824 17.4219 29.1776 17.4491 30.9719C17.4719 32.4829 18.2538 34.1052 19.3385 35.6011C20.2836 36.9045 21.4771 38.1376 22.6601 39.1536C17.2934 39.3658 13.2276 38.6617 10.4801 37.8908C9.04722 37.4888 7.97237 37.0685 7.25803 36.7501C6.97565 36.6242 6.7496 36.5143 6.58004 36.4277C7.8724 35.4778 8.95057 33.8495 9.66194 31.4327C10.4421 28.7824 10.788 25.1629 10.4845 20.3894C10.2095 16.064 12.3115 12.4097 15.4877 9.82618C18.6673 7.24001 22.9042 5.74518 26.8388 5.74518C28.968 5.74519 30.6954 6.16211 32.088 7.17344C33.4811 8.18514 34.5736 9.81664 35.3828 12.3135L35.439 12.4868L35.6206 12.5005C37.3793 12.6338 38.6161 13.3588 39.5279 14.5204C40.4496 15.6944 41.0496 17.3283 41.4896 19.2908C41.7794 20.5839 41.4972 21.8599 41.1578 23.3292L41.142 23.3977C40.8098 24.8354 40.4403 26.4349 40.6029 28.3051C40.7492 29.9881 41.421 31.6401 41.9793 32.9104C42.0511 33.0736 42.1206 33.2297 42.1868 33.3785C42.3821 33.8173 42.5492 34.1925 42.662 34.499C42.7375 34.7044 42.7812 34.8596 42.7951 34.9699C42.8022 35.0262 42.7997 35.0555 42.7977 35.0676C42.7345 35.126 42.6174 35.1907 42.4305 35.2478C42.2358 35.3073 41.9909 35.351 41.7092 35.3785C41.1464 35.4334 40.4668 35.4206 39.8139 35.3578C39.1598 35.2948 38.5483 35.1831 38.1198 35.0469C37.9023 34.9778 37.7518 34.9085 37.667 34.8483C37.654 34.8391 37.6441 34.8313 37.6365 34.8249C37.6895 34.642 37.7659 34.4238 37.8541 34.1717C38.308 32.875 39.0755 30.6828 38.5792 27.7955C38.2823 26.0681 37.4898 23.0175 36.7754 20.4104C36.4175 19.1043 36.078 17.9054 35.8281 17.0331C35.7031 16.5969 35.6004 16.2423 35.529 15.9967L35.4465 15.7135L35.4248 15.6396L35.4193 15.6207L35.4179 15.6159L35.4175 15.6147L35.4174 15.6144C35.4174 15.6143 35.4174 15.6143 35.1569 15.6909L35.4174 15.6143L35.2854 15.1654L34.9612 15.5026L34.9611 15.5027L34.9611 15.5027L34.9606 15.5033L34.9578 15.5061L34.9456 15.5186C34.9345 15.5298 34.9175 15.5469 34.8947 15.5694C34.8492 15.6144 34.7804 15.6811 34.6893 15.7662C34.507 15.9364 34.2351 16.1803 33.8796 16.4718C33.1683 17.055 32.1237 17.8279 30.7935 18.5838C28.2615 20.0227 24.7042 21.3947 20.4452 21.2885C21.8115 20.0193 22.5975 18.9762 23.0479 18.2206C23.2991 17.7993 23.4456 17.4677 23.5301 17.2368C23.5724 17.1213 23.599 17.0312 23.6155 16.9677C23.6237 16.9359 23.6294 16.9108 23.6332 16.8926C23.6339 16.8894 23.6345 16.8863 23.6351 16.8835C23.6361 16.8784 23.6369 16.8741 23.6375 16.8705L23.6388 16.8633L23.6392 16.8607L23.6394 16.8596L23.6395 16.8591C23.6395 16.8589 23.6396 16.8587 23.3713 16.8164ZM23.3713 16.8164L23.2597 16.5689L23.7179 16.3622L23.6396 16.8587L23.3713 16.8164ZM37.6147 34.8025C37.615 34.8025 37.6167 34.8044 37.6187 34.8082C37.6153 34.8044 37.6143 34.8025 37.6147 34.8025Z" fill="#FFBD03" stroke="black" stroke-width="0.543103"/>
<path d="M35.5257 12.6475C35.5967 13.2869 35.483 14.5659 35.3125 15.4185" stroke="#101010" stroke-width="0.568421"/>
<path d="M28.6959 24.787C28.7249 25.333 28.9372 26.5038 29.5555 26.8187C30.3283 27.2123 29.7225 28.5173 28.2757 28.4336" stroke="#101010" stroke-width="0.568421"/>
<path d="M18.5398 30.8528L18.6157 30.771V30.6595V25.8988V25.7397L18.4802 25.6565C17.9496 25.3309 17.3043 25.1528 16.6376 25.1528C15.8361 25.1528 15.0857 25.4011 14.5512 25.9053C14.0107 26.415 13.7191 27.1604 13.7965 28.0896C13.872 28.995 14.1759 29.6614 14.6801 30.1042C14.6387 30.2462 14.6265 30.3993 14.6456 30.5604C14.701 31.0248 14.9358 31.3595 15.2986 31.5657C15.6445 31.7623 16.0871 31.8317 16.5586 31.8317C17.3372 31.8317 18.02 31.4129 18.5398 30.8528Z" stroke="black" stroke-width="0.568421"/>
<path fillRule="evenodd" clipRule="evenodd" d="M19.4644 28.1342C19.4745 28.0416 19.4797 27.9476 19.4797 27.8523C19.4797 26.4004 18.1288 25.4365 16.6376 25.4365C15.1465 25.4365 13.9376 26.3602 14.0797 28.0655C14.1588 29.0144 14.4983 29.6388 15.0248 30.0147C14.9412 30.1602 14.9046 30.3311 14.9279 30.5263C15.0173 31.2768 15.658 31.547 16.5586 31.547C18.1367 31.547 19.3854 29.5509 19.4644 28.1342Z" fill="#F9C9B6"/>
<path d="M17.2649 26.6451C16.6965 26.3845 15.4459 26.2472 14.9912 27.7819" stroke="#101010" stroke-width="0.568421"/>
<path d="M15.7734 26.7158C16.0813 26.9763 16.6687 27.7816 16.555 28.9185" stroke="#101010" stroke-width="0.568421"/>
<circle cx="16.3419" cy="30.6944" r="0.568421" fill="white"/>
<circle cx="16.4839" cy="30.5523" r="0.142105" fill="#FFEDEF"/>
<path d="M26.9667 51.0979L27.1413 50.8737L26.9667 51.098L27.2114 51.2885L27.3799 51.0282L27.3799 51.0282L27.3802 51.0278L27.3815 51.0257L27.3873 51.0169L27.4113 50.9807C27.4327 50.9487 27.4647 50.9014 27.5065 50.841C27.5901 50.7201 27.713 50.5471 27.8686 50.3403C28.1803 49.9261 28.6215 49.3791 29.141 48.8442C29.6618 48.308 30.2531 47.7925 30.8641 47.4339C31.4775 47.0738 32.0833 46.8875 32.6455 46.9633C38.6762 47.7765 43.1142 50.4477 45.995 54.4264H7.1577C9.47397 50.2568 12.7685 47.6028 18.1098 46.385C18.3374 46.3331 18.6469 46.3488 19.0338 46.4388C19.4168 46.5279 19.8534 46.6844 20.3243 46.8914C21.266 47.3053 22.3172 47.9089 23.3051 48.5342C24.2914 49.1585 25.2073 49.7998 25.8771 50.2854C26.2118 50.528 26.4847 50.7315 26.6737 50.8742C26.7682 50.9456 26.8417 51.0017 26.8914 51.0399L26.9479 51.0834L26.9621 51.0944L26.9656 51.0971L26.9665 51.0978L26.9667 51.0979Z" fill="#C8C2FF" stroke="#101010" stroke-width="0.568421"/>
<path d="M16.4288 46.7652L17.163 44.0322C17.1928 43.9216 17.336 43.8903 17.4133 43.9749C19.5254 46.2861 22.1908 46.1955 23.0755 46.0895C23.1955 46.0751 23.2896 46.2065 23.2332 46.3135L21.3635 49.8594C21.3348 49.9138 21.2762 49.9436 21.216 49.9311C20.6549 49.8142 17.8591 49.1308 16.4453 46.8763C16.4246 46.8433 16.4187 46.8028 16.4288 46.7652Z" fill="white" stroke="#101010" stroke-width="0.568421"/>
<path d="M34.9849 46.7505L33.3392 43.982C33.2833 43.888 33.1457 43.8895 33.0861 43.9812C32.2709 45.2368 30.8648 45.8153 30.3731 45.9861C30.2847 46.0169 30.2442 46.122 30.2919 46.2026L32.2107 49.4447C32.2393 49.493 32.2934 49.5193 32.3475 49.5039C32.6508 49.4175 33.6918 48.9821 34.983 46.8983C35.0108 46.8535 35.0118 46.7958 34.9849 46.7505Z" fill="white" stroke="#101010" stroke-width="0.568421"/>
<path d="M24.5129 49.2398L23.234 46.1846L22.2393 48.3161L24.5129 49.2398Z" fill="#101010" stroke="#101010" stroke-width="0.568421" stroke-linejoin="round"/>
<path d="M28.989 49.0977L30.268 46.0425L31.2627 48.1741L28.989 49.0977Z" fill="#101010" stroke="#101010" stroke-width="0.568421" stroke-linejoin="round"/>
<path d="M18.9709 43.4844L17.2656 43.9107L18.6867 44.8344L18.9709 43.4844Z" fill="#101010" stroke="#101010" stroke-width="0.568421" stroke-linejoin="round"/>
<path d="M31.6888 43.4844L33.252 43.9107L32.2572 44.8344L31.6888 43.4844Z" fill="#101010" stroke="#101010" stroke-width="0.568421" stroke-linejoin="round"/>
<path d="M24.75 32.25C25.1447 34.9342 29.6447 36.1974 33.75 33.1184" stroke="#101010" stroke-width="0.631579"/>
<path d="M34.318 33.0857L34.0243 33.0046L34.318 33.0857C34.4803 32.4982 34.5376 31.8872 34.4876 31.2809C34.4617 30.9659 34.1396 30.7905 33.8667 30.8981C33.2225 31.1519 31.0913 31.9593 29.5886 32.166C27.9398 32.3928 25.4429 32.1173 24.7202 32.0276C24.4263 31.9911 24.1643 32.2437 24.215 32.5507C24.3143 33.1513 24.5188 33.7303 24.8196 34.2609C25.1551 34.8526 25.6039 35.3724 26.1402 35.7907C26.6766 36.209 27.2902 36.5175 27.9458 36.6987C28.6014 36.8799 29.2863 36.9301 29.9614 36.8466C30.6365 36.7631 31.2885 36.5474 31.8802 36.2119C32.4719 35.8764 32.9917 35.4277 33.41 34.8913C33.8283 34.3549 34.1368 33.7414 34.318 33.0857Z" fill="#171921" stroke="#171921" stroke-width="0.609375"/>
<mask id="mask2_84_2823" style="mask-type:alpha" maskUnits="userSpaceOnUse" x="24" y="31" width="11" height="6">
<path d="M34.1635 31.1075C34.2421 31.7429 34.1948 32.3875 34.0243 33.0046C33.8538 33.6216 33.5634 34.1991 33.1697 34.7039C32.7761 35.2088 32.2868 35.6311 31.7299 35.9469C31.173 36.2626 30.5593 36.4656 29.924 36.5442C29.2886 36.6228 28.644 36.5755 28.027 36.405C27.4099 36.2345 26.8325 35.9441 26.3276 35.5504C25.8228 35.1568 25.4004 34.6675 25.0846 34.1106C24.7689 33.5537 24.5659 32.94 24.4873 32.3047L34.1635 31.1075Z" fill="#171921"/>
</mask>
<g mask="url(#mask2_84_2823)">
<circle cx="30.0092" cy="37.22" r="3.27539" transform="rotate(-7.05286 30.0092 37.22)" fill="#FC909F"/>
</g>
</g>
<defs>
<clipPath id="clip0_84_2823">
<rect width="28.4211" height="45.4737" fill="white" transform="translate(12.7891 6.11035)"/>
</clipPath>
</defs>
</svg>
