<svg width="54" height="54" viewBox="0 0 54 54" fill="none" xmlns="http://www.w3.org/2000/svg">
<circle cx="27" cy="27" r="27" fill="#AD00FF"/>
<mask id="mask0_84_2846" style="mask-type:alpha" maskUnits="userSpaceOnUse" x="0" y="0" width="54" height="54">
<circle cx="27" cy="27" r="27" fill="#FFEDEF"/>
</mask>
<g mask="url(#mask0_84_2846)">
<path d="M34.8613 52.5514C32.815 49.7093 31.2139 42.7935 31.0244 40.0462L21.2902 35.854L17.2402 52.5514H34.8613Z" fill="#FC909F" stroke="#101010" stroke-width="0.568421"/>
<mask id="mask1_84_2846" style="mask-type:alpha" maskUnits="userSpaceOnUse" x="17" y="35" width="18" height="18">
<path d="M34.8613 52.5514C32.815 49.7093 31.2139 42.7935 31.0244 40.0462L21.2902 35.854L17.2402 52.5514H34.8613Z" fill="#FFEDEF"/>
</mask>
<g mask="url(#mask1_84_2846)">
<ellipse cx="30.4086" cy="35.954" rx="8.38421" ry="7.67369" fill="#101010"/>
</g>
<g clip-path="url(#clip0_84_2846)">
<path d="M34.6738 51.5147C32.6275 48.6725 31.0264 43.1778 30.8369 40.4304L21.1027 36.2383L17.0527 51.5147H34.6738Z" fill="#F9C9B6" stroke="#101010" stroke-width="0.568421"/>
<mask id="mask2_84_2846" style="mask-type:alpha" maskUnits="userSpaceOnUse" x="17" y="36" width="18" height="17">
<path d="M34.6738 52.9357C32.6275 50.0936 31.0264 43.1778 30.8369 40.4304L21.1027 36.2383L17.0527 52.9357H34.6738Z" fill="#F9C9B6"/>
</mask>
<g mask="url(#mask2_84_2846)">
<g style="mix-blend-mode:multiply">
<ellipse cx="30.4106" cy="35.954" rx="8.38421" ry="7.67369" fill="#101010"/>
</g>
</g>
<mask id="path-9-inside-1_84_2846" fill="white">
<path fillRule="evenodd" clipRule="evenodd" d="M38.9212 27.558C38.9173 27.5414 38.9133 27.5249 38.9094 27.5083C38.9054 27.4917 38.9014 27.4751 38.8973 27.4586L36.5674 17.734C36.5651 17.7243 36.5628 17.7146 36.5605 17.7048C36.5581 17.6951 36.5558 17.6853 36.5534 17.6756L36.5432 17.6328L36.543 17.6328C35.0909 11.7433 29.1542 8.12198 23.2463 9.53746C17.3384 10.9529 13.6874 16.8714 15.0619 22.7795L15.0617 22.7796L17.4762 32.8574L17.4782 32.8569C18.9849 38.6697 24.8776 42.2275 30.742 40.8224C36.6064 39.4174 40.247 33.5755 38.956 27.711L38.9577 27.7106L38.9212 27.558Z"/>
</mask>
<path fillRule="evenodd" clipRule="evenodd" d="M38.9212 27.558C38.9173 27.5414 38.9133 27.5249 38.9094 27.5083C38.9054 27.4917 38.9014 27.4751 38.8973 27.4586L36.5674 17.734C36.5651 17.7243 36.5628 17.7146 36.5605 17.7048C36.5581 17.6951 36.5558 17.6853 36.5534 17.6756L36.5432 17.6328L36.543 17.6328C35.0909 11.7433 29.1542 8.12198 23.2463 9.53746C17.3384 10.9529 13.6874 16.8714 15.0619 22.7795L15.0617 22.7796L17.4762 32.8574L17.4782 32.8569C18.9849 38.6697 24.8776 42.2275 30.742 40.8224C36.6064 39.4174 40.247 33.5755 38.956 27.711L38.9577 27.7106L38.9212 27.558Z" fill="#F9C9B6"/>
<path d="M38.9212 27.558L38.3678 27.688L38.3684 27.6904L38.9212 27.558ZM38.8973 27.4586L38.3446 27.591L38.3452 27.5935L38.8973 27.4586ZM36.5674 17.734L36.0143 17.865L36.0146 17.8665L36.5674 17.734ZM36.5605 17.7048L36.0077 17.8372L36.0077 17.8373L36.5605 17.7048ZM36.5534 17.6756L36.0006 17.8081L36.001 17.8095L36.5534 17.6756ZM36.5432 17.6328L37.0959 17.5004L36.9634 16.9472L36.4103 17.0801L36.5432 17.6328ZM36.543 17.6328L35.9911 17.7689L36.1263 18.3176L36.6758 18.1855L36.543 17.6328ZM23.2463 9.53746L23.1139 8.98469L23.2463 9.53746ZM15.0619 22.7795L15.1942 23.3323L15.7436 23.2009L15.6156 22.6507L15.0619 22.7795ZM15.0617 22.7796L14.9294 22.2268L14.3764 22.3591L14.5089 22.912L15.0617 22.7796ZM17.4762 32.8574L16.9234 32.9898L17.0559 33.5428L17.6089 33.4101L17.4762 32.8574ZM17.4782 32.8569L18.0284 32.7143L17.8884 32.1739L17.3455 32.3042L17.4782 32.8569ZM30.742 40.8224L30.6096 40.2696L30.742 40.8224ZM38.956 27.711L38.8238 27.1582L38.2808 27.288L38.4008 27.8332L38.956 27.711ZM38.9577 27.7106L39.0899 28.2634L39.643 28.1312L39.5105 27.5782L38.9577 27.7106ZM39.4745 27.428C39.4704 27.4107 39.4663 27.3933 39.4621 27.3758L38.3566 27.6407C38.3603 27.6564 38.3641 27.6722 38.3678 27.688L39.4745 27.428ZM39.4621 27.3758C39.458 27.3584 39.4538 27.341 39.4495 27.3237L38.3452 27.5935C38.349 27.6093 38.3528 27.625 38.3566 27.6407L39.4621 27.3758ZM36.0146 17.8665L38.3446 27.591L39.4501 27.3262L37.1202 17.6016L36.0146 17.8665ZM37.1206 17.6031C37.1181 17.5929 37.1157 17.5826 37.1132 17.5724L36.0077 17.8373C36.0099 17.8465 36.0121 17.8557 36.0143 17.865L37.1206 17.6031ZM37.1132 17.5724C37.1108 17.5621 37.1083 17.5519 37.1059 17.5417L36.001 17.8095C36.0033 17.8188 36.0055 17.8281 36.0077 17.8372L37.1132 17.5724ZM35.9904 17.7652L36.0006 17.8081L37.1062 17.5432L37.0959 17.5004L35.9904 17.7652ZM36.6758 18.1855L36.676 18.1855L36.4103 17.0801L36.4101 17.0802L36.6758 18.1855ZM37.0949 17.4968C35.5681 11.3041 29.3259 7.49635 23.1139 8.98469L23.3788 10.0902C28.9826 8.74761 34.6138 12.1826 35.9911 17.7689L37.0949 17.4968ZM23.1139 8.98469C16.9019 10.473 13.063 16.6961 14.5083 22.9083L15.6156 22.6507C14.3118 17.0468 17.7749 11.4329 23.3788 10.0902L23.1139 8.98469ZM15.1939 23.3324L15.1942 23.3323L14.9297 22.2267L14.9294 22.2268L15.1939 23.3324ZM18.029 32.7249L15.6144 22.6471L14.5089 22.912L16.9234 32.9898L18.029 32.7249ZM17.3455 32.3042L17.3435 32.3047L17.6089 33.4101L17.6109 33.4096L17.3455 32.3042ZM16.928 32.9995C18.5123 39.1117 24.7082 42.8526 30.8744 41.3752L30.6096 40.2696C25.0471 41.6024 19.4576 38.2277 18.0284 32.7143L16.928 32.9995ZM30.8744 41.3752C37.0407 39.8978 40.8686 33.7553 39.5111 27.5888L38.4008 27.8332C39.6254 33.3956 36.1721 38.9369 30.6096 40.2696L30.8744 41.3752ZM38.8255 27.1578L38.8238 27.1582L39.0882 28.2639L39.0899 28.2634L38.8255 27.1578ZM38.3684 27.6904L38.4049 27.843L39.5105 27.5782L39.4739 27.4256L38.3684 27.6904Z" fill="#101010" mask="url(#path-9-inside-1_84_2846)"/>
</g>
<path d="M25.5088 31.3325C25.8641 33.7483 29.9141 34.8852 33.6088 32.1141" stroke="#101010" stroke-width="0.568421"/>
<path d="M31.1191 18.7893C31.9244 18.4103 33.8191 18.0645 34.956 19.713" stroke="#101010" stroke-width="0.568421" stroke-linecap="round"/>
<path d="M20.4012 22.3856C20.6954 21.5457 21.777 19.9521 23.7495 20.2969" stroke="#101010" stroke-width="0.568421" stroke-linecap="round"/>
<path d="M25.975 6.89027L25.9859 6.89143L25.9968 6.89175C29.7866 7.00321 32.7328 8.51143 34.8177 10.352C36.8151 12.1154 38.0078 14.1709 38.3968 15.5719C37.8199 15.9012 36.8316 16.1846 35.571 16.417C34.1961 16.6705 32.5452 16.8556 30.8607 16.9875C27.4919 17.2515 24.0127 17.301 22.3876 17.2656L21.5247 17.2469L22.2077 17.7747C22.5626 18.0489 23.035 18.2398 23.5347 18.374C24.038 18.5092 24.589 18.5922 25.1166 18.6393C25.66 18.6879 26.1898 18.6993 26.6287 18.6881C25.1242 19.8479 23.2093 20.7398 21.3212 21.4008C19.1404 22.1643 17.0197 22.6116 15.6613 22.8107L15.3559 22.8554L15.4257 23.1561C15.9013 25.2065 16.7758 28.7909 17.3623 31.1948C17.6225 32.2613 17.826 33.0954 17.9129 33.4603C18.0669 34.1074 18.5521 35.0299 19.1058 35.8801C19.6164 36.6641 20.212 37.4275 20.7147 37.8974L19.6009 42.4182H15.4001C16.585 40.6116 16.8351 38.5241 16.5934 36.3101C16.3319 33.9137 15.4905 31.3358 14.6035 28.7548C14.5162 28.5007 14.4285 28.2466 14.3407 27.9925C13.533 25.6536 12.7276 23.3211 12.2912 21.0857C11.8078 18.6096 11.7863 16.2923 12.6937 14.2549C14.1629 10.9561 16.7674 9.04048 19.3726 7.98482C21.9838 6.92669 24.5764 6.74123 25.975 6.89027Z" fill="white" stroke="#101010" stroke-width="0.568421"/>
<ellipse cx="24.0695" cy="23.4526" rx="1.27895" ry="1.42105" transform="rotate(-6.77646 24.0695 23.4526)" fill="#101010"/>
<ellipse cx="33.1688" cy="22.031" rx="1.27895" ry="1.42105" transform="rotate(-6.27568 33.1688 22.031)" fill="#101010"/>
<path d="M28.6168 24.224C28.8937 26.1941 30.0963 27.6036 30.0963 27.6036C30.0963 27.6036 29.7225 28.5172 28.2757 28.4335" stroke="#101010" stroke-width="0.568421"/>
<path d="M18.5398 30.8518L18.6157 30.7701V30.6585V25.8978V25.7388L18.4802 25.6556C17.9496 25.33 17.3043 25.1518 16.6376 25.1518C15.8361 25.1518 15.0857 25.4001 14.5512 25.9043C14.0107 26.4141 13.7191 27.1594 13.7965 28.0886C13.872 28.994 14.1759 29.6604 14.6801 30.1032C14.6387 30.2452 14.6265 30.3983 14.6456 30.5594C14.701 31.0238 14.9358 31.3585 15.2986 31.5647C15.6445 31.7613 16.0871 31.8307 16.5586 31.8307C17.3372 31.8307 18.02 31.412 18.5398 30.8518Z" stroke="black" stroke-width="0.568421"/>
<path fillRule="evenodd" clipRule="evenodd" d="M19.4644 28.1333C19.4745 28.0406 19.4797 27.9466 19.4797 27.8513C19.4797 26.3994 18.1288 25.4355 16.6376 25.4355C15.1465 25.4355 13.9376 26.3592 14.0797 28.0645C14.1588 29.0134 14.4983 29.6379 15.0248 30.0138C14.9412 30.1593 14.9046 30.3302 14.9279 30.5253C15.0173 31.2758 15.658 31.546 16.5586 31.546C18.1367 31.546 19.3854 29.55 19.4644 28.1333Z" fill="#F9C9B6"/>
<path d="M17.2649 26.6441C16.6965 26.3836 15.4459 26.2462 14.9912 27.7809" stroke="#101010" stroke-width="0.568421"/>
<path d="M15.7734 26.7148C16.0813 26.9754 16.6687 27.7806 16.555 28.9175" stroke="#101010" stroke-width="0.568421"/>
<path d="M32.6208 46.9588L32.6407 46.9633L32.661 46.965C39.2157 47.5056 43.1462 50.4171 45.9988 54.4265H7.15868C9.47495 50.2569 12.7695 47.6029 18.1107 46.3851C20.3863 45.8663 23.0373 45.6075 26.1476 45.6075C27.4913 45.6075 28.5369 45.8124 29.5291 46.0829C29.8967 46.1831 30.2662 46.2954 30.6441 46.4102C31.2697 46.6004 31.9186 46.7975 32.6208 46.9588Z" fill="#77311D" stroke="#101010" stroke-width="0.568421"/>
<path d="M16.475 46.6935L17.7757 43.9087C17.8068 43.8422 17.884 43.8106 17.9532 43.8351C23.3427 45.7428 28.2457 45.6085 32.7895 44.3437C32.8466 44.3277 32.9077 44.3488 32.9428 44.3967L34.9226 47.1042C34.9771 47.1786 34.9493 47.2835 34.8635 47.3172C30.0878 49.1925 21.1264 48.8737 16.5439 46.8815C16.4712 46.8499 16.4414 46.7653 16.475 46.6935Z" fill="white" stroke="#101010" stroke-width="0.568421"/>
</g>
<defs>
<clipPath id="clip0_84_2846">
<rect width="28.4211" height="45.4737" fill="white" transform="translate(12.79 6.11133)"/>
</clipPath>
</defs>
</svg>
