<svg width="21" height="20" viewBox="0 0 21 20" fill="none" xmlns="http://www.w3.org/2000/svg">
<path d="M18.5 10.1786C18.5 9.52076 18.4455 9.04075 18.3277 8.54297H10.6631V11.5119H15.162C15.0714 12.2497 14.5815 13.3609 13.4931 14.1075L13.4778 14.2069L15.9012 16.0467L16.0691 16.0632C17.6111 14.6675 18.5 12.6142 18.5 10.1786Z" fill="#4285F4"/>
<path d="M10.6623 18.0003C12.8664 18.0003 14.7168 17.2891 16.0683 16.0624L13.4923 14.1068C12.8029 14.5779 11.8777 14.9068 10.6623 14.9068C8.50356 14.9068 6.67133 13.5112 6.0182 11.5823L5.92246 11.5902L3.40258 13.5014L3.36963 13.5912C4.71205 16.2046 7.46948 18.0003 10.6623 18.0003Z" fill="#34A853"/>
<path d="M6.01932 11.5828C5.84699 11.085 5.74725 10.5516 5.74725 10.0005C5.74725 9.44935 5.84699 8.91602 6.01026 8.41824L6.00569 8.31223L3.45423 6.37036L3.37075 6.40927C2.81747 7.49376 2.5 8.71159 2.5 10.0005C2.5 11.2894 2.81747 12.5072 3.37075 13.5917L6.01932 11.5828Z" fill="#FBBC05"/>
<path d="M10.6624 5.09339C12.1953 5.09339 13.2293 5.74229 13.8189 6.28456L16.1228 4.08005C14.7078 2.79113 12.8665 2 10.6624 2C7.4695 2 4.71205 3.79559 3.36963 6.40896L6.00915 8.41793C6.67135 6.489 8.50359 5.09339 10.6624 5.09339Z" fill="#EB4335"/>
</svg>
