<svg width="54" height="55" viewBox="0 0 54 55" fill="none" xmlns="http://www.w3.org/2000/svg">
<ellipse cx="27" cy="27.0002" rx="27" ry="26.7453" fill="#FFB803"/>
<mask id="mask0_3772_294535" style="mask-type:alpha" maskUnits="userSpaceOnUse" x="0" y="0" width="54" height="55">
<circle cx="27" cy="27.2559" r="27" fill="#FFEDEF"/>
</mask>
<g mask="url(#mask0_3772_294535)">
<path d="M30.0577 32.7802C28.2231 30.2322 26.7877 24.032 26.6179 21.5689L17.8909 17.8105L14.26 32.7802H30.0577Z" fill="#FC909F" stroke="black" stroke-width="0.509603"/>
<mask id="mask1_3772_294535" style="mask-type:alpha" maskUnits="userSpaceOnUse" x="14" y="17" width="17" height="16">
<path d="M30.0577 32.7802C28.2231 30.2322 26.7877 24.032 26.6179 21.5689L17.8909 17.8105L14.26 32.7802H30.0577Z" fill="#FFEDEF"/>
</mask>
<g mask="url(#mask1_3772_294535)">
<ellipse cx="26.1346" cy="17.072" rx="7.51664" ry="6.87964" fill="black"/>
</g>
<g clip-path="url(#clip0_3772_294535)">
<path d="M37.1702 49.2669C35.3357 46.7189 33.9003 41.7927 33.7304 39.3297L25.0035 35.5713L21.3726 49.2669H37.1702Z" fill="#AC6651" stroke="black" stroke-width="0.509603"/>
<mask id="mask2_3772_294535" style="mask-type:alpha" maskUnits="userSpaceOnUse" x="21" y="35" width="17" height="16">
<path d="M37.1702 50.5409C35.3357 47.9929 33.9003 41.7927 33.7304 39.3297L25.0035 35.5713L21.3726 50.5409H37.1702Z" fill="#AC6651"/>
</mask>
<g mask="url(#mask2_3772_294535)">
<g style="mix-blend-mode:multiply">
<ellipse cx="33.3482" cy="35.3162" rx="7.51664" ry="6.87964" fill="black"/>
</g>
</g>
<mask id="path-9-inside-1_3772_294535" fill="white">
<path fill-rule="evenodd" clip-rule="evenodd" d="M40.9762 27.7836C40.9732 27.7709 40.9702 27.7582 40.9672 27.7455C40.9641 27.7328 40.9611 27.7202 40.958 27.7075L38.8675 18.9822C38.8654 18.9736 38.8634 18.965 38.8613 18.9564C38.8593 18.9478 38.8572 18.9392 38.8551 18.9306L38.8458 18.8918L38.8456 18.8919C37.5438 13.6118 32.2215 10.3651 26.9249 11.6342C21.6283 12.9032 18.3551 18.2092 19.5874 23.506L19.5872 23.506L21.7519 32.541L21.7536 32.5406C23.1044 37.7519 28.3874 40.9416 33.6449 39.682C38.9025 38.4223 42.1664 33.1848 41.0089 27.9272L41.0105 27.9268L40.9762 27.7836Z"/>
</mask>
<path fill-rule="evenodd" clip-rule="evenodd" d="M40.9762 27.7836C40.9732 27.7709 40.9702 27.7582 40.9672 27.7455C40.9641 27.7328 40.9611 27.7202 40.958 27.7075L38.8675 18.9822C38.8654 18.9736 38.8634 18.965 38.8613 18.9564C38.8593 18.9478 38.8572 18.9392 38.8551 18.9306L38.8458 18.8918L38.8456 18.8919C37.5438 13.6118 32.2215 10.3651 26.9249 11.6342C21.6283 12.9032 18.3551 18.2092 19.5874 23.506L19.5872 23.506L21.7519 32.541L21.7536 32.5406C23.1044 37.7519 28.3874 40.9416 33.6449 39.682C38.9025 38.4223 42.1664 33.1848 41.0089 27.9272L41.0105 27.9268L40.9762 27.7836Z" fill="#AC6651"/>
<path d="M40.9762 27.7836L40.4802 27.9004L40.4806 27.9024L40.9762 27.7836ZM40.958 27.7075L40.4624 27.8262L40.4629 27.8282L40.958 27.7075ZM38.8675 18.9822L38.3716 19.0997L38.3719 19.101L38.8675 18.9822ZM38.8551 18.9306L38.3595 19.0493L38.3598 19.0506L38.8551 18.9306ZM38.8458 18.8918L39.3414 18.7731L39.2227 18.2777L38.7272 18.3962L38.8458 18.8918ZM38.8456 18.8919L38.3509 19.0138L38.472 19.5052L38.9642 19.3875L38.8456 18.8919ZM26.9249 11.6342L27.0436 12.1297L26.9249 11.6342ZM19.5874 23.506L19.7061 24.0015L20.1985 23.8836L20.0838 23.3905L19.5874 23.506ZM19.5872 23.506L19.4684 23.0104L18.9728 23.1292L19.0916 23.6248L19.5872 23.506ZM21.7519 32.541L21.2563 32.6597L21.375 33.1553L21.8706 33.0366L21.7519 32.541ZM21.7536 32.5406L22.2469 32.4127L22.1214 31.9285L21.6349 32.045L21.7536 32.5406ZM33.6449 39.682L33.7637 40.1775L33.6449 39.682ZM41.0089 27.9272L40.8901 27.4316L40.4037 27.5483L40.5112 28.0368L41.0089 27.9272ZM41.0105 27.9268L41.1294 28.4223L41.6248 28.3035L41.5061 27.8081L41.0105 27.9268ZM41.4722 27.6668C41.4691 27.6535 41.4659 27.6401 41.4628 27.6268L40.4716 27.8642C40.4745 27.8763 40.4773 27.8884 40.4802 27.9004L41.4722 27.6668ZM41.4628 27.6268C41.4595 27.6135 41.4563 27.6001 41.4531 27.5868L40.4629 27.8282C40.4658 27.8402 40.4687 27.8522 40.4716 27.8642L41.4628 27.6268ZM38.3719 19.101L40.4624 27.8262L41.4535 27.5888L39.3631 18.8635L38.3719 19.101ZM39.3634 18.8648C39.3612 18.8558 39.3591 18.8467 39.3569 18.8376L38.3658 19.0752C38.3677 19.0833 38.3697 19.0915 38.3716 19.0997L39.3634 18.8648ZM39.3569 18.8376C39.3547 18.8287 39.3526 18.8196 39.3504 18.8105L38.3598 19.0506C38.3618 19.0587 38.3638 19.0669 38.3658 19.0752L39.3569 18.8376ZM38.3502 19.0106L38.3595 19.0493L39.3507 18.8118L39.3414 18.7731L38.3502 19.0106ZM38.9642 19.3875L38.9644 19.3874L38.7272 18.3962L38.7271 18.3962L38.9642 19.3875ZM39.3404 18.7699C37.9716 13.218 32.3754 9.80426 26.8062 11.1386L27.0436 12.1297C32.0676 10.926 37.1161 14.0056 38.3509 19.0138L39.3404 18.7699ZM26.8062 11.1386C21.237 12.4729 17.7953 18.052 19.0911 23.6214L20.0838 23.3905C18.9149 18.3664 22.0197 13.3334 27.0436 12.1297L26.8062 11.1386ZM19.7059 24.0016L19.7061 24.0015L19.4687 23.0104L19.4684 23.0104L19.7059 24.0016ZM22.2474 32.4223L20.0827 23.3873L19.0916 23.6248L21.2563 32.6597L22.2474 32.4223ZM21.6349 32.045L21.6331 32.0454L21.8706 33.0366L21.8723 33.0362L21.6349 32.045ZM21.2603 32.6684C22.6806 38.1482 28.2355 41.5021 33.7637 40.1775L33.5262 39.1864C28.5393 40.3812 23.5281 37.3557 22.2469 32.4127L21.2603 32.6684ZM33.7637 40.1775C39.2919 38.853 42.7237 33.346 41.5066 27.8176L40.5112 28.0368C41.6091 33.0236 38.5132 37.9916 33.5262 39.1864L33.7637 40.1775ZM40.8917 27.4313L40.8901 27.4316L41.1278 28.4227L41.1294 28.4223L40.8917 27.4313ZM40.4806 27.9024L40.5149 28.0455L41.5061 27.8081L41.4718 27.6649L40.4806 27.9024Z" fill="black" mask="url(#path-9-inside-1_3772_294535)"/>
</g>
<path d="M30.3536 33.2716C31.0223 34.1443 32.0357 35.1111 33.599 34.8906C35.1623 34.6701 35.8579 33.5917 35.6528 32.7184" stroke="black" stroke-width="0.541453"/>
<path d="M31.0884 14.1353C32.9569 14.0503 36.2354 13.0141 34.4008 9.54883" stroke="black" stroke-width="0.509603"/>
<path d="M27.7759 13.8804C29.6444 13.7954 32.9229 12.7592 31.0883 9.29395" stroke="black" stroke-width="0.509603"/>
<path d="M23.1895 15.2817C25.058 15.1968 28.3364 14.1606 26.5019 10.6953" stroke="black" stroke-width="0.509603"/>
<path d="M34.6755 21.0008C35.3975 20.6611 37.0961 20.3511 38.1154 21.829" stroke="#FC909F" stroke-width="0.509603" stroke-linecap="round"/>
<path d="M25.0667 24.2251C25.3305 23.4721 26.3002 22.0434 28.0686 22.3525" stroke="#FC909F" stroke-width="0.509603" stroke-linecap="round"/>
<path d="M25.3846 23.4531L24.6013 22.7617" stroke="#FC909F" stroke-width="0.509603" stroke-linecap="round"/>
<path d="M37.7282 21.121L38.5115 20.4297" stroke="#FC909F" stroke-width="0.509603" stroke-linecap="round"/>
<path d="M26.2062 22.7339L25.6907 21.8252" stroke="#FC909F" stroke-width="0.509603" stroke-linecap="round"/>
<path d="M36.7791 20.6567L37.2947 19.748" stroke="#FC909F" stroke-width="0.509603" stroke-linecap="round"/>
<path d="M27.2352 22.273L26.9548 21.2666" stroke="#FC909F" stroke-width="0.509603" stroke-linecap="round"/>
<path d="M35.6227 20.5787L35.9031 19.5723" stroke="#FC909F" stroke-width="0.509603" stroke-linecap="round"/>
<path d="M30.0914 25.3906C30.3281 26.2011 29.4496 25.5788 28.6391 25.8155C27.8286 26.0522 27.3931 27.0583 27.1564 26.2478C26.9197 25.4373 27.3848 24.5884 28.1953 24.3517C29.0058 24.115 29.8547 24.5802 30.0914 25.3906Z" fill="#6BD9E9"/>
<path d="M38.2184 24.2196C38.4267 25.0378 37.6204 24.4132 36.8022 24.6215C35.984 24.8298 35.4635 25.792 35.2553 24.9738C35.047 24.1555 35.5415 23.3234 36.3597 23.1151C37.178 22.9068 38.0101 23.4013 38.2184 24.2196Z" fill="#6BD9E9"/>
<path fill-rule="evenodd" clip-rule="evenodd" d="M27.3923 26.6296C27.4069 26.7331 27.5385 26.7562 27.6117 26.6815C27.9257 26.361 28.4086 26.1255 28.9691 26.0589C29.2996 26.0196 29.6177 26.0438 29.9011 26.1191C29.9971 26.1446 30.0915 26.0635 30.058 25.9699C29.8458 25.3781 29.247 24.9891 28.5961 25.0664C27.8392 25.1564 27.2985 25.8429 27.3884 26.5998C27.3896 26.6097 27.3909 26.6197 27.3923 26.6296Z" fill="black"/>
<path fill-rule="evenodd" clip-rule="evenodd" d="M35.5586 25.3546C35.5729 25.4582 35.7046 25.4814 35.7779 25.4068C36.0891 25.0901 36.5667 24.8575 37.121 24.7916C37.4477 24.7528 37.762 24.7765 38.0423 24.8507C38.1383 24.8761 38.2327 24.795 38.1991 24.7015C37.9882 24.1163 37.3956 23.732 36.7515 23.8085C36.0016 23.8976 35.466 24.5777 35.5551 25.3276C35.5562 25.3366 35.5573 25.3457 35.5586 25.3546Z" fill="black"/>
<path d="M33.9502 27.5742C33.9761 28.0637 34.1665 29.1134 34.7208 29.3957C35.4136 29.7486 34.8705 30.9185 33.5734 30.8435" stroke="black" stroke-width="0.509603"/>
<path d="M36.8089 50.0459C36.7463 50.042 36.6942 50.0382 36.6531 50.0349C35.8668 48.8349 35.1505 46.855 34.5955 44.8213C34.0558 42.8439 33.677 40.8469 33.5346 39.5281C38.2728 38.1586 41.2428 33.2684 40.5288 28.2229C40.5279 28.2137 40.5269 28.2073 40.5269 28.2071C40.5258 28.1995 40.5244 28.1908 40.5229 28.1818C40.5199 28.1635 40.5156 28.139 40.5102 28.1092C40.4994 28.0495 40.4834 27.9652 40.4626 27.8596C40.4211 27.6483 40.3602 27.3499 40.2822 26.9887C40.1263 26.2664 39.902 25.2911 39.6283 24.2565C39.3548 23.2227 39.031 22.126 38.6758 21.1624C38.3231 20.2058 37.9305 19.3549 37.5118 18.8315L37.474 18.7843L37.4185 18.7603C37.1715 18.6531 36.9151 18.5337 36.6475 18.4091C35.3782 17.8181 33.8562 17.1095 31.8852 17.0316C29.4858 16.9367 26.4472 17.7697 22.3395 20.7488L22.0818 20.9357L22.3297 21.1354C24.3655 22.7759 24.8056 24.9519 24.7115 26.799C24.6397 28.2097 24.2572 29.4097 24.0418 30.0086C23.8928 29.7915 23.798 29.5183 23.7268 29.1975C23.6776 28.9762 23.6418 28.743 23.6043 28.4987L23.5983 28.4601C23.5591 28.2052 23.5173 27.9394 23.4564 27.6826C23.3348 27.1701 23.1292 26.6579 22.673 26.2952C22.2157 25.9317 21.5492 25.7516 20.5783 25.8058L20.2946 25.8216L20.3538 26.0996L21.8055 32.9134L21.8079 32.9248L21.8115 32.9359C22.3301 34.5797 23.2194 36.0045 24.3564 37.1293C24.3661 37.1455 24.3802 37.1694 24.3982 37.2002C24.4352 37.2634 24.4885 37.356 24.5529 37.4723C24.682 37.7051 24.8556 38.032 25.0336 38.4083C25.3933 39.1686 25.7571 40.1022 25.8272 40.8645C25.8983 41.6382 25.7038 42.6362 25.4812 43.4607C25.3709 43.8687 25.256 44.2267 25.1686 44.4825C25.1503 44.5361 25.1332 44.5852 25.1177 44.6293C24.4744 44.3216 23.8999 44.3444 23.4077 44.6309C22.8758 44.9405 22.4861 45.5329 22.196 46.1918C21.6657 47.3962 21.4107 48.9582 21.2931 49.9272C18.1141 49.198 15.6594 48.4578 13.9893 47.8954C13.1312 47.6064 12.4802 47.3644 12.0445 47.195C11.8267 47.1103 11.6627 47.0437 11.5535 46.9985C11.5263 46.9872 11.5025 46.9773 11.4821 46.9687C11.4625 46.9187 11.4356 46.8483 11.4029 46.759C11.3305 46.5607 11.2296 46.2688 11.1174 45.8975C10.8928 45.1547 10.623 44.0955 10.4432 42.8329C10.0831 40.3052 10.0857 36.9783 11.5163 33.7431C11.7476 33.2201 12.0366 32.6829 12.3498 32.1006C13.5598 29.8509 15.1313 26.9292 15.1313 21.5633C15.1313 17.6533 17.0292 14.3605 19.8231 12.0392C22.6196 9.71582 26.3029 8.37626 29.8405 8.37626C31.7744 8.37627 33.3293 8.59782 34.5792 9.35285C35.8213 10.1032 36.7993 11.4041 37.5256 13.6452C37.5994 13.8729 37.8432 14.012 38.0815 13.9347C39.5281 13.4654 41.7211 13.9392 43.5721 15.1476C45.4149 16.3507 46.8463 18.2351 46.8463 20.5064C46.8463 22.4781 46.5087 23.8104 46.1794 25.1077C45.7809 26.6784 45.3959 28.1954 45.6675 30.6668C45.7581 31.491 45.9423 32.0755 46.1997 32.56C46.4531 33.0368 46.7724 33.4059 47.109 33.795L47.1166 33.8039C47.9185 34.7309 48.2835 35.4935 48.4013 36.1644C48.5189 36.8337 48.3958 37.4407 48.167 38.0703C48.052 38.3868 47.9122 38.7043 47.764 39.039L47.7512 39.0679C47.6079 39.3916 47.4578 39.7305 47.323 40.087C47.0441 40.8246 46.8264 41.6471 46.848 42.6219C46.8664 43.4493 47.0131 44.0164 47.2324 44.4454C47.4493 44.8696 47.7293 45.1409 47.9736 45.3775L47.9801 45.3839C48.2029 45.5998 48.3883 45.7816 48.5255 46.0364C48.6482 46.2642 48.7391 46.5649 48.7543 47.0164C45.6855 48.8416 42.6482 49.596 40.3674 49.8927C39.2124 50.043 38.2528 50.0757 37.5832 50.071C37.2485 50.0686 36.9864 50.0569 36.8089 50.0459Z" fill="white" stroke="black" stroke-width="0.486905"/>
<path d="M21.9836 26.4437C21.6867 26.346 21.3663 26.2939 21.0383 26.2939C19.7014 26.2939 18.6177 27.122 18.7451 28.6509C18.8778 30.2434 19.8288 30.8167 21.1657 30.8167C21.3144 30.8167 21.46 30.8036 21.6014 30.7786C21.7556 30.7513 21.9047 30.7098 22.0473 30.6555" stroke="black" stroke-width="1.01921"/>
<path d="M22.111 30.6302C21.8206 30.7502 21.5011 30.8167 21.1657 30.8167C19.8288 30.8167 18.8778 30.2434 18.7451 28.6509C18.6177 27.122 19.7014 26.2939 21.0383 26.2939C21.438 26.2939 21.8265 26.3712 22.1747 26.5143L22.111 30.6302Z" fill="#AC6651"/>
<path d="M21.6014 27.3768C21.0918 27.1433 19.9707 27.0201 19.563 28.396" stroke="black" stroke-width="0.509603"/>
<path d="M20.2637 27.4404C20.5397 27.674 21.0663 28.3959 20.9644 29.4151" stroke="black" stroke-width="0.509603"/>
<path d="M21.5376 30.1162C23.2263 30.1162 24.5952 31.4852 24.5952 33.1738C24.5952 34.8625 23.2263 36.2314 21.5376 36.2314C19.8489 36.2314 18.48 34.8625 18.48 33.1738C18.48 32.3596 18.9259 31.7087 19.3172 31.0717L19.4355 30.8806" stroke="#F4D150" stroke-width="0.509603"/>
<path d="M47.7273 58.0095H12.7073C12.7285 57.9537 12.7506 57.8958 12.7733 57.836C13.3544 56.309 14.43 53.4829 15.8298 50.9545C16.6247 49.5188 17.5151 48.1962 18.4663 47.2663C19.4213 46.3328 20.396 45.8342 21.3698 45.9442C22.4048 46.061 23.3905 46.5158 24.3597 47.136C25.1589 47.6473 25.9304 48.2596 26.7024 48.8723C26.8691 49.0046 27.0358 49.1369 27.2029 49.2683C28.1346 50.0009 29.0762 50.7026 30.0408 51.1474C31.0118 51.5952 32.0257 51.7919 33.0922 51.4903C33.8168 51.2853 34.2884 50.8506 34.5772 50.318C34.8613 49.7942 34.9638 49.1861 34.9816 48.625C34.9995 48.0615 34.9325 47.5261 34.8621 47.1341C34.8268 46.9374 34.7903 46.7751 34.7625 46.6613C34.7581 46.6433 34.7539 46.6265 34.75 46.6109C35.2307 45.9709 35.7345 45.61 36.2431 45.4516C36.7775 45.2851 37.3507 45.3317 37.9613 45.5647C39.1979 46.0366 40.5294 47.251 41.8334 48.8212C44.2625 51.7461 46.4873 55.7679 47.7102 57.9787C47.716 57.989 47.7216 57.9993 47.7273 58.0095Z" fill="#FFA0A0" stroke="black" stroke-width="0.544549"/>
<path d="M25.4568 54.6846C23.9164 52.5451 22.7111 47.3391 22.5685 45.271L15.2409 42.1152L12.1921 54.6846H25.4568Z" fill="#FC909F" stroke="black" stroke-width="0.427892"/>
<mask id="mask3_3772_294535" style="mask-type:alpha" maskUnits="userSpaceOnUse" x="12" y="42" width="14" height="13">
<path d="M25.4568 54.6846C23.9164 52.5451 22.7111 47.3391 22.5685 45.271L15.2409 42.1152L12.1921 54.6846H25.4568Z" fill="#FFEDEF"/>
</mask>
<g mask="url(#mask3_3772_294535)">
<ellipse cx="21.88" cy="42.2131" rx="6.31141" ry="5.77654" fill="black"/>
</g>
<g clip-path="url(#clip1_3772_294535)">
<path d="M24.3052 52.2168C22.7648 50.0774 21.5595 44.8713 21.4169 42.8032L14.0893 39.6475L11.0405 52.2168H24.3052Z" fill="#F9C9B6" stroke="black" stroke-width="0.427892"/>
<mask id="mask4_3772_294535" style="mask-type:alpha" maskUnits="userSpaceOnUse" x="11" y="39" width="14" height="14">
<path d="M24.3052 52.2168C22.7648 50.0774 21.5595 44.8713 21.4169 42.8032L14.0893 39.6475L11.0405 52.2168H24.3052Z" fill="#AC6651"/>
</mask>
<g mask="url(#mask4_3772_294535)">
<ellipse cx="21.0961" cy="39.4338" rx="6.31141" ry="5.77654" fill="black"/>
</g>
<mask id="path-41-inside-2_3772_294535" fill="white">
<path fill-rule="evenodd" clip-rule="evenodd" d="M27.5011 33.1068C27.4986 33.0963 27.4961 33.0857 27.4936 33.0752C27.491 33.0646 27.4885 33.0541 27.4859 33.0436L25.7305 25.7167C25.7288 25.7096 25.7271 25.7024 25.7254 25.6953C25.7237 25.6882 25.722 25.6811 25.7202 25.6739L25.7124 25.6411L25.7122 25.6411C24.6192 21.2077 20.1502 18.4816 15.7029 19.5471C11.2555 20.6127 8.50716 25.0679 9.54189 29.5154L9.54168 29.5154L11.4919 37.655L11.5223 37.6478C12.8704 41.6972 17.1177 44.1106 21.3454 43.0977C25.5731 42.0848 28.2655 38.0086 27.6322 33.7879L27.6625 33.7807L27.5011 33.1068Z"/>
</mask>
<path fill-rule="evenodd" clip-rule="evenodd" d="M27.5011 33.1068C27.4986 33.0963 27.4961 33.0857 27.4936 33.0752C27.491 33.0646 27.4885 33.0541 27.4859 33.0436L25.7305 25.7167C25.7288 25.7096 25.7271 25.7024 25.7254 25.6953C25.7237 25.6882 25.722 25.6811 25.7202 25.6739L25.7124 25.6411L25.7122 25.6411C24.6192 21.2077 20.1502 18.4816 15.7029 19.5471C11.2555 20.6127 8.50716 25.0679 9.54189 29.5154L9.54168 29.5154L11.4919 37.655L11.5223 37.6478C12.8704 41.6972 17.1177 44.1106 21.3454 43.0977C25.5731 42.0848 28.2655 38.0086 27.6322 33.7879L27.6625 33.7807L27.5011 33.1068Z" fill="#F9C9B6"/>
<path d="M27.5011 33.1068L27.0846 33.2049L27.085 33.2065L27.5011 33.1068ZM27.4936 33.0752L27.9097 32.9755L27.9097 32.9755L27.4936 33.0752ZM27.4859 33.0436L27.0698 33.1432L27.0702 33.1449L27.4859 33.0436ZM25.7305 25.7167L25.3141 25.8153L25.3144 25.8164L25.7305 25.7167ZM25.7254 25.6953L26.1415 25.5956L26.1415 25.5956L25.7254 25.6953ZM25.7202 25.6739L25.3041 25.7736L25.3044 25.7747L25.7202 25.6739ZM25.7124 25.6411L26.1285 25.5414L26.0287 25.1249L25.6123 25.2251L25.7124 25.6411ZM25.7122 25.6411L25.2968 25.7435L25.3986 26.1566L25.8123 26.0571L25.7122 25.6411ZM15.7029 19.5471L15.8026 19.9633L15.7029 19.5471ZM9.54189 29.5154L9.64145 29.9315L10.055 29.8326L9.95865 29.4184L9.54189 29.5154ZM9.54168 29.5154L9.44212 29.0993L9.02584 29.1989L9.12557 29.6151L9.54168 29.5154ZM11.4919 37.655L11.0757 37.7547L11.1754 38.1708L11.5915 38.0712L11.4919 37.655ZM11.5223 37.6478L11.9283 37.5126L11.8043 37.1402L11.4226 37.2316L11.5223 37.6478ZM21.3454 43.0977L21.2457 42.6816H21.2457L21.3454 43.0977ZM27.6322 33.7879L27.5326 33.3718L27.1509 33.4633L27.2091 33.8514L27.6322 33.7879ZM27.6625 33.7807L27.7622 34.1968L28.1784 34.0971L28.0787 33.681L27.6625 33.7807ZM27.9176 33.0088C27.915 32.9977 27.9123 32.9865 27.9097 32.9755L27.0775 33.1749C27.0799 33.1849 27.0822 33.1949 27.0846 33.2049L27.9176 33.0088ZM27.9097 32.9755C27.907 32.9644 27.9044 32.9533 27.9017 32.9422L27.0702 33.1449C27.0726 33.1548 27.0751 33.1648 27.0775 33.1749L27.9097 32.9755ZM25.3144 25.8164L27.0698 33.1432L27.902 32.9439L26.1466 25.617L25.3144 25.8164ZM26.1468 25.6181C26.1451 25.6106 26.1433 25.6031 26.1415 25.5956L25.3093 25.795C25.3109 25.8017 25.3125 25.8085 25.3141 25.8153L26.1468 25.6181ZM26.1415 25.5956C26.1397 25.5881 26.1379 25.5806 26.1361 25.5732L25.3044 25.7747C25.306 25.7815 25.3076 25.7882 25.3093 25.795L26.1415 25.5956ZM25.2962 25.7408L25.3041 25.7736L26.1363 25.5742L26.1285 25.5414L25.2962 25.7408ZM25.8123 26.0571L25.8124 26.0571L25.6123 25.2251L25.6122 25.2251L25.8123 26.0571ZM26.1277 25.5387C24.9783 20.877 20.2794 18.0106 15.6032 19.131L15.8026 19.9633C20.021 18.9526 24.26 21.5383 25.2968 25.7435L26.1277 25.5387ZM15.6032 19.131C10.927 20.2514 8.03713 24.936 9.12513 29.6123L9.95865 29.4184C8.97719 25.1999 11.5841 20.9739 15.8026 19.9633L15.6032 19.131ZM9.64125 29.9316L9.64145 29.9315L9.44233 29.0992L9.44212 29.0993L9.64125 29.9316ZM11.908 37.5553L9.9578 29.4157L9.12557 29.6151L11.0757 37.7547L11.908 37.5553ZM11.4226 37.2316L11.3922 37.2389L11.5915 38.0712L11.622 38.0639L11.4226 37.2316ZM11.1163 37.7829C12.534 42.0412 16.9996 44.5789 21.4451 43.5138L21.2457 42.6816C17.2358 43.6423 13.2069 41.3532 11.9283 37.5126L11.1163 37.7829ZM21.4451 43.5138C25.8906 42.4487 28.7214 38.1628 28.0554 33.7244L27.2091 33.8514C27.8097 37.8545 25.2556 41.7208 21.2457 42.6816L21.4451 43.5138ZM27.5628 33.3646L27.5326 33.3718L27.7319 34.2041L27.7622 34.1968L27.5628 33.3646ZM27.085 33.2065L27.2464 33.8804L28.0787 33.681L27.9172 33.0071L27.085 33.2065Z" fill="black" mask="url(#path-41-inside-2_3772_294535)"/>
</g>
<path d="M17.9463 37.8838C18.2153 39.7131 21.282 40.5739 24.0798 38.4756" stroke="#101010" stroke-width="0.430419"/>
<path d="M25.2298 21.2432C24.3751 25.3406 14.2739 25.916 12.2382 25.916C6.89545 26.5247 9.45988 32.9372 10.4409 36.1347C9.67067 36.2374 9.77337 37.1617 6.79506 29.8186C4.41242 23.9442 11.1604 20.3638 16.1738 19.1484C21.1872 17.933 23.1061 16.2217 23.1061 16.2217C25.2298 17.0944 25.737 18.8114 25.2298 21.2432Z" fill="#402805"/>
<path d="M25.4687 28.0397L23.8441 22.5514L24.875 21.6125C25.9796 25.4214 26.0301 27.6332 25.4687 28.0397Z" fill="#402805"/>
<path d="M12.3368 33.8607C11.7431 30.799 10.2519 31.3468 9.2625 31.4969L8.20239 26.5443L12.5048 25.5882C12.5845 25.5611 12.6698 25.542 12.7609 25.5312L12.5048 25.5882C10.5806 26.2403 11.9082 31.4739 13.5029 33.6355L12.3368 33.8607Z" fill="#402805"/>
<path d="M6.56559 22.921C7.47401 22.4636 8.54686 22.7284 8.96974 22.9179L7.76087 24.4461C8.07259 23.9474 7.0939 23.2216 6.56559 22.921Z" fill="#402805"/>
<path d="M5.02612 24.6802C6.21745 23.9819 7.37111 24.2181 7.79903 24.4235L7.33688 26.0154C7.21364 25.1527 5.74503 24.7658 5.02612 24.6802Z" fill="#402805"/>
<path d="M14.5968 31.6211L11.2742 32.2591" stroke="black" stroke-width="0.385229" stroke-linecap="round"/>
<path d="M14.2101 30.0258C14.1263 29.6926 14.3499 29.3604 14.6901 29.3126L18.4188 28.7886C18.7348 28.7442 19.027 28.9644 19.0714 29.2804L19.6075 33.0952C19.652 33.4112 19.4318 33.7034 19.1157 33.7478L15.7958 34.2144C15.5034 34.2555 15.227 34.0695 15.155 33.7831L14.2101 30.0258Z" stroke="black" stroke-width="0.385229"/>
<path d="M25.9846 28.3916C25.9733 28.0483 25.6668 27.7906 25.3267 27.8384L21.598 28.3624C21.2819 28.4068 21.0618 28.699 21.1062 29.0151L21.6423 32.8299C21.6867 33.1459 21.9789 33.3661 22.295 33.3217L25.6149 32.8551C25.9073 32.814 26.1217 32.559 26.112 32.2638L25.9846 28.3916Z" stroke="black" stroke-width="0.385229"/>
<path d="M19.3154 31.1037L21.4342 30.7666" stroke="black" stroke-width="0.385229"/>
<ellipse cx="17.2778" cy="32.0717" rx="0.962757" ry="1.06973" transform="rotate(-6.77646 17.2778 32.0717)" fill="black"/>
<ellipse cx="24.1274" cy="31.002" rx="0.962757" ry="1.06973" transform="rotate(-6.27568 24.1274 31.002)" fill="black"/>
<path d="M21.1196 32.7918C21.1419 33.2027 21.3029 34.084 21.7688 34.3215C22.3511 34.6184 21.8961 35.5998 20.8066 35.5355" stroke="black" stroke-width="0.427892"/>
<path d="M11.8887 33.4021C11.6395 33.32 11.3704 33.2764 11.095 33.2764C9.97245 33.2764 9.06248 33.9717 9.16945 35.2554C9.28087 36.5925 10.0794 37.0739 11.2019 37.0739C11.3268 37.0739 11.4491 37.0629 11.5678 37.0419C11.6973 37.019 11.8225 36.9842 11.9422 36.9386" stroke="black" stroke-width="0.855784"/>
<path d="M11.9957 36.9173C11.7518 37.0181 11.4836 37.0739 11.2019 37.0739C10.0794 37.0739 9.28087 36.5925 9.16945 35.2554C9.06248 33.9717 9.97245 33.2764 11.095 33.2764C11.4306 33.2764 11.7568 33.3412 12.0492 33.4614L11.9957 36.9173Z" fill="#F9C9B6"/>
<path d="M11.5678 34.1855C11.1399 33.9894 10.1985 33.886 9.8562 35.0413" stroke="black" stroke-width="0.427892"/>
<path d="M10.4446 34.2393C10.6764 34.4354 11.1185 35.0416 11.0329 35.8973" stroke="black" stroke-width="0.427892"/>
<path d="M22.6811 48.3796L22.6961 48.3831L22.7114 48.3843C27.6455 48.7913 30.6043 50.9829 32.7516 54.0011H3.51389C5.25751 50.8624 7.73754 48.8645 11.7583 47.9478C13.4713 47.5572 15.4669 47.3624 17.8082 47.3624C18.8197 47.3624 19.6068 47.5167 20.3538 47.7203C20.6304 47.7957 20.9086 47.8802 21.1931 47.9667C21.664 48.1098 22.1525 48.2582 22.6811 48.3796Z" fill="#338144" stroke="black" stroke-width="0.427892"/>
<path d="M10.5265 48.18L11.5056 46.0837C11.529 46.0337 11.5872 46.0098 11.6393 46.0283C15.6964 47.4644 19.3872 47.3633 22.8076 46.4111C22.8507 46.3991 22.8967 46.415 22.923 46.4511L24.4134 48.4892C24.4544 48.5452 24.4335 48.6242 24.3689 48.6496C20.7738 50.0612 14.028 49.8213 10.5784 48.3216C10.5236 48.2978 10.5013 48.2341 10.5265 48.18Z" fill="#FBFBFF" stroke="black" stroke-width="0.427892"/>
</g>
<defs>
<clipPath id="clip0_3772_294535">
<rect width="25.5615" height="40.8985" fill="white" transform="translate(17.5505 8.56348)"/>
</clipPath>
<clipPath id="clip1_3772_294535">
<rect width="21.3038" height="35.1512" fill="white" transform="translate(7.8313 16.9678)"/>
</clipPath>
</defs>
</svg>
