<svg width="54" height="54" viewBox="0 0 54 54" fill="none" xmlns="http://www.w3.org/2000/svg">
<circle cx="27" cy="27" r="27" fill="#FFB803"/>
<mask id="mask0_866_9265" style="mask-type:alpha" maskUnits="userSpaceOnUse" x="0" y="0" width="54" height="54">
<circle cx="27" cy="27" r="27" fill="#FFEDEF"/>
</mask>
<g mask="url(#mask0_866_9265)">
<path d="M34.4354 52.728C32.4403 49.9572 30.8794 43.2148 30.6947 40.5363L21.2046 36.4492L17.2561 52.728H34.4354Z" fill="#FC909F" stroke="black" stroke-width="0.554169"/>
<mask id="mask1_866_9265" style="mask-type:alpha" maskUnits="userSpaceOnUse" x="17" y="36" width="18" height="17">
<path d="M34.4354 52.728C32.4403 49.9572 30.8794 43.2148 30.6947 40.5363L21.2046 36.4492L17.2561 52.728H34.4354Z" fill="#FFEDEF"/>
</mask>
<g mask="url(#mask1_866_9265)">
<ellipse cx="29.8688" cy="36.3446" rx="8.174" ry="7.48129" fill="black"/>
</g>
<g clip-path="url(#clip0_866_9265)">
<path d="M34.0279 52.9038C32.0329 50.1329 30.472 43.3905 30.2872 40.7121L20.7971 36.625L16.8486 52.9038H34.0279Z" fill="#F9C9B6" stroke="black" stroke-width="0.554169"/>
<mask id="mask2_866_9265" style="mask-type:alpha" maskUnits="userSpaceOnUse" x="16" y="36" width="19" height="17">
<path d="M34.0279 52.9038C32.0329 50.1329 30.472 43.3905 30.2872 40.7121L20.7971 36.625L16.8486 52.9038H34.0279Z" fill="#AC6651"/>
</mask>
<g mask="url(#mask2_866_9265)">
<ellipse cx="29.8718" cy="36.3485" rx="8.174" ry="7.48129" fill="black"/>
</g>
<mask id="path-9-inside-1_866_9265" fill="white">
<path fill-rule="evenodd" clip-rule="evenodd" d="M38.1702 28.1669C38.1659 28.1486 38.1616 28.1304 38.1572 28.1122C38.1528 28.0939 38.1484 28.0757 38.144 28.0575L35.8781 18.6002C35.8745 18.5849 35.8709 18.5696 35.8672 18.5544C35.8635 18.5391 35.8599 18.5238 35.8561 18.5086L35.8503 18.4844L35.8502 18.4845C34.4347 12.7425 28.6468 9.21177 22.8869 10.5918C17.127 11.9718 13.5675 17.742 14.9078 23.5021L14.9074 23.5022L17.4332 34.0439L17.4726 34.0344C19.2187 39.2787 24.7193 42.4043 30.1946 41.0925C35.6699 39.7807 39.1569 34.5017 38.3369 29.0355L38.3761 29.0262L38.1702 28.1669Z"/>
</mask>
<path fill-rule="evenodd" clip-rule="evenodd" d="M38.1702 28.1669C38.1659 28.1486 38.1616 28.1304 38.1572 28.1122C38.1528 28.0939 38.1484 28.0757 38.144 28.0575L35.8781 18.6002C35.8745 18.5849 35.8709 18.5696 35.8672 18.5544C35.8635 18.5391 35.8599 18.5238 35.8561 18.5086L35.8503 18.4844L35.8502 18.4845C34.4347 12.7425 28.6468 9.21177 22.8869 10.5918C17.127 11.9718 13.5675 17.742 14.9078 23.5021L14.9074 23.5022L17.4332 34.0439L17.4726 34.0344C19.2187 39.2787 24.7193 42.4043 30.1946 41.0925C35.6699 39.7807 39.1569 34.5017 38.3369 29.0355L38.3761 29.0262L38.1702 28.1669Z" fill="#F9C9B6"/>
<path d="M38.1702 28.1669L37.6306 28.2932L37.6313 28.296L38.1702 28.1669ZM38.1572 28.1122L38.6961 27.983L38.6961 27.983L38.1572 28.1122ZM38.144 28.0575L37.6051 28.1867L37.6057 28.1894L38.144 28.0575ZM35.8781 18.6002L35.3386 18.727L35.3392 18.7293L35.8781 18.6002ZM35.8561 18.5086L35.3172 18.6377L35.3178 18.64L35.8561 18.5086ZM35.8503 18.4844L36.3893 18.3553L36.2602 17.8166L35.7215 17.9454L35.8503 18.4844ZM35.8502 18.4845L35.3122 18.6171L35.4439 19.1514L35.9791 19.0234L35.8502 18.4845ZM22.8869 10.5918L22.7578 10.0529L22.8869 10.5918ZM14.9078 23.5021L15.0363 24.0411L15.5724 23.9133L15.4475 23.3765L14.9078 23.5021ZM14.9074 23.5022L14.7789 22.9631L14.2393 23.0918L14.3685 23.6313L14.9074 23.5022ZM17.4332 34.0439L16.8942 34.173L17.0234 34.7119L17.5623 34.5828L17.4332 34.0439ZM17.4726 34.0344L17.9984 33.8594L17.8378 33.3771L17.3435 33.4955L17.4726 34.0344ZM30.1946 41.0925L30.0655 40.5536L30.0655 40.5536L30.1946 41.0925ZM38.3369 29.0355L38.2077 28.4966L37.7134 28.6151L37.7888 29.1178L38.3369 29.0355ZM38.3761 29.0262L38.5052 29.5651L39.0441 29.436L38.915 28.897L38.3761 29.0262ZM38.7097 28.0405C38.7053 28.0214 38.7007 28.0022 38.6961 27.983L37.6183 28.2413C37.6225 28.2586 37.6266 28.2759 37.6306 28.2932L38.7097 28.0405ZM38.6961 27.983C38.6915 27.9639 38.6869 27.9448 38.6822 27.9256L37.6057 28.1894C37.61 28.2067 37.6141 28.224 37.6183 28.2413L38.6961 27.983ZM35.3392 18.7293L37.6051 28.1867L38.6829 27.9284L36.417 18.4711L35.3392 18.7293ZM36.4175 18.4734C36.4138 18.4574 36.41 18.4413 36.4061 18.4252L35.3283 18.6835C35.3318 18.698 35.3352 18.7125 35.3386 18.727L36.4175 18.4734ZM36.4061 18.4252C36.4023 18.4092 36.3984 18.3932 36.3945 18.3772L35.3178 18.64C35.3213 18.6545 35.3248 18.669 35.3283 18.6835L36.4061 18.4252ZM35.3114 18.6135L35.3172 18.6377L36.3951 18.3795L36.3893 18.3553L35.3114 18.6135ZM35.9791 19.0234L35.9792 19.0234L35.7215 17.9454L35.7213 17.9455L35.9791 19.0234ZM36.3883 18.3518C34.8999 12.3142 28.8141 8.60183 22.7578 10.0529L23.016 11.1307C28.4794 9.82172 33.9695 13.1707 35.3122 18.6171L36.3883 18.3518ZM22.7578 10.0529C16.7014 11.5039 12.9588 17.5711 14.368 23.6277L15.4475 23.3765C14.1763 17.913 17.5526 12.4397 23.016 11.1307L22.7578 10.0529ZM15.036 24.0412L15.0363 24.0411L14.7792 22.963L14.7789 22.9631L15.036 24.0412ZM17.9721 33.9148L15.4464 23.373L14.3685 23.6313L16.8942 34.173L17.9721 33.9148ZM17.3435 33.4955L17.304 33.505L17.5623 34.5828L17.6017 34.5733L17.3435 33.4955ZM16.9468 34.2095C18.783 39.7243 24.5664 43.0108 30.3238 41.6314L30.0655 40.5536C24.8723 41.7978 19.6545 38.8332 17.9984 33.8594L16.9468 34.2095ZM30.3238 41.6314C36.0811 40.252 39.7472 34.7014 38.8849 28.9533L37.7888 29.1178C38.5666 34.302 35.2587 39.3093 30.0655 40.5536L30.3238 41.6314ZM38.2469 28.4872L38.2077 28.4966L38.466 29.5745L38.5052 29.5651L38.2469 28.4872ZM37.6313 28.296L37.8371 29.1553L38.915 28.897L38.7091 28.0378L37.6313 28.296Z" fill="black" mask="url(#path-9-inside-1_866_9265)"/>
</g>
<path d="M24.5876 32.3945C24.936 34.7637 28.9078 35.8786 32.5312 33.161" stroke="#101010" stroke-width="0.557443"/>
<path d="M35.81 12.8354C34.7031 18.1421 21.6209 18.8873 18.9844 18.8873C12.0649 19.6756 15.3862 27.9806 16.6567 32.1217C15.6592 32.2547 15.7922 33.4518 11.9349 23.9417C8.84913 16.3336 17.5886 11.6965 24.0815 10.1225C30.5745 8.54841 33.0596 6.33203 33.0596 6.33203C35.81 7.46235 36.4669 9.68605 35.81 12.8354Z" fill="#402805"/>
<path d="M36.1195 21.6376L34.0155 14.5296L35.3506 13.3136C36.7812 18.2466 36.8466 21.1111 36.1195 21.6376Z" fill="#402805"/>
<path d="M18.6534 29.1274C17.8845 25.1622 15.9532 25.8717 14.6718 26.0661L13.2988 19.6518L18.8709 18.4135C18.9741 18.3786 19.0846 18.3538 19.2026 18.3398L18.8709 18.4135C16.3788 19.2581 18.0982 26.0362 20.1636 28.8358L18.6534 29.1274Z" fill="#402805"/>
<path d="M11.179 14.96C12.3555 14.3676 13.745 14.7105 14.2927 14.956L12.7271 16.9352C13.1308 16.2893 11.8632 15.3493 11.179 14.96Z" fill="#402805"/>
<path d="M9.18555 17.2381C10.7284 16.3336 12.2226 16.6395 12.7768 16.9055L12.1782 18.9672C12.0186 17.8499 10.1166 17.3489 9.18555 17.2381Z" fill="#402805"/>
<path d="M20.5449 24.5898L16.2417 25.4162" stroke="black" stroke-width="0.498916" stroke-linecap="round"/>
<path d="M20.6659 21.6003L25.4949 20.9216C25.9042 20.8641 26.2827 21.1493 26.3402 21.5586L27.0345 26.4992C27.0921 26.9085 26.8069 27.2869 26.3976 27.3444L22.0979 27.9487C21.7191 28.0019 21.3612 27.761 21.2679 27.3901L20.0442 22.5239C19.9357 22.0925 20.2253 21.6622 20.6659 21.6003Z" stroke="black" stroke-width="0.498916"/>
<path d="M34.4414 19.6906L29.6123 20.3693C29.203 20.4268 28.9179 20.8053 28.9754 21.2146L29.6698 26.1552C29.7273 26.5645 30.1057 26.8496 30.515 26.7921L34.8147 26.1878C35.1935 26.1346 35.4711 25.8044 35.4585 25.4221L35.2935 20.4071C35.2789 19.9625 34.882 19.6287 34.4414 19.6906Z" stroke="black" stroke-width="0.498916"/>
<path d="M26.6562 23.9209L29.4003 23.4844" stroke="black" stroke-width="0.498916"/>
<ellipse cx="23.8623" cy="24.2364" rx="1.24688" ry="1.38542" transform="rotate(-6.77646 23.8623 24.2364)" fill="black"/>
<ellipse cx="32.7334" cy="22.8502" rx="1.24688" ry="1.38542" transform="rotate(-6.27568 32.7334 22.8502)" fill="black"/>
<path d="M28.2589 25.527C28.2871 26.0594 28.4942 27.2008 29.0969 27.5078C29.8504 27.8916 29.2597 29.1638 27.8492 29.0822" stroke="black" stroke-width="0.554169"/>
<path d="M17.4706 26.2566C17.1478 26.1503 16.7993 26.0938 16.4426 26.0938C14.9888 26.0938 13.8103 26.9943 13.9488 28.6568C14.0931 30.3886 15.1274 31.012 16.5811 31.012C16.7429 31.012 16.9012 30.9978 17.0549 30.9706C17.2227 30.9409 17.3848 30.8958 17.5398 30.8367" stroke="black" stroke-width="1.10834"/>
<path d="M17.6091 30.8092C17.2933 30.9398 16.9459 31.012 16.5811 31.012C15.1274 31.012 14.0931 30.3886 13.9488 28.6568C13.8103 26.9943 14.9888 26.0938 16.4426 26.0938C16.8773 26.0938 17.2997 26.1778 17.6784 26.3334L17.6091 30.8092Z" fill="#F9C9B6"/>
<path d="M17.0551 27.2714C16.5009 27.0174 15.2817 26.8834 14.8384 28.3797" stroke="black" stroke-width="0.554169"/>
<path d="M15.6003 27.3438C15.9005 27.5977 16.4732 28.3828 16.3623 29.4912" stroke="black" stroke-width="0.554169"/>
<path d="M45.0662 54.3594H7.19994C9.45814 50.2943 12.6701 47.7069 17.8774 46.5196C20.0959 46.0138 22.6804 45.7615 25.7127 45.7615C27.0227 45.7615 28.0421 45.9613 29.0095 46.225C29.3679 46.3227 29.7281 46.4321 30.0966 46.5441C30.7065 46.7295 31.3391 46.9217 32.0237 47.0789L32.0431 47.0834L32.0629 47.085C38.4532 47.612 42.2852 50.4505 45.0662 54.3594Z" fill="#338144" stroke="black" stroke-width="0.554169"/>
<path d="M16.2823 46.8193L17.5504 44.1043C17.5807 44.0395 17.6559 44.0086 17.7234 44.0325C22.9778 45.8924 27.7579 45.7615 32.1877 44.5284C32.2435 44.5128 32.3031 44.5334 32.3372 44.5801L34.2674 47.2197C34.3205 47.2922 34.2934 47.3945 34.2098 47.4274C29.5538 49.2556 20.8171 48.9449 16.3494 47.0026C16.2786 46.9718 16.2496 46.8893 16.2823 46.8193Z" fill="#FBFBFF" stroke="black" stroke-width="0.554169"/>
</g>
<defs>
<clipPath id="clip0_866_9265">
<rect width="27.7085" height="45.719" fill="white" transform="translate(12.6924 7.25391)"/>
</clipPath>
</defs>
</svg>
