<svg width="156" height="153" viewBox="0 0 156 153" fill="none" xmlns="http://www.w3.org/2000/svg">
<path d="M155.556 6.53033C155.849 6.23744 155.849 5.76256 155.556 5.46967L150.783 0.696699C150.49 0.403806 150.015 0.403806 149.722 0.696699C149.429 0.989592 149.429 1.46447 149.722 1.75736L153.965 6L149.722 10.2426C149.429 10.5355 149.429 11.0104 149.722 11.3033C150.015 11.5962 150.49 11.5962 150.783 11.3033L155.556 6.53033ZM78.798 36.5553L78.2274 36.0686L78.798 36.5553ZM78.2274 36.0686L70.7219 44.8688L71.8632 45.8422L79.3687 37.042L78.2274 36.0686ZM5.07363 75.1608H-0.000344634V76.6608H5.07363V75.1608ZM155.025 5.25L145.017 5.25V6.75H155.025V5.25ZM70.7219 44.8688C54.3289 64.0897 30.3357 75.1608 5.07363 75.1608V76.6608C30.7749 76.6608 55.1852 65.3972 71.8632 45.8422L70.7219 44.8688ZM79.3687 37.042C95.7617 17.8211 119.755 6.75 145.017 6.75V5.25C119.316 5.25 94.9054 16.5136 78.2274 36.0686L79.3687 37.042Z" fill="#6420FF"/>
<path d="M155.556 146.005C155.849 146.298 155.849 146.773 155.556 147.065L150.783 151.838C150.49 152.131 150.015 152.131 149.722 151.838C149.429 151.546 149.429 151.071 149.722 150.778L153.965 146.535L149.722 142.293C149.429 142 149.429 141.525 149.722 141.232C150.015 140.939 150.49 140.939 150.783 141.232L155.556 146.005ZM71.3099 106.799L71.883 106.315L71.3099 106.799ZM78.7806 115.647L78.2076 116.131L78.2076 116.131L78.7806 115.647ZM78.2076 116.131L70.7368 107.282L71.883 106.315L79.3537 115.164L78.2076 116.131ZM4.80898 76.6609H-0.000346173V75.1609H4.80898V76.6609ZM155.025 147.285H145.282V145.785H155.025V147.285ZM70.7368 107.282C54.3428 87.8643 30.2221 76.6609 4.80898 76.6609V75.1609C30.6639 75.1609 55.204 86.5591 71.883 106.315L70.7368 107.282ZM79.3537 115.164C95.7477 134.582 119.868 145.785 145.282 145.785V147.285C119.427 147.285 94.8866 135.887 78.2076 116.131L79.3537 115.164Z" fill="#6420FF"/>
</svg>
