<svg width="162" height="143" viewBox="0 0 162 143" fill="none" xmlns="http://www.w3.org/2000/svg">
<path d="M161.406 70.3805C161.699 70.6734 161.699 71.1483 161.406 71.4412L156.633 76.2141C156.34 76.507 155.865 76.507 155.572 76.2141C155.28 75.9212 155.28 75.4464 155.572 75.1535L159.815 70.9108L155.572 66.6682C155.28 66.3753 155.28 65.9004 155.572 65.6075C155.865 65.3146 156.34 65.3146 156.633 65.6075L161.406 70.3805ZM78.5992 29.8535L88.5205 41.0632L87.3972 42.0573L77.476 30.8476L78.5992 29.8535ZM153.131 70.1608H160.876V71.6608H153.131V70.1608ZM0 0.25L12.8654 0.25V1.75L0 1.75L0 0.25ZM88.5205 41.0632C104.897 59.5667 128.421 70.1608 153.131 70.1608V71.6608C127.992 71.6608 104.059 60.8825 87.3972 42.0573L88.5205 41.0632ZM77.476 30.8476C61.0993 12.3441 37.5752 1.75 12.8654 1.75V0.25C38.0048 0.25 61.9378 11.0283 78.5992 29.8535L77.476 30.8476Z" fill="#6420FF"/>
<path d="M161.406 71.4413C161.699 71.1484 161.699 70.6735 161.406 70.3806L156.633 65.6077C156.34 65.3148 155.865 65.3148 155.572 65.6077C155.28 65.9005 155.28 66.3754 155.572 66.6683L159.815 70.911L155.572 75.1536C155.28 75.4465 155.28 75.9214 155.572 76.2143C155.865 76.5071 156.34 76.5071 156.633 76.2143L161.406 71.4413ZM78.6275 112.35L88.4972 101.085L87.369 100.096L77.4992 111.361L78.6275 112.35ZM153.395 71.661H160.876V70.161H153.395V71.661ZM0 142.285H12.6016V140.785H0L0 142.285ZM88.4972 101.085C104.88 82.3849 128.534 71.661 153.395 71.661V70.161C128.101 70.161 104.037 81.0714 87.369 100.096L88.4972 101.085ZM77.4992 111.361C61.116 130.061 37.4629 140.785 12.6016 140.785V142.285C37.8951 142.285 61.9595 131.375 78.6275 112.35L77.4992 111.361Z" fill="#6420FF"/>
</svg>
