<svg width="366" height="236" viewBox="0 0 366 236" fill="none" xmlns="http://www.w3.org/2000/svg">
<circle cx="126" cy="110" r="19" fill="#6420FF"/>
<path d="M119.016 113.652C118.772 113.652 118.565 113.568 118.396 113.399C118.235 113.23 118.155 113.023 118.155 112.778V106.014C118.155 105.761 118.235 105.554 118.396 105.393C118.565 105.224 118.776 105.14 119.029 105.14H121.309C121.9 105.14 122.42 105.254 122.867 105.482C123.323 105.702 123.678 106.018 123.931 106.432C124.184 106.837 124.311 107.306 124.311 107.838C124.311 108.362 124.184 108.83 123.931 109.244C123.678 109.658 123.323 109.979 122.867 110.207C122.411 110.435 121.892 110.549 121.309 110.549H119.865V112.778C119.865 113.023 119.781 113.23 119.612 113.399C119.451 113.568 119.253 113.652 119.016 113.652ZM121.296 109.054C121.685 109.054 121.993 108.944 122.221 108.725C122.449 108.505 122.563 108.21 122.563 107.838C122.563 107.475 122.449 107.188 122.221 106.977C121.993 106.757 121.685 106.647 121.296 106.647H119.865V109.054H121.296ZM133.01 104.988C133.247 104.988 133.445 105.072 133.606 105.241C133.766 105.41 133.846 105.621 133.846 105.875V112.778C133.846 113.023 133.762 113.23 133.593 113.399C133.432 113.568 133.234 113.652 132.998 113.652C132.753 113.652 132.546 113.568 132.377 113.399C132.216 113.23 132.136 113.023 132.136 112.778V108.649L130.566 111.119C130.447 111.313 130.325 111.452 130.198 111.537C130.072 111.621 129.924 111.663 129.755 111.663C129.594 111.663 129.447 111.621 129.312 111.537C129.185 111.452 129.062 111.313 128.944 111.119L127.374 108.623V112.778C127.374 113.023 127.289 113.23 127.12 113.399C126.96 113.568 126.761 113.652 126.525 113.652C126.28 113.652 126.073 113.568 125.904 113.399C125.744 113.23 125.664 113.023 125.664 112.778V105.875C125.664 105.621 125.744 105.41 125.904 105.241C126.065 105.072 126.263 104.988 126.5 104.988C126.685 104.988 126.842 105.039 126.968 105.14C127.103 105.233 127.247 105.402 127.399 105.647L129.755 109.383L132.111 105.647C132.263 105.402 132.402 105.233 132.529 105.14C132.664 105.039 132.824 104.988 133.01 104.988Z" fill="white"/>
<path d="M284.072 131.743C284.072 132.279 283.952 132.759 283.712 133.183C283.472 133.615 283.14 133.951 282.716 134.191C282.292 134.439 281.816 134.563 281.288 134.563H281.252C281.004 134.563 280.804 134.479 280.652 134.311C280.5 134.151 280.424 133.939 280.424 133.675V130.291C280.048 130.387 279.756 130.579 279.548 130.867C279.348 131.155 279.248 131.519 279.248 131.959C279.248 132.415 279.364 132.827 279.596 133.195C279.668 133.315 279.704 133.431 279.704 133.543C279.704 133.727 279.64 133.883 279.512 134.011C279.392 134.139 279.24 134.203 279.056 134.203C278.92 134.203 278.8 134.171 278.696 134.107C278.6 134.043 278.504 133.939 278.408 133.795C278.04 133.243 277.856 132.615 277.856 131.911C277.856 131.295 277.992 130.739 278.264 130.243C278.536 129.747 278.908 129.359 279.38 129.079C279.852 128.799 280.38 128.659 280.964 128.659C281.54 128.659 282.064 128.791 282.536 129.055C283.016 129.327 283.392 129.699 283.664 130.171C283.936 130.643 284.072 131.167 284.072 131.743ZM282.764 131.707C282.764 131.355 282.656 131.051 282.44 130.795C282.224 130.547 281.932 130.379 281.564 130.291V132.991C281.924 132.975 282.212 132.851 282.428 132.619C282.652 132.387 282.764 132.083 282.764 131.707ZM279.236 140.558C279.028 140.718 278.828 140.798 278.636 140.798C278.42 140.798 278.236 140.722 278.084 140.57C277.932 140.426 277.856 140.242 277.856 140.018C277.856 139.746 277.976 139.522 278.216 139.346L279.824 138.086L278.216 136.826C277.976 136.634 277.856 136.414 277.856 136.166C277.856 135.942 277.932 135.754 278.084 135.602C278.236 135.45 278.42 135.374 278.636 135.374C278.82 135.374 279.02 135.458 279.236 135.626L281.024 137.066L282.692 135.77C282.908 135.594 283.108 135.506 283.292 135.506C283.508 135.506 283.692 135.582 283.844 135.734C283.996 135.886 284.072 136.074 284.072 136.298C284.072 136.562 283.956 136.778 283.724 136.946L282.236 138.098L283.724 139.274C283.956 139.458 284.072 139.678 284.072 139.934C284.072 140.15 283.996 140.334 283.844 140.486C283.692 140.638 283.508 140.714 283.292 140.714C283.116 140.714 282.916 140.626 282.692 140.45L281.036 139.13L279.236 140.558ZM284.072 145.481C284.072 146.033 283.94 146.525 283.676 146.957C283.412 147.397 283.044 147.741 282.572 147.989C282.1 148.237 281.568 148.361 280.976 148.361C280.384 148.361 279.848 148.237 279.368 147.989C278.896 147.741 278.524 147.397 278.252 146.957C277.988 146.525 277.856 146.033 277.856 145.481C277.856 145.113 277.916 144.777 278.036 144.473C278.164 144.169 278.344 143.913 278.576 143.705H276.512C276.28 143.705 276.088 143.629 275.936 143.477C275.776 143.325 275.696 143.133 275.696 142.901C275.696 142.669 275.776 142.473 275.936 142.313C276.088 142.161 276.28 142.085 276.512 142.085H283.28C283.512 142.085 283.704 142.161 283.856 142.313C284.008 142.473 284.084 142.665 284.084 142.889C284.084 143.105 284.012 143.285 283.868 143.429C283.724 143.573 283.54 143.653 283.316 143.669C283.556 143.877 283.74 144.133 283.868 144.437C284.004 144.749 284.072 145.097 284.072 145.481ZM279.332 145.181C279.332 145.629 279.484 145.997 279.788 146.285C280.1 146.573 280.492 146.717 280.964 146.717C281.444 146.717 281.836 146.573 282.14 146.285C282.452 145.997 282.608 145.629 282.608 145.181C282.608 144.733 282.456 144.369 282.152 144.089C281.856 143.817 281.464 143.681 280.976 143.681C280.488 143.681 280.092 143.821 279.788 144.101C279.484 144.381 279.332 144.741 279.332 145.181ZM284.072 152.38C284.072 152.916 283.952 153.396 283.712 153.82C283.472 154.252 283.14 154.588 282.716 154.828C282.292 155.076 281.816 155.2 281.288 155.2H281.252C281.004 155.2 280.804 155.116 280.652 154.948C280.5 154.788 280.424 154.576 280.424 154.312V150.928C280.048 151.024 279.756 151.216 279.548 151.504C279.348 151.792 279.248 152.156 279.248 152.596C279.248 153.052 279.364 153.464 279.596 153.832C279.668 153.952 279.704 154.068 279.704 154.18C279.704 154.364 279.64 154.52 279.512 154.648C279.392 154.776 279.24 154.84 279.056 154.84C278.92 154.84 278.8 154.808 278.696 154.744C278.6 154.68 278.504 154.576 278.408 154.432C278.04 153.88 277.856 153.252 277.856 152.548C277.856 151.932 277.992 151.376 278.264 150.88C278.536 150.384 278.908 149.996 279.38 149.716C279.852 149.436 280.38 149.296 280.964 149.296C281.54 149.296 282.064 149.428 282.536 149.692C283.016 149.964 283.392 150.336 283.664 150.808C283.936 151.28 284.072 151.804 284.072 152.38ZM282.764 152.344C282.764 151.992 282.656 151.688 282.44 151.432C282.224 151.184 281.932 151.016 281.564 150.928V153.628C281.924 153.612 282.212 153.488 282.428 153.256C282.652 153.024 282.764 152.72 282.764 152.344ZM284.012 159.5C284.012 159.716 283.944 159.892 283.808 160.028C283.68 160.164 283.504 160.232 283.28 160.232C283.064 160.232 282.884 160.164 282.74 160.028C282.604 159.892 282.524 159.708 282.5 159.476C282.468 159.044 282.316 158.704 282.044 158.456C281.78 158.208 281.42 158.084 280.964 158.084H278.684C278.444 158.084 278.244 158.008 278.084 157.856C277.932 157.704 277.856 157.512 277.856 157.28C277.856 157.048 277.936 156.852 278.096 156.692C278.256 156.54 278.452 156.464 278.684 156.464H283.256C283.488 156.464 283.68 156.54 283.832 156.692C283.992 156.844 284.072 157.036 284.072 157.268C284.072 157.476 284 157.652 283.856 157.796C283.72 157.948 283.548 158.032 283.34 158.048C283.556 158.24 283.72 158.46 283.832 158.708C283.952 158.956 284.012 159.22 284.012 159.5ZM279.32 164.357C279.32 164.573 279.26 164.745 279.14 164.873C279.02 165.001 278.86 165.065 278.66 165.065C278.516 165.065 278.388 165.029 278.276 164.957C278.164 164.885 278.076 164.785 278.012 164.657C277.908 164.409 277.856 164.129 277.856 163.817C277.856 163.041 278.044 162.449 278.42 162.041C278.804 161.641 279.36 161.441 280.088 161.441H282.572V161.104C282.572 160.905 282.636 160.737 282.764 160.601C282.892 160.473 283.056 160.409 283.256 160.409C283.456 160.409 283.62 160.473 283.748 160.601C283.876 160.737 283.94 160.905 283.94 161.104V161.441H284.756C284.988 161.441 285.18 161.517 285.332 161.669C285.492 161.821 285.572 162.016 285.572 162.257C285.572 162.489 285.492 162.681 285.332 162.833C285.18 162.985 284.988 163.061 284.756 163.061H283.94V164.153C283.94 164.353 283.876 164.517 283.748 164.645C283.62 164.773 283.456 164.837 283.256 164.837C283.056 164.837 282.892 164.773 282.764 164.645C282.636 164.517 282.572 164.353 282.572 164.153V163.061H280.232C279.904 163.061 279.668 163.145 279.524 163.312C279.38 163.481 279.308 163.753 279.308 164.129L279.32 164.357ZM277.856 168.029C277.856 167.597 277.932 167.193 278.084 166.817C278.236 166.441 278.444 166.117 278.708 165.845C278.836 165.693 279.004 165.617 279.212 165.617C279.396 165.617 279.556 165.681 279.692 165.809C279.828 165.945 279.896 166.105 279.896 166.289C279.896 166.449 279.836 166.605 279.716 166.757C279.364 167.165 279.188 167.597 279.188 168.053C279.188 168.269 279.228 168.449 279.308 168.593C279.396 168.737 279.52 168.809 279.68 168.809C279.808 168.809 279.904 168.761 279.968 168.665C280.04 168.577 280.124 168.421 280.22 168.197L280.484 167.561C280.708 167.017 280.956 166.609 281.228 166.337C281.5 166.073 281.856 165.941 282.296 165.941C282.856 165.941 283.292 166.141 283.604 166.541C283.924 166.949 284.084 167.477 284.084 168.125C284.084 168.477 284.028 168.817 283.916 169.145C283.804 169.473 283.648 169.757 283.448 169.997C283.304 170.189 283.12 170.285 282.896 170.285C282.712 170.285 282.552 170.221 282.416 170.093C282.288 169.965 282.224 169.809 282.224 169.625C282.224 169.505 282.28 169.361 282.392 169.193C282.632 168.849 282.752 168.489 282.752 168.113C282.752 167.913 282.716 167.757 282.644 167.645C282.572 167.533 282.468 167.477 282.332 167.477C282.22 167.477 282.128 167.521 282.056 167.609C281.984 167.705 281.9 167.869 281.804 168.101L281.564 168.677C281.332 169.253 281.08 169.673 280.808 169.937C280.544 170.209 280.192 170.345 279.752 170.345C279.16 170.345 278.696 170.125 278.36 169.685C278.024 169.253 277.856 168.701 277.856 168.029ZM284.072 179.442C284.072 179.65 283.992 179.83 283.832 179.982C283.68 180.142 283.5 180.222 283.292 180.222C283.172 180.222 283.028 180.182 282.86 180.102L278.36 177.87C278.2 177.79 278.076 177.686 277.988 177.558C277.9 177.43 277.856 177.286 277.856 177.126C277.856 176.966 277.9 176.822 277.988 176.694C278.076 176.566 278.2 176.462 278.36 176.382L282.86 174.15C283.028 174.062 283.172 174.018 283.292 174.018C283.5 174.018 283.68 174.094 283.832 174.246C283.992 174.406 284.072 174.594 284.072 174.81C284.072 175.13 283.92 175.366 283.616 175.518L280.304 177.126L283.616 178.722C283.92 178.874 284.072 179.114 284.072 179.442ZM284.072 183.786C284.072 184.322 283.952 184.802 283.712 185.226C283.472 185.658 283.14 185.994 282.716 186.234C282.292 186.482 281.816 186.606 281.288 186.606H281.252C281.004 186.606 280.804 186.522 280.652 186.354C280.5 186.194 280.424 185.982 280.424 185.718V182.334C280.048 182.43 279.756 182.622 279.548 182.91C279.348 183.198 279.248 183.562 279.248 184.002C279.248 184.458 279.364 184.87 279.596 185.238C279.668 185.358 279.704 185.474 279.704 185.586C279.704 185.77 279.64 185.926 279.512 186.054C279.392 186.182 279.24 186.246 279.056 186.246C278.92 186.246 278.8 186.214 278.696 186.15C278.6 186.086 278.504 185.982 278.408 185.838C278.04 185.286 277.856 184.658 277.856 183.954C277.856 183.338 277.992 182.782 278.264 182.286C278.536 181.79 278.908 181.402 279.38 181.122C279.852 180.842 280.38 180.702 280.964 180.702C281.54 180.702 282.064 180.834 282.536 181.098C283.016 181.37 283.392 181.742 283.664 182.214C283.936 182.686 284.072 183.21 284.072 183.786ZM282.764 183.75C282.764 183.398 282.656 183.094 282.44 182.838C282.224 182.59 281.932 182.422 281.564 182.334V185.034C281.924 185.018 282.212 184.894 282.428 184.662C282.652 184.43 282.764 184.126 282.764 183.75ZM284.012 190.906C284.012 191.122 283.944 191.298 283.808 191.434C283.68 191.57 283.504 191.638 283.28 191.638C283.064 191.638 282.884 191.57 282.74 191.434C282.604 191.298 282.524 191.114 282.5 190.882C282.468 190.45 282.316 190.11 282.044 189.862C281.78 189.614 281.42 189.49 280.964 189.49H278.684C278.444 189.49 278.244 189.414 278.084 189.262C277.932 189.11 277.856 188.918 277.856 188.686C277.856 188.454 277.936 188.258 278.096 188.098C278.256 187.946 278.452 187.87 278.684 187.87H283.256C283.488 187.87 283.68 187.946 283.832 188.098C283.992 188.25 284.072 188.442 284.072 188.674C284.072 188.882 284 189.058 283.856 189.202C283.72 189.354 283.548 189.438 283.34 189.454C283.556 189.646 283.72 189.866 283.832 190.114C283.952 190.362 284.012 190.626 284.012 190.906ZM277.856 193.327C277.856 193.103 277.936 192.911 278.096 192.751C278.256 192.599 278.452 192.523 278.684 192.523H283.256C283.488 192.523 283.68 192.599 283.832 192.751C283.992 192.911 284.072 193.107 284.072 193.339C284.072 193.571 283.992 193.763 283.832 193.915C283.68 194.067 283.488 194.143 283.256 194.143H278.684C278.452 194.143 278.256 194.063 278.096 193.903C277.936 193.751 277.856 193.559 277.856 193.327ZM287.084 193.327C287.084 193.607 286.988 193.847 286.796 194.047C286.604 194.247 286.372 194.347 286.1 194.347C285.828 194.347 285.596 194.247 285.404 194.047C285.22 193.847 285.128 193.607 285.128 193.327C285.128 193.047 285.22 192.807 285.404 192.607C285.596 192.415 285.828 192.319 286.1 192.319C286.372 192.319 286.604 192.415 286.796 192.607C286.988 192.807 287.084 193.047 287.084 193.327ZM285.692 198.505C285.692 198.233 285.612 198.021 285.452 197.869C285.292 197.717 285.064 197.641 284.768 197.641H283.94V198.385C283.94 198.585 283.876 198.749 283.748 198.877C283.62 199.005 283.456 199.069 283.256 199.069C283.056 199.069 282.892 199.005 282.764 198.877C282.636 198.749 282.572 198.585 282.572 198.385V197.641H278.684C278.444 197.641 278.244 197.565 278.084 197.413C277.932 197.261 277.856 197.069 277.856 196.837C277.856 196.605 277.936 196.409 278.096 196.249C278.256 196.097 278.452 196.021 278.684 196.021H282.572V195.757C282.572 195.557 282.636 195.389 282.764 195.253C282.892 195.125 283.056 195.061 283.256 195.061C283.456 195.061 283.62 195.125 283.748 195.253C283.876 195.389 283.94 195.557 283.94 195.757V196.021H284.912C285.616 196.021 286.164 196.217 286.556 196.609C286.948 197.001 287.144 197.541 287.144 198.229C287.144 198.533 287.092 198.789 286.988 198.997C286.932 199.125 286.848 199.225 286.736 199.297C286.624 199.369 286.492 199.405 286.34 199.405C286.14 199.405 285.98 199.341 285.86 199.213C285.74 199.085 285.68 198.913 285.68 198.697L285.692 198.505ZM277.856 200.833C277.856 200.609 277.936 200.417 278.096 200.257C278.256 200.105 278.452 200.029 278.684 200.029H283.256C283.488 200.029 283.68 200.105 283.832 200.257C283.992 200.417 284.072 200.613 284.072 200.845C284.072 201.077 283.992 201.269 283.832 201.421C283.68 201.573 283.488 201.649 283.256 201.649H278.684C278.452 201.649 278.256 201.569 278.096 201.409C277.936 201.257 277.856 201.065 277.856 200.833ZM287.084 200.833C287.084 201.113 286.988 201.353 286.796 201.553C286.604 201.753 286.372 201.853 286.1 201.853C285.828 201.853 285.596 201.753 285.404 201.553C285.22 201.353 285.128 201.113 285.128 200.833C285.128 200.553 285.22 200.313 285.404 200.113C285.596 199.921 285.828 199.825 286.1 199.825C286.372 199.825 286.604 199.921 286.796 200.113C286.988 200.313 287.084 200.553 287.084 200.833ZM284.072 206.005C284.072 206.541 283.952 207.021 283.712 207.445C283.472 207.877 283.14 208.213 282.716 208.453C282.292 208.701 281.816 208.825 281.288 208.825H281.252C281.004 208.825 280.804 208.741 280.652 208.573C280.5 208.413 280.424 208.201 280.424 207.937V204.553C280.048 204.649 279.756 204.841 279.548 205.129C279.348 205.417 279.248 205.781 279.248 206.221C279.248 206.677 279.364 207.089 279.596 207.457C279.668 207.577 279.704 207.693 279.704 207.805C279.704 207.989 279.64 208.145 279.512 208.273C279.392 208.401 279.24 208.465 279.056 208.465C278.92 208.465 278.8 208.433 278.696 208.369C278.6 208.305 278.504 208.201 278.408 208.057C278.04 207.505 277.856 206.877 277.856 206.173C277.856 205.557 277.992 205.001 278.264 204.505C278.536 204.009 278.908 203.621 279.38 203.341C279.852 203.061 280.38 202.921 280.964 202.921C281.54 202.921 282.064 203.053 282.536 203.317C283.016 203.589 283.392 203.961 283.664 204.433C283.936 204.905 284.072 205.429 284.072 206.005ZM282.764 205.969C282.764 205.617 282.656 205.313 282.44 205.057C282.224 204.809 281.932 204.641 281.564 204.553V207.253C281.924 207.237 282.212 207.113 282.428 206.881C282.652 206.649 282.764 206.345 282.764 205.969ZM287.144 215.225C287.144 215.457 287.064 215.649 286.904 215.801C286.752 215.953 286.556 216.029 286.316 216.029H278.672C278.44 216.029 278.244 215.953 278.084 215.801C277.932 215.649 277.856 215.461 277.856 215.237C277.856 215.029 277.928 214.849 278.072 214.697C278.224 214.545 278.404 214.461 278.612 214.445C278.372 214.237 278.184 213.977 278.048 213.665C277.92 213.361 277.856 213.017 277.856 212.633C277.856 212.081 277.988 211.585 278.252 211.145C278.524 210.713 278.896 210.373 279.368 210.125C279.84 209.877 280.372 209.753 280.964 209.753C281.556 209.753 282.088 209.877 282.56 210.125C283.032 210.373 283.4 210.713 283.664 211.145C283.936 211.585 284.072 212.081 284.072 212.633C284.072 213.001 284.008 213.337 283.88 213.641C283.76 213.945 283.588 214.201 283.364 214.409H286.316C286.548 214.409 286.744 214.485 286.904 214.637C287.064 214.797 287.144 214.993 287.144 215.225ZM279.332 212.933C279.332 213.381 279.48 213.741 279.776 214.013C280.08 214.293 280.476 214.433 280.964 214.433C281.452 214.433 281.848 214.293 282.152 214.013C282.456 213.733 282.608 213.373 282.608 212.933C282.608 212.493 282.452 212.125 282.14 211.829C281.836 211.541 281.448 211.397 280.976 211.397C280.496 211.397 280.1 211.541 279.788 211.829C279.484 212.117 279.332 212.485 279.332 212.933Z" fill="#6420FF"/>
<path d="M288.591 228.012L287.344 229.101L287.196 229.23L287.273 229.41L287.937 230.947L286.358 231.373L286.165 231.425L286.159 231.625L286.106 233.3L284.51 232.981L284.31 232.941L284.218 233.123L283.465 234.602L282.164 233.607L282 233.482L281.836 233.607L280.535 234.602L279.782 233.123L279.69 232.941L279.49 232.981L277.894 233.3L277.841 231.625L277.835 231.425L277.642 231.373L276.063 230.947L276.725 229.41L276.803 229.23L276.655 229.101L275.409 228.012L276.655 226.922L276.802 226.793L276.725 226.613L276.063 225.076L277.642 224.65L277.835 224.598L277.841 224.399L277.894 222.724L279.49 223.042L279.69 223.082L279.782 222.9L280.535 221.422L281.836 222.417L282 222.542L282.164 222.417L283.465 221.422L284.218 222.9L284.31 223.082L284.51 223.042L286.106 222.724L286.159 224.399L286.165 224.598L286.358 224.65L287.937 225.076L287.273 226.613L287.196 226.793L287.343 226.923L288.591 228.012Z" fill="#7CBA00" stroke="white" stroke-width="0.538462"/>
<path d="M282 225.859L280.654 227.475L283.615 230.436" stroke="white" stroke-linecap="round"/>
<path d="M291.21 118.574C294.636 145.17 308.036 169.471 328.7 186.562C338.621 194.767 349.861 201.016 361.829 205.116M291.404 90.1269C295.192 63.5805 308.921 39.4638 329.816 22.6566C339.935 14.5169 351.369 8.38588 363.508 4.45312" stroke="url(#paint0_linear_1249_90113)" stroke-width="0.9571" stroke-linecap="round"/>
<ellipse cx="345.475" cy="34.9968" rx="10.3978" ry="10.0624" transform="rotate(90.4795 345.475 34.9968)" fill="#F6F2FF"/>
<circle cx="314.669" cy="108.868" r="10.0624" transform="rotate(90.4795 314.669 108.868)" fill="#F6F2FF"/>
<ellipse cx="314.247" cy="79.0124" rx="10.3978" ry="10.0624" transform="rotate(90.4795 314.247 79.0124)" fill="#F6F2FF"/>
<circle cx="327.864" cy="55.3098" r="10.0624" transform="rotate(90.4795 327.864 55.3098)" fill="#F6F2FF"/>
<ellipse cx="348.262" cy="62.8617" rx="10.0624" ry="10.3978" transform="rotate(90.4795 348.262 62.8617)" fill="#F6F2FF"/>
<circle cx="338.35" cy="84.9153" r="10.0624" transform="rotate(90.4795 338.35 84.9153)" fill="#F6F2FF"/>
<circle cx="353.975" cy="101.482" r="10.3978" transform="rotate(90.4795 353.975 101.482)" fill="#F6F2FF"/>
<circle cx="338.418" cy="116.779" r="10.3978" transform="rotate(90.4795 338.418 116.779)" fill="#F6F2FF"/>
<ellipse cx="332.198" cy="138.534" rx="10.0624" ry="10.3978" transform="rotate(90.4795 332.198 138.534)" fill="#F6F2FF"/>
<circle cx="353.25" cy="148.099" r="10.0624" transform="rotate(90.4795 353.25 148.099)" fill="#F6F2FF"/>
<circle cx="311.118" cy="132.318" r="10.0624" transform="rotate(90.4795 311.118 132.318)" fill="#F6F2FF"/>
<circle cx="326.988" cy="159.954" r="10.0624" transform="rotate(90.4795 326.988 159.954)" fill="#F6F2FF"/>
<ellipse cx="347.352" cy="171.53" rx="10.0624" ry="10.3978" transform="rotate(90.4795 347.352 171.53)" fill="#F6F2FF"/>
<rect x="365.218" y="0.613281" width="205.943" height="73.1199" transform="rotate(90.4795 365.218 0.613281)" fill="url(#paint1_linear_1249_90113)"/>
<circle cx="186" cy="110.012" r="49.5" stroke="#6420FF"/>
<path d="M172.043 105.156C171.267 105.156 170.555 104.976 169.907 104.616C169.267 104.248 168.759 103.752 168.383 103.128C168.015 102.504 167.831 101.812 167.831 101.052C167.831 100.292 168.015 99.5997 168.383 98.9757C168.759 98.3517 169.271 97.8597 169.919 97.4997C170.567 97.1317 171.279 96.9477 172.055 96.9477C172.663 96.9477 173.235 97.0717 173.771 97.3197C174.315 97.5597 174.763 97.8917 175.115 98.3157C175.283 98.5077 175.367 98.7077 175.367 98.9157C175.367 99.1157 175.291 99.2877 175.139 99.4317C174.995 99.5757 174.819 99.6477 174.611 99.6477C174.379 99.6477 174.171 99.5437 173.987 99.3357C173.475 98.7437 172.831 98.4477 172.055 98.4477C171.567 98.4477 171.127 98.5597 170.735 98.7837C170.351 99.0077 170.047 99.3197 169.823 99.7197C169.607 100.112 169.499 100.56 169.499 101.064C169.499 101.56 169.607 102.008 169.823 102.408C170.047 102.8 170.351 103.108 170.735 103.332C171.127 103.548 171.567 103.656 172.055 103.656C172.815 103.656 173.455 103.36 173.975 102.768C174.167 102.56 174.379 102.456 174.611 102.456C174.819 102.456 174.995 102.528 175.139 102.672C175.283 102.816 175.355 102.988 175.355 103.188C175.355 103.388 175.271 103.588 175.103 103.788C174.751 104.212 174.303 104.548 173.759 104.796C173.223 105.036 172.651 105.156 172.043 105.156ZM179.852 98.9997C180.068 98.9997 180.244 99.0677 180.38 99.2037C180.516 99.3317 180.584 99.5077 180.584 99.7317C180.584 99.9477 180.516 100.128 180.38 100.272C180.244 100.408 180.06 100.488 179.828 100.512C179.396 100.544 179.056 100.696 178.808 100.968C178.56 101.232 178.436 101.592 178.436 102.048V104.328C178.436 104.568 178.36 104.768 178.208 104.928C178.056 105.08 177.864 105.156 177.632 105.156C177.4 105.156 177.204 105.076 177.044 104.916C176.892 104.756 176.816 104.56 176.816 104.328V99.7557C176.816 99.5237 176.892 99.3317 177.044 99.1797C177.196 99.0197 177.388 98.9397 177.62 98.9397C177.828 98.9397 178.004 99.0117 178.148 99.1557C178.3 99.2917 178.384 99.4637 178.4 99.6717C178.592 99.4557 178.812 99.2917 179.06 99.1797C179.308 99.0597 179.572 98.9997 179.852 98.9997ZM184.099 98.9397C184.635 98.9397 185.115 99.0597 185.539 99.2997C185.971 99.5397 186.307 99.8717 186.547 100.296C186.795 100.72 186.919 101.196 186.919 101.724V101.76C186.919 102.008 186.835 102.208 186.667 102.36C186.507 102.512 186.295 102.588 186.031 102.588H182.647C182.743 102.964 182.935 103.256 183.223 103.464C183.511 103.664 183.875 103.764 184.315 103.764C184.771 103.764 185.183 103.648 185.551 103.416C185.671 103.344 185.787 103.308 185.899 103.308C186.083 103.308 186.239 103.372 186.367 103.5C186.495 103.62 186.559 103.772 186.559 103.956C186.559 104.092 186.527 104.212 186.463 104.316C186.399 104.412 186.295 104.508 186.151 104.604C185.599 104.972 184.971 105.156 184.267 105.156C183.651 105.156 183.095 105.02 182.599 104.748C182.103 104.476 181.715 104.104 181.435 103.632C181.155 103.16 181.015 102.632 181.015 102.048C181.015 101.472 181.147 100.948 181.411 100.476C181.683 99.9957 182.055 99.6197 182.527 99.3477C182.999 99.0757 183.523 98.9397 184.099 98.9397ZM184.063 100.248C183.711 100.248 183.407 100.356 183.151 100.572C182.903 100.788 182.735 101.08 182.647 101.448H185.347C185.331 101.088 185.207 100.8 184.975 100.584C184.743 100.36 184.439 100.248 184.063 100.248ZM190.595 98.9397C191.411 98.9397 192.043 99.1637 192.491 99.6117C192.939 100.052 193.163 100.676 193.163 101.484V104.34C193.163 104.572 193.087 104.764 192.935 104.916C192.791 105.068 192.607 105.144 192.383 105.144C192.191 105.144 192.023 105.088 191.879 104.976C191.735 104.856 191.643 104.704 191.603 104.52C191.155 104.944 190.575 105.156 189.863 105.156C189.255 105.156 188.759 104.992 188.375 104.664C187.999 104.336 187.811 103.908 187.811 103.38C187.811 102.844 188.011 102.424 188.411 102.12C188.811 101.808 189.359 101.652 190.055 101.652H191.543V101.388C191.543 101.06 191.447 100.804 191.255 100.62C191.063 100.436 190.787 100.344 190.427 100.344C190.011 100.344 189.631 100.492 189.287 100.788C189.119 100.916 188.959 100.98 188.807 100.98C188.607 100.98 188.439 100.916 188.303 100.788C188.175 100.66 188.111 100.504 188.111 100.32C188.111 100.096 188.223 99.8797 188.447 99.6717C188.695 99.4397 189.007 99.2597 189.383 99.1317C189.759 99.0037 190.163 98.9397 190.595 98.9397ZM190.295 103.968C190.647 103.968 190.943 103.856 191.183 103.632C191.423 103.408 191.543 103.128 191.543 102.792V102.72H190.271C189.719 102.72 189.443 102.92 189.443 103.32C189.443 103.52 189.519 103.68 189.671 103.8C189.823 103.912 190.031 103.968 190.295 103.968ZM197.962 103.692C198.178 103.692 198.35 103.752 198.478 103.872C198.606 103.992 198.67 104.152 198.67 104.352C198.67 104.496 198.634 104.624 198.562 104.736C198.49 104.848 198.39 104.936 198.262 105C198.014 105.104 197.734 105.156 197.422 105.156C196.646 105.156 196.054 104.968 195.646 104.592C195.246 104.208 195.046 103.652 195.046 102.924V100.44H194.71C194.51 100.44 194.342 100.376 194.206 100.248C194.078 100.12 194.014 99.9557 194.014 99.7557C194.014 99.5557 194.078 99.3917 194.206 99.2637C194.342 99.1357 194.51 99.0717 194.71 99.0717H195.046V98.2557C195.046 98.0237 195.122 97.8317 195.274 97.6797C195.426 97.5197 195.622 97.4397 195.862 97.4397C196.094 97.4397 196.286 97.5197 196.438 97.6797C196.59 97.8317 196.666 98.0237 196.666 98.2557V99.0717H197.758C197.958 99.0717 198.122 99.1357 198.25 99.2637C198.378 99.3917 198.442 99.5557 198.442 99.7557C198.442 99.9557 198.378 100.12 198.25 100.248C198.122 100.376 197.958 100.44 197.758 100.44H196.666V102.78C196.666 103.108 196.75 103.344 196.918 103.488C197.086 103.632 197.358 103.704 197.734 103.704L197.962 103.692ZM202.345 98.9397C202.881 98.9397 203.361 99.0597 203.785 99.2997C204.217 99.5397 204.553 99.8717 204.793 100.296C205.041 100.72 205.165 101.196 205.165 101.724V101.76C205.165 102.008 205.081 102.208 204.913 102.36C204.753 102.512 204.541 102.588 204.277 102.588H200.893C200.989 102.964 201.181 103.256 201.469 103.464C201.757 103.664 202.121 103.764 202.561 103.764C203.017 103.764 203.429 103.648 203.797 103.416C203.917 103.344 204.033 103.308 204.145 103.308C204.329 103.308 204.485 103.372 204.613 103.5C204.741 103.62 204.805 103.772 204.805 103.956C204.805 104.092 204.773 104.212 204.709 104.316C204.645 104.412 204.541 104.508 204.397 104.604C203.845 104.972 203.217 105.156 202.513 105.156C201.897 105.156 201.341 105.02 200.845 104.748C200.349 104.476 199.961 104.104 199.681 103.632C199.401 103.16 199.261 102.632 199.261 102.048C199.261 101.472 199.393 100.948 199.657 100.476C199.929 99.9957 200.301 99.6197 200.773 99.3477C201.245 99.0757 201.769 98.9397 202.345 98.9397ZM202.309 100.248C201.957 100.248 201.653 100.356 201.397 100.572C201.149 100.788 200.981 101.08 200.893 101.448H203.593C203.577 101.088 203.453 100.8 203.221 100.584C202.989 100.36 202.685 100.248 202.309 100.248ZM174.893 123.156C174.669 123.156 174.477 123.076 174.317 122.916C174.165 122.756 174.089 122.56 174.089 122.328V116.556H172.205C171.997 116.556 171.821 116.488 171.677 116.352C171.533 116.208 171.461 116.032 171.461 115.824C171.461 115.616 171.533 115.444 171.677 115.308C171.821 115.164 171.997 115.092 172.205 115.092H177.593C177.809 115.092 177.985 115.164 178.121 115.308C178.265 115.444 178.337 115.616 178.337 115.824C178.337 116.032 178.265 116.208 178.121 116.352C177.977 116.488 177.801 116.556 177.593 116.556H175.709V122.328C175.709 122.56 175.629 122.756 175.469 122.916C175.317 123.076 175.125 123.156 174.893 123.156ZM181.093 116.94C181.629 116.94 182.109 117.06 182.533 117.3C182.965 117.54 183.301 117.872 183.541 118.296C183.789 118.72 183.913 119.196 183.913 119.724V119.76C183.913 120.008 183.829 120.208 183.661 120.36C183.501 120.512 183.289 120.588 183.025 120.588H179.641C179.737 120.964 179.929 121.256 180.217 121.464C180.505 121.664 180.869 121.764 181.309 121.764C181.765 121.764 182.177 121.648 182.545 121.416C182.665 121.344 182.781 121.308 182.893 121.308C183.077 121.308 183.233 121.372 183.361 121.5C183.489 121.62 183.553 121.772 183.553 121.956C183.553 122.092 183.521 122.212 183.457 122.316C183.393 122.412 183.289 122.508 183.145 122.604C182.593 122.972 181.965 123.156 181.261 123.156C180.645 123.156 180.089 123.02 179.593 122.748C179.097 122.476 178.709 122.104 178.429 121.632C178.149 121.16 178.009 120.632 178.009 120.048C178.009 119.472 178.141 118.948 178.405 118.476C178.677 117.996 179.049 117.62 179.521 117.348C179.993 117.076 180.517 116.94 181.093 116.94ZM181.057 118.248C180.705 118.248 180.401 118.356 180.145 118.572C179.897 118.788 179.729 119.08 179.641 119.448H182.341C182.325 119.088 182.201 118.8 181.969 118.584C181.737 118.36 181.433 118.248 181.057 118.248ZM187.589 116.94C188.405 116.94 189.037 117.164 189.485 117.612C189.933 118.052 190.157 118.676 190.157 119.484V122.34C190.157 122.572 190.081 122.764 189.929 122.916C189.785 123.068 189.601 123.144 189.377 123.144C189.185 123.144 189.017 123.088 188.873 122.976C188.729 122.856 188.637 122.704 188.597 122.52C188.149 122.944 187.569 123.156 186.857 123.156C186.249 123.156 185.753 122.992 185.369 122.664C184.993 122.336 184.805 121.908 184.805 121.38C184.805 120.844 185.005 120.424 185.405 120.12C185.805 119.808 186.353 119.652 187.049 119.652H188.537V119.388C188.537 119.06 188.441 118.804 188.249 118.62C188.057 118.436 187.781 118.344 187.421 118.344C187.005 118.344 186.625 118.492 186.281 118.788C186.113 118.916 185.953 118.98 185.801 118.98C185.601 118.98 185.433 118.916 185.297 118.788C185.169 118.66 185.105 118.504 185.105 118.32C185.105 118.096 185.217 117.88 185.441 117.672C185.689 117.44 186.001 117.26 186.377 117.132C186.753 117.004 187.157 116.94 187.589 116.94ZM187.289 121.968C187.641 121.968 187.937 121.856 188.177 121.632C188.417 121.408 188.537 121.128 188.537 120.792V120.72H187.265C186.713 120.72 186.437 120.92 186.437 121.32C186.437 121.52 186.513 121.68 186.665 121.8C186.817 121.912 187.025 121.968 187.289 121.968ZM198.628 116.94C199.316 116.94 199.86 117.156 200.26 117.588C200.668 118.012 200.872 118.592 200.872 119.328V122.328C200.872 122.568 200.796 122.768 200.644 122.928C200.492 123.08 200.3 123.156 200.068 123.156C199.836 123.156 199.64 123.076 199.48 122.916C199.328 122.756 199.252 122.56 199.252 122.328V119.556C199.252 119.204 199.156 118.924 198.964 118.716C198.78 118.508 198.524 118.404 198.196 118.404C197.876 118.404 197.612 118.508 197.404 118.716C197.204 118.924 197.104 119.192 197.104 119.52V122.328C197.104 122.568 197.028 122.768 196.876 122.928C196.724 123.08 196.532 123.156 196.3 123.156C196.068 123.156 195.872 123.076 195.712 122.916C195.56 122.756 195.484 122.56 195.484 122.328V119.556C195.484 119.204 195.388 118.924 195.196 118.716C195.004 118.508 194.748 118.404 194.428 118.404C194.1 118.404 193.836 118.508 193.636 118.716C193.436 118.924 193.336 119.204 193.336 119.556V122.328C193.336 122.568 193.26 122.768 193.108 122.928C192.956 123.08 192.764 123.156 192.532 123.156C192.3 123.156 192.104 123.076 191.944 122.916C191.792 122.756 191.716 122.56 191.716 122.328V117.756C191.716 117.524 191.792 117.332 191.944 117.18C192.096 117.02 192.288 116.94 192.52 116.94C192.704 116.94 192.864 116.996 193 117.108C193.136 117.212 193.228 117.356 193.276 117.54C193.7 117.14 194.236 116.94 194.884 116.94C195.268 116.94 195.608 117.012 195.904 117.156C196.208 117.3 196.456 117.512 196.648 117.792C196.888 117.528 197.18 117.32 197.524 117.168C197.868 117.016 198.236 116.94 198.628 116.94Z" fill="#101010"/>
<circle r="14" transform="matrix(-1 0 0 1 236.102 115.012)" fill="#E0DDFF"/>
<mask id="mask0_1249_90113" style="mask-type:alpha" maskUnits="userSpaceOnUse" x="222" y="101" width="29" height="29">
<circle r="14" transform="matrix(-1 0 0 1 236.102 115.012)" fill="#FFEDEF"/>
</mask>
<g mask="url(#mask0_1249_90113)">
</g>
<circle cx="159" cy="148.012" r="14" fill="#F4D150"/>
<mask id="mask1_1249_90113" style="mask-type:alpha" maskUnits="userSpaceOnUse" x="145" y="134" width="28" height="29">
<circle cx="159" cy="148.012" r="14" fill="#FFF9ED"/>
</mask>
<g mask="url(#mask1_1249_90113)">
<path d="M163.486 161.186C162.407 159.688 161.564 156.044 161.464 154.596L156.334 152.387L154.2 161.186H163.486Z" fill="#FC909F" stroke="#101010" stroke-width="0.299533"/>
<mask id="mask2_1249_90113" style="mask-type:alpha" maskUnits="userSpaceOnUse" x="154" y="152" width="10" height="10">
<path d="M163.486 161.186C162.407 159.688 161.564 156.044 161.464 154.596L156.334 152.387L154.2 161.186H163.486Z" fill="#FFEDEF"/>
</mask>
<g mask="url(#mask2_1249_90113)">
<ellipse cx="160.882" cy="152.653" rx="4.41811" ry="4.0437" fill="#101010"/>
</g>
<g clip-path="url(#clip0_1249_90113)">
<path d="M163.165 161.853C162.087 160.356 161.243 156.712 161.144 155.264L156.014 153.055L153.88 161.853H163.165Z" fill="#77311D" stroke="#101010" stroke-width="0.299533"/>
<mask id="mask3_1249_90113" style="mask-type:alpha" maskUnits="userSpaceOnUse" x="153" y="153" width="11" height="9">
<path d="M163.166 161.853C162.088 160.356 161.244 156.712 161.145 155.264L156.015 153.055L153.881 161.853H163.166Z" fill="#AC6651"/>
</mask>
<g mask="url(#mask3_1249_90113)">
<ellipse cx="160.92" cy="152.903" rx="4.41811" ry="4.0437" fill="#101010"/>
</g>
<mask id="path-34-inside-1_1249_90113" fill="white">
<path fill-rule="evenodd" clip-rule="evenodd" d="M165.405 148.485C165.402 148.475 165.4 148.466 165.398 148.456C165.395 148.446 165.393 148.436 165.391 148.426L164.166 143.315C164.164 143.306 164.162 143.298 164.16 143.29C164.158 143.281 164.156 143.273 164.154 143.265L164.151 143.252L164.151 143.252C163.386 140.148 160.257 138.24 157.144 138.986C154.031 139.732 152.107 142.851 152.831 145.964L152.831 145.964L154.196 151.662L154.218 151.657C155.161 154.491 158.135 156.181 161.094 155.472C164.053 154.763 165.938 151.909 165.495 148.955L165.516 148.95L165.405 148.485Z"/>
</mask>
<path fill-rule="evenodd" clip-rule="evenodd" d="M165.405 148.485C165.402 148.475 165.4 148.466 165.398 148.456C165.395 148.446 165.393 148.436 165.391 148.426L164.166 143.315C164.164 143.306 164.162 143.298 164.16 143.29C164.158 143.281 164.156 143.273 164.154 143.265L164.151 143.252L164.151 143.252C163.386 140.148 160.257 138.24 157.144 138.986C154.031 139.732 152.107 142.851 152.831 145.964L152.831 145.964L154.196 151.662L154.218 151.657C155.161 154.491 158.135 156.181 161.094 155.472C164.053 154.763 165.938 151.909 165.495 148.955L165.516 148.95L165.405 148.485Z" fill="#77311D"/>
<path d="M165.405 148.485L165.113 148.554L165.114 148.555L165.405 148.485ZM165.398 148.456L165.107 148.525L165.107 148.525L165.398 148.456ZM165.391 148.426L165.099 148.496L165.1 148.497L165.391 148.426ZM164.166 143.315L163.874 143.383L163.875 143.384L164.166 143.315ZM164.16 143.29L163.869 143.359L163.869 143.359L164.16 143.29ZM164.154 143.265L163.863 143.334L163.863 143.336L164.154 143.265ZM164.151 143.252L164.442 143.182L164.372 142.891L164.081 142.96L164.151 143.252ZM164.151 143.252L163.86 143.323L163.931 143.612L164.221 143.543L164.151 143.252ZM157.144 138.986L157.074 138.694L157.074 138.694L157.144 138.986ZM152.831 145.964L152.901 146.255L153.19 146.186L153.123 145.896L152.831 145.964ZM152.831 145.964L152.761 145.673L152.47 145.742L152.54 146.034L152.831 145.964ZM154.196 151.662L153.905 151.732L153.975 152.023L154.266 151.953L154.196 151.662ZM154.218 151.657L154.502 151.562L154.415 151.301L154.148 151.365L154.218 151.657ZM161.094 155.472L161.164 155.763L161.164 155.763L161.094 155.472ZM165.495 148.955L165.425 148.663L165.158 148.727L165.199 148.999L165.495 148.955ZM165.516 148.95L165.586 149.241L165.877 149.171L165.807 148.88L165.516 148.95ZM165.696 148.417C165.694 148.407 165.692 148.396 165.689 148.386L165.107 148.525C165.109 148.535 165.111 148.544 165.113 148.554L165.696 148.417ZM165.689 148.386C165.687 148.375 165.684 148.365 165.682 148.355L165.1 148.497C165.102 148.507 165.104 148.516 165.107 148.525L165.689 148.386ZM163.875 143.384L165.099 148.496L165.682 148.356L164.457 143.245L163.875 143.384ZM164.458 143.246C164.455 143.237 164.453 143.229 164.451 143.22L163.869 143.359C163.871 143.367 163.873 143.375 163.874 143.383L164.458 143.246ZM164.451 143.22C164.449 143.211 164.447 143.202 164.445 143.194L163.863 143.336C163.865 143.344 163.867 143.351 163.869 143.359L164.451 143.22ZM163.86 143.322L163.863 143.334L164.445 143.195L164.442 143.182L163.86 143.322ZM164.221 143.543L164.221 143.543L164.081 142.96L164.081 142.961L164.221 143.543ZM164.442 143.18C163.637 139.917 160.348 137.91 157.074 138.694L157.214 139.277C160.167 138.57 163.134 140.38 163.86 143.323L164.442 143.18ZM157.074 138.694C153.801 139.479 151.778 142.758 152.54 146.032L153.123 145.896C152.436 142.943 154.261 139.985 157.214 139.277L157.074 138.694ZM152.901 146.255L152.901 146.255L152.762 145.673L152.761 145.673L152.901 146.255ZM154.488 151.592L153.122 145.894L152.54 146.034L153.905 151.732L154.488 151.592ZM154.148 151.365L154.126 151.37L154.266 151.953L154.287 151.948L154.148 151.365ZM153.933 151.751C154.926 154.732 158.052 156.508 161.164 155.763L161.024 155.18C158.217 155.853 155.397 154.25 154.502 151.562L153.933 151.751ZM161.164 155.763C164.276 155.017 166.257 152.017 165.791 148.91L165.199 148.999C165.619 151.801 163.831 154.508 161.024 155.18L161.164 155.763ZM165.446 148.658L165.425 148.663L165.565 149.246L165.586 149.241L165.446 148.658ZM165.114 148.555L165.225 149.019L165.807 148.88L165.696 148.415L165.114 148.555Z" fill="#101010" mask="url(#path-34-inside-1_1249_90113)"/>
</g>
<path d="M159.014 150.778C159.384 151.26 159.944 151.795 160.809 151.673C161.674 151.551 162.059 150.955 161.945 150.472" stroke="black" stroke-width="0.299533"/>
<path d="M161.256 143.771C161.68 143.572 162.679 143.389 163.278 144.258" stroke="#101010" stroke-width="0.299533" stroke-linecap="round"/>
<path d="M155.608 145.667C155.764 145.224 156.334 144.385 157.373 144.566" stroke="#101010" stroke-width="0.299533" stroke-linecap="round"/>
<path d="M166.028 143.847C166.028 138.898 163.298 135.551 159.972 135.551C155.712 135.551 151.371 137.149 151.371 144.706C151.371 146.575 152.169 147.968 153.285 148.995C153.174 148.855 153.083 148.73 153.024 148.627C152.807 146.606 155.208 145.056 157.557 143.538C158.804 142.733 160.036 141.936 160.855 141.084C161.573 141.491 163.685 143.197 164.087 143.887C164.303 144.257 164.65 145.524 164.886 147.004C165.66 146.074 166.028 145.144 166.028 143.847Z" fill="white" stroke="black" stroke-width="0.299533"/>
<path d="M160.901 141.035C161.888 140.141 163.364 138.099 163.269 136.773" stroke="black" stroke-width="0.299533"/>
<ellipse cx="157.813" cy="146.625" rx="0.673949" ry="0.748833" transform="rotate(-6.77646 157.813 146.625)" fill="black"/>
<ellipse cx="162.608" cy="145.878" rx="0.673949" ry="0.748833" transform="rotate(-6.27568 162.608 145.878)" fill="black"/>
<circle cx="162.379" cy="145.753" r="1.94696" stroke="#F4D150" stroke-width="0.299533"/>
<circle cx="157.361" cy="146.425" r="1.94696" stroke="#F4D150" stroke-width="0.299533"/>
<path d="M160.507 146.275C160.507 146.116 160.444 145.964 160.331 145.851C160.219 145.739 160.067 145.676 159.908 145.676C159.749 145.676 159.596 145.739 159.484 145.851C159.372 145.964 159.309 146.116 159.309 146.275" stroke="#F4D150" stroke-width="0.299533"/>
<path d="M155.453 146.574L153.206 146.986" stroke="#F4D150" stroke-width="0.299533"/>
<path d="M159.766 146.303C159.781 146.591 159.893 147.208 160.219 147.374C160.626 147.581 160.307 148.269 159.545 148.225" stroke="#101010" stroke-width="0.299533"/>
<path d="M154.211 147.295C154.037 147.238 153.848 147.207 153.656 147.207C152.87 147.207 152.233 147.694 152.308 148.592C152.386 149.528 152.945 149.865 153.731 149.865C153.818 149.865 153.904 149.858 153.987 149.843C154.077 149.827 154.165 149.803 154.249 149.771" stroke="#101010" stroke-width="0.599066"/>
<path d="M154.286 149.756C154.115 149.826 153.928 149.865 153.731 149.865C152.945 149.865 152.386 149.528 152.308 148.592C152.233 147.694 152.87 147.207 153.656 147.207C153.891 147.207 154.119 147.252 154.324 147.337L154.286 149.756Z" fill="#77311D"/>
<path d="M153.987 147.843C153.688 147.706 153.029 147.634 152.789 148.442" stroke="#101010" stroke-width="0.299533"/>
<path d="M153.201 147.879C153.363 148.016 153.673 148.441 153.613 149.04" stroke="#101010" stroke-width="0.299533"/>
<path d="M169.248 162.727H148.781C150.001 160.53 151.737 159.131 154.552 158.489C155.751 158.216 157.148 158.079 158.787 158.079C159.495 158.079 160.046 158.187 160.569 158.33C160.763 158.383 160.957 158.442 161.156 158.502C161.486 158.603 161.828 158.707 162.198 158.792L162.209 158.794L162.219 158.795C165.673 159.08 167.745 160.614 169.248 162.727Z" fill="#9287FF" stroke="black" stroke-width="0.299533"/>
<path d="M153.69 158.655L154.376 157.188C154.392 157.152 154.433 157.136 154.469 157.149C157.309 158.154 159.893 158.083 162.287 157.417C162.317 157.408 162.35 157.419 162.368 157.445L163.411 158.871C163.44 158.911 163.426 158.966 163.38 158.984C160.864 159.972 156.141 159.804 153.727 158.754C153.688 158.737 153.673 158.693 153.69 158.655Z" fill="#E0DDFF" stroke="black" stroke-width="0.299533"/>
</g>
<circle cx="215" cy="147.012" r="14" fill="#AD00FF"/>
<mask id="mask4_1249_90113" style="mask-type:alpha" maskUnits="userSpaceOnUse" x="201" y="133" width="28" height="29">
<circle cx="215" cy="147.012" r="14" fill="#FFEDEF"/>
</mask>
<g mask="url(#mask4_1249_90113)">
<path d="M219.484 160.186C218.405 158.688 217.562 155.044 217.462 153.596L212.332 151.387L210.198 160.186H219.484Z" fill="#FC909F" stroke="black" stroke-width="0.299533"/>
<mask id="mask5_1249_90113" style="mask-type:alpha" maskUnits="userSpaceOnUse" x="210" y="151" width="10" height="10">
<path d="M219.484 160.186C218.405 158.688 217.562 155.044 217.462 153.596L212.332 151.387L210.198 160.186H219.484Z" fill="#FFEDEF"/>
</mask>
<g mask="url(#mask5_1249_90113)">
<ellipse cx="216.88" cy="151.653" rx="4.41811" ry="4.0437" fill="black"/>
</g>
<g clip-path="url(#clip1_1249_90113)">
<path d="M219.162 160.109C218.084 158.611 217.24 155.715 217.141 154.268L212.011 152.059L209.877 160.109H219.162Z" fill="#F9C9B6" stroke="black" stroke-width="0.299533"/>
<mask id="mask6_1249_90113" style="mask-type:alpha" maskUnits="userSpaceOnUse" x="209" y="152" width="11" height="9">
<path d="M219.162 160.857C218.084 159.36 217.24 155.715 217.141 154.268L212.011 152.059L209.877 160.857H219.162Z" fill="#F9C9B6"/>
</mask>
<g mask="url(#mask6_1249_90113)">
<g style="mix-blend-mode:multiply">
<ellipse cx="216.916" cy="151.911" rx="4.41811" ry="4.0437" fill="black"/>
</g>
</g>
<mask id="path-62-inside-2_1249_90113" fill="white">
<path fill-rule="evenodd" clip-rule="evenodd" d="M221.402 147.489C221.4 147.479 221.397 147.469 221.395 147.46C221.393 147.45 221.39 147.44 221.388 147.43L220.163 142.318C220.161 142.31 220.159 142.302 220.157 142.293C220.155 142.285 220.153 142.277 220.151 142.269L220.148 142.256L220.148 142.256C219.383 139.152 216.254 137.244 213.141 137.99C210.028 138.736 208.104 141.854 208.828 144.968L208.828 144.968L210.101 150.278L210.102 150.278C210.896 153.341 214.001 155.216 217.091 154.476C220.181 153.735 222.1 150.657 221.419 147.566L221.42 147.566L221.402 147.489Z"/>
</mask>
<path fill-rule="evenodd" clip-rule="evenodd" d="M221.402 147.489C221.4 147.479 221.397 147.469 221.395 147.46C221.393 147.45 221.39 147.44 221.388 147.43L220.163 142.318C220.161 142.31 220.159 142.302 220.157 142.293C220.155 142.285 220.153 142.277 220.151 142.269L220.148 142.256L220.148 142.256C219.383 139.152 216.254 137.244 213.141 137.99C210.028 138.736 208.104 141.854 208.828 144.968L208.828 144.968L210.101 150.278L210.102 150.278C210.896 153.341 214.001 155.216 217.091 154.476C220.181 153.735 222.1 150.657 221.419 147.566L221.42 147.566L221.402 147.489Z" fill="#F9C9B6"/>
<path d="M221.402 147.489L221.11 147.557L221.111 147.559L221.402 147.489ZM221.388 147.43L221.096 147.5L221.097 147.501L221.388 147.43ZM220.163 142.318L219.871 142.387L219.872 142.388L220.163 142.318ZM220.157 142.293L219.866 142.363L219.866 142.363L220.157 142.293ZM220.151 142.269L219.86 142.338L219.86 142.34L220.151 142.269ZM220.148 142.256L220.439 142.186L220.369 141.895L220.078 141.964L220.148 142.256ZM220.148 142.256L219.857 142.327L219.928 142.616L220.218 142.547L220.148 142.256ZM213.141 137.99L213.071 137.698L213.071 137.698L213.141 137.99ZM208.828 144.968L208.898 145.259L209.188 145.19L209.12 144.9L208.828 144.968ZM208.828 144.968L208.758 144.676L208.467 144.746L208.537 145.038L208.828 144.968ZM210.101 150.278L209.809 150.348L209.879 150.639L210.17 150.57L210.101 150.278ZM210.102 150.278L210.392 150.203L210.318 149.918L210.032 149.987L210.102 150.278ZM217.091 154.476L217.161 154.767L217.161 154.767L217.091 154.476ZM221.419 147.566L221.35 147.275L221.064 147.344L221.127 147.631L221.419 147.566ZM221.42 147.566L221.49 147.858L221.781 147.788L221.712 147.496L221.42 147.566ZM221.694 147.421C221.691 147.41 221.689 147.4 221.686 147.39L221.104 147.529C221.106 147.539 221.108 147.548 221.11 147.557L221.694 147.421ZM221.686 147.39C221.684 147.379 221.681 147.369 221.679 147.359L221.097 147.501C221.099 147.511 221.101 147.52 221.104 147.529L221.686 147.39ZM219.872 142.388L221.096 147.5L221.679 147.36L220.454 142.249L219.872 142.388ZM220.455 142.25C220.453 142.241 220.45 142.232 220.448 142.224L219.866 142.363C219.868 142.371 219.87 142.379 219.871 142.387L220.455 142.25ZM220.448 142.224C220.446 142.215 220.444 142.206 220.442 142.198L219.86 142.34C219.862 142.347 219.864 142.355 219.866 142.363L220.448 142.224ZM219.857 142.325L219.86 142.338L220.442 142.199L220.439 142.186L219.857 142.325ZM220.218 142.547L220.218 142.547L220.078 141.964L220.078 141.964L220.218 142.547ZM220.439 142.184C219.634 138.921 216.345 136.914 213.071 137.698L213.211 138.281C216.164 137.573 219.131 139.384 219.857 142.327L220.439 142.184ZM213.071 137.698C209.798 138.483 207.775 141.762 208.537 145.036L209.12 144.9C208.433 141.947 210.258 138.988 213.211 138.281L213.071 137.698ZM208.898 145.259L208.898 145.259L208.759 144.676L208.758 144.676L208.898 145.259ZM210.392 150.209L209.119 144.898L208.537 145.038L209.809 150.348L210.392 150.209ZM210.032 149.987L210.031 149.987L210.17 150.57L210.171 150.569L210.032 149.987ZM209.812 150.353C210.647 153.574 213.912 155.545 217.161 154.767L217.021 154.184C214.09 154.887 211.145 153.108 210.392 150.203L209.812 150.353ZM217.161 154.767C220.41 153.988 222.427 150.751 221.712 147.502L221.127 147.631C221.772 150.562 219.952 153.482 217.021 154.184L217.161 154.767ZM221.351 147.275L221.35 147.275L221.489 147.858L221.49 147.858L221.351 147.275ZM221.111 147.559L221.129 147.636L221.712 147.496L221.693 147.419L221.111 147.559Z" fill="black" mask="url(#path-62-inside-2_1249_90113)"/>
</g>
<path d="M214.226 149.277C214.413 150.55 216.547 151.149 218.494 149.689" stroke="black" stroke-width="0.299533"/>
<path d="M217.254 142.771C217.678 142.572 218.677 142.389 219.276 143.258" stroke="black" stroke-width="0.299533" stroke-linecap="round"/>
<path d="M211.607 144.667C211.762 144.224 212.332 143.385 213.371 143.566" stroke="black" stroke-width="0.299533" stroke-linecap="round"/>
<path d="M214.617 136.607L214.617 136.608L214.628 136.608C216.625 136.667 218.178 137.461 219.276 138.431C220.329 139.361 220.957 140.444 221.162 141.182C220.858 141.355 220.338 141.505 219.673 141.627C218.949 141.761 218.079 141.858 217.191 141.928C215.416 142.067 213.583 142.093 212.726 142.074L212.271 142.065L212.631 142.343C212.818 142.487 213.067 142.588 213.331 142.659C213.596 142.73 213.886 142.773 214.164 142.798C214.451 142.824 214.73 142.83 214.961 142.824C214.168 143.435 213.159 143.905 212.164 144.253C211.015 144.656 209.898 144.892 209.182 144.996L209.021 145.02L209.058 145.178C209.308 146.259 209.769 148.148 210.078 149.414C210.215 149.976 210.322 150.416 210.368 150.608C210.449 150.949 210.705 151.435 210.997 151.883C211.266 152.297 211.58 152.699 211.845 152.946L211.258 155.329H209.044C209.668 154.377 209.8 153.277 209.673 152.11C209.535 150.847 209.092 149.489 208.624 148.129C208.578 147.995 208.532 147.861 208.486 147.727C208.06 146.495 207.636 145.265 207.406 144.087C207.151 142.783 207.14 141.562 207.618 140.488C208.392 138.75 209.765 137.74 211.137 137.184C212.513 136.626 213.88 136.529 214.617 136.607Z" fill="white" stroke="black" stroke-width="0.299533"/>
<ellipse cx="213.811" cy="145.625" rx="0.673949" ry="0.748833" transform="rotate(-6.77646 213.811 145.625)" fill="black"/>
<ellipse cx="218.606" cy="144.878" rx="0.673949" ry="0.748833" transform="rotate(-6.27568 218.606 144.878)" fill="black"/>
<path d="M215.722 145.006C215.868 146.045 216.502 146.787 216.502 146.787C216.502 146.787 216.305 147.269 215.542 147.225" stroke="black" stroke-width="0.299533"/>
<path d="M210.696 146.45V146.367L210.625 146.323C210.345 146.151 210.005 146.057 209.654 146.057C209.231 146.057 208.836 146.188 208.554 146.454C208.269 146.722 208.116 147.115 208.157 147.605C208.196 148.082 208.356 148.433 208.622 148.666C208.6 148.741 208.594 148.822 208.604 148.907C208.633 149.152 208.757 149.328 208.948 149.437C209.13 149.54 209.364 149.577 209.612 149.577C210.022 149.577 210.382 149.356 210.656 149.061L210.696 149.018V148.959V146.45Z" stroke="#101010" stroke-width="0.299533"/>
<path fill-rule="evenodd" clip-rule="evenodd" d="M211.144 147.629C211.15 147.58 211.152 147.53 211.152 147.48C211.152 146.715 210.44 146.207 209.655 146.207C208.869 146.207 208.232 146.694 208.307 147.592C208.348 148.092 208.527 148.421 208.805 148.62C208.761 148.696 208.741 148.786 208.754 148.889C208.801 149.285 209.138 149.427 209.613 149.427C210.445 149.427 211.103 148.375 211.144 147.629Z" fill="#F9C9B6"/>
<path d="M209.985 146.843C209.686 146.706 209.027 146.634 208.787 147.442" stroke="black" stroke-width="0.299533"/>
<path d="M209.199 146.879C209.361 147.016 209.671 147.441 209.611 148.04" stroke="black" stroke-width="0.299533"/>
<path d="M225.246 161.727H204.779C205.999 159.53 207.735 158.131 210.55 157.489C211.749 157.216 213.146 157.079 214.785 157.079C215.493 157.079 216.044 157.187 216.567 157.33C216.761 157.383 216.955 157.442 217.155 157.502C217.484 157.603 217.826 157.707 218.196 157.792L218.207 157.794L218.217 157.795C221.671 158.08 223.743 159.614 225.246 161.727Z" fill="#77311D" stroke="black" stroke-width="0.299533"/>
<path d="M209.688 157.655L210.374 156.188C210.39 156.152 210.431 156.136 210.467 156.149C213.307 157.154 215.891 157.083 218.285 156.417C218.316 156.408 218.348 156.419 218.366 156.445L219.409 157.871C219.438 157.911 219.424 157.966 219.378 157.984C216.862 158.972 212.139 158.804 209.725 157.754C209.686 157.737 209.671 157.693 209.688 157.655Z" fill="white" stroke="black" stroke-width="0.299533"/>
</g>
<circle cx="66" cy="110.012" r="49.5" stroke="#6420FF"/>
<path d="M51.043 105.156C50.267 105.156 49.555 104.976 48.907 104.616C48.267 104.248 47.759 103.752 47.383 103.128C47.015 102.504 46.831 101.812 46.831 101.052C46.831 100.292 47.015 99.5997 47.383 98.9757C47.759 98.3517 48.271 97.8597 48.919 97.4997C49.567 97.1317 50.279 96.9477 51.055 96.9477C51.663 96.9477 52.235 97.0717 52.771 97.3197C53.315 97.5597 53.763 97.8917 54.115 98.3157C54.283 98.5077 54.367 98.7077 54.367 98.9157C54.367 99.1157 54.291 99.2877 54.139 99.4317C53.995 99.5757 53.819 99.6477 53.611 99.6477C53.379 99.6477 53.171 99.5437 52.987 99.3357C52.475 98.7437 51.831 98.4477 51.055 98.4477C50.567 98.4477 50.127 98.5597 49.735 98.7837C49.351 99.0077 49.047 99.3197 48.823 99.7197C48.607 100.112 48.499 100.56 48.499 101.064C48.499 101.56 48.607 102.008 48.823 102.408C49.047 102.8 49.351 103.108 49.735 103.332C50.127 103.548 50.567 103.656 51.055 103.656C51.815 103.656 52.455 103.36 52.975 102.768C53.167 102.56 53.379 102.456 53.611 102.456C53.819 102.456 53.995 102.528 54.139 102.672C54.283 102.816 54.355 102.988 54.355 103.188C54.355 103.388 54.271 103.588 54.103 103.788C53.751 104.212 53.303 104.548 52.759 104.796C52.223 105.036 51.651 105.156 51.043 105.156ZM58.8517 98.9997C59.0677 98.9997 59.2437 99.0677 59.3797 99.2037C59.5157 99.3317 59.5837 99.5077 59.5837 99.7317C59.5837 99.9477 59.5157 100.128 59.3797 100.272C59.2437 100.408 59.0597 100.488 58.8277 100.512C58.3957 100.544 58.0557 100.696 57.8077 100.968C57.5597 101.232 57.4357 101.592 57.4357 102.048V104.328C57.4357 104.568 57.3597 104.768 57.2077 104.928C57.0557 105.08 56.8637 105.156 56.6317 105.156C56.3997 105.156 56.2037 105.076 56.0437 104.916C55.8917 104.756 55.8157 104.56 55.8157 104.328V99.7557C55.8157 99.5237 55.8917 99.3317 56.0437 99.1797C56.1957 99.0197 56.3877 98.9397 56.6197 98.9397C56.8277 98.9397 57.0037 99.0117 57.1477 99.1557C57.2997 99.2917 57.3837 99.4637 57.3997 99.6717C57.5917 99.4557 57.8117 99.2917 58.0597 99.1797C58.3077 99.0597 58.5717 98.9997 58.8517 98.9997ZM63.0989 98.9397C63.6349 98.9397 64.1149 99.0597 64.5389 99.2997C64.9709 99.5397 65.3069 99.8717 65.5469 100.296C65.7949 100.72 65.9189 101.196 65.9189 101.724V101.76C65.9189 102.008 65.8349 102.208 65.6669 102.36C65.5069 102.512 65.2949 102.588 65.0309 102.588H61.6469C61.7429 102.964 61.9349 103.256 62.2229 103.464C62.5109 103.664 62.8749 103.764 63.3149 103.764C63.7709 103.764 64.1829 103.648 64.5509 103.416C64.6709 103.344 64.7869 103.308 64.8989 103.308C65.0829 103.308 65.2389 103.372 65.3669 103.5C65.4949 103.62 65.5589 103.772 65.5589 103.956C65.5589 104.092 65.5269 104.212 65.4629 104.316C65.3989 104.412 65.2949 104.508 65.1509 104.604C64.5989 104.972 63.9709 105.156 63.2669 105.156C62.6509 105.156 62.0949 105.02 61.5989 104.748C61.1029 104.476 60.7149 104.104 60.4349 103.632C60.1549 103.16 60.0149 102.632 60.0149 102.048C60.0149 101.472 60.1469 100.948 60.4109 100.476C60.6829 99.9957 61.0549 99.6197 61.5269 99.3477C61.9989 99.0757 62.5229 98.9397 63.0989 98.9397ZM63.0629 100.248C62.7109 100.248 62.4069 100.356 62.1509 100.572C61.9029 100.788 61.7349 101.08 61.6469 101.448H64.3469C64.3309 101.088 64.2069 100.8 63.9749 100.584C63.7429 100.36 63.4389 100.248 63.0629 100.248ZM69.5949 98.9397C70.4109 98.9397 71.0429 99.1637 71.4909 99.6117C71.9389 100.052 72.1629 100.676 72.1629 101.484V104.34C72.1629 104.572 72.0869 104.764 71.9349 104.916C71.7909 105.068 71.6069 105.144 71.3829 105.144C71.1909 105.144 71.0229 105.088 70.8789 104.976C70.7349 104.856 70.6429 104.704 70.6029 104.52C70.1549 104.944 69.5749 105.156 68.8629 105.156C68.2549 105.156 67.7589 104.992 67.3749 104.664C66.9989 104.336 66.8109 103.908 66.8109 103.38C66.8109 102.844 67.0109 102.424 67.4109 102.12C67.8109 101.808 68.3589 101.652 69.0549 101.652H70.5429V101.388C70.5429 101.06 70.4469 100.804 70.2549 100.62C70.0629 100.436 69.7869 100.344 69.4269 100.344C69.0109 100.344 68.6309 100.492 68.2869 100.788C68.1189 100.916 67.9589 100.98 67.8069 100.98C67.6069 100.98 67.4389 100.916 67.3029 100.788C67.1749 100.66 67.1109 100.504 67.1109 100.32C67.1109 100.096 67.2229 99.8797 67.4469 99.6717C67.6949 99.4397 68.0069 99.2597 68.3829 99.1317C68.7589 99.0037 69.1629 98.9397 69.5949 98.9397ZM69.2949 103.968C69.6469 103.968 69.9429 103.856 70.1829 103.632C70.4229 103.408 70.5429 103.128 70.5429 102.792V102.72H69.2709C68.7189 102.72 68.4429 102.92 68.4429 103.32C68.4429 103.52 68.5189 103.68 68.6709 103.8C68.8229 103.912 69.0309 103.968 69.2949 103.968ZM76.962 103.692C77.178 103.692 77.35 103.752 77.478 103.872C77.606 103.992 77.67 104.152 77.67 104.352C77.67 104.496 77.634 104.624 77.562 104.736C77.49 104.848 77.39 104.936 77.262 105C77.014 105.104 76.734 105.156 76.422 105.156C75.646 105.156 75.054 104.968 74.646 104.592C74.246 104.208 74.046 103.652 74.046 102.924V100.44H73.71C73.51 100.44 73.342 100.376 73.206 100.248C73.078 100.12 73.014 99.9557 73.014 99.7557C73.014 99.5557 73.078 99.3917 73.206 99.2637C73.342 99.1357 73.51 99.0717 73.71 99.0717H74.046V98.2557C74.046 98.0237 74.122 97.8317 74.274 97.6797C74.426 97.5197 74.622 97.4397 74.862 97.4397C75.094 97.4397 75.286 97.5197 75.438 97.6797C75.59 97.8317 75.666 98.0237 75.666 98.2557V99.0717H76.758C76.958 99.0717 77.122 99.1357 77.25 99.2637C77.378 99.3917 77.442 99.5557 77.442 99.7557C77.442 99.9557 77.378 100.12 77.25 100.248C77.122 100.376 76.958 100.44 76.758 100.44H75.666V102.78C75.666 103.108 75.75 103.344 75.918 103.488C76.086 103.632 76.358 103.704 76.734 103.704L76.962 103.692ZM81.345 98.9397C81.881 98.9397 82.361 99.0597 82.785 99.2997C83.217 99.5397 83.553 99.8717 83.793 100.296C84.041 100.72 84.165 101.196 84.165 101.724V101.76C84.165 102.008 84.081 102.208 83.913 102.36C83.753 102.512 83.541 102.588 83.277 102.588H79.893C79.989 102.964 80.181 103.256 80.469 103.464C80.757 103.664 81.121 103.764 81.561 103.764C82.017 103.764 82.429 103.648 82.797 103.416C82.917 103.344 83.033 103.308 83.145 103.308C83.329 103.308 83.485 103.372 83.613 103.5C83.741 103.62 83.805 103.772 83.805 103.956C83.805 104.092 83.773 104.212 83.709 104.316C83.645 104.412 83.541 104.508 83.397 104.604C82.845 104.972 82.217 105.156 81.513 105.156C80.897 105.156 80.341 105.02 79.845 104.748C79.349 104.476 78.961 104.104 78.681 103.632C78.401 103.16 78.261 102.632 78.261 102.048C78.261 101.472 78.393 100.948 78.657 100.476C78.929 99.9957 79.301 99.6197 79.773 99.3477C80.245 99.0757 80.769 98.9397 81.345 98.9397ZM81.309 100.248C80.957 100.248 80.653 100.356 80.397 100.572C80.149 100.788 79.981 101.08 79.893 101.448H82.593C82.577 101.088 82.453 100.8 82.221 100.584C81.989 100.36 81.685 100.248 81.309 100.248ZM46.9074 123.156C46.6754 123.156 46.4794 123.076 46.3194 122.916C46.1674 122.756 46.0914 122.56 46.0914 122.328V115.92C46.0914 115.68 46.1674 115.484 46.3194 115.332C46.4794 115.172 46.6794 115.092 46.9194 115.092H49.0794C49.6394 115.092 50.1314 115.2 50.5554 115.416C50.9874 115.624 51.3234 115.924 51.5634 116.316C51.8034 116.7 51.9234 117.144 51.9234 117.648C51.9234 118.144 51.8034 118.588 51.5634 118.98C51.3234 119.372 50.9874 119.676 50.5554 119.892C50.1234 120.108 49.6314 120.216 49.0794 120.216H47.7114V122.328C47.7114 122.56 47.6314 122.756 47.4714 122.916C47.3194 123.076 47.1314 123.156 46.9074 123.156ZM49.0674 118.8C49.4354 118.8 49.7274 118.696 49.9434 118.488C50.1594 118.28 50.2674 118 50.2674 117.648C50.2674 117.304 50.1594 117.032 49.9434 116.832C49.7274 116.624 49.4354 116.52 49.0674 116.52H47.7114V118.8H49.0674ZM56.1447 117C56.3607 117 56.5367 117.068 56.6727 117.204C56.8087 117.332 56.8767 117.508 56.8767 117.732C56.8767 117.948 56.8087 118.128 56.6727 118.272C56.5367 118.408 56.3527 118.488 56.1207 118.512C55.6887 118.544 55.3487 118.696 55.1007 118.968C54.8527 119.232 54.7287 119.592 54.7287 120.048V122.328C54.7287 122.568 54.6527 122.768 54.5007 122.928C54.3487 123.08 54.1567 123.156 53.9247 123.156C53.6927 123.156 53.4967 123.076 53.3367 122.916C53.1847 122.756 53.1087 122.56 53.1087 122.328V117.756C53.1087 117.524 53.1847 117.332 53.3367 117.18C53.4887 117.02 53.6807 116.94 53.9127 116.94C54.1207 116.94 54.2967 117.012 54.4407 117.156C54.5927 117.292 54.6767 117.464 54.6927 117.672C54.8847 117.456 55.1047 117.292 55.3527 117.18C55.6007 117.06 55.8647 117 56.1447 117ZM60.4878 116.94C61.0718 116.94 61.6078 117.08 62.0958 117.36C62.5838 117.632 62.9678 118.004 63.2478 118.476C63.5358 118.948 63.6798 119.468 63.6798 120.036C63.6798 120.604 63.5358 121.128 63.2478 121.608C62.9678 122.08 62.5798 122.456 62.0838 122.736C61.5958 123.008 61.0598 123.144 60.4758 123.144C59.8918 123.144 59.3558 123.008 58.8678 122.736C58.3878 122.456 58.0078 122.08 57.7278 121.608C57.4478 121.128 57.3078 120.604 57.3078 120.036C57.3078 119.468 57.4478 118.948 57.7278 118.476C58.0078 117.996 58.3918 117.62 58.8798 117.348C59.3678 117.076 59.9038 116.94 60.4878 116.94ZM60.4878 118.416C60.0398 118.416 59.6718 118.572 59.3838 118.884C59.0958 119.188 58.9518 119.576 58.9518 120.048C58.9518 120.512 59.0958 120.896 59.3838 121.2C59.6718 121.504 60.0398 121.656 60.4878 121.656C60.9278 121.656 61.2918 121.504 61.5798 121.2C61.8758 120.896 62.0238 120.512 62.0238 120.048C62.0238 119.584 61.8758 119.196 61.5798 118.884C61.2918 118.572 60.9278 118.416 60.4878 118.416ZM64.3446 125.316C64.1206 125.316 63.9006 125.28 63.6846 125.208C63.5326 125.144 63.4126 125.056 63.3246 124.944C63.2366 124.832 63.1926 124.7 63.1926 124.548C63.1926 124.348 63.2566 124.18 63.3846 124.044C63.5126 123.916 63.6766 123.852 63.8766 123.852L64.0326 123.864C64.3526 123.864 64.5846 123.784 64.7286 123.624C64.8726 123.472 64.9446 123.196 64.9446 122.796V117.756C64.9446 117.524 65.0206 117.332 65.1726 117.18C65.3326 117.02 65.5286 116.94 65.7606 116.94C65.9926 116.94 66.1846 117.02 66.3366 117.18C66.4886 117.332 66.5646 117.524 66.5646 117.756V123.084C66.5646 123.804 66.3646 124.356 65.9646 124.74C65.5726 125.124 65.0326 125.316 64.3446 125.316ZM65.7486 113.928C66.0286 113.928 66.2686 114.024 66.4686 114.216C66.6686 114.408 66.7686 114.64 66.7686 114.912C66.7686 115.184 66.6686 115.416 66.4686 115.608C66.2686 115.792 66.0286 115.884 65.7486 115.884C65.4686 115.884 65.2286 115.792 65.0286 115.608C64.8366 115.416 64.7406 115.184 64.7406 114.912C64.7406 114.64 64.8366 114.408 65.0286 114.216C65.2286 114.024 65.4686 113.928 65.7486 113.928ZM70.9153 116.94C71.4513 116.94 71.9313 117.06 72.3553 117.3C72.7873 117.54 73.1233 117.872 73.3633 118.296C73.6113 118.72 73.7353 119.196 73.7353 119.724V119.76C73.7353 120.008 73.6513 120.208 73.4833 120.36C73.3233 120.512 73.1113 120.588 72.8473 120.588H69.4633C69.5593 120.964 69.7513 121.256 70.0393 121.464C70.3273 121.664 70.6913 121.764 71.1313 121.764C71.5873 121.764 71.9993 121.648 72.3673 121.416C72.4873 121.344 72.6033 121.308 72.7153 121.308C72.8993 121.308 73.0553 121.372 73.1833 121.5C73.3113 121.62 73.3753 121.772 73.3753 121.956C73.3753 122.092 73.3433 122.212 73.2793 122.316C73.2153 122.412 73.1113 122.508 72.9673 122.604C72.4153 122.972 71.7873 123.156 71.0833 123.156C70.4673 123.156 69.9113 123.02 69.4153 122.748C68.9193 122.476 68.5313 122.104 68.2513 121.632C67.9713 121.16 67.8313 120.632 67.8313 120.048C67.8313 119.472 67.9633 118.948 68.2273 118.476C68.4993 117.996 68.8713 117.62 69.3433 117.348C69.8153 117.076 70.3393 116.94 70.9153 116.94ZM70.8793 118.248C70.5273 118.248 70.2233 118.356 69.9673 118.572C69.7193 118.788 69.5513 119.08 69.4633 119.448H72.1633C72.1473 119.088 72.0233 118.8 71.7913 118.584C71.5593 118.36 71.2553 118.248 70.8793 118.248ZM77.8433 123.156C77.2593 123.156 76.7233 123.02 76.2353 122.748C75.7473 122.468 75.3633 122.088 75.0833 121.608C74.8033 121.128 74.6633 120.604 74.6633 120.036C74.6633 119.468 74.8033 118.948 75.0833 118.476C75.3633 117.996 75.7473 117.62 76.2353 117.348C76.7233 117.076 77.2593 116.94 77.8433 116.94C78.3393 116.94 78.8033 117.048 79.2353 117.264C79.6753 117.48 80.0113 117.764 80.2433 118.116C80.3393 118.268 80.3873 118.412 80.3873 118.548C80.3873 118.748 80.3153 118.92 80.1713 119.064C80.0353 119.2 79.8673 119.268 79.6673 119.268C79.4353 119.268 79.2513 119.184 79.1153 119.016C78.7793 118.616 78.3633 118.416 77.8673 118.416C77.4113 118.416 77.0353 118.568 76.7393 118.872C76.4513 119.176 76.3073 119.564 76.3073 120.036C76.3073 120.516 76.4513 120.908 76.7393 121.212C77.0353 121.516 77.4113 121.668 77.8673 121.668C78.3393 121.668 78.7553 121.468 79.1153 121.068C79.2593 120.9 79.4433 120.816 79.6673 120.816C79.8673 120.816 80.0353 120.888 80.1713 121.032C80.3153 121.168 80.3873 121.336 80.3873 121.536C80.3873 121.672 80.3433 121.808 80.2553 121.944C80.0073 122.328 79.6713 122.628 79.2473 122.844C78.8313 123.052 78.3633 123.156 77.8433 123.156ZM84.8604 121.692C85.0764 121.692 85.2484 121.752 85.3764 121.872C85.5044 121.992 85.5684 122.152 85.5684 122.352C85.5684 122.496 85.5324 122.624 85.4604 122.736C85.3884 122.848 85.2884 122.936 85.1604 123C84.9124 123.104 84.6324 123.156 84.3204 123.156C83.5444 123.156 82.9524 122.968 82.5444 122.592C82.1444 122.208 81.9444 121.652 81.9444 120.924V118.44H81.6084C81.4084 118.44 81.2404 118.376 81.1044 118.248C80.9764 118.12 80.9124 117.956 80.9124 117.756C80.9124 117.556 80.9764 117.392 81.1044 117.264C81.2404 117.136 81.4084 117.072 81.6084 117.072H81.9444V116.256C81.9444 116.024 82.0204 115.832 82.1724 115.68C82.3244 115.52 82.5204 115.44 82.7604 115.44C82.9924 115.44 83.1844 115.52 83.3364 115.68C83.4884 115.832 83.5644 116.024 83.5644 116.256V117.072H84.6564C84.8564 117.072 85.0204 117.136 85.1484 117.264C85.2764 117.392 85.3404 117.556 85.3404 117.756C85.3404 117.956 85.2764 118.12 85.1484 118.248C85.0204 118.376 84.8564 118.44 84.6564 118.44H83.5644V120.78C83.5644 121.108 83.6484 121.344 83.8164 121.488C83.9844 121.632 84.2564 121.704 84.6324 121.704L84.8604 121.692Z" fill="#101010"/>
<rect x="0.5" y="110.512" width="25.2778" height="21" rx="3.16667" fill="white" stroke="#D2D2D2"/>
<circle cx="6.72222" cy="116.734" r="1.22222" fill="#6420FF"/>
<circle cx="6.72222" cy="121.011" r="1.22222" fill="#6420FF"/>
<circle cx="6.72222" cy="125.289" r="1.22222" fill="#6420FF"/>
<rect x="9.77734" y="120.402" width="10.3889" height="1.22222" rx="0.611111" fill="#6420FF"/>
<rect x="9.77734" y="116.121" width="10.3889" height="1.22222" rx="0.611111" fill="#6420FF"/>
<rect x="9.77734" y="124.68" width="10.3889" height="1.22222" rx="0.611111" fill="#6420FF"/>
<rect x="26.5" y="143.512" width="25.2778" height="21" rx="3.16667" fill="white" stroke="#D2D2D2"/>
<circle cx="32.7222" cy="149.734" r="1.22222" fill="#6420FF"/>
<circle cx="32.7222" cy="154.011" r="1.22222" fill="#6420FF"/>
<circle cx="32.7222" cy="158.289" r="1.22222" fill="#6420FF"/>
<rect x="35.7773" y="153.402" width="10.3889" height="1.22222" rx="0.611111" fill="#6420FF"/>
<rect x="35.7773" y="149.121" width="10.3889" height="1.22222" rx="0.611111" fill="#6420FF"/>
<rect x="35.7773" y="157.68" width="10.3889" height="1.22222" rx="0.611111" fill="#6420FF"/>
<rect x="81.5" y="140.512" width="25.2778" height="21" rx="3.16667" fill="white" stroke="#D2D2D2"/>
<circle cx="87.7222" cy="146.734" r="1.22222" fill="#6420FF"/>
<circle cx="87.7222" cy="151.011" r="1.22222" fill="#6420FF"/>
<circle cx="87.7222" cy="155.289" r="1.22222" fill="#6420FF"/>
<rect x="90.7773" y="150.402" width="10.3889" height="1.22222" rx="0.611111" fill="#6420FF"/>
<rect x="90.7773" y="146.121" width="10.3889" height="1.22222" rx="0.611111" fill="#6420FF"/>
<rect x="90.7773" y="154.68" width="10.3889" height="1.22222" rx="0.611111" fill="#6420FF"/>
<defs>
<linearGradient id="paint0_linear_1249_90113" x1="362.333" y1="104.782" x2="278.483" y2="104.08" gradientUnits="userSpaceOnUse">
<stop stop-color="#6420FF" stop-opacity="0"/>
<stop offset="1" stop-color="#6420FF"/>
</linearGradient>
<linearGradient id="paint1_linear_1249_90113" x1="468.189" y1="0.613281" x2="468.189" y2="73.7332" gradientUnits="userSpaceOnUse">
<stop stop-color="white"/>
<stop offset="1" stop-color="white" stop-opacity="0"/>
</linearGradient>
<clipPath id="clip0_1249_90113">
<rect width="14.7129" height="24.2763" fill="white" transform="translate(151.634 137.18)"/>
</clipPath>
<clipPath id="clip1_1249_90113">
<rect width="14.7129" height="23.5407" fill="white" transform="translate(207.631 136.184)"/>
</clipPath>
</defs>
</svg>
