<svg width="341" height="507" viewBox="0 0 341 507" fill="none" xmlns="http://www.w3.org/2000/svg">
<circle cx="157.695" cy="429" r="61.25" stroke="#6420FF" stroke-width="1.5"/>
<path d="M138.444 422.206C137.409 422.206 136.46 421.966 135.596 421.486C134.742 420.995 134.065 420.334 133.564 419.502C133.073 418.67 132.828 417.747 132.828 416.734C132.828 415.72 133.073 414.798 133.564 413.966C134.065 413.134 134.748 412.478 135.612 411.998C136.476 411.507 137.425 411.262 138.46 411.262C139.27 411.262 140.033 411.427 140.748 411.758C141.473 412.078 142.07 412.52 142.54 413.086C142.764 413.342 142.876 413.608 142.876 413.886C142.876 414.152 142.774 414.382 142.572 414.574C142.38 414.766 142.145 414.862 141.868 414.862C141.558 414.862 141.281 414.723 141.036 414.446C140.353 413.656 139.494 413.262 138.46 413.262C137.809 413.262 137.222 413.411 136.7 413.71C136.188 414.008 135.782 414.424 135.484 414.958C135.196 415.48 135.052 416.078 135.052 416.75C135.052 417.411 135.196 418.008 135.484 418.542C135.782 419.064 136.188 419.475 136.7 419.774C137.222 420.062 137.809 420.206 138.46 420.206C139.473 420.206 140.326 419.811 141.02 419.022C141.276 418.744 141.558 418.606 141.868 418.606C142.145 418.606 142.38 418.702 142.572 418.894C142.764 419.086 142.86 419.315 142.86 419.582C142.86 419.848 142.748 420.115 142.524 420.382C142.054 420.947 141.457 421.395 140.732 421.726C140.017 422.046 139.254 422.206 138.444 422.206ZM148.855 413.998C149.143 413.998 149.378 414.088 149.559 414.27C149.74 414.44 149.831 414.675 149.831 414.974C149.831 415.262 149.74 415.502 149.559 415.694C149.378 415.875 149.132 415.982 148.823 416.014C148.247 416.056 147.794 416.259 147.463 416.622C147.132 416.974 146.967 417.454 146.967 418.062V421.102C146.967 421.422 146.866 421.688 146.663 421.902C146.46 422.104 146.204 422.206 145.895 422.206C145.586 422.206 145.324 422.099 145.111 421.886C144.908 421.672 144.807 421.411 144.807 421.102V415.006C144.807 414.696 144.908 414.44 145.111 414.238C145.314 414.024 145.57 413.918 145.879 413.918C146.156 413.918 146.391 414.014 146.583 414.206C146.786 414.387 146.898 414.616 146.919 414.894C147.175 414.606 147.468 414.387 147.799 414.238C148.13 414.078 148.482 413.998 148.855 413.998ZM154.518 413.918C155.233 413.918 155.873 414.078 156.438 414.398C157.014 414.718 157.462 415.16 157.782 415.726C158.113 416.291 158.278 416.926 158.278 417.63V417.678C158.278 418.008 158.166 418.275 157.942 418.478C157.729 418.68 157.446 418.782 157.094 418.782H152.582C152.71 419.283 152.966 419.672 153.35 419.95C153.734 420.216 154.219 420.35 154.806 420.35C155.414 420.35 155.963 420.195 156.454 419.886C156.614 419.79 156.769 419.742 156.918 419.742C157.163 419.742 157.371 419.827 157.542 419.998C157.713 420.158 157.798 420.36 157.798 420.606C157.798 420.787 157.755 420.947 157.67 421.086C157.585 421.214 157.446 421.342 157.254 421.47C156.518 421.96 155.681 422.206 154.742 422.206C153.921 422.206 153.179 422.024 152.518 421.662C151.857 421.299 151.339 420.803 150.966 420.174C150.593 419.544 150.406 418.84 150.406 418.062C150.406 417.294 150.582 416.595 150.934 415.966C151.297 415.326 151.793 414.824 152.422 414.462C153.051 414.099 153.75 413.918 154.518 413.918ZM154.47 415.662C154.001 415.662 153.595 415.806 153.254 416.094C152.923 416.382 152.699 416.771 152.582 417.262H156.182C156.161 416.782 155.995 416.398 155.686 416.11C155.377 415.811 154.971 415.662 154.47 415.662ZM163.179 413.918C164.267 413.918 165.11 414.216 165.707 414.814C166.305 415.4 166.603 416.232 166.603 417.31V421.118C166.603 421.427 166.502 421.683 166.299 421.886C166.107 422.088 165.862 422.19 165.563 422.19C165.307 422.19 165.083 422.115 164.891 421.966C164.699 421.806 164.577 421.603 164.523 421.358C163.926 421.923 163.153 422.206 162.203 422.206C161.393 422.206 160.731 421.987 160.219 421.55C159.718 421.112 159.467 420.542 159.467 419.838C159.467 419.123 159.734 418.563 160.267 418.158C160.801 417.742 161.531 417.534 162.459 417.534H164.443V417.182C164.443 416.744 164.315 416.403 164.059 416.158C163.803 415.912 163.435 415.79 162.955 415.79C162.401 415.79 161.894 415.987 161.435 416.382C161.211 416.552 160.998 416.638 160.795 416.638C160.529 416.638 160.305 416.552 160.123 416.382C159.953 416.211 159.867 416.003 159.867 415.758C159.867 415.459 160.017 415.171 160.315 414.894C160.646 414.584 161.062 414.344 161.563 414.174C162.065 414.003 162.603 413.918 163.179 413.918ZM162.779 420.622C163.249 420.622 163.643 420.472 163.963 420.174C164.283 419.875 164.443 419.502 164.443 419.054V418.958H162.747C162.011 418.958 161.643 419.224 161.643 419.758C161.643 420.024 161.745 420.238 161.947 420.398C162.15 420.547 162.427 420.622 162.779 420.622ZM173.002 420.254C173.29 420.254 173.519 420.334 173.69 420.494C173.861 420.654 173.946 420.867 173.946 421.134C173.946 421.326 173.898 421.496 173.802 421.646C173.706 421.795 173.573 421.912 173.402 421.998C173.071 422.136 172.698 422.206 172.282 422.206C171.247 422.206 170.458 421.955 169.914 421.454C169.381 420.942 169.114 420.2 169.114 419.23V415.918H168.666C168.399 415.918 168.175 415.832 167.994 415.662C167.823 415.491 167.738 415.272 167.738 415.006C167.738 414.739 167.823 414.52 167.994 414.35C168.175 414.179 168.399 414.094 168.666 414.094H169.114V413.006C169.114 412.696 169.215 412.44 169.418 412.238C169.621 412.024 169.882 411.918 170.202 411.918C170.511 411.918 170.767 412.024 170.97 412.238C171.173 412.44 171.274 412.696 171.274 413.006V414.094H172.73C172.997 414.094 173.215 414.179 173.386 414.35C173.557 414.52 173.642 414.739 173.642 415.006C173.642 415.272 173.557 415.491 173.386 415.662C173.215 415.832 172.997 415.918 172.73 415.918H171.274V419.038C171.274 419.475 171.386 419.79 171.61 419.982C171.834 420.174 172.197 420.27 172.698 420.27L173.002 420.254ZM178.846 413.918C179.561 413.918 180.201 414.078 180.766 414.398C181.342 414.718 181.79 415.16 182.11 415.726C182.441 416.291 182.606 416.926 182.606 417.63V417.678C182.606 418.008 182.494 418.275 182.27 418.478C182.057 418.68 181.774 418.782 181.422 418.782H176.91C177.038 419.283 177.294 419.672 177.678 419.95C178.062 420.216 178.547 420.35 179.134 420.35C179.742 420.35 180.291 420.195 180.782 419.886C180.942 419.79 181.097 419.742 181.246 419.742C181.491 419.742 181.699 419.827 181.87 419.998C182.041 420.158 182.126 420.36 182.126 420.606C182.126 420.787 182.083 420.947 181.998 421.086C181.913 421.214 181.774 421.342 181.582 421.47C180.846 421.96 180.009 422.206 179.07 422.206C178.249 422.206 177.507 422.024 176.846 421.662C176.185 421.299 175.667 420.803 175.294 420.174C174.921 419.544 174.734 418.84 174.734 418.062C174.734 417.294 174.91 416.595 175.262 415.966C175.625 415.326 176.121 414.824 176.75 414.462C177.379 414.099 178.078 413.918 178.846 413.918ZM178.798 415.662C178.329 415.662 177.923 415.806 177.582 416.094C177.251 416.382 177.027 416.771 176.91 417.262H180.51C180.489 416.782 180.323 416.398 180.014 416.11C179.705 415.811 179.299 415.662 178.798 415.662ZM132.929 446.206C132.62 446.206 132.359 446.099 132.145 445.886C131.943 445.672 131.841 445.411 131.841 445.102V436.558C131.841 436.238 131.943 435.976 132.145 435.774C132.359 435.56 132.625 435.454 132.945 435.454H135.825C136.572 435.454 137.228 435.598 137.793 435.886C138.369 436.163 138.817 436.563 139.137 437.086C139.457 437.598 139.617 438.19 139.617 438.862C139.617 439.523 139.457 440.115 139.137 440.638C138.817 441.16 138.369 441.566 137.793 441.854C137.217 442.142 136.561 442.286 135.825 442.286H134.001V445.102C134.001 445.411 133.895 445.672 133.681 445.886C133.479 446.099 133.228 446.206 132.929 446.206ZM135.809 440.398C136.3 440.398 136.689 440.259 136.977 439.982C137.265 439.704 137.409 439.331 137.409 438.862C137.409 438.403 137.265 438.04 136.977 437.774C136.689 437.496 136.3 437.358 135.809 437.358H134.001V440.398H135.809ZM145.246 437.998C145.534 437.998 145.768 438.088 145.95 438.27C146.131 438.44 146.222 438.675 146.222 438.974C146.222 439.262 146.131 439.502 145.95 439.694C145.768 439.875 145.523 439.982 145.214 440.014C144.638 440.056 144.184 440.259 143.854 440.622C143.523 440.974 143.358 441.454 143.358 442.062V445.102C143.358 445.422 143.256 445.688 143.054 445.902C142.851 446.104 142.595 446.206 142.286 446.206C141.976 446.206 141.715 446.099 141.502 445.886C141.299 445.672 141.198 445.411 141.198 445.102V439.006C141.198 438.696 141.299 438.44 141.502 438.238C141.704 438.024 141.96 437.918 142.27 437.918C142.547 437.918 142.782 438.014 142.974 438.206C143.176 438.387 143.288 438.616 143.31 438.894C143.566 438.606 143.859 438.387 144.19 438.238C144.52 438.078 144.872 437.998 145.246 437.998ZM151.037 437.918C151.815 437.918 152.53 438.104 153.181 438.478C153.831 438.84 154.343 439.336 154.717 439.966C155.101 440.595 155.293 441.288 155.293 442.046C155.293 442.803 155.101 443.502 154.717 444.142C154.343 444.771 153.826 445.272 153.165 445.646C152.514 446.008 151.799 446.19 151.021 446.19C150.242 446.19 149.527 446.008 148.877 445.646C148.237 445.272 147.73 444.771 147.357 444.142C146.983 443.502 146.797 442.803 146.797 442.046C146.797 441.288 146.983 440.595 147.357 439.966C147.73 439.326 148.242 438.824 148.893 438.462C149.543 438.099 150.258 437.918 151.037 437.918ZM151.037 439.886C150.439 439.886 149.949 440.094 149.565 440.51C149.181 440.915 148.989 441.432 148.989 442.062C148.989 442.68 149.181 443.192 149.565 443.598C149.949 444.003 150.439 444.206 151.037 444.206C151.623 444.206 152.109 444.003 152.493 443.598C152.887 443.192 153.085 442.68 153.085 442.062C153.085 441.443 152.887 440.926 152.493 440.51C152.109 440.094 151.623 439.886 151.037 439.886ZM156.179 449.086C155.88 449.086 155.587 449.038 155.299 448.942C155.096 448.856 154.936 448.739 154.819 448.59C154.702 448.44 154.643 448.264 154.643 448.062C154.643 447.795 154.728 447.571 154.899 447.39C155.07 447.219 155.288 447.134 155.555 447.134L155.763 447.15C156.19 447.15 156.499 447.043 156.691 446.83C156.883 446.627 156.979 446.259 156.979 445.726V439.006C156.979 438.696 157.08 438.44 157.283 438.238C157.496 438.024 157.758 437.918 158.067 437.918C158.376 437.918 158.632 438.024 158.835 438.238C159.038 438.44 159.139 438.696 159.139 439.006V446.11C159.139 447.07 158.872 447.806 158.339 448.318C157.816 448.83 157.096 449.086 156.179 449.086ZM158.051 433.902C158.424 433.902 158.744 434.03 159.011 434.286C159.278 434.542 159.411 434.851 159.411 435.214C159.411 435.576 159.278 435.886 159.011 436.142C158.744 436.387 158.424 436.51 158.051 436.51C157.678 436.51 157.358 436.387 157.091 436.142C156.835 435.886 156.707 435.576 156.707 435.214C156.707 434.851 156.835 434.542 157.091 434.286C157.358 434.03 157.678 433.902 158.051 433.902ZM164.94 437.918C165.655 437.918 166.295 438.078 166.86 438.398C167.436 438.718 167.884 439.16 168.204 439.726C168.535 440.291 168.7 440.926 168.7 441.63V441.678C168.7 442.008 168.588 442.275 168.364 442.478C168.151 442.68 167.868 442.782 167.516 442.782H163.004C163.132 443.283 163.388 443.672 163.772 443.95C164.156 444.216 164.641 444.35 165.228 444.35C165.836 444.35 166.385 444.195 166.876 443.886C167.036 443.79 167.191 443.742 167.34 443.742C167.585 443.742 167.793 443.827 167.964 443.998C168.135 444.158 168.22 444.36 168.22 444.606C168.22 444.787 168.177 444.947 168.092 445.086C168.007 445.214 167.868 445.342 167.676 445.47C166.94 445.96 166.103 446.206 165.164 446.206C164.343 446.206 163.601 446.024 162.94 445.662C162.279 445.299 161.761 444.803 161.388 444.174C161.015 443.544 160.828 442.84 160.828 442.062C160.828 441.294 161.004 440.595 161.356 439.966C161.719 439.326 162.215 438.824 162.844 438.462C163.473 438.099 164.172 437.918 164.94 437.918ZM164.892 439.662C164.423 439.662 164.017 439.806 163.676 440.094C163.345 440.382 163.121 440.771 163.004 441.262H166.604C166.583 440.782 166.417 440.398 166.108 440.11C165.799 439.811 165.393 439.662 164.892 439.662ZM174.177 446.206C173.399 446.206 172.684 446.024 172.033 445.662C171.383 445.288 170.871 444.782 170.497 444.142C170.124 443.502 169.937 442.803 169.937 442.046C169.937 441.288 170.124 440.595 170.497 439.966C170.871 439.326 171.383 438.824 172.033 438.462C172.684 438.099 173.399 437.918 174.177 437.918C174.839 437.918 175.457 438.062 176.033 438.35C176.62 438.638 177.068 439.016 177.377 439.486C177.505 439.688 177.569 439.88 177.569 440.062C177.569 440.328 177.473 440.558 177.281 440.75C177.1 440.931 176.876 441.022 176.609 441.022C176.3 441.022 176.055 440.91 175.873 440.686C175.425 440.152 174.871 439.886 174.209 439.886C173.601 439.886 173.1 440.088 172.705 440.494C172.321 440.899 172.129 441.416 172.129 442.046C172.129 442.686 172.321 443.208 172.705 443.614C173.1 444.019 173.601 444.222 174.209 444.222C174.839 444.222 175.393 443.955 175.873 443.422C176.065 443.198 176.311 443.086 176.609 443.086C176.876 443.086 177.1 443.182 177.281 443.374C177.473 443.555 177.569 443.779 177.569 444.046C177.569 444.227 177.511 444.408 177.393 444.59C177.063 445.102 176.615 445.502 176.049 445.79C175.495 446.067 174.871 446.206 174.177 446.206ZM183.533 444.254C183.821 444.254 184.051 444.334 184.221 444.494C184.392 444.654 184.477 444.867 184.477 445.134C184.477 445.326 184.429 445.496 184.333 445.646C184.237 445.795 184.104 445.912 183.933 445.998C183.603 446.136 183.229 446.206 182.813 446.206C181.779 446.206 180.989 445.955 180.445 445.454C179.912 444.942 179.645 444.2 179.645 443.23V439.918H179.197C178.931 439.918 178.707 439.832 178.525 439.662C178.355 439.491 178.269 439.272 178.269 439.006C178.269 438.739 178.355 438.52 178.525 438.35C178.707 438.179 178.931 438.094 179.197 438.094H179.645V437.006C179.645 436.696 179.747 436.44 179.949 436.238C180.152 436.024 180.413 435.918 180.733 435.918C181.043 435.918 181.299 436.024 181.501 436.238C181.704 436.44 181.805 436.696 181.805 437.006V438.094H183.261C183.528 438.094 183.747 438.179 183.917 438.35C184.088 438.52 184.173 438.739 184.173 439.006C184.173 439.272 184.088 439.491 183.917 439.662C183.747 439.832 183.528 439.918 183.261 439.918H181.805V443.038C181.805 443.475 181.917 443.79 182.141 443.982C182.365 444.174 182.728 444.27 183.229 444.27L183.533 444.254Z" fill="#101010"/>
<rect x="85.3051" y="449.61" width="30.8273" height="25.6104" rx="3.86188" fill="white" stroke="#D2D2D2" stroke-width="1.21954"/>
<circle cx="92.8929" cy="457.198" r="1.49055" fill="#6420FF"/>
<circle cx="92.8929" cy="462.414" r="1.49055" fill="#6420FF"/>
<circle cx="92.8929" cy="467.631" r="1.49055" fill="#6420FF"/>
<rect x="96.6191" y="461.67" width="12.6697" height="1.49055" rx="0.745275" fill="#6420FF"/>
<rect x="96.6191" y="456.453" width="12.6697" height="1.49055" rx="0.745275" fill="#6420FF"/>
<rect x="96.6191" y="466.887" width="12.6697" height="1.49055" rx="0.745275" fill="#6420FF"/>
<rect x="144.305" y="480.61" width="30.8273" height="25.6104" rx="3.86188" fill="white" stroke="#D2D2D2" stroke-width="1.21954"/>
<circle cx="151.893" cy="488.198" r="1.49055" fill="#6420FF"/>
<circle cx="151.893" cy="493.414" r="1.49055" fill="#6420FF"/>
<circle cx="151.893" cy="498.631" r="1.49055" fill="#6420FF"/>
<rect x="155.619" y="492.67" width="12.6697" height="1.49055" rx="0.745275" fill="#6420FF"/>
<rect x="155.619" y="487.453" width="12.6697" height="1.49055" rx="0.745275" fill="#6420FF"/>
<rect x="155.619" y="497.887" width="12.6697" height="1.49055" rx="0.745275" fill="#6420FF"/>
<rect x="202.305" y="449.61" width="30.8273" height="25.6104" rx="3.86188" fill="white" stroke="#D2D2D2" stroke-width="1.21954"/>
<circle cx="209.893" cy="457.198" r="1.49055" fill="#6420FF"/>
<circle cx="209.893" cy="462.414" r="1.49055" fill="#6420FF"/>
<circle cx="209.893" cy="467.631" r="1.49055" fill="#6420FF"/>
<rect x="213.619" y="461.67" width="12.6697" height="1.49055" rx="0.745275" fill="#6420FF"/>
<rect x="213.619" y="456.453" width="12.6697" height="1.49055" rx="0.745275" fill="#6420FF"/>
<rect x="213.619" y="466.887" width="12.6697" height="1.49055" rx="0.745275" fill="#6420FF"/>
<circle cx="156.695" cy="356" r="24" fill="#6420FF"/>
<path d="M147.874 361.192C147.565 361.192 147.303 361.085 147.09 360.872C146.887 360.659 146.786 360.397 146.786 360.088V351.544C146.786 351.224 146.887 350.963 147.09 350.76C147.303 350.547 147.57 350.44 147.89 350.44H150.77C151.517 350.44 152.173 350.584 152.738 350.872C153.314 351.149 153.762 351.549 154.082 352.072C154.402 352.584 154.562 353.176 154.562 353.848C154.562 354.509 154.402 355.101 154.082 355.624C153.762 356.147 153.314 356.552 152.738 356.84C152.162 357.128 151.506 357.272 150.77 357.272H148.946V360.088C148.946 360.397 148.839 360.659 148.626 360.872C148.423 361.085 148.173 361.192 147.874 361.192ZM150.754 355.384C151.245 355.384 151.634 355.245 151.922 354.968C152.21 354.691 152.354 354.317 152.354 353.848C152.354 353.389 152.21 353.027 151.922 352.76C151.634 352.483 151.245 352.344 150.754 352.344H148.946V355.384H150.754ZM165.55 350.248C165.849 350.248 166.1 350.355 166.302 350.568C166.505 350.781 166.606 351.048 166.606 351.368V360.088C166.606 360.397 166.5 360.659 166.286 360.872C166.084 361.085 165.833 361.192 165.534 361.192C165.225 361.192 164.964 361.085 164.75 360.872C164.548 360.659 164.446 360.397 164.446 360.088V354.872L162.462 357.992C162.313 358.237 162.158 358.413 161.998 358.52C161.838 358.627 161.652 358.68 161.438 358.68C161.236 358.68 161.049 358.627 160.878 358.52C160.718 358.413 160.564 358.237 160.414 357.992L158.43 354.84V360.088C158.43 360.397 158.324 360.659 158.11 360.872C157.908 361.085 157.657 361.192 157.358 361.192C157.049 361.192 156.788 361.085 156.574 360.872C156.372 360.659 156.27 360.397 156.27 360.088V351.368C156.27 351.048 156.372 350.781 156.574 350.568C156.777 350.355 157.028 350.248 157.326 350.248C157.561 350.248 157.758 350.312 157.918 350.44C158.089 350.557 158.27 350.771 158.462 351.08L161.438 355.8L164.414 351.08C164.606 350.771 164.782 350.557 164.942 350.44C165.113 350.312 165.316 350.248 165.55 350.248Z" fill="white"/>
<path d="M138.419 277.192C137.385 277.192 136.435 276.952 135.571 276.472C134.718 275.981 134.041 275.32 133.539 274.488C133.049 273.656 132.803 272.733 132.803 271.72C132.803 270.707 133.049 269.784 133.539 268.952C134.041 268.12 134.723 267.464 135.587 266.984C136.451 266.493 137.401 266.248 138.435 266.248C139.246 266.248 140.009 266.413 140.723 266.744C141.449 267.064 142.046 267.507 142.515 268.072C142.739 268.328 142.851 268.595 142.851 268.872C142.851 269.139 142.75 269.368 142.547 269.56C142.355 269.752 142.121 269.848 141.843 269.848C141.534 269.848 141.257 269.709 141.011 269.432C140.329 268.643 139.47 268.248 138.435 268.248C137.785 268.248 137.198 268.397 136.675 268.696C136.163 268.995 135.758 269.411 135.459 269.944C135.171 270.467 135.027 271.064 135.027 271.736C135.027 272.397 135.171 272.995 135.459 273.528C135.758 274.051 136.163 274.461 136.675 274.76C137.198 275.048 137.785 275.192 138.435 275.192C139.449 275.192 140.302 274.797 140.995 274.008C141.251 273.731 141.534 273.592 141.843 273.592C142.121 273.592 142.355 273.688 142.547 273.88C142.739 274.072 142.835 274.301 142.835 274.568C142.835 274.835 142.723 275.101 142.499 275.368C142.03 275.933 141.433 276.381 140.707 276.712C139.993 277.032 139.23 277.192 138.419 277.192ZM148.831 268.984C149.119 268.984 149.354 269.075 149.535 269.256C149.716 269.427 149.807 269.661 149.807 269.96C149.807 270.248 149.716 270.488 149.535 270.68C149.354 270.861 149.108 270.968 148.799 271C148.223 271.043 147.77 271.245 147.439 271.608C147.108 271.96 146.943 272.44 146.943 273.048V276.088C146.943 276.408 146.842 276.675 146.639 276.888C146.436 277.091 146.18 277.192 145.871 277.192C145.562 277.192 145.3 277.085 145.087 276.872C144.884 276.659 144.783 276.397 144.783 276.088V269.992C144.783 269.683 144.884 269.427 145.087 269.224C145.29 269.011 145.546 268.904 145.855 268.904C146.132 268.904 146.367 269 146.559 269.192C146.762 269.373 146.874 269.603 146.895 269.88C147.151 269.592 147.444 269.373 147.775 269.224C148.106 269.064 148.458 268.984 148.831 268.984ZM154.494 268.904C155.208 268.904 155.848 269.064 156.414 269.384C156.99 269.704 157.438 270.147 157.758 270.712C158.088 271.277 158.254 271.912 158.254 272.616V272.664C158.254 272.995 158.142 273.261 157.918 273.464C157.704 273.667 157.422 273.768 157.07 273.768H152.558C152.686 274.269 152.942 274.659 153.326 274.936C153.71 275.203 154.195 275.336 154.782 275.336C155.39 275.336 155.939 275.181 156.43 274.872C156.59 274.776 156.744 274.728 156.894 274.728C157.139 274.728 157.347 274.813 157.518 274.984C157.688 275.144 157.774 275.347 157.774 275.592C157.774 275.773 157.731 275.933 157.646 276.072C157.56 276.2 157.422 276.328 157.23 276.456C156.494 276.947 155.656 277.192 154.718 277.192C153.896 277.192 153.155 277.011 152.494 276.648C151.832 276.285 151.315 275.789 150.942 275.16C150.568 274.531 150.382 273.827 150.382 273.048C150.382 272.28 150.558 271.581 150.91 270.952C151.272 270.312 151.768 269.811 152.398 269.448C153.027 269.085 153.726 268.904 154.494 268.904ZM154.446 270.648C153.976 270.648 153.571 270.792 153.23 271.08C152.899 271.368 152.675 271.757 152.558 272.248H156.158C156.136 271.768 155.971 271.384 155.662 271.096C155.352 270.797 154.947 270.648 154.446 270.648ZM163.155 268.904C164.243 268.904 165.086 269.203 165.683 269.8C166.281 270.387 166.579 271.219 166.579 272.296V276.104C166.579 276.413 166.478 276.669 166.275 276.872C166.083 277.075 165.838 277.176 165.539 277.176C165.283 277.176 165.059 277.101 164.867 276.952C164.675 276.792 164.553 276.589 164.499 276.344C163.902 276.909 163.129 277.192 162.179 277.192C161.369 277.192 160.707 276.973 160.195 276.536C159.694 276.099 159.443 275.528 159.443 274.824C159.443 274.109 159.71 273.549 160.243 273.144C160.777 272.728 161.507 272.52 162.435 272.52H164.419V272.168C164.419 271.731 164.291 271.389 164.035 271.144C163.779 270.899 163.411 270.776 162.931 270.776C162.377 270.776 161.87 270.973 161.411 271.368C161.187 271.539 160.974 271.624 160.771 271.624C160.505 271.624 160.281 271.539 160.099 271.368C159.929 271.197 159.843 270.989 159.843 270.744C159.843 270.445 159.993 270.157 160.291 269.88C160.622 269.571 161.038 269.331 161.539 269.16C162.041 268.989 162.579 268.904 163.155 268.904ZM162.755 275.608C163.225 275.608 163.619 275.459 163.939 275.16C164.259 274.861 164.419 274.488 164.419 274.04V273.944H162.723C161.987 273.944 161.619 274.211 161.619 274.744C161.619 275.011 161.721 275.224 161.923 275.384C162.126 275.533 162.403 275.608 162.755 275.608ZM172.978 275.24C173.266 275.24 173.495 275.32 173.666 275.48C173.837 275.64 173.922 275.853 173.922 276.12C173.922 276.312 173.874 276.483 173.778 276.632C173.682 276.781 173.549 276.899 173.378 276.984C173.047 277.123 172.674 277.192 172.258 277.192C171.223 277.192 170.434 276.941 169.89 276.44C169.357 275.928 169.09 275.187 169.09 274.216V270.904H168.642C168.375 270.904 168.151 270.819 167.97 270.648C167.799 270.477 167.714 270.259 167.714 269.992C167.714 269.725 167.799 269.507 167.97 269.336C168.151 269.165 168.375 269.08 168.642 269.08H169.09V267.992C169.09 267.683 169.191 267.427 169.394 267.224C169.597 267.011 169.858 266.904 170.178 266.904C170.487 266.904 170.743 267.011 170.946 267.224C171.149 267.427 171.25 267.683 171.25 267.992V269.08H172.706C172.973 269.08 173.191 269.165 173.362 269.336C173.533 269.507 173.618 269.725 173.618 269.992C173.618 270.259 173.533 270.477 173.362 270.648C173.191 270.819 172.973 270.904 172.706 270.904H171.25V274.024C171.25 274.461 171.362 274.776 171.586 274.968C171.81 275.16 172.173 275.256 172.674 275.256L172.978 275.24ZM178.822 268.904C179.537 268.904 180.177 269.064 180.742 269.384C181.318 269.704 181.766 270.147 182.086 270.712C182.417 271.277 182.582 271.912 182.582 272.616V272.664C182.582 272.995 182.47 273.261 182.246 273.464C182.033 273.667 181.75 273.768 181.398 273.768H176.886C177.014 274.269 177.27 274.659 177.654 274.936C178.038 275.203 178.523 275.336 179.11 275.336C179.718 275.336 180.267 275.181 180.758 274.872C180.918 274.776 181.073 274.728 181.222 274.728C181.467 274.728 181.675 274.813 181.846 274.984C182.017 275.144 182.102 275.347 182.102 275.592C182.102 275.773 182.059 275.933 181.974 276.072C181.889 276.2 181.75 276.328 181.558 276.456C180.822 276.947 179.985 277.192 179.046 277.192C178.225 277.192 177.483 277.011 176.822 276.648C176.161 276.285 175.643 275.789 175.27 275.16C174.897 274.531 174.71 273.827 174.71 273.048C174.71 272.28 174.886 271.581 175.238 270.952C175.601 270.312 176.097 269.811 176.726 269.448C177.355 269.085 178.054 268.904 178.822 268.904ZM178.774 270.648C178.305 270.648 177.899 270.792 177.558 271.08C177.227 271.368 177.003 271.757 176.886 272.248H180.486C180.465 271.768 180.299 271.384 179.99 271.096C179.681 270.797 179.275 270.648 178.774 270.648ZM142.219 301.192C141.92 301.192 141.664 301.085 141.451 300.872C141.248 300.659 141.147 300.397 141.147 300.088V292.392H138.635C138.358 292.392 138.123 292.301 137.931 292.12C137.739 291.928 137.643 291.693 137.643 291.416C137.643 291.139 137.739 290.909 137.931 290.728C138.123 290.536 138.358 290.44 138.635 290.44H145.819C146.107 290.44 146.342 290.536 146.523 290.728C146.715 290.909 146.811 291.139 146.811 291.416C146.811 291.693 146.715 291.928 146.523 292.12C146.331 292.301 146.096 292.392 145.819 292.392H143.307V300.088C143.307 300.397 143.2 300.659 142.987 300.872C142.784 301.085 142.528 301.192 142.219 301.192ZM150.486 292.904C151.201 292.904 151.841 293.064 152.406 293.384C152.982 293.704 153.43 294.147 153.75 294.712C154.081 295.277 154.246 295.912 154.246 296.616V296.664C154.246 296.995 154.134 297.261 153.91 297.464C153.697 297.667 153.414 297.768 153.062 297.768H148.55C148.678 298.269 148.934 298.659 149.318 298.936C149.702 299.203 150.187 299.336 150.774 299.336C151.382 299.336 151.931 299.181 152.422 298.872C152.582 298.776 152.737 298.728 152.886 298.728C153.131 298.728 153.339 298.813 153.51 298.984C153.681 299.144 153.766 299.347 153.766 299.592C153.766 299.773 153.723 299.933 153.638 300.072C153.553 300.2 153.414 300.328 153.222 300.456C152.486 300.947 151.649 301.192 150.71 301.192C149.889 301.192 149.147 301.011 148.486 300.648C147.825 300.285 147.307 299.789 146.934 299.16C146.561 298.531 146.374 297.827 146.374 297.048C146.374 296.28 146.55 295.581 146.902 294.952C147.265 294.312 147.761 293.811 148.39 293.448C149.019 293.085 149.718 292.904 150.486 292.904ZM150.438 294.648C149.969 294.648 149.563 294.792 149.222 295.08C148.891 295.368 148.667 295.757 148.55 296.248H152.15C152.129 295.768 151.963 295.384 151.654 295.096C151.345 294.797 150.939 294.648 150.438 294.648ZM159.147 292.904C160.235 292.904 161.078 293.203 161.675 293.8C162.273 294.387 162.571 295.219 162.571 296.296V300.104C162.571 300.413 162.47 300.669 162.267 300.872C162.075 301.075 161.83 301.176 161.531 301.176C161.275 301.176 161.051 301.101 160.859 300.952C160.667 300.792 160.545 300.589 160.491 300.344C159.894 300.909 159.121 301.192 158.171 301.192C157.361 301.192 156.699 300.973 156.187 300.536C155.686 300.099 155.435 299.528 155.435 298.824C155.435 298.109 155.702 297.549 156.235 297.144C156.769 296.728 157.499 296.52 158.427 296.52H160.411V296.168C160.411 295.731 160.283 295.389 160.027 295.144C159.771 294.899 159.403 294.776 158.923 294.776C158.369 294.776 157.862 294.973 157.403 295.368C157.179 295.539 156.966 295.624 156.763 295.624C156.497 295.624 156.273 295.539 156.091 295.368C155.921 295.197 155.835 294.989 155.835 294.744C155.835 294.445 155.985 294.157 156.283 293.88C156.614 293.571 157.03 293.331 157.531 293.16C158.033 292.989 158.571 292.904 159.147 292.904ZM158.747 299.608C159.217 299.608 159.611 299.459 159.931 299.16C160.251 298.861 160.411 298.488 160.411 298.04V297.944H158.715C157.979 297.944 157.611 298.211 157.611 298.744C157.611 299.011 157.713 299.224 157.915 299.384C158.118 299.533 158.395 299.608 158.747 299.608ZM173.866 292.904C174.783 292.904 175.509 293.192 176.042 293.768C176.586 294.333 176.858 295.107 176.858 296.088V300.088C176.858 300.408 176.757 300.675 176.554 300.888C176.351 301.091 176.095 301.192 175.786 301.192C175.477 301.192 175.215 301.085 175.002 300.872C174.799 300.659 174.698 300.397 174.698 300.088V296.392C174.698 295.923 174.57 295.549 174.314 295.272C174.069 294.995 173.727 294.856 173.29 294.856C172.863 294.856 172.511 294.995 172.234 295.272C171.967 295.549 171.834 295.907 171.834 296.344V300.088C171.834 300.408 171.733 300.675 171.53 300.888C171.327 301.091 171.071 301.192 170.762 301.192C170.453 301.192 170.191 301.085 169.978 300.872C169.775 300.659 169.674 300.397 169.674 300.088V296.392C169.674 295.923 169.546 295.549 169.29 295.272C169.034 294.995 168.693 294.856 168.266 294.856C167.829 294.856 167.477 294.995 167.21 295.272C166.943 295.549 166.81 295.923 166.81 296.392V300.088C166.81 300.408 166.709 300.675 166.506 300.888C166.303 301.091 166.047 301.192 165.738 301.192C165.429 301.192 165.167 301.085 164.954 300.872C164.751 300.659 164.65 300.397 164.65 300.088V293.992C164.65 293.683 164.751 293.427 164.954 293.224C165.157 293.011 165.413 292.904 165.722 292.904C165.967 292.904 166.181 292.979 166.362 293.128C166.543 293.267 166.666 293.459 166.73 293.704C167.295 293.171 168.01 292.904 168.874 292.904C169.386 292.904 169.839 293 170.234 293.192C170.639 293.384 170.97 293.667 171.226 294.04C171.546 293.688 171.935 293.411 172.394 293.208C172.853 293.005 173.343 292.904 173.866 292.904Z" fill="#101010"/>
<circle cx="157.695" cy="284" r="61.284" stroke="#6420FF" stroke-width="1.43204"/>
<circle cx="158.695" cy="224" r="15.2866" fill="#EFE9FF" stroke="white" stroke-width="1.42675"/>
<circle cx="206.695" cy="247" r="15.2866" fill="#EFE9FF" stroke="white" stroke-width="1.42675"/>
<g opacity="0.2">
<path d="M206.695 243.5V247.7H209.495" stroke="#6420FF" stroke-width="1.42675"/>
<circle cx="206.695" cy="247" r="6.28662" stroke="#6420FF" stroke-width="1.42675"/>
</g>
<circle cx="105.695" cy="247" r="16" fill="#F4D150"/>
<mask id="mask0_1239_88418" style="mask-type:alpha" maskUnits="userSpaceOnUse" x="89" y="231" width="33" height="32">
<circle cx="105.695" cy="247" r="16" fill="#FFF9ED"/>
</mask>
<g mask="url(#mask0_1239_88418)">
<path d="M110.108 262.48C108.876 260.768 107.912 256.603 107.797 254.948L101.935 252.424L99.4961 262.48H110.108Z" fill="#FC909F" stroke="#101010" stroke-width="0.342323"/>
<mask id="mask1_1239_88418" style="mask-type:alpha" maskUnits="userSpaceOnUse" x="99" y="252" width="12" height="11">
<path d="M110.108 262.48C108.876 260.768 107.912 256.603 107.797 254.948L101.935 252.424L99.4961 262.48H110.108Z" fill="#FFEDEF"/>
</mask>
<g mask="url(#mask1_1239_88418)">
<ellipse cx="107.846" cy="252.301" rx="5.04927" ry="4.62137" fill="#101010"/>
</g>
<g clip-path="url(#clip0_1239_88418)">
<path d="M110.458 262.819C109.225 261.108 108.261 256.943 108.147 255.288L102.285 252.764L99.8457 262.819H110.458Z" fill="#77311D" stroke="#101010" stroke-width="0.342323"/>
<mask id="mask2_1239_88418" style="mask-type:alpha" maskUnits="userSpaceOnUse" x="99" y="252" width="12" height="11">
<path d="M110.456 262.821C109.223 261.11 108.259 256.945 108.145 255.29L102.283 252.766L99.8438 262.821H110.456Z" fill="#AC6651"/>
</mask>
<g mask="url(#mask2_1239_88418)">
<ellipse cx="107.889" cy="252.594" rx="5.04927" ry="4.62137" fill="#101010"/>
</g>
<mask id="path-40-inside-1_1239_88418" fill="white">
<path fill-rule="evenodd" clip-rule="evenodd" d="M113.018 247.548C113.015 247.535 113.012 247.521 113.009 247.507C113.005 247.494 113.002 247.48 112.999 247.466L111.603 241.64C111.6 241.628 111.597 241.616 111.594 241.603C111.591 241.591 111.588 241.579 111.585 241.566L111.584 241.56L111.584 241.56C110.709 238.013 107.134 235.832 103.576 236.685C100.018 237.537 97.8192 241.101 98.647 244.659L98.6467 244.659L100.207 251.171L100.231 251.165C101.31 254.405 104.708 256.336 108.09 255.526C111.472 254.715 113.626 251.454 113.12 248.078L113.144 248.072L113.018 247.548Z"/>
</mask>
<path fill-rule="evenodd" clip-rule="evenodd" d="M113.018 247.548C113.015 247.535 113.012 247.521 113.009 247.507C113.005 247.494 113.002 247.48 112.999 247.466L111.603 241.64C111.6 241.628 111.597 241.616 111.594 241.603C111.591 241.591 111.588 241.579 111.585 241.566L111.584 241.56L111.584 241.56C110.709 238.013 107.134 235.832 103.576 236.685C100.018 237.537 97.8192 241.101 98.647 244.659L98.6467 244.659L100.207 251.171L100.231 251.165C101.31 254.405 104.708 256.336 108.09 255.526C111.472 254.715 113.626 251.454 113.12 248.078L113.144 248.072L113.018 247.548Z" fill="#77311D"/>
<path d="M113.018 247.548L112.685 247.626L112.686 247.628L113.018 247.548ZM112.999 247.466L112.666 247.546L112.666 247.548L112.999 247.466ZM111.603 241.64L111.27 241.718L111.27 241.72L111.603 241.64ZM111.585 241.566L111.252 241.646L111.253 241.648L111.585 241.566ZM111.584 241.56L111.917 241.48L111.837 241.148L111.504 241.227L111.584 241.56ZM111.584 241.56L111.251 241.642L111.333 241.972L111.663 241.893L111.584 241.56ZM103.576 236.685L103.656 237.017L103.656 237.017L103.576 236.685ZM98.647 244.659L98.7273 244.992L99.0573 244.912L98.9804 244.582L98.647 244.659ZM98.6467 244.659L98.5664 244.327L98.2342 244.407L98.3138 244.739L98.6467 244.659ZM100.207 251.171L99.874 251.251L99.9538 251.584L100.287 251.504L100.207 251.171ZM100.231 251.165L100.556 251.057L100.457 250.759L100.152 250.833L100.231 251.165ZM108.09 255.526L108.01 255.193L108.01 255.193L108.09 255.526ZM113.12 248.078L113.04 247.745L112.735 247.818L112.781 248.128L113.12 248.078ZM113.144 248.072L113.224 248.405L113.557 248.325L113.477 247.992L113.144 248.072ZM113.352 247.471C113.349 247.456 113.345 247.442 113.342 247.428L112.676 247.587C112.679 247.6 112.682 247.613 112.685 247.626L113.352 247.471ZM113.342 247.428C113.338 247.413 113.335 247.399 113.331 247.384L112.666 247.548C112.67 247.561 112.673 247.574 112.676 247.587L113.342 247.428ZM111.27 241.72L112.666 247.546L113.332 247.386L111.936 241.56L111.27 241.72ZM111.936 241.562C111.933 241.549 111.93 241.536 111.927 241.523L111.261 241.683C111.264 241.695 111.267 241.706 111.27 241.718L111.936 241.562ZM111.927 241.523C111.924 241.511 111.921 241.498 111.918 241.485L111.253 241.648C111.256 241.66 111.258 241.671 111.261 241.683L111.927 241.523ZM111.251 241.64L111.252 241.646L111.918 241.487L111.917 241.48L111.251 241.64ZM111.663 241.893L111.663 241.893L111.504 241.227L111.504 241.227L111.663 241.893ZM111.916 241.478C110.996 237.748 107.237 235.455 103.496 236.352L103.656 237.017C107.031 236.209 110.422 238.278 111.251 241.642L111.916 241.478ZM103.496 236.352C99.7551 237.248 97.4432 240.996 98.3136 244.737L98.9804 244.582C98.1952 241.207 100.281 237.826 103.656 237.017L103.496 236.352ZM98.7271 244.992L98.7273 244.992L98.5666 244.327L98.5664 244.327L98.7271 244.992ZM100.54 251.092L98.9796 244.58L98.3138 244.739L99.874 251.251L100.54 251.092ZM100.152 250.833L100.127 250.838L100.287 251.504L100.311 251.498L100.152 250.833ZM99.9065 251.274C101.041 254.68 104.613 256.711 108.17 255.858L108.01 255.193C104.802 255.961 101.579 254.13 100.556 251.057L99.9065 251.274ZM108.17 255.858C111.726 255.006 113.991 251.578 113.458 248.027L112.781 248.128C113.262 251.331 111.218 254.424 108.01 255.193L108.17 255.858ZM113.064 247.739L113.04 247.745L113.199 248.41L113.224 248.405L113.064 247.739ZM112.686 247.628L112.811 248.152L113.477 247.992L113.351 247.469L112.686 247.628Z" fill="#101010" mask="url(#path-40-inside-1_1239_88418)"/>
</g>
<path d="M105.712 250.159C106.135 250.711 106.775 251.322 107.764 251.183C108.752 251.043 109.192 250.362 109.062 249.81" stroke="black" stroke-width="0.342323"/>
<path d="M108.275 242.147C108.76 241.918 109.901 241.71 110.586 242.703" stroke="#101010" stroke-width="0.342323" stroke-linecap="round"/>
<path d="M101.821 244.313C101.998 243.807 102.649 242.847 103.837 243.055" stroke="#101010" stroke-width="0.342323" stroke-linecap="round"/>
<path d="M113.727 242.236C113.727 236.58 110.607 232.754 106.806 232.754C101.937 232.754 96.9766 234.58 96.9766 243.217C96.9766 245.353 97.8888 246.945 99.1644 248.119C99.0365 247.959 98.9335 247.816 98.8651 247.698C98.6177 245.389 101.361 243.617 104.046 241.882C105.471 240.962 106.879 240.052 107.815 239.078C108.636 239.543 111.049 241.492 111.509 242.281C111.756 242.704 112.152 244.152 112.423 245.843C113.307 244.781 113.727 243.717 113.727 242.236Z" fill="white" stroke="black" stroke-width="0.342323"/>
<path d="M107.867 239.023C108.995 238.001 110.681 235.668 110.573 234.152" stroke="black" stroke-width="0.342323"/>
<ellipse cx="103.768" cy="245.122" rx="0.770228" ry="0.855809" transform="rotate(-6.77646 103.768 245.122)" fill="black"/>
<ellipse cx="109.248" cy="244.266" rx="0.770228" ry="0.855809" transform="rotate(-6.27568 109.248 244.266)" fill="black"/>
<circle cx="109.556" cy="244.414" r="2.2251" stroke="#F4D150" stroke-width="0.342323"/>
<circle cx="103.822" cy="245.185" r="2.2251" stroke="#F4D150" stroke-width="0.342323"/>
<path d="M107.416 245.015C107.416 244.833 107.344 244.659 107.216 244.531C107.087 244.402 106.913 244.33 106.732 244.33C106.55 244.33 106.376 244.402 106.247 244.531C106.119 244.659 106.047 244.833 106.047 245.015" stroke="#F4D150" stroke-width="0.342323"/>
<path d="M101.64 245.355L99.0723 245.826" stroke="#F4D150" stroke-width="0.342323"/>
<path d="M106.549 245.915C106.566 246.244 106.694 246.949 107.067 247.138C107.532 247.375 107.167 248.161 106.296 248.111" stroke="#101010" stroke-width="0.342323"/>
<path d="M100.223 246.179C100.024 246.113 99.8087 246.078 99.5883 246.078C98.6903 246.078 97.9623 246.634 98.0479 247.661C98.137 248.731 98.7759 249.116 99.6739 249.116C99.7738 249.116 99.8716 249.107 99.9666 249.091C100.07 249.072 100.17 249.044 100.266 249.008" stroke="#101010" stroke-width="0.684647"/>
<path d="M100.309 248.991C100.114 249.072 99.8992 249.116 99.6739 249.116C98.7759 249.116 98.137 248.731 98.0479 247.661C97.9623 246.634 98.6903 246.078 99.5883 246.078C99.8568 246.078 100.118 246.13 100.352 246.226L100.309 248.991Z" fill="#77311D"/>
<path d="M99.9669 246.807C99.6246 246.65 98.8715 246.567 98.5977 247.491" stroke="#101010" stroke-width="0.342323"/>
<path d="M99.0684 246.848C99.2538 247.005 99.6075 247.49 99.5391 248.174" stroke="#101010" stroke-width="0.342323"/>
<path d="M117.409 263.816H94.0178C95.4127 261.305 97.3968 259.707 100.613 258.973C101.984 258.661 103.58 258.505 105.454 258.505C106.263 258.505 106.892 258.629 107.49 258.791C107.711 258.852 107.934 258.919 108.162 258.989C108.538 259.103 108.929 259.222 109.352 259.319L109.364 259.322L109.376 259.323C113.324 259.648 115.691 261.402 117.409 263.816Z" fill="#9287FF" stroke="black" stroke-width="0.342323"/>
<path d="M99.6282 259.16L100.412 257.483C100.43 257.443 100.477 257.424 100.518 257.439C103.764 258.588 106.717 258.507 109.453 257.745C109.488 257.735 109.525 257.748 109.546 257.777L110.738 259.407C110.771 259.452 110.754 259.515 110.702 259.536C107.826 260.665 102.43 260.473 99.6697 259.273C99.6259 259.254 99.608 259.203 99.6282 259.16Z" fill="#E0DDFF" stroke="black" stroke-width="0.342323"/>
</g>
<circle cx="158.695" cy="211" r="16" fill="#AD00FF"/>
<mask id="mask3_1239_88418" style="mask-type:alpha" maskUnits="userSpaceOnUse" x="142" y="195" width="33" height="32">
<circle cx="158.695" cy="211" r="16" fill="#FFEDEF"/>
</mask>
<g mask="url(#mask3_1239_88418)">
<path d="M163.104 226.482C161.872 224.77 160.908 220.605 160.794 218.95L154.931 216.426L152.492 226.482H163.104Z" fill="#FC909F" stroke="black" stroke-width="0.342323"/>
<mask id="mask4_1239_88418" style="mask-type:alpha" maskUnits="userSpaceOnUse" x="152" y="216" width="12" height="11">
<path d="M163.104 226.482C161.872 224.77 160.908 220.605 160.794 218.95L154.931 216.426L152.492 226.482H163.104Z" fill="#FFEDEF"/>
</mask>
<g mask="url(#mask4_1239_88418)">
<ellipse cx="160.842" cy="216.303" rx="5.04927" ry="4.62137" fill="black"/>
</g>
<g clip-path="url(#clip1_1239_88418)">
<path d="M163.454 225.966C162.221 224.254 161.257 220.945 161.143 219.29L155.281 216.766L152.842 225.966H163.454Z" fill="#F9C9B6" stroke="black" stroke-width="0.342323"/>
<mask id="mask5_1239_88418" style="mask-type:alpha" maskUnits="userSpaceOnUse" x="152" y="216" width="12" height="11">
<path d="M163.454 226.821C162.221 225.11 161.257 220.945 161.143 219.29L155.281 216.766L152.842 226.821H163.454Z" fill="#F9C9B6"/>
</mask>
<g mask="url(#mask5_1239_88418)">
<g style="mix-blend-mode:multiply">
<ellipse cx="160.885" cy="216.596" rx="5.04927" ry="4.62137" fill="black"/>
</g>
</g>
<mask id="path-68-inside-2_1239_88418" fill="white">
<path fill-rule="evenodd" clip-rule="evenodd" d="M166.015 211.55C166.011 211.537 166.008 211.523 166.005 211.509C166.002 211.496 165.998 211.482 165.995 211.468L164.599 205.642C164.596 205.63 164.593 205.617 164.59 205.605C164.587 205.593 164.584 205.581 164.581 205.568L164.58 205.562L164.58 205.562C163.705 202.015 160.13 199.834 156.572 200.687C153.014 201.539 150.815 205.103 151.643 208.661L151.643 208.661L153.097 214.731L153.098 214.73C154.006 218.231 157.554 220.374 161.086 219.528C164.618 218.681 166.81 215.163 166.033 211.631L166.034 211.631L166.015 211.55Z"/>
</mask>
<path fill-rule="evenodd" clip-rule="evenodd" d="M166.015 211.55C166.011 211.537 166.008 211.523 166.005 211.509C166.002 211.496 165.998 211.482 165.995 211.468L164.599 205.642C164.596 205.63 164.593 205.617 164.59 205.605C164.587 205.593 164.584 205.581 164.581 205.568L164.58 205.562L164.58 205.562C163.705 202.015 160.13 199.834 156.572 200.687C153.014 201.539 150.815 205.103 151.643 208.661L151.643 208.661L153.097 214.731L153.098 214.73C154.006 218.231 157.554 220.374 161.086 219.528C164.618 218.681 166.81 215.163 166.033 211.631L166.034 211.631L166.015 211.55Z" fill="#F9C9B6"/>
<path d="M166.015 211.55L165.681 211.628L165.682 211.63L166.015 211.55ZM165.995 211.468L165.662 211.548L165.662 211.55L165.995 211.468ZM164.599 205.642L164.266 205.72L164.266 205.722L164.599 205.642ZM164.59 205.605L164.923 205.525L164.923 205.525L164.59 205.605ZM164.581 205.568L164.248 205.648L164.249 205.65L164.581 205.568ZM164.58 205.562L164.913 205.482L164.833 205.15L164.5 205.229L164.58 205.562ZM164.58 205.562L164.247 205.644L164.329 205.974L164.659 205.895L164.58 205.562ZM156.572 200.687L156.492 200.354L156.492 200.354L156.572 200.687ZM151.643 208.661L151.723 208.994L152.053 208.914L151.977 208.584L151.643 208.661ZM151.643 208.661L151.563 208.329L151.23 208.409L151.31 208.741L151.643 208.661ZM153.097 214.731L152.764 214.81L152.844 215.143L153.177 215.064L153.097 214.731ZM153.098 214.73L153.43 214.644L153.345 214.319L153.018 214.397L153.098 214.73ZM166.033 211.631L165.953 211.298L165.626 211.377L165.699 211.705L166.033 211.631ZM166.034 211.631L166.114 211.964L166.447 211.884L166.367 211.551L166.034 211.631ZM166.348 211.473C166.345 211.458 166.341 211.444 166.338 211.43L165.672 211.589C165.675 211.602 165.678 211.615 165.681 211.628L166.348 211.473ZM166.338 211.43C166.334 211.415 166.331 211.401 166.327 211.386L165.662 211.55C165.666 211.563 165.669 211.576 165.672 211.589L166.338 211.43ZM164.266 205.722L165.662 211.548L166.328 211.388L164.932 205.562L164.266 205.722ZM164.932 205.564C164.929 205.551 164.926 205.538 164.923 205.525L164.257 205.685C164.26 205.697 164.263 205.708 164.266 205.72L164.932 205.564ZM164.923 205.525C164.92 205.513 164.917 205.5 164.914 205.487L164.249 205.65C164.252 205.662 164.255 205.673 164.257 205.685L164.923 205.525ZM164.247 205.642L164.248 205.648L164.914 205.489L164.913 205.482L164.247 205.642ZM164.659 205.895L164.659 205.895L164.5 205.229L164.5 205.229L164.659 205.895ZM164.912 205.48C163.993 201.75 160.233 199.457 156.492 200.354L156.652 201.019C160.027 200.211 163.418 202.28 164.247 205.644L164.912 205.48ZM156.492 200.354C152.751 201.25 150.439 204.998 151.31 208.739L151.977 208.584C151.191 205.209 153.277 201.828 156.652 201.019L156.492 200.354ZM151.723 208.994L151.723 208.994L151.563 208.329L151.563 208.329L151.723 208.994ZM153.43 214.651L151.976 208.582L151.31 208.741L152.764 214.81L153.43 214.651ZM153.018 214.397L153.017 214.398L153.177 215.064L153.178 215.063L153.018 214.397ZM152.767 214.816C153.721 218.497 157.452 220.75 161.166 219.86L161.006 219.195C157.656 219.997 154.29 217.965 153.43 214.644L152.767 214.816ZM161.166 219.86C164.88 218.971 167.185 215.271 166.367 211.558L165.699 211.705C166.436 215.055 164.356 218.392 161.006 219.195L161.166 219.86ZM165.954 211.298L165.953 211.298L166.113 211.964L166.114 211.964L165.954 211.298ZM165.682 211.63L165.701 211.711L166.367 211.551L166.347 211.471L165.682 211.63Z" fill="black" mask="url(#path-68-inside-2_1239_88418)"/>
</g>
<path d="M157.809 213.592C158.023 215.047 160.462 215.731 162.687 214.062" stroke="black" stroke-width="0.342323"/>
<path d="M161.271 206.148C161.756 205.92 162.898 205.712 163.582 206.705" stroke="black" stroke-width="0.342323" stroke-linecap="round"/>
<path d="M154.817 208.314C154.994 207.809 155.645 206.849 156.833 207.057" stroke="black" stroke-width="0.342323" stroke-linecap="round"/>
<path d="M158.255 199.108L158.255 199.109L158.269 199.109C160.551 199.176 162.325 200.085 163.581 201.193C164.784 202.255 165.502 203.493 165.736 204.337C165.389 204.535 164.794 204.706 164.035 204.846C163.206 204.998 162.212 205.11 161.198 205.189C159.169 205.348 157.074 205.378 156.095 205.357L155.575 205.346L155.987 205.663C156.2 205.829 156.485 205.944 156.786 206.024C157.089 206.106 157.421 206.156 157.738 206.184C158.066 206.213 158.385 206.22 158.649 206.213C157.743 206.912 156.59 207.449 155.453 207.847C154.139 208.307 152.862 208.576 152.044 208.696L151.86 208.723L151.902 208.904C152.189 210.139 152.715 212.298 153.069 213.745C153.225 214.388 153.348 214.89 153.4 215.11C153.493 215.5 153.785 216.055 154.119 216.567C154.426 217.039 154.785 217.499 155.088 217.782L154.417 220.505H151.887C152.6 219.417 152.751 218.159 152.606 216.826C152.448 215.383 151.941 213.83 151.407 212.276C151.355 212.123 151.302 211.97 151.249 211.817C150.762 210.408 150.277 209.004 150.015 207.657C149.723 206.166 149.71 204.771 150.257 203.544C151.142 201.557 152.71 200.403 154.279 199.768C155.852 199.13 157.413 199.019 158.255 199.108Z" fill="white" stroke="black" stroke-width="0.342323"/>
<ellipse cx="156.766" cy="209.124" rx="0.770228" ry="0.855809" transform="rotate(-6.77646 156.766 209.124)" fill="black"/>
<ellipse cx="162.246" cy="208.268" rx="0.770228" ry="0.855809" transform="rotate(-6.27568 162.246 208.268)" fill="black"/>
<path d="M159.496 209.579C159.663 210.765 160.387 211.614 160.387 211.614C160.387 211.614 160.162 212.164 159.291 212.114" stroke="black" stroke-width="0.342323"/>
<path d="M153.776 210.358V210.262L153.694 210.212C153.375 210.016 152.986 209.909 152.584 209.909C152.102 209.909 151.65 210.058 151.328 210.362C151.002 210.669 150.827 211.118 150.873 211.678C150.919 212.223 151.102 212.624 151.406 212.891C151.381 212.976 151.373 213.069 151.385 213.166C151.418 213.445 151.559 213.647 151.778 213.771C151.986 213.889 152.253 213.931 152.537 213.931C153.006 213.931 153.417 213.679 153.73 213.342L153.776 213.292V213.225V210.358Z" stroke="#101010" stroke-width="0.342323"/>
<path fill-rule="evenodd" clip-rule="evenodd" d="M154.287 211.701C154.293 211.647 154.296 211.591 154.296 211.535C154.296 210.661 153.482 210.08 152.584 210.08C151.686 210.08 150.958 210.636 151.044 211.663C151.092 212.235 151.296 212.611 151.613 212.837C151.563 212.925 151.541 213.028 151.555 213.145C151.609 213.597 151.995 213.76 152.537 213.76C153.489 213.76 154.241 212.555 154.287 211.701Z" fill="#F9C9B6"/>
<path d="M152.963 210.809C152.621 210.652 151.868 210.569 151.594 211.493" stroke="black" stroke-width="0.342323"/>
<path d="M152.064 210.85C152.25 211.007 152.604 211.491 152.535 212.176" stroke="black" stroke-width="0.342323"/>
<path d="M170.407 227.818H147.016C148.411 225.307 150.395 223.709 153.612 222.975C154.982 222.663 156.578 222.507 158.452 222.507C159.261 222.507 159.891 222.631 160.488 222.793C160.709 222.854 160.932 222.921 161.16 222.991C161.536 223.105 161.927 223.224 162.35 223.321L162.362 223.324L162.374 223.325C166.322 223.65 168.689 225.404 170.407 227.818Z" fill="#77311D" stroke="black" stroke-width="0.342323"/>
<path d="M152.626 223.162L153.41 221.485C153.428 221.445 153.475 221.426 153.517 221.441C156.762 222.59 159.715 222.509 162.451 221.747C162.486 221.737 162.523 221.75 162.544 221.779L163.736 223.409C163.769 223.454 163.752 223.517 163.701 223.538C160.824 224.667 155.428 224.475 152.668 223.275C152.624 223.256 152.606 223.205 152.626 223.162Z" fill="white" stroke="black" stroke-width="0.342323"/>
</g>
<ellipse cx="52.7908" cy="29" rx="15.8884" ry="15" fill="#F6F2FF"/>
<ellipse cx="166.06" cy="74" rx="15.3759" ry="15" fill="#F6F2FF"/>
<ellipse cx="120.445" cy="75" rx="15.8884" ry="15" fill="#F6F2FF"/>
<ellipse cx="84.0556" cy="55" rx="15.3759" ry="15" fill="#F6F2FF"/>
<ellipse cx="95.331" cy="24.5" rx="15.3759" ry="15.5" fill="#F6F2FF"/>
<ellipse cx="129.157" cy="39" rx="15.3759" ry="15" fill="#F6F2FF"/>
<ellipse cx="154.271" cy="15.5" rx="15.8884" ry="15.5" fill="#F6F2FF"/>
<ellipse cx="177.847" cy="38.5" rx="15.8884" ry="15.5" fill="#F6F2FF"/>
<ellipse cx="211.163" cy="47.5" rx="15.3759" ry="15.5" fill="#F6F2FF"/>
<ellipse cx="225.513" cy="16" rx="15.3759" ry="15" fill="#F6F2FF"/>
<ellipse cx="201.936" cy="79" rx="15.3759" ry="15" fill="#F6F2FF"/>
<ellipse cx="243.964" cy="55" rx="15.3759" ry="15" fill="#F6F2FF"/>
<ellipse cx="261.39" cy="24.5" rx="15.3759" ry="15.5" fill="#F6F2FF"/>
<rect width="314.694" height="109" fill="url(#paint0_linear_1239_88418)"/>
<path d="M181.197 108.847C221.791 103.409 258.753 83.1305 284.602 52.1152C297.014 37.2237 306.419 20.3909 312.53 2.5M137.727 108.913C97.1151 103.598 60.0891 83.4325 34.1405 52.496C21.5734 37.5133 12.059 20.5462 5.89453 2.5" stroke="url(#paint1_linear_1239_88418)" stroke-width="1.42675" stroke-linecap="round"/>
<path d="M201.338 121.904C202.052 121.904 202.692 122.064 203.258 122.384C203.834 122.704 204.282 123.147 204.602 123.712C204.932 124.277 205.098 124.912 205.098 125.616V125.664C205.098 125.995 204.986 126.261 204.762 126.464C204.548 126.667 204.266 126.768 203.914 126.768H199.402C199.53 127.269 199.786 127.659 200.17 127.936C200.554 128.203 201.039 128.336 201.626 128.336C202.234 128.336 202.783 128.181 203.274 127.872C203.434 127.776 203.588 127.728 203.738 127.728C203.983 127.728 204.191 127.813 204.362 127.984C204.532 128.144 204.618 128.347 204.618 128.592C204.618 128.773 204.575 128.933 204.49 129.072C204.404 129.2 204.266 129.328 204.074 129.456C203.338 129.947 202.5 130.192 201.562 130.192C200.74 130.192 199.999 130.011 199.338 129.648C198.676 129.285 198.159 128.789 197.786 128.16C197.412 127.531 197.226 126.827 197.226 126.048C197.226 125.28 197.402 124.581 197.754 123.952C198.116 123.312 198.612 122.811 199.242 122.448C199.871 122.085 200.57 121.904 201.338 121.904ZM201.29 123.648C200.82 123.648 200.415 123.792 200.074 124.08C199.743 124.368 199.519 124.757 199.402 125.248H203.002C202.98 124.768 202.815 124.384 202.506 124.096C202.196 123.797 201.791 123.648 201.29 123.648ZM213.091 128.352C213.304 128.629 213.411 128.896 213.411 129.152C213.411 129.44 213.309 129.685 213.107 129.888C212.915 130.091 212.669 130.192 212.371 130.192C212.008 130.192 211.709 130.032 211.475 129.712L209.795 127.568L208.115 129.712C207.859 130.032 207.565 130.192 207.235 130.192C206.936 130.192 206.685 130.091 206.483 129.888C206.28 129.685 206.179 129.44 206.179 129.152C206.179 128.907 206.291 128.64 206.515 128.352L208.435 125.968L206.707 123.744C206.472 123.456 206.355 123.189 206.355 122.944C206.355 122.656 206.456 122.411 206.659 122.208C206.861 122.005 207.112 121.904 207.411 121.904C207.763 121.904 208.051 122.059 208.275 122.368L209.811 124.352L211.379 122.368C211.624 122.059 211.917 121.904 212.259 121.904C212.547 121.904 212.792 122.005 212.995 122.208C213.197 122.411 213.299 122.656 213.299 122.944C213.299 123.179 213.181 123.445 212.947 123.744L211.187 125.952L213.091 128.352ZM219.655 121.904C220.391 121.904 221.047 122.08 221.623 122.432C222.209 122.784 222.668 123.275 222.999 123.904C223.329 124.533 223.495 125.243 223.495 126.032C223.495 126.821 223.329 127.536 222.999 128.176C222.668 128.805 222.209 129.301 221.623 129.664C221.047 130.016 220.391 130.192 219.655 130.192C219.164 130.192 218.716 130.112 218.311 129.952C217.905 129.781 217.564 129.541 217.287 129.232V131.984C217.287 132.293 217.185 132.549 216.983 132.752C216.78 132.965 216.524 133.072 216.215 133.072C215.905 133.072 215.644 132.965 215.431 132.752C215.228 132.549 215.127 132.293 215.127 131.984V122.96C215.127 122.651 215.228 122.395 215.431 122.192C215.644 121.989 215.9 121.888 216.199 121.888C216.487 121.888 216.727 121.984 216.919 122.176C217.111 122.368 217.217 122.613 217.239 122.912C217.516 122.592 217.857 122.347 218.263 122.176C218.679 121.995 219.143 121.904 219.655 121.904ZM219.255 128.224C219.852 128.224 220.343 128.021 220.727 127.616C221.111 127.2 221.303 126.677 221.303 126.048C221.303 125.408 221.111 124.885 220.727 124.48C220.343 124.064 219.852 123.856 219.255 123.856C218.657 123.856 218.172 124.059 217.799 124.464C217.436 124.859 217.255 125.381 217.255 126.032C217.255 126.683 217.441 127.211 217.815 127.616C218.188 128.021 218.668 128.224 219.255 128.224ZM228.853 121.904C229.568 121.904 230.208 122.064 230.773 122.384C231.349 122.704 231.797 123.147 232.117 123.712C232.448 124.277 232.613 124.912 232.613 125.616V125.664C232.613 125.995 232.501 126.261 232.277 126.464C232.064 126.667 231.781 126.768 231.429 126.768H226.917C227.045 127.269 227.301 127.659 227.685 127.936C228.069 128.203 228.555 128.336 229.141 128.336C229.749 128.336 230.299 128.181 230.789 127.872C230.949 127.776 231.104 127.728 231.253 127.728C231.499 127.728 231.707 127.813 231.877 127.984C232.048 128.144 232.133 128.347 232.133 128.592C232.133 128.773 232.091 128.933 232.005 129.072C231.92 129.2 231.781 129.328 231.589 129.456C230.853 129.947 230.016 130.192 229.077 130.192C228.256 130.192 227.515 130.011 226.853 129.648C226.192 129.285 225.675 128.789 225.301 128.16C224.928 127.531 224.741 126.827 224.741 126.048C224.741 125.28 224.917 124.581 225.269 123.952C225.632 123.312 226.128 122.811 226.757 122.448C227.387 122.085 228.085 121.904 228.853 121.904ZM228.805 123.648C228.336 123.648 227.931 123.792 227.589 124.08C227.259 124.368 227.035 124.757 226.917 125.248H230.517C230.496 124.768 230.331 124.384 230.021 124.096C229.712 123.797 229.307 123.648 228.805 123.648ZM238.347 121.984C238.635 121.984 238.869 122.075 239.051 122.256C239.232 122.427 239.323 122.661 239.323 122.96C239.323 123.248 239.232 123.488 239.051 123.68C238.869 123.861 238.624 123.968 238.315 124C237.739 124.043 237.285 124.245 236.955 124.608C236.624 124.96 236.459 125.44 236.459 126.048V129.088C236.459 129.408 236.357 129.675 236.155 129.888C235.952 130.091 235.696 130.192 235.387 130.192C235.077 130.192 234.816 130.085 234.603 129.872C234.4 129.659 234.299 129.397 234.299 129.088V122.992C234.299 122.683 234.4 122.427 234.603 122.224C234.805 122.011 235.061 121.904 235.371 121.904C235.648 121.904 235.883 122 236.075 122.192C236.277 122.373 236.389 122.603 236.411 122.88C236.667 122.592 236.96 122.373 237.291 122.224C237.621 122.064 237.973 121.984 238.347 121.984ZM244.822 128.24C245.11 128.24 245.339 128.32 245.51 128.48C245.68 128.64 245.766 128.853 245.766 129.12C245.766 129.312 245.718 129.483 245.622 129.632C245.526 129.781 245.392 129.899 245.222 129.984C244.891 130.123 244.518 130.192 244.102 130.192C243.067 130.192 242.278 129.941 241.734 129.44C241.2 128.928 240.934 128.187 240.934 127.216V123.904H240.486C240.219 123.904 239.995 123.819 239.814 123.648C239.643 123.477 239.558 123.259 239.558 122.992C239.558 122.725 239.643 122.507 239.814 122.336C239.995 122.165 240.219 122.08 240.486 122.08H240.934V120.992C240.934 120.683 241.035 120.427 241.238 120.224C241.44 120.011 241.702 119.904 242.022 119.904C242.331 119.904 242.587 120.011 242.79 120.224C242.992 120.427 243.094 120.683 243.094 120.992V122.08H244.55C244.816 122.08 245.035 122.165 245.206 122.336C245.376 122.507 245.462 122.725 245.462 122.992C245.462 123.259 245.376 123.477 245.206 123.648C245.035 123.819 244.816 123.904 244.55 123.904H243.094V127.024C243.094 127.461 243.206 127.776 243.43 127.968C243.654 128.16 244.016 128.256 244.518 128.256L244.822 128.24ZM249.718 130.192C249.142 130.192 248.603 130.091 248.102 129.888C247.601 129.685 247.169 129.408 246.806 129.056C246.603 128.885 246.502 128.661 246.502 128.384C246.502 128.139 246.587 127.925 246.758 127.744C246.939 127.563 247.153 127.472 247.398 127.472C247.611 127.472 247.819 127.552 248.022 127.712C248.566 128.181 249.142 128.416 249.75 128.416C250.038 128.416 250.278 128.363 250.47 128.256C250.662 128.139 250.758 127.973 250.758 127.76C250.758 127.589 250.694 127.461 250.566 127.376C250.449 127.28 250.241 127.168 249.942 127.04L249.094 126.688C248.369 126.389 247.825 126.059 247.462 125.696C247.11 125.333 246.934 124.859 246.934 124.272C246.934 123.525 247.201 122.944 247.734 122.528C248.278 122.101 248.982 121.888 249.846 121.888C250.315 121.888 250.769 121.963 251.206 122.112C251.643 122.261 252.022 122.469 252.342 122.736C252.598 122.928 252.726 123.173 252.726 123.472C252.726 123.717 252.641 123.931 252.47 124.112C252.299 124.283 252.091 124.368 251.846 124.368C251.686 124.368 251.494 124.293 251.27 124.144C250.811 123.824 250.331 123.664 249.83 123.664C249.563 123.664 249.355 123.712 249.206 123.808C249.057 123.904 248.982 124.043 248.982 124.224C248.982 124.373 249.041 124.496 249.158 124.592C249.286 124.688 249.505 124.8 249.814 124.928L250.582 125.248C251.35 125.557 251.91 125.893 252.262 126.256C252.625 126.608 252.806 127.077 252.806 127.664C252.806 128.453 252.513 129.072 251.926 129.52C251.35 129.968 250.614 130.192 249.718 130.192ZM264.935 121.904C265.213 121.904 265.453 122.011 265.655 122.224C265.869 122.427 265.975 122.667 265.975 122.944C265.975 123.104 265.922 123.296 265.815 123.52L262.839 129.52C262.733 129.733 262.594 129.899 262.423 130.016C262.253 130.133 262.061 130.192 261.847 130.192C261.634 130.192 261.442 130.133 261.271 130.016C261.101 129.899 260.962 129.733 260.855 129.52L257.879 123.52C257.762 123.296 257.703 123.104 257.703 122.944C257.703 122.667 257.805 122.427 258.007 122.224C258.221 122.011 258.471 121.904 258.759 121.904C259.186 121.904 259.501 122.107 259.703 122.512L261.847 126.928L263.975 122.512C264.178 122.107 264.498 121.904 264.935 121.904ZM270.728 121.904C271.443 121.904 272.083 122.064 272.648 122.384C273.224 122.704 273.672 123.147 273.992 123.712C274.323 124.277 274.488 124.912 274.488 125.616V125.664C274.488 125.995 274.376 126.261 274.152 126.464C273.939 126.667 273.656 126.768 273.304 126.768H268.792C268.92 127.269 269.176 127.659 269.56 127.936C269.944 128.203 270.43 128.336 271.016 128.336C271.624 128.336 272.174 128.181 272.664 127.872C272.824 127.776 272.979 127.728 273.128 127.728C273.374 127.728 273.582 127.813 273.752 127.984C273.923 128.144 274.008 128.347 274.008 128.592C274.008 128.773 273.966 128.933 273.88 129.072C273.795 129.2 273.656 129.328 273.464 129.456C272.728 129.947 271.891 130.192 270.952 130.192C270.131 130.192 269.39 130.011 268.728 129.648C268.067 129.285 267.55 128.789 267.176 128.16C266.803 127.531 266.616 126.827 266.616 126.048C266.616 125.28 266.792 124.581 267.144 123.952C267.507 123.312 268.003 122.811 268.632 122.448C269.262 122.085 269.96 121.904 270.728 121.904ZM270.68 123.648C270.211 123.648 269.806 123.792 269.464 124.08C269.134 124.368 268.91 124.757 268.792 125.248H272.392C272.371 124.768 272.206 124.384 271.896 124.096C271.587 123.797 271.182 123.648 270.68 123.648ZM280.222 121.984C280.51 121.984 280.744 122.075 280.926 122.256C281.107 122.427 281.198 122.661 281.198 122.96C281.198 123.248 281.107 123.488 280.926 123.68C280.744 123.861 280.499 123.968 280.19 124C279.614 124.043 279.16 124.245 278.83 124.608C278.499 124.96 278.334 125.44 278.334 126.048V129.088C278.334 129.408 278.232 129.675 278.03 129.888C277.827 130.091 277.571 130.192 277.262 130.192C276.952 130.192 276.691 130.085 276.478 129.872C276.275 129.659 276.174 129.397 276.174 129.088V122.992C276.174 122.683 276.275 122.427 276.478 122.224C276.68 122.011 276.936 121.904 277.246 121.904C277.523 121.904 277.758 122 277.95 122.192C278.152 122.373 278.264 122.603 278.286 122.88C278.542 122.592 278.835 122.373 279.166 122.224C279.496 122.064 279.848 121.984 280.222 121.984ZM283.449 130.192C283.15 130.192 282.894 130.085 282.681 129.872C282.478 129.659 282.377 129.397 282.377 129.088V122.992C282.377 122.683 282.478 122.427 282.681 122.224C282.894 122.011 283.155 121.904 283.465 121.904C283.774 121.904 284.03 122.011 284.233 122.224C284.435 122.427 284.537 122.683 284.537 122.992V129.088C284.537 129.397 284.43 129.659 284.217 129.872C284.014 130.085 283.758 130.192 283.449 130.192ZM283.449 117.888C283.822 117.888 284.142 118.016 284.409 118.272C284.675 118.528 284.809 118.837 284.809 119.2C284.809 119.563 284.675 119.872 284.409 120.128C284.142 120.373 283.822 120.496 283.449 120.496C283.075 120.496 282.755 120.373 282.489 120.128C282.233 119.872 282.105 119.563 282.105 119.2C282.105 118.837 282.233 118.528 282.489 118.272C282.755 118.016 283.075 117.888 283.449 117.888ZM290.354 119.744C289.991 119.744 289.708 119.851 289.506 120.064C289.303 120.277 289.202 120.581 289.202 120.976V122.08H290.194C290.46 122.08 290.679 122.165 290.85 122.336C291.02 122.507 291.106 122.725 291.106 122.992C291.106 123.259 291.02 123.477 290.85 123.648C290.679 123.819 290.46 123.904 290.194 123.904H289.202V129.088C289.202 129.408 289.1 129.675 288.898 129.888C288.695 130.091 288.439 130.192 288.13 130.192C287.82 130.192 287.559 130.085 287.346 129.872C287.143 129.659 287.042 129.397 287.042 129.088V123.904H286.69C286.423 123.904 286.199 123.819 286.018 123.648C285.847 123.477 285.762 123.259 285.762 122.992C285.762 122.725 285.847 122.507 286.018 122.336C286.199 122.165 286.423 122.08 286.69 122.08H287.042V120.784C287.042 119.845 287.303 119.115 287.826 118.592C288.348 118.069 289.068 117.808 289.986 117.808C290.391 117.808 290.732 117.877 291.01 118.016C291.18 118.091 291.314 118.203 291.41 118.352C291.506 118.501 291.554 118.677 291.554 118.88C291.554 119.147 291.468 119.36 291.298 119.52C291.127 119.68 290.898 119.76 290.61 119.76L290.354 119.744ZM293.458 130.192C293.159 130.192 292.903 130.085 292.69 129.872C292.487 129.659 292.386 129.397 292.386 129.088V122.992C292.386 122.683 292.487 122.427 292.69 122.224C292.903 122.011 293.164 121.904 293.474 121.904C293.783 121.904 294.039 122.011 294.242 122.224C294.444 122.427 294.546 122.683 294.546 122.992V129.088C294.546 129.397 294.439 129.659 294.226 129.872C294.023 130.085 293.767 130.192 293.458 130.192ZM293.458 117.888C293.831 117.888 294.151 118.016 294.418 118.272C294.684 118.528 294.818 118.837 294.818 119.2C294.818 119.563 294.684 119.872 294.418 120.128C294.151 120.373 293.831 120.496 293.458 120.496C293.084 120.496 292.764 120.373 292.498 120.128C292.242 119.872 292.114 119.563 292.114 119.2C292.114 118.837 292.242 118.528 292.498 118.272C292.764 118.016 293.084 117.888 293.458 117.888ZM300.353 121.904C301.068 121.904 301.708 122.064 302.273 122.384C302.849 122.704 303.297 123.147 303.617 123.712C303.948 124.277 304.113 124.912 304.113 125.616V125.664C304.113 125.995 304.001 126.261 303.777 126.464C303.564 126.667 303.281 126.768 302.929 126.768H298.417C298.545 127.269 298.801 127.659 299.185 127.936C299.569 128.203 300.055 128.336 300.641 128.336C301.249 128.336 301.799 128.181 302.289 127.872C302.449 127.776 302.604 127.728 302.753 127.728C302.999 127.728 303.207 127.813 303.377 127.984C303.548 128.144 303.633 128.347 303.633 128.592C303.633 128.773 303.591 128.933 303.505 129.072C303.42 129.2 303.281 129.328 303.089 129.456C302.353 129.947 301.516 130.192 300.577 130.192C299.756 130.192 299.015 130.011 298.353 129.648C297.692 129.285 297.175 128.789 296.801 128.16C296.428 127.531 296.241 126.827 296.241 126.048C296.241 125.28 296.417 124.581 296.769 123.952C297.132 123.312 297.628 122.811 298.257 122.448C298.887 122.085 299.585 121.904 300.353 121.904ZM300.305 123.648C299.836 123.648 299.431 123.792 299.089 124.08C298.759 124.368 298.535 124.757 298.417 125.248H302.017C301.996 124.768 301.831 124.384 301.521 124.096C301.212 123.797 300.807 123.648 300.305 123.648ZM312.647 117.808C312.956 117.808 313.212 117.915 313.415 118.128C313.617 118.331 313.719 118.592 313.719 118.912V129.104C313.719 129.413 313.617 129.675 313.415 129.888C313.212 130.091 312.961 130.192 312.663 130.192C312.385 130.192 312.145 130.096 311.943 129.904C311.74 129.701 311.628 129.461 311.607 129.184C311.329 129.504 310.983 129.755 310.567 129.936C310.161 130.107 309.703 130.192 309.191 130.192C308.455 130.192 307.793 130.016 307.207 129.664C306.631 129.301 306.177 128.805 305.847 128.176C305.516 127.547 305.351 126.837 305.351 126.048C305.351 125.259 305.516 124.549 305.847 123.92C306.177 123.291 306.631 122.8 307.207 122.448C307.793 122.085 308.455 121.904 309.191 121.904C309.681 121.904 310.129 121.989 310.535 122.16C310.94 122.32 311.281 122.549 311.559 122.848V118.912C311.559 118.603 311.66 118.341 311.863 118.128C312.076 117.915 312.337 117.808 312.647 117.808ZM309.591 128.224C310.188 128.224 310.668 128.027 311.031 127.632C311.404 127.227 311.591 126.699 311.591 126.048C311.591 125.397 311.404 124.869 311.031 124.464C310.657 124.059 310.177 123.856 309.591 123.856C309.004 123.856 308.513 124.064 308.119 124.48C307.735 124.885 307.543 125.403 307.543 126.032C307.543 126.672 307.735 127.2 308.119 127.616C308.503 128.021 308.993 128.224 309.591 128.224Z" fill="#6420FF"/>
<path d="M330.696 115.643L332.222 117.392L332.425 117.624L332.709 117.502L334.863 116.572L335.46 118.785L335.542 119.087L335.855 119.097L338.203 119.172L337.757 121.406L337.694 121.721L337.98 121.866L340.051 122.921L338.658 124.743L338.461 125L338.658 125.257L340.051 127.079L337.98 128.134L337.694 128.279L337.757 128.594L338.203 130.828L335.855 130.903L335.542 130.913L335.46 131.215L334.863 133.429L332.708 132.501L332.425 132.379L332.222 132.611L330.696 134.357L329.168 132.61L328.965 132.379L328.682 132.501L326.527 133.429L325.93 131.215L325.849 130.913L325.535 130.903L323.188 130.828L323.634 128.594L323.696 128.279L323.411 128.134L321.34 127.079L322.733 125.257L322.929 125L322.733 124.743L321.34 122.921L323.411 121.866L323.696 121.721L323.634 121.406L323.188 119.172L325.535 119.097L325.849 119.087L325.93 118.785L326.527 116.572L328.682 117.502L328.965 117.624L329.168 117.392L330.696 115.643Z" fill="#7CBA00" stroke="white" stroke-width="0.846154"/>
<path d="M327.617 125.386L329.925 127.309L334.156 123.078" stroke="white" stroke-width="1.57143" stroke-linecap="round"/>
<defs>
<linearGradient id="paint0_linear_1239_88418" x1="157.347" y1="0" x2="157.347" y2="109" gradientUnits="userSpaceOnUse">
<stop stop-color="white"/>
<stop offset="1" stop-color="white" stop-opacity="0"/>
</linearGradient>
<linearGradient id="paint1_linear_1239_88418" x1="159.212" y1="3" x2="159.212" y2="128" gradientUnits="userSpaceOnUse">
<stop stop-color="#6420FF" stop-opacity="0"/>
<stop offset="1" stop-color="#6420FF"/>
</linearGradient>
<clipPath id="clip0_1239_88418">
<rect width="16.8148" height="27.7444" fill="white" transform="translate(97.2773 234.621)"/>
</clipPath>
<clipPath id="clip1_1239_88418">
<rect width="16.8148" height="26.9036" fill="white" transform="translate(150.273 198.623)"/>
</clipPath>
</defs>
</svg>
