<svg width="48" height="34" viewBox="0 0 48 34" fill="none" xmlns="http://www.w3.org/2000/svg">
<path d="M29.6652 1.9193H11.1191C5.68315 1.9193 1.27647 6.32597 1.27647 11.7619V22.7966C1.27647 28.2325 5.68315 32.6392 11.1191 32.6392H36.9223L43.5069 32.6393C46.0377 32.6393 47.3166 29.5896 45.5426 27.7845L40.6933 22.8499C39.9335 22.0767 39.5077 21.0361 39.5077 19.9521V11.7619C39.5077 6.32597 35.1011 1.9193 29.6652 1.9193Z" stroke="#D2D2D2" stroke-width="1.28"/>
<circle r="2.56" transform="matrix(-1 0 0 1 28.7994 16.6401)" fill="#6420FF"/>
<circle r="2.56" transform="matrix(-1 0 0 1 19.8404 16.6401)" fill="#6420FF"/>
<circle r="2.56" transform="matrix(-1 0 0 1 10.8795 16.6401)" fill="#6420FF"/>
</svg>
