<svg width="162" height="261" viewBox="0 0 162 261" fill="none" xmlns="http://www.w3.org/2000/svg">
<rect x="161.25" y="0.75" width="259.5" height="160.5" rx="39.25" transform="rotate(90 161.25 0.75)" stroke="#6420FF" stroke-width="1.5"/>
<rect x="26.5769" y="212.577" width="29.1667" height="24.2308" rx="3.65385" fill="white" stroke="#D2D2D2" stroke-width="1.15385"/>
<circle cx="33.756" cy="219.756" r="1.41026" fill="#6420FF"/>
<circle cx="33.756" cy="224.692" r="1.41026" fill="#6420FF"/>
<circle cx="33.756" cy="229.627" r="1.41026" fill="#6420FF"/>
<rect x="37.2812" y="223.986" width="11.9872" height="1.41026" rx="0.705128" fill="#6420FF"/>
<rect x="37.2812" y="219.051" width="11.9872" height="1.41026" rx="0.705128" fill="#6420FF"/>
<rect x="37.2812" y="228.922" width="11.9872" height="1.41026" rx="0.705128" fill="#6420FF"/>
<rect x="66.5769" y="212.577" width="29.1667" height="24.2308" rx="3.65385" fill="white" stroke="#D2D2D2" stroke-width="1.15385"/>
<circle cx="73.756" cy="219.756" r="1.41026" fill="#6420FF"/>
<circle cx="73.756" cy="224.692" r="1.41026" fill="#6420FF"/>
<circle cx="73.756" cy="229.627" r="1.41026" fill="#6420FF"/>
<rect x="77.2812" y="223.986" width="11.9872" height="1.41026" rx="0.705128" fill="#6420FF"/>
<rect x="77.2812" y="219.051" width="11.9872" height="1.41026" rx="0.705128" fill="#6420FF"/>
<rect x="77.2812" y="228.922" width="11.9872" height="1.41026" rx="0.705128" fill="#6420FF"/>
<rect x="106.577" y="212.577" width="29.1667" height="24.2308" rx="3.65385" fill="white" stroke="#D2D2D2" stroke-width="1.15385"/>
<circle cx="113.756" cy="219.756" r="1.41026" fill="#6420FF"/>
<circle cx="113.756" cy="224.692" r="1.41026" fill="#6420FF"/>
<circle cx="113.756" cy="229.627" r="1.41026" fill="#6420FF"/>
<rect x="117.281" y="223.986" width="11.9872" height="1.41026" rx="0.705128" fill="#6420FF"/>
<rect x="117.281" y="219.051" width="11.9872" height="1.41026" rx="0.705128" fill="#6420FF"/>
<rect x="117.281" y="228.922" width="11.9872" height="1.41026" rx="0.705128" fill="#6420FF"/>
<circle cx="41.0249" cy="188.025" r="16.0249" fill="#E0DDFF"/>
<mask id="mask0_1231_87822" style="mask-type:alpha" maskUnits="userSpaceOnUse" x="25" y="172" width="32" height="32">
<circle cx="41" cy="188" r="16" fill="#FFEDEF"/>
</mask>
<g mask="url(#mask0_1231_87822)">
<g clip-path="url(#clip0_1231_87822)">
<path d="M45.5697 202.571C44.3552 200.884 43.4049 197.623 43.2925 195.992L37.5151 193.504L35.1113 202.571H45.5697Z" fill="#F9C9B6" stroke="black" stroke-width="0.337366"/>
<mask id="mask1_1231_87822" style="mask-type:alpha" maskUnits="userSpaceOnUse" x="35" y="193" width="11" height="11">
<path d="M45.5697 203.414C44.3552 201.727 43.4049 197.623 43.2925 195.992L37.5151 193.504L35.1113 203.414H45.5697Z" fill="#F9C9B6"/>
</mask>
<g mask="url(#mask1_1231_87822)">
<g style="mix-blend-mode:multiply">
<ellipse cx="43.0406" cy="193.336" rx="4.97615" ry="4.55444" fill="black"/>
</g>
</g>
<mask id="path-29-inside-1_1231_87822" fill="white">
<path fill-rule="evenodd" clip-rule="evenodd" d="M48.0949 188.363C48.0918 188.35 48.0886 188.336 48.0854 188.323C48.0821 188.309 48.0788 188.296 48.0755 188.282L46.6999 182.54C46.697 182.528 46.6942 182.516 46.6913 182.504C46.6884 182.492 46.6854 182.48 46.6825 182.468L46.6809 182.461L46.6809 182.461C45.8191 178.966 42.2956 176.816 38.7891 177.657C35.2827 178.497 33.1158 182.009 33.9316 185.516L33.9313 185.516L35.3644 191.497L35.3656 191.497C36.2599 194.947 39.7573 197.059 43.2379 196.225C46.7185 195.391 48.8793 191.923 48.113 188.443L48.114 188.443L48.0949 188.363Z"/>
</mask>
<path fill-rule="evenodd" clip-rule="evenodd" d="M48.0949 188.363C48.0918 188.35 48.0886 188.336 48.0854 188.323C48.0821 188.309 48.0788 188.296 48.0755 188.282L46.6999 182.54C46.697 182.528 46.6942 182.516 46.6913 182.504C46.6884 182.492 46.6854 182.48 46.6825 182.468L46.6809 182.461L46.6809 182.461C45.8191 178.966 42.2956 176.816 38.7891 177.657C35.2827 178.497 33.1158 182.009 33.9316 185.516L33.9313 185.516L35.3644 191.497L35.3656 191.497C36.2599 194.947 39.7573 197.059 43.2379 196.225C46.7185 195.391 48.8793 191.923 48.113 188.443L48.114 188.443L48.0949 188.363Z" fill="#F9C9B6"/>
<path d="M48.0949 188.363L47.7664 188.44L47.7669 188.442L48.0949 188.363ZM48.0755 188.282L47.7474 188.361L47.7479 188.363L48.0755 188.282ZM46.6999 182.54L46.3713 182.617L46.3718 182.619L46.6999 182.54ZM46.6825 182.468L46.3544 182.546L46.3548 182.548L46.6825 182.468ZM46.6809 182.461L47.009 182.383L46.93 182.053L46.601 182.133L46.6809 182.461ZM46.6809 182.461L46.3533 182.542L46.4339 182.869L46.7608 182.789L46.6809 182.461ZM38.7891 177.657L38.8677 177.985L38.8677 177.985L38.7891 177.657ZM33.9316 185.516L34.0106 185.844L34.336 185.765L34.2602 185.439L33.9316 185.516ZM33.9313 185.516L33.8523 185.188L33.5248 185.267L33.6033 185.595L33.9313 185.516ZM35.3644 191.497L35.0363 191.576L35.1149 191.904L35.4429 191.825L35.3644 191.497ZM35.3656 191.497L35.6922 191.412L35.6091 191.092L35.2872 191.169L35.3656 191.497ZM43.2379 196.225L43.3165 196.553L43.3165 196.553L43.2379 196.225ZM48.113 188.443L48.0345 188.115L47.7123 188.192L47.7835 188.515L48.113 188.443ZM48.114 188.443L48.1925 188.771L48.5207 188.692L48.4421 188.364L48.114 188.443ZM48.4235 188.287C48.4202 188.272 48.4169 188.258 48.4134 188.244L47.7573 188.401C47.7604 188.414 47.7634 188.427 47.7664 188.44L48.4235 188.287ZM48.4134 188.244C48.41 188.23 48.4066 188.216 48.4031 188.201L47.7479 188.363C47.7511 188.376 47.7542 188.388 47.7573 188.401L48.4134 188.244ZM46.3718 182.619L47.7475 188.361L48.4036 188.203L47.0279 182.462L46.3718 182.619ZM47.0284 182.464C47.0254 182.451 47.0224 182.438 47.0193 182.425L46.3632 182.583C46.3659 182.594 46.3687 182.606 46.3713 182.617L47.0284 182.464ZM47.0193 182.425C47.0163 182.413 47.0132 182.4 47.0101 182.387L46.3548 182.548C46.3576 182.56 46.3604 182.571 46.3632 182.583L47.0193 182.425ZM46.3528 182.54L46.3544 182.546L47.0105 182.389L47.009 182.383L46.3528 182.54ZM46.7608 182.789L46.7609 182.789L46.601 182.133L46.6009 182.133L46.7608 182.789ZM47.0084 182.38C46.1022 178.705 42.3974 176.445 38.7105 177.328L38.8677 177.985C42.1937 177.188 45.5359 179.226 46.3533 182.542L47.0084 182.38ZM38.7105 177.328C35.0236 178.212 32.7452 181.905 33.603 185.592L34.2602 185.439C33.4864 182.113 35.5418 178.781 38.8677 177.985L38.7105 177.328ZM34.0104 185.844L34.0106 185.844L33.8525 185.188L33.8523 185.188L34.0104 185.844ZM35.6925 191.419L34.2594 185.437L33.6033 185.595L35.0363 191.576L35.6925 191.419ZM35.2872 191.169L35.2859 191.169L35.4429 191.825L35.4441 191.825L35.2872 191.169ZM35.0391 191.582C35.9793 195.209 39.6567 197.43 43.3165 196.553L43.1593 195.897C39.8579 196.688 36.5404 194.685 35.6922 191.412L35.0391 191.582ZM43.3165 196.553C46.9763 195.676 49.2483 192.03 48.4425 188.37L47.7835 188.515C48.5104 191.817 46.4608 195.106 43.1593 195.897L43.3165 196.553ZM48.0355 188.114L48.0345 188.115L48.1915 188.771L48.1925 188.771L48.0355 188.114ZM47.7669 188.442L47.7859 188.521L48.4421 188.364L48.423 188.284L47.7669 188.442Z" fill="black" mask="url(#path-29-inside-1_1231_87822)"/>
</g>
<path d="M43.501 194.024C44.415 193.859 44.9505 192.849 44.7643 191.82C44.578 190.791 43.7225 190.033 42.8085 190.198C41.8945 190.363 41.359 191.373 41.5453 192.402C41.7315 193.432 42.587 194.19 43.501 194.024Z" fill="black" stroke="black" stroke-width="0.302883"/>
<mask id="mask2_1231_87822" style="mask-type:alpha" maskUnits="userSpaceOnUse" x="41" y="190" width="4" height="4">
<ellipse cx="43.1548" cy="192.111" rx="1.48421" ry="1.79285" transform="rotate(-10.2582 43.1548 192.111)" fill="#171921"/>
</mask>
<g mask="url(#mask2_1231_87822)">
<ellipse cx="43.4303" cy="193.63" rx="1.70409" ry="1.54384" transform="rotate(-10.2582 43.4303 193.63)" fill="#FC909F"/>
</g>
<circle cx="39.0405" cy="185.388" r="1.0121" transform="rotate(-6.27568 39.0405 185.388)" fill="#D2EFF3"/>
<ellipse cx="39.1498" cy="186.16" rx="0.759074" ry="1.13861" transform="rotate(-6.77646 39.1498 186.16)" fill="black"/>
<circle cx="44.4194" cy="184.659" r="1.0121" transform="rotate(-6.27568 44.4194 184.659)" fill="#D2EFF3"/>
<ellipse cx="44.547" cy="185.316" rx="0.759074" ry="1.13861" transform="rotate(-6.27568 44.547 185.316)" fill="black"/>
<path d="M43.459 183.138C43.9369 182.913 45.0615 182.708 45.7362 183.686" stroke="black" stroke-width="0.337366" stroke-linecap="round"/>
<path d="M37.098 185.272C37.2727 184.773 37.9146 183.827 39.0853 184.032" stroke="black" stroke-width="0.337366" stroke-linecap="round"/>
<path d="M37.3076 184.76L36.7891 184.303" stroke="black" stroke-width="0.337366" stroke-linecap="round"/>
<path d="M45.4795 183.217L45.998 182.76" stroke="black" stroke-width="0.337366" stroke-linecap="round"/>
<path d="M37.8511 184.285L37.5098 183.684" stroke="black" stroke-width="0.337366" stroke-linecap="round"/>
<path d="M44.8501 182.91L45.1914 182.309" stroke="black" stroke-width="0.337366" stroke-linecap="round"/>
<path d="M38.5333 183.979L38.3477 183.312" stroke="black" stroke-width="0.337366" stroke-linecap="round"/>
<path d="M44.0859 182.858L44.2715 182.191" stroke="black" stroke-width="0.337366" stroke-linecap="round"/>
<path d="M38.7759 181.668C38.9351 181.693 38.9351 181.693 38.9351 181.693L38.9351 181.693L38.935 181.694L38.9347 181.695L38.9339 181.7L38.9314 181.713C38.9291 181.724 38.9257 181.739 38.9209 181.757C38.9111 181.795 38.8953 181.849 38.8702 181.917C38.82 182.054 38.7331 182.251 38.584 182.501C38.3167 182.95 37.8501 183.569 37.0392 184.322C39.567 184.385 41.6784 183.571 43.1811 182.717C43.9706 182.268 44.5906 181.809 45.0127 181.463C45.2237 181.29 45.3851 181.145 45.4933 181.044C45.5474 180.994 45.5882 180.954 45.6152 180.928C45.6288 180.914 45.6388 180.904 45.6454 180.897L45.6527 180.89L45.6543 180.888L45.6546 180.888L45.6547 180.888L45.8471 180.688L45.9255 180.954L45.7708 181L45.9255 180.954L45.9255 180.954L45.9257 180.955L45.9266 180.958L45.9299 180.969L45.9427 181.013L45.9917 181.181C46.0341 181.327 46.095 181.537 46.1692 181.796C46.3176 182.314 46.519 183.026 46.7314 183.801C47.1555 185.348 47.6258 187.159 47.802 188.184C48.0966 189.898 47.6411 191.199 47.3717 191.968C47.3193 192.118 47.274 192.247 47.2425 192.356C47.247 192.36 47.2529 192.364 47.2606 192.37C47.311 192.406 47.4003 192.447 47.5294 192.488C47.7837 192.569 48.1467 192.635 48.5349 192.672C48.9223 192.71 49.3257 192.717 49.6597 192.685C49.8269 192.668 49.9723 192.642 50.0878 192.607C50.1988 192.573 50.2683 192.535 50.3058 192.5C50.307 192.493 50.3085 192.475 50.3042 192.442C50.296 192.377 50.2701 192.284 50.2252 192.163C50.1583 191.981 50.0591 191.758 49.9432 191.497C49.9039 191.409 49.8626 191.317 49.8201 191.22C49.4887 190.466 49.09 189.485 49.0031 188.486C48.9066 187.376 49.1259 186.427 49.3231 185.574L49.3325 185.533C49.5339 184.661 49.7014 183.904 49.5294 183.136C49.2683 181.971 48.9121 181.002 48.3651 180.305C47.8239 179.615 47.0899 179.185 46.0461 179.106L45.9383 179.098L45.9049 178.995C45.4247 177.513 44.7762 176.545 43.9494 175.944C43.1229 175.344 42.0977 175.097 40.8339 175.097C38.4987 175.097 35.984 175.984 34.0969 177.519C32.2118 179.052 30.9642 181.221 31.1274 183.788C31.3076 186.621 31.1022 188.77 30.6392 190.343C30.217 191.777 29.5771 192.743 28.8101 193.307C28.9107 193.359 29.0449 193.424 29.2125 193.499C29.6364 193.688 30.2744 193.937 31.1248 194.176C32.7555 194.633 35.1686 195.051 38.3538 194.925C37.6517 194.322 36.9433 193.59 36.3824 192.817C35.7386 191.929 35.2746 190.966 35.261 190.069C35.2448 189.004 35.317 186.218 35.3393 185.641C35.3911 184.3 36.252 183.267 37.0715 182.579C37.4836 182.233 37.8919 181.969 38.1969 181.792C38.3496 181.703 38.4768 181.636 38.5663 181.59C38.6111 181.568 38.6464 181.551 38.6708 181.539L38.699 181.526L38.7066 181.522L38.7087 181.521L38.7093 181.521L38.7095 181.521C38.7096 181.521 38.7097 181.521 38.7759 181.668ZM38.7759 181.668L38.9351 181.693L38.9816 181.398L38.7097 181.521L38.7759 181.668ZM47.2296 192.343C47.2298 192.343 47.2308 192.344 47.232 192.346C47.23 192.344 47.2294 192.343 47.2296 192.343Z" fill="#D2EFF3" stroke="black" stroke-width="0.32234"/>
<path d="M46.0796 179.504C46.1218 179.883 46.0543 180.643 45.9531 181.149" stroke="black" stroke-width="0.337366"/>
<path d="M41.8534 186.933C41.8706 187.258 41.9966 187.952 42.3636 188.139C42.8223 188.373 42.4627 189.147 41.604 189.098" stroke="black" stroke-width="0.337366"/>
<path d="M36.0388 187.348V187.254L35.9583 187.205C35.6434 187.011 35.2604 186.906 34.8647 186.906C34.389 186.906 33.9437 187.053 33.6264 187.352C33.3056 187.655 33.1325 188.097 33.1785 188.649C33.2233 189.186 33.4037 189.581 33.7029 189.844C33.6783 189.929 33.6711 190.019 33.6825 190.115C33.7153 190.391 33.8547 190.589 34.07 190.712C34.2753 190.828 34.538 190.87 34.8179 190.87C35.28 190.87 35.6852 190.621 35.9937 190.289L36.0388 190.24V190.174V187.348Z" stroke="black" stroke-width="0.337366"/>
<path fill-rule="evenodd" clip-rule="evenodd" d="M36.5421 188.679C36.5484 188.623 36.5516 188.566 36.5516 188.508C36.5516 187.646 35.7498 187.074 34.8647 187.074C33.9797 187.074 33.2623 187.622 33.3466 188.635C33.3935 189.198 33.595 189.568 33.9073 189.791C33.8577 189.878 33.836 189.979 33.8498 190.095C33.9029 190.54 34.2831 190.701 34.8177 190.701C35.753 190.701 36.4933 189.519 36.5421 188.679Z" fill="#F9C9B6"/>
<path d="M35.2381 187.792C34.9008 187.637 34.1586 187.555 33.8887 188.466" stroke="black" stroke-width="0.337366"/>
<path d="M34.3516 187.834C34.5343 187.989 34.8829 188.467 34.8154 189.141" stroke="black" stroke-width="0.337366"/>
<circle cx="34.6889" cy="190.195" r="0.337366" fill="white"/>
<circle cx="34.7738" cy="190.11" r="0.0843416" fill="#FFEDEF"/>
<path d="M41.0166 202.368L41.1203 202.235L41.0166 202.368L41.1618 202.481L41.2618 202.327L41.2619 202.327L41.262 202.327L41.2628 202.325L41.2663 202.32L41.2805 202.299C41.2932 202.28 41.3122 202.252 41.337 202.216C41.3866 202.144 41.4596 202.041 41.5519 201.918C41.7369 201.673 41.9988 201.348 42.3071 201.031C42.6162 200.712 42.9672 200.406 43.3298 200.193C43.6939 199.98 44.0534 199.869 44.387 199.914C47.9664 200.397 50.6004 201.982 52.3102 204.344H29.2597C30.6344 201.869 32.5898 200.294 35.7599 199.571C35.895 199.54 36.0787 199.549 36.3083 199.603C36.5356 199.656 36.7948 199.749 37.0743 199.871C37.6332 200.117 38.2571 200.475 38.8434 200.847C39.4288 201.217 39.9724 201.598 40.3699 201.886C40.5686 202.03 40.7305 202.151 40.8427 202.235C40.8988 202.278 40.9424 202.311 40.9719 202.334L41.0055 202.36L41.0139 202.366L41.016 202.368L41.0165 202.368L41.0166 202.368Z" fill="#9287FF" stroke="black" stroke-width="0.337366"/>
<path d="M34.762 199.796L35.1978 198.174C35.2154 198.108 35.3004 198.09 35.3463 198.14C36.5999 199.512 38.1818 199.458 38.7069 199.395C38.7781 199.386 38.8339 199.464 38.8005 199.528L37.6908 201.633C37.6738 201.665 37.639 201.683 37.6033 201.675C37.2702 201.606 35.6109 201.2 34.7718 199.862C34.7595 199.842 34.756 199.818 34.762 199.796Z" fill="#E0DDFF" stroke="black" stroke-width="0.337366"/>
<path d="M45.7749 199.786L44.7982 198.143C44.765 198.087 44.6833 198.088 44.648 198.143C44.1641 198.888 43.3296 199.231 43.0377 199.333C42.9852 199.351 42.9612 199.413 42.9895 199.461L44.1284 201.385C44.1453 201.414 44.1775 201.43 44.2095 201.421C44.3896 201.369 45.0074 201.111 45.7738 199.874C45.7902 199.848 45.7909 199.813 45.7749 199.786Z" fill="#E0DDFF" stroke="black" stroke-width="0.337366"/>
<path d="M39.5604 201.265L38.8013 199.451L38.2109 200.716L39.5604 201.265Z" fill="black" stroke="black" stroke-width="0.337366" stroke-linejoin="round"/>
<path d="M42.2169 201.181L42.976 199.367L43.5664 200.632L42.2169 201.181Z" fill="black" stroke="black" stroke-width="0.337366" stroke-linejoin="round"/>
<path d="M36.2699 197.85L35.2578 198.103L36.1012 198.651L36.2699 197.85Z" fill="black" stroke="black" stroke-width="0.337366" stroke-linejoin="round"/>
<path d="M43.8183 197.85L44.7461 198.103L44.1557 198.651L43.8183 197.85Z" fill="black" stroke="black" stroke-width="0.337366" stroke-linejoin="round"/>
</g>
<circle cx="81.0249" cy="188.025" r="16.0249" fill="#AD00FF"/>
<mask id="mask3_1231_87822" style="mask-type:alpha" maskUnits="userSpaceOnUse" x="65" y="172" width="32" height="32">
<circle cx="81" cy="188" r="16" fill="#FFEDEF"/>
</mask>
<g mask="url(#mask3_1231_87822)">
<path d="M85.3334 203.408C84.1188 201.721 83.1686 197.617 83.0561 195.986L77.2787 193.498L74.875 203.408H85.3334Z" fill="#FC909F" stroke="black" stroke-width="0.337366"/>
<mask id="mask4_1231_87822" style="mask-type:alpha" maskUnits="userSpaceOnUse" x="74" y="193" width="12" height="11">
<path d="M85.3334 203.408C84.1188 201.721 83.1686 197.617 83.0561 195.986L77.2787 193.498L74.875 203.408H85.3334Z" fill="#FFEDEF"/>
</mask>
<g mask="url(#mask4_1231_87822)">
<ellipse cx="83.0328" cy="193.306" rx="4.97615" ry="4.55444" fill="black"/>
</g>
<g clip-path="url(#clip1_1231_87822)">
<path d="M85.5658 202.571C84.3513 200.884 83.401 197.623 83.2886 195.992L77.5112 193.504L75.1074 202.571H85.5658Z" fill="#F9C9B6" stroke="black" stroke-width="0.337366"/>
<mask id="mask5_1231_87822" style="mask-type:alpha" maskUnits="userSpaceOnUse" x="75" y="193" width="11" height="11">
<path d="M85.5658 203.414C84.3513 201.727 83.401 197.623 83.2886 195.992L77.5112 193.504L75.1074 203.414H85.5658Z" fill="#F9C9B6"/>
</mask>
<g mask="url(#mask5_1231_87822)">
<g style="mix-blend-mode:multiply">
<ellipse cx="83.0367" cy="193.336" rx="4.97615" ry="4.55444" fill="black"/>
</g>
</g>
<mask id="path-70-inside-2_1231_87822" fill="white">
<path fill-rule="evenodd" clip-rule="evenodd" d="M88.091 188.363C88.0879 188.35 88.0847 188.336 88.0815 188.323C88.0782 188.309 88.0749 188.296 88.0716 188.282L86.6959 182.54C86.6931 182.528 86.6902 182.516 86.6874 182.504C86.6845 182.492 86.6815 182.48 86.6786 182.468L86.677 182.461L86.677 182.461C85.8151 178.966 82.2917 176.816 78.7852 177.657C75.2788 178.497 73.1119 182.009 73.9277 185.516L73.9274 185.516L75.3605 191.497L75.3617 191.497C76.256 194.947 79.7534 197.059 83.234 196.225C86.7146 195.391 88.8754 191.923 88.1091 188.443L88.1101 188.443L88.091 188.363Z"/>
</mask>
<path fill-rule="evenodd" clip-rule="evenodd" d="M88.091 188.363C88.0879 188.35 88.0847 188.336 88.0815 188.323C88.0782 188.309 88.0749 188.296 88.0716 188.282L86.6959 182.54C86.6931 182.528 86.6902 182.516 86.6874 182.504C86.6845 182.492 86.6815 182.48 86.6786 182.468L86.677 182.461L86.677 182.461C85.8151 178.966 82.2917 176.816 78.7852 177.657C75.2788 178.497 73.1119 182.009 73.9277 185.516L73.9274 185.516L75.3605 191.497L75.3617 191.497C76.256 194.947 79.7534 197.059 83.234 196.225C86.7146 195.391 88.8754 191.923 88.1091 188.443L88.1101 188.443L88.091 188.363Z" fill="#F9C9B6"/>
<path d="M88.091 188.363L87.7625 188.44L87.763 188.442L88.091 188.363ZM88.0716 188.282L87.7435 188.361L87.744 188.363L88.0716 188.282ZM86.6959 182.54L86.3674 182.617L86.3678 182.619L86.6959 182.54ZM86.6874 182.504L87.0154 182.425L87.0154 182.425L86.6874 182.504ZM86.6786 182.468L86.3505 182.546L86.3509 182.548L86.6786 182.468ZM86.677 182.461L87.0051 182.383L86.9266 182.055L86.5989 182.133L86.677 182.461ZM86.677 182.461L86.3494 182.542L86.4295 182.867L86.7551 182.789L86.677 182.461ZM78.7852 177.657L78.7066 177.328L78.7852 177.657ZM73.9277 185.516L74.0067 185.844L74.3321 185.765L74.2563 185.439L73.9277 185.516ZM73.9274 185.516L73.8484 185.188L73.5208 185.267L73.5993 185.595L73.9274 185.516ZM75.3605 191.497L75.0324 191.576L75.111 191.904L75.439 191.825L75.3605 191.497ZM75.3617 191.497L75.6883 191.412L75.6052 191.092L75.2832 191.169L75.3617 191.497ZM83.234 196.225L83.1554 195.897L83.1554 195.897L83.234 196.225ZM88.1091 188.443L88.0306 188.115L87.7084 188.192L87.7796 188.515L88.1091 188.443ZM88.1101 188.443L88.1886 188.771L88.5168 188.692L88.4382 188.364L88.1101 188.443ZM88.4196 188.287C88.4163 188.272 88.4129 188.258 88.4095 188.244L87.7534 188.401C87.7565 188.414 87.7595 188.427 87.7625 188.44L88.4196 188.287ZM88.4095 188.244C88.4061 188.23 88.4027 188.216 88.3992 188.201L87.744 188.363C87.7472 188.376 87.7503 188.388 87.7534 188.401L88.4095 188.244ZM86.3678 182.619L87.7435 188.361L88.3997 188.203L87.024 182.462L86.3678 182.619ZM87.0244 182.463C87.0215 182.451 87.0185 182.438 87.0154 182.425L86.3593 182.583C86.362 182.594 86.3647 182.605 86.3674 182.617L87.0244 182.463ZM87.0154 182.425C87.0124 182.413 87.0093 182.4 87.0062 182.387L86.3509 182.548C86.3538 182.56 86.3565 182.571 86.3593 182.583L87.0154 182.425ZM86.3489 182.54L86.3505 182.546L87.0067 182.389L87.0051 182.383L86.3489 182.54ZM86.7551 182.789L86.7551 182.789L86.5989 182.133L86.5988 182.133L86.7551 182.789ZM87.0045 182.38C86.0983 178.705 82.3935 176.445 78.7066 177.328L78.8638 177.985C82.1898 177.188 85.532 179.226 86.3494 182.542L87.0045 182.38ZM78.7066 177.328C75.0197 178.212 72.7413 181.905 73.5991 185.592L74.2563 185.439C73.4824 182.113 75.5379 178.781 78.8638 177.985L78.7066 177.328ZM74.0064 185.844L74.0067 185.844L73.8486 185.188L73.8484 185.188L74.0064 185.844ZM75.6886 191.419L74.2555 185.437L73.5993 185.595L75.0324 191.576L75.6886 191.419ZM75.2832 191.169L75.282 191.169L75.439 191.825L75.4402 191.825L75.2832 191.169ZM75.0352 191.582C75.9754 195.209 79.6528 197.43 83.3126 196.553L83.1554 195.897C79.854 196.688 76.5365 194.685 75.6883 191.412L75.0352 191.582ZM83.3126 196.553C86.9724 195.676 89.2443 192.03 88.4386 188.37L87.7796 188.515C88.5065 191.817 86.4569 195.106 83.1554 195.897L83.3126 196.553ZM88.0316 188.114L88.0306 188.115L88.1876 188.771L88.1886 188.771L88.0316 188.114ZM87.763 188.442L87.782 188.521L88.4382 188.364L88.4191 188.284L87.763 188.442Z" fill="black" mask="url(#path-70-inside-2_1231_87822)"/>
</g>
<path d="M80.1152 190.57C80.3261 192.004 82.7298 192.679 84.9227 191.034" stroke="black" stroke-width="0.337366"/>
<path d="M83.4531 183.138C83.9311 182.913 85.0556 182.708 85.7303 183.686" stroke="black" stroke-width="0.337366" stroke-linecap="round"/>
<path d="M77.0922 185.272C77.2668 184.773 77.9088 183.827 79.0795 184.032" stroke="black" stroke-width="0.337366" stroke-linecap="round"/>
<path d="M80.4081 176.086L80.4081 176.087L80.421 176.087C82.6704 176.153 84.4189 177.048 85.6563 178.141C86.8418 179.187 87.5497 180.407 87.7806 181.239C87.4382 181.434 86.8516 181.602 86.1035 181.74C85.2874 181.891 84.3076 182.001 83.3078 182.079C81.3084 182.236 79.2434 182.265 78.2789 182.244L77.7667 182.233L78.1721 182.546C78.3828 182.709 78.6632 182.822 78.9597 182.902C79.2585 182.982 79.5855 183.031 79.8986 183.059C80.2211 183.088 80.5356 183.095 80.7961 183.088C79.9031 183.777 78.7666 184.306 77.646 184.698C76.3517 185.151 75.093 185.417 74.2868 185.535L74.1055 185.562L74.1469 185.74C74.4292 186.957 74.9482 189.084 75.2963 190.511C75.4507 191.144 75.5715 191.639 75.6231 191.856C75.7145 192.24 76.0025 192.787 76.3311 193.292C76.6341 193.757 76.9877 194.21 77.286 194.489L76.625 197.172H74.1317C74.835 196.1 74.9834 194.861 74.84 193.547C74.6848 192.125 74.1854 190.595 73.659 189.063C73.6071 188.912 73.5551 188.761 73.503 188.611C73.0236 187.222 72.5455 185.838 72.2865 184.511C71.9997 183.042 71.9869 181.666 72.5255 180.457C73.3975 178.499 74.9432 177.362 76.4894 176.736C78.0393 176.108 79.578 175.998 80.4081 176.086Z" fill="white" stroke="black" stroke-width="0.337366"/>
<ellipse cx="79.1092" cy="186.123" rx="0.759074" ry="0.843416" transform="rotate(-6.77646 79.1092 186.123)" fill="black"/>
<ellipse cx="84.5088" cy="185.279" rx="0.759074" ry="0.843416" transform="rotate(-6.27568 84.5088 185.279)" fill="black"/>
<path d="M81.8046 186.599C81.9689 187.769 82.6827 188.605 82.6827 188.605C82.6827 188.605 82.4608 189.148 81.6021 189.098" stroke="black" stroke-width="0.337366"/>
<path d="M76.0349 187.348V187.254L75.9544 187.205C75.6395 187.011 75.2565 186.906 74.8608 186.906C74.3851 186.906 73.9397 187.053 73.6225 187.352C73.3017 187.655 73.1286 188.097 73.1746 188.649C73.2194 189.186 73.3998 189.581 73.699 189.844C73.6744 189.929 73.6672 190.019 73.6786 190.115C73.7114 190.391 73.8508 190.589 74.0661 190.712C74.2714 190.828 74.5341 190.87 74.814 190.87C75.2761 190.87 75.6813 190.621 75.9898 190.289L76.0349 190.24V190.174V187.348Z" stroke="black" stroke-width="0.337366"/>
<path fill-rule="evenodd" clip-rule="evenodd" d="M76.5382 188.679C76.5445 188.623 76.5477 188.566 76.5477 188.508C76.5477 187.646 75.7459 187.074 74.8608 187.074C73.9758 187.074 73.2583 187.622 73.3427 188.635C73.3896 189.198 73.591 189.568 73.9034 189.791C73.8538 189.878 73.8321 189.979 73.8459 190.095C73.899 190.54 74.2792 190.701 74.8138 190.701C75.7491 190.701 76.4894 189.519 76.5382 188.679Z" fill="#F9C9B6"/>
<path d="M75.2342 187.792C74.8969 187.637 74.1547 187.555 73.8848 188.466" stroke="black" stroke-width="0.337366"/>
<path d="M74.3477 187.834C74.5304 187.989 74.879 188.467 74.8115 189.141" stroke="black" stroke-width="0.337366"/>
<path d="M92.3099 204.342H69.2577C70.6325 201.868 72.5878 200.292 75.7579 199.57C77.1085 199.262 78.6819 199.108 80.5279 199.108C81.3254 199.108 81.946 199.23 82.5349 199.39C82.7531 199.45 82.9724 199.516 83.1967 199.585C83.568 199.697 83.9531 199.814 84.3699 199.91L84.3817 199.913L84.3938 199.914C88.284 200.235 90.6169 201.963 92.3099 204.342Z" fill="#77311D" stroke="black" stroke-width="0.337366"/>
<path d="M74.7868 199.754L75.5588 198.101C75.5773 198.061 75.6231 198.042 75.6642 198.057C78.863 199.189 81.773 199.11 84.4697 198.359C84.5037 198.349 84.5399 198.362 84.5607 198.39L85.7358 199.997C85.7681 200.041 85.7516 200.104 85.7007 200.124C82.8662 201.237 77.5476 201.048 74.8277 199.865C74.7846 199.846 74.7669 199.796 74.7868 199.754Z" fill="white" stroke="black" stroke-width="0.337366"/>
</g>
<circle cx="121.025" cy="188.025" r="16.0249" fill="#F4D150"/>
<mask id="mask6_1231_87822" style="mask-type:alpha" maskUnits="userSpaceOnUse" x="105" y="172" width="32" height="32">
<circle cx="121" cy="188" r="16" fill="#FFF9ED"/>
</mask>
<g mask="url(#mask6_1231_87822)">
<path d="M125.335 203.408C124.121 201.721 123.171 197.617 123.058 195.986L117.281 193.498L114.877 203.408H125.335Z" fill="#FC909F" stroke="black" stroke-width="0.337366"/>
<mask id="mask7_1231_87822" style="mask-type:alpha" maskUnits="userSpaceOnUse" x="114" y="193" width="12" height="11">
<path d="M125.335 203.408C124.121 201.721 123.171 197.617 123.058 195.986L117.281 193.498L114.877 203.408H125.335Z" fill="#FFEDEF"/>
</mask>
<g mask="url(#mask7_1231_87822)">
<ellipse cx="123.035" cy="193.306" rx="4.97615" ry="4.55444" fill="black"/>
</g>
<g clip-path="url(#clip2_1231_87822)">
<path d="M125.568 203.414C124.353 201.727 123.403 197.623 123.291 195.992L117.513 193.504L115.109 203.414H125.568Z" fill="#77311D" stroke="black" stroke-width="0.337366"/>
<mask id="mask8_1231_87822" style="mask-type:alpha" maskUnits="userSpaceOnUse" x="115" y="193" width="11" height="11">
<path d="M125.57 203.414C124.355 201.727 123.405 197.623 123.292 195.992L117.515 193.504L115.111 203.414H125.57Z" fill="#AC6651"/>
</mask>
<g mask="url(#mask8_1231_87822)">
<ellipse cx="123.039" cy="193.336" rx="4.97615" ry="4.55444" fill="black"/>
</g>
<mask id="path-93-inside-3_1231_87822" fill="white">
<path fill-rule="evenodd" clip-rule="evenodd" d="M128.093 188.363C128.09 188.35 128.087 188.336 128.083 188.323C128.08 188.309 128.077 188.296 128.074 188.282L126.698 182.54C126.695 182.528 126.692 182.516 126.689 182.504C126.686 182.492 126.683 182.48 126.681 182.468L126.679 182.461L126.679 182.461C125.817 178.966 122.294 176.816 118.787 177.657C115.281 178.497 113.114 182.009 113.93 185.516L113.929 185.516L115.467 191.933L115.491 191.928C116.554 195.12 119.903 197.023 123.236 196.225C126.569 195.426 128.692 192.212 128.193 188.885L128.217 188.879L128.093 188.363Z"/>
</mask>
<path fill-rule="evenodd" clip-rule="evenodd" d="M128.093 188.363C128.09 188.35 128.087 188.336 128.083 188.323C128.08 188.309 128.077 188.296 128.074 188.282L126.698 182.54C126.695 182.528 126.692 182.516 126.689 182.504C126.686 182.492 126.683 182.48 126.681 182.468L126.679 182.461L126.679 182.461C125.817 178.966 122.294 176.816 118.787 177.657C115.281 178.497 113.114 182.009 113.93 185.516L113.929 185.516L115.467 191.933L115.491 191.928C116.554 195.12 119.903 197.023 123.236 196.225C126.569 195.426 128.692 192.212 128.193 188.885L128.217 188.879L128.093 188.363Z" fill="#77311D"/>
<path d="M128.093 188.363L127.764 188.44L127.765 188.442L128.093 188.363ZM128.083 188.323L127.755 188.401L127.755 188.401L128.083 188.323ZM128.074 188.282L127.745 188.361L127.746 188.363L128.074 188.282ZM126.698 182.54L126.369 182.617L126.37 182.619L126.698 182.54ZM126.689 182.504L127.017 182.425L127.017 182.425L126.689 182.504ZM126.681 182.468L126.352 182.546L126.353 182.548L126.681 182.468ZM126.679 182.461L127.007 182.383L126.929 182.055L126.601 182.133L126.679 182.461ZM126.679 182.461L126.351 182.542L126.431 182.867L126.757 182.789L126.679 182.461ZM118.787 177.657L118.709 177.328L118.787 177.657ZM113.93 185.516L114.009 185.844L114.334 185.765L114.258 185.439L113.93 185.516ZM113.929 185.516L113.85 185.188L113.523 185.267L113.601 185.595L113.929 185.516ZM115.467 191.933L115.139 192.012L115.217 192.34L115.546 192.262L115.467 191.933ZM115.491 191.928L115.811 191.821L115.713 191.528L115.412 191.6L115.491 191.928ZM128.193 188.885L128.114 188.556L127.813 188.629L127.859 188.935L128.193 188.885ZM128.217 188.879L128.295 189.207L128.623 189.128L128.545 188.8L128.217 188.879ZM128.422 188.287C128.418 188.272 128.415 188.258 128.411 188.244L127.755 188.401C127.758 188.414 127.761 188.427 127.764 188.44L128.422 188.287ZM128.411 188.244C128.408 188.23 128.405 188.216 128.401 188.201L127.746 188.363C127.749 188.376 127.752 188.388 127.755 188.401L128.411 188.244ZM126.37 182.619L127.746 188.361L128.402 188.203L127.026 182.462L126.37 182.619ZM127.026 182.463C127.023 182.451 127.02 182.438 127.017 182.425L126.361 182.583C126.364 182.594 126.367 182.605 126.369 182.617L127.026 182.463ZM127.017 182.425C127.014 182.413 127.011 182.4 127.008 182.387L126.353 182.548C126.356 182.56 126.358 182.571 126.361 182.583L127.017 182.425ZM126.351 182.54L126.352 182.546L127.009 182.389L127.007 182.383L126.351 182.54ZM126.757 182.789L126.757 182.789L126.601 182.133L126.601 182.133L126.757 182.789ZM127.006 182.38C126.1 178.705 122.395 176.445 118.709 177.328L118.866 177.985C122.192 177.188 125.534 179.226 126.351 182.542L127.006 182.38ZM118.709 177.328C115.022 178.212 112.743 181.905 113.601 185.592L114.258 185.439C113.484 182.113 115.54 178.781 118.866 177.985L118.709 177.328ZM114.008 185.844L114.009 185.844L113.851 185.188L113.85 185.188L114.008 185.844ZM115.795 191.855L114.257 185.437L113.601 185.595L115.139 192.012L115.795 191.855ZM115.412 191.6L115.388 191.605L115.546 192.262L115.57 192.256L115.412 191.6ZM115.171 192.034C116.289 195.392 119.81 197.393 123.315 196.553L123.157 195.897C119.996 196.654 116.819 194.849 115.811 191.821L115.171 192.034ZM123.315 196.553C126.82 195.713 129.051 192.334 128.526 188.834L127.859 188.935C128.333 192.091 126.319 195.139 123.157 195.897L123.315 196.553ZM128.138 188.551L128.114 188.556L128.271 189.213L128.295 189.207L128.138 188.551ZM127.765 188.442L127.888 188.957L128.545 188.8L128.421 188.284L127.765 188.442Z" fill="black" mask="url(#path-93-inside-3_1231_87822)"/>
</g>
<path d="M121.001 191.132C121.418 191.675 122.049 192.278 123.023 192.14C123.997 192.003 124.431 191.331 124.303 190.787" stroke="black" stroke-width="0.337366"/>
<path d="M123.455 183.138C123.933 182.913 125.058 182.708 125.732 183.686" stroke="black" stroke-width="0.337366" stroke-linecap="round"/>
<path d="M117.094 185.272C117.269 184.773 117.911 183.827 119.081 184.032" stroke="black" stroke-width="0.337366" stroke-linecap="round"/>
<path d="M128.754 183.112C128.754 177.538 125.679 173.768 121.933 173.768C117.135 173.768 112.246 175.568 112.246 184.079C112.246 186.185 113.145 187.754 114.402 188.91C114.276 188.753 114.175 188.611 114.107 188.495C113.863 186.22 116.567 184.473 119.213 182.764C120.617 181.857 122.005 180.96 122.928 180C123.737 180.459 126.115 182.38 126.568 183.156C126.811 183.573 127.202 185.001 127.468 186.668C128.34 185.62 128.754 184.572 128.754 183.112Z" fill="white" stroke="black" stroke-width="0.337366"/>
<path d="M122.98 179.945C124.092 178.937 125.754 176.638 125.647 175.145" stroke="black" stroke-width="0.337366"/>
<ellipse cx="119.109" cy="186.123" rx="0.759074" ry="0.843416" transform="rotate(-6.77646 119.109 186.123)" fill="black"/>
<ellipse cx="124.509" cy="185.279" rx="0.759074" ry="0.843416" transform="rotate(-6.27568 124.509 185.279)" fill="black"/>
<circle cx="124.756" cy="185.393" r="2.19288" stroke="#F4D150" stroke-width="0.337366"/>
<circle cx="119.106" cy="186.151" r="2.19288" stroke="#F4D150" stroke-width="0.337366"/>
<path d="M122.648 185.981C122.648 185.802 122.577 185.631 122.451 185.504C122.324 185.378 122.153 185.307 121.974 185.307C121.795 185.307 121.623 185.378 121.496 185.504C121.37 185.631 121.299 185.802 121.299 185.981" stroke="#F4D150" stroke-width="0.337366"/>
<path d="M116.956 186.32L114.426 186.784" stroke="#F4D150" stroke-width="0.337366"/>
<path d="M121.853 186.933C121.871 187.258 121.997 187.952 122.364 188.139C122.822 188.373 122.463 189.147 121.604 189.098" stroke="black" stroke-width="0.337366"/>
<path d="M115.489 187.173C115.292 187.109 115.08 187.074 114.863 187.074C113.978 187.074 113.26 187.622 113.345 188.635C113.432 189.689 114.062 190.068 114.947 190.068C115.046 190.068 115.142 190.06 115.236 190.043C115.338 190.025 115.436 189.998 115.531 189.962" stroke="black" stroke-width="0.674733"/>
<path d="M115.573 189.945C115.381 190.024 115.169 190.068 114.947 190.068C114.062 190.068 113.432 189.689 113.345 188.635C113.26 187.622 113.978 187.074 114.863 187.074C115.127 187.074 115.385 187.125 115.615 187.22L115.573 189.945Z" fill="#77311D"/>
<path d="M115.236 187.792C114.899 187.637 114.157 187.555 113.887 188.466" stroke="black" stroke-width="0.337366"/>
<path d="M114.35 187.834C114.532 187.989 114.881 188.467 114.813 189.141" stroke="black" stroke-width="0.337366"/>
<path d="M132.31 204.342H109.258C110.632 201.868 112.588 200.292 115.758 199.57C117.109 199.262 118.682 199.108 120.528 199.108C121.325 199.108 121.946 199.23 122.535 199.39C122.753 199.45 122.972 199.516 123.197 199.585C123.568 199.697 123.953 199.814 124.37 199.91L124.382 199.913L124.394 199.914C128.284 200.235 130.617 201.963 132.31 204.342Z" fill="#9287FF" stroke="black" stroke-width="0.337366"/>
<path d="M114.787 199.754L115.559 198.101C115.577 198.061 115.623 198.042 115.664 198.057C118.863 199.189 121.773 199.11 124.47 198.359C124.504 198.349 124.54 198.362 124.561 198.39L125.736 199.997C125.768 200.041 125.752 200.104 125.701 200.124C122.866 201.237 117.548 201.048 114.828 199.865C114.785 199.846 114.767 199.796 114.787 199.754Z" fill="#E0DDFF" stroke="black" stroke-width="0.337366"/>
</g>
<circle cx="81" cy="118" r="26" fill="#6420FF"/>
<path d="M72.6786 123.192C72.3693 123.192 72.108 123.085 71.8946 122.872C71.692 122.659 71.5906 122.397 71.5906 122.088V113.544C71.5906 113.224 71.692 112.963 71.8946 112.76C72.108 112.547 72.3746 112.44 72.6946 112.44H75.5746C76.3213 112.44 76.9773 112.584 77.5426 112.872C78.1186 113.149 78.5666 113.549 78.8866 114.072C79.2066 114.584 79.3666 115.176 79.3666 115.848C79.3666 116.509 79.2066 117.101 78.8866 117.624C78.5666 118.147 78.1186 118.552 77.5426 118.84C76.9666 119.128 76.3106 119.272 75.5746 119.272H73.7506V122.088C73.7506 122.397 73.644 122.659 73.4306 122.872C73.228 123.085 72.9773 123.192 72.6786 123.192ZM75.5586 117.384C76.0493 117.384 76.4386 117.245 76.7266 116.968C77.0146 116.691 77.1586 116.317 77.1586 115.848C77.1586 115.389 77.0146 115.027 76.7266 114.76C76.4386 114.483 76.0493 114.344 75.5586 114.344H73.7506V117.384H75.5586ZM90.355 112.248C90.6537 112.248 90.9043 112.355 91.107 112.568C91.3097 112.781 91.411 113.048 91.411 113.368V122.088C91.411 122.397 91.3043 122.659 91.091 122.872C90.8883 123.085 90.6377 123.192 90.339 123.192C90.0297 123.192 89.7683 123.085 89.555 122.872C89.3523 122.659 89.251 122.397 89.251 122.088V116.872L87.267 119.992C87.1177 120.237 86.963 120.413 86.803 120.52C86.643 120.627 86.4563 120.68 86.243 120.68C86.0403 120.68 85.8537 120.627 85.683 120.52C85.523 120.413 85.3683 120.237 85.219 119.992L83.235 116.84V122.088C83.235 122.397 83.1283 122.659 82.915 122.872C82.7123 123.085 82.4617 123.192 82.163 123.192C81.8537 123.192 81.5923 123.085 81.379 122.872C81.1763 122.659 81.075 122.397 81.075 122.088V113.368C81.075 113.048 81.1763 112.781 81.379 112.568C81.5817 112.355 81.8323 112.248 82.131 112.248C82.3657 112.248 82.563 112.312 82.723 112.44C82.8937 112.557 83.075 112.771 83.267 113.08L86.243 117.8L89.219 113.08C89.411 112.771 89.587 112.557 89.747 112.44C89.9177 112.312 90.1203 112.248 90.355 112.248Z" fill="white"/>
<path d="M56.7099 41.192C56.4005 41.192 56.1392 41.0853 55.9259 40.872C55.7232 40.6587 55.6219 40.3973 55.6219 40.088V31.544C55.6219 31.224 55.7232 30.9627 55.9259 30.76C56.1392 30.5467 56.4059 30.44 56.7259 30.44H59.6059C60.3525 30.44 61.0085 30.584 61.5739 30.872C62.1499 31.1493 62.5979 31.5493 62.9179 32.072C63.2379 32.584 63.3979 33.176 63.3979 33.848C63.3979 34.5093 63.2379 35.1013 62.9179 35.624C62.5979 36.1467 62.1499 36.552 61.5739 36.84C60.9979 37.128 60.3419 37.272 59.6059 37.272H57.7819V40.088C57.7819 40.3973 57.6752 40.6587 57.4619 40.872C57.2592 41.0853 57.0085 41.192 56.7099 41.192ZM59.5899 35.384C60.0805 35.384 60.4699 35.2453 60.7579 34.968C61.0459 34.6907 61.1899 34.3173 61.1899 33.848C61.1899 33.3893 61.0459 33.0267 60.7579 32.76C60.4699 32.4827 60.0805 32.344 59.5899 32.344H57.7819V35.384H59.5899ZM69.0263 32.984C69.3143 32.984 69.5489 33.0747 69.7303 33.256C69.9116 33.4267 70.0023 33.6613 70.0023 33.96C70.0023 34.248 69.9116 34.488 69.7303 34.68C69.5489 34.8613 69.3036 34.968 68.9943 35C68.4183 35.0427 67.9649 35.2453 67.6343 35.608C67.3036 35.96 67.1383 36.44 67.1383 37.048V40.088C67.1383 40.408 67.0369 40.6747 66.8343 40.888C66.6316 41.0907 66.3756 41.192 66.0663 41.192C65.7569 41.192 65.4956 41.0853 65.2823 40.872C65.0796 40.6587 64.9783 40.3973 64.9783 40.088V33.992C64.9783 33.6827 65.0796 33.4267 65.2823 33.224C65.4849 33.0107 65.7409 32.904 66.0503 32.904C66.3276 32.904 66.5623 33 66.7543 33.192C66.9569 33.3733 67.0689 33.6027 67.0903 33.88C67.3463 33.592 67.6396 33.3733 67.9703 33.224C68.3009 33.064 68.6529 32.984 69.0263 32.984ZM74.8171 32.904C75.5958 32.904 76.3105 33.0907 76.9611 33.464C77.6118 33.8267 78.1238 34.3227 78.4971 34.952C78.8811 35.5813 79.0731 36.2747 79.0731 37.032C79.0731 37.7893 78.8811 38.488 78.4971 39.128C78.1238 39.7573 77.6065 40.2587 76.9451 40.632C76.2945 40.9947 75.5798 41.176 74.8011 41.176C74.0225 41.176 73.3078 40.9947 72.6571 40.632C72.0171 40.2587 71.5105 39.7573 71.1371 39.128C70.7638 38.488 70.5771 37.7893 70.5771 37.032C70.5771 36.2747 70.7638 35.5813 71.1371 34.952C71.5105 34.312 72.0225 33.8107 72.6731 33.448C73.3238 33.0853 74.0385 32.904 74.8171 32.904ZM74.8171 34.872C74.2198 34.872 73.7291 35.08 73.3451 35.496C72.9611 35.9013 72.7691 36.4187 72.7691 37.048C72.7691 37.6667 72.9611 38.1787 73.3451 38.584C73.7291 38.9893 74.2198 39.192 74.8171 39.192C75.4038 39.192 75.8891 38.9893 76.2731 38.584C76.6678 38.1787 76.8651 37.6667 76.8651 37.048C76.8651 36.4293 76.6678 35.912 76.2731 35.496C75.8891 35.08 75.4038 34.872 74.8171 34.872ZM79.9595 44.072C79.6608 44.072 79.3675 44.024 79.0795 43.928C78.8768 43.8427 78.7168 43.7253 78.5995 43.576C78.4822 43.4267 78.4235 43.2507 78.4235 43.048C78.4235 42.7813 78.5088 42.5573 78.6795 42.376C78.8502 42.2053 79.0688 42.12 79.3355 42.12L79.5435 42.136C79.9702 42.136 80.2795 42.0293 80.4715 41.816C80.6635 41.6133 80.7595 41.2453 80.7595 40.712V33.992C80.7595 33.6827 80.8608 33.4267 81.0635 33.224C81.2768 33.0107 81.5382 32.904 81.8475 32.904C82.1568 32.904 82.4128 33.0107 82.6155 33.224C82.8182 33.4267 82.9195 33.6827 82.9195 33.992V41.096C82.9195 42.056 82.6528 42.792 82.1195 43.304C81.5968 43.816 80.8768 44.072 79.9595 44.072ZM81.8315 28.888C82.2048 28.888 82.5248 29.016 82.7915 29.272C83.0582 29.528 83.1915 29.8373 83.1915 30.2C83.1915 30.5627 83.0582 30.872 82.7915 31.128C82.5248 31.3733 82.2048 31.496 81.8315 31.496C81.4582 31.496 81.1382 31.3733 80.8715 31.128C80.6155 30.872 80.4875 30.5627 80.4875 30.2C80.4875 29.8373 80.6155 29.528 80.8715 29.272C81.1382 29.016 81.4582 28.888 81.8315 28.888ZM88.7204 32.904C89.435 32.904 90.075 33.064 90.6404 33.384C91.2164 33.704 91.6644 34.1467 91.9844 34.712C92.315 35.2773 92.4804 35.912 92.4804 36.616V36.664C92.4804 36.9947 92.3684 37.2613 92.1444 37.464C91.931 37.6667 91.6484 37.768 91.2964 37.768H86.7844C86.9124 38.2693 87.1684 38.6587 87.5524 38.936C87.9364 39.2027 88.4217 39.336 89.0084 39.336C89.6164 39.336 90.1657 39.1813 90.6564 38.872C90.8164 38.776 90.971 38.728 91.1204 38.728C91.3657 38.728 91.5737 38.8133 91.7444 38.984C91.915 39.144 92.0004 39.3467 92.0004 39.592C92.0004 39.7733 91.9577 39.9333 91.8724 40.072C91.787 40.2 91.6484 40.328 91.4564 40.456C90.7204 40.9467 89.883 41.192 88.9444 41.192C88.123 41.192 87.3817 41.0107 86.7204 40.648C86.059 40.2853 85.5417 39.7893 85.1684 39.16C84.795 38.5307 84.6084 37.8267 84.6084 37.048C84.6084 36.28 84.7844 35.5813 85.1364 34.952C85.499 34.312 85.995 33.8107 86.6244 33.448C87.2537 33.0853 87.9524 32.904 88.7204 32.904ZM88.6724 34.648C88.203 34.648 87.7977 34.792 87.4564 35.08C87.1257 35.368 86.9017 35.7573 86.7844 36.248H90.3844C90.363 35.768 90.1977 35.384 89.8884 35.096C89.579 34.7973 89.1737 34.648 88.6724 34.648ZM97.9578 41.192C97.1791 41.192 96.4644 41.0107 95.8138 40.648C95.1631 40.2747 94.6511 39.768 94.2778 39.128C93.9044 38.488 93.7178 37.7893 93.7178 37.032C93.7178 36.2747 93.9044 35.5813 94.2778 34.952C94.6511 34.312 95.1631 33.8107 95.8138 33.448C96.4644 33.0853 97.1791 32.904 97.9578 32.904C98.6191 32.904 99.2378 33.048 99.8138 33.336C100.4 33.624 100.848 34.0027 101.158 34.472C101.286 34.6747 101.35 34.8667 101.35 35.048C101.35 35.3147 101.254 35.544 101.062 35.736C100.88 35.9173 100.656 36.008 100.39 36.008C100.08 36.008 99.8351 35.896 99.6538 35.672C99.2058 35.1387 98.6511 34.872 97.9898 34.872C97.3818 34.872 96.8804 35.0747 96.4858 35.48C96.1018 35.8853 95.9098 36.4027 95.9098 37.032C95.9098 37.672 96.1018 38.1947 96.4858 38.6C96.8804 39.0053 97.3818 39.208 97.9898 39.208C98.6191 39.208 99.1738 38.9413 99.6538 38.408C99.8458 38.184 100.091 38.072 100.39 38.072C100.656 38.072 100.88 38.168 101.062 38.36C101.254 38.5413 101.35 38.7653 101.35 39.032C101.35 39.2133 101.291 39.3947 101.174 39.576C100.843 40.088 100.395 40.488 99.8298 40.776C99.2751 41.0533 98.6511 41.192 97.9578 41.192ZM107.314 39.24C107.602 39.24 107.831 39.32 108.002 39.48C108.173 39.64 108.258 39.8533 108.258 40.12C108.258 40.312 108.21 40.4827 108.114 40.632C108.018 40.7813 107.885 40.8987 107.714 40.984C107.383 41.1227 107.01 41.192 106.594 41.192C105.559 41.192 104.77 40.9413 104.226 40.44C103.693 39.928 103.426 39.1867 103.426 38.216V34.904H102.978C102.711 34.904 102.487 34.8187 102.306 34.648C102.135 34.4773 102.05 34.2587 102.05 33.992C102.05 33.7253 102.135 33.5067 102.306 33.336C102.487 33.1653 102.711 33.08 102.978 33.08H103.426V31.992C103.426 31.6827 103.527 31.4267 103.73 31.224C103.933 31.0107 104.194 30.904 104.514 30.904C104.823 30.904 105.079 31.0107 105.282 31.224C105.485 31.4267 105.586 31.6827 105.586 31.992V33.08H107.042C107.309 33.08 107.527 33.1653 107.698 33.336C107.869 33.5067 107.954 33.7253 107.954 33.992C107.954 34.2587 107.869 34.4773 107.698 34.648C107.527 34.8187 107.309 34.904 107.042 34.904H105.586V38.024C105.586 38.4613 105.698 38.776 105.922 38.968C106.146 39.16 106.509 39.256 107.01 39.256L107.314 39.24ZM49.0329 56.904C49.7475 56.904 50.3875 57.064 50.9529 57.384C51.5289 57.704 51.9769 58.1467 52.2969 58.712C52.6275 59.2773 52.7929 59.912 52.7929 60.616V60.664C52.7929 60.9947 52.6809 61.2613 52.4569 61.464C52.2435 61.6667 51.9609 61.768 51.6089 61.768H47.0969C47.2249 62.2693 47.4809 62.6587 47.8649 62.936C48.2489 63.2027 48.7342 63.336 49.3209 63.336C49.9289 63.336 50.4782 63.1813 50.9689 62.872C51.1289 62.776 51.2835 62.728 51.4329 62.728C51.6782 62.728 51.8862 62.8133 52.0569 62.984C52.2275 63.144 52.3129 63.3467 52.3129 63.592C52.3129 63.7733 52.2702 63.9333 52.1849 64.072C52.0995 64.2 51.9609 64.328 51.7689 64.456C51.0329 64.9467 50.1955 65.192 49.2569 65.192C48.4355 65.192 47.6942 65.0107 47.0329 64.648C46.3715 64.2853 45.8542 63.7893 45.4809 63.16C45.1075 62.5307 44.9209 61.8267 44.9209 61.048C44.9209 60.28 45.0969 59.5813 45.4489 58.952C45.8115 58.312 46.3075 57.8107 46.9369 57.448C47.5662 57.0853 48.2649 56.904 49.0329 56.904ZM48.9849 58.648C48.5155 58.648 48.1102 58.792 47.7689 59.08C47.4382 59.368 47.2142 59.7573 47.0969 60.248H50.6969C50.6755 59.768 50.5102 59.384 50.2009 59.096C49.8915 58.7973 49.4862 58.648 48.9849 58.648ZM60.786 63.352C60.9993 63.6293 61.106 63.896 61.106 64.152C61.106 64.44 61.0047 64.6853 60.802 64.888C60.61 65.0907 60.3647 65.192 60.066 65.192C59.7033 65.192 59.4047 65.032 59.17 64.712L57.49 62.568L55.81 64.712C55.554 65.032 55.2607 65.192 54.93 65.192C54.6313 65.192 54.3807 65.0907 54.178 64.888C53.9753 64.6853 53.874 64.44 53.874 64.152C53.874 63.9067 53.986 63.64 54.21 63.352L56.13 60.968L54.402 58.744C54.1673 58.456 54.05 58.1893 54.05 57.944C54.05 57.656 54.1513 57.4107 54.354 57.208C54.5567 57.0053 54.8073 56.904 55.106 56.904C55.458 56.904 55.746 57.0587 55.97 57.368L57.506 59.352L59.074 57.368C59.3193 57.0587 59.6127 56.904 59.954 56.904C60.242 56.904 60.4873 57.0053 60.69 57.208C60.8927 57.4107 60.994 57.656 60.994 57.944C60.994 58.1787 60.8767 58.4453 60.642 58.744L58.882 60.952L60.786 63.352ZM66.1735 56.904C66.8882 56.904 67.5282 57.064 68.0935 57.384C68.6695 57.704 69.1175 58.1467 69.4375 58.712C69.7682 59.2773 69.9335 59.912 69.9335 60.616V60.664C69.9335 60.9947 69.8215 61.2613 69.5975 61.464C69.3842 61.6667 69.1015 61.768 68.7495 61.768H64.2375C64.3655 62.2693 64.6215 62.6587 65.0055 62.936C65.3895 63.2027 65.8748 63.336 66.4615 63.336C67.0695 63.336 67.6188 63.1813 68.1095 62.872C68.2695 62.776 68.4242 62.728 68.5735 62.728C68.8188 62.728 69.0268 62.8133 69.1975 62.984C69.3682 63.144 69.4535 63.3467 69.4535 63.592C69.4535 63.7733 69.4108 63.9333 69.3255 64.072C69.2402 64.2 69.1015 64.328 68.9095 64.456C68.1735 64.9467 67.3362 65.192 66.3975 65.192C65.5762 65.192 64.8348 65.0107 64.1735 64.648C63.5122 64.2853 62.9948 63.7893 62.6215 63.16C62.2482 62.5307 62.0615 61.8267 62.0615 61.048C62.0615 60.28 62.2375 59.5813 62.5895 58.952C62.9522 58.312 63.4482 57.8107 64.0775 57.448C64.7068 57.0853 65.4055 56.904 66.1735 56.904ZM66.1255 58.648C65.6562 58.648 65.2508 58.792 64.9095 59.08C64.5788 59.368 64.3548 59.7573 64.2375 60.248H67.8375C67.8162 59.768 67.6508 59.384 67.3415 59.096C67.0322 58.7973 66.6268 58.648 66.1255 58.648ZM75.4109 65.192C74.6322 65.192 73.9175 65.0107 73.2669 64.648C72.6162 64.2747 72.1042 63.768 71.7309 63.128C71.3575 62.488 71.1709 61.7893 71.1709 61.032C71.1709 60.2747 71.3575 59.5813 71.7309 58.952C72.1042 58.312 72.6162 57.8107 73.2669 57.448C73.9175 57.0853 74.6322 56.904 75.4109 56.904C76.0722 56.904 76.6909 57.048 77.2669 57.336C77.8535 57.624 78.3015 58.0027 78.6109 58.472C78.7389 58.6747 78.8029 58.8667 78.8029 59.048C78.8029 59.3147 78.7069 59.544 78.5149 59.736C78.3335 59.9173 78.1095 60.008 77.8429 60.008C77.5335 60.008 77.2882 59.896 77.1069 59.672C76.6589 59.1387 76.1042 58.872 75.4429 58.872C74.8349 58.872 74.3335 59.0747 73.9389 59.48C73.5549 59.8853 73.3629 60.4027 73.3629 61.032C73.3629 61.672 73.5549 62.1947 73.9389 62.6C74.3335 63.0053 74.8349 63.208 75.4429 63.208C76.0722 63.208 76.6269 62.9413 77.1069 62.408C77.2989 62.184 77.5442 62.072 77.8429 62.072C78.1095 62.072 78.3335 62.168 78.5149 62.36C78.7069 62.5413 78.8029 62.7653 78.8029 63.032C78.8029 63.2133 78.7442 63.3947 78.6269 63.576C78.2962 64.088 77.8482 64.488 77.2829 64.776C76.7282 65.0533 76.1042 65.192 75.4109 65.192ZM84.031 65.192C83.3163 65.192 82.6817 65.0373 82.127 64.728C81.5723 64.4187 81.1403 63.9867 80.831 63.432C80.5217 62.8667 80.367 62.2267 80.367 61.512V57.992C80.367 57.6827 80.4683 57.4267 80.671 57.224C80.8843 57.0107 81.1457 56.904 81.455 56.904C81.7643 56.904 82.0203 57.0107 82.223 57.224C82.4257 57.4267 82.527 57.6827 82.527 57.992V61.688C82.527 62.1253 82.6657 62.488 82.943 62.776C83.231 63.064 83.5937 63.208 84.031 63.208C84.4577 63.208 84.8097 63.064 85.087 62.776C85.3643 62.488 85.503 62.1253 85.503 61.688V57.992C85.503 57.6827 85.6043 57.4267 85.807 57.224C86.0097 57.0107 86.271 56.904 86.591 56.904C86.9003 56.904 87.1563 57.0107 87.359 57.224C87.5617 57.4267 87.663 57.6827 87.663 57.992V61.512C87.663 62.2267 87.5083 62.8667 87.199 63.432C86.8897 63.9867 86.4577 64.4187 85.903 64.728C85.359 65.0373 84.735 65.192 84.031 65.192ZM94.0483 63.24C94.3363 63.24 94.5656 63.32 94.7363 63.48C94.9069 63.64 94.9923 63.8533 94.9923 64.12C94.9923 64.312 94.9443 64.4827 94.8483 64.632C94.7523 64.7813 94.6189 64.8987 94.4483 64.984C94.1176 65.1227 93.7443 65.192 93.3283 65.192C92.2936 65.192 91.5043 64.9413 90.9603 64.44C90.4269 63.928 90.1603 63.1867 90.1603 62.216V58.904H89.7122C89.4456 58.904 89.2216 58.8187 89.0403 58.648C88.8696 58.4773 88.7843 58.2587 88.7843 57.992C88.7843 57.7253 88.8696 57.5067 89.0403 57.336C89.2216 57.1653 89.4456 57.08 89.7122 57.08H90.1603V55.992C90.1603 55.6827 90.2616 55.4267 90.4643 55.224C90.6669 55.0107 90.9282 54.904 91.2483 54.904C91.5576 54.904 91.8136 55.0107 92.0163 55.224C92.2189 55.4267 92.3203 55.6827 92.3203 55.992V57.08H93.7763C94.0429 57.08 94.2616 57.1653 94.4323 57.336C94.6029 57.5067 94.6883 57.7253 94.6883 57.992C94.6883 58.2587 94.6029 58.4773 94.4323 58.648C94.2616 58.8187 94.0429 58.904 93.7763 58.904H92.3203V62.024C92.3203 62.4613 92.4323 62.776 92.6562 62.968C92.8803 63.16 93.2429 63.256 93.7443 63.256L94.0483 63.24ZM97.4565 65.192C97.1578 65.192 96.9018 65.0853 96.6885 64.872C96.4858 64.6587 96.3845 64.3973 96.3845 64.088V57.992C96.3845 57.6827 96.4858 57.4267 96.6885 57.224C96.9018 57.0107 97.1632 56.904 97.4725 56.904C97.7818 56.904 98.0378 57.0107 98.2405 57.224C98.4432 57.4267 98.5445 57.6827 98.5445 57.992V64.088C98.5445 64.3973 98.4378 64.6587 98.2245 64.872C98.0218 65.0853 97.7658 65.192 97.4565 65.192ZM97.4565 52.888C97.8298 52.888 98.1498 53.016 98.4165 53.272C98.6832 53.528 98.8165 53.8373 98.8165 54.2C98.8165 54.5627 98.6832 54.872 98.4165 55.128C98.1498 55.3733 97.8298 55.496 97.4565 55.496C97.0832 55.496 96.7632 55.3733 96.4965 55.128C96.2405 54.872 96.1125 54.5627 96.1125 54.2C96.1125 53.8373 96.2405 53.528 96.4965 53.272C96.7632 53.016 97.0832 52.888 97.4565 52.888ZM104.473 56.904C105.252 56.904 105.967 57.0907 106.617 57.464C107.268 57.8267 107.78 58.3227 108.153 58.952C108.537 59.5813 108.729 60.2747 108.729 61.032C108.729 61.7893 108.537 62.488 108.153 63.128C107.78 63.7573 107.263 64.2587 106.601 64.632C105.951 64.9947 105.236 65.176 104.457 65.176C103.679 65.176 102.964 64.9947 102.313 64.632C101.673 64.2587 101.167 63.7573 100.793 63.128C100.42 62.488 100.233 61.7893 100.233 61.032C100.233 60.2747 100.42 59.5813 100.793 58.952C101.167 58.312 101.679 57.8107 102.329 57.448C102.98 57.0853 103.695 56.904 104.473 56.904ZM104.473 58.872C103.876 58.872 103.385 59.08 103.001 59.496C102.617 59.9013 102.425 60.4187 102.425 61.048C102.425 61.6667 102.617 62.1787 103.001 62.584C103.385 62.9893 103.876 63.192 104.473 63.192C105.06 63.192 105.545 62.9893 105.929 62.584C106.324 62.1787 106.521 61.6667 106.521 61.048C106.521 60.4293 106.324 59.912 105.929 59.496C105.545 59.08 105.06 58.872 104.473 58.872ZM114.72 56.904C115.626 56.904 116.346 57.192 116.88 57.768C117.424 58.344 117.696 59.1173 117.696 60.088V64.088C117.696 64.408 117.594 64.6747 117.392 64.888C117.189 65.0907 116.933 65.192 116.624 65.192C116.325 65.192 116.069 65.0853 115.856 64.872C115.653 64.6587 115.552 64.3973 115.552 64.088V60.376C115.552 59.9173 115.413 59.5493 115.136 59.272C114.869 58.984 114.517 58.84 114.08 58.84C113.642 58.84 113.28 58.984 112.992 59.272C112.714 59.56 112.576 59.928 112.576 60.376V64.088C112.576 64.408 112.474 64.6747 112.272 64.888C112.069 65.0907 111.813 65.192 111.504 65.192C111.194 65.192 110.933 65.0853 110.72 64.872C110.517 64.6587 110.416 64.3973 110.416 64.088V57.992C110.416 57.6827 110.517 57.4267 110.72 57.224C110.922 57.0107 111.178 56.904 111.488 56.904C111.733 56.904 111.946 56.9787 112.128 57.128C112.32 57.2773 112.442 57.4747 112.496 57.72C112.784 57.464 113.114 57.2667 113.488 57.128C113.872 56.9787 114.282 56.904 114.72 56.904Z" fill="black"/>
<defs>
<clipPath id="clip0_1231_87822">
<rect width="16.8148" height="26.9036" fill="white" transform="translate(32.582 175.623)"/>
</clipPath>
<clipPath id="clip1_1231_87822">
<rect width="16.8148" height="26.9036" fill="white" transform="translate(72.5781 175.623)"/>
</clipPath>
<clipPath id="clip2_1231_87822">
<rect width="16.8148" height="27.7444" fill="white" transform="translate(112.58 175.623)"/>
</clipPath>
</defs>
</svg>
