<svg width="32" height="32" viewBox="0 0 32 32" fill="none" xmlns="http://www.w3.org/2000/svg">
<circle r="16" transform="matrix(-1 0 0 1 16 16)" fill="#E0DDFF"/>
<mask id="mask0_1231_87942" style="mask-type:alpha" maskUnits="userSpaceOnUse" x="0" y="0" width="32" height="32">
<circle r="16" transform="matrix(-1 0 0 1 16 16)" fill="#FFEDEF"/>
</mask>
<g mask="url(#mask0_1231_87942)">
<g clip-path="url(#clip0_1231_87942)">
<path d="M11.4256 30.5806C12.6406 28.893 13.5913 25.6303 13.7038 23.999L19.4838 21.5098L21.8887 30.5806H11.4256Z" fill="#F9C9B6" stroke="black" stroke-width="0.337519"/>
<mask id="mask1_1231_87942" style="mask-type:alpha" maskUnits="userSpaceOnUse" x="11" y="21" width="11" height="11">
<path d="M11.4256 31.4244C12.6406 29.7368 13.5913 25.6303 13.7038 23.999L19.4838 21.5098L21.8887 31.4244H11.4256Z" fill="#F9C9B6"/>
</mask>
<g mask="url(#mask1_1231_87942)">
<g style="mix-blend-mode:multiply">
<ellipse rx="4.97841" ry="4.55651" transform="matrix(-1 0 0 1 13.9571 21.3417)" fill="black"/>
</g>
</g>
<mask id="path-7-inside-1_1231_87942" fill="white">
<path fill-rule="evenodd" clip-rule="evenodd" d="M8.9025 16.3678C8.90564 16.3544 8.90882 16.3409 8.91204 16.3275C8.91527 16.314 8.91853 16.3006 8.92183 16.2872L10.2982 10.5426C10.301 10.5305 10.3039 10.5184 10.3068 10.5063C10.3097 10.4941 10.3126 10.482 10.3156 10.4699L10.3171 10.4635L10.3172 10.4635C11.1794 6.96641 14.7045 4.81612 18.2125 5.65661C21.7205 6.4971 23.8884 10.0114 23.0723 13.5195L23.0725 13.5196L21.6388 19.5036L21.6375 19.5033C20.7429 22.9549 17.2439 25.0675 13.7617 24.2332C10.2795 23.3989 8.11774 19.93 8.88439 16.4478L8.88341 16.4475L8.9025 16.3678Z"/>
</mask>
<path fill-rule="evenodd" clip-rule="evenodd" d="M8.9025 16.3678C8.90564 16.3544 8.90882 16.3409 8.91204 16.3275C8.91527 16.314 8.91853 16.3006 8.92183 16.2872L10.2982 10.5426C10.301 10.5305 10.3039 10.5184 10.3068 10.5063C10.3097 10.4941 10.3126 10.482 10.3156 10.4699L10.3171 10.4635L10.3172 10.4635C11.1794 6.96641 14.7045 4.81612 18.2125 5.65661C21.7205 6.4971 23.8884 10.0114 23.0723 13.5195L23.0725 13.5196L21.6388 19.5036L21.6375 19.5033C20.7429 22.9549 17.2439 25.0675 13.7617 24.2332C10.2795 23.3989 8.11774 19.93 8.88439 16.4478L8.88341 16.4475L8.9025 16.3678Z" fill="#F9C9B6"/>
<path d="M8.9025 16.3678L9.23122 16.4444L9.23073 16.4465L8.9025 16.3678ZM8.92183 16.2872L9.25007 16.3658L9.24957 16.3678L8.92183 16.2872ZM10.2982 10.5426L10.6268 10.6194L10.6264 10.6213L10.2982 10.5426ZM10.3068 10.5063L9.97855 10.4276L9.97855 10.4276L10.3068 10.5063ZM10.3156 10.4699L10.6438 10.5486L10.6434 10.5504L10.3156 10.4699ZM10.3171 10.4635L9.98891 10.3848L10.0679 10.0553L10.3971 10.1356L10.3171 10.4635ZM10.3172 10.4635L10.6449 10.5443L10.5643 10.8712L10.2372 10.7914L10.3172 10.4635ZM18.2125 5.65661L18.1339 5.98484L18.2125 5.65661ZM23.0723 13.5195L22.9932 13.8476L22.6676 13.7692L22.7435 13.443L23.0723 13.5195ZM23.0725 13.5196L23.1515 13.1914L23.4793 13.2704L23.4007 13.5982L23.0725 13.5196ZM21.6388 19.5036L21.967 19.5822L21.8883 19.9106L21.56 19.8318L21.6388 19.5036ZM21.6375 19.5033L21.3108 19.4186L21.394 19.0978L21.7163 19.1751L21.6375 19.5033ZM13.7617 24.2332L13.683 24.5614L13.683 24.5614L13.7617 24.2332ZM8.88439 16.4478L8.9631 16.1195L9.28525 16.1968L9.21402 16.5203L8.88439 16.4478ZM8.88341 16.4475L8.8047 16.7757L8.47655 16.697L8.55518 16.3689L8.88341 16.4475ZM8.57379 16.2912C8.57708 16.2771 8.58042 16.263 8.58381 16.2488L9.24027 16.4061C9.23721 16.4189 9.23419 16.4317 9.23121 16.4444L8.57379 16.2912ZM8.58381 16.2488C8.5872 16.2347 8.59062 16.2206 8.5941 16.2065L9.24957 16.3678C9.24643 16.3806 9.24334 16.3933 9.24027 16.4061L8.58381 16.2488ZM10.6264 10.6213L9.25006 16.3658L8.5936 16.2085L9.96994 10.464L10.6264 10.6213ZM9.96951 10.4658C9.97249 10.4531 9.9755 10.4403 9.97855 10.4276L10.635 10.5849C10.6323 10.5964 10.6295 10.6079 10.6268 10.6194L9.96951 10.4658ZM9.97855 10.4276C9.9816 10.4149 9.98468 10.4022 9.9878 10.3895L10.6434 10.5504C10.6406 10.5619 10.6378 10.5734 10.635 10.5849L9.97855 10.4276ZM10.6454 10.5421L10.6438 10.5486L9.98736 10.3913L9.98891 10.3848L10.6454 10.5421ZM10.2372 10.7914L10.2372 10.7914L10.3971 10.1356L10.3972 10.1356L10.2372 10.7914ZM9.98947 10.3827C10.8961 6.70558 14.6026 4.44463 18.2911 5.32838L18.1339 5.98484C14.8064 5.18761 11.4627 7.22723 10.6449 10.5443L9.98947 10.3827ZM18.2911 5.32838C21.9797 6.21213 24.2592 9.90727 23.401 13.596L22.7435 13.443C23.5177 10.1155 21.4613 6.78207 18.1339 5.98484L18.2911 5.32838ZM22.9935 13.8477L22.9932 13.8476L23.1513 13.1914L23.1515 13.1914L22.9935 13.8477ZM21.3105 19.425L22.7443 13.4409L23.4007 13.5982L21.967 19.5822L21.3105 19.425ZM21.7163 19.1751L21.7175 19.1754L21.56 19.8318L21.5588 19.8315L21.7163 19.1751ZM21.9643 19.588C21.0236 23.2173 17.3445 25.4387 13.683 24.5614L13.8403 23.905C17.1433 24.6963 20.4623 22.6924 21.3108 19.4186L21.9643 19.588ZM13.683 24.5614C10.0216 23.6842 7.74863 20.0368 8.55477 16.3752L9.21402 16.5203C8.48685 19.8232 10.5374 23.1136 13.8403 23.905L13.683 24.5614ZM8.96212 16.1193L8.9631 16.1195L8.80569 16.776L8.8047 16.7757L8.96212 16.1193ZM9.23073 16.4465L9.21164 16.5262L8.55518 16.3689L8.57427 16.2892L9.23073 16.4465Z" fill="black" mask="url(#path-7-inside-1_1231_87942)"/>
</g>
<path d="M17.0137 20.252C16.5135 21.6153 14.0174 21.7855 12.2028 19.7234" stroke="black" stroke-width="0.338068"/>
<circle r="1.01256" transform="matrix(-0.994007 -0.109312 -0.109312 0.994007 17.9629 13.3841)" fill="#D2EFF3"/>
<ellipse rx="0.759418" ry="1.13913" transform="matrix(-0.993014 -0.117996 -0.117996 0.993014 17.8537 14.1568)" fill="black"/>
<circle r="1.01256" transform="matrix(-0.994007 -0.109312 -0.109312 0.994007 12.582 12.6556)" fill="#D2EFF3"/>
<ellipse rx="0.759418" ry="1.13913" transform="matrix(-0.994007 -0.109312 -0.109312 0.994007 12.4546 13.313)" fill="black"/>
<path d="M13.541 11.1361C13.0629 10.911 11.9378 10.7057 11.2628 11.6845" stroke="black" stroke-width="0.337519" stroke-linecap="round"/>
<path d="M19.9039 13.2716C19.7291 12.7729 19.0869 11.8266 17.9156 12.0313" stroke="black" stroke-width="0.337519" stroke-linecap="round"/>
<path d="M19.6941 12.7587L20.2129 12.3008" stroke="black" stroke-width="0.337519" stroke-linecap="round"/>
<path d="M11.5188 11.2157L11 10.7578" stroke="black" stroke-width="0.337519" stroke-linecap="round"/>
<path d="M19.1507 12.2835L19.4922 11.6816" stroke="black" stroke-width="0.337519" stroke-linecap="round"/>
<path d="M12.1481 10.9085L11.8066 10.3066" stroke="black" stroke-width="0.337519" stroke-linecap="round"/>
<path d="M18.4686 11.9791L18.6543 11.3125" stroke="black" stroke-width="0.337519" stroke-linecap="round"/>
<path d="M12.9123 10.856L12.7266 10.1895" stroke="black" stroke-width="0.337519" stroke-linecap="round"/>
<path d="M18.2272 9.66679C18.0679 9.69192 18.068 9.69204 18.068 9.69217L18.068 9.69245L18.0681 9.69307L18.0684 9.69462L18.0691 9.69889L18.0717 9.71205C18.074 9.72287 18.0773 9.73776 18.0822 9.75661C18.092 9.79433 18.1078 9.84787 18.1329 9.91641C18.1831 10.0535 18.2701 10.2504 18.4192 10.5006C18.6867 10.9492 19.1534 11.5687 19.9647 12.3223C17.4358 12.3853 15.3235 11.5706 13.82 10.7163C13.0302 10.2674 12.4099 9.80844 11.9876 9.46216C11.7765 9.28907 11.615 9.14428 11.5068 9.04321C11.4527 8.99267 11.4119 8.95308 11.3848 8.92636C11.3713 8.913 11.3612 8.90286 11.3546 8.89617L11.3474 8.88878L11.3457 8.88708L11.3454 8.88675L11.3454 8.88671L11.1528 8.68643L11.0745 8.953L11.2291 8.99849L11.0744 8.95307L11.0744 8.95325L11.0742 8.95397L11.0733 8.95682L11.07 8.96804L11.0572 9.01192L11.0082 9.1801C10.9658 9.32592 10.9048 9.53647 10.8306 9.79547C10.6822 10.3134 10.4806 11.0253 10.2681 11.8008C9.84389 13.3489 9.37334 15.1603 9.19703 16.186C8.90234 17.9005 9.35803 19.2021 9.62758 19.9721C9.67998 20.1218 9.72534 20.2514 9.75679 20.36C9.75229 20.3638 9.74637 20.3684 9.73867 20.3739C9.68829 20.4096 9.59895 20.4507 9.46982 20.4918C9.21536 20.5727 8.85225 20.639 8.46387 20.6764C8.07621 20.7137 7.67266 20.7213 7.33847 20.6887C7.17122 20.6723 7.02577 20.6464 6.91021 20.6111C6.79916 20.5771 6.72966 20.5387 6.69213 20.5041C6.69095 20.4968 6.68947 20.4795 6.69369 20.446C6.70194 20.3806 6.72787 20.2884 6.77274 20.1665C6.8397 19.9845 6.93889 19.7616 7.05489 19.5011C7.09422 19.4128 7.13548 19.3201 7.17807 19.2232C7.50962 18.4689 7.90849 17.488 7.9954 16.4886C8.09196 15.3781 7.87252 14.4284 7.67528 13.5747L7.66588 13.534C7.46438 12.6615 7.29678 11.9039 7.46889 11.1361C7.73011 9.97074 8.08643 9.00057 8.63369 8.30344C9.17513 7.61372 9.90949 7.18324 10.9538 7.10409L11.0616 7.09592L11.095 6.99302C11.5755 5.51045 12.2242 4.54169 13.0514 3.94096C13.8783 3.34045 14.904 3.09288 16.1683 3.09288C18.5046 3.09288 21.0204 3.98049 22.9084 5.51611C24.7944 7.05015 26.0425 9.22002 25.8792 11.7884C25.699 14.6228 25.9044 16.772 26.3676 18.3457C26.79 19.7808 27.4302 20.7476 28.1976 21.3116C28.0969 21.3631 27.9627 21.4284 27.795 21.5031C27.3709 21.6922 26.7326 21.9417 25.8818 22.1805C24.2504 22.6382 21.8362 23.0563 18.6495 22.9303C19.352 22.327 20.0607 21.5948 20.6218 20.8209C21.2659 19.9326 21.7302 18.9693 21.7438 18.0721C21.7599 17.0067 21.6877 14.2187 21.6654 13.6416C21.6135 12.3003 20.7523 11.2664 19.9324 10.5786C19.5201 10.2328 19.1116 9.96878 18.8065 9.79128C18.6537 9.70243 18.5264 9.635 18.4369 9.58959C18.3922 9.56688 18.3568 9.54966 18.3324 9.53801L18.3042 9.52471L18.2966 9.52121L18.2945 9.52025L18.2939 9.51997L18.2936 9.51988C18.2936 9.51984 18.2935 9.51982 18.2272 9.66679ZM18.2272 9.66679L18.0679 9.69192L18.0214 9.39707L18.2935 9.51982L18.2272 9.66679ZM18.3863 9.64053C18.3863 9.64047 18.3863 9.64048 18.3863 9.64055L18.3863 9.64053ZM9.76975 20.3467C9.76956 20.3466 9.76855 20.3478 9.76735 20.35C9.76934 20.3478 9.76995 20.3467 9.76975 20.3467Z" fill="white" stroke="black" stroke-width="0.322486"/>
<path d="M10.9144 7.50391C10.8723 7.88362 10.9398 8.64303 11.041 9.14931" stroke="black" stroke-width="0.337519"/>
<path d="M15.1463 14.9315C15.1292 15.2557 15.0031 15.9509 14.6359 16.1379C14.177 16.3716 14.5368 17.1465 15.3959 17.0968" stroke="black" stroke-width="0.337519"/>
<path d="M20.962 15.3465V15.252L21.0425 15.2026C21.3575 15.0093 21.7406 14.9035 22.1365 14.9035C22.6125 14.9035 23.058 15.051 23.3754 15.3503C23.6964 15.653 23.8695 16.0956 23.8235 16.6473C23.7787 17.1849 23.5982 17.5806 23.2989 17.8436C23.3235 17.9279 23.3307 18.0188 23.3193 18.1144C23.2865 18.3902 23.1471 18.5889 22.9316 18.7114C22.7262 18.8281 22.4634 18.8693 22.1834 18.8693C21.7211 18.8693 21.3157 18.6207 21.007 18.2881L20.962 18.2395V18.1733V15.3465Z" stroke="black" stroke-width="0.337519"/>
<path fill-rule="evenodd" clip-rule="evenodd" d="M20.458 16.6735C20.452 16.6187 20.4489 16.5631 20.4489 16.5067C20.4489 15.6446 21.2511 15.0723 22.1365 15.0723C23.022 15.0723 23.7397 15.6207 23.6554 16.6333C23.6084 17.1968 23.4068 17.5676 23.0941 17.7908C23.1438 17.8772 23.1655 17.9787 23.1517 18.0946C23.0986 18.5402 22.7182 18.7007 22.1834 18.7007C21.2461 18.7007 20.5045 17.5147 20.458 16.6735Z" fill="#F9C9B6"/>
<path d="M21.7632 15.7896C22.1007 15.6349 22.8433 15.5534 23.1133 16.4647" stroke="black" stroke-width="0.337519"/>
<path d="M22.6504 15.832C22.4676 15.9867 22.1188 16.4649 22.1863 17.1399" stroke="black" stroke-width="0.337519"/>
<circle r="0.337519" transform="matrix(-1 0 0 1 22.3129 18.1949)" fill="white"/>
<circle r="0.0843798" transform="matrix(-1 0 0 1 22.2281 18.1098)" fill="#FFEDEF"/>
<path d="M15.9779 30.3793L15.8742 30.2461L15.9779 30.3793L15.8326 30.4924L15.7326 30.3379L15.7326 30.3379L15.7324 30.3376L15.7316 30.3364L15.7282 30.3311L15.7139 30.3097C15.7012 30.2907 15.6822 30.2626 15.6574 30.2267C15.6077 30.1549 15.5348 30.0522 15.4424 29.9294C15.2573 29.6835 14.9953 29.3586 14.6869 29.0411C14.3776 28.7226 14.0265 28.4166 13.6637 28.2036C13.2995 27.9898 12.9398 27.8792 12.606 27.9242C9.02499 28.4071 6.38979 29.9932 4.67923 32.3557H27.7402C26.3648 29.8798 24.4086 28.3039 21.237 27.5808C21.1019 27.55 20.9181 27.5593 20.6883 27.6128C20.4609 27.6657 20.2017 27.7586 19.9221 27.8815C19.3629 28.1273 18.7387 28.4857 18.1521 28.8569C17.5664 29.2277 17.0226 29.6084 16.6249 29.8968C16.4261 30.0409 16.2641 30.1617 16.1519 30.2464C16.0958 30.2888 16.0522 30.3221 16.0226 30.3448L15.9891 30.3706L15.9806 30.3772L15.9785 30.3788L15.9781 30.3792L15.9779 30.3793Z" fill="#CFE09E" stroke="black" stroke-width="0.337519"/>
<path d="M22.2361 27.8067L21.8001 26.1839C21.7825 26.1182 21.6974 26.0996 21.6515 26.1498C20.3974 27.5222 18.8147 27.4684 18.2894 27.4054C18.2181 27.3969 18.1623 27.4749 18.1958 27.5384L19.306 29.6439C19.323 29.6762 19.3578 29.694 19.3935 29.6865C19.7267 29.6171 21.3868 29.2113 22.2263 27.8726C22.2386 27.853 22.2421 27.829 22.2361 27.8067Z" fill="#CFE09E" stroke="black" stroke-width="0.337519"/>
<path d="M11.2173 27.799L12.1945 26.1551C12.2276 26.0992 12.3094 26.1002 12.3447 26.1546C12.8288 26.9002 13.6637 27.2437 13.9557 27.3451C14.0082 27.3634 14.0322 27.4258 14.0039 27.4736L12.8646 29.3987C12.8476 29.4275 12.8154 29.443 12.7833 29.4339C12.6032 29.3826 11.9851 29.1241 11.2184 27.8867C11.2019 27.8601 11.2013 27.8259 11.2173 27.799Z" fill="#CFE09E" stroke="black" stroke-width="0.337519"/>
<path d="M17.437 29.2771L18.1965 27.4629L18.7871 28.7286L17.437 29.2771Z" fill="black" stroke="black" stroke-width="0.337519" stroke-linejoin="round"/>
<path d="M14.7778 29.1911L14.0184 27.377L13.4277 28.6427L14.7778 29.1911Z" fill="black" stroke="black" stroke-width="0.337519" stroke-linejoin="round"/>
<path d="M20.7277 25.8594L21.7402 26.1125L20.8964 26.661L20.7277 25.8594Z" fill="black" stroke="black" stroke-width="0.337519" stroke-linejoin="round"/>
<path d="M13.1743 25.8594L12.2461 26.1125L12.8368 26.661L13.1743 25.8594Z" fill="black" stroke="black" stroke-width="0.337519" stroke-linejoin="round"/>
</g>
<defs>
<clipPath id="clip0_1231_87942">
<rect width="16.8148" height="26.9036" fill="white" transform="matrix(-1 0 0 1 24.4199 3.62109)"/>
</clipPath>
</defs>
</svg>
