<svg width="16" height="15" viewBox="0 0 16 15" fill="none" xmlns="http://www.w3.org/2000/svg">
<path fill-rule="evenodd" clip-rule="evenodd" d="M11.3964 0.771447C11.5917 0.576184 11.9083 0.576184 12.1036 0.771447L15.8536 4.52145C16.0488 4.71671 16.0488 5.03329 15.8536 5.22855L12.1036 8.97855C11.9083 9.17382 11.5917 9.17382 11.3964 8.97855C11.2012 8.78329 11.2012 8.46671 11.3964 8.27145L14.7929 4.875L11.3964 1.47855C11.2012 1.28329 11.2012 0.966709 11.3964 0.771447Z" />
<path fill-rule="evenodd" clip-rule="evenodd" d="M4.87499 5.375C4.36612 5.375 3.86223 5.47523 3.3921 5.66997C2.92196 5.8647 2.49478 6.15013 2.13496 6.50996C1.77513 6.86978 1.4897 7.29696 1.29497 7.7671C1.10023 8.23723 1 8.74112 1 9.24999V9.25C1 10.2777 1.40826 11.2633 2.13496 11.99C2.86166 12.7167 3.84729 13.125 4.875 13.125H11.75C12.0261 13.125 12.25 13.3489 12.25 13.625C12.25 13.9011 12.0261 14.125 11.75 14.125H4.875C3.58207 14.125 2.34209 13.6114 1.42785 12.6971C0.513615 11.7829 0 10.5429 0 9.25V9.24999C-1.19209e-07 8.6098 0.126095 7.97587 0.371086 7.38441C0.616078 6.79295 0.975167 6.25554 1.42785 5.80285C1.88054 5.35017 2.41795 4.99108 3.00941 4.74609C3.60087 4.5011 4.2348 4.375 4.87499 4.375H15.5C15.7761 4.375 16 4.59886 16 4.875C16 5.15114 15.7761 5.375 15.5 5.375H4.87499Z" />
</svg>
