<svg width="16" height="15" viewBox="0 0 16 15" fill="none" xmlns="http://www.w3.org/2000/svg">
<path fill-rule="evenodd" clip-rule="evenodd" d="M4.60355 0.771447C4.79882 0.966709 4.79882 1.28329 4.60355 1.47855L1.20711 4.875L4.60355 8.27145C4.79882 8.46671 4.79882 8.78329 4.60355 8.97855C4.40829 9.17382 4.09171 9.17382 3.89645 8.97855L0.146447 5.22855C-0.0488155 5.03329 -0.0488155 4.71671 0.146447 4.52145L3.89645 0.771447C4.09171 0.576184 4.40829 0.576184 4.60355 0.771447Z" />
<path fill-rule="evenodd" clip-rule="evenodd" d="M0 4.875C0 4.59886 0.223858 4.375 0.5 4.375H11.125C11.7652 4.375 12.3991 4.5011 12.9906 4.74609C13.582 4.99108 14.1195 5.35017 14.5721 5.80285C15.0248 6.25554 15.3839 6.79295 15.6289 7.38441C15.8739 7.97587 16 8.6098 16 9.24999V9.25C16 10.5429 15.4864 11.7829 14.5721 12.6971C13.6579 13.6114 12.4179 14.125 11.125 14.125H4.25C3.97386 14.125 3.75 13.9011 3.75 13.625C3.75 13.3489 3.97386 13.125 4.25 13.125H11.125C12.1527 13.125 13.1383 12.7167 13.865 11.99C14.5917 11.2633 15 10.2777 15 9.25V9.24999C15 8.74112 14.8998 8.23723 14.705 7.7671C14.5103 7.29696 14.2249 6.86978 13.865 6.50996C13.5052 6.15013 13.078 5.8647 12.6079 5.66997C12.1378 5.47523 11.6339 5.375 11.125 5.375H0.5C0.223858 5.375 0 5.15114 0 4.875Z" />
</svg>
