<svg width="16" height="16" viewBox="0 0 16 16" fill="none" xmlns="http://www.w3.org/2000/svg">
<path fill-rule="evenodd" clip-rule="evenodd" d="M12.6605 1.74886C12.304 1.60124 11.9219 1.5253 11.536 1.52539C11.1501 1.52548 10.768 1.6016 10.4116 1.74939C10.0551 1.89718 9.7313 2.11375 9.45857 2.38673L7.91161 3.93369C7.71634 4.12896 7.39976 4.12896 7.2045 3.93369C7.00924 3.73843 7.00924 3.42185 7.2045 3.22659L8.75113 1.67995C9.11667 1.31412 9.55085 1.02372 10.0286 0.825641C10.5064 0.627538 11.0185 0.525511 11.5357 0.525391C12.053 0.52527 12.5652 0.627058 13.0431 0.82494C13.5209 1.02282 13.9552 1.31292 14.3209 1.67866C14.6866 2.0444 14.9767 2.47861 15.1746 2.9565C15.3725 3.43438 15.4743 3.94657 15.4742 4.46381C15.474 4.98104 15.372 5.49318 15.1739 5.97098C14.9758 6.4487 14.6856 6.88272 14.3198 7.24826C14.3197 7.24831 14.3198 7.2482 14.3198 7.24826L12.1101 9.45796C11.7444 9.8236 11.3104 10.1136 10.8326 10.3115C10.3549 10.5094 9.8429 10.6112 9.32582 10.6112C8.80874 10.6112 8.29672 10.5094 7.819 10.3115C7.34129 10.1136 6.90722 9.8236 6.54159 9.45796C6.34633 9.2627 6.34633 8.94612 6.54159 8.75086C6.73685 8.5556 7.05343 8.5556 7.2487 8.75086C7.52147 9.02363 7.84529 9.24 8.20169 9.38763C8.55808 9.53525 8.94006 9.61123 9.32582 9.61123C9.71158 9.61123 10.0936 9.53525 10.45 9.38763C10.8063 9.24 11.1302 9.02363 11.4029 8.75086L13.6127 6.54115C13.8856 6.26842 14.1024 5.94442 14.2502 5.58797C14.398 5.23152 14.4741 4.84945 14.4742 4.46357C14.4743 4.0777 14.3983 3.69559 14.2507 3.33907C14.1031 2.98256 13.8866 2.65862 13.6138 2.38576C13.3409 2.11291 13.017 1.89649 12.6605 1.74886Z" />
<path fill-rule="evenodd" clip-rule="evenodd" d="M6.67422 6.38867C6.28846 6.38867 5.90648 6.46465 5.55009 6.61228C5.19369 6.7599 4.86987 6.97627 4.59709 7.24905L2.38738 9.45876C2.1144 9.73148 1.89767 10.0555 1.74988 10.4119C1.60208 10.7684 1.52597 11.1505 1.52588 11.5363C1.52579 11.9222 1.60173 12.3043 1.74935 12.6608C1.89698 13.0173 2.1134 13.3413 2.38625 13.6141C2.65911 13.887 2.98305 14.1034 3.33956 14.251C3.69608 14.3987 4.07819 14.4746 4.46406 14.4745C4.84994 14.4744 5.23201 14.3983 5.58846 14.2505C5.94491 14.1027 6.26875 13.8862 6.54147 13.6132L8.08843 12.0662C8.2837 11.8709 8.60028 11.8709 8.79554 12.0662C8.9908 12.2615 8.9908 12.5781 8.79554 12.7733L7.24891 14.3199C7.24885 14.32 7.24896 14.3199 7.24891 14.3199C6.88337 14.6858 6.44919 14.9762 5.97147 15.1743C5.49367 15.3724 4.98153 15.4744 4.4643 15.4745C3.94706 15.4746 3.43487 15.3728 2.95699 15.175C2.4791 14.9771 2.04489 14.687 1.67915 14.3212C1.31341 13.9555 1.02331 13.5213 0.825428 13.0434C0.627547 12.5655 0.525759 12.0533 0.525879 11.5361C0.525999 11.0189 0.628026 10.5067 0.82613 10.0289C1.02423 9.55113 1.31453 9.11705 1.68044 8.75148L3.88999 6.54194C4.25562 6.17631 4.68968 5.88627 5.1674 5.6884C5.64512 5.49052 6.15714 5.38867 6.67422 5.38867C7.1913 5.38867 7.70332 5.49052 8.18104 5.6884C8.65876 5.88627 9.09282 6.17631 9.45845 6.54194C9.65372 6.7372 9.65372 7.05378 9.45845 7.24905C9.26319 7.44431 8.94661 7.44431 8.75135 7.24905C8.47857 6.97627 8.15475 6.7599 7.79835 6.61228C7.44196 6.46465 7.05998 6.38867 6.67422 6.38867Z" />
</svg>
