<svg width="16" height="12" viewBox="0 0 16 12" fill="none" xmlns="http://www.w3.org/2000/svg">
<path fill-rule="evenodd" clip-rule="evenodd" d="M4.375 1C4.375 0.723858 4.59886 0.5 4.875 0.5H14.875C15.1511 0.5 15.375 0.723858 15.375 1C15.375 1.27614 15.1511 1.5 14.875 1.5H4.875C4.59886 1.5 4.375 1.27614 4.375 1Z" />
<path fill-rule="evenodd" clip-rule="evenodd" d="M4.37549 6C4.37549 5.72386 4.59935 5.5 4.87549 5.5H14.875C15.1512 5.5 15.375 5.72386 15.375 6C15.375 6.27614 15.1512 6.5 14.875 6.5H4.87549C4.59935 6.5 4.37549 6.27614 4.37549 6Z" />
<path fill-rule="evenodd" clip-rule="evenodd" d="M4.37549 11C4.37549 10.7239 4.59935 10.5 4.87549 10.5H14.875C15.1512 10.5 15.375 10.7239 15.375 11C15.375 11.2761 15.1512 11.5 14.875 11.5H4.87549C4.59935 11.5 4.37549 11.2761 4.37549 11Z" />
<path d="M1.4375 1.9375C1.95527 1.9375 2.375 1.51777 2.375 1C2.375 0.482233 1.95527 0.0625 1.4375 0.0625C0.919733 0.0625 0.5 0.482233 0.5 1C0.5 1.51777 0.919733 1.9375 1.4375 1.9375Z" />
<path d="M1.4375 6.9375C1.95527 6.9375 2.375 6.51777 2.375 6C2.375 5.48223 1.95527 5.0625 1.4375 5.0625C0.919733 5.0625 0.5 5.48223 0.5 6C0.5 6.51777 0.919733 6.9375 1.4375 6.9375Z" />
<path d="M1.4375 11.9375C1.95527 11.9375 2.375 11.5178 2.375 11C2.375 10.4822 1.95527 10.0625 1.4375 10.0625C0.919733 10.0625 0.5 10.4822 0.5 11C0.5 11.5178 0.919733 11.9375 1.4375 11.9375Z" />
</svg>
