<svg width="16" height="14" viewBox="0 0 16 14" fill="none" xmlns="http://www.w3.org/2000/svg">
<path fill-rule="evenodd" clip-rule="evenodd" d="M5.625 7C5.625 6.72386 5.84886 6.5 6.125 6.5H14.8749C15.1511 6.5 15.3749 6.72386 15.3749 7C15.3749 7.27614 15.1511 7.5 14.8749 7.5H6.125C5.84886 7.5 5.625 7.27614 5.625 7Z" />
<path fill-rule="evenodd" clip-rule="evenodd" d="M5.625 2C5.625 1.72386 5.84886 1.5 6.125 1.5H14.8749C15.1511 1.5 15.3749 1.72386 15.3749 2C15.3749 2.27614 15.1511 2.5 14.8749 2.5H6.125C5.84886 2.5 5.625 2.27614 5.625 2Z" />
<path fill-rule="evenodd" clip-rule="evenodd" d="M5.62494 12C5.62494 11.7239 5.8488 11.5 6.12494 11.5H14.8749C15.1511 11.5 15.3749 11.7239 15.3749 12C15.3749 12.2761 15.1511 12.5 14.8749 12.5H6.12494C5.8488 12.5 5.62494 12.2761 5.62494 12Z" />
<path fill-rule="evenodd" clip-rule="evenodd" d="M2.63785 0.637175C2.78526 0.728278 2.87499 0.889212 2.87499 1.0625V5.43703C2.87499 5.71317 2.65113 5.93703 2.37499 5.93703C2.09885 5.93703 1.87499 5.71317 1.87499 5.43703V1.87152L1.34859 2.13471C1.10161 2.25821 0.801268 2.1581 0.677774 1.91111C0.554279 1.66412 0.654391 1.36378 0.901381 1.24029L2.15138 0.615287C2.30637 0.53779 2.49044 0.546072 2.63785 0.637175Z" />
<path fill-rule="evenodd" clip-rule="evenodd" d="M2.26582 8.75188C2.18326 8.74529 2.10023 8.75605 2.02207 8.78345C1.94391 8.81086 1.87234 8.85431 1.81197 8.91101C1.7516 8.96771 1.70375 9.03642 1.67151 9.11271C1.56401 9.36707 1.27066 9.48612 1.0163 9.37861C0.761946 9.27111 0.642897 8.97776 0.7504 8.72341C0.836934 8.51866 0.965335 8.33428 1.12736 8.18211C1.28938 8.02993 1.48143 7.91332 1.69119 7.83978C1.90095 7.76623 2.12378 7.73737 2.34535 7.75505C2.56693 7.77273 2.78235 7.83655 2.9778 7.94243C3.17324 8.04831 3.34438 8.19389 3.48022 8.36983C3.61606 8.54577 3.71361 8.74818 3.76658 8.96406C3.81955 9.17993 3.82679 9.4045 3.78783 9.62334C3.74886 9.84218 3.66456 10.0504 3.54032 10.2348C3.53566 10.2417 3.53082 10.2485 3.52582 10.2552L2.12453 12.125H3.3125C3.58865 12.125 3.8125 12.3489 3.8125 12.625C3.8125 12.9012 3.58865 13.125 3.3125 13.125H1.125C0.935651 13.125 0.762545 13.0181 0.677832 12.8487C0.593119 12.6794 0.611335 12.4767 0.724888 12.3252L2.71695 9.66701C2.76003 9.60054 2.78941 9.5261 2.80331 9.44804C2.81783 9.3665 2.81513 9.28282 2.79539 9.20238C2.77566 9.12194 2.73931 9.04652 2.68869 8.98096C2.63807 8.9154 2.5743 8.86115 2.50148 8.8217C2.42865 8.78225 2.34838 8.75847 2.26582 8.75188Z" />
</svg>
