<svg width="16" height="12" viewBox="0 0 16 12" fill="none" xmlns="http://www.w3.org/2000/svg">
<path d="M1.81917 10.581C0.960833 9.66935 0.5 8.64685 0.5 6.98935C0.5 4.07268 2.5475 1.45852 5.525 0.166016L6.26917 1.31435C3.49 2.81768 2.94667 4.76851 2.73 5.99851C3.1775 5.76685 3.76333 5.68602 4.3375 5.73935C5.84083 5.87852 7.02583 7.11268 7.02583 8.64685C7.02583 9.4204 6.71854 10.1623 6.17156 10.7092C5.62458 11.2562 4.88271 11.5635 4.10917 11.5635C3.68138 11.5598 3.25861 11.471 2.86547 11.3023C2.47232 11.1336 2.11666 10.8884 1.81917 10.581V10.581ZM10.1525 10.581C9.29417 9.66935 8.83333 8.64685 8.83333 6.98935C8.83333 4.07268 10.8808 1.45852 13.8583 0.166016L14.6025 1.31435C11.8233 2.81768 11.28 4.76851 11.0633 5.99851C11.5108 5.76685 12.0967 5.68602 12.6708 5.73935C14.1742 5.87852 15.3592 7.11268 15.3592 8.64685C15.3592 9.4204 15.0519 10.1623 14.5049 10.7092C13.9579 11.2562 13.216 11.5635 12.4425 11.5635C12.0147 11.5598 11.5919 11.471 11.1988 11.3023C10.8057 11.1336 10.45 10.8884 10.1525 10.581V10.581Z" />
</svg>
