<svg width="16" height="12" viewBox="0 0 16 12" fill="none" xmlns="http://www.w3.org/2000/svg">
<path fill-rule="evenodd" clip-rule="evenodd" d="M0.625 1.3125C0.625 1.03636 0.848858 0.8125 1.125 0.8125H14.875C15.1511 0.8125 15.375 1.03636 15.375 1.3125C15.375 1.58864 15.1511 1.8125 14.875 1.8125H1.125C0.848858 1.8125 0.625 1.58864 0.625 1.3125Z" />
<path fill-rule="evenodd" clip-rule="evenodd" d="M0.625 4.4375C0.625 4.16136 0.848858 3.9375 1.125 3.9375H11.125C11.4011 3.9375 11.625 4.16136 11.625 4.4375C11.625 4.71364 11.4011 4.9375 11.125 4.9375H1.125C0.848858 4.9375 0.625 4.71364 0.625 4.4375Z" />
<path fill-rule="evenodd" clip-rule="evenodd" d="M0.625488 7.5625C0.625488 7.28636 0.849346 7.0625 1.12549 7.0625H14.875C15.1512 7.0625 15.375 7.28636 15.375 7.5625C15.375 7.83864 15.1512 8.0625 14.875 8.0625H1.12549C0.849346 8.0625 0.625488 7.83864 0.625488 7.5625Z" />
<path fill-rule="evenodd" clip-rule="evenodd" d="M0.625488 10.6875C0.625488 10.4114 0.849346 10.1875 1.12549 10.1875H11.125C11.4012 10.1875 11.625 10.4114 11.625 10.6875C11.625 10.9636 11.4012 11.1875 11.125 11.1875H1.12549C0.849346 11.1875 0.625488 10.9636 0.625488 10.6875Z" />
</svg>
