<svg width="16" height="15" viewBox="0 0 16 15" fill="none" xmlns="http://www.w3.org/2000/svg">
<path fill-rule="evenodd" clip-rule="evenodd" d="M0.625 13.875C0.625 13.5989 0.848858 13.375 1.125 13.375H14.875C15.1511 13.375 15.375 13.5989 15.375 13.875C15.375 14.1511 15.1511 14.375 14.875 14.375H1.125C0.848858 14.375 0.625 14.1511 0.625 13.875Z" />
<path fill-rule="evenodd" clip-rule="evenodd" d="M3 0.875C3.27614 0.875 3.5 1.09886 3.5 1.375V6.375C3.5 7.56847 3.97411 8.71307 4.81802 9.55698C5.66193 10.4009 6.80653 10.875 8 10.875C9.19347 10.875 10.3381 10.4009 11.182 9.55698C12.0259 8.71307 12.5 7.56847 12.5 6.375V1.375C12.5 1.09886 12.7239 0.875 13 0.875C13.2761 0.875 13.5 1.09886 13.5 1.375V6.375C13.5 7.83369 12.9205 9.23264 11.8891 10.2641C10.8576 11.2955 9.45869 11.875 8 11.875C6.54131 11.875 5.14236 11.2955 4.11091 10.2641C3.07946 9.23264 2.5 7.83369 2.5 6.375V1.375C2.5 1.09886 2.72386 0.875 3 0.875Z" />
</svg>
