<svg width="12" height="14" viewBox="0 0 12 14" fill="none" xmlns="http://www.w3.org/2000/svg">
<path fill-rule="evenodd" clip-rule="evenodd" d="M0.64597 0.396435C0.739745 0.302666 0.86693 0.249991 0.999544 0.25L6.93747 0.250381C6.93748 0.250381 6.93746 0.250381 6.93747 0.250381C7.81599 0.25039 8.65855 0.599383 9.27976 1.22059C9.90097 1.8418 10.25 2.68435 10.25 3.56288C10.25 4.44141 9.90097 5.28396 9.27976 5.90517C9.21746 5.96747 9.15293 6.02704 9.08637 6.08378C9.59015 6.26241 10.0531 6.55195 10.4382 6.93712C11.1181 7.61694 11.5 8.53897 11.5 9.50038C11.5 10.4618 11.1181 11.3838 10.4382 12.0636C9.75841 12.7435 8.83638 13.1254 7.87497 13.1254L0.999484 13.125C0.723352 13.125 0.499512 12.9011 0.499512 12.625V0.75C0.499512 0.617386 0.552195 0.490204 0.64597 0.396435ZM6.93747 5.87538C7.55078 5.87538 8.13898 5.63174 8.57265 5.19807C9.00633 4.76439 9.24997 4.17619 9.24997 3.56288C9.24997 2.94957 9.00633 2.36137 8.57265 1.9277C8.13898 1.49402 7.55078 1.25038 6.93747 1.25038L1.49951 1.25003V5.87538H6.93747ZM1.49951 6.87538V12.125L7.87497 12.1254C7.87498 12.1254 7.87496 12.1254 7.87497 12.1254C8.57115 12.1254 9.23885 11.8488 9.73112 11.3565C10.2234 10.8643 10.5 10.1966 10.5 9.50038C10.5 8.80419 10.2234 8.13651 9.73112 7.64423C9.23884 7.15194 8.57116 6.87538 7.87497 6.87538H1.49951Z" />
</svg>
