<svg width="16" height="12" viewBox="0 0 16 12" fill="none" xmlns="http://www.w3.org/2000/svg">
<path fill-rule="evenodd" clip-rule="evenodd" d="M0.625 1.3125C0.625 1.03636 0.848858 0.8125 1.125 0.8125H14.875C15.1511 0.8125 15.375 1.03636 15.375 1.3125C15.375 1.58864 15.1511 1.8125 14.875 1.8125H1.125C0.848858 1.8125 0.625 1.58864 0.625 1.3125Z" />
<path fill-rule="evenodd" clip-rule="evenodd" d="M2.5 4.4375C2.5 4.16136 2.72386 3.9375 3 3.9375H13C13.2761 3.9375 13.5 4.16136 13.5 4.4375C13.5 4.71364 13.2761 4.9375 13 4.9375H3C2.72386 4.9375 2.5 4.71364 2.5 4.4375Z" />
<path fill-rule="evenodd" clip-rule="evenodd" d="M0.625244 7.5625C0.625244 7.28636 0.849102 7.0625 1.12524 7.0625H14.8748C15.1509 7.0625 15.3748 7.28636 15.3748 7.5625C15.3748 7.83864 15.1509 8.0625 14.8748 8.0625H1.12524C0.849102 8.0625 0.625244 7.83864 0.625244 7.5625Z" />
<path fill-rule="evenodd" clip-rule="evenodd" d="M2.50024 10.6875C2.50024 10.4114 2.7241 10.1875 3.00024 10.1875H12.9998C13.2759 10.1875 13.4998 10.4114 13.4998 10.6875C13.4998 10.9636 13.2759 11.1875 12.9998 11.1875H3.00024C2.7241 11.1875 2.50024 10.9636 2.50024 10.6875Z" />
</svg>
