<svg width="12" height="14" viewBox="0 0 12 14" fill="none" xmlns="http://www.w3.org/2000/svg">
<path fill-rule="evenodd" clip-rule="evenodd" d="M8.03264 0.900794C8.29461 0.988118 8.43619 1.27128 8.34887 1.53325L4.59887 12.7832C4.51154 13.0452 4.22838 13.1868 3.96641 13.0995C3.70444 13.0122 3.56286 12.729 3.65018 12.467L7.40018 1.21702C7.48751 0.95505 7.77067 0.81347 8.03264 0.900794Z" />
<path fill-rule="evenodd" clip-rule="evenodd" d="M0.499512 12.625C0.499512 12.3489 0.723369 12.125 0.999512 12.125H7.24951C7.52565 12.125 7.74951 12.3489 7.74951 12.625C7.74951 12.9011 7.52565 13.125 7.24951 13.125H0.999512C0.723369 13.125 0.499512 12.9011 0.499512 12.625Z" />
<path fill-rule="evenodd" clip-rule="evenodd" d="M4.24951 1.375C4.24951 1.09886 4.47337 0.875 4.74951 0.875H10.9995C11.2757 0.875 11.4995 1.09886 11.4995 1.375C11.4995 1.65114 11.2757 1.875 10.9995 1.875H4.74951C4.47337 1.875 4.24951 1.65114 4.24951 1.375Z" />
</svg>
