<svg width="114" height="32" viewBox="0 0 114 32" fill="none" xmlns="http://www.w3.org/2000/svg">
<path d="M26.8619 4.61599C23.7878 1.53866 20.1093 0 15.8198 0C11.5303 0 7.80322 1.53866 4.61599 4.61599C1.53866 7.69008 0 11.3719 0 15.6582C0 19.9444 1.53866 23.6779 4.61599 26.8652C7.80322 29.9393 11.54 31.4812 15.823 31.4812C20.1061 31.4812 23.7879 29.9425 26.8652 26.8652C30.0524 23.6779 31.646 19.9412 31.646 15.6582C31.646 11.3751 30.0524 7.69331 26.8652 4.61599H26.8619ZM14.6173 21.2697C14.6173 22.0229 14.3361 22.6791 13.7768 23.2416C13.237 23.7814 12.5873 24.0529 11.8341 24.0529C11.081 24.0529 10.4248 23.7814 9.86231 23.2416C9.32248 22.6823 9.05096 22.0229 9.05096 21.2697V10.1791C9.05096 9.42592 9.32248 8.77943 9.86231 8.23637C10.4215 7.69654 11.081 7.42502 11.8341 7.42502C12.5873 7.42502 13.2338 7.69654 13.7768 8.23637C14.3361 8.77619 14.6173 9.42592 14.6173 10.1791V21.2697ZM22.5886 21.2697C22.5886 22.0229 22.3074 22.6791 21.7482 23.2416C21.2083 23.7814 20.5586 24.0529 19.8054 24.0529C19.0523 24.0529 18.3961 23.7814 17.8336 23.2416C17.2938 22.6823 17.0223 22.0229 17.0223 21.2697V17.1031C17.0287 16.3628 17.297 15.7228 17.8304 15.1894C18.3896 14.6496 19.049 14.3781 19.8022 14.3781C20.5554 14.3781 21.2019 14.6496 21.7449 15.1894C22.2977 15.7228 22.5757 16.3628 22.5821 17.1031V21.2697H22.5886ZM21.7482 12.1509C21.2083 12.6907 20.5586 12.9623 19.8054 12.9623C19.0523 12.9623 18.3961 12.6907 17.8336 12.1509C17.2938 11.5917 17.0223 10.9323 17.0223 10.1791C17.0223 9.42592 17.2938 8.77943 17.8336 8.23637C18.3928 7.69654 19.0523 7.42502 19.8054 7.42502C20.5586 7.42502 21.2051 7.69654 21.7482 8.23637C22.3074 8.77619 22.5886 9.42592 22.5886 10.1791C22.5886 10.9323 22.3074 11.5885 21.7482 12.1509Z" fill="url(#paint0_linear_183_3632)"/>
<path d="M42.3558 31.4781C40.384 31.4781 38.7871 29.8812 38.7871 27.9094V3.65606C38.7871 1.68425 40.384 0.0874023 42.3558 0.0874023C44.3276 0.0874023 45.9244 1.68425 45.9244 3.65606V27.9094C45.9244 29.8812 44.3276 31.4781 42.3558 31.4781Z" fill="black"/>
<path d="M98.5162 20.7268L102.453 26.3513C103.963 28.5106 102.421 31.4748 99.7866 31.4748C98.6972 31.4748 97.6822 30.9318 97.0778 30.0234L91.9381 22.314V27.9062C91.9381 29.878 90.3413 31.4748 88.3694 31.4748C86.3976 31.4748 84.8008 29.878 84.8008 27.9062V3.65606C84.8008 1.68425 86.3976 0.0874023 88.3694 0.0874023C90.3413 0.0874023 91.9381 1.68425 91.9381 3.65606V18.9651L96.4927 11.5886C97.1101 10.5865 98.2027 9.9788 99.3793 9.9788C102.095 9.9788 103.708 13.0076 102.195 15.2607L98.5194 20.73L98.5162 20.7268Z" fill="black"/>
<path d="M55.9449 7.00803C55.1432 7.80968 54.1831 8.21374 53.0647 8.21374C51.9463 8.21374 50.9733 7.81291 50.1393 7.00803C49.3377 6.17728 48.9336 5.20107 48.9336 4.08263C48.9336 2.96419 49.3344 2.00414 50.1393 1.20248C50.9701 0.400828 51.9463 0 53.0615 0C54.1767 0 55.14 0.400828 55.9416 1.20572C56.7724 2.00737 57.1894 2.96742 57.1894 4.08586C57.1894 5.2043 56.7724 6.17728 55.9416 7.01126L55.9449 7.00803Z" fill="black"/>
<path d="M56.6295 13.5438C56.6295 11.5728 55.0318 9.9751 53.0608 9.9751C51.0899 9.9751 49.4922 11.5728 49.4922 13.5438V27.9089C49.4922 29.8798 51.0899 31.4776 53.0608 31.4776C55.0318 31.4776 56.6295 29.8798 56.6295 27.9089V13.5438Z" fill="black"/>
<path d="M79.0602 11.8052C77.612 10.1857 75.6984 9.37439 73.3193 9.37439C70.6234 9.37439 67.3424 10.4799 67.3424 13.7706V13.5475C67.3424 11.5757 65.7456 9.97886 63.7737 9.97886C61.8019 9.97886 60.2051 11.5757 60.2051 13.5475V27.9095C60.2051 29.8813 61.8019 31.4781 63.7737 31.4781C65.7456 31.4781 67.3424 29.8813 67.3424 27.9095V20.0384C67.3424 18.7777 67.6495 17.8112 68.2669 17.1356C68.8843 16.4632 69.7506 16.1238 70.869 16.1238C71.8711 16.1238 72.6598 16.418 73.2352 17.0063C73.8074 17.5946 74.0951 18.4318 74.0951 19.5212V27.9062C74.0951 29.878 75.6919 31.4749 77.6637 31.4749C79.6355 31.4749 81.2324 29.878 81.2324 27.9062V18.6161C81.2324 15.6907 80.5083 13.4215 79.0602 11.802V11.8052Z" fill="black"/>
<path d="M112.751 7.00803C111.95 7.80968 110.99 8.21374 109.871 8.21374C108.753 8.21374 107.78 7.81291 106.946 7.00803C106.144 6.17728 105.74 5.20107 105.74 4.08263C105.74 2.96419 106.141 2.00414 106.946 1.20248C107.78 0.400828 108.753 0 109.871 0C110.99 0 111.95 0.400828 112.751 1.20572C113.582 2.00737 113.999 2.96742 113.999 4.08586C113.999 5.2043 113.582 6.17728 112.751 7.01126V7.00803Z" fill="black"/>
<path d="M113.442 13.5438C113.442 11.5728 111.844 9.9751 109.873 9.9751C107.902 9.9751 106.305 11.5728 106.305 13.5438V27.9089C106.305 29.8798 107.902 31.4776 109.873 31.4776C111.844 31.4776 113.442 29.8798 113.442 27.9089V13.5438Z" fill="black"/>
<defs>
<linearGradient id="paint0_linear_183_3632" x1="15.823" y1="0" x2="15.823" y2="31.4779" gradientUnits="userSpaceOnUse">
<stop stop-color="#6420FF"/>
<stop offset="1" stop-color="#A700FF"/>
</linearGradient>
</defs>
</svg>
