<svg width="49" height="48" viewBox="0 0 49 48" fill="none" xmlns="http://www.w3.org/2000/svg">
<path d="M39.8358 9.08482C35.6393 4.94819 30.6177 2.87988 24.7621 2.87988C18.9065 2.87988 13.8187 4.94819 9.46779 9.08482C5.26693 13.2171 3.1665 18.1663 3.1665 23.928C3.1665 29.6897 5.26693 34.7084 9.46779 38.9928C13.8187 43.1251 18.9197 45.1977 24.7665 45.1977C30.6133 45.1977 35.6393 43.1294 39.8402 38.9928C44.1911 34.7084 46.3665 29.6854 46.3665 23.928C46.3665 18.1706 44.1911 13.2214 39.8402 9.08482H39.8358ZM23.1206 31.4713C23.1206 32.4837 22.7367 33.3658 21.9733 34.1218C21.2364 34.8475 20.3494 35.2125 19.3213 35.2125C18.2931 35.2125 17.3974 34.8475 16.6295 34.1218C15.8926 33.3701 15.522 32.4837 15.522 31.4713V16.5629C15.522 15.5505 15.8926 14.6814 16.6295 13.9514C17.3929 13.2258 18.2931 12.8608 19.3213 12.8608C20.3494 12.8608 21.232 13.2258 21.9733 13.9514C22.7367 14.6771 23.1206 15.5505 23.1206 16.5629V31.4713ZM34.0022 31.4713C34.0022 32.4837 33.6183 33.3658 32.8549 34.1218C32.118 34.8475 31.2311 35.2125 30.2029 35.2125C29.1748 35.2125 28.279 34.8475 27.5112 34.1218C26.7743 33.3701 26.4036 32.4837 26.4036 31.4713V25.8703C26.4124 24.8752 26.7787 24.0149 27.5068 23.2979C28.2702 22.5723 29.1703 22.2073 30.1985 22.2073C31.2266 22.2073 32.1092 22.5723 32.8505 23.2979C33.6051 24.0149 33.9846 24.8752 33.9934 25.8703V31.4713H34.0022ZM32.8549 19.2135C32.118 19.9391 31.2311 20.3041 30.2029 20.3041C29.1748 20.3041 28.279 19.9391 27.5112 19.2135C26.7743 18.4617 26.4036 17.5753 26.4036 16.5629C26.4036 15.5505 26.7743 14.6814 27.5112 13.9514C28.2746 13.2258 29.1748 12.8608 30.2029 12.8608C31.2311 12.8608 32.1136 13.2258 32.8549 13.9514C33.6183 14.6771 34.0022 15.5505 34.0022 16.5629C34.0022 17.5753 33.6183 18.4574 32.8549 19.2135Z" fill="url(#paint0_linear_2634_88788)"/>
<defs>
<linearGradient id="paint0_linear_2634_88788" x1="24.7665" y1="2.87988" x2="24.7665" y2="45.1934" gradientUnits="userSpaceOnUse">
<stop stop-color="#6420FF"/>
<stop offset="1" stop-color="#A700FF"/>
</linearGradient>
</defs>
</svg>
